M48
; DRILL file KiCad 10.0.5 date 2026-10-08T04:26:24
; FORMAT={-:-/ absolute / metric / decimal}
; #@! TF.CreationDate,2026-10-08T04:26:24-07:00
; #@! TF.GenerationSoftware,Kicad,Pcbnew,10.0.5
; #@! TF.FileFunction,Plated,1,4,PTH
FMAT,2
METRIC
; #@! TA.AperFunction,Plated,PTH,ViaDrill
T1C0.300
; #@! TA.AperFunction,Plated,PTH,ComponentDrill
T2C0.600
; #@! TA.AperFunction,Plated,PTH,ComponentDrill
T3C0.900
; #@! TA.AperFunction,Plated,PTH,ComponentDrill
T4C1.000
; #@! TA.AperFunction,Plated,PTH,ComponentDrill
T5C1.200
; #@! TA.AperFunction,Plated,PTH,ComponentDrill
T6C1.300
; #@! TA.AperFunction,Plated,PTH,ComponentDrill
T7C1.700
; #@! TA.AperFunction,Plated,PTH,ComponentDrill
T8C1.800
%
G90
G05
T1
X56.8Y-94.35
X58.0Y-91.0
X61.35Y-106.95
X62.0Y-124.9
X64.0Y-91.0
X64.82Y-92.7
X65.69Y-91.1
X65.82Y-84.6
X66.82Y-87.7
X68.5Y-72.4
X69.75Y-92.23
X69.75Y-100.4
X69.9Y-80.75
X69.9Y-82.75
X70.75Y-102.6
X70.75Y-106.11
X70.75Y-107.93
X72.4Y-92.55
X73.1Y-111.8
X73.5Y-76.55
X74.0Y-77.34
X74.2Y-72.4
X74.3Y-84.1
X75.53Y-109.81
X76.4Y-66.99
X77.4Y-104.675
X77.6Y-83.4
X77.9Y-108.58
X79.4Y-104.025
X79.4Y-105.975
X79.4Y-108.575
X81.12Y-86.25
X81.27Y-109.81
X81.75Y-85.5
X82.3Y-82.27
X82.93Y-88.8
X83.68Y-107.275
X84.35Y-92.85
X84.53Y-107.275
X84.75Y-93.6
X85.05Y-103.37
X85.6Y-92.35
X85.85Y-71.725
X86.0Y-124.9
X86.53Y-79.73
X86.9Y-91.75
X87.05Y-105.9
X87.25Y-74.48
X88.05Y-104.67
X88.15Y-102.3
X88.15Y-103.3
X88.25Y-72.84
X88.6Y-66.825
X88.6Y-71.725
X89.1Y-95.2
X89.1Y-99.9
X89.8Y-94.5
X90.0Y-71.875
X90.5Y-99.9
X90.6Y-59.425
X90.85Y-78.6
X91.0Y-89.3
X91.5Y-70.31
X91.5Y-71.6
X91.5Y-98.2
X92.0Y-63.35
X92.25Y-97.8
X92.475Y-95.275
X92.75Y-103.0
X93.05Y-53.15
X93.8Y-85.4
X94.1Y-89.3
X94.35Y-99.8
X94.5Y-73.2
X94.55Y-62.9
X94.6Y-75.13
X94.95Y-51.0
X95.0Y-96.05
X96.0Y-89.35
X97.0Y-51.5
X97.3Y-74.19
X97.675Y-106.88
X97.95Y-65.3
X97.95Y-97.6
X98.9Y-89.3
X99.0Y-90.35
X99.0Y-103.0
X99.325Y-105.0
X99.35Y-73.2
X99.5Y-50.267
X99.5Y-55.9
X100.3Y-80.5
X100.5Y-41.9
X100.95Y-81.15
X101.0Y-96.125
X101.6Y-81.8
X102.1Y-85.5
X102.125Y-95.275
X102.35Y-78.5
X102.35Y-90.0
X103.5Y-50.323
X103.925Y-98.775
X104.7Y-72.725
X105.1Y-76.2
X105.6Y-91.75
X106.275Y-99.125
X106.4Y-75.6
X106.53Y-56.8
X106.9Y-92.35
X107.33Y-56.8
X108.3Y-77.72
X108.5Y-98.775
X109.3Y-103.1
X109.3Y-104.3
X109.3Y-105.5
X109.5Y-71.975
X109.5Y-91.0
X110.0Y-124.9
X110.01Y-42.12
X110.55Y-79.0
X110.8Y-107.48
X111.11Y-40.0
X112.2Y-107.48
X112.785Y-41.55
X112.905Y-46.0
X113.1Y-106.88
X113.4Y-149.6
X113.9Y-103.7
X113.9Y-104.9
X113.9Y-106.1
X114.1Y-84.6
X114.2Y-93.2
X114.2Y-98.6
X114.7Y-84.0
X114.8Y-39.5
X114.8Y-41.59
X114.956Y-40.285
X115.3Y-83.0
X115.6Y-75.0
X115.85Y-93.2
X115.9Y-82.0
X116.7Y-72.8
X117.75Y-95.9
X118.11Y-42.125
X118.7Y-99.6
X118.9Y-100.55
X119.7Y-101.2
X120.5Y-36.165
X121.2Y-111.3
X122.11Y-38.875
X122.9Y-103.8
X123.0Y-101.3
X123.6Y-102.9
X124.4Y-101.3
X125.5Y-103.8
X126.8Y-98.0
X127.6Y-99.5
X128.25Y-100.5
X129.225Y-97.6
X130.775Y-104.375
X131.625Y-101.5
X131.625Y-105.5
X131.975Y-54.0
X132.65Y-98.575
X132.7Y-100.1
X133.9Y-95.2
X134.0Y-124.9
X134.275Y-106.875
X135.65Y-96.375
X137.4Y-147.5
X139.375Y-131.08
X140.95Y-94.65
X141.8Y-94.65
X142.45Y-95.6
X142.625Y-131.08
X143.1Y-94.65
X143.378Y-125.22
X143.75Y-95.6
X144.44Y-135.625
X144.5Y-107.0
X144.5Y-111.4
X145.6Y-130.43
X145.6Y-153.1
X146.28Y-129.78
X146.28Y-153.8
X146.96Y-129.13
X146.96Y-154.5
X147.64Y-128.48
X147.64Y-155.2
X148.0Y-47.05
X148.32Y-127.82
X148.32Y-155.9
X149.0Y-127.17
X149.0Y-156.6
X149.68Y-126.52
X149.68Y-157.3
X150.36Y-125.87
X150.36Y-158.0
X151.0Y-97.6
X151.1Y-137.2
X151.56Y-123.366
X152.0Y-98.6
X153.4Y-99.5
X153.75Y-48.5
X155.8Y-48.3
X155.9Y-81.6
X156.9Y-77.35
X157.25Y-92.1
X157.6Y-59.38
X157.6Y-62.62
X157.6Y-68.33
X158.0Y-83.1
X158.0Y-124.9
X158.15Y-89.5
X158.7Y-46.7
X158.86Y-64.01
X160.5Y-156.6
X160.7Y-62.5
X161.0Y-97.0
X161.73Y-49.43
X162.0Y-95.753
X164.0Y-95.85
X164.225Y-99.3
X165.442Y-60.5
X165.45Y-88.55
X165.775Y-99.3
X165.775Y-103.4
X166.5Y-97.3
X180.94Y-80.5
X180.942Y-60.5
X182.0Y-124.9
X184.5Y-153.8
X191.5Y-77.553
X195.0Y-65.053
X197.05Y-65.55
X197.75Y-76.5
X198.95Y-65.55
X200.6Y-85.0
X201.0Y-65.0
X201.1Y-81.4
X202.4Y-85.5
X206.0Y-124.9
X208.5Y-153.1
X208.9Y-77.6
X209.0Y-65.053
X211.05Y-65.55
X212.25Y-76.5
X212.95Y-65.55
X213.2Y-91.4
X213.2Y-92.8
X216.05Y-64.2
X218.5Y-77.553
X226.0Y-78.5
X229.0Y-78.5
X229.1Y-80.6
X229.59Y-45.07
X229.59Y-53.3
X230.0Y-124.9
X230.39Y-53.3
X232.1Y-91.25
X232.9Y-88.4
X237.0Y-87.75
T4
X62.0Y-145.5
X62.0Y-171.5
X64.5Y-145.5
X64.5Y-171.5
X67.0Y-145.5
X67.0Y-171.5
X86.0Y-145.5
X86.0Y-171.5
X88.5Y-145.5
X88.5Y-171.5
X91.0Y-145.5
X91.0Y-171.5
X110.0Y-145.5
X110.0Y-171.5
X112.5Y-145.5
X112.5Y-171.5
X115.0Y-145.5
X115.0Y-171.5
X134.0Y-145.5
X134.0Y-171.5
X136.5Y-145.5
X136.5Y-171.5
X139.0Y-145.5
X139.0Y-171.5
X158.0Y-145.5
X158.0Y-171.5
X160.5Y-145.5
X160.5Y-171.5
X163.0Y-145.5
X163.0Y-171.5
X182.0Y-145.5
X182.0Y-171.5
X184.5Y-145.5
X184.5Y-171.5
X187.0Y-145.5
X187.0Y-171.5
X206.0Y-145.5
X206.0Y-171.5
X208.5Y-145.5
X208.5Y-171.5
X211.0Y-145.5
X211.0Y-171.5
X230.0Y-68.5
X230.0Y-145.5
X230.0Y-171.5
X232.5Y-68.5
X232.5Y-145.5
X232.5Y-171.5
X235.0Y-68.5
X235.0Y-145.5
X235.0Y-171.5
T5
X171.442Y-63.25
X171.442Y-77.75
X173.942Y-63.25
X176.442Y-63.25
X176.442Y-77.75
T6
X182.38Y-49.51
X186.51Y-53.32
X189.36Y-53.95
X192.22Y-53.32
X196.35Y-48.87
T8
X184.92Y-46.33
X193.81Y-46.33
X197.62Y-37.45
T2
X110.68Y-31.8G85X110.68Y-31.0
G05
X110.68Y-36.1G85X110.68Y-35.0
G05
X119.32Y-31.8G85X119.32Y-31.0
G05
X119.32Y-36.1G85X119.32Y-35.0
G05
T3
X70.4Y-35.05G85X70.4Y-34.15
G05
X70.4Y-41.45G85X70.4Y-40.55
G05
X70.4Y-47.85G85X70.4Y-46.95
G05
X81.6Y-35.05G85X81.6Y-34.15
G05
X81.6Y-41.45G85X81.6Y-40.55
G05
X81.6Y-47.85G85X81.6Y-46.95
G05
T4
X64.0Y-59.46G85X65.0Y-59.46
G05
X64.0Y-62.0G85X65.0Y-62.0
G05
X64.0Y-64.54G85X65.0Y-64.54
G05
X64.0Y-112.46G85X65.0Y-112.46
G05
X64.0Y-115.0G85X65.0Y-115.0
G05
X64.0Y-117.54G85X65.0Y-117.54
G05
X88.0Y-112.46G85X89.0Y-112.46
G05
X88.0Y-115.0G85X89.0Y-115.0
G05
X88.0Y-117.54G85X89.0Y-117.54
G05
X112.0Y-112.46G85X113.0Y-112.46
G05
X112.0Y-115.0G85X113.0Y-115.0
G05
X112.0Y-117.54G85X113.0Y-117.54
G05
X136.0Y-112.46G85X137.0Y-112.46
G05
X136.0Y-115.0G85X137.0Y-115.0
G05
X136.0Y-117.54G85X137.0Y-117.54
G05
X160.0Y-112.46G85X161.0Y-112.46
G05
X160.0Y-115.0G85X161.0Y-115.0
G05
X160.0Y-117.54G85X161.0Y-117.54
G05
X184.0Y-112.46G85X185.0Y-112.46
G05
X184.0Y-115.0G85X185.0Y-115.0
G05
X184.0Y-117.54G85X185.0Y-117.54
G05
X208.0Y-112.46G85X209.0Y-112.46
G05
X208.0Y-115.0G85X209.0Y-115.0
G05
X208.0Y-117.54G85X209.0Y-117.54
G05
X223.65Y-34.0G85X221.65Y-34.0
G05
X223.9Y-40.0G85X221.4Y-40.0
G05
X227.35Y-36.0G85X227.35Y-38.0
G05
X232.0Y-112.46G85X233.0Y-112.46
G05
X232.0Y-115.0G85X233.0Y-115.0
G05
X232.0Y-117.54G85X233.0Y-117.54
G05
T7
X168.442Y-71.3G85X168.442Y-70.2
G05
X179.442Y-71.3G85X179.442Y-70.2
G05
T8
X60.1Y-138.275G85X60.1Y-138.725
G05
X60.1Y-164.275G85X60.1Y-164.725
G05
X68.9Y-138.25G85X68.9Y-138.75
G05
X68.9Y-164.25G85X68.9Y-164.75
G05
X84.1Y-138.275G85X84.1Y-138.725
G05
X84.1Y-164.275G85X84.1Y-164.725
G05
X92.9Y-138.25G85X92.9Y-138.75
G05
X92.9Y-164.25G85X92.9Y-164.75
G05
X108.1Y-138.275G85X108.1Y-138.725
G05
X108.1Y-164.275G85X108.1Y-164.725
G05
X116.9Y-138.25G85X116.9Y-138.75
G05
X116.9Y-164.25G85X116.9Y-164.75
G05
X132.1Y-138.275G85X132.1Y-138.725
G05
X132.1Y-164.275G85X132.1Y-164.725
G05
X140.9Y-138.25G85X140.9Y-138.75
G05
X140.9Y-164.25G85X140.9Y-164.75
G05
X156.1Y-138.275G85X156.1Y-138.725
G05
X156.1Y-164.275G85X156.1Y-164.725
G05
X164.9Y-138.25G85X164.9Y-138.75
G05
X164.9Y-164.25G85X164.9Y-164.75
G05
X180.1Y-138.275G85X180.1Y-138.725
G05
X180.1Y-164.275G85X180.1Y-164.725
G05
X188.9Y-138.25G85X188.9Y-138.75
G05
X188.9Y-164.25G85X188.9Y-164.75
G05
X204.1Y-138.275G85X204.1Y-138.725
G05
X204.1Y-164.275G85X204.1Y-164.725
G05
X212.9Y-138.25G85X212.9Y-138.75
G05
X212.9Y-164.25G85X212.9Y-164.75
G05
X228.1Y-61.275G85X228.1Y-61.725
G05
X228.1Y-138.275G85X228.1Y-138.725
G05
X228.1Y-164.275G85X228.1Y-164.725
G05
X236.9Y-61.25G85X236.9Y-61.75
G05
X236.9Y-138.25G85X236.9Y-138.75
G05
X236.9Y-164.25G85X236.9Y-164.75
G05
M30
