%TF.GenerationSoftware,KiCad,Pcbnew,10.0.5*%
%TF.CreationDate,2026-10-08T04:26:24-07:00*%
%TF.ProjectId,cubevox,63756265-766f-4782-9e6b-696361645f70,rev?*%
%TF.SameCoordinates,Original*%
%TF.FileFunction,Legend,Bot*%
%TF.FilePolarity,Positive*%
%FSLAX46Y46*%
G04 Gerber Fmt 4.6, Leading zero omitted, Abs format (unit mm)*
G04 Created by KiCad (PCBNEW 10.0.5) date 2026-10-08 04:26:24*
%MOMM*%
%LPD*%
G01*
G04 APERTURE LIST*
%ADD10C,0.150000*%
%ADD11C,0.250000*%
%ADD12C,0.060000*%
%ADD13C,1.700000*%
%ADD14O,2.750000X3.000000*%
%ADD15O,2.500000X1.500000*%
%ADD16C,3.200000*%
%ADD17C,2.000000*%
%ADD18O,2.400000X3.600000*%
%ADD19C,0.650000*%
%ADD20O,1.000000X2.100000*%
%ADD21O,1.000000X1.800000*%
%ADD22C,0.990600*%
%ADD23O,4.100000X1.600000*%
%ADD24O,3.600000X1.600000*%
%ADD25O,1.600000X3.600000*%
%ADD26O,1.400000X2.300000*%
%ADD27C,1.800000*%
%ADD28C,2.500000*%
G04 APERTURE END LIST*
D10*
X224410714Y-41449819D02*
X224410714Y-42164104D01*
X224410714Y-42164104D02*
X224458333Y-42306961D01*
X224458333Y-42306961D02*
X224553571Y-42402200D01*
X224553571Y-42402200D02*
X224696428Y-42449819D01*
X224696428Y-42449819D02*
X224791666Y-42449819D01*
X223410714Y-42449819D02*
X223982142Y-42449819D01*
X223696428Y-42449819D02*
X223696428Y-41449819D01*
X223696428Y-41449819D02*
X223791666Y-41592676D01*
X223791666Y-41592676D02*
X223886904Y-41687914D01*
X223886904Y-41687914D02*
X223982142Y-41735533D01*
X222791666Y-41449819D02*
X222696428Y-41449819D01*
X222696428Y-41449819D02*
X222601190Y-41497438D01*
X222601190Y-41497438D02*
X222553571Y-41545057D01*
X222553571Y-41545057D02*
X222505952Y-41640295D01*
X222505952Y-41640295D02*
X222458333Y-41830771D01*
X222458333Y-41830771D02*
X222458333Y-42068866D01*
X222458333Y-42068866D02*
X222505952Y-42259342D01*
X222505952Y-42259342D02*
X222553571Y-42354580D01*
X222553571Y-42354580D02*
X222601190Y-42402200D01*
X222601190Y-42402200D02*
X222696428Y-42449819D01*
X222696428Y-42449819D02*
X222791666Y-42449819D01*
X222791666Y-42449819D02*
X222886904Y-42402200D01*
X222886904Y-42402200D02*
X222934523Y-42354580D01*
X222934523Y-42354580D02*
X222982142Y-42259342D01*
X222982142Y-42259342D02*
X223029761Y-42068866D01*
X223029761Y-42068866D02*
X223029761Y-41830771D01*
X223029761Y-41830771D02*
X222982142Y-41640295D01*
X222982142Y-41640295D02*
X222934523Y-41545057D01*
X222934523Y-41545057D02*
X222886904Y-41497438D01*
X222886904Y-41497438D02*
X222791666Y-41449819D01*
X221601190Y-41449819D02*
X221791666Y-41449819D01*
X221791666Y-41449819D02*
X221886904Y-41497438D01*
X221886904Y-41497438D02*
X221934523Y-41545057D01*
X221934523Y-41545057D02*
X222029761Y-41687914D01*
X222029761Y-41687914D02*
X222077380Y-41878390D01*
X222077380Y-41878390D02*
X222077380Y-42259342D01*
X222077380Y-42259342D02*
X222029761Y-42354580D01*
X222029761Y-42354580D02*
X221982142Y-42402200D01*
X221982142Y-42402200D02*
X221886904Y-42449819D01*
X221886904Y-42449819D02*
X221696428Y-42449819D01*
X221696428Y-42449819D02*
X221601190Y-42402200D01*
X221601190Y-42402200D02*
X221553571Y-42354580D01*
X221553571Y-42354580D02*
X221505952Y-42259342D01*
X221505952Y-42259342D02*
X221505952Y-42021247D01*
X221505952Y-42021247D02*
X221553571Y-41926009D01*
X221553571Y-41926009D02*
X221601190Y-41878390D01*
X221601190Y-41878390D02*
X221696428Y-41830771D01*
X221696428Y-41830771D02*
X221886904Y-41830771D01*
X221886904Y-41830771D02*
X221982142Y-41878390D01*
X221982142Y-41878390D02*
X222029761Y-41926009D01*
X222029761Y-41926009D02*
X222077380Y-42021247D01*
X68440714Y-55079819D02*
X68440714Y-55794104D01*
X68440714Y-55794104D02*
X68488333Y-55936961D01*
X68488333Y-55936961D02*
X68583571Y-56032200D01*
X68583571Y-56032200D02*
X68726428Y-56079819D01*
X68726428Y-56079819D02*
X68821666Y-56079819D01*
X67440714Y-56079819D02*
X68012142Y-56079819D01*
X67726428Y-56079819D02*
X67726428Y-55079819D01*
X67726428Y-55079819D02*
X67821666Y-55222676D01*
X67821666Y-55222676D02*
X67916904Y-55317914D01*
X67916904Y-55317914D02*
X68012142Y-55365533D01*
X66821666Y-55079819D02*
X66726428Y-55079819D01*
X66726428Y-55079819D02*
X66631190Y-55127438D01*
X66631190Y-55127438D02*
X66583571Y-55175057D01*
X66583571Y-55175057D02*
X66535952Y-55270295D01*
X66535952Y-55270295D02*
X66488333Y-55460771D01*
X66488333Y-55460771D02*
X66488333Y-55698866D01*
X66488333Y-55698866D02*
X66535952Y-55889342D01*
X66535952Y-55889342D02*
X66583571Y-55984580D01*
X66583571Y-55984580D02*
X66631190Y-56032200D01*
X66631190Y-56032200D02*
X66726428Y-56079819D01*
X66726428Y-56079819D02*
X66821666Y-56079819D01*
X66821666Y-56079819D02*
X66916904Y-56032200D01*
X66916904Y-56032200D02*
X66964523Y-55984580D01*
X66964523Y-55984580D02*
X67012142Y-55889342D01*
X67012142Y-55889342D02*
X67059761Y-55698866D01*
X67059761Y-55698866D02*
X67059761Y-55460771D01*
X67059761Y-55460771D02*
X67012142Y-55270295D01*
X67012142Y-55270295D02*
X66964523Y-55175057D01*
X66964523Y-55175057D02*
X66916904Y-55127438D01*
X66916904Y-55127438D02*
X66821666Y-55079819D01*
X65916904Y-55508390D02*
X66012142Y-55460771D01*
X66012142Y-55460771D02*
X66059761Y-55413152D01*
X66059761Y-55413152D02*
X66107380Y-55317914D01*
X66107380Y-55317914D02*
X66107380Y-55270295D01*
X66107380Y-55270295D02*
X66059761Y-55175057D01*
X66059761Y-55175057D02*
X66012142Y-55127438D01*
X66012142Y-55127438D02*
X65916904Y-55079819D01*
X65916904Y-55079819D02*
X65726428Y-55079819D01*
X65726428Y-55079819D02*
X65631190Y-55127438D01*
X65631190Y-55127438D02*
X65583571Y-55175057D01*
X65583571Y-55175057D02*
X65535952Y-55270295D01*
X65535952Y-55270295D02*
X65535952Y-55317914D01*
X65535952Y-55317914D02*
X65583571Y-55413152D01*
X65583571Y-55413152D02*
X65631190Y-55460771D01*
X65631190Y-55460771D02*
X65726428Y-55508390D01*
X65726428Y-55508390D02*
X65916904Y-55508390D01*
X65916904Y-55508390D02*
X66012142Y-55556009D01*
X66012142Y-55556009D02*
X66059761Y-55603628D01*
X66059761Y-55603628D02*
X66107380Y-55698866D01*
X66107380Y-55698866D02*
X66107380Y-55889342D01*
X66107380Y-55889342D02*
X66059761Y-55984580D01*
X66059761Y-55984580D02*
X66012142Y-56032200D01*
X66012142Y-56032200D02*
X65916904Y-56079819D01*
X65916904Y-56079819D02*
X65726428Y-56079819D01*
X65726428Y-56079819D02*
X65631190Y-56032200D01*
X65631190Y-56032200D02*
X65583571Y-55984580D01*
X65583571Y-55984580D02*
X65535952Y-55889342D01*
X65535952Y-55889342D02*
X65535952Y-55698866D01*
X65535952Y-55698866D02*
X65583571Y-55603628D01*
X65583571Y-55603628D02*
X65631190Y-55556009D01*
X65631190Y-55556009D02*
X65726428Y-55508390D01*
X190605714Y-55749819D02*
X190605714Y-56464104D01*
X190605714Y-56464104D02*
X190653333Y-56606961D01*
X190653333Y-56606961D02*
X190748571Y-56702200D01*
X190748571Y-56702200D02*
X190891428Y-56749819D01*
X190891428Y-56749819D02*
X190986666Y-56749819D01*
X189605714Y-56749819D02*
X190177142Y-56749819D01*
X189891428Y-56749819D02*
X189891428Y-55749819D01*
X189891428Y-55749819D02*
X189986666Y-55892676D01*
X189986666Y-55892676D02*
X190081904Y-55987914D01*
X190081904Y-55987914D02*
X190177142Y-56035533D01*
X188986666Y-55749819D02*
X188891428Y-55749819D01*
X188891428Y-55749819D02*
X188796190Y-55797438D01*
X188796190Y-55797438D02*
X188748571Y-55845057D01*
X188748571Y-55845057D02*
X188700952Y-55940295D01*
X188700952Y-55940295D02*
X188653333Y-56130771D01*
X188653333Y-56130771D02*
X188653333Y-56368866D01*
X188653333Y-56368866D02*
X188700952Y-56559342D01*
X188700952Y-56559342D02*
X188748571Y-56654580D01*
X188748571Y-56654580D02*
X188796190Y-56702200D01*
X188796190Y-56702200D02*
X188891428Y-56749819D01*
X188891428Y-56749819D02*
X188986666Y-56749819D01*
X188986666Y-56749819D02*
X189081904Y-56702200D01*
X189081904Y-56702200D02*
X189129523Y-56654580D01*
X189129523Y-56654580D02*
X189177142Y-56559342D01*
X189177142Y-56559342D02*
X189224761Y-56368866D01*
X189224761Y-56368866D02*
X189224761Y-56130771D01*
X189224761Y-56130771D02*
X189177142Y-55940295D01*
X189177142Y-55940295D02*
X189129523Y-55845057D01*
X189129523Y-55845057D02*
X189081904Y-55797438D01*
X189081904Y-55797438D02*
X188986666Y-55749819D01*
X187700952Y-56749819D02*
X188272380Y-56749819D01*
X187986666Y-56749819D02*
X187986666Y-55749819D01*
X187986666Y-55749819D02*
X188081904Y-55892676D01*
X188081904Y-55892676D02*
X188177142Y-55987914D01*
X188177142Y-55987914D02*
X188272380Y-56035533D01*
%TO.C,J106*%
D11*
X218150000Y-26300000D02*
X227150000Y-26300000D01*
X218150000Y-40700000D02*
X220640000Y-40700000D01*
X224660000Y-40700000D02*
X227150000Y-40700000D01*
X227150000Y-29800000D02*
X218150000Y-29800000D01*
X227150000Y-40700000D02*
X227150000Y-39010000D01*
D12*
X218180000Y-40700000D02*
G75*
G02*
X218120000Y-40700000I-30000J0D01*
G01*
X218120000Y-40700000D02*
G75*
G02*
X218180000Y-40700000I30000J0D01*
G01*
%TO.C,J108*%
D11*
X68100000Y-30550000D02*
X68100000Y-32160000D01*
X68100000Y-30550000D02*
X83900000Y-30550000D01*
X68100000Y-32160000D02*
X83900000Y-32160000D01*
X68100000Y-37060000D02*
X68100000Y-38560000D01*
X68100000Y-37060000D02*
X83900000Y-37060000D01*
X68100000Y-38560000D02*
X83900000Y-38560000D01*
X68100000Y-43500000D02*
X68100000Y-45000000D01*
X68100000Y-43500000D02*
X83900000Y-43500000D01*
X68100000Y-45000000D02*
X83900000Y-45000000D01*
X68100000Y-49900000D02*
X68100000Y-51750000D01*
X68100000Y-49900000D02*
X83900000Y-49900000D01*
X68100000Y-51750000D02*
X83900000Y-51750000D01*
X69100000Y-32160000D02*
X69100000Y-37060000D01*
X69100000Y-38560000D02*
X69100000Y-43500000D01*
X69100000Y-45000000D02*
X69100000Y-49900000D01*
X70350000Y-51750000D02*
X71070000Y-54700000D01*
X71070000Y-54700000D02*
X78130000Y-54700000D01*
X78850000Y-51750000D02*
X78130000Y-54700000D01*
X82900000Y-32160000D02*
X82900000Y-37060000D01*
X82900000Y-38560000D02*
X82900000Y-43500000D01*
X82900000Y-45000000D02*
X82900000Y-49900000D01*
X83900000Y-30550000D02*
X83900000Y-32160000D01*
X83900000Y-37060000D02*
X83900000Y-38560000D01*
X83900000Y-43500000D02*
X83900000Y-45000000D01*
X83900000Y-49900000D02*
X83900000Y-51750000D01*
%TO.C,J101*%
X176900000Y-30450000D02*
X178320000Y-30450000D01*
X176900000Y-36550000D02*
X176900000Y-30450000D01*
X178360000Y-30460000D02*
X200360000Y-30460000D01*
X178550000Y-36550000D02*
X176900000Y-36550000D01*
X178550000Y-40650000D02*
X178550000Y-36550000D01*
X181500000Y-42250000D02*
X180150000Y-42250000D01*
X181500000Y-48650000D02*
X181500000Y-42250000D01*
X181750000Y-52550000D02*
X181750000Y-50570000D01*
X183000000Y-52550000D02*
X181750000Y-52550000D01*
X183000000Y-54600000D02*
X183000000Y-52550000D01*
X188320000Y-54600000D02*
X183000000Y-54600000D01*
X195800000Y-52500000D02*
X195800000Y-54600000D01*
X195800000Y-54600000D02*
X190410000Y-54600000D01*
X197050000Y-50000000D02*
X197050000Y-52500000D01*
X197050000Y-52500000D02*
X195800000Y-52500000D01*
X197300000Y-44950000D02*
X197300000Y-48090000D01*
X197300000Y-49660000D02*
X197300000Y-50000000D01*
X197300000Y-50000000D02*
X197050000Y-50000000D01*
X197950000Y-42250000D02*
X197950000Y-44950000D01*
X197950000Y-44950000D02*
X197300000Y-44950000D01*
X198750000Y-42250000D02*
X197950000Y-42250000D01*
X200250000Y-36550000D02*
X200250000Y-40750000D01*
X200360000Y-24760000D02*
X178320000Y-24760000D01*
X200360000Y-30460000D02*
X201900000Y-30460000D01*
X201900000Y-30460000D02*
X201900000Y-36550000D01*
X201900000Y-36550000D02*
X200250000Y-36550000D01*
X180150000Y-42250000D02*
G75*
G02*
X178550000Y-40650000I-1J1599999D01*
G01*
X200250000Y-40750000D02*
G75*
G02*
X198750000Y-42250000I-1500000J0D01*
G01*
D12*
X201930000Y-55350000D02*
G75*
G02*
X201870000Y-55350000I-30000J0D01*
G01*
X201870000Y-55350000D02*
G75*
G02*
X201930000Y-55350000I30000J0D01*
G01*
%TD*%
%LPC*%
D13*
%TO.C,RV104*%
X86000000Y-145500000D03*
X88500000Y-145500000D03*
X91000000Y-145500000D03*
D14*
X84100000Y-138500000D03*
X92900000Y-138500000D03*
%TD*%
D15*
%TO.C,SW102*%
X88500000Y-117540000D03*
X88500000Y-115000000D03*
X88500000Y-112460000D03*
%TD*%
D13*
%TO.C,RV102*%
X230000000Y-171500000D03*
X232500000Y-171500000D03*
X235000000Y-171500000D03*
D14*
X228100000Y-164500000D03*
X236900000Y-164500000D03*
%TD*%
D13*
%TO.C,RV114*%
X206000000Y-171500000D03*
X208500000Y-171500000D03*
X211000000Y-171500000D03*
D14*
X204100000Y-164500000D03*
X212900000Y-164500000D03*
%TD*%
D15*
%TO.C,SW106*%
X184500000Y-117540000D03*
X184500000Y-115000000D03*
X184500000Y-112460000D03*
%TD*%
D13*
%TO.C,RV106*%
X110000000Y-171500000D03*
X112500000Y-171500000D03*
X115000000Y-171500000D03*
D14*
X108100000Y-164500000D03*
X116900000Y-164500000D03*
%TD*%
D16*
%TO.C,H104*%
X220500000Y-170000000D03*
%TD*%
D13*
%TO.C,RV115*%
X62000000Y-171500000D03*
X64500000Y-171500000D03*
X67000000Y-171500000D03*
D14*
X60100000Y-164500000D03*
X68900000Y-164500000D03*
%TD*%
D13*
%TO.C,RV107*%
X134000000Y-145500000D03*
X136500000Y-145500000D03*
X139000000Y-145500000D03*
D14*
X132100000Y-138500000D03*
X140900000Y-138500000D03*
%TD*%
D15*
%TO.C,SWBYPASS1*%
X64500000Y-64540000D03*
X64500000Y-62000000D03*
X64500000Y-59460000D03*
%TD*%
D13*
%TO.C,RV111*%
X182000000Y-145500000D03*
X184500000Y-145500000D03*
X187000000Y-145500000D03*
D14*
X180100000Y-138500000D03*
X188900000Y-138500000D03*
%TD*%
D13*
%TO.C,RV103*%
X62000000Y-145500000D03*
X64500000Y-145500000D03*
X67000000Y-145500000D03*
D14*
X60100000Y-138500000D03*
X68900000Y-138500000D03*
%TD*%
D13*
%TO.C,RV108*%
X134000000Y-171500000D03*
X136500000Y-171500000D03*
X139000000Y-171500000D03*
D14*
X132100000Y-164500000D03*
X140900000Y-164500000D03*
%TD*%
D17*
%TO.C,ENC101*%
X176442000Y-63250000D03*
X171442000Y-63250000D03*
X173942000Y-63250000D03*
X176442000Y-77750000D03*
X171442000Y-77750000D03*
D18*
X179442000Y-70750000D03*
X168442000Y-70750000D03*
%TD*%
D15*
%TO.C,SW108*%
X232500000Y-117540000D03*
X232500000Y-115000000D03*
X232500000Y-112460000D03*
%TD*%
D16*
%TO.C,H102*%
X236000000Y-35000000D03*
%TD*%
D13*
%TO.C,RV101*%
X230000000Y-145500000D03*
X232500000Y-145500000D03*
X235000000Y-145500000D03*
D14*
X228100000Y-138500000D03*
X236900000Y-138500000D03*
%TD*%
D13*
%TO.C,RV112*%
X182000000Y-171500000D03*
X184500000Y-171500000D03*
X187000000Y-171500000D03*
D14*
X180100000Y-164500000D03*
X188900000Y-164500000D03*
%TD*%
D16*
%TO.C,H101*%
X61000000Y-35000000D03*
%TD*%
D15*
%TO.C,SW103*%
X112500000Y-117540000D03*
X112500000Y-115000000D03*
X112500000Y-112460000D03*
%TD*%
D13*
%TO.C,RVGAIN1*%
X230000000Y-68500000D03*
X232500000Y-68500000D03*
X235000000Y-68500000D03*
D14*
X228100000Y-61500000D03*
X236900000Y-61500000D03*
%TD*%
D13*
%TO.C,RV116*%
X86000000Y-171500000D03*
X88500000Y-171500000D03*
X91000000Y-171500000D03*
D14*
X84100000Y-164500000D03*
X92900000Y-164500000D03*
%TD*%
D15*
%TO.C,SW107*%
X208500000Y-117540000D03*
X208500000Y-115000000D03*
X208500000Y-112460000D03*
%TD*%
D13*
%TO.C,RV113*%
X206000000Y-145500000D03*
X208500000Y-145500000D03*
X211000000Y-145500000D03*
D14*
X204100000Y-138500000D03*
X212900000Y-138500000D03*
%TD*%
D16*
%TO.C,J117*%
X120585000Y-58250000D03*
X120585000Y-86750000D03*
X150985000Y-58250000D03*
X150985000Y-86750000D03*
%TD*%
D15*
%TO.C,SW104*%
X136500000Y-117540000D03*
X136500000Y-115000000D03*
X136500000Y-112460000D03*
%TD*%
D19*
%TO.C,J1*%
X117890000Y-35050000D03*
X112110000Y-35050000D03*
D20*
X119320000Y-35550000D03*
X110680000Y-35550000D03*
D21*
X119320000Y-31400000D03*
X110680000Y-31400000D03*
%TD*%
D13*
%TO.C,RV109*%
X158000000Y-145500000D03*
X160500000Y-145500000D03*
X163000000Y-145500000D03*
D14*
X156100000Y-138500000D03*
X164900000Y-138500000D03*
%TD*%
D15*
%TO.C,SW101*%
X64500000Y-117540000D03*
X64500000Y-115000000D03*
X64500000Y-112460000D03*
%TD*%
%TO.C,SW105*%
X160500000Y-117540000D03*
X160500000Y-115000000D03*
X160500000Y-112460000D03*
%TD*%
D16*
%TO.C,H103*%
X76500000Y-170000000D03*
%TD*%
D13*
%TO.C,RV105*%
X110000000Y-145500000D03*
X112500000Y-145500000D03*
X115000000Y-145500000D03*
D14*
X108100000Y-138500000D03*
X116900000Y-138500000D03*
%TD*%
D22*
%TO.C,J3*%
X85000000Y-78460000D03*
X86016000Y-83540000D03*
X83984000Y-83540000D03*
%TD*%
D13*
%TO.C,RV110*%
X158000000Y-171500000D03*
X160500000Y-171500000D03*
X163000000Y-171500000D03*
D14*
X156100000Y-164500000D03*
X164900000Y-164500000D03*
%TD*%
D23*
%TO.C,J106*%
X222650000Y-40000000D03*
D24*
X222650000Y-34000000D03*
D25*
X227350000Y-37000000D03*
%TD*%
D26*
%TO.C,J108*%
X81600000Y-34600000D03*
X70400000Y-34600000D03*
X81600000Y-41000000D03*
X70400000Y-41000000D03*
X81600000Y-47400000D03*
X70400000Y-47400000D03*
%TD*%
D27*
%TO.C,J101*%
X183650000Y-36810000D03*
X189360000Y-39980000D03*
X195080000Y-36810000D03*
D17*
X196350000Y-48870000D03*
X182380000Y-49510000D03*
X189360000Y-53950000D03*
X192220000Y-53320000D03*
X186510000Y-53320000D03*
D28*
X193810000Y-46330000D03*
X184920000Y-46330000D03*
X197620000Y-37450000D03*
%TD*%
%LPD*%
M02*
