%TF.GenerationSoftware,KiCad,Pcbnew,10.0.5*%
%TF.CreationDate,2026-10-08T04:26:24-07:00*%
%TF.ProjectId,cubevox,63756265-766f-4782-9e6b-696361645f70,rev?*%
%TF.SameCoordinates,Original*%
%TF.FileFunction,Drillmap*%
%TF.FilePolarity,Positive*%
%FSLAX45Y45*%
G04 Gerber Fmt 4.5, Leading zero omitted, Abs format (unit mm)*
G04 Created by KiCad (PCBNEW 10.0.5) date 2026-10-08 04:26:24*
%MOMM*%
%LPD*%
G01*
G04 APERTURE LIST*
%ADD10C,0.100000*%
%ADD11C,0.200000*%
%ADD12C,0.119999*%
%ADD13C,0.130002*%
%ADD14C,0.170002*%
%ADD15C,0.179999*%
G04 APERTURE END LIST*
D10*
X5600000Y-3300000D02*
G75*
G02*
X5900000Y-3000000I300000J0D01*
G01*
X5600000Y-17200000D02*
X5600000Y-3300000D01*
X5900000Y-3000000D02*
X23800000Y-3000000D01*
X5900000Y-17500000D02*
G75*
G02*
X5600000Y-17200000I0J300000D01*
G01*
X23800000Y-3000000D02*
G75*
G02*
X24100000Y-3300000I0J-300000D01*
G01*
X23800000Y-17500000D02*
X5900000Y-17500000D01*
X24100000Y-3300000D02*
X24100000Y-17200000D01*
X24100000Y-17200000D02*
G75*
G02*
X23800000Y-17500000I-300000J0D01*
G01*
D11*
D10*
X5665000Y-9420000D02*
X5695000Y-9450000D01*
X5695000Y-9420000D02*
X5665000Y-9450000D01*
X5785000Y-9085000D02*
X5815000Y-9115000D01*
X5815000Y-9085000D02*
X5785000Y-9115000D01*
X6120000Y-10680000D02*
X6150000Y-10710000D01*
X6150000Y-10680000D02*
X6120000Y-10710000D01*
X6185000Y-12475000D02*
X6215000Y-12505000D01*
X6215000Y-12475000D02*
X6185000Y-12505000D01*
X6385000Y-9085000D02*
X6415000Y-9115000D01*
X6415000Y-9085000D02*
X6385000Y-9115000D01*
X6467000Y-9255000D02*
X6497000Y-9285000D01*
X6497000Y-9255000D02*
X6467000Y-9285000D01*
X6554000Y-9095000D02*
X6584000Y-9125000D01*
X6584000Y-9095000D02*
X6554000Y-9125000D01*
X6567000Y-8445000D02*
X6597000Y-8475000D01*
X6597000Y-8445000D02*
X6567000Y-8475000D01*
X6667000Y-8755000D02*
X6697000Y-8785000D01*
X6697000Y-8755000D02*
X6667000Y-8785000D01*
X6835000Y-7225000D02*
X6865000Y-7255000D01*
X6865000Y-7225000D02*
X6835000Y-7255000D01*
X6960000Y-9208000D02*
X6990000Y-9238000D01*
X6990000Y-9208000D02*
X6960000Y-9238000D01*
X6960000Y-10025000D02*
X6990000Y-10055000D01*
X6990000Y-10025000D02*
X6960000Y-10055000D01*
X6975000Y-8060000D02*
X7005000Y-8090000D01*
X7005000Y-8060000D02*
X6975000Y-8090000D01*
X6975000Y-8260000D02*
X7005000Y-8290000D01*
X7005000Y-8260000D02*
X6975000Y-8290000D01*
X7060000Y-10245000D02*
X7090000Y-10275000D01*
X7090000Y-10245000D02*
X7060000Y-10275000D01*
X7060000Y-10596000D02*
X7090000Y-10626000D01*
X7090000Y-10596000D02*
X7060000Y-10626000D01*
X7060000Y-10778000D02*
X7090000Y-10808000D01*
X7090000Y-10778000D02*
X7060000Y-10808000D01*
X7225000Y-9240000D02*
X7255000Y-9270000D01*
X7255000Y-9240000D02*
X7225000Y-9270000D01*
X7295000Y-11165000D02*
X7325000Y-11195000D01*
X7325000Y-11165000D02*
X7295000Y-11195000D01*
X7335000Y-7640000D02*
X7365000Y-7670000D01*
X7365000Y-7640000D02*
X7335000Y-7670000D01*
X7385000Y-7719000D02*
X7415000Y-7749000D01*
X7415000Y-7719000D02*
X7385000Y-7749000D01*
X7405000Y-7225000D02*
X7435000Y-7255000D01*
X7435000Y-7225000D02*
X7405000Y-7255000D01*
X7415000Y-8395000D02*
X7445000Y-8425000D01*
X7445000Y-8395000D02*
X7415000Y-8425000D01*
X7538000Y-10966000D02*
X7568000Y-10996000D01*
X7568000Y-10966000D02*
X7538000Y-10996000D01*
X7625000Y-6684000D02*
X7655000Y-6714000D01*
X7655000Y-6684000D02*
X7625000Y-6714000D01*
X7725000Y-10452500D02*
X7755000Y-10482500D01*
X7755000Y-10452500D02*
X7725000Y-10482500D01*
X7745000Y-8325000D02*
X7775000Y-8355000D01*
X7775000Y-8325000D02*
X7745000Y-8355000D01*
X7775000Y-10843000D02*
X7805000Y-10873000D01*
X7805000Y-10843000D02*
X7775000Y-10873000D01*
X7925000Y-10387500D02*
X7955000Y-10417500D01*
X7955000Y-10387500D02*
X7925000Y-10417500D01*
X7925000Y-10582500D02*
X7955000Y-10612500D01*
X7955000Y-10582500D02*
X7925000Y-10612500D01*
X7925000Y-10842500D02*
X7955000Y-10872500D01*
X7955000Y-10842500D02*
X7925000Y-10872500D01*
X8097000Y-8610000D02*
X8127000Y-8640000D01*
X8127000Y-8610000D02*
X8097000Y-8640000D01*
X8112000Y-10966000D02*
X8142000Y-10996000D01*
X8142000Y-10966000D02*
X8112000Y-10996000D01*
X8160000Y-8535000D02*
X8190000Y-8565000D01*
X8190000Y-8535000D02*
X8160000Y-8565000D01*
X8215000Y-8212000D02*
X8245000Y-8242000D01*
X8245000Y-8212000D02*
X8215000Y-8242000D01*
X8278000Y-8865000D02*
X8308000Y-8895000D01*
X8308000Y-8865000D02*
X8278000Y-8895000D01*
X8353000Y-10712500D02*
X8383000Y-10742500D01*
X8383000Y-10712500D02*
X8353000Y-10742500D01*
X8420000Y-9270000D02*
X8450000Y-9300000D01*
X8450000Y-9270000D02*
X8420000Y-9300000D01*
X8438000Y-10712500D02*
X8468000Y-10742500D01*
X8468000Y-10712500D02*
X8438000Y-10742500D01*
X8460000Y-9345000D02*
X8490000Y-9375000D01*
X8490000Y-9345000D02*
X8460000Y-9375000D01*
X8490000Y-10322000D02*
X8520000Y-10352000D01*
X8520000Y-10322000D02*
X8490000Y-10352000D01*
X8545000Y-9220000D02*
X8575000Y-9250000D01*
X8575000Y-9220000D02*
X8545000Y-9250000D01*
X8570000Y-7157500D02*
X8600000Y-7187500D01*
X8600000Y-7157500D02*
X8570000Y-7187500D01*
X8585000Y-12475000D02*
X8615000Y-12505000D01*
X8615000Y-12475000D02*
X8585000Y-12505000D01*
X8638000Y-7958000D02*
X8668000Y-7988000D01*
X8668000Y-7958000D02*
X8638000Y-7988000D01*
X8675000Y-9160000D02*
X8705000Y-9190000D01*
X8705000Y-9160000D02*
X8675000Y-9190000D01*
X8690000Y-10575000D02*
X8720000Y-10605000D01*
X8720000Y-10575000D02*
X8690000Y-10605000D01*
X8710000Y-7433000D02*
X8740000Y-7463000D01*
X8740000Y-7433000D02*
X8710000Y-7463000D01*
X8790000Y-10452000D02*
X8820000Y-10482000D01*
X8820000Y-10452000D02*
X8790000Y-10482000D01*
X8800000Y-10215000D02*
X8830000Y-10245000D01*
X8830000Y-10215000D02*
X8800000Y-10245000D01*
X8800000Y-10315000D02*
X8830000Y-10345000D01*
X8830000Y-10315000D02*
X8800000Y-10345000D01*
X8810000Y-7269000D02*
X8840000Y-7299000D01*
X8840000Y-7269000D02*
X8810000Y-7299000D01*
X8845000Y-6667500D02*
X8875000Y-6697500D01*
X8875000Y-6667500D02*
X8845000Y-6697500D01*
X8845000Y-7157500D02*
X8875000Y-7187500D01*
X8875000Y-7157500D02*
X8845000Y-7187500D01*
X8895000Y-9505000D02*
X8925000Y-9535000D01*
X8925000Y-9505000D02*
X8895000Y-9535000D01*
X8895000Y-9975000D02*
X8925000Y-10005000D01*
X8925000Y-9975000D02*
X8895000Y-10005000D01*
X8965000Y-9435000D02*
X8995000Y-9465000D01*
X8995000Y-9435000D02*
X8965000Y-9465000D01*
X8985000Y-7172500D02*
X9015000Y-7202500D01*
X9015000Y-7172500D02*
X8985000Y-7202500D01*
X9035000Y-9975000D02*
X9065000Y-10005000D01*
X9065000Y-9975000D02*
X9035000Y-10005000D01*
X9045000Y-5927500D02*
X9075000Y-5957500D01*
X9075000Y-5927500D02*
X9045000Y-5957500D01*
X9070000Y-7845000D02*
X9100000Y-7875000D01*
X9100000Y-7845000D02*
X9070000Y-7875000D01*
X9085000Y-8915000D02*
X9115000Y-8945000D01*
X9115000Y-8915000D02*
X9085000Y-8945000D01*
X9135000Y-7016000D02*
X9165000Y-7046000D01*
X9165000Y-7016000D02*
X9135000Y-7046000D01*
X9135000Y-7145000D02*
X9165000Y-7175000D01*
X9165000Y-7145000D02*
X9135000Y-7175000D01*
X9135000Y-9805000D02*
X9165000Y-9835000D01*
X9165000Y-9805000D02*
X9135000Y-9835000D01*
X9185000Y-6320000D02*
X9215000Y-6350000D01*
X9215000Y-6320000D02*
X9185000Y-6350000D01*
X9210000Y-9765000D02*
X9240000Y-9795000D01*
X9240000Y-9765000D02*
X9210000Y-9795000D01*
X9232500Y-9512500D02*
X9262500Y-9542500D01*
X9262500Y-9512500D02*
X9232500Y-9542500D01*
X9260000Y-10285000D02*
X9290000Y-10315000D01*
X9290000Y-10285000D02*
X9260000Y-10315000D01*
X9290000Y-5300000D02*
X9320000Y-5330000D01*
X9320000Y-5300000D02*
X9290000Y-5330000D01*
X9365000Y-8525000D02*
X9395000Y-8555000D01*
X9395000Y-8525000D02*
X9365000Y-8555000D01*
X9395000Y-8915000D02*
X9425000Y-8945000D01*
X9425000Y-8915000D02*
X9395000Y-8945000D01*
X9420000Y-9965000D02*
X9450000Y-9995000D01*
X9450000Y-9965000D02*
X9420000Y-9995000D01*
X9435000Y-7305000D02*
X9465000Y-7335000D01*
X9465000Y-7305000D02*
X9435000Y-7335000D01*
X9440000Y-6275000D02*
X9470000Y-6305000D01*
X9470000Y-6275000D02*
X9440000Y-6305000D01*
X9445000Y-7498000D02*
X9475000Y-7528000D01*
X9475000Y-7498000D02*
X9445000Y-7528000D01*
X9480000Y-5085000D02*
X9510000Y-5115000D01*
X9510000Y-5085000D02*
X9480000Y-5115000D01*
X9485000Y-9590000D02*
X9515000Y-9620000D01*
X9515000Y-9590000D02*
X9485000Y-9620000D01*
X9585000Y-8920000D02*
X9615000Y-8950000D01*
X9615000Y-8920000D02*
X9585000Y-8950000D01*
X9685000Y-5135000D02*
X9715000Y-5165000D01*
X9715000Y-5135000D02*
X9685000Y-5165000D01*
X9715000Y-7404000D02*
X9745000Y-7434000D01*
X9745000Y-7404000D02*
X9715000Y-7434000D01*
X9752500Y-10673000D02*
X9782500Y-10703000D01*
X9782500Y-10673000D02*
X9752500Y-10703000D01*
X9780000Y-6515000D02*
X9810000Y-6545000D01*
X9810000Y-6515000D02*
X9780000Y-6545000D01*
X9780000Y-9745000D02*
X9810000Y-9775000D01*
X9810000Y-9745000D02*
X9780000Y-9775000D01*
X9875000Y-8915000D02*
X9905000Y-8945000D01*
X9905000Y-8915000D02*
X9875000Y-8945000D01*
X9885000Y-9020000D02*
X9915000Y-9050000D01*
X9915000Y-9020000D02*
X9885000Y-9050000D01*
X9885000Y-10285000D02*
X9915000Y-10315000D01*
X9915000Y-10285000D02*
X9885000Y-10315000D01*
X9917500Y-10485000D02*
X9947500Y-10515000D01*
X9947500Y-10485000D02*
X9917500Y-10515000D01*
X9920000Y-7305000D02*
X9950000Y-7335000D01*
X9950000Y-7305000D02*
X9920000Y-7335000D01*
X9935000Y-5011700D02*
X9965000Y-5041700D01*
X9965000Y-5011700D02*
X9935000Y-5041700D01*
X9935000Y-5575000D02*
X9965000Y-5605000D01*
X9965000Y-5575000D02*
X9935000Y-5605000D01*
X10015000Y-8035000D02*
X10045000Y-8065000D01*
X10045000Y-8035000D02*
X10015000Y-8065000D01*
X10035000Y-4175000D02*
X10065000Y-4205000D01*
X10065000Y-4175000D02*
X10035000Y-4205000D01*
X10080000Y-8100000D02*
X10110000Y-8130000D01*
X10110000Y-8100000D02*
X10080000Y-8130000D01*
X10085000Y-9597500D02*
X10115000Y-9627500D01*
X10115000Y-9597500D02*
X10085000Y-9627500D01*
X10145000Y-8165000D02*
X10175000Y-8195000D01*
X10175000Y-8165000D02*
X10145000Y-8195000D01*
X10195000Y-8535000D02*
X10225000Y-8565000D01*
X10225000Y-8535000D02*
X10195000Y-8565000D01*
X10197500Y-9512500D02*
X10227500Y-9542500D01*
X10227500Y-9512500D02*
X10197500Y-9542500D01*
X10220000Y-7835000D02*
X10250000Y-7865000D01*
X10250000Y-7835000D02*
X10220000Y-7865000D01*
X10220000Y-8985000D02*
X10250000Y-9015000D01*
X10250000Y-8985000D02*
X10220000Y-9015000D01*
X10335000Y-5017300D02*
X10365000Y-5047300D01*
X10365000Y-5017300D02*
X10335000Y-5047300D01*
X10377500Y-9862500D02*
X10407500Y-9892500D01*
X10407500Y-9862500D02*
X10377500Y-9892500D01*
X10455000Y-7257500D02*
X10485000Y-7287500D01*
X10485000Y-7257500D02*
X10455000Y-7287500D01*
X10495000Y-7605000D02*
X10525000Y-7635000D01*
X10525000Y-7605000D02*
X10495000Y-7635000D01*
X10545000Y-9160000D02*
X10575000Y-9190000D01*
X10575000Y-9160000D02*
X10545000Y-9190000D01*
X10612500Y-9897500D02*
X10642500Y-9927500D01*
X10642500Y-9897500D02*
X10612500Y-9927500D01*
X10625000Y-7545000D02*
X10655000Y-7575000D01*
X10655000Y-7545000D02*
X10625000Y-7575000D01*
X10638000Y-5665000D02*
X10668000Y-5695000D01*
X10668000Y-5665000D02*
X10638000Y-5695000D01*
X10675000Y-9220000D02*
X10705000Y-9250000D01*
X10705000Y-9220000D02*
X10675000Y-9250000D01*
X10718000Y-5665000D02*
X10748000Y-5695000D01*
X10748000Y-5665000D02*
X10718000Y-5695000D01*
X10815000Y-7757000D02*
X10845000Y-7787000D01*
X10845000Y-7757000D02*
X10815000Y-7787000D01*
X10835000Y-9862500D02*
X10865000Y-9892500D01*
X10865000Y-9862500D02*
X10835000Y-9892500D01*
X10915000Y-10295000D02*
X10945000Y-10325000D01*
X10945000Y-10295000D02*
X10915000Y-10325000D01*
X10915000Y-10415000D02*
X10945000Y-10445000D01*
X10945000Y-10415000D02*
X10915000Y-10445000D01*
X10915000Y-10535000D02*
X10945000Y-10565000D01*
X10945000Y-10535000D02*
X10915000Y-10565000D01*
X10935000Y-7182500D02*
X10965000Y-7212500D01*
X10965000Y-7182500D02*
X10935000Y-7212500D01*
X10935000Y-9085000D02*
X10965000Y-9115000D01*
X10965000Y-9085000D02*
X10935000Y-9115000D01*
X10985000Y-12475000D02*
X11015000Y-12505000D01*
X11015000Y-12475000D02*
X10985000Y-12505000D01*
X10986000Y-4197000D02*
X11016000Y-4227000D01*
X11016000Y-4197000D02*
X10986000Y-4227000D01*
X11040000Y-7885000D02*
X11070000Y-7915000D01*
X11070000Y-7885000D02*
X11040000Y-7915000D01*
X11065000Y-10733000D02*
X11095000Y-10763000D01*
X11095000Y-10733000D02*
X11065000Y-10763000D01*
X11096000Y-3985000D02*
X11126000Y-4015000D01*
X11126000Y-3985000D02*
X11096000Y-4015000D01*
X11205000Y-10733000D02*
X11235000Y-10763000D01*
X11235000Y-10733000D02*
X11205000Y-10763000D01*
X11263500Y-4140000D02*
X11293500Y-4170000D01*
X11293500Y-4140000D02*
X11263500Y-4170000D01*
X11275500Y-4585000D02*
X11305500Y-4615000D01*
X11305500Y-4585000D02*
X11275500Y-4615000D01*
X11295000Y-10673000D02*
X11325000Y-10703000D01*
X11325000Y-10673000D02*
X11295000Y-10703000D01*
X11325000Y-14945000D02*
X11355000Y-14975000D01*
X11355000Y-14945000D02*
X11325000Y-14975000D01*
X11375000Y-10355000D02*
X11405000Y-10385000D01*
X11405000Y-10355000D02*
X11375000Y-10385000D01*
X11375000Y-10475000D02*
X11405000Y-10505000D01*
X11405000Y-10475000D02*
X11375000Y-10505000D01*
X11375000Y-10595000D02*
X11405000Y-10625000D01*
X11405000Y-10595000D02*
X11375000Y-10625000D01*
X11395000Y-8445000D02*
X11425000Y-8475000D01*
X11425000Y-8445000D02*
X11395000Y-8475000D01*
X11405000Y-9305000D02*
X11435000Y-9335000D01*
X11435000Y-9305000D02*
X11405000Y-9335000D01*
X11405000Y-9845000D02*
X11435000Y-9875000D01*
X11435000Y-9845000D02*
X11405000Y-9875000D01*
X11455000Y-8385000D02*
X11485000Y-8415000D01*
X11485000Y-8385000D02*
X11455000Y-8415000D01*
X11465000Y-3935000D02*
X11495000Y-3965000D01*
X11495000Y-3935000D02*
X11465000Y-3965000D01*
X11465000Y-4144000D02*
X11495000Y-4174000D01*
X11495000Y-4144000D02*
X11465000Y-4174000D01*
X11480600Y-4013500D02*
X11510600Y-4043500D01*
X11510600Y-4013500D02*
X11480600Y-4043500D01*
X11515000Y-8285000D02*
X11545000Y-8315000D01*
X11545000Y-8285000D02*
X11515000Y-8315000D01*
X11545000Y-7485000D02*
X11575000Y-7515000D01*
X11575000Y-7485000D02*
X11545000Y-7515000D01*
X11570000Y-9305000D02*
X11600000Y-9335000D01*
X11600000Y-9305000D02*
X11570000Y-9335000D01*
X11575000Y-8185000D02*
X11605000Y-8215000D01*
X11605000Y-8185000D02*
X11575000Y-8215000D01*
X11655000Y-7265000D02*
X11685000Y-7295000D01*
X11685000Y-7265000D02*
X11655000Y-7295000D01*
X11760000Y-9575000D02*
X11790000Y-9605000D01*
X11790000Y-9575000D02*
X11760000Y-9605000D01*
X11796000Y-4197500D02*
X11826000Y-4227500D01*
X11826000Y-4197500D02*
X11796000Y-4227500D01*
X11855000Y-9945000D02*
X11885000Y-9975000D01*
X11885000Y-9945000D02*
X11855000Y-9975000D01*
X11875000Y-10040000D02*
X11905000Y-10070000D01*
X11905000Y-10040000D02*
X11875000Y-10070000D01*
X11955000Y-10105000D02*
X11985000Y-10135000D01*
X11985000Y-10105000D02*
X11955000Y-10135000D01*
X12035000Y-3601500D02*
X12065000Y-3631500D01*
X12065000Y-3601500D02*
X12035000Y-3631500D01*
X12105000Y-11115000D02*
X12135000Y-11145000D01*
X12135000Y-11115000D02*
X12105000Y-11145000D01*
X12196000Y-3872500D02*
X12226000Y-3902500D01*
X12226000Y-3872500D02*
X12196000Y-3902500D01*
X12275000Y-10365000D02*
X12305000Y-10395000D01*
X12305000Y-10365000D02*
X12275000Y-10395000D01*
X12285000Y-10115000D02*
X12315000Y-10145000D01*
X12315000Y-10115000D02*
X12285000Y-10145000D01*
X12345000Y-10275000D02*
X12375000Y-10305000D01*
X12375000Y-10275000D02*
X12345000Y-10305000D01*
X12425000Y-10115000D02*
X12455000Y-10145000D01*
X12455000Y-10115000D02*
X12425000Y-10145000D01*
X12535000Y-10365000D02*
X12565000Y-10395000D01*
X12565000Y-10365000D02*
X12535000Y-10395000D01*
X12665000Y-9785000D02*
X12695000Y-9815000D01*
X12695000Y-9785000D02*
X12665000Y-9815000D01*
X12745000Y-9935000D02*
X12775000Y-9965000D01*
X12775000Y-9935000D02*
X12745000Y-9965000D01*
X12810000Y-10035000D02*
X12840000Y-10065000D01*
X12840000Y-10035000D02*
X12810000Y-10065000D01*
X12907500Y-9745000D02*
X12937500Y-9775000D01*
X12937500Y-9745000D02*
X12907500Y-9775000D01*
X13062500Y-10422500D02*
X13092500Y-10452500D01*
X13092500Y-10422500D02*
X13062500Y-10452500D01*
X13147500Y-10135000D02*
X13177500Y-10165000D01*
X13177500Y-10135000D02*
X13147500Y-10165000D01*
X13147500Y-10535000D02*
X13177500Y-10565000D01*
X13177500Y-10535000D02*
X13147500Y-10565000D01*
X13182500Y-5385000D02*
X13212500Y-5415000D01*
X13212500Y-5385000D02*
X13182500Y-5415000D01*
X13250000Y-9842500D02*
X13280000Y-9872500D01*
X13280000Y-9842500D02*
X13250000Y-9872500D01*
X13255000Y-9995000D02*
X13285000Y-10025000D01*
X13285000Y-9995000D02*
X13255000Y-10025000D01*
X13375000Y-9505000D02*
X13405000Y-9535000D01*
X13405000Y-9505000D02*
X13375000Y-9535000D01*
X13385000Y-12475000D02*
X13415000Y-12505000D01*
X13415000Y-12475000D02*
X13385000Y-12505000D01*
X13412500Y-10672500D02*
X13442500Y-10702500D01*
X13442500Y-10672500D02*
X13412500Y-10702500D01*
X13550000Y-9622500D02*
X13580000Y-9652500D01*
X13580000Y-9622500D02*
X13550000Y-9652500D01*
X13725000Y-14735000D02*
X13755000Y-14765000D01*
X13755000Y-14735000D02*
X13725000Y-14765000D01*
X13922500Y-13093000D02*
X13952500Y-13123000D01*
X13952500Y-13093000D02*
X13922500Y-13123000D01*
X14080000Y-9450000D02*
X14110000Y-9480000D01*
X14110000Y-9450000D02*
X14080000Y-9480000D01*
X14165000Y-9450000D02*
X14195000Y-9480000D01*
X14195000Y-9450000D02*
X14165000Y-9480000D01*
X14230000Y-9545000D02*
X14260000Y-9575000D01*
X14260000Y-9545000D02*
X14230000Y-9575000D01*
X14247500Y-13093000D02*
X14277500Y-13123000D01*
X14277500Y-13093000D02*
X14247500Y-13123000D01*
X14295000Y-9450000D02*
X14325000Y-9480000D01*
X14325000Y-9450000D02*
X14295000Y-9480000D01*
X14322800Y-12507000D02*
X14352800Y-12537000D01*
X14352800Y-12507000D02*
X14322800Y-12537000D01*
X14360000Y-9545000D02*
X14390000Y-9575000D01*
X14390000Y-9545000D02*
X14360000Y-9575000D01*
X14429000Y-13547500D02*
X14459000Y-13577500D01*
X14459000Y-13547500D02*
X14429000Y-13577500D01*
X14435000Y-10685000D02*
X14465000Y-10715000D01*
X14465000Y-10685000D02*
X14435000Y-10715000D01*
X14435000Y-11125000D02*
X14465000Y-11155000D01*
X14465000Y-11125000D02*
X14435000Y-11155000D01*
X14545000Y-13028000D02*
X14575000Y-13058000D01*
X14575000Y-13028000D02*
X14545000Y-13058000D01*
X14545000Y-15295000D02*
X14575000Y-15325000D01*
X14575000Y-15295000D02*
X14545000Y-15325000D01*
X14613000Y-12963000D02*
X14643000Y-12993000D01*
X14643000Y-12963000D02*
X14613000Y-12993000D01*
X14613000Y-15365000D02*
X14643000Y-15395000D01*
X14643000Y-15365000D02*
X14613000Y-15395000D01*
X14681000Y-12898000D02*
X14711000Y-12928000D01*
X14711000Y-12898000D02*
X14681000Y-12928000D01*
X14681000Y-15435000D02*
X14711000Y-15465000D01*
X14711000Y-15435000D02*
X14681000Y-15465000D01*
X14749000Y-12833000D02*
X14779000Y-12863000D01*
X14779000Y-12833000D02*
X14749000Y-12863000D01*
X14749000Y-15505000D02*
X14779000Y-15535000D01*
X14779000Y-15505000D02*
X14749000Y-15535000D01*
X14785000Y-4690000D02*
X14815000Y-4720000D01*
X14815000Y-4690000D02*
X14785000Y-4720000D01*
X14817000Y-12767000D02*
X14847000Y-12797000D01*
X14847000Y-12767000D02*
X14817000Y-12797000D01*
X14817000Y-15575000D02*
X14847000Y-15605000D01*
X14847000Y-15575000D02*
X14817000Y-15605000D01*
X14885000Y-12702000D02*
X14915000Y-12732000D01*
X14915000Y-12702000D02*
X14885000Y-12732000D01*
X14885000Y-15645000D02*
X14915000Y-15675000D01*
X14915000Y-15645000D02*
X14885000Y-15675000D01*
X14953000Y-12637000D02*
X14983000Y-12667000D01*
X14983000Y-12637000D02*
X14953000Y-12667000D01*
X14953000Y-15715000D02*
X14983000Y-15745000D01*
X14983000Y-15715000D02*
X14953000Y-15745000D01*
X15021000Y-12572000D02*
X15051000Y-12602000D01*
X15051000Y-12572000D02*
X15021000Y-12602000D01*
X15021000Y-15785000D02*
X15051000Y-15815000D01*
X15051000Y-15785000D02*
X15021000Y-15815000D01*
X15085000Y-9745000D02*
X15115000Y-9775000D01*
X15115000Y-9745000D02*
X15085000Y-9775000D01*
X15095000Y-13705000D02*
X15125000Y-13735000D01*
X15125000Y-13705000D02*
X15095000Y-13735000D01*
X15141000Y-12321600D02*
X15171000Y-12351600D01*
X15171000Y-12321600D02*
X15141000Y-12351600D01*
X15185000Y-9845000D02*
X15215000Y-9875000D01*
X15215000Y-9845000D02*
X15185000Y-9875000D01*
X15325000Y-9935000D02*
X15355000Y-9965000D01*
X15355000Y-9935000D02*
X15325000Y-9965000D01*
X15360000Y-4835000D02*
X15390000Y-4865000D01*
X15390000Y-4835000D02*
X15360000Y-4865000D01*
X15565000Y-4815000D02*
X15595000Y-4845000D01*
X15595000Y-4815000D02*
X15565000Y-4845000D01*
X15575000Y-8145000D02*
X15605000Y-8175000D01*
X15605000Y-8145000D02*
X15575000Y-8175000D01*
X15675000Y-7720000D02*
X15705000Y-7750000D01*
X15705000Y-7720000D02*
X15675000Y-7750000D01*
X15710000Y-9195000D02*
X15740000Y-9225000D01*
X15740000Y-9195000D02*
X15710000Y-9225000D01*
X15745000Y-5923000D02*
X15775000Y-5953000D01*
X15775000Y-5923000D02*
X15745000Y-5953000D01*
X15745000Y-6247000D02*
X15775000Y-6277000D01*
X15775000Y-6247000D02*
X15745000Y-6277000D01*
X15745000Y-6818000D02*
X15775000Y-6848000D01*
X15775000Y-6818000D02*
X15745000Y-6848000D01*
X15785000Y-8295000D02*
X15815000Y-8325000D01*
X15815000Y-8295000D02*
X15785000Y-8325000D01*
X15785000Y-12475000D02*
X15815000Y-12505000D01*
X15815000Y-12475000D02*
X15785000Y-12505000D01*
X15800000Y-8935000D02*
X15830000Y-8965000D01*
X15830000Y-8935000D02*
X15800000Y-8965000D01*
X15855000Y-4655000D02*
X15885000Y-4685000D01*
X15885000Y-4655000D02*
X15855000Y-4685000D01*
X15871000Y-6386000D02*
X15901000Y-6416000D01*
X15901000Y-6386000D02*
X15871000Y-6416000D01*
X16035000Y-15645000D02*
X16065000Y-15675000D01*
X16065000Y-15645000D02*
X16035000Y-15675000D01*
X16055000Y-6235000D02*
X16085000Y-6265000D01*
X16085000Y-6235000D02*
X16055000Y-6265000D01*
X16085000Y-9685000D02*
X16115000Y-9715000D01*
X16115000Y-9685000D02*
X16085000Y-9715000D01*
X16158000Y-4928000D02*
X16188000Y-4958000D01*
X16188000Y-4928000D02*
X16158000Y-4958000D01*
X16185000Y-9560300D02*
X16215000Y-9590300D01*
X16215000Y-9560300D02*
X16185000Y-9590300D01*
X16385000Y-9570000D02*
X16415000Y-9600000D01*
X16415000Y-9570000D02*
X16385000Y-9600000D01*
X16407500Y-9915000D02*
X16437500Y-9945000D01*
X16437500Y-9915000D02*
X16407500Y-9945000D01*
X16529200Y-6035000D02*
X16559200Y-6065000D01*
X16559200Y-6035000D02*
X16529200Y-6065000D01*
X16530000Y-8840000D02*
X16560000Y-8870000D01*
X16560000Y-8840000D02*
X16530000Y-8870000D01*
X16562500Y-9915000D02*
X16592500Y-9945000D01*
X16592500Y-9915000D02*
X16562500Y-9945000D01*
X16562500Y-10325000D02*
X16592500Y-10355000D01*
X16592500Y-10325000D02*
X16562500Y-10355000D01*
X16635000Y-9715000D02*
X16665000Y-9745000D01*
X16665000Y-9715000D02*
X16635000Y-9745000D01*
X18079000Y-8035000D02*
X18109000Y-8065000D01*
X18109000Y-8035000D02*
X18079000Y-8065000D01*
X18079200Y-6035000D02*
X18109200Y-6065000D01*
X18109200Y-6035000D02*
X18079200Y-6065000D01*
X18185000Y-12475000D02*
X18215000Y-12505000D01*
X18215000Y-12475000D02*
X18185000Y-12505000D01*
X18435000Y-15365000D02*
X18465000Y-15395000D01*
X18465000Y-15365000D02*
X18435000Y-15395000D01*
X19135000Y-7740300D02*
X19165000Y-7770300D01*
X19165000Y-7740300D02*
X19135000Y-7770300D01*
X19485000Y-6490300D02*
X19515000Y-6520300D01*
X19515000Y-6490300D02*
X19485000Y-6520300D01*
X19690000Y-6540000D02*
X19720000Y-6570000D01*
X19720000Y-6540000D02*
X19690000Y-6570000D01*
X19760000Y-7635000D02*
X19790000Y-7665000D01*
X19790000Y-7635000D02*
X19760000Y-7665000D01*
X19880000Y-6540000D02*
X19910000Y-6570000D01*
X19910000Y-6540000D02*
X19880000Y-6570000D01*
X20045000Y-8485000D02*
X20075000Y-8515000D01*
X20075000Y-8485000D02*
X20045000Y-8515000D01*
X20085000Y-6485000D02*
X20115000Y-6515000D01*
X20115000Y-6485000D02*
X20085000Y-6515000D01*
X20095000Y-8125000D02*
X20125000Y-8155000D01*
X20125000Y-8125000D02*
X20095000Y-8155000D01*
X20225000Y-8535000D02*
X20255000Y-8565000D01*
X20255000Y-8535000D02*
X20225000Y-8565000D01*
X20585000Y-12475000D02*
X20615000Y-12505000D01*
X20615000Y-12475000D02*
X20585000Y-12505000D01*
X20835000Y-15295000D02*
X20865000Y-15325000D01*
X20865000Y-15295000D02*
X20835000Y-15325000D01*
X20875000Y-7745000D02*
X20905000Y-7775000D01*
X20905000Y-7745000D02*
X20875000Y-7775000D01*
X20885000Y-6490300D02*
X20915000Y-6520300D01*
X20915000Y-6490300D02*
X20885000Y-6520300D01*
X21090000Y-6540000D02*
X21120000Y-6570000D01*
X21120000Y-6540000D02*
X21090000Y-6570000D01*
X21210000Y-7635000D02*
X21240000Y-7665000D01*
X21240000Y-7635000D02*
X21210000Y-7665000D01*
X21280000Y-6540000D02*
X21310000Y-6570000D01*
X21310000Y-6540000D02*
X21280000Y-6570000D01*
X21305000Y-9125000D02*
X21335000Y-9155000D01*
X21335000Y-9125000D02*
X21305000Y-9155000D01*
X21305000Y-9265000D02*
X21335000Y-9295000D01*
X21335000Y-9265000D02*
X21305000Y-9295000D01*
X21590000Y-6405000D02*
X21620000Y-6435000D01*
X21620000Y-6405000D02*
X21590000Y-6435000D01*
X21835000Y-7740300D02*
X21865000Y-7770300D01*
X21865000Y-7740300D02*
X21835000Y-7770300D01*
X22585000Y-7835000D02*
X22615000Y-7865000D01*
X22615000Y-7835000D02*
X22585000Y-7865000D01*
X22885000Y-7835000D02*
X22915000Y-7865000D01*
X22915000Y-7835000D02*
X22885000Y-7865000D01*
X22895000Y-8045000D02*
X22925000Y-8075000D01*
X22925000Y-8045000D02*
X22895000Y-8075000D01*
X22944000Y-4492000D02*
X22974000Y-4522000D01*
X22974000Y-4492000D02*
X22944000Y-4522000D01*
X22944000Y-5315000D02*
X22974000Y-5345000D01*
X22974000Y-5315000D02*
X22944000Y-5345000D01*
X22985000Y-12475000D02*
X23015000Y-12505000D01*
X23015000Y-12475000D02*
X22985000Y-12505000D01*
X23024000Y-5315000D02*
X23054000Y-5345000D01*
X23054000Y-5315000D02*
X23024000Y-5345000D01*
X23195000Y-9110000D02*
X23225000Y-9140000D01*
X23225000Y-9110000D02*
X23195000Y-9140000D01*
X23275000Y-8825000D02*
X23305000Y-8855000D01*
X23305000Y-8825000D02*
X23275000Y-8855000D01*
X23685000Y-8760000D02*
X23715000Y-8790000D01*
X23715000Y-8760000D02*
X23685000Y-8790000D01*
X11098000Y-3140000D02*
G75*
G02*
X11038000Y-3140000I-30000J0D01*
G01*
X11038000Y-3140000D02*
G75*
G02*
X11098000Y-3140000I30000J0D01*
G01*
X11098000Y-3180000D02*
X11098000Y-3100000D01*
X11038000Y-3100000D02*
G75*
G02*
X11098000Y-3100000I30000J0D01*
G01*
X11038000Y-3100000D02*
X11038000Y-3180000D01*
X11038000Y-3180000D02*
G75*
G03*
X11098000Y-3180000I30000J0D01*
G01*
X11098000Y-3555000D02*
G75*
G02*
X11038000Y-3555000I-30000J0D01*
G01*
X11038000Y-3555000D02*
G75*
G02*
X11098000Y-3555000I30000J0D01*
G01*
X11098000Y-3610001D02*
X11098000Y-3499999D01*
X11038000Y-3499999D02*
G75*
G02*
X11098000Y-3499999I30000J0D01*
G01*
X11038000Y-3499999D02*
X11038000Y-3610001D01*
X11038000Y-3610001D02*
G75*
G03*
X11098000Y-3610001I30000J0D01*
G01*
X11962000Y-3140000D02*
G75*
G02*
X11902000Y-3140000I-30000J0D01*
G01*
X11902000Y-3140000D02*
G75*
G02*
X11962000Y-3140000I30000J0D01*
G01*
X11962000Y-3180000D02*
X11962000Y-3100000D01*
X11902000Y-3100000D02*
G75*
G02*
X11962000Y-3100000I30000J0D01*
G01*
X11902000Y-3100000D02*
X11902000Y-3180000D01*
X11902000Y-3180000D02*
G75*
G03*
X11962000Y-3180000I30000J0D01*
G01*
X11962000Y-3555000D02*
G75*
G02*
X11902000Y-3555000I-30000J0D01*
G01*
X11902000Y-3555000D02*
G75*
G02*
X11962000Y-3555000I30000J0D01*
G01*
X11962000Y-3610001D02*
X11962000Y-3499999D01*
X11902000Y-3499999D02*
G75*
G02*
X11962000Y-3499999I30000J0D01*
G01*
X11902000Y-3499999D02*
X11902000Y-3610001D01*
X11902000Y-3610001D02*
G75*
G03*
X11962000Y-3610001I30000J0D01*
G01*
X7040000Y-3414999D02*
X7040000Y-3505001D01*
X6994999Y-3460000D02*
X7085001Y-3460000D01*
X7085001Y-3504999D02*
X7085001Y-3415001D01*
X6994999Y-3415001D02*
G75*
G02*
X7085001Y-3415001I45001J0D01*
G01*
X6994999Y-3415001D02*
X6994999Y-3504999D01*
X6994999Y-3504999D02*
G75*
G03*
X7085001Y-3504999I45001J0D01*
G01*
X7040000Y-4054999D02*
X7040000Y-4145001D01*
X6994999Y-4100000D02*
X7085001Y-4100000D01*
X7085001Y-4144999D02*
X7085001Y-4055001D01*
X6994999Y-4055001D02*
G75*
G02*
X7085001Y-4055001I45001J0D01*
G01*
X6994999Y-4055001D02*
X6994999Y-4144999D01*
X6994999Y-4144999D02*
G75*
G03*
X7085001Y-4144999I45001J0D01*
G01*
X7040000Y-4694999D02*
X7040000Y-4785001D01*
X6994999Y-4740000D02*
X7085001Y-4740000D01*
X7085001Y-4784999D02*
X7085001Y-4695001D01*
X6994999Y-4695001D02*
G75*
G02*
X7085001Y-4695001I45001J0D01*
G01*
X6994999Y-4695001D02*
X6994999Y-4784999D01*
X6994999Y-4784999D02*
G75*
G03*
X7085001Y-4784999I45001J0D01*
G01*
X8160000Y-3414999D02*
X8160000Y-3505001D01*
X8114999Y-3460000D02*
X8205001Y-3460000D01*
X8205001Y-3504999D02*
X8205001Y-3415001D01*
X8114999Y-3415001D02*
G75*
G02*
X8205001Y-3415001I45001J0D01*
G01*
X8114999Y-3415001D02*
X8114999Y-3504999D01*
X8114999Y-3504999D02*
G75*
G03*
X8205001Y-3504999I45001J0D01*
G01*
X8160000Y-4054999D02*
X8160000Y-4145001D01*
X8114999Y-4100000D02*
X8205001Y-4100000D01*
X8205001Y-4144999D02*
X8205001Y-4055001D01*
X8114999Y-4055001D02*
G75*
G02*
X8205001Y-4055001I45001J0D01*
G01*
X8114999Y-4055001D02*
X8114999Y-4144999D01*
X8114999Y-4144999D02*
G75*
G03*
X8205001Y-4144999I45001J0D01*
G01*
X8160000Y-4694999D02*
X8160000Y-4785001D01*
X8114999Y-4740000D02*
X8205001Y-4740000D01*
X8205001Y-4784999D02*
X8205001Y-4695001D01*
X8114999Y-4695001D02*
G75*
G02*
X8205001Y-4695001I45001J0D01*
G01*
X8114999Y-4695001D02*
X8114999Y-4784999D01*
X8114999Y-4784999D02*
G75*
G03*
X8205001Y-4784999I45001J0D01*
G01*
X6235356Y-14585356D02*
X6235356Y-14514644D01*
X6164644Y-14514644D01*
X6164644Y-14585356D01*
X6235356Y-14585356D01*
X6235356Y-17185356D02*
X6235356Y-17114644D01*
X6164644Y-17114644D01*
X6164644Y-17185356D01*
X6235356Y-17185356D01*
X6485356Y-5981356D02*
X6485356Y-5910644D01*
X6414644Y-5910644D01*
X6414644Y-5981356D01*
X6485356Y-5981356D01*
X6400000Y-5996000D02*
X6500000Y-5996000D01*
X6500000Y-5896000D02*
G75*
G02*
X6500000Y-5996000I0J-50000D01*
G01*
X6500000Y-5896000D02*
X6400000Y-5896000D01*
X6400000Y-5896000D02*
G75*
G03*
X6400000Y-5996000I0J-50000D01*
G01*
X6485356Y-6235356D02*
X6485356Y-6164644D01*
X6414644Y-6164644D01*
X6414644Y-6235356D01*
X6485356Y-6235356D01*
X6400000Y-6250000D02*
X6500000Y-6250000D01*
X6500000Y-6150000D02*
G75*
G02*
X6500000Y-6250000I0J-50000D01*
G01*
X6500000Y-6150000D02*
X6400000Y-6150000D01*
X6400000Y-6150000D02*
G75*
G03*
X6400000Y-6250000I0J-50000D01*
G01*
X6485356Y-6489356D02*
X6485356Y-6418644D01*
X6414644Y-6418644D01*
X6414644Y-6489356D01*
X6485356Y-6489356D01*
X6400000Y-6504000D02*
X6500000Y-6504000D01*
X6500000Y-6404000D02*
G75*
G02*
X6500000Y-6504000I0J-50000D01*
G01*
X6500000Y-6404000D02*
X6400000Y-6404000D01*
X6400000Y-6404000D02*
G75*
G03*
X6400000Y-6504000I0J-50000D01*
G01*
X6485356Y-11281356D02*
X6485356Y-11210644D01*
X6414644Y-11210644D01*
X6414644Y-11281356D01*
X6485356Y-11281356D01*
X6400000Y-11296000D02*
X6500000Y-11296000D01*
X6500000Y-11196000D02*
G75*
G02*
X6500000Y-11296000I0J-50000D01*
G01*
X6500000Y-11196000D02*
X6400000Y-11196000D01*
X6400000Y-11196000D02*
G75*
G03*
X6400000Y-11296000I0J-50000D01*
G01*
X6485356Y-11535356D02*
X6485356Y-11464644D01*
X6414644Y-11464644D01*
X6414644Y-11535356D01*
X6485356Y-11535356D01*
X6400000Y-11550000D02*
X6500000Y-11550000D01*
X6500000Y-11450000D02*
G75*
G02*
X6500000Y-11550000I0J-50000D01*
G01*
X6500000Y-11450000D02*
X6400000Y-11450000D01*
X6400000Y-11450000D02*
G75*
G03*
X6400000Y-11550000I0J-50000D01*
G01*
X6485356Y-11789356D02*
X6485356Y-11718644D01*
X6414644Y-11718644D01*
X6414644Y-11789356D01*
X6485356Y-11789356D01*
X6400000Y-11804000D02*
X6500000Y-11804000D01*
X6500000Y-11704000D02*
G75*
G02*
X6500000Y-11804000I0J-50000D01*
G01*
X6500000Y-11704000D02*
X6400000Y-11704000D01*
X6400000Y-11704000D02*
G75*
G03*
X6400000Y-11804000I0J-50000D01*
G01*
X6485356Y-14585356D02*
X6485356Y-14514644D01*
X6414644Y-14514644D01*
X6414644Y-14585356D01*
X6485356Y-14585356D01*
X6485356Y-17185356D02*
X6485356Y-17114644D01*
X6414644Y-17114644D01*
X6414644Y-17185356D01*
X6485356Y-17185356D01*
X6735356Y-14585356D02*
X6735356Y-14514644D01*
X6664644Y-14514644D01*
X6664644Y-14585356D01*
X6735356Y-14585356D01*
X6735356Y-17185356D02*
X6735356Y-17114644D01*
X6664644Y-17114644D01*
X6664644Y-17185356D01*
X6735356Y-17185356D01*
X8635356Y-14585356D02*
X8635356Y-14514644D01*
X8564644Y-14514644D01*
X8564644Y-14585356D01*
X8635356Y-14585356D01*
X8635356Y-17185356D02*
X8635356Y-17114644D01*
X8564644Y-17114644D01*
X8564644Y-17185356D01*
X8635356Y-17185356D01*
X8885356Y-11281356D02*
X8885356Y-11210644D01*
X8814644Y-11210644D01*
X8814644Y-11281356D01*
X8885356Y-11281356D01*
X8800000Y-11296000D02*
X8900000Y-11296000D01*
X8900000Y-11196000D02*
G75*
G02*
X8900000Y-11296000I0J-50000D01*
G01*
X8900000Y-11196000D02*
X8800000Y-11196000D01*
X8800000Y-11196000D02*
G75*
G03*
X8800000Y-11296000I0J-50000D01*
G01*
X8885356Y-11535356D02*
X8885356Y-11464644D01*
X8814644Y-11464644D01*
X8814644Y-11535356D01*
X8885356Y-11535356D01*
X8800000Y-11550000D02*
X8900000Y-11550000D01*
X8900000Y-11450000D02*
G75*
G02*
X8900000Y-11550000I0J-50000D01*
G01*
X8900000Y-11450000D02*
X8800000Y-11450000D01*
X8800000Y-11450000D02*
G75*
G03*
X8800000Y-11550000I0J-50000D01*
G01*
X8885356Y-11789356D02*
X8885356Y-11718644D01*
X8814644Y-11718644D01*
X8814644Y-11789356D01*
X8885356Y-11789356D01*
X8800000Y-11804000D02*
X8900000Y-11804000D01*
X8900000Y-11704000D02*
G75*
G02*
X8900000Y-11804000I0J-50000D01*
G01*
X8900000Y-11704000D02*
X8800000Y-11704000D01*
X8800000Y-11704000D02*
G75*
G03*
X8800000Y-11804000I0J-50000D01*
G01*
X8885356Y-14585356D02*
X8885356Y-14514644D01*
X8814644Y-14514644D01*
X8814644Y-14585356D01*
X8885356Y-14585356D01*
X8885356Y-17185356D02*
X8885356Y-17114644D01*
X8814644Y-17114644D01*
X8814644Y-17185356D01*
X8885356Y-17185356D01*
X9135356Y-14585356D02*
X9135356Y-14514644D01*
X9064644Y-14514644D01*
X9064644Y-14585356D01*
X9135356Y-14585356D01*
X9135356Y-17185356D02*
X9135356Y-17114644D01*
X9064644Y-17114644D01*
X9064644Y-17185356D01*
X9135356Y-17185356D01*
X11035356Y-14585356D02*
X11035356Y-14514644D01*
X10964644Y-14514644D01*
X10964644Y-14585356D01*
X11035356Y-14585356D01*
X11035356Y-17185356D02*
X11035356Y-17114644D01*
X10964644Y-17114644D01*
X10964644Y-17185356D01*
X11035356Y-17185356D01*
X11285356Y-11281356D02*
X11285356Y-11210644D01*
X11214644Y-11210644D01*
X11214644Y-11281356D01*
X11285356Y-11281356D01*
X11200000Y-11296000D02*
X11300000Y-11296000D01*
X11300000Y-11196000D02*
G75*
G02*
X11300000Y-11296000I0J-50000D01*
G01*
X11300000Y-11196000D02*
X11200000Y-11196000D01*
X11200000Y-11196000D02*
G75*
G03*
X11200000Y-11296000I0J-50000D01*
G01*
X11285356Y-11535356D02*
X11285356Y-11464644D01*
X11214644Y-11464644D01*
X11214644Y-11535356D01*
X11285356Y-11535356D01*
X11200000Y-11550000D02*
X11300000Y-11550000D01*
X11300000Y-11450000D02*
G75*
G02*
X11300000Y-11550000I0J-50000D01*
G01*
X11300000Y-11450000D02*
X11200000Y-11450000D01*
X11200000Y-11450000D02*
G75*
G03*
X11200000Y-11550000I0J-50000D01*
G01*
X11285356Y-11789356D02*
X11285356Y-11718644D01*
X11214644Y-11718644D01*
X11214644Y-11789356D01*
X11285356Y-11789356D01*
X11200000Y-11804000D02*
X11300000Y-11804000D01*
X11300000Y-11704000D02*
G75*
G02*
X11300000Y-11804000I0J-50000D01*
G01*
X11300000Y-11704000D02*
X11200000Y-11704000D01*
X11200000Y-11704000D02*
G75*
G03*
X11200000Y-11804000I0J-50000D01*
G01*
X11285356Y-14585356D02*
X11285356Y-14514644D01*
X11214644Y-14514644D01*
X11214644Y-14585356D01*
X11285356Y-14585356D01*
X11285356Y-17185356D02*
X11285356Y-17114644D01*
X11214644Y-17114644D01*
X11214644Y-17185356D01*
X11285356Y-17185356D01*
X11535356Y-14585356D02*
X11535356Y-14514644D01*
X11464644Y-14514644D01*
X11464644Y-14585356D01*
X11535356Y-14585356D01*
X11535356Y-17185356D02*
X11535356Y-17114644D01*
X11464644Y-17114644D01*
X11464644Y-17185356D01*
X11535356Y-17185356D01*
X13435356Y-14585356D02*
X13435356Y-14514644D01*
X13364644Y-14514644D01*
X13364644Y-14585356D01*
X13435356Y-14585356D01*
X13435356Y-17185356D02*
X13435356Y-17114644D01*
X13364644Y-17114644D01*
X13364644Y-17185356D01*
X13435356Y-17185356D01*
X13685356Y-11281356D02*
X13685356Y-11210644D01*
X13614644Y-11210644D01*
X13614644Y-11281356D01*
X13685356Y-11281356D01*
X13600000Y-11296000D02*
X13700000Y-11296000D01*
X13700000Y-11196000D02*
G75*
G02*
X13700000Y-11296000I0J-50000D01*
G01*
X13700000Y-11196000D02*
X13600000Y-11196000D01*
X13600000Y-11196000D02*
G75*
G03*
X13600000Y-11296000I0J-50000D01*
G01*
X13685356Y-11535356D02*
X13685356Y-11464644D01*
X13614644Y-11464644D01*
X13614644Y-11535356D01*
X13685356Y-11535356D01*
X13600000Y-11550000D02*
X13700000Y-11550000D01*
X13700000Y-11450000D02*
G75*
G02*
X13700000Y-11550000I0J-50000D01*
G01*
X13700000Y-11450000D02*
X13600000Y-11450000D01*
X13600000Y-11450000D02*
G75*
G03*
X13600000Y-11550000I0J-50000D01*
G01*
X13685356Y-11789356D02*
X13685356Y-11718644D01*
X13614644Y-11718644D01*
X13614644Y-11789356D01*
X13685356Y-11789356D01*
X13600000Y-11804000D02*
X13700000Y-11804000D01*
X13700000Y-11704000D02*
G75*
G02*
X13700000Y-11804000I0J-50000D01*
G01*
X13700000Y-11704000D02*
X13600000Y-11704000D01*
X13600000Y-11704000D02*
G75*
G03*
X13600000Y-11804000I0J-50000D01*
G01*
X13685356Y-14585356D02*
X13685356Y-14514644D01*
X13614644Y-14514644D01*
X13614644Y-14585356D01*
X13685356Y-14585356D01*
X13685356Y-17185356D02*
X13685356Y-17114644D01*
X13614644Y-17114644D01*
X13614644Y-17185356D01*
X13685356Y-17185356D01*
X13935356Y-14585356D02*
X13935356Y-14514644D01*
X13864644Y-14514644D01*
X13864644Y-14585356D01*
X13935356Y-14585356D01*
X13935356Y-17185356D02*
X13935356Y-17114644D01*
X13864644Y-17114644D01*
X13864644Y-17185356D01*
X13935356Y-17185356D01*
X15835356Y-14585356D02*
X15835356Y-14514644D01*
X15764644Y-14514644D01*
X15764644Y-14585356D01*
X15835356Y-14585356D01*
X15835356Y-17185356D02*
X15835356Y-17114644D01*
X15764644Y-17114644D01*
X15764644Y-17185356D01*
X15835356Y-17185356D01*
X16085356Y-11281356D02*
X16085356Y-11210644D01*
X16014644Y-11210644D01*
X16014644Y-11281356D01*
X16085356Y-11281356D01*
X16000000Y-11296000D02*
X16100000Y-11296000D01*
X16100000Y-11196000D02*
G75*
G02*
X16100000Y-11296000I0J-50000D01*
G01*
X16100000Y-11196000D02*
X16000000Y-11196000D01*
X16000000Y-11196000D02*
G75*
G03*
X16000000Y-11296000I0J-50000D01*
G01*
X16085356Y-11535356D02*
X16085356Y-11464644D01*
X16014644Y-11464644D01*
X16014644Y-11535356D01*
X16085356Y-11535356D01*
X16000000Y-11550000D02*
X16100000Y-11550000D01*
X16100000Y-11450000D02*
G75*
G02*
X16100000Y-11550000I0J-50000D01*
G01*
X16100000Y-11450000D02*
X16000000Y-11450000D01*
X16000000Y-11450000D02*
G75*
G03*
X16000000Y-11550000I0J-50000D01*
G01*
X16085356Y-11789356D02*
X16085356Y-11718644D01*
X16014644Y-11718644D01*
X16014644Y-11789356D01*
X16085356Y-11789356D01*
X16000000Y-11804000D02*
X16100000Y-11804000D01*
X16100000Y-11704000D02*
G75*
G02*
X16100000Y-11804000I0J-50000D01*
G01*
X16100000Y-11704000D02*
X16000000Y-11704000D01*
X16000000Y-11704000D02*
G75*
G03*
X16000000Y-11804000I0J-50000D01*
G01*
X16085356Y-14585356D02*
X16085356Y-14514644D01*
X16014644Y-14514644D01*
X16014644Y-14585356D01*
X16085356Y-14585356D01*
X16085356Y-17185356D02*
X16085356Y-17114644D01*
X16014644Y-17114644D01*
X16014644Y-17185356D01*
X16085356Y-17185356D01*
X16335356Y-14585356D02*
X16335356Y-14514644D01*
X16264644Y-14514644D01*
X16264644Y-14585356D01*
X16335356Y-14585356D01*
X16335356Y-17185356D02*
X16335356Y-17114644D01*
X16264644Y-17114644D01*
X16264644Y-17185356D01*
X16335356Y-17185356D01*
X18235356Y-14585356D02*
X18235356Y-14514644D01*
X18164644Y-14514644D01*
X18164644Y-14585356D01*
X18235356Y-14585356D01*
X18235356Y-17185356D02*
X18235356Y-17114644D01*
X18164644Y-17114644D01*
X18164644Y-17185356D01*
X18235356Y-17185356D01*
X18485356Y-11281356D02*
X18485356Y-11210644D01*
X18414644Y-11210644D01*
X18414644Y-11281356D01*
X18485356Y-11281356D01*
X18400000Y-11296000D02*
X18500000Y-11296000D01*
X18500000Y-11196000D02*
G75*
G02*
X18500000Y-11296000I0J-50000D01*
G01*
X18500000Y-11196000D02*
X18400000Y-11196000D01*
X18400000Y-11196000D02*
G75*
G03*
X18400000Y-11296000I0J-50000D01*
G01*
X18485356Y-11535356D02*
X18485356Y-11464644D01*
X18414644Y-11464644D01*
X18414644Y-11535356D01*
X18485356Y-11535356D01*
X18400000Y-11550000D02*
X18500000Y-11550000D01*
X18500000Y-11450000D02*
G75*
G02*
X18500000Y-11550000I0J-50000D01*
G01*
X18500000Y-11450000D02*
X18400000Y-11450000D01*
X18400000Y-11450000D02*
G75*
G03*
X18400000Y-11550000I0J-50000D01*
G01*
X18485356Y-11789356D02*
X18485356Y-11718644D01*
X18414644Y-11718644D01*
X18414644Y-11789356D01*
X18485356Y-11789356D01*
X18400000Y-11804000D02*
X18500000Y-11804000D01*
X18500000Y-11704000D02*
G75*
G02*
X18500000Y-11804000I0J-50000D01*
G01*
X18500000Y-11704000D02*
X18400000Y-11704000D01*
X18400000Y-11704000D02*
G75*
G03*
X18400000Y-11804000I0J-50000D01*
G01*
X18485356Y-14585356D02*
X18485356Y-14514644D01*
X18414644Y-14514644D01*
X18414644Y-14585356D01*
X18485356Y-14585356D01*
X18485356Y-17185356D02*
X18485356Y-17114644D01*
X18414644Y-17114644D01*
X18414644Y-17185356D01*
X18485356Y-17185356D01*
X18735356Y-14585356D02*
X18735356Y-14514644D01*
X18664644Y-14514644D01*
X18664644Y-14585356D01*
X18735356Y-14585356D01*
X18735356Y-17185356D02*
X18735356Y-17114644D01*
X18664644Y-17114644D01*
X18664644Y-17185356D01*
X18735356Y-17185356D01*
X20635356Y-14585356D02*
X20635356Y-14514644D01*
X20564644Y-14514644D01*
X20564644Y-14585356D01*
X20635356Y-14585356D01*
X20635356Y-17185356D02*
X20635356Y-17114644D01*
X20564644Y-17114644D01*
X20564644Y-17185356D01*
X20635356Y-17185356D01*
X20885356Y-11281356D02*
X20885356Y-11210644D01*
X20814644Y-11210644D01*
X20814644Y-11281356D01*
X20885356Y-11281356D01*
X20800000Y-11296000D02*
X20900000Y-11296000D01*
X20900000Y-11196000D02*
G75*
G02*
X20900000Y-11296000I0J-50000D01*
G01*
X20900000Y-11196000D02*
X20800000Y-11196000D01*
X20800000Y-11196000D02*
G75*
G03*
X20800000Y-11296000I0J-50000D01*
G01*
X20885356Y-11535356D02*
X20885356Y-11464644D01*
X20814644Y-11464644D01*
X20814644Y-11535356D01*
X20885356Y-11535356D01*
X20800000Y-11550000D02*
X20900000Y-11550000D01*
X20900000Y-11450000D02*
G75*
G02*
X20900000Y-11550000I0J-50000D01*
G01*
X20900000Y-11450000D02*
X20800000Y-11450000D01*
X20800000Y-11450000D02*
G75*
G03*
X20800000Y-11550000I0J-50000D01*
G01*
X20885356Y-11789356D02*
X20885356Y-11718644D01*
X20814644Y-11718644D01*
X20814644Y-11789356D01*
X20885356Y-11789356D01*
X20800000Y-11804000D02*
X20900000Y-11804000D01*
X20900000Y-11704000D02*
G75*
G02*
X20900000Y-11804000I0J-50000D01*
G01*
X20900000Y-11704000D02*
X20800000Y-11704000D01*
X20800000Y-11704000D02*
G75*
G03*
X20800000Y-11804000I0J-50000D01*
G01*
X20885356Y-14585356D02*
X20885356Y-14514644D01*
X20814644Y-14514644D01*
X20814644Y-14585356D01*
X20885356Y-14585356D01*
X20885356Y-17185356D02*
X20885356Y-17114644D01*
X20814644Y-17114644D01*
X20814644Y-17185356D01*
X20885356Y-17185356D01*
X21135356Y-14585356D02*
X21135356Y-14514644D01*
X21064644Y-14514644D01*
X21064644Y-14585356D01*
X21135356Y-14585356D01*
X21135356Y-17185356D02*
X21135356Y-17114644D01*
X21064644Y-17114644D01*
X21064644Y-17185356D01*
X21135356Y-17185356D01*
X22300356Y-3435356D02*
X22300356Y-3364644D01*
X22229644Y-3364644D01*
X22229644Y-3435356D01*
X22300356Y-3435356D01*
X22365000Y-3350000D02*
X22165000Y-3350000D01*
X22165000Y-3450000D02*
G75*
G02*
X22165000Y-3350000I0J50000D01*
G01*
X22165000Y-3450000D02*
X22365000Y-3450000D01*
X22365000Y-3450000D02*
G75*
G03*
X22365000Y-3350000I0J50000D01*
G01*
X22300356Y-4035356D02*
X22300356Y-3964644D01*
X22229644Y-3964644D01*
X22229644Y-4035356D01*
X22300356Y-4035356D01*
X22390000Y-3950000D02*
X22140000Y-3950000D01*
X22140000Y-4050000D02*
G75*
G02*
X22140000Y-3950000I0J50000D01*
G01*
X22140000Y-4050000D02*
X22390000Y-4050000D01*
X22390000Y-4050000D02*
G75*
G03*
X22390000Y-3950000I0J50000D01*
G01*
X22770356Y-3735356D02*
X22770356Y-3664644D01*
X22699644Y-3664644D01*
X22699644Y-3735356D01*
X22770356Y-3735356D01*
X22685000Y-3600000D02*
X22685000Y-3800000D01*
X22785000Y-3800000D02*
G75*
G02*
X22685000Y-3800000I-50000J0D01*
G01*
X22785000Y-3800000D02*
X22785000Y-3600000D01*
X22785000Y-3600000D02*
G75*
G03*
X22685000Y-3600000I-50000J0D01*
G01*
X23035356Y-6885356D02*
X23035356Y-6814644D01*
X22964644Y-6814644D01*
X22964644Y-6885356D01*
X23035356Y-6885356D01*
X23035356Y-14585356D02*
X23035356Y-14514644D01*
X22964644Y-14514644D01*
X22964644Y-14585356D01*
X23035356Y-14585356D01*
X23035356Y-17185356D02*
X23035356Y-17114644D01*
X22964644Y-17114644D01*
X22964644Y-17185356D01*
X23035356Y-17185356D01*
X23285356Y-6885356D02*
X23285356Y-6814644D01*
X23214644Y-6814644D01*
X23214644Y-6885356D01*
X23285356Y-6885356D01*
X23285356Y-11281356D02*
X23285356Y-11210644D01*
X23214644Y-11210644D01*
X23214644Y-11281356D01*
X23285356Y-11281356D01*
X23200000Y-11296000D02*
X23300000Y-11296000D01*
X23300000Y-11196000D02*
G75*
G02*
X23300000Y-11296000I0J-50000D01*
G01*
X23300000Y-11196000D02*
X23200000Y-11196000D01*
X23200000Y-11196000D02*
G75*
G03*
X23200000Y-11296000I0J-50000D01*
G01*
X23285356Y-11535356D02*
X23285356Y-11464644D01*
X23214644Y-11464644D01*
X23214644Y-11535356D01*
X23285356Y-11535356D01*
X23200000Y-11550000D02*
X23300000Y-11550000D01*
X23300000Y-11450000D02*
G75*
G02*
X23300000Y-11550000I0J-50000D01*
G01*
X23300000Y-11450000D02*
X23200000Y-11450000D01*
X23200000Y-11450000D02*
G75*
G03*
X23200000Y-11550000I0J-50000D01*
G01*
X23285356Y-11789356D02*
X23285356Y-11718644D01*
X23214644Y-11718644D01*
X23214644Y-11789356D01*
X23285356Y-11789356D01*
X23200000Y-11804000D02*
X23300000Y-11804000D01*
X23300000Y-11704000D02*
G75*
G02*
X23300000Y-11804000I0J-50000D01*
G01*
X23300000Y-11704000D02*
X23200000Y-11704000D01*
X23200000Y-11704000D02*
G75*
G03*
X23200000Y-11804000I0J-50000D01*
G01*
X23285356Y-14585356D02*
X23285356Y-14514644D01*
X23214644Y-14514644D01*
X23214644Y-14585356D01*
X23285356Y-14585356D01*
X23285356Y-17185356D02*
X23285356Y-17114644D01*
X23214644Y-17114644D01*
X23214644Y-17185356D01*
X23285356Y-17185356D01*
X23535356Y-6885356D02*
X23535356Y-6814644D01*
X23464644Y-6814644D01*
X23464644Y-6885356D01*
X23535356Y-6885356D01*
X23535356Y-14585356D02*
X23535356Y-14514644D01*
X23464644Y-14514644D01*
X23464644Y-14585356D01*
X23535356Y-14585356D01*
X23535356Y-17185356D02*
X23535356Y-17114644D01*
X23464644Y-17114644D01*
X23464644Y-17185356D01*
X23535356Y-17185356D01*
D12*
X17144200Y-6385000D02*
X17204200Y-6325000D01*
X17144200Y-6265000D01*
X17084200Y-6325000D01*
X17144200Y-6385000D01*
X17144200Y-7835000D02*
X17204200Y-7775000D01*
X17144200Y-7715000D01*
X17084200Y-7775000D01*
X17144200Y-7835000D01*
X17394200Y-6385000D02*
X17454200Y-6325000D01*
X17394200Y-6265000D01*
X17334200Y-6325000D01*
X17394200Y-6385000D01*
X17644200Y-6385000D02*
X17704200Y-6325000D01*
X17644200Y-6265000D01*
X17584200Y-6325000D01*
X17644200Y-6385000D01*
X17644200Y-7835000D02*
X17704200Y-7775000D01*
X17644200Y-7715000D01*
X17584200Y-7775000D01*
X17644200Y-7835000D01*
D13*
X18172999Y-4885999D02*
X18303001Y-5016001D01*
X18303001Y-4885999D02*
X18172999Y-5016001D01*
X18303001Y-4951000D02*
G75*
G02*
X18172999Y-4951000I-65001J0D01*
G01*
X18172999Y-4951000D02*
G75*
G02*
X18303001Y-4951000I65001J0D01*
G01*
X18585999Y-5266999D02*
X18716001Y-5397001D01*
X18716001Y-5266999D02*
X18585999Y-5397001D01*
X18716001Y-5332000D02*
G75*
G02*
X18585999Y-5332000I-65001J0D01*
G01*
X18585999Y-5332000D02*
G75*
G02*
X18716001Y-5332000I65001J0D01*
G01*
X18870999Y-5329999D02*
X19001001Y-5460001D01*
X19001001Y-5329999D02*
X18870999Y-5460001D01*
X19001001Y-5395000D02*
G75*
G02*
X18870999Y-5395000I-65001J0D01*
G01*
X18870999Y-5395000D02*
G75*
G02*
X19001001Y-5395000I65001J0D01*
G01*
X19156999Y-5266999D02*
X19287001Y-5397001D01*
X19287001Y-5266999D02*
X19156999Y-5397001D01*
X19287001Y-5332000D02*
G75*
G02*
X19156999Y-5332000I-65001J0D01*
G01*
X19156999Y-5332000D02*
G75*
G02*
X19287001Y-5332000I65001J0D01*
G01*
X19569999Y-4821999D02*
X19700001Y-4952001D01*
X19700001Y-4821999D02*
X19569999Y-4952001D01*
X19700001Y-4887000D02*
G75*
G02*
X19569999Y-4887000I-65001J0D01*
G01*
X19569999Y-4887000D02*
G75*
G02*
X19700001Y-4887000I65001J0D01*
G01*
D14*
X16759199Y-6989999D02*
X16929201Y-7160001D01*
X16929201Y-6989999D02*
X16759199Y-7160001D01*
X16844200Y-6989999D02*
X16844200Y-7160001D01*
X16759199Y-7075000D02*
X16929201Y-7075000D01*
D10*
X16929201Y-7129999D02*
X16929201Y-7020001D01*
X16759199Y-7020001D02*
G75*
G02*
X16929201Y-7020001I85001J0D01*
G01*
X16759199Y-7020001D02*
X16759199Y-7129999D01*
X16759199Y-7129999D02*
G75*
G03*
X16929201Y-7129999I85001J0D01*
G01*
D14*
X17859199Y-6989999D02*
X18029201Y-7160001D01*
X18029201Y-6989999D02*
X17859199Y-7160001D01*
X17944200Y-6989999D02*
X17944200Y-7160001D01*
X17859199Y-7075000D02*
X18029201Y-7075000D01*
D10*
X18029201Y-7129999D02*
X18029201Y-7020001D01*
X17859199Y-7020001D02*
G75*
G02*
X18029201Y-7020001I85001J0D01*
G01*
X17859199Y-7020001D02*
X17859199Y-7129999D01*
X17859199Y-7129999D02*
G75*
G03*
X18029201Y-7129999I85001J0D01*
G01*
D15*
X5920000Y-13760000D02*
X6100000Y-13940000D01*
X6100000Y-13760000D02*
X5920000Y-13940000D01*
X6073640Y-13913640D02*
X6073640Y-13786360D01*
X5946360Y-13786360D01*
X5946360Y-13913640D01*
X6073640Y-13913640D01*
D10*
X5920000Y-13827501D02*
X5920000Y-13872499D01*
X6100000Y-13872499D02*
G75*
G02*
X5920000Y-13872499I-90000J0D01*
G01*
X6100000Y-13872499D02*
X6100000Y-13827501D01*
X6100000Y-13827501D02*
G75*
G03*
X5920000Y-13827501I-90000J0D01*
G01*
D15*
X5920000Y-16360000D02*
X6100000Y-16540000D01*
X6100000Y-16360000D02*
X5920000Y-16540000D01*
X6073640Y-16513640D02*
X6073640Y-16386360D01*
X5946360Y-16386360D01*
X5946360Y-16513640D01*
X6073640Y-16513640D01*
D10*
X5920000Y-16427501D02*
X5920000Y-16472499D01*
X6100000Y-16472499D02*
G75*
G02*
X5920000Y-16472499I-90000J0D01*
G01*
X6100000Y-16472499D02*
X6100000Y-16427501D01*
X6100000Y-16427501D02*
G75*
G03*
X5920000Y-16427501I-90000J0D01*
G01*
D15*
X6800000Y-13760000D02*
X6980000Y-13940000D01*
X6980000Y-13760000D02*
X6800000Y-13940000D01*
X6953640Y-13913640D02*
X6953640Y-13786360D01*
X6826360Y-13786360D01*
X6826360Y-13913640D01*
X6953640Y-13913640D01*
D10*
X6800000Y-13825000D02*
X6800000Y-13875000D01*
X6980000Y-13875000D02*
G75*
G02*
X6800000Y-13875000I-90000J0D01*
G01*
X6980000Y-13875000D02*
X6980000Y-13825000D01*
X6980000Y-13825000D02*
G75*
G03*
X6800000Y-13825000I-90000J0D01*
G01*
D15*
X6800000Y-16360000D02*
X6980000Y-16540000D01*
X6980000Y-16360000D02*
X6800000Y-16540000D01*
X6953640Y-16513640D02*
X6953640Y-16386360D01*
X6826360Y-16386360D01*
X6826360Y-16513640D01*
X6953640Y-16513640D01*
D10*
X6800000Y-16425000D02*
X6800000Y-16475000D01*
X6980000Y-16475000D02*
G75*
G02*
X6800000Y-16475000I-90000J0D01*
G01*
X6980000Y-16475000D02*
X6980000Y-16425000D01*
X6980000Y-16425000D02*
G75*
G03*
X6800000Y-16425000I-90000J0D01*
G01*
D15*
X8320000Y-13760000D02*
X8500000Y-13940000D01*
X8500000Y-13760000D02*
X8320000Y-13940000D01*
X8473640Y-13913640D02*
X8473640Y-13786360D01*
X8346360Y-13786360D01*
X8346360Y-13913640D01*
X8473640Y-13913640D01*
D10*
X8320000Y-13827501D02*
X8320000Y-13872499D01*
X8500000Y-13872499D02*
G75*
G02*
X8320000Y-13872499I-90000J0D01*
G01*
X8500000Y-13872499D02*
X8500000Y-13827501D01*
X8500000Y-13827501D02*
G75*
G03*
X8320000Y-13827501I-90000J0D01*
G01*
D15*
X8320000Y-16360000D02*
X8500000Y-16540000D01*
X8500000Y-16360000D02*
X8320000Y-16540000D01*
X8473640Y-16513640D02*
X8473640Y-16386360D01*
X8346360Y-16386360D01*
X8346360Y-16513640D01*
X8473640Y-16513640D01*
D10*
X8320000Y-16427501D02*
X8320000Y-16472499D01*
X8500000Y-16472499D02*
G75*
G02*
X8320000Y-16472499I-90000J0D01*
G01*
X8500000Y-16472499D02*
X8500000Y-16427501D01*
X8500000Y-16427501D02*
G75*
G03*
X8320000Y-16427501I-90000J0D01*
G01*
D15*
X9200000Y-13760000D02*
X9380000Y-13940000D01*
X9380000Y-13760000D02*
X9200000Y-13940000D01*
X9353640Y-13913640D02*
X9353640Y-13786360D01*
X9226360Y-13786360D01*
X9226360Y-13913640D01*
X9353640Y-13913640D01*
D10*
X9200000Y-13825000D02*
X9200000Y-13875000D01*
X9380000Y-13875000D02*
G75*
G02*
X9200000Y-13875000I-90000J0D01*
G01*
X9380000Y-13875000D02*
X9380000Y-13825000D01*
X9380000Y-13825000D02*
G75*
G03*
X9200000Y-13825000I-90000J0D01*
G01*
D15*
X9200000Y-16360000D02*
X9380000Y-16540000D01*
X9380000Y-16360000D02*
X9200000Y-16540000D01*
X9353640Y-16513640D02*
X9353640Y-16386360D01*
X9226360Y-16386360D01*
X9226360Y-16513640D01*
X9353640Y-16513640D01*
D10*
X9200000Y-16425000D02*
X9200000Y-16475000D01*
X9380000Y-16475000D02*
G75*
G02*
X9200000Y-16475000I-90000J0D01*
G01*
X9380000Y-16475000D02*
X9380000Y-16425000D01*
X9380000Y-16425000D02*
G75*
G03*
X9200000Y-16425000I-90000J0D01*
G01*
D15*
X10720000Y-13760000D02*
X10900000Y-13940000D01*
X10900000Y-13760000D02*
X10720000Y-13940000D01*
X10873640Y-13913640D02*
X10873640Y-13786360D01*
X10746360Y-13786360D01*
X10746360Y-13913640D01*
X10873640Y-13913640D01*
D10*
X10720000Y-13827501D02*
X10720000Y-13872499D01*
X10900000Y-13872499D02*
G75*
G02*
X10720000Y-13872499I-90000J0D01*
G01*
X10900000Y-13872499D02*
X10900000Y-13827501D01*
X10900000Y-13827501D02*
G75*
G03*
X10720000Y-13827501I-90000J0D01*
G01*
D15*
X10720000Y-16360000D02*
X10900000Y-16540000D01*
X10900000Y-16360000D02*
X10720000Y-16540000D01*
X10873640Y-16513640D02*
X10873640Y-16386360D01*
X10746360Y-16386360D01*
X10746360Y-16513640D01*
X10873640Y-16513640D01*
D10*
X10720000Y-16427501D02*
X10720000Y-16472499D01*
X10900000Y-16472499D02*
G75*
G02*
X10720000Y-16472499I-90000J0D01*
G01*
X10900000Y-16472499D02*
X10900000Y-16427501D01*
X10900000Y-16427501D02*
G75*
G03*
X10720000Y-16427501I-90000J0D01*
G01*
D15*
X11600000Y-13760000D02*
X11780000Y-13940000D01*
X11780000Y-13760000D02*
X11600000Y-13940000D01*
X11753640Y-13913640D02*
X11753640Y-13786360D01*
X11626360Y-13786360D01*
X11626360Y-13913640D01*
X11753640Y-13913640D01*
D10*
X11600000Y-13825000D02*
X11600000Y-13875000D01*
X11780000Y-13875000D02*
G75*
G02*
X11600000Y-13875000I-90000J0D01*
G01*
X11780000Y-13875000D02*
X11780000Y-13825000D01*
X11780000Y-13825000D02*
G75*
G03*
X11600000Y-13825000I-90000J0D01*
G01*
D15*
X11600000Y-16360000D02*
X11780000Y-16540000D01*
X11780000Y-16360000D02*
X11600000Y-16540000D01*
X11753640Y-16513640D02*
X11753640Y-16386360D01*
X11626360Y-16386360D01*
X11626360Y-16513640D01*
X11753640Y-16513640D01*
D10*
X11600000Y-16425000D02*
X11600000Y-16475000D01*
X11780000Y-16475000D02*
G75*
G02*
X11600000Y-16475000I-90000J0D01*
G01*
X11780000Y-16475000D02*
X11780000Y-16425000D01*
X11780000Y-16425000D02*
G75*
G03*
X11600000Y-16425000I-90000J0D01*
G01*
D15*
X13120000Y-13760000D02*
X13300000Y-13940000D01*
X13300000Y-13760000D02*
X13120000Y-13940000D01*
X13273640Y-13913640D02*
X13273640Y-13786360D01*
X13146360Y-13786360D01*
X13146360Y-13913640D01*
X13273640Y-13913640D01*
D10*
X13120000Y-13827501D02*
X13120000Y-13872499D01*
X13300000Y-13872499D02*
G75*
G02*
X13120000Y-13872499I-90000J0D01*
G01*
X13300000Y-13872499D02*
X13300000Y-13827501D01*
X13300000Y-13827501D02*
G75*
G03*
X13120000Y-13827501I-90000J0D01*
G01*
D15*
X13120000Y-16360000D02*
X13300000Y-16540000D01*
X13300000Y-16360000D02*
X13120000Y-16540000D01*
X13273640Y-16513640D02*
X13273640Y-16386360D01*
X13146360Y-16386360D01*
X13146360Y-16513640D01*
X13273640Y-16513640D01*
D10*
X13120000Y-16427501D02*
X13120000Y-16472499D01*
X13300000Y-16472499D02*
G75*
G02*
X13120000Y-16472499I-90000J0D01*
G01*
X13300000Y-16472499D02*
X13300000Y-16427501D01*
X13300000Y-16427501D02*
G75*
G03*
X13120000Y-16427501I-90000J0D01*
G01*
D15*
X14000000Y-13760000D02*
X14180000Y-13940000D01*
X14180000Y-13760000D02*
X14000000Y-13940000D01*
X14153640Y-13913640D02*
X14153640Y-13786360D01*
X14026360Y-13786360D01*
X14026360Y-13913640D01*
X14153640Y-13913640D01*
D10*
X14000000Y-13825000D02*
X14000000Y-13875000D01*
X14180000Y-13875000D02*
G75*
G02*
X14000000Y-13875000I-90000J0D01*
G01*
X14180000Y-13875000D02*
X14180000Y-13825000D01*
X14180000Y-13825000D02*
G75*
G03*
X14000000Y-13825000I-90000J0D01*
G01*
D15*
X14000000Y-16360000D02*
X14180000Y-16540000D01*
X14180000Y-16360000D02*
X14000000Y-16540000D01*
X14153640Y-16513640D02*
X14153640Y-16386360D01*
X14026360Y-16386360D01*
X14026360Y-16513640D01*
X14153640Y-16513640D01*
D10*
X14000000Y-16425000D02*
X14000000Y-16475000D01*
X14180000Y-16475000D02*
G75*
G02*
X14000000Y-16475000I-90000J0D01*
G01*
X14180000Y-16475000D02*
X14180000Y-16425000D01*
X14180000Y-16425000D02*
G75*
G03*
X14000000Y-16425000I-90000J0D01*
G01*
D15*
X15520000Y-13760000D02*
X15700000Y-13940000D01*
X15700000Y-13760000D02*
X15520000Y-13940000D01*
X15673640Y-13913640D02*
X15673640Y-13786360D01*
X15546360Y-13786360D01*
X15546360Y-13913640D01*
X15673640Y-13913640D01*
D10*
X15520000Y-13827501D02*
X15520000Y-13872499D01*
X15700000Y-13872499D02*
G75*
G02*
X15520000Y-13872499I-90000J0D01*
G01*
X15700000Y-13872499D02*
X15700000Y-13827501D01*
X15700000Y-13827501D02*
G75*
G03*
X15520000Y-13827501I-90000J0D01*
G01*
D15*
X15520000Y-16360000D02*
X15700000Y-16540000D01*
X15700000Y-16360000D02*
X15520000Y-16540000D01*
X15673640Y-16513640D02*
X15673640Y-16386360D01*
X15546360Y-16386360D01*
X15546360Y-16513640D01*
X15673640Y-16513640D01*
D10*
X15520000Y-16427501D02*
X15520000Y-16472499D01*
X15700000Y-16472499D02*
G75*
G02*
X15520000Y-16472499I-90000J0D01*
G01*
X15700000Y-16472499D02*
X15700000Y-16427501D01*
X15700000Y-16427501D02*
G75*
G03*
X15520000Y-16427501I-90000J0D01*
G01*
D15*
X16400000Y-13760000D02*
X16580000Y-13940000D01*
X16580000Y-13760000D02*
X16400000Y-13940000D01*
X16553640Y-13913640D02*
X16553640Y-13786360D01*
X16426360Y-13786360D01*
X16426360Y-13913640D01*
X16553640Y-13913640D01*
D10*
X16400000Y-13825000D02*
X16400000Y-13875000D01*
X16580000Y-13875000D02*
G75*
G02*
X16400000Y-13875000I-90000J0D01*
G01*
X16580000Y-13875000D02*
X16580000Y-13825000D01*
X16580000Y-13825000D02*
G75*
G03*
X16400000Y-13825000I-90000J0D01*
G01*
D15*
X16400000Y-16360000D02*
X16580000Y-16540000D01*
X16580000Y-16360000D02*
X16400000Y-16540000D01*
X16553640Y-16513640D02*
X16553640Y-16386360D01*
X16426360Y-16386360D01*
X16426360Y-16513640D01*
X16553640Y-16513640D01*
D10*
X16400000Y-16425000D02*
X16400000Y-16475000D01*
X16580000Y-16475000D02*
G75*
G02*
X16400000Y-16475000I-90000J0D01*
G01*
X16580000Y-16475000D02*
X16580000Y-16425000D01*
X16580000Y-16425000D02*
G75*
G03*
X16400000Y-16425000I-90000J0D01*
G01*
D15*
X17920000Y-13760000D02*
X18100000Y-13940000D01*
X18100000Y-13760000D02*
X17920000Y-13940000D01*
X18073640Y-13913640D02*
X18073640Y-13786360D01*
X17946360Y-13786360D01*
X17946360Y-13913640D01*
X18073640Y-13913640D01*
D10*
X17920000Y-13827501D02*
X17920000Y-13872499D01*
X18100000Y-13872499D02*
G75*
G02*
X17920000Y-13872499I-90000J0D01*
G01*
X18100000Y-13872499D02*
X18100000Y-13827501D01*
X18100000Y-13827501D02*
G75*
G03*
X17920000Y-13827501I-90000J0D01*
G01*
D15*
X17920000Y-16360000D02*
X18100000Y-16540000D01*
X18100000Y-16360000D02*
X17920000Y-16540000D01*
X18073640Y-16513640D02*
X18073640Y-16386360D01*
X17946360Y-16386360D01*
X17946360Y-16513640D01*
X18073640Y-16513640D01*
D10*
X17920000Y-16427501D02*
X17920000Y-16472499D01*
X18100000Y-16472499D02*
G75*
G02*
X17920000Y-16472499I-90000J0D01*
G01*
X18100000Y-16472499D02*
X18100000Y-16427501D01*
X18100000Y-16427501D02*
G75*
G03*
X17920000Y-16427501I-90000J0D01*
G01*
D15*
X18402000Y-4543000D02*
X18582000Y-4723000D01*
X18582000Y-4543000D02*
X18402000Y-4723000D01*
X18555640Y-4696640D02*
X18555640Y-4569360D01*
X18428360Y-4569360D01*
X18428360Y-4696640D01*
X18555640Y-4696640D01*
X18800000Y-13760000D02*
X18980000Y-13940000D01*
X18980000Y-13760000D02*
X18800000Y-13940000D01*
X18953640Y-13913640D02*
X18953640Y-13786360D01*
X18826360Y-13786360D01*
X18826360Y-13913640D01*
X18953640Y-13913640D01*
D10*
X18800000Y-13825000D02*
X18800000Y-13875000D01*
X18980000Y-13875000D02*
G75*
G02*
X18800000Y-13875000I-90000J0D01*
G01*
X18980000Y-13875000D02*
X18980000Y-13825000D01*
X18980000Y-13825000D02*
G75*
G03*
X18800000Y-13825000I-90000J0D01*
G01*
D15*
X18800000Y-16360000D02*
X18980000Y-16540000D01*
X18980000Y-16360000D02*
X18800000Y-16540000D01*
X18953640Y-16513640D02*
X18953640Y-16386360D01*
X18826360Y-16386360D01*
X18826360Y-16513640D01*
X18953640Y-16513640D01*
D10*
X18800000Y-16425000D02*
X18800000Y-16475000D01*
X18980000Y-16475000D02*
G75*
G02*
X18800000Y-16475000I-90000J0D01*
G01*
X18980000Y-16475000D02*
X18980000Y-16425000D01*
X18980000Y-16425000D02*
G75*
G03*
X18800000Y-16425000I-90000J0D01*
G01*
D15*
X19291000Y-4543000D02*
X19471000Y-4723000D01*
X19471000Y-4543000D02*
X19291000Y-4723000D01*
X19444640Y-4696640D02*
X19444640Y-4569360D01*
X19317360Y-4569360D01*
X19317360Y-4696640D01*
X19444640Y-4696640D01*
X19672000Y-3655000D02*
X19852000Y-3835000D01*
X19852000Y-3655000D02*
X19672000Y-3835000D01*
X19825640Y-3808640D02*
X19825640Y-3681360D01*
X19698360Y-3681360D01*
X19698360Y-3808640D01*
X19825640Y-3808640D01*
X20320000Y-13760000D02*
X20500000Y-13940000D01*
X20500000Y-13760000D02*
X20320000Y-13940000D01*
X20473640Y-13913640D02*
X20473640Y-13786360D01*
X20346360Y-13786360D01*
X20346360Y-13913640D01*
X20473640Y-13913640D01*
D10*
X20320000Y-13827501D02*
X20320000Y-13872499D01*
X20500000Y-13872499D02*
G75*
G02*
X20320000Y-13872499I-90000J0D01*
G01*
X20500000Y-13872499D02*
X20500000Y-13827501D01*
X20500000Y-13827501D02*
G75*
G03*
X20320000Y-13827501I-90000J0D01*
G01*
D15*
X20320000Y-16360000D02*
X20500000Y-16540000D01*
X20500000Y-16360000D02*
X20320000Y-16540000D01*
X20473640Y-16513640D02*
X20473640Y-16386360D01*
X20346360Y-16386360D01*
X20346360Y-16513640D01*
X20473640Y-16513640D01*
D10*
X20320000Y-16427501D02*
X20320000Y-16472499D01*
X20500000Y-16472499D02*
G75*
G02*
X20320000Y-16472499I-90000J0D01*
G01*
X20500000Y-16472499D02*
X20500000Y-16427501D01*
X20500000Y-16427501D02*
G75*
G03*
X20320000Y-16427501I-90000J0D01*
G01*
D15*
X21200000Y-13760000D02*
X21380000Y-13940000D01*
X21380000Y-13760000D02*
X21200000Y-13940000D01*
X21353640Y-13913640D02*
X21353640Y-13786360D01*
X21226360Y-13786360D01*
X21226360Y-13913640D01*
X21353640Y-13913640D01*
D10*
X21200000Y-13825000D02*
X21200000Y-13875000D01*
X21380000Y-13875000D02*
G75*
G02*
X21200000Y-13875000I-90000J0D01*
G01*
X21380000Y-13875000D02*
X21380000Y-13825000D01*
X21380000Y-13825000D02*
G75*
G03*
X21200000Y-13825000I-90000J0D01*
G01*
D15*
X21200000Y-16360000D02*
X21380000Y-16540000D01*
X21380000Y-16360000D02*
X21200000Y-16540000D01*
X21353640Y-16513640D02*
X21353640Y-16386360D01*
X21226360Y-16386360D01*
X21226360Y-16513640D01*
X21353640Y-16513640D01*
D10*
X21200000Y-16425000D02*
X21200000Y-16475000D01*
X21380000Y-16475000D02*
G75*
G02*
X21200000Y-16475000I-90000J0D01*
G01*
X21380000Y-16475000D02*
X21380000Y-16425000D01*
X21380000Y-16425000D02*
G75*
G03*
X21200000Y-16425000I-90000J0D01*
G01*
D15*
X22720000Y-6060000D02*
X22900000Y-6240000D01*
X22900000Y-6060000D02*
X22720000Y-6240000D01*
X22873640Y-6213640D02*
X22873640Y-6086360D01*
X22746360Y-6086360D01*
X22746360Y-6213640D01*
X22873640Y-6213640D01*
D10*
X22720000Y-6127501D02*
X22720000Y-6172499D01*
X22900000Y-6172499D02*
G75*
G02*
X22720000Y-6172499I-90000J0D01*
G01*
X22900000Y-6172499D02*
X22900000Y-6127501D01*
X22900000Y-6127501D02*
G75*
G03*
X22720000Y-6127501I-90000J0D01*
G01*
D15*
X22720000Y-13760000D02*
X22900000Y-13940000D01*
X22900000Y-13760000D02*
X22720000Y-13940000D01*
X22873640Y-13913640D02*
X22873640Y-13786360D01*
X22746360Y-13786360D01*
X22746360Y-13913640D01*
X22873640Y-13913640D01*
D10*
X22720000Y-13827501D02*
X22720000Y-13872499D01*
X22900000Y-13872499D02*
G75*
G02*
X22720000Y-13872499I-90000J0D01*
G01*
X22900000Y-13872499D02*
X22900000Y-13827501D01*
X22900000Y-13827501D02*
G75*
G03*
X22720000Y-13827501I-90000J0D01*
G01*
D15*
X22720000Y-16360000D02*
X22900000Y-16540000D01*
X22900000Y-16360000D02*
X22720000Y-16540000D01*
X22873640Y-16513640D02*
X22873640Y-16386360D01*
X22746360Y-16386360D01*
X22746360Y-16513640D01*
X22873640Y-16513640D01*
D10*
X22720000Y-16427501D02*
X22720000Y-16472499D01*
X22900000Y-16472499D02*
G75*
G02*
X22720000Y-16472499I-90000J0D01*
G01*
X22900000Y-16472499D02*
X22900000Y-16427501D01*
X22900000Y-16427501D02*
G75*
G03*
X22720000Y-16427501I-90000J0D01*
G01*
D15*
X23600000Y-6060000D02*
X23780000Y-6240000D01*
X23780000Y-6060000D02*
X23600000Y-6240000D01*
X23753640Y-6213640D02*
X23753640Y-6086360D01*
X23626360Y-6086360D01*
X23626360Y-6213640D01*
X23753640Y-6213640D01*
D10*
X23600000Y-6125000D02*
X23600000Y-6175000D01*
X23780000Y-6175000D02*
G75*
G02*
X23600000Y-6175000I-90000J0D01*
G01*
X23780000Y-6175000D02*
X23780000Y-6125000D01*
X23780000Y-6125000D02*
G75*
G03*
X23600000Y-6125000I-90000J0D01*
G01*
D15*
X23600000Y-13760000D02*
X23780000Y-13940000D01*
X23780000Y-13760000D02*
X23600000Y-13940000D01*
X23753640Y-13913640D02*
X23753640Y-13786360D01*
X23626360Y-13786360D01*
X23626360Y-13913640D01*
X23753640Y-13913640D01*
D10*
X23600000Y-13825000D02*
X23600000Y-13875000D01*
X23780000Y-13875000D02*
G75*
G02*
X23600000Y-13875000I-90000J0D01*
G01*
X23780000Y-13875000D02*
X23780000Y-13825000D01*
X23780000Y-13825000D02*
G75*
G03*
X23600000Y-13825000I-90000J0D01*
G01*
D15*
X23600000Y-16360000D02*
X23780000Y-16540000D01*
X23780000Y-16360000D02*
X23600000Y-16540000D01*
X23753640Y-16513640D02*
X23753640Y-16386360D01*
X23626360Y-16386360D01*
X23626360Y-16513640D01*
X23753640Y-16513640D01*
D10*
X23600000Y-16425000D02*
X23600000Y-16475000D01*
X23780000Y-16475000D02*
G75*
G02*
X23600000Y-16475000I-90000J0D01*
G01*
X23780000Y-16475000D02*
X23780000Y-16425000D01*
X23780000Y-16425000D02*
G75*
G03*
X23600000Y-16425000I-90000J0D01*
G01*
D11*
X5855777Y-17816484D02*
X5855777Y-17616484D01*
X5855777Y-17616484D02*
X5903396Y-17616484D01*
X5903396Y-17616484D02*
X5931967Y-17626008D01*
X5931967Y-17626008D02*
X5951015Y-17645055D01*
X5951015Y-17645055D02*
X5960539Y-17664103D01*
X5960539Y-17664103D02*
X5970062Y-17702198D01*
X5970062Y-17702198D02*
X5970062Y-17730770D01*
X5970062Y-17730770D02*
X5960539Y-17768865D01*
X5960539Y-17768865D02*
X5951015Y-17787912D01*
X5951015Y-17787912D02*
X5931967Y-17806960D01*
X5931967Y-17806960D02*
X5903396Y-17816484D01*
X5903396Y-17816484D02*
X5855777Y-17816484D01*
X6055777Y-17816484D02*
X6055777Y-17683150D01*
X6055777Y-17721246D02*
X6065301Y-17702198D01*
X6065301Y-17702198D02*
X6074824Y-17692674D01*
X6074824Y-17692674D02*
X6093872Y-17683150D01*
X6093872Y-17683150D02*
X6112920Y-17683150D01*
X6179586Y-17816484D02*
X6179586Y-17683150D01*
X6179586Y-17616484D02*
X6170062Y-17626008D01*
X6170062Y-17626008D02*
X6179586Y-17635531D01*
X6179586Y-17635531D02*
X6189110Y-17626008D01*
X6189110Y-17626008D02*
X6179586Y-17616484D01*
X6179586Y-17616484D02*
X6179586Y-17635531D01*
X6303396Y-17816484D02*
X6284348Y-17806960D01*
X6284348Y-17806960D02*
X6274824Y-17787912D01*
X6274824Y-17787912D02*
X6274824Y-17616484D01*
X6408158Y-17816484D02*
X6389110Y-17806960D01*
X6389110Y-17806960D02*
X6379586Y-17787912D01*
X6379586Y-17787912D02*
X6379586Y-17616484D01*
X6636729Y-17816484D02*
X6636729Y-17616484D01*
X6636729Y-17616484D02*
X6703396Y-17759341D01*
X6703396Y-17759341D02*
X6770062Y-17616484D01*
X6770062Y-17616484D02*
X6770062Y-17816484D01*
X6951015Y-17816484D02*
X6951015Y-17711722D01*
X6951015Y-17711722D02*
X6941491Y-17692674D01*
X6941491Y-17692674D02*
X6922443Y-17683150D01*
X6922443Y-17683150D02*
X6884348Y-17683150D01*
X6884348Y-17683150D02*
X6865301Y-17692674D01*
X6951015Y-17806960D02*
X6931967Y-17816484D01*
X6931967Y-17816484D02*
X6884348Y-17816484D01*
X6884348Y-17816484D02*
X6865301Y-17806960D01*
X6865301Y-17806960D02*
X6855777Y-17787912D01*
X6855777Y-17787912D02*
X6855777Y-17768865D01*
X6855777Y-17768865D02*
X6865301Y-17749817D01*
X6865301Y-17749817D02*
X6884348Y-17740293D01*
X6884348Y-17740293D02*
X6931967Y-17740293D01*
X6931967Y-17740293D02*
X6951015Y-17730770D01*
X7046253Y-17683150D02*
X7046253Y-17883150D01*
X7046253Y-17692674D02*
X7065301Y-17683150D01*
X7065301Y-17683150D02*
X7103396Y-17683150D01*
X7103396Y-17683150D02*
X7122443Y-17692674D01*
X7122443Y-17692674D02*
X7131967Y-17702198D01*
X7131967Y-17702198D02*
X7141491Y-17721246D01*
X7141491Y-17721246D02*
X7141491Y-17778389D01*
X7141491Y-17778389D02*
X7131967Y-17797436D01*
X7131967Y-17797436D02*
X7122443Y-17806960D01*
X7122443Y-17806960D02*
X7103396Y-17816484D01*
X7103396Y-17816484D02*
X7065301Y-17816484D01*
X7065301Y-17816484D02*
X7046253Y-17806960D01*
X7227205Y-17797436D02*
X7236729Y-17806960D01*
X7236729Y-17806960D02*
X7227205Y-17816484D01*
X7227205Y-17816484D02*
X7217682Y-17806960D01*
X7217682Y-17806960D02*
X7227205Y-17797436D01*
X7227205Y-17797436D02*
X7227205Y-17816484D01*
X7227205Y-17692674D02*
X7236729Y-17702198D01*
X7236729Y-17702198D02*
X7227205Y-17711722D01*
X7227205Y-17711722D02*
X7217682Y-17702198D01*
X7217682Y-17702198D02*
X7227205Y-17692674D01*
X7227205Y-17692674D02*
X7227205Y-17711722D01*
D10*
X5565000Y-18130000D02*
X5595000Y-18160000D01*
X5595000Y-18130000D02*
X5565000Y-18160000D01*
D11*
X5893872Y-18036484D02*
X5912920Y-18036484D01*
X5912920Y-18036484D02*
X5931967Y-18046008D01*
X5931967Y-18046008D02*
X5941491Y-18055531D01*
X5941491Y-18055531D02*
X5951015Y-18074579D01*
X5951015Y-18074579D02*
X5960539Y-18112674D01*
X5960539Y-18112674D02*
X5960539Y-18160293D01*
X5960539Y-18160293D02*
X5951015Y-18198389D01*
X5951015Y-18198389D02*
X5941491Y-18217436D01*
X5941491Y-18217436D02*
X5931967Y-18226960D01*
X5931967Y-18226960D02*
X5912920Y-18236484D01*
X5912920Y-18236484D02*
X5893872Y-18236484D01*
X5893872Y-18236484D02*
X5874824Y-18226960D01*
X5874824Y-18226960D02*
X5865301Y-18217436D01*
X5865301Y-18217436D02*
X5855777Y-18198389D01*
X5855777Y-18198389D02*
X5846253Y-18160293D01*
X5846253Y-18160293D02*
X5846253Y-18112674D01*
X5846253Y-18112674D02*
X5855777Y-18074579D01*
X5855777Y-18074579D02*
X5865301Y-18055531D01*
X5865301Y-18055531D02*
X5874824Y-18046008D01*
X5874824Y-18046008D02*
X5893872Y-18036484D01*
X6046253Y-18217436D02*
X6055777Y-18226960D01*
X6055777Y-18226960D02*
X6046253Y-18236484D01*
X6046253Y-18236484D02*
X6036729Y-18226960D01*
X6036729Y-18226960D02*
X6046253Y-18217436D01*
X6046253Y-18217436D02*
X6046253Y-18236484D01*
X6122443Y-18036484D02*
X6246253Y-18036484D01*
X6246253Y-18036484D02*
X6179586Y-18112674D01*
X6179586Y-18112674D02*
X6208158Y-18112674D01*
X6208158Y-18112674D02*
X6227205Y-18122198D01*
X6227205Y-18122198D02*
X6236729Y-18131722D01*
X6236729Y-18131722D02*
X6246253Y-18150770D01*
X6246253Y-18150770D02*
X6246253Y-18198389D01*
X6246253Y-18198389D02*
X6236729Y-18217436D01*
X6236729Y-18217436D02*
X6227205Y-18226960D01*
X6227205Y-18226960D02*
X6208158Y-18236484D01*
X6208158Y-18236484D02*
X6151015Y-18236484D01*
X6151015Y-18236484D02*
X6131967Y-18226960D01*
X6131967Y-18226960D02*
X6122443Y-18217436D01*
X6370062Y-18036484D02*
X6389110Y-18036484D01*
X6389110Y-18036484D02*
X6408158Y-18046008D01*
X6408158Y-18046008D02*
X6417682Y-18055531D01*
X6417682Y-18055531D02*
X6427205Y-18074579D01*
X6427205Y-18074579D02*
X6436729Y-18112674D01*
X6436729Y-18112674D02*
X6436729Y-18160293D01*
X6436729Y-18160293D02*
X6427205Y-18198389D01*
X6427205Y-18198389D02*
X6417682Y-18217436D01*
X6417682Y-18217436D02*
X6408158Y-18226960D01*
X6408158Y-18226960D02*
X6389110Y-18236484D01*
X6389110Y-18236484D02*
X6370062Y-18236484D01*
X6370062Y-18236484D02*
X6351015Y-18226960D01*
X6351015Y-18226960D02*
X6341491Y-18217436D01*
X6341491Y-18217436D02*
X6331967Y-18198389D01*
X6331967Y-18198389D02*
X6322443Y-18160293D01*
X6322443Y-18160293D02*
X6322443Y-18112674D01*
X6322443Y-18112674D02*
X6331967Y-18074579D01*
X6331967Y-18074579D02*
X6341491Y-18055531D01*
X6341491Y-18055531D02*
X6351015Y-18046008D01*
X6351015Y-18046008D02*
X6370062Y-18036484D01*
X6560539Y-18036484D02*
X6579586Y-18036484D01*
X6579586Y-18036484D02*
X6598634Y-18046008D01*
X6598634Y-18046008D02*
X6608158Y-18055531D01*
X6608158Y-18055531D02*
X6617682Y-18074579D01*
X6617682Y-18074579D02*
X6627205Y-18112674D01*
X6627205Y-18112674D02*
X6627205Y-18160293D01*
X6627205Y-18160293D02*
X6617682Y-18198389D01*
X6617682Y-18198389D02*
X6608158Y-18217436D01*
X6608158Y-18217436D02*
X6598634Y-18226960D01*
X6598634Y-18226960D02*
X6579586Y-18236484D01*
X6579586Y-18236484D02*
X6560539Y-18236484D01*
X6560539Y-18236484D02*
X6541491Y-18226960D01*
X6541491Y-18226960D02*
X6531967Y-18217436D01*
X6531967Y-18217436D02*
X6522443Y-18198389D01*
X6522443Y-18198389D02*
X6512920Y-18160293D01*
X6512920Y-18160293D02*
X6512920Y-18112674D01*
X6512920Y-18112674D02*
X6522443Y-18074579D01*
X6522443Y-18074579D02*
X6531967Y-18055531D01*
X6531967Y-18055531D02*
X6541491Y-18046008D01*
X6541491Y-18046008D02*
X6560539Y-18036484D01*
X6712920Y-18236484D02*
X6712920Y-18103150D01*
X6712920Y-18122198D02*
X6722443Y-18112674D01*
X6722443Y-18112674D02*
X6741491Y-18103150D01*
X6741491Y-18103150D02*
X6770063Y-18103150D01*
X6770063Y-18103150D02*
X6789110Y-18112674D01*
X6789110Y-18112674D02*
X6798634Y-18131722D01*
X6798634Y-18131722D02*
X6798634Y-18236484D01*
X6798634Y-18131722D02*
X6808158Y-18112674D01*
X6808158Y-18112674D02*
X6827205Y-18103150D01*
X6827205Y-18103150D02*
X6855777Y-18103150D01*
X6855777Y-18103150D02*
X6874824Y-18112674D01*
X6874824Y-18112674D02*
X6884348Y-18131722D01*
X6884348Y-18131722D02*
X6884348Y-18236484D01*
X6979586Y-18236484D02*
X6979586Y-18103150D01*
X6979586Y-18122198D02*
X6989110Y-18112674D01*
X6989110Y-18112674D02*
X7008158Y-18103150D01*
X7008158Y-18103150D02*
X7036729Y-18103150D01*
X7036729Y-18103150D02*
X7055777Y-18112674D01*
X7055777Y-18112674D02*
X7065301Y-18131722D01*
X7065301Y-18131722D02*
X7065301Y-18236484D01*
X7065301Y-18131722D02*
X7074824Y-18112674D01*
X7074824Y-18112674D02*
X7093872Y-18103150D01*
X7093872Y-18103150D02*
X7122443Y-18103150D01*
X7122443Y-18103150D02*
X7141491Y-18112674D01*
X7141491Y-18112674D02*
X7151015Y-18131722D01*
X7151015Y-18131722D02*
X7151015Y-18236484D01*
X7541491Y-18026960D02*
X7370063Y-18284103D01*
X7798634Y-18036484D02*
X7817682Y-18036484D01*
X7817682Y-18036484D02*
X7836729Y-18046008D01*
X7836729Y-18046008D02*
X7846253Y-18055531D01*
X7846253Y-18055531D02*
X7855777Y-18074579D01*
X7855777Y-18074579D02*
X7865301Y-18112674D01*
X7865301Y-18112674D02*
X7865301Y-18160293D01*
X7865301Y-18160293D02*
X7855777Y-18198389D01*
X7855777Y-18198389D02*
X7846253Y-18217436D01*
X7846253Y-18217436D02*
X7836729Y-18226960D01*
X7836729Y-18226960D02*
X7817682Y-18236484D01*
X7817682Y-18236484D02*
X7798634Y-18236484D01*
X7798634Y-18236484D02*
X7779586Y-18226960D01*
X7779586Y-18226960D02*
X7770063Y-18217436D01*
X7770063Y-18217436D02*
X7760539Y-18198389D01*
X7760539Y-18198389D02*
X7751015Y-18160293D01*
X7751015Y-18160293D02*
X7751015Y-18112674D01*
X7751015Y-18112674D02*
X7760539Y-18074579D01*
X7760539Y-18074579D02*
X7770063Y-18055531D01*
X7770063Y-18055531D02*
X7779586Y-18046008D01*
X7779586Y-18046008D02*
X7798634Y-18036484D01*
X7951015Y-18217436D02*
X7960539Y-18226960D01*
X7960539Y-18226960D02*
X7951015Y-18236484D01*
X7951015Y-18236484D02*
X7941491Y-18226960D01*
X7941491Y-18226960D02*
X7951015Y-18217436D01*
X7951015Y-18217436D02*
X7951015Y-18236484D01*
X8084348Y-18036484D02*
X8103396Y-18036484D01*
X8103396Y-18036484D02*
X8122444Y-18046008D01*
X8122444Y-18046008D02*
X8131967Y-18055531D01*
X8131967Y-18055531D02*
X8141491Y-18074579D01*
X8141491Y-18074579D02*
X8151015Y-18112674D01*
X8151015Y-18112674D02*
X8151015Y-18160293D01*
X8151015Y-18160293D02*
X8141491Y-18198389D01*
X8141491Y-18198389D02*
X8131967Y-18217436D01*
X8131967Y-18217436D02*
X8122444Y-18226960D01*
X8122444Y-18226960D02*
X8103396Y-18236484D01*
X8103396Y-18236484D02*
X8084348Y-18236484D01*
X8084348Y-18236484D02*
X8065301Y-18226960D01*
X8065301Y-18226960D02*
X8055777Y-18217436D01*
X8055777Y-18217436D02*
X8046253Y-18198389D01*
X8046253Y-18198389D02*
X8036729Y-18160293D01*
X8036729Y-18160293D02*
X8036729Y-18112674D01*
X8036729Y-18112674D02*
X8046253Y-18074579D01*
X8046253Y-18074579D02*
X8055777Y-18055531D01*
X8055777Y-18055531D02*
X8065301Y-18046008D01*
X8065301Y-18046008D02*
X8084348Y-18036484D01*
X8341491Y-18236484D02*
X8227206Y-18236484D01*
X8284348Y-18236484D02*
X8284348Y-18036484D01*
X8284348Y-18036484D02*
X8265301Y-18065055D01*
X8265301Y-18065055D02*
X8246253Y-18084103D01*
X8246253Y-18084103D02*
X8227206Y-18093627D01*
X8531968Y-18236484D02*
X8417682Y-18236484D01*
X8474825Y-18236484D02*
X8474825Y-18036484D01*
X8474825Y-18036484D02*
X8455777Y-18065055D01*
X8455777Y-18065055D02*
X8436729Y-18084103D01*
X8436729Y-18084103D02*
X8417682Y-18093627D01*
X8646253Y-18122198D02*
X8627206Y-18112674D01*
X8627206Y-18112674D02*
X8617682Y-18103150D01*
X8617682Y-18103150D02*
X8608158Y-18084103D01*
X8608158Y-18084103D02*
X8608158Y-18074579D01*
X8608158Y-18074579D02*
X8617682Y-18055531D01*
X8617682Y-18055531D02*
X8627206Y-18046008D01*
X8627206Y-18046008D02*
X8646253Y-18036484D01*
X8646253Y-18036484D02*
X8684349Y-18036484D01*
X8684349Y-18036484D02*
X8703396Y-18046008D01*
X8703396Y-18046008D02*
X8712920Y-18055531D01*
X8712920Y-18055531D02*
X8722444Y-18074579D01*
X8722444Y-18074579D02*
X8722444Y-18084103D01*
X8722444Y-18084103D02*
X8712920Y-18103150D01*
X8712920Y-18103150D02*
X8703396Y-18112674D01*
X8703396Y-18112674D02*
X8684349Y-18122198D01*
X8684349Y-18122198D02*
X8646253Y-18122198D01*
X8646253Y-18122198D02*
X8627206Y-18131722D01*
X8627206Y-18131722D02*
X8617682Y-18141246D01*
X8617682Y-18141246D02*
X8608158Y-18160293D01*
X8608158Y-18160293D02*
X8608158Y-18198389D01*
X8608158Y-18198389D02*
X8617682Y-18217436D01*
X8617682Y-18217436D02*
X8627206Y-18226960D01*
X8627206Y-18226960D02*
X8646253Y-18236484D01*
X8646253Y-18236484D02*
X8684349Y-18236484D01*
X8684349Y-18236484D02*
X8703396Y-18226960D01*
X8703396Y-18226960D02*
X8712920Y-18217436D01*
X8712920Y-18217436D02*
X8722444Y-18198389D01*
X8722444Y-18198389D02*
X8722444Y-18160293D01*
X8722444Y-18160293D02*
X8712920Y-18141246D01*
X8712920Y-18141246D02*
X8703396Y-18131722D01*
X8703396Y-18131722D02*
X8684349Y-18122198D01*
X8798634Y-18036484D02*
X8798634Y-18074579D01*
X8874825Y-18036484D02*
X8874825Y-18074579D01*
X9170063Y-18312674D02*
X9160539Y-18303150D01*
X9160539Y-18303150D02*
X9141491Y-18274579D01*
X9141491Y-18274579D02*
X9131968Y-18255531D01*
X9131968Y-18255531D02*
X9122444Y-18226960D01*
X9122444Y-18226960D02*
X9112920Y-18179341D01*
X9112920Y-18179341D02*
X9112920Y-18141246D01*
X9112920Y-18141246D02*
X9122444Y-18093627D01*
X9122444Y-18093627D02*
X9131968Y-18065055D01*
X9131968Y-18065055D02*
X9141491Y-18046008D01*
X9141491Y-18046008D02*
X9160539Y-18017436D01*
X9160539Y-18017436D02*
X9170063Y-18007912D01*
X9236730Y-18055531D02*
X9246253Y-18046008D01*
X9246253Y-18046008D02*
X9265301Y-18036484D01*
X9265301Y-18036484D02*
X9312920Y-18036484D01*
X9312920Y-18036484D02*
X9331968Y-18046008D01*
X9331968Y-18046008D02*
X9341491Y-18055531D01*
X9341491Y-18055531D02*
X9351015Y-18074579D01*
X9351015Y-18074579D02*
X9351015Y-18093627D01*
X9351015Y-18093627D02*
X9341491Y-18122198D01*
X9341491Y-18122198D02*
X9227206Y-18236484D01*
X9227206Y-18236484D02*
X9351015Y-18236484D01*
X9522444Y-18036484D02*
X9484349Y-18036484D01*
X9484349Y-18036484D02*
X9465301Y-18046008D01*
X9465301Y-18046008D02*
X9455777Y-18055531D01*
X9455777Y-18055531D02*
X9436730Y-18084103D01*
X9436730Y-18084103D02*
X9427206Y-18122198D01*
X9427206Y-18122198D02*
X9427206Y-18198389D01*
X9427206Y-18198389D02*
X9436730Y-18217436D01*
X9436730Y-18217436D02*
X9446253Y-18226960D01*
X9446253Y-18226960D02*
X9465301Y-18236484D01*
X9465301Y-18236484D02*
X9503396Y-18236484D01*
X9503396Y-18236484D02*
X9522444Y-18226960D01*
X9522444Y-18226960D02*
X9531968Y-18217436D01*
X9531968Y-18217436D02*
X9541491Y-18198389D01*
X9541491Y-18198389D02*
X9541491Y-18150770D01*
X9541491Y-18150770D02*
X9531968Y-18131722D01*
X9531968Y-18131722D02*
X9522444Y-18122198D01*
X9522444Y-18122198D02*
X9503396Y-18112674D01*
X9503396Y-18112674D02*
X9465301Y-18112674D01*
X9465301Y-18112674D02*
X9446253Y-18122198D01*
X9446253Y-18122198D02*
X9436730Y-18131722D01*
X9436730Y-18131722D02*
X9427206Y-18150770D01*
X9617682Y-18055531D02*
X9627206Y-18046008D01*
X9627206Y-18046008D02*
X9646253Y-18036484D01*
X9646253Y-18036484D02*
X9693872Y-18036484D01*
X9693872Y-18036484D02*
X9712920Y-18046008D01*
X9712920Y-18046008D02*
X9722444Y-18055531D01*
X9722444Y-18055531D02*
X9731968Y-18074579D01*
X9731968Y-18074579D02*
X9731968Y-18093627D01*
X9731968Y-18093627D02*
X9722444Y-18122198D01*
X9722444Y-18122198D02*
X9608158Y-18236484D01*
X9608158Y-18236484D02*
X9731968Y-18236484D01*
X9970063Y-18236484D02*
X9970063Y-18036484D01*
X10055777Y-18236484D02*
X10055777Y-18131722D01*
X10055777Y-18131722D02*
X10046253Y-18112674D01*
X10046253Y-18112674D02*
X10027206Y-18103150D01*
X10027206Y-18103150D02*
X9998634Y-18103150D01*
X9998634Y-18103150D02*
X9979587Y-18112674D01*
X9979587Y-18112674D02*
X9970063Y-18122198D01*
X10179587Y-18236484D02*
X10160539Y-18226960D01*
X10160539Y-18226960D02*
X10151015Y-18217436D01*
X10151015Y-18217436D02*
X10141492Y-18198389D01*
X10141492Y-18198389D02*
X10141492Y-18141246D01*
X10141492Y-18141246D02*
X10151015Y-18122198D01*
X10151015Y-18122198D02*
X10160539Y-18112674D01*
X10160539Y-18112674D02*
X10179587Y-18103150D01*
X10179587Y-18103150D02*
X10208158Y-18103150D01*
X10208158Y-18103150D02*
X10227206Y-18112674D01*
X10227206Y-18112674D02*
X10236730Y-18122198D01*
X10236730Y-18122198D02*
X10246253Y-18141246D01*
X10246253Y-18141246D02*
X10246253Y-18198389D01*
X10246253Y-18198389D02*
X10236730Y-18217436D01*
X10236730Y-18217436D02*
X10227206Y-18226960D01*
X10227206Y-18226960D02*
X10208158Y-18236484D01*
X10208158Y-18236484D02*
X10179587Y-18236484D01*
X10360539Y-18236484D02*
X10341492Y-18226960D01*
X10341492Y-18226960D02*
X10331968Y-18207912D01*
X10331968Y-18207912D02*
X10331968Y-18036484D01*
X10512920Y-18226960D02*
X10493873Y-18236484D01*
X10493873Y-18236484D02*
X10455777Y-18236484D01*
X10455777Y-18236484D02*
X10436730Y-18226960D01*
X10436730Y-18226960D02*
X10427206Y-18207912D01*
X10427206Y-18207912D02*
X10427206Y-18131722D01*
X10427206Y-18131722D02*
X10436730Y-18112674D01*
X10436730Y-18112674D02*
X10455777Y-18103150D01*
X10455777Y-18103150D02*
X10493873Y-18103150D01*
X10493873Y-18103150D02*
X10512920Y-18112674D01*
X10512920Y-18112674D02*
X10522444Y-18131722D01*
X10522444Y-18131722D02*
X10522444Y-18150770D01*
X10522444Y-18150770D02*
X10427206Y-18169817D01*
X10598634Y-18226960D02*
X10617682Y-18236484D01*
X10617682Y-18236484D02*
X10655777Y-18236484D01*
X10655777Y-18236484D02*
X10674825Y-18226960D01*
X10674825Y-18226960D02*
X10684349Y-18207912D01*
X10684349Y-18207912D02*
X10684349Y-18198389D01*
X10684349Y-18198389D02*
X10674825Y-18179341D01*
X10674825Y-18179341D02*
X10655777Y-18169817D01*
X10655777Y-18169817D02*
X10627206Y-18169817D01*
X10627206Y-18169817D02*
X10608158Y-18160293D01*
X10608158Y-18160293D02*
X10598634Y-18141246D01*
X10598634Y-18141246D02*
X10598634Y-18131722D01*
X10598634Y-18131722D02*
X10608158Y-18112674D01*
X10608158Y-18112674D02*
X10627206Y-18103150D01*
X10627206Y-18103150D02*
X10655777Y-18103150D01*
X10655777Y-18103150D02*
X10674825Y-18112674D01*
X10751015Y-18312674D02*
X10760539Y-18303150D01*
X10760539Y-18303150D02*
X10779587Y-18274579D01*
X10779587Y-18274579D02*
X10789111Y-18255531D01*
X10789111Y-18255531D02*
X10798634Y-18226960D01*
X10798634Y-18226960D02*
X10808158Y-18179341D01*
X10808158Y-18179341D02*
X10808158Y-18141246D01*
X10808158Y-18141246D02*
X10798634Y-18093627D01*
X10798634Y-18093627D02*
X10789111Y-18065055D01*
X10789111Y-18065055D02*
X10779587Y-18046008D01*
X10779587Y-18046008D02*
X10760539Y-18017436D01*
X10760539Y-18017436D02*
X10751015Y-18007912D01*
D10*
X5595000Y-18409000D02*
G75*
G02*
X5535000Y-18409000I-30000J0D01*
G01*
X5535000Y-18409000D02*
G75*
G02*
X5595000Y-18409000I30000J0D01*
G01*
D11*
X5893872Y-18300484D02*
X5912920Y-18300484D01*
X5912920Y-18300484D02*
X5931967Y-18310008D01*
X5931967Y-18310008D02*
X5941491Y-18319531D01*
X5941491Y-18319531D02*
X5951015Y-18338579D01*
X5951015Y-18338579D02*
X5960539Y-18376674D01*
X5960539Y-18376674D02*
X5960539Y-18424293D01*
X5960539Y-18424293D02*
X5951015Y-18462389D01*
X5951015Y-18462389D02*
X5941491Y-18481436D01*
X5941491Y-18481436D02*
X5931967Y-18490960D01*
X5931967Y-18490960D02*
X5912920Y-18500484D01*
X5912920Y-18500484D02*
X5893872Y-18500484D01*
X5893872Y-18500484D02*
X5874824Y-18490960D01*
X5874824Y-18490960D02*
X5865301Y-18481436D01*
X5865301Y-18481436D02*
X5855777Y-18462389D01*
X5855777Y-18462389D02*
X5846253Y-18424293D01*
X5846253Y-18424293D02*
X5846253Y-18376674D01*
X5846253Y-18376674D02*
X5855777Y-18338579D01*
X5855777Y-18338579D02*
X5865301Y-18319531D01*
X5865301Y-18319531D02*
X5874824Y-18310008D01*
X5874824Y-18310008D02*
X5893872Y-18300484D01*
X6046253Y-18481436D02*
X6055777Y-18490960D01*
X6055777Y-18490960D02*
X6046253Y-18500484D01*
X6046253Y-18500484D02*
X6036729Y-18490960D01*
X6036729Y-18490960D02*
X6046253Y-18481436D01*
X6046253Y-18481436D02*
X6046253Y-18500484D01*
X6227205Y-18300484D02*
X6189110Y-18300484D01*
X6189110Y-18300484D02*
X6170062Y-18310008D01*
X6170062Y-18310008D02*
X6160539Y-18319531D01*
X6160539Y-18319531D02*
X6141491Y-18348103D01*
X6141491Y-18348103D02*
X6131967Y-18386198D01*
X6131967Y-18386198D02*
X6131967Y-18462389D01*
X6131967Y-18462389D02*
X6141491Y-18481436D01*
X6141491Y-18481436D02*
X6151015Y-18490960D01*
X6151015Y-18490960D02*
X6170062Y-18500484D01*
X6170062Y-18500484D02*
X6208158Y-18500484D01*
X6208158Y-18500484D02*
X6227205Y-18490960D01*
X6227205Y-18490960D02*
X6236729Y-18481436D01*
X6236729Y-18481436D02*
X6246253Y-18462389D01*
X6246253Y-18462389D02*
X6246253Y-18414770D01*
X6246253Y-18414770D02*
X6236729Y-18395722D01*
X6236729Y-18395722D02*
X6227205Y-18386198D01*
X6227205Y-18386198D02*
X6208158Y-18376674D01*
X6208158Y-18376674D02*
X6170062Y-18376674D01*
X6170062Y-18376674D02*
X6151015Y-18386198D01*
X6151015Y-18386198D02*
X6141491Y-18395722D01*
X6141491Y-18395722D02*
X6131967Y-18414770D01*
X6370062Y-18300484D02*
X6389110Y-18300484D01*
X6389110Y-18300484D02*
X6408158Y-18310008D01*
X6408158Y-18310008D02*
X6417682Y-18319531D01*
X6417682Y-18319531D02*
X6427205Y-18338579D01*
X6427205Y-18338579D02*
X6436729Y-18376674D01*
X6436729Y-18376674D02*
X6436729Y-18424293D01*
X6436729Y-18424293D02*
X6427205Y-18462389D01*
X6427205Y-18462389D02*
X6417682Y-18481436D01*
X6417682Y-18481436D02*
X6408158Y-18490960D01*
X6408158Y-18490960D02*
X6389110Y-18500484D01*
X6389110Y-18500484D02*
X6370062Y-18500484D01*
X6370062Y-18500484D02*
X6351015Y-18490960D01*
X6351015Y-18490960D02*
X6341491Y-18481436D01*
X6341491Y-18481436D02*
X6331967Y-18462389D01*
X6331967Y-18462389D02*
X6322443Y-18424293D01*
X6322443Y-18424293D02*
X6322443Y-18376674D01*
X6322443Y-18376674D02*
X6331967Y-18338579D01*
X6331967Y-18338579D02*
X6341491Y-18319531D01*
X6341491Y-18319531D02*
X6351015Y-18310008D01*
X6351015Y-18310008D02*
X6370062Y-18300484D01*
X6560539Y-18300484D02*
X6579586Y-18300484D01*
X6579586Y-18300484D02*
X6598634Y-18310008D01*
X6598634Y-18310008D02*
X6608158Y-18319531D01*
X6608158Y-18319531D02*
X6617682Y-18338579D01*
X6617682Y-18338579D02*
X6627205Y-18376674D01*
X6627205Y-18376674D02*
X6627205Y-18424293D01*
X6627205Y-18424293D02*
X6617682Y-18462389D01*
X6617682Y-18462389D02*
X6608158Y-18481436D01*
X6608158Y-18481436D02*
X6598634Y-18490960D01*
X6598634Y-18490960D02*
X6579586Y-18500484D01*
X6579586Y-18500484D02*
X6560539Y-18500484D01*
X6560539Y-18500484D02*
X6541491Y-18490960D01*
X6541491Y-18490960D02*
X6531967Y-18481436D01*
X6531967Y-18481436D02*
X6522443Y-18462389D01*
X6522443Y-18462389D02*
X6512920Y-18424293D01*
X6512920Y-18424293D02*
X6512920Y-18376674D01*
X6512920Y-18376674D02*
X6522443Y-18338579D01*
X6522443Y-18338579D02*
X6531967Y-18319531D01*
X6531967Y-18319531D02*
X6541491Y-18310008D01*
X6541491Y-18310008D02*
X6560539Y-18300484D01*
X6712920Y-18500484D02*
X6712920Y-18367150D01*
X6712920Y-18386198D02*
X6722443Y-18376674D01*
X6722443Y-18376674D02*
X6741491Y-18367150D01*
X6741491Y-18367150D02*
X6770063Y-18367150D01*
X6770063Y-18367150D02*
X6789110Y-18376674D01*
X6789110Y-18376674D02*
X6798634Y-18395722D01*
X6798634Y-18395722D02*
X6798634Y-18500484D01*
X6798634Y-18395722D02*
X6808158Y-18376674D01*
X6808158Y-18376674D02*
X6827205Y-18367150D01*
X6827205Y-18367150D02*
X6855777Y-18367150D01*
X6855777Y-18367150D02*
X6874824Y-18376674D01*
X6874824Y-18376674D02*
X6884348Y-18395722D01*
X6884348Y-18395722D02*
X6884348Y-18500484D01*
X6979586Y-18500484D02*
X6979586Y-18367150D01*
X6979586Y-18386198D02*
X6989110Y-18376674D01*
X6989110Y-18376674D02*
X7008158Y-18367150D01*
X7008158Y-18367150D02*
X7036729Y-18367150D01*
X7036729Y-18367150D02*
X7055777Y-18376674D01*
X7055777Y-18376674D02*
X7065301Y-18395722D01*
X7065301Y-18395722D02*
X7065301Y-18500484D01*
X7065301Y-18395722D02*
X7074824Y-18376674D01*
X7074824Y-18376674D02*
X7093872Y-18367150D01*
X7093872Y-18367150D02*
X7122443Y-18367150D01*
X7122443Y-18367150D02*
X7141491Y-18376674D01*
X7141491Y-18376674D02*
X7151015Y-18395722D01*
X7151015Y-18395722D02*
X7151015Y-18500484D01*
X7541491Y-18290960D02*
X7370063Y-18548103D01*
X7798634Y-18300484D02*
X7817682Y-18300484D01*
X7817682Y-18300484D02*
X7836729Y-18310008D01*
X7836729Y-18310008D02*
X7846253Y-18319531D01*
X7846253Y-18319531D02*
X7855777Y-18338579D01*
X7855777Y-18338579D02*
X7865301Y-18376674D01*
X7865301Y-18376674D02*
X7865301Y-18424293D01*
X7865301Y-18424293D02*
X7855777Y-18462389D01*
X7855777Y-18462389D02*
X7846253Y-18481436D01*
X7846253Y-18481436D02*
X7836729Y-18490960D01*
X7836729Y-18490960D02*
X7817682Y-18500484D01*
X7817682Y-18500484D02*
X7798634Y-18500484D01*
X7798634Y-18500484D02*
X7779586Y-18490960D01*
X7779586Y-18490960D02*
X7770063Y-18481436D01*
X7770063Y-18481436D02*
X7760539Y-18462389D01*
X7760539Y-18462389D02*
X7751015Y-18424293D01*
X7751015Y-18424293D02*
X7751015Y-18376674D01*
X7751015Y-18376674D02*
X7760539Y-18338579D01*
X7760539Y-18338579D02*
X7770063Y-18319531D01*
X7770063Y-18319531D02*
X7779586Y-18310008D01*
X7779586Y-18310008D02*
X7798634Y-18300484D01*
X7951015Y-18481436D02*
X7960539Y-18490960D01*
X7960539Y-18490960D02*
X7951015Y-18500484D01*
X7951015Y-18500484D02*
X7941491Y-18490960D01*
X7941491Y-18490960D02*
X7951015Y-18481436D01*
X7951015Y-18481436D02*
X7951015Y-18500484D01*
X8084348Y-18300484D02*
X8103396Y-18300484D01*
X8103396Y-18300484D02*
X8122444Y-18310008D01*
X8122444Y-18310008D02*
X8131967Y-18319531D01*
X8131967Y-18319531D02*
X8141491Y-18338579D01*
X8141491Y-18338579D02*
X8151015Y-18376674D01*
X8151015Y-18376674D02*
X8151015Y-18424293D01*
X8151015Y-18424293D02*
X8141491Y-18462389D01*
X8141491Y-18462389D02*
X8131967Y-18481436D01*
X8131967Y-18481436D02*
X8122444Y-18490960D01*
X8122444Y-18490960D02*
X8103396Y-18500484D01*
X8103396Y-18500484D02*
X8084348Y-18500484D01*
X8084348Y-18500484D02*
X8065301Y-18490960D01*
X8065301Y-18490960D02*
X8055777Y-18481436D01*
X8055777Y-18481436D02*
X8046253Y-18462389D01*
X8046253Y-18462389D02*
X8036729Y-18424293D01*
X8036729Y-18424293D02*
X8036729Y-18376674D01*
X8036729Y-18376674D02*
X8046253Y-18338579D01*
X8046253Y-18338579D02*
X8055777Y-18319531D01*
X8055777Y-18319531D02*
X8065301Y-18310008D01*
X8065301Y-18310008D02*
X8084348Y-18300484D01*
X8227206Y-18319531D02*
X8236729Y-18310008D01*
X8236729Y-18310008D02*
X8255777Y-18300484D01*
X8255777Y-18300484D02*
X8303396Y-18300484D01*
X8303396Y-18300484D02*
X8322444Y-18310008D01*
X8322444Y-18310008D02*
X8331967Y-18319531D01*
X8331967Y-18319531D02*
X8341491Y-18338579D01*
X8341491Y-18338579D02*
X8341491Y-18357627D01*
X8341491Y-18357627D02*
X8331967Y-18386198D01*
X8331967Y-18386198D02*
X8217682Y-18500484D01*
X8217682Y-18500484D02*
X8341491Y-18500484D01*
X8408158Y-18300484D02*
X8531968Y-18300484D01*
X8531968Y-18300484D02*
X8465301Y-18376674D01*
X8465301Y-18376674D02*
X8493872Y-18376674D01*
X8493872Y-18376674D02*
X8512920Y-18386198D01*
X8512920Y-18386198D02*
X8522444Y-18395722D01*
X8522444Y-18395722D02*
X8531968Y-18414770D01*
X8531968Y-18414770D02*
X8531968Y-18462389D01*
X8531968Y-18462389D02*
X8522444Y-18481436D01*
X8522444Y-18481436D02*
X8512920Y-18490960D01*
X8512920Y-18490960D02*
X8493872Y-18500484D01*
X8493872Y-18500484D02*
X8436729Y-18500484D01*
X8436729Y-18500484D02*
X8417682Y-18490960D01*
X8417682Y-18490960D02*
X8408158Y-18481436D01*
X8703396Y-18300484D02*
X8665301Y-18300484D01*
X8665301Y-18300484D02*
X8646253Y-18310008D01*
X8646253Y-18310008D02*
X8636729Y-18319531D01*
X8636729Y-18319531D02*
X8617682Y-18348103D01*
X8617682Y-18348103D02*
X8608158Y-18386198D01*
X8608158Y-18386198D02*
X8608158Y-18462389D01*
X8608158Y-18462389D02*
X8617682Y-18481436D01*
X8617682Y-18481436D02*
X8627206Y-18490960D01*
X8627206Y-18490960D02*
X8646253Y-18500484D01*
X8646253Y-18500484D02*
X8684349Y-18500484D01*
X8684349Y-18500484D02*
X8703396Y-18490960D01*
X8703396Y-18490960D02*
X8712920Y-18481436D01*
X8712920Y-18481436D02*
X8722444Y-18462389D01*
X8722444Y-18462389D02*
X8722444Y-18414770D01*
X8722444Y-18414770D02*
X8712920Y-18395722D01*
X8712920Y-18395722D02*
X8703396Y-18386198D01*
X8703396Y-18386198D02*
X8684349Y-18376674D01*
X8684349Y-18376674D02*
X8646253Y-18376674D01*
X8646253Y-18376674D02*
X8627206Y-18386198D01*
X8627206Y-18386198D02*
X8617682Y-18395722D01*
X8617682Y-18395722D02*
X8608158Y-18414770D01*
X8798634Y-18300484D02*
X8798634Y-18338579D01*
X8874825Y-18300484D02*
X8874825Y-18338579D01*
X9170063Y-18576674D02*
X9160539Y-18567150D01*
X9160539Y-18567150D02*
X9141491Y-18538579D01*
X9141491Y-18538579D02*
X9131968Y-18519531D01*
X9131968Y-18519531D02*
X9122444Y-18490960D01*
X9122444Y-18490960D02*
X9112920Y-18443341D01*
X9112920Y-18443341D02*
X9112920Y-18405246D01*
X9112920Y-18405246D02*
X9122444Y-18357627D01*
X9122444Y-18357627D02*
X9131968Y-18329055D01*
X9131968Y-18329055D02*
X9141491Y-18310008D01*
X9141491Y-18310008D02*
X9160539Y-18281436D01*
X9160539Y-18281436D02*
X9170063Y-18271912D01*
X9284349Y-18300484D02*
X9303396Y-18300484D01*
X9303396Y-18300484D02*
X9322444Y-18310008D01*
X9322444Y-18310008D02*
X9331968Y-18319531D01*
X9331968Y-18319531D02*
X9341491Y-18338579D01*
X9341491Y-18338579D02*
X9351015Y-18376674D01*
X9351015Y-18376674D02*
X9351015Y-18424293D01*
X9351015Y-18424293D02*
X9341491Y-18462389D01*
X9341491Y-18462389D02*
X9331968Y-18481436D01*
X9331968Y-18481436D02*
X9322444Y-18490960D01*
X9322444Y-18490960D02*
X9303396Y-18500484D01*
X9303396Y-18500484D02*
X9284349Y-18500484D01*
X9284349Y-18500484D02*
X9265301Y-18490960D01*
X9265301Y-18490960D02*
X9255777Y-18481436D01*
X9255777Y-18481436D02*
X9246253Y-18462389D01*
X9246253Y-18462389D02*
X9236730Y-18424293D01*
X9236730Y-18424293D02*
X9236730Y-18376674D01*
X9236730Y-18376674D02*
X9246253Y-18338579D01*
X9246253Y-18338579D02*
X9255777Y-18319531D01*
X9255777Y-18319531D02*
X9265301Y-18310008D01*
X9265301Y-18310008D02*
X9284349Y-18300484D01*
X9589111Y-18500484D02*
X9589111Y-18300484D01*
X9674825Y-18500484D02*
X9674825Y-18395722D01*
X9674825Y-18395722D02*
X9665301Y-18376674D01*
X9665301Y-18376674D02*
X9646253Y-18367150D01*
X9646253Y-18367150D02*
X9617682Y-18367150D01*
X9617682Y-18367150D02*
X9598634Y-18376674D01*
X9598634Y-18376674D02*
X9589111Y-18386198D01*
X9798634Y-18500484D02*
X9779587Y-18490960D01*
X9779587Y-18490960D02*
X9770063Y-18481436D01*
X9770063Y-18481436D02*
X9760539Y-18462389D01*
X9760539Y-18462389D02*
X9760539Y-18405246D01*
X9760539Y-18405246D02*
X9770063Y-18386198D01*
X9770063Y-18386198D02*
X9779587Y-18376674D01*
X9779587Y-18376674D02*
X9798634Y-18367150D01*
X9798634Y-18367150D02*
X9827206Y-18367150D01*
X9827206Y-18367150D02*
X9846253Y-18376674D01*
X9846253Y-18376674D02*
X9855777Y-18386198D01*
X9855777Y-18386198D02*
X9865301Y-18405246D01*
X9865301Y-18405246D02*
X9865301Y-18462389D01*
X9865301Y-18462389D02*
X9855777Y-18481436D01*
X9855777Y-18481436D02*
X9846253Y-18490960D01*
X9846253Y-18490960D02*
X9827206Y-18500484D01*
X9827206Y-18500484D02*
X9798634Y-18500484D01*
X9979587Y-18500484D02*
X9960539Y-18490960D01*
X9960539Y-18490960D02*
X9951015Y-18471912D01*
X9951015Y-18471912D02*
X9951015Y-18300484D01*
X10131968Y-18490960D02*
X10112920Y-18500484D01*
X10112920Y-18500484D02*
X10074825Y-18500484D01*
X10074825Y-18500484D02*
X10055777Y-18490960D01*
X10055777Y-18490960D02*
X10046253Y-18471912D01*
X10046253Y-18471912D02*
X10046253Y-18395722D01*
X10046253Y-18395722D02*
X10055777Y-18376674D01*
X10055777Y-18376674D02*
X10074825Y-18367150D01*
X10074825Y-18367150D02*
X10112920Y-18367150D01*
X10112920Y-18367150D02*
X10131968Y-18376674D01*
X10131968Y-18376674D02*
X10141492Y-18395722D01*
X10141492Y-18395722D02*
X10141492Y-18414770D01*
X10141492Y-18414770D02*
X10046253Y-18433817D01*
X10217682Y-18490960D02*
X10236730Y-18500484D01*
X10236730Y-18500484D02*
X10274825Y-18500484D01*
X10274825Y-18500484D02*
X10293873Y-18490960D01*
X10293873Y-18490960D02*
X10303396Y-18471912D01*
X10303396Y-18471912D02*
X10303396Y-18462389D01*
X10303396Y-18462389D02*
X10293873Y-18443341D01*
X10293873Y-18443341D02*
X10274825Y-18433817D01*
X10274825Y-18433817D02*
X10246253Y-18433817D01*
X10246253Y-18433817D02*
X10227206Y-18424293D01*
X10227206Y-18424293D02*
X10217682Y-18405246D01*
X10217682Y-18405246D02*
X10217682Y-18395722D01*
X10217682Y-18395722D02*
X10227206Y-18376674D01*
X10227206Y-18376674D02*
X10246253Y-18367150D01*
X10246253Y-18367150D02*
X10274825Y-18367150D01*
X10274825Y-18367150D02*
X10293873Y-18376674D01*
X10541492Y-18424293D02*
X10693873Y-18424293D01*
X10617682Y-18500484D02*
X10617682Y-18348103D01*
X11027206Y-18367150D02*
X11027206Y-18500484D01*
X10979587Y-18290960D02*
X10931968Y-18433817D01*
X10931968Y-18433817D02*
X11055777Y-18433817D01*
X11274825Y-18490960D02*
X11293873Y-18500484D01*
X11293873Y-18500484D02*
X11331968Y-18500484D01*
X11331968Y-18500484D02*
X11351015Y-18490960D01*
X11351015Y-18490960D02*
X11360539Y-18471912D01*
X11360539Y-18471912D02*
X11360539Y-18462389D01*
X11360539Y-18462389D02*
X11351015Y-18443341D01*
X11351015Y-18443341D02*
X11331968Y-18433817D01*
X11331968Y-18433817D02*
X11303396Y-18433817D01*
X11303396Y-18433817D02*
X11284349Y-18424293D01*
X11284349Y-18424293D02*
X11274825Y-18405246D01*
X11274825Y-18405246D02*
X11274825Y-18395722D01*
X11274825Y-18395722D02*
X11284349Y-18376674D01*
X11284349Y-18376674D02*
X11303396Y-18367150D01*
X11303396Y-18367150D02*
X11331968Y-18367150D01*
X11331968Y-18367150D02*
X11351015Y-18376674D01*
X11474825Y-18500484D02*
X11455777Y-18490960D01*
X11455777Y-18490960D02*
X11446254Y-18471912D01*
X11446254Y-18471912D02*
X11446254Y-18300484D01*
X11579587Y-18500484D02*
X11560539Y-18490960D01*
X11560539Y-18490960D02*
X11551015Y-18481436D01*
X11551015Y-18481436D02*
X11541492Y-18462389D01*
X11541492Y-18462389D02*
X11541492Y-18405246D01*
X11541492Y-18405246D02*
X11551015Y-18386198D01*
X11551015Y-18386198D02*
X11560539Y-18376674D01*
X11560539Y-18376674D02*
X11579587Y-18367150D01*
X11579587Y-18367150D02*
X11608158Y-18367150D01*
X11608158Y-18367150D02*
X11627206Y-18376674D01*
X11627206Y-18376674D02*
X11636730Y-18386198D01*
X11636730Y-18386198D02*
X11646254Y-18405246D01*
X11646254Y-18405246D02*
X11646254Y-18462389D01*
X11646254Y-18462389D02*
X11636730Y-18481436D01*
X11636730Y-18481436D02*
X11627206Y-18490960D01*
X11627206Y-18490960D02*
X11608158Y-18500484D01*
X11608158Y-18500484D02*
X11579587Y-18500484D01*
X11703396Y-18367150D02*
X11779587Y-18367150D01*
X11731968Y-18300484D02*
X11731968Y-18471912D01*
X11731968Y-18471912D02*
X11741492Y-18490960D01*
X11741492Y-18490960D02*
X11760539Y-18500484D01*
X11760539Y-18500484D02*
X11779587Y-18500484D01*
X11836730Y-18490960D02*
X11855777Y-18500484D01*
X11855777Y-18500484D02*
X11893873Y-18500484D01*
X11893873Y-18500484D02*
X11912920Y-18490960D01*
X11912920Y-18490960D02*
X11922444Y-18471912D01*
X11922444Y-18471912D02*
X11922444Y-18462389D01*
X11922444Y-18462389D02*
X11912920Y-18443341D01*
X11912920Y-18443341D02*
X11893873Y-18433817D01*
X11893873Y-18433817D02*
X11865301Y-18433817D01*
X11865301Y-18433817D02*
X11846254Y-18424293D01*
X11846254Y-18424293D02*
X11836730Y-18405246D01*
X11836730Y-18405246D02*
X11836730Y-18395722D01*
X11836730Y-18395722D02*
X11846254Y-18376674D01*
X11846254Y-18376674D02*
X11865301Y-18367150D01*
X11865301Y-18367150D02*
X11893873Y-18367150D01*
X11893873Y-18367150D02*
X11912920Y-18376674D01*
X11989111Y-18576674D02*
X11998635Y-18567150D01*
X11998635Y-18567150D02*
X12017682Y-18538579D01*
X12017682Y-18538579D02*
X12027206Y-18519531D01*
X12027206Y-18519531D02*
X12036730Y-18490960D01*
X12036730Y-18490960D02*
X12046254Y-18443341D01*
X12046254Y-18443341D02*
X12046254Y-18405246D01*
X12046254Y-18405246D02*
X12036730Y-18357627D01*
X12036730Y-18357627D02*
X12027206Y-18329055D01*
X12027206Y-18329055D02*
X12017682Y-18310008D01*
X12017682Y-18310008D02*
X11998635Y-18281436D01*
X11998635Y-18281436D02*
X11989111Y-18271912D01*
D10*
X5549999Y-18627999D02*
X5549999Y-18718001D01*
X5504998Y-18673000D02*
X5595000Y-18673000D01*
D11*
X5893872Y-18564484D02*
X5912920Y-18564484D01*
X5912920Y-18564484D02*
X5931967Y-18574008D01*
X5931967Y-18574008D02*
X5941491Y-18583531D01*
X5941491Y-18583531D02*
X5951015Y-18602579D01*
X5951015Y-18602579D02*
X5960539Y-18640674D01*
X5960539Y-18640674D02*
X5960539Y-18688293D01*
X5960539Y-18688293D02*
X5951015Y-18726389D01*
X5951015Y-18726389D02*
X5941491Y-18745436D01*
X5941491Y-18745436D02*
X5931967Y-18754960D01*
X5931967Y-18754960D02*
X5912920Y-18764484D01*
X5912920Y-18764484D02*
X5893872Y-18764484D01*
X5893872Y-18764484D02*
X5874824Y-18754960D01*
X5874824Y-18754960D02*
X5865301Y-18745436D01*
X5865301Y-18745436D02*
X5855777Y-18726389D01*
X5855777Y-18726389D02*
X5846253Y-18688293D01*
X5846253Y-18688293D02*
X5846253Y-18640674D01*
X5846253Y-18640674D02*
X5855777Y-18602579D01*
X5855777Y-18602579D02*
X5865301Y-18583531D01*
X5865301Y-18583531D02*
X5874824Y-18574008D01*
X5874824Y-18574008D02*
X5893872Y-18564484D01*
X6046253Y-18745436D02*
X6055777Y-18754960D01*
X6055777Y-18754960D02*
X6046253Y-18764484D01*
X6046253Y-18764484D02*
X6036729Y-18754960D01*
X6036729Y-18754960D02*
X6046253Y-18745436D01*
X6046253Y-18745436D02*
X6046253Y-18764484D01*
X6151015Y-18764484D02*
X6189110Y-18764484D01*
X6189110Y-18764484D02*
X6208158Y-18754960D01*
X6208158Y-18754960D02*
X6217682Y-18745436D01*
X6217682Y-18745436D02*
X6236729Y-18716865D01*
X6236729Y-18716865D02*
X6246253Y-18678770D01*
X6246253Y-18678770D02*
X6246253Y-18602579D01*
X6246253Y-18602579D02*
X6236729Y-18583531D01*
X6236729Y-18583531D02*
X6227205Y-18574008D01*
X6227205Y-18574008D02*
X6208158Y-18564484D01*
X6208158Y-18564484D02*
X6170062Y-18564484D01*
X6170062Y-18564484D02*
X6151015Y-18574008D01*
X6151015Y-18574008D02*
X6141491Y-18583531D01*
X6141491Y-18583531D02*
X6131967Y-18602579D01*
X6131967Y-18602579D02*
X6131967Y-18650198D01*
X6131967Y-18650198D02*
X6141491Y-18669246D01*
X6141491Y-18669246D02*
X6151015Y-18678770D01*
X6151015Y-18678770D02*
X6170062Y-18688293D01*
X6170062Y-18688293D02*
X6208158Y-18688293D01*
X6208158Y-18688293D02*
X6227205Y-18678770D01*
X6227205Y-18678770D02*
X6236729Y-18669246D01*
X6236729Y-18669246D02*
X6246253Y-18650198D01*
X6370062Y-18564484D02*
X6389110Y-18564484D01*
X6389110Y-18564484D02*
X6408158Y-18574008D01*
X6408158Y-18574008D02*
X6417682Y-18583531D01*
X6417682Y-18583531D02*
X6427205Y-18602579D01*
X6427205Y-18602579D02*
X6436729Y-18640674D01*
X6436729Y-18640674D02*
X6436729Y-18688293D01*
X6436729Y-18688293D02*
X6427205Y-18726389D01*
X6427205Y-18726389D02*
X6417682Y-18745436D01*
X6417682Y-18745436D02*
X6408158Y-18754960D01*
X6408158Y-18754960D02*
X6389110Y-18764484D01*
X6389110Y-18764484D02*
X6370062Y-18764484D01*
X6370062Y-18764484D02*
X6351015Y-18754960D01*
X6351015Y-18754960D02*
X6341491Y-18745436D01*
X6341491Y-18745436D02*
X6331967Y-18726389D01*
X6331967Y-18726389D02*
X6322443Y-18688293D01*
X6322443Y-18688293D02*
X6322443Y-18640674D01*
X6322443Y-18640674D02*
X6331967Y-18602579D01*
X6331967Y-18602579D02*
X6341491Y-18583531D01*
X6341491Y-18583531D02*
X6351015Y-18574008D01*
X6351015Y-18574008D02*
X6370062Y-18564484D01*
X6560539Y-18564484D02*
X6579586Y-18564484D01*
X6579586Y-18564484D02*
X6598634Y-18574008D01*
X6598634Y-18574008D02*
X6608158Y-18583531D01*
X6608158Y-18583531D02*
X6617682Y-18602579D01*
X6617682Y-18602579D02*
X6627205Y-18640674D01*
X6627205Y-18640674D02*
X6627205Y-18688293D01*
X6627205Y-18688293D02*
X6617682Y-18726389D01*
X6617682Y-18726389D02*
X6608158Y-18745436D01*
X6608158Y-18745436D02*
X6598634Y-18754960D01*
X6598634Y-18754960D02*
X6579586Y-18764484D01*
X6579586Y-18764484D02*
X6560539Y-18764484D01*
X6560539Y-18764484D02*
X6541491Y-18754960D01*
X6541491Y-18754960D02*
X6531967Y-18745436D01*
X6531967Y-18745436D02*
X6522443Y-18726389D01*
X6522443Y-18726389D02*
X6512920Y-18688293D01*
X6512920Y-18688293D02*
X6512920Y-18640674D01*
X6512920Y-18640674D02*
X6522443Y-18602579D01*
X6522443Y-18602579D02*
X6531967Y-18583531D01*
X6531967Y-18583531D02*
X6541491Y-18574008D01*
X6541491Y-18574008D02*
X6560539Y-18564484D01*
X6712920Y-18764484D02*
X6712920Y-18631150D01*
X6712920Y-18650198D02*
X6722443Y-18640674D01*
X6722443Y-18640674D02*
X6741491Y-18631150D01*
X6741491Y-18631150D02*
X6770063Y-18631150D01*
X6770063Y-18631150D02*
X6789110Y-18640674D01*
X6789110Y-18640674D02*
X6798634Y-18659722D01*
X6798634Y-18659722D02*
X6798634Y-18764484D01*
X6798634Y-18659722D02*
X6808158Y-18640674D01*
X6808158Y-18640674D02*
X6827205Y-18631150D01*
X6827205Y-18631150D02*
X6855777Y-18631150D01*
X6855777Y-18631150D02*
X6874824Y-18640674D01*
X6874824Y-18640674D02*
X6884348Y-18659722D01*
X6884348Y-18659722D02*
X6884348Y-18764484D01*
X6979586Y-18764484D02*
X6979586Y-18631150D01*
X6979586Y-18650198D02*
X6989110Y-18640674D01*
X6989110Y-18640674D02*
X7008158Y-18631150D01*
X7008158Y-18631150D02*
X7036729Y-18631150D01*
X7036729Y-18631150D02*
X7055777Y-18640674D01*
X7055777Y-18640674D02*
X7065301Y-18659722D01*
X7065301Y-18659722D02*
X7065301Y-18764484D01*
X7065301Y-18659722D02*
X7074824Y-18640674D01*
X7074824Y-18640674D02*
X7093872Y-18631150D01*
X7093872Y-18631150D02*
X7122443Y-18631150D01*
X7122443Y-18631150D02*
X7141491Y-18640674D01*
X7141491Y-18640674D02*
X7151015Y-18659722D01*
X7151015Y-18659722D02*
X7151015Y-18764484D01*
X7541491Y-18554960D02*
X7370063Y-18812103D01*
X7798634Y-18564484D02*
X7817682Y-18564484D01*
X7817682Y-18564484D02*
X7836729Y-18574008D01*
X7836729Y-18574008D02*
X7846253Y-18583531D01*
X7846253Y-18583531D02*
X7855777Y-18602579D01*
X7855777Y-18602579D02*
X7865301Y-18640674D01*
X7865301Y-18640674D02*
X7865301Y-18688293D01*
X7865301Y-18688293D02*
X7855777Y-18726389D01*
X7855777Y-18726389D02*
X7846253Y-18745436D01*
X7846253Y-18745436D02*
X7836729Y-18754960D01*
X7836729Y-18754960D02*
X7817682Y-18764484D01*
X7817682Y-18764484D02*
X7798634Y-18764484D01*
X7798634Y-18764484D02*
X7779586Y-18754960D01*
X7779586Y-18754960D02*
X7770063Y-18745436D01*
X7770063Y-18745436D02*
X7760539Y-18726389D01*
X7760539Y-18726389D02*
X7751015Y-18688293D01*
X7751015Y-18688293D02*
X7751015Y-18640674D01*
X7751015Y-18640674D02*
X7760539Y-18602579D01*
X7760539Y-18602579D02*
X7770063Y-18583531D01*
X7770063Y-18583531D02*
X7779586Y-18574008D01*
X7779586Y-18574008D02*
X7798634Y-18564484D01*
X7951015Y-18745436D02*
X7960539Y-18754960D01*
X7960539Y-18754960D02*
X7951015Y-18764484D01*
X7951015Y-18764484D02*
X7941491Y-18754960D01*
X7941491Y-18754960D02*
X7951015Y-18745436D01*
X7951015Y-18745436D02*
X7951015Y-18764484D01*
X8084348Y-18564484D02*
X8103396Y-18564484D01*
X8103396Y-18564484D02*
X8122444Y-18574008D01*
X8122444Y-18574008D02*
X8131967Y-18583531D01*
X8131967Y-18583531D02*
X8141491Y-18602579D01*
X8141491Y-18602579D02*
X8151015Y-18640674D01*
X8151015Y-18640674D02*
X8151015Y-18688293D01*
X8151015Y-18688293D02*
X8141491Y-18726389D01*
X8141491Y-18726389D02*
X8131967Y-18745436D01*
X8131967Y-18745436D02*
X8122444Y-18754960D01*
X8122444Y-18754960D02*
X8103396Y-18764484D01*
X8103396Y-18764484D02*
X8084348Y-18764484D01*
X8084348Y-18764484D02*
X8065301Y-18754960D01*
X8065301Y-18754960D02*
X8055777Y-18745436D01*
X8055777Y-18745436D02*
X8046253Y-18726389D01*
X8046253Y-18726389D02*
X8036729Y-18688293D01*
X8036729Y-18688293D02*
X8036729Y-18640674D01*
X8036729Y-18640674D02*
X8046253Y-18602579D01*
X8046253Y-18602579D02*
X8055777Y-18583531D01*
X8055777Y-18583531D02*
X8065301Y-18574008D01*
X8065301Y-18574008D02*
X8084348Y-18564484D01*
X8217682Y-18564484D02*
X8341491Y-18564484D01*
X8341491Y-18564484D02*
X8274825Y-18640674D01*
X8274825Y-18640674D02*
X8303396Y-18640674D01*
X8303396Y-18640674D02*
X8322444Y-18650198D01*
X8322444Y-18650198D02*
X8331967Y-18659722D01*
X8331967Y-18659722D02*
X8341491Y-18678770D01*
X8341491Y-18678770D02*
X8341491Y-18726389D01*
X8341491Y-18726389D02*
X8331967Y-18745436D01*
X8331967Y-18745436D02*
X8322444Y-18754960D01*
X8322444Y-18754960D02*
X8303396Y-18764484D01*
X8303396Y-18764484D02*
X8246253Y-18764484D01*
X8246253Y-18764484D02*
X8227206Y-18754960D01*
X8227206Y-18754960D02*
X8217682Y-18745436D01*
X8522444Y-18564484D02*
X8427206Y-18564484D01*
X8427206Y-18564484D02*
X8417682Y-18659722D01*
X8417682Y-18659722D02*
X8427206Y-18650198D01*
X8427206Y-18650198D02*
X8446253Y-18640674D01*
X8446253Y-18640674D02*
X8493872Y-18640674D01*
X8493872Y-18640674D02*
X8512920Y-18650198D01*
X8512920Y-18650198D02*
X8522444Y-18659722D01*
X8522444Y-18659722D02*
X8531968Y-18678770D01*
X8531968Y-18678770D02*
X8531968Y-18726389D01*
X8531968Y-18726389D02*
X8522444Y-18745436D01*
X8522444Y-18745436D02*
X8512920Y-18754960D01*
X8512920Y-18754960D02*
X8493872Y-18764484D01*
X8493872Y-18764484D02*
X8446253Y-18764484D01*
X8446253Y-18764484D02*
X8427206Y-18754960D01*
X8427206Y-18754960D02*
X8417682Y-18745436D01*
X8703396Y-18631150D02*
X8703396Y-18764484D01*
X8655777Y-18554960D02*
X8608158Y-18697817D01*
X8608158Y-18697817D02*
X8731968Y-18697817D01*
X8798634Y-18564484D02*
X8798634Y-18602579D01*
X8874825Y-18564484D02*
X8874825Y-18602579D01*
X9170063Y-18840674D02*
X9160539Y-18831150D01*
X9160539Y-18831150D02*
X9141491Y-18802579D01*
X9141491Y-18802579D02*
X9131968Y-18783531D01*
X9131968Y-18783531D02*
X9122444Y-18754960D01*
X9122444Y-18754960D02*
X9112920Y-18707341D01*
X9112920Y-18707341D02*
X9112920Y-18669246D01*
X9112920Y-18669246D02*
X9122444Y-18621627D01*
X9122444Y-18621627D02*
X9131968Y-18593055D01*
X9131968Y-18593055D02*
X9141491Y-18574008D01*
X9141491Y-18574008D02*
X9160539Y-18545436D01*
X9160539Y-18545436D02*
X9170063Y-18535912D01*
X9284349Y-18564484D02*
X9303396Y-18564484D01*
X9303396Y-18564484D02*
X9322444Y-18574008D01*
X9322444Y-18574008D02*
X9331968Y-18583531D01*
X9331968Y-18583531D02*
X9341491Y-18602579D01*
X9341491Y-18602579D02*
X9351015Y-18640674D01*
X9351015Y-18640674D02*
X9351015Y-18688293D01*
X9351015Y-18688293D02*
X9341491Y-18726389D01*
X9341491Y-18726389D02*
X9331968Y-18745436D01*
X9331968Y-18745436D02*
X9322444Y-18754960D01*
X9322444Y-18754960D02*
X9303396Y-18764484D01*
X9303396Y-18764484D02*
X9284349Y-18764484D01*
X9284349Y-18764484D02*
X9265301Y-18754960D01*
X9265301Y-18754960D02*
X9255777Y-18745436D01*
X9255777Y-18745436D02*
X9246253Y-18726389D01*
X9246253Y-18726389D02*
X9236730Y-18688293D01*
X9236730Y-18688293D02*
X9236730Y-18640674D01*
X9236730Y-18640674D02*
X9246253Y-18602579D01*
X9246253Y-18602579D02*
X9255777Y-18583531D01*
X9255777Y-18583531D02*
X9265301Y-18574008D01*
X9265301Y-18574008D02*
X9284349Y-18564484D01*
X9589111Y-18764484D02*
X9589111Y-18564484D01*
X9674825Y-18764484D02*
X9674825Y-18659722D01*
X9674825Y-18659722D02*
X9665301Y-18640674D01*
X9665301Y-18640674D02*
X9646253Y-18631150D01*
X9646253Y-18631150D02*
X9617682Y-18631150D01*
X9617682Y-18631150D02*
X9598634Y-18640674D01*
X9598634Y-18640674D02*
X9589111Y-18650198D01*
X9798634Y-18764484D02*
X9779587Y-18754960D01*
X9779587Y-18754960D02*
X9770063Y-18745436D01*
X9770063Y-18745436D02*
X9760539Y-18726389D01*
X9760539Y-18726389D02*
X9760539Y-18669246D01*
X9760539Y-18669246D02*
X9770063Y-18650198D01*
X9770063Y-18650198D02*
X9779587Y-18640674D01*
X9779587Y-18640674D02*
X9798634Y-18631150D01*
X9798634Y-18631150D02*
X9827206Y-18631150D01*
X9827206Y-18631150D02*
X9846253Y-18640674D01*
X9846253Y-18640674D02*
X9855777Y-18650198D01*
X9855777Y-18650198D02*
X9865301Y-18669246D01*
X9865301Y-18669246D02*
X9865301Y-18726389D01*
X9865301Y-18726389D02*
X9855777Y-18745436D01*
X9855777Y-18745436D02*
X9846253Y-18754960D01*
X9846253Y-18754960D02*
X9827206Y-18764484D01*
X9827206Y-18764484D02*
X9798634Y-18764484D01*
X9979587Y-18764484D02*
X9960539Y-18754960D01*
X9960539Y-18754960D02*
X9951015Y-18735912D01*
X9951015Y-18735912D02*
X9951015Y-18564484D01*
X10131968Y-18754960D02*
X10112920Y-18764484D01*
X10112920Y-18764484D02*
X10074825Y-18764484D01*
X10074825Y-18764484D02*
X10055777Y-18754960D01*
X10055777Y-18754960D02*
X10046253Y-18735912D01*
X10046253Y-18735912D02*
X10046253Y-18659722D01*
X10046253Y-18659722D02*
X10055777Y-18640674D01*
X10055777Y-18640674D02*
X10074825Y-18631150D01*
X10074825Y-18631150D02*
X10112920Y-18631150D01*
X10112920Y-18631150D02*
X10131968Y-18640674D01*
X10131968Y-18640674D02*
X10141492Y-18659722D01*
X10141492Y-18659722D02*
X10141492Y-18678770D01*
X10141492Y-18678770D02*
X10046253Y-18697817D01*
X10217682Y-18754960D02*
X10236730Y-18764484D01*
X10236730Y-18764484D02*
X10274825Y-18764484D01*
X10274825Y-18764484D02*
X10293873Y-18754960D01*
X10293873Y-18754960D02*
X10303396Y-18735912D01*
X10303396Y-18735912D02*
X10303396Y-18726389D01*
X10303396Y-18726389D02*
X10293873Y-18707341D01*
X10293873Y-18707341D02*
X10274825Y-18697817D01*
X10274825Y-18697817D02*
X10246253Y-18697817D01*
X10246253Y-18697817D02*
X10227206Y-18688293D01*
X10227206Y-18688293D02*
X10217682Y-18669246D01*
X10217682Y-18669246D02*
X10217682Y-18659722D01*
X10217682Y-18659722D02*
X10227206Y-18640674D01*
X10227206Y-18640674D02*
X10246253Y-18631150D01*
X10246253Y-18631150D02*
X10274825Y-18631150D01*
X10274825Y-18631150D02*
X10293873Y-18640674D01*
X10541492Y-18688293D02*
X10693873Y-18688293D01*
X10617682Y-18764484D02*
X10617682Y-18612103D01*
X11027206Y-18564484D02*
X10989111Y-18564484D01*
X10989111Y-18564484D02*
X10970063Y-18574008D01*
X10970063Y-18574008D02*
X10960539Y-18583531D01*
X10960539Y-18583531D02*
X10941492Y-18612103D01*
X10941492Y-18612103D02*
X10931968Y-18650198D01*
X10931968Y-18650198D02*
X10931968Y-18726389D01*
X10931968Y-18726389D02*
X10941492Y-18745436D01*
X10941492Y-18745436D02*
X10951015Y-18754960D01*
X10951015Y-18754960D02*
X10970063Y-18764484D01*
X10970063Y-18764484D02*
X11008158Y-18764484D01*
X11008158Y-18764484D02*
X11027206Y-18754960D01*
X11027206Y-18754960D02*
X11036730Y-18745436D01*
X11036730Y-18745436D02*
X11046254Y-18726389D01*
X11046254Y-18726389D02*
X11046254Y-18678770D01*
X11046254Y-18678770D02*
X11036730Y-18659722D01*
X11036730Y-18659722D02*
X11027206Y-18650198D01*
X11027206Y-18650198D02*
X11008158Y-18640674D01*
X11008158Y-18640674D02*
X10970063Y-18640674D01*
X10970063Y-18640674D02*
X10951015Y-18650198D01*
X10951015Y-18650198D02*
X10941492Y-18659722D01*
X10941492Y-18659722D02*
X10931968Y-18678770D01*
X11274825Y-18754960D02*
X11293873Y-18764484D01*
X11293873Y-18764484D02*
X11331968Y-18764484D01*
X11331968Y-18764484D02*
X11351015Y-18754960D01*
X11351015Y-18754960D02*
X11360539Y-18735912D01*
X11360539Y-18735912D02*
X11360539Y-18726389D01*
X11360539Y-18726389D02*
X11351015Y-18707341D01*
X11351015Y-18707341D02*
X11331968Y-18697817D01*
X11331968Y-18697817D02*
X11303396Y-18697817D01*
X11303396Y-18697817D02*
X11284349Y-18688293D01*
X11284349Y-18688293D02*
X11274825Y-18669246D01*
X11274825Y-18669246D02*
X11274825Y-18659722D01*
X11274825Y-18659722D02*
X11284349Y-18640674D01*
X11284349Y-18640674D02*
X11303396Y-18631150D01*
X11303396Y-18631150D02*
X11331968Y-18631150D01*
X11331968Y-18631150D02*
X11351015Y-18640674D01*
X11474825Y-18764484D02*
X11455777Y-18754960D01*
X11455777Y-18754960D02*
X11446254Y-18735912D01*
X11446254Y-18735912D02*
X11446254Y-18564484D01*
X11579587Y-18764484D02*
X11560539Y-18754960D01*
X11560539Y-18754960D02*
X11551015Y-18745436D01*
X11551015Y-18745436D02*
X11541492Y-18726389D01*
X11541492Y-18726389D02*
X11541492Y-18669246D01*
X11541492Y-18669246D02*
X11551015Y-18650198D01*
X11551015Y-18650198D02*
X11560539Y-18640674D01*
X11560539Y-18640674D02*
X11579587Y-18631150D01*
X11579587Y-18631150D02*
X11608158Y-18631150D01*
X11608158Y-18631150D02*
X11627206Y-18640674D01*
X11627206Y-18640674D02*
X11636730Y-18650198D01*
X11636730Y-18650198D02*
X11646254Y-18669246D01*
X11646254Y-18669246D02*
X11646254Y-18726389D01*
X11646254Y-18726389D02*
X11636730Y-18745436D01*
X11636730Y-18745436D02*
X11627206Y-18754960D01*
X11627206Y-18754960D02*
X11608158Y-18764484D01*
X11608158Y-18764484D02*
X11579587Y-18764484D01*
X11703396Y-18631150D02*
X11779587Y-18631150D01*
X11731968Y-18564484D02*
X11731968Y-18735912D01*
X11731968Y-18735912D02*
X11741492Y-18754960D01*
X11741492Y-18754960D02*
X11760539Y-18764484D01*
X11760539Y-18764484D02*
X11779587Y-18764484D01*
X11836730Y-18754960D02*
X11855777Y-18764484D01*
X11855777Y-18764484D02*
X11893873Y-18764484D01*
X11893873Y-18764484D02*
X11912920Y-18754960D01*
X11912920Y-18754960D02*
X11922444Y-18735912D01*
X11922444Y-18735912D02*
X11922444Y-18726389D01*
X11922444Y-18726389D02*
X11912920Y-18707341D01*
X11912920Y-18707341D02*
X11893873Y-18697817D01*
X11893873Y-18697817D02*
X11865301Y-18697817D01*
X11865301Y-18697817D02*
X11846254Y-18688293D01*
X11846254Y-18688293D02*
X11836730Y-18669246D01*
X11836730Y-18669246D02*
X11836730Y-18659722D01*
X11836730Y-18659722D02*
X11846254Y-18640674D01*
X11846254Y-18640674D02*
X11865301Y-18631150D01*
X11865301Y-18631150D02*
X11893873Y-18631150D01*
X11893873Y-18631150D02*
X11912920Y-18640674D01*
X11989111Y-18840674D02*
X11998635Y-18831150D01*
X11998635Y-18831150D02*
X12017682Y-18802579D01*
X12017682Y-18802579D02*
X12027206Y-18783531D01*
X12027206Y-18783531D02*
X12036730Y-18754960D01*
X12036730Y-18754960D02*
X12046254Y-18707341D01*
X12046254Y-18707341D02*
X12046254Y-18669246D01*
X12046254Y-18669246D02*
X12036730Y-18621627D01*
X12036730Y-18621627D02*
X12027206Y-18593055D01*
X12027206Y-18593055D02*
X12017682Y-18574008D01*
X12017682Y-18574008D02*
X11998635Y-18545436D01*
X11998635Y-18545436D02*
X11989111Y-18535912D01*
D10*
X5580356Y-18972356D02*
X5580356Y-18901644D01*
X5509645Y-18901644D01*
X5509645Y-18972356D01*
X5580356Y-18972356D01*
D11*
X5960539Y-19028484D02*
X5846253Y-19028484D01*
X5903396Y-19028484D02*
X5903396Y-18828484D01*
X5903396Y-18828484D02*
X5884348Y-18857055D01*
X5884348Y-18857055D02*
X5865301Y-18876103D01*
X5865301Y-18876103D02*
X5846253Y-18885627D01*
X6046253Y-19009436D02*
X6055777Y-19018960D01*
X6055777Y-19018960D02*
X6046253Y-19028484D01*
X6046253Y-19028484D02*
X6036729Y-19018960D01*
X6036729Y-19018960D02*
X6046253Y-19009436D01*
X6046253Y-19009436D02*
X6046253Y-19028484D01*
X6179586Y-18828484D02*
X6198634Y-18828484D01*
X6198634Y-18828484D02*
X6217682Y-18838008D01*
X6217682Y-18838008D02*
X6227205Y-18847531D01*
X6227205Y-18847531D02*
X6236729Y-18866579D01*
X6236729Y-18866579D02*
X6246253Y-18904674D01*
X6246253Y-18904674D02*
X6246253Y-18952293D01*
X6246253Y-18952293D02*
X6236729Y-18990389D01*
X6236729Y-18990389D02*
X6227205Y-19009436D01*
X6227205Y-19009436D02*
X6217682Y-19018960D01*
X6217682Y-19018960D02*
X6198634Y-19028484D01*
X6198634Y-19028484D02*
X6179586Y-19028484D01*
X6179586Y-19028484D02*
X6160539Y-19018960D01*
X6160539Y-19018960D02*
X6151015Y-19009436D01*
X6151015Y-19009436D02*
X6141491Y-18990389D01*
X6141491Y-18990389D02*
X6131967Y-18952293D01*
X6131967Y-18952293D02*
X6131967Y-18904674D01*
X6131967Y-18904674D02*
X6141491Y-18866579D01*
X6141491Y-18866579D02*
X6151015Y-18847531D01*
X6151015Y-18847531D02*
X6160539Y-18838008D01*
X6160539Y-18838008D02*
X6179586Y-18828484D01*
X6370062Y-18828484D02*
X6389110Y-18828484D01*
X6389110Y-18828484D02*
X6408158Y-18838008D01*
X6408158Y-18838008D02*
X6417682Y-18847531D01*
X6417682Y-18847531D02*
X6427205Y-18866579D01*
X6427205Y-18866579D02*
X6436729Y-18904674D01*
X6436729Y-18904674D02*
X6436729Y-18952293D01*
X6436729Y-18952293D02*
X6427205Y-18990389D01*
X6427205Y-18990389D02*
X6417682Y-19009436D01*
X6417682Y-19009436D02*
X6408158Y-19018960D01*
X6408158Y-19018960D02*
X6389110Y-19028484D01*
X6389110Y-19028484D02*
X6370062Y-19028484D01*
X6370062Y-19028484D02*
X6351015Y-19018960D01*
X6351015Y-19018960D02*
X6341491Y-19009436D01*
X6341491Y-19009436D02*
X6331967Y-18990389D01*
X6331967Y-18990389D02*
X6322443Y-18952293D01*
X6322443Y-18952293D02*
X6322443Y-18904674D01*
X6322443Y-18904674D02*
X6331967Y-18866579D01*
X6331967Y-18866579D02*
X6341491Y-18847531D01*
X6341491Y-18847531D02*
X6351015Y-18838008D01*
X6351015Y-18838008D02*
X6370062Y-18828484D01*
X6560539Y-18828484D02*
X6579586Y-18828484D01*
X6579586Y-18828484D02*
X6598634Y-18838008D01*
X6598634Y-18838008D02*
X6608158Y-18847531D01*
X6608158Y-18847531D02*
X6617682Y-18866579D01*
X6617682Y-18866579D02*
X6627205Y-18904674D01*
X6627205Y-18904674D02*
X6627205Y-18952293D01*
X6627205Y-18952293D02*
X6617682Y-18990389D01*
X6617682Y-18990389D02*
X6608158Y-19009436D01*
X6608158Y-19009436D02*
X6598634Y-19018960D01*
X6598634Y-19018960D02*
X6579586Y-19028484D01*
X6579586Y-19028484D02*
X6560539Y-19028484D01*
X6560539Y-19028484D02*
X6541491Y-19018960D01*
X6541491Y-19018960D02*
X6531967Y-19009436D01*
X6531967Y-19009436D02*
X6522443Y-18990389D01*
X6522443Y-18990389D02*
X6512920Y-18952293D01*
X6512920Y-18952293D02*
X6512920Y-18904674D01*
X6512920Y-18904674D02*
X6522443Y-18866579D01*
X6522443Y-18866579D02*
X6531967Y-18847531D01*
X6531967Y-18847531D02*
X6541491Y-18838008D01*
X6541491Y-18838008D02*
X6560539Y-18828484D01*
X6712920Y-19028484D02*
X6712920Y-18895150D01*
X6712920Y-18914198D02*
X6722443Y-18904674D01*
X6722443Y-18904674D02*
X6741491Y-18895150D01*
X6741491Y-18895150D02*
X6770063Y-18895150D01*
X6770063Y-18895150D02*
X6789110Y-18904674D01*
X6789110Y-18904674D02*
X6798634Y-18923722D01*
X6798634Y-18923722D02*
X6798634Y-19028484D01*
X6798634Y-18923722D02*
X6808158Y-18904674D01*
X6808158Y-18904674D02*
X6827205Y-18895150D01*
X6827205Y-18895150D02*
X6855777Y-18895150D01*
X6855777Y-18895150D02*
X6874824Y-18904674D01*
X6874824Y-18904674D02*
X6884348Y-18923722D01*
X6884348Y-18923722D02*
X6884348Y-19028484D01*
X6979586Y-19028484D02*
X6979586Y-18895150D01*
X6979586Y-18914198D02*
X6989110Y-18904674D01*
X6989110Y-18904674D02*
X7008158Y-18895150D01*
X7008158Y-18895150D02*
X7036729Y-18895150D01*
X7036729Y-18895150D02*
X7055777Y-18904674D01*
X7055777Y-18904674D02*
X7065301Y-18923722D01*
X7065301Y-18923722D02*
X7065301Y-19028484D01*
X7065301Y-18923722D02*
X7074824Y-18904674D01*
X7074824Y-18904674D02*
X7093872Y-18895150D01*
X7093872Y-18895150D02*
X7122443Y-18895150D01*
X7122443Y-18895150D02*
X7141491Y-18904674D01*
X7141491Y-18904674D02*
X7151015Y-18923722D01*
X7151015Y-18923722D02*
X7151015Y-19028484D01*
X7541491Y-18818960D02*
X7370063Y-19076103D01*
X7798634Y-18828484D02*
X7817682Y-18828484D01*
X7817682Y-18828484D02*
X7836729Y-18838008D01*
X7836729Y-18838008D02*
X7846253Y-18847531D01*
X7846253Y-18847531D02*
X7855777Y-18866579D01*
X7855777Y-18866579D02*
X7865301Y-18904674D01*
X7865301Y-18904674D02*
X7865301Y-18952293D01*
X7865301Y-18952293D02*
X7855777Y-18990389D01*
X7855777Y-18990389D02*
X7846253Y-19009436D01*
X7846253Y-19009436D02*
X7836729Y-19018960D01*
X7836729Y-19018960D02*
X7817682Y-19028484D01*
X7817682Y-19028484D02*
X7798634Y-19028484D01*
X7798634Y-19028484D02*
X7779586Y-19018960D01*
X7779586Y-19018960D02*
X7770063Y-19009436D01*
X7770063Y-19009436D02*
X7760539Y-18990389D01*
X7760539Y-18990389D02*
X7751015Y-18952293D01*
X7751015Y-18952293D02*
X7751015Y-18904674D01*
X7751015Y-18904674D02*
X7760539Y-18866579D01*
X7760539Y-18866579D02*
X7770063Y-18847531D01*
X7770063Y-18847531D02*
X7779586Y-18838008D01*
X7779586Y-18838008D02*
X7798634Y-18828484D01*
X7951015Y-19009436D02*
X7960539Y-19018960D01*
X7960539Y-19018960D02*
X7951015Y-19028484D01*
X7951015Y-19028484D02*
X7941491Y-19018960D01*
X7941491Y-19018960D02*
X7951015Y-19009436D01*
X7951015Y-19009436D02*
X7951015Y-19028484D01*
X8084348Y-18828484D02*
X8103396Y-18828484D01*
X8103396Y-18828484D02*
X8122444Y-18838008D01*
X8122444Y-18838008D02*
X8131967Y-18847531D01*
X8131967Y-18847531D02*
X8141491Y-18866579D01*
X8141491Y-18866579D02*
X8151015Y-18904674D01*
X8151015Y-18904674D02*
X8151015Y-18952293D01*
X8151015Y-18952293D02*
X8141491Y-18990389D01*
X8141491Y-18990389D02*
X8131967Y-19009436D01*
X8131967Y-19009436D02*
X8122444Y-19018960D01*
X8122444Y-19018960D02*
X8103396Y-19028484D01*
X8103396Y-19028484D02*
X8084348Y-19028484D01*
X8084348Y-19028484D02*
X8065301Y-19018960D01*
X8065301Y-19018960D02*
X8055777Y-19009436D01*
X8055777Y-19009436D02*
X8046253Y-18990389D01*
X8046253Y-18990389D02*
X8036729Y-18952293D01*
X8036729Y-18952293D02*
X8036729Y-18904674D01*
X8036729Y-18904674D02*
X8046253Y-18866579D01*
X8046253Y-18866579D02*
X8055777Y-18847531D01*
X8055777Y-18847531D02*
X8065301Y-18838008D01*
X8065301Y-18838008D02*
X8084348Y-18828484D01*
X8217682Y-18828484D02*
X8341491Y-18828484D01*
X8341491Y-18828484D02*
X8274825Y-18904674D01*
X8274825Y-18904674D02*
X8303396Y-18904674D01*
X8303396Y-18904674D02*
X8322444Y-18914198D01*
X8322444Y-18914198D02*
X8331967Y-18923722D01*
X8331967Y-18923722D02*
X8341491Y-18942770D01*
X8341491Y-18942770D02*
X8341491Y-18990389D01*
X8341491Y-18990389D02*
X8331967Y-19009436D01*
X8331967Y-19009436D02*
X8322444Y-19018960D01*
X8322444Y-19018960D02*
X8303396Y-19028484D01*
X8303396Y-19028484D02*
X8246253Y-19028484D01*
X8246253Y-19028484D02*
X8227206Y-19018960D01*
X8227206Y-19018960D02*
X8217682Y-19009436D01*
X8436729Y-19028484D02*
X8474825Y-19028484D01*
X8474825Y-19028484D02*
X8493872Y-19018960D01*
X8493872Y-19018960D02*
X8503396Y-19009436D01*
X8503396Y-19009436D02*
X8522444Y-18980865D01*
X8522444Y-18980865D02*
X8531968Y-18942770D01*
X8531968Y-18942770D02*
X8531968Y-18866579D01*
X8531968Y-18866579D02*
X8522444Y-18847531D01*
X8522444Y-18847531D02*
X8512920Y-18838008D01*
X8512920Y-18838008D02*
X8493872Y-18828484D01*
X8493872Y-18828484D02*
X8455777Y-18828484D01*
X8455777Y-18828484D02*
X8436729Y-18838008D01*
X8436729Y-18838008D02*
X8427206Y-18847531D01*
X8427206Y-18847531D02*
X8417682Y-18866579D01*
X8417682Y-18866579D02*
X8417682Y-18914198D01*
X8417682Y-18914198D02*
X8427206Y-18933246D01*
X8427206Y-18933246D02*
X8436729Y-18942770D01*
X8436729Y-18942770D02*
X8455777Y-18952293D01*
X8455777Y-18952293D02*
X8493872Y-18952293D01*
X8493872Y-18952293D02*
X8512920Y-18942770D01*
X8512920Y-18942770D02*
X8522444Y-18933246D01*
X8522444Y-18933246D02*
X8531968Y-18914198D01*
X8703396Y-18895150D02*
X8703396Y-19028484D01*
X8655777Y-18818960D02*
X8608158Y-18961817D01*
X8608158Y-18961817D02*
X8731968Y-18961817D01*
X8798634Y-18828484D02*
X8798634Y-18866579D01*
X8874825Y-18828484D02*
X8874825Y-18866579D01*
X9170063Y-19104674D02*
X9160539Y-19095150D01*
X9160539Y-19095150D02*
X9141491Y-19066579D01*
X9141491Y-19066579D02*
X9131968Y-19047531D01*
X9131968Y-19047531D02*
X9122444Y-19018960D01*
X9122444Y-19018960D02*
X9112920Y-18971341D01*
X9112920Y-18971341D02*
X9112920Y-18933246D01*
X9112920Y-18933246D02*
X9122444Y-18885627D01*
X9122444Y-18885627D02*
X9131968Y-18857055D01*
X9131968Y-18857055D02*
X9141491Y-18838008D01*
X9141491Y-18838008D02*
X9160539Y-18809436D01*
X9160539Y-18809436D02*
X9170063Y-18799912D01*
X9341491Y-18828484D02*
X9246253Y-18828484D01*
X9246253Y-18828484D02*
X9236730Y-18923722D01*
X9236730Y-18923722D02*
X9246253Y-18914198D01*
X9246253Y-18914198D02*
X9265301Y-18904674D01*
X9265301Y-18904674D02*
X9312920Y-18904674D01*
X9312920Y-18904674D02*
X9331968Y-18914198D01*
X9331968Y-18914198D02*
X9341491Y-18923722D01*
X9341491Y-18923722D02*
X9351015Y-18942770D01*
X9351015Y-18942770D02*
X9351015Y-18990389D01*
X9351015Y-18990389D02*
X9341491Y-19009436D01*
X9341491Y-19009436D02*
X9331968Y-19018960D01*
X9331968Y-19018960D02*
X9312920Y-19028484D01*
X9312920Y-19028484D02*
X9265301Y-19028484D01*
X9265301Y-19028484D02*
X9246253Y-19018960D01*
X9246253Y-19018960D02*
X9236730Y-19009436D01*
X9541491Y-19028484D02*
X9427206Y-19028484D01*
X9484349Y-19028484D02*
X9484349Y-18828484D01*
X9484349Y-18828484D02*
X9465301Y-18857055D01*
X9465301Y-18857055D02*
X9446253Y-18876103D01*
X9446253Y-18876103D02*
X9427206Y-18885627D01*
X9779587Y-19028484D02*
X9779587Y-18828484D01*
X9865301Y-19028484D02*
X9865301Y-18923722D01*
X9865301Y-18923722D02*
X9855777Y-18904674D01*
X9855777Y-18904674D02*
X9836730Y-18895150D01*
X9836730Y-18895150D02*
X9808158Y-18895150D01*
X9808158Y-18895150D02*
X9789111Y-18904674D01*
X9789111Y-18904674D02*
X9779587Y-18914198D01*
X9989111Y-19028484D02*
X9970063Y-19018960D01*
X9970063Y-19018960D02*
X9960539Y-19009436D01*
X9960539Y-19009436D02*
X9951015Y-18990389D01*
X9951015Y-18990389D02*
X9951015Y-18933246D01*
X9951015Y-18933246D02*
X9960539Y-18914198D01*
X9960539Y-18914198D02*
X9970063Y-18904674D01*
X9970063Y-18904674D02*
X9989111Y-18895150D01*
X9989111Y-18895150D02*
X10017682Y-18895150D01*
X10017682Y-18895150D02*
X10036730Y-18904674D01*
X10036730Y-18904674D02*
X10046253Y-18914198D01*
X10046253Y-18914198D02*
X10055777Y-18933246D01*
X10055777Y-18933246D02*
X10055777Y-18990389D01*
X10055777Y-18990389D02*
X10046253Y-19009436D01*
X10046253Y-19009436D02*
X10036730Y-19018960D01*
X10036730Y-19018960D02*
X10017682Y-19028484D01*
X10017682Y-19028484D02*
X9989111Y-19028484D01*
X10170063Y-19028484D02*
X10151015Y-19018960D01*
X10151015Y-19018960D02*
X10141492Y-18999912D01*
X10141492Y-18999912D02*
X10141492Y-18828484D01*
X10322444Y-19018960D02*
X10303396Y-19028484D01*
X10303396Y-19028484D02*
X10265301Y-19028484D01*
X10265301Y-19028484D02*
X10246253Y-19018960D01*
X10246253Y-19018960D02*
X10236730Y-18999912D01*
X10236730Y-18999912D02*
X10236730Y-18923722D01*
X10236730Y-18923722D02*
X10246253Y-18904674D01*
X10246253Y-18904674D02*
X10265301Y-18895150D01*
X10265301Y-18895150D02*
X10303396Y-18895150D01*
X10303396Y-18895150D02*
X10322444Y-18904674D01*
X10322444Y-18904674D02*
X10331968Y-18923722D01*
X10331968Y-18923722D02*
X10331968Y-18942770D01*
X10331968Y-18942770D02*
X10236730Y-18961817D01*
X10408158Y-19018960D02*
X10427206Y-19028484D01*
X10427206Y-19028484D02*
X10465301Y-19028484D01*
X10465301Y-19028484D02*
X10484349Y-19018960D01*
X10484349Y-19018960D02*
X10493873Y-18999912D01*
X10493873Y-18999912D02*
X10493873Y-18990389D01*
X10493873Y-18990389D02*
X10484349Y-18971341D01*
X10484349Y-18971341D02*
X10465301Y-18961817D01*
X10465301Y-18961817D02*
X10436730Y-18961817D01*
X10436730Y-18961817D02*
X10417682Y-18952293D01*
X10417682Y-18952293D02*
X10408158Y-18933246D01*
X10408158Y-18933246D02*
X10408158Y-18923722D01*
X10408158Y-18923722D02*
X10417682Y-18904674D01*
X10417682Y-18904674D02*
X10436730Y-18895150D01*
X10436730Y-18895150D02*
X10465301Y-18895150D01*
X10465301Y-18895150D02*
X10484349Y-18904674D01*
X10731968Y-18952293D02*
X10884349Y-18952293D01*
X10808158Y-19028484D02*
X10808158Y-18876103D01*
X11112920Y-18828484D02*
X11236730Y-18828484D01*
X11236730Y-18828484D02*
X11170063Y-18904674D01*
X11170063Y-18904674D02*
X11198634Y-18904674D01*
X11198634Y-18904674D02*
X11217682Y-18914198D01*
X11217682Y-18914198D02*
X11227206Y-18923722D01*
X11227206Y-18923722D02*
X11236730Y-18942770D01*
X11236730Y-18942770D02*
X11236730Y-18990389D01*
X11236730Y-18990389D02*
X11227206Y-19009436D01*
X11227206Y-19009436D02*
X11217682Y-19018960D01*
X11217682Y-19018960D02*
X11198634Y-19028484D01*
X11198634Y-19028484D02*
X11141492Y-19028484D01*
X11141492Y-19028484D02*
X11122444Y-19018960D01*
X11122444Y-19018960D02*
X11112920Y-19009436D01*
X11360539Y-18828484D02*
X11379587Y-18828484D01*
X11379587Y-18828484D02*
X11398634Y-18838008D01*
X11398634Y-18838008D02*
X11408158Y-18847531D01*
X11408158Y-18847531D02*
X11417682Y-18866579D01*
X11417682Y-18866579D02*
X11427206Y-18904674D01*
X11427206Y-18904674D02*
X11427206Y-18952293D01*
X11427206Y-18952293D02*
X11417682Y-18990389D01*
X11417682Y-18990389D02*
X11408158Y-19009436D01*
X11408158Y-19009436D02*
X11398634Y-19018960D01*
X11398634Y-19018960D02*
X11379587Y-19028484D01*
X11379587Y-19028484D02*
X11360539Y-19028484D01*
X11360539Y-19028484D02*
X11341492Y-19018960D01*
X11341492Y-19018960D02*
X11331968Y-19009436D01*
X11331968Y-19009436D02*
X11322444Y-18990389D01*
X11322444Y-18990389D02*
X11312920Y-18952293D01*
X11312920Y-18952293D02*
X11312920Y-18904674D01*
X11312920Y-18904674D02*
X11322444Y-18866579D01*
X11322444Y-18866579D02*
X11331968Y-18847531D01*
X11331968Y-18847531D02*
X11341492Y-18838008D01*
X11341492Y-18838008D02*
X11360539Y-18828484D01*
X11655777Y-19018960D02*
X11674825Y-19028484D01*
X11674825Y-19028484D02*
X11712920Y-19028484D01*
X11712920Y-19028484D02*
X11731968Y-19018960D01*
X11731968Y-19018960D02*
X11741492Y-18999912D01*
X11741492Y-18999912D02*
X11741492Y-18990389D01*
X11741492Y-18990389D02*
X11731968Y-18971341D01*
X11731968Y-18971341D02*
X11712920Y-18961817D01*
X11712920Y-18961817D02*
X11684349Y-18961817D01*
X11684349Y-18961817D02*
X11665301Y-18952293D01*
X11665301Y-18952293D02*
X11655777Y-18933246D01*
X11655777Y-18933246D02*
X11655777Y-18923722D01*
X11655777Y-18923722D02*
X11665301Y-18904674D01*
X11665301Y-18904674D02*
X11684349Y-18895150D01*
X11684349Y-18895150D02*
X11712920Y-18895150D01*
X11712920Y-18895150D02*
X11731968Y-18904674D01*
X11855777Y-19028484D02*
X11836730Y-19018960D01*
X11836730Y-19018960D02*
X11827206Y-18999912D01*
X11827206Y-18999912D02*
X11827206Y-18828484D01*
X11960539Y-19028484D02*
X11941492Y-19018960D01*
X11941492Y-19018960D02*
X11931968Y-19009436D01*
X11931968Y-19009436D02*
X11922444Y-18990389D01*
X11922444Y-18990389D02*
X11922444Y-18933246D01*
X11922444Y-18933246D02*
X11931968Y-18914198D01*
X11931968Y-18914198D02*
X11941492Y-18904674D01*
X11941492Y-18904674D02*
X11960539Y-18895150D01*
X11960539Y-18895150D02*
X11989111Y-18895150D01*
X11989111Y-18895150D02*
X12008158Y-18904674D01*
X12008158Y-18904674D02*
X12017682Y-18914198D01*
X12017682Y-18914198D02*
X12027206Y-18933246D01*
X12027206Y-18933246D02*
X12027206Y-18990389D01*
X12027206Y-18990389D02*
X12017682Y-19009436D01*
X12017682Y-19009436D02*
X12008158Y-19018960D01*
X12008158Y-19018960D02*
X11989111Y-19028484D01*
X11989111Y-19028484D02*
X11960539Y-19028484D01*
X12084349Y-18895150D02*
X12160539Y-18895150D01*
X12112920Y-18828484D02*
X12112920Y-18999912D01*
X12112920Y-18999912D02*
X12122444Y-19018960D01*
X12122444Y-19018960D02*
X12141492Y-19028484D01*
X12141492Y-19028484D02*
X12160539Y-19028484D01*
X12217682Y-19018960D02*
X12236730Y-19028484D01*
X12236730Y-19028484D02*
X12274825Y-19028484D01*
X12274825Y-19028484D02*
X12293873Y-19018960D01*
X12293873Y-19018960D02*
X12303396Y-18999912D01*
X12303396Y-18999912D02*
X12303396Y-18990389D01*
X12303396Y-18990389D02*
X12293873Y-18971341D01*
X12293873Y-18971341D02*
X12274825Y-18961817D01*
X12274825Y-18961817D02*
X12246254Y-18961817D01*
X12246254Y-18961817D02*
X12227206Y-18952293D01*
X12227206Y-18952293D02*
X12217682Y-18933246D01*
X12217682Y-18933246D02*
X12217682Y-18923722D01*
X12217682Y-18923722D02*
X12227206Y-18904674D01*
X12227206Y-18904674D02*
X12246254Y-18895150D01*
X12246254Y-18895150D02*
X12274825Y-18895150D01*
X12274825Y-18895150D02*
X12293873Y-18904674D01*
X12370063Y-19104674D02*
X12379587Y-19095150D01*
X12379587Y-19095150D02*
X12398635Y-19066579D01*
X12398635Y-19066579D02*
X12408158Y-19047531D01*
X12408158Y-19047531D02*
X12417682Y-19018960D01*
X12417682Y-19018960D02*
X12427206Y-18971341D01*
X12427206Y-18971341D02*
X12427206Y-18933246D01*
X12427206Y-18933246D02*
X12417682Y-18885627D01*
X12417682Y-18885627D02*
X12408158Y-18857055D01*
X12408158Y-18857055D02*
X12398635Y-18838008D01*
X12398635Y-18838008D02*
X12379587Y-18809436D01*
X12379587Y-18809436D02*
X12370063Y-18799912D01*
D12*
X5535000Y-19261000D02*
X5595000Y-19201000D01*
X5535000Y-19141000D01*
X5475000Y-19201000D01*
X5535000Y-19261000D01*
D11*
X5960539Y-19292484D02*
X5846253Y-19292484D01*
X5903396Y-19292484D02*
X5903396Y-19092484D01*
X5903396Y-19092484D02*
X5884348Y-19121055D01*
X5884348Y-19121055D02*
X5865301Y-19140103D01*
X5865301Y-19140103D02*
X5846253Y-19149627D01*
X6046253Y-19273436D02*
X6055777Y-19282960D01*
X6055777Y-19282960D02*
X6046253Y-19292484D01*
X6046253Y-19292484D02*
X6036729Y-19282960D01*
X6036729Y-19282960D02*
X6046253Y-19273436D01*
X6046253Y-19273436D02*
X6046253Y-19292484D01*
X6131967Y-19111531D02*
X6141491Y-19102008D01*
X6141491Y-19102008D02*
X6160539Y-19092484D01*
X6160539Y-19092484D02*
X6208158Y-19092484D01*
X6208158Y-19092484D02*
X6227205Y-19102008D01*
X6227205Y-19102008D02*
X6236729Y-19111531D01*
X6236729Y-19111531D02*
X6246253Y-19130579D01*
X6246253Y-19130579D02*
X6246253Y-19149627D01*
X6246253Y-19149627D02*
X6236729Y-19178198D01*
X6236729Y-19178198D02*
X6122443Y-19292484D01*
X6122443Y-19292484D02*
X6246253Y-19292484D01*
X6370062Y-19092484D02*
X6389110Y-19092484D01*
X6389110Y-19092484D02*
X6408158Y-19102008D01*
X6408158Y-19102008D02*
X6417682Y-19111531D01*
X6417682Y-19111531D02*
X6427205Y-19130579D01*
X6427205Y-19130579D02*
X6436729Y-19168674D01*
X6436729Y-19168674D02*
X6436729Y-19216293D01*
X6436729Y-19216293D02*
X6427205Y-19254389D01*
X6427205Y-19254389D02*
X6417682Y-19273436D01*
X6417682Y-19273436D02*
X6408158Y-19282960D01*
X6408158Y-19282960D02*
X6389110Y-19292484D01*
X6389110Y-19292484D02*
X6370062Y-19292484D01*
X6370062Y-19292484D02*
X6351015Y-19282960D01*
X6351015Y-19282960D02*
X6341491Y-19273436D01*
X6341491Y-19273436D02*
X6331967Y-19254389D01*
X6331967Y-19254389D02*
X6322443Y-19216293D01*
X6322443Y-19216293D02*
X6322443Y-19168674D01*
X6322443Y-19168674D02*
X6331967Y-19130579D01*
X6331967Y-19130579D02*
X6341491Y-19111531D01*
X6341491Y-19111531D02*
X6351015Y-19102008D01*
X6351015Y-19102008D02*
X6370062Y-19092484D01*
X6560539Y-19092484D02*
X6579586Y-19092484D01*
X6579586Y-19092484D02*
X6598634Y-19102008D01*
X6598634Y-19102008D02*
X6608158Y-19111531D01*
X6608158Y-19111531D02*
X6617682Y-19130579D01*
X6617682Y-19130579D02*
X6627205Y-19168674D01*
X6627205Y-19168674D02*
X6627205Y-19216293D01*
X6627205Y-19216293D02*
X6617682Y-19254389D01*
X6617682Y-19254389D02*
X6608158Y-19273436D01*
X6608158Y-19273436D02*
X6598634Y-19282960D01*
X6598634Y-19282960D02*
X6579586Y-19292484D01*
X6579586Y-19292484D02*
X6560539Y-19292484D01*
X6560539Y-19292484D02*
X6541491Y-19282960D01*
X6541491Y-19282960D02*
X6531967Y-19273436D01*
X6531967Y-19273436D02*
X6522443Y-19254389D01*
X6522443Y-19254389D02*
X6512920Y-19216293D01*
X6512920Y-19216293D02*
X6512920Y-19168674D01*
X6512920Y-19168674D02*
X6522443Y-19130579D01*
X6522443Y-19130579D02*
X6531967Y-19111531D01*
X6531967Y-19111531D02*
X6541491Y-19102008D01*
X6541491Y-19102008D02*
X6560539Y-19092484D01*
X6712920Y-19292484D02*
X6712920Y-19159150D01*
X6712920Y-19178198D02*
X6722443Y-19168674D01*
X6722443Y-19168674D02*
X6741491Y-19159150D01*
X6741491Y-19159150D02*
X6770063Y-19159150D01*
X6770063Y-19159150D02*
X6789110Y-19168674D01*
X6789110Y-19168674D02*
X6798634Y-19187722D01*
X6798634Y-19187722D02*
X6798634Y-19292484D01*
X6798634Y-19187722D02*
X6808158Y-19168674D01*
X6808158Y-19168674D02*
X6827205Y-19159150D01*
X6827205Y-19159150D02*
X6855777Y-19159150D01*
X6855777Y-19159150D02*
X6874824Y-19168674D01*
X6874824Y-19168674D02*
X6884348Y-19187722D01*
X6884348Y-19187722D02*
X6884348Y-19292484D01*
X6979586Y-19292484D02*
X6979586Y-19159150D01*
X6979586Y-19178198D02*
X6989110Y-19168674D01*
X6989110Y-19168674D02*
X7008158Y-19159150D01*
X7008158Y-19159150D02*
X7036729Y-19159150D01*
X7036729Y-19159150D02*
X7055777Y-19168674D01*
X7055777Y-19168674D02*
X7065301Y-19187722D01*
X7065301Y-19187722D02*
X7065301Y-19292484D01*
X7065301Y-19187722D02*
X7074824Y-19168674D01*
X7074824Y-19168674D02*
X7093872Y-19159150D01*
X7093872Y-19159150D02*
X7122443Y-19159150D01*
X7122443Y-19159150D02*
X7141491Y-19168674D01*
X7141491Y-19168674D02*
X7151015Y-19187722D01*
X7151015Y-19187722D02*
X7151015Y-19292484D01*
X7541491Y-19082960D02*
X7370063Y-19340103D01*
X7798634Y-19092484D02*
X7817682Y-19092484D01*
X7817682Y-19092484D02*
X7836729Y-19102008D01*
X7836729Y-19102008D02*
X7846253Y-19111531D01*
X7846253Y-19111531D02*
X7855777Y-19130579D01*
X7855777Y-19130579D02*
X7865301Y-19168674D01*
X7865301Y-19168674D02*
X7865301Y-19216293D01*
X7865301Y-19216293D02*
X7855777Y-19254389D01*
X7855777Y-19254389D02*
X7846253Y-19273436D01*
X7846253Y-19273436D02*
X7836729Y-19282960D01*
X7836729Y-19282960D02*
X7817682Y-19292484D01*
X7817682Y-19292484D02*
X7798634Y-19292484D01*
X7798634Y-19292484D02*
X7779586Y-19282960D01*
X7779586Y-19282960D02*
X7770063Y-19273436D01*
X7770063Y-19273436D02*
X7760539Y-19254389D01*
X7760539Y-19254389D02*
X7751015Y-19216293D01*
X7751015Y-19216293D02*
X7751015Y-19168674D01*
X7751015Y-19168674D02*
X7760539Y-19130579D01*
X7760539Y-19130579D02*
X7770063Y-19111531D01*
X7770063Y-19111531D02*
X7779586Y-19102008D01*
X7779586Y-19102008D02*
X7798634Y-19092484D01*
X7951015Y-19273436D02*
X7960539Y-19282960D01*
X7960539Y-19282960D02*
X7951015Y-19292484D01*
X7951015Y-19292484D02*
X7941491Y-19282960D01*
X7941491Y-19282960D02*
X7951015Y-19273436D01*
X7951015Y-19273436D02*
X7951015Y-19292484D01*
X8084348Y-19092484D02*
X8103396Y-19092484D01*
X8103396Y-19092484D02*
X8122444Y-19102008D01*
X8122444Y-19102008D02*
X8131967Y-19111531D01*
X8131967Y-19111531D02*
X8141491Y-19130579D01*
X8141491Y-19130579D02*
X8151015Y-19168674D01*
X8151015Y-19168674D02*
X8151015Y-19216293D01*
X8151015Y-19216293D02*
X8141491Y-19254389D01*
X8141491Y-19254389D02*
X8131967Y-19273436D01*
X8131967Y-19273436D02*
X8122444Y-19282960D01*
X8122444Y-19282960D02*
X8103396Y-19292484D01*
X8103396Y-19292484D02*
X8084348Y-19292484D01*
X8084348Y-19292484D02*
X8065301Y-19282960D01*
X8065301Y-19282960D02*
X8055777Y-19273436D01*
X8055777Y-19273436D02*
X8046253Y-19254389D01*
X8046253Y-19254389D02*
X8036729Y-19216293D01*
X8036729Y-19216293D02*
X8036729Y-19168674D01*
X8036729Y-19168674D02*
X8046253Y-19130579D01*
X8046253Y-19130579D02*
X8055777Y-19111531D01*
X8055777Y-19111531D02*
X8065301Y-19102008D01*
X8065301Y-19102008D02*
X8084348Y-19092484D01*
X8322444Y-19159150D02*
X8322444Y-19292484D01*
X8274825Y-19082960D02*
X8227206Y-19225817D01*
X8227206Y-19225817D02*
X8351015Y-19225817D01*
X8408158Y-19092484D02*
X8541491Y-19092484D01*
X8541491Y-19092484D02*
X8455777Y-19292484D01*
X8608158Y-19111531D02*
X8617682Y-19102008D01*
X8617682Y-19102008D02*
X8636729Y-19092484D01*
X8636729Y-19092484D02*
X8684349Y-19092484D01*
X8684349Y-19092484D02*
X8703396Y-19102008D01*
X8703396Y-19102008D02*
X8712920Y-19111531D01*
X8712920Y-19111531D02*
X8722444Y-19130579D01*
X8722444Y-19130579D02*
X8722444Y-19149627D01*
X8722444Y-19149627D02*
X8712920Y-19178198D01*
X8712920Y-19178198D02*
X8598634Y-19292484D01*
X8598634Y-19292484D02*
X8722444Y-19292484D01*
X8798634Y-19092484D02*
X8798634Y-19130579D01*
X8874825Y-19092484D02*
X8874825Y-19130579D01*
X9170063Y-19368674D02*
X9160539Y-19359150D01*
X9160539Y-19359150D02*
X9141491Y-19330579D01*
X9141491Y-19330579D02*
X9131968Y-19311531D01*
X9131968Y-19311531D02*
X9122444Y-19282960D01*
X9122444Y-19282960D02*
X9112920Y-19235341D01*
X9112920Y-19235341D02*
X9112920Y-19197246D01*
X9112920Y-19197246D02*
X9122444Y-19149627D01*
X9122444Y-19149627D02*
X9131968Y-19121055D01*
X9131968Y-19121055D02*
X9141491Y-19102008D01*
X9141491Y-19102008D02*
X9160539Y-19073436D01*
X9160539Y-19073436D02*
X9170063Y-19063912D01*
X9341491Y-19092484D02*
X9246253Y-19092484D01*
X9246253Y-19092484D02*
X9236730Y-19187722D01*
X9236730Y-19187722D02*
X9246253Y-19178198D01*
X9246253Y-19178198D02*
X9265301Y-19168674D01*
X9265301Y-19168674D02*
X9312920Y-19168674D01*
X9312920Y-19168674D02*
X9331968Y-19178198D01*
X9331968Y-19178198D02*
X9341491Y-19187722D01*
X9341491Y-19187722D02*
X9351015Y-19206770D01*
X9351015Y-19206770D02*
X9351015Y-19254389D01*
X9351015Y-19254389D02*
X9341491Y-19273436D01*
X9341491Y-19273436D02*
X9331968Y-19282960D01*
X9331968Y-19282960D02*
X9312920Y-19292484D01*
X9312920Y-19292484D02*
X9265301Y-19292484D01*
X9265301Y-19292484D02*
X9246253Y-19282960D01*
X9246253Y-19282960D02*
X9236730Y-19273436D01*
X9589111Y-19292484D02*
X9589111Y-19092484D01*
X9674825Y-19292484D02*
X9674825Y-19187722D01*
X9674825Y-19187722D02*
X9665301Y-19168674D01*
X9665301Y-19168674D02*
X9646253Y-19159150D01*
X9646253Y-19159150D02*
X9617682Y-19159150D01*
X9617682Y-19159150D02*
X9598634Y-19168674D01*
X9598634Y-19168674D02*
X9589111Y-19178198D01*
X9798634Y-19292484D02*
X9779587Y-19282960D01*
X9779587Y-19282960D02*
X9770063Y-19273436D01*
X9770063Y-19273436D02*
X9760539Y-19254389D01*
X9760539Y-19254389D02*
X9760539Y-19197246D01*
X9760539Y-19197246D02*
X9770063Y-19178198D01*
X9770063Y-19178198D02*
X9779587Y-19168674D01*
X9779587Y-19168674D02*
X9798634Y-19159150D01*
X9798634Y-19159150D02*
X9827206Y-19159150D01*
X9827206Y-19159150D02*
X9846253Y-19168674D01*
X9846253Y-19168674D02*
X9855777Y-19178198D01*
X9855777Y-19178198D02*
X9865301Y-19197246D01*
X9865301Y-19197246D02*
X9865301Y-19254389D01*
X9865301Y-19254389D02*
X9855777Y-19273436D01*
X9855777Y-19273436D02*
X9846253Y-19282960D01*
X9846253Y-19282960D02*
X9827206Y-19292484D01*
X9827206Y-19292484D02*
X9798634Y-19292484D01*
X9979587Y-19292484D02*
X9960539Y-19282960D01*
X9960539Y-19282960D02*
X9951015Y-19263912D01*
X9951015Y-19263912D02*
X9951015Y-19092484D01*
X10131968Y-19282960D02*
X10112920Y-19292484D01*
X10112920Y-19292484D02*
X10074825Y-19292484D01*
X10074825Y-19292484D02*
X10055777Y-19282960D01*
X10055777Y-19282960D02*
X10046253Y-19263912D01*
X10046253Y-19263912D02*
X10046253Y-19187722D01*
X10046253Y-19187722D02*
X10055777Y-19168674D01*
X10055777Y-19168674D02*
X10074825Y-19159150D01*
X10074825Y-19159150D02*
X10112920Y-19159150D01*
X10112920Y-19159150D02*
X10131968Y-19168674D01*
X10131968Y-19168674D02*
X10141492Y-19187722D01*
X10141492Y-19187722D02*
X10141492Y-19206770D01*
X10141492Y-19206770D02*
X10046253Y-19225817D01*
X10217682Y-19282960D02*
X10236730Y-19292484D01*
X10236730Y-19292484D02*
X10274825Y-19292484D01*
X10274825Y-19292484D02*
X10293873Y-19282960D01*
X10293873Y-19282960D02*
X10303396Y-19263912D01*
X10303396Y-19263912D02*
X10303396Y-19254389D01*
X10303396Y-19254389D02*
X10293873Y-19235341D01*
X10293873Y-19235341D02*
X10274825Y-19225817D01*
X10274825Y-19225817D02*
X10246253Y-19225817D01*
X10246253Y-19225817D02*
X10227206Y-19216293D01*
X10227206Y-19216293D02*
X10217682Y-19197246D01*
X10217682Y-19197246D02*
X10217682Y-19187722D01*
X10217682Y-19187722D02*
X10227206Y-19168674D01*
X10227206Y-19168674D02*
X10246253Y-19159150D01*
X10246253Y-19159150D02*
X10274825Y-19159150D01*
X10274825Y-19159150D02*
X10293873Y-19168674D01*
X10370063Y-19368674D02*
X10379587Y-19359150D01*
X10379587Y-19359150D02*
X10398634Y-19330579D01*
X10398634Y-19330579D02*
X10408158Y-19311531D01*
X10408158Y-19311531D02*
X10417682Y-19282960D01*
X10417682Y-19282960D02*
X10427206Y-19235341D01*
X10427206Y-19235341D02*
X10427206Y-19197246D01*
X10427206Y-19197246D02*
X10417682Y-19149627D01*
X10417682Y-19149627D02*
X10408158Y-19121055D01*
X10408158Y-19121055D02*
X10398634Y-19102008D01*
X10398634Y-19102008D02*
X10379587Y-19073436D01*
X10379587Y-19073436D02*
X10370063Y-19063912D01*
D13*
X5464998Y-19399999D02*
X5595000Y-19530001D01*
X5595000Y-19399999D02*
X5464998Y-19530001D01*
X5595000Y-19465000D02*
G75*
G02*
X5464998Y-19465000I-65001J0D01*
G01*
X5464998Y-19465000D02*
G75*
G02*
X5595000Y-19465000I65001J0D01*
G01*
D11*
X5960539Y-19556484D02*
X5846253Y-19556484D01*
X5903396Y-19556484D02*
X5903396Y-19356484D01*
X5903396Y-19356484D02*
X5884348Y-19385055D01*
X5884348Y-19385055D02*
X5865301Y-19404103D01*
X5865301Y-19404103D02*
X5846253Y-19413627D01*
X6046253Y-19537436D02*
X6055777Y-19546960D01*
X6055777Y-19546960D02*
X6046253Y-19556484D01*
X6046253Y-19556484D02*
X6036729Y-19546960D01*
X6036729Y-19546960D02*
X6046253Y-19537436D01*
X6046253Y-19537436D02*
X6046253Y-19556484D01*
X6122443Y-19356484D02*
X6246253Y-19356484D01*
X6246253Y-19356484D02*
X6179586Y-19432674D01*
X6179586Y-19432674D02*
X6208158Y-19432674D01*
X6208158Y-19432674D02*
X6227205Y-19442198D01*
X6227205Y-19442198D02*
X6236729Y-19451722D01*
X6236729Y-19451722D02*
X6246253Y-19470770D01*
X6246253Y-19470770D02*
X6246253Y-19518389D01*
X6246253Y-19518389D02*
X6236729Y-19537436D01*
X6236729Y-19537436D02*
X6227205Y-19546960D01*
X6227205Y-19546960D02*
X6208158Y-19556484D01*
X6208158Y-19556484D02*
X6151015Y-19556484D01*
X6151015Y-19556484D02*
X6131967Y-19546960D01*
X6131967Y-19546960D02*
X6122443Y-19537436D01*
X6370062Y-19356484D02*
X6389110Y-19356484D01*
X6389110Y-19356484D02*
X6408158Y-19366008D01*
X6408158Y-19366008D02*
X6417682Y-19375531D01*
X6417682Y-19375531D02*
X6427205Y-19394579D01*
X6427205Y-19394579D02*
X6436729Y-19432674D01*
X6436729Y-19432674D02*
X6436729Y-19480293D01*
X6436729Y-19480293D02*
X6427205Y-19518389D01*
X6427205Y-19518389D02*
X6417682Y-19537436D01*
X6417682Y-19537436D02*
X6408158Y-19546960D01*
X6408158Y-19546960D02*
X6389110Y-19556484D01*
X6389110Y-19556484D02*
X6370062Y-19556484D01*
X6370062Y-19556484D02*
X6351015Y-19546960D01*
X6351015Y-19546960D02*
X6341491Y-19537436D01*
X6341491Y-19537436D02*
X6331967Y-19518389D01*
X6331967Y-19518389D02*
X6322443Y-19480293D01*
X6322443Y-19480293D02*
X6322443Y-19432674D01*
X6322443Y-19432674D02*
X6331967Y-19394579D01*
X6331967Y-19394579D02*
X6341491Y-19375531D01*
X6341491Y-19375531D02*
X6351015Y-19366008D01*
X6351015Y-19366008D02*
X6370062Y-19356484D01*
X6560539Y-19356484D02*
X6579586Y-19356484D01*
X6579586Y-19356484D02*
X6598634Y-19366008D01*
X6598634Y-19366008D02*
X6608158Y-19375531D01*
X6608158Y-19375531D02*
X6617682Y-19394579D01*
X6617682Y-19394579D02*
X6627205Y-19432674D01*
X6627205Y-19432674D02*
X6627205Y-19480293D01*
X6627205Y-19480293D02*
X6617682Y-19518389D01*
X6617682Y-19518389D02*
X6608158Y-19537436D01*
X6608158Y-19537436D02*
X6598634Y-19546960D01*
X6598634Y-19546960D02*
X6579586Y-19556484D01*
X6579586Y-19556484D02*
X6560539Y-19556484D01*
X6560539Y-19556484D02*
X6541491Y-19546960D01*
X6541491Y-19546960D02*
X6531967Y-19537436D01*
X6531967Y-19537436D02*
X6522443Y-19518389D01*
X6522443Y-19518389D02*
X6512920Y-19480293D01*
X6512920Y-19480293D02*
X6512920Y-19432674D01*
X6512920Y-19432674D02*
X6522443Y-19394579D01*
X6522443Y-19394579D02*
X6531967Y-19375531D01*
X6531967Y-19375531D02*
X6541491Y-19366008D01*
X6541491Y-19366008D02*
X6560539Y-19356484D01*
X6712920Y-19556484D02*
X6712920Y-19423150D01*
X6712920Y-19442198D02*
X6722443Y-19432674D01*
X6722443Y-19432674D02*
X6741491Y-19423150D01*
X6741491Y-19423150D02*
X6770063Y-19423150D01*
X6770063Y-19423150D02*
X6789110Y-19432674D01*
X6789110Y-19432674D02*
X6798634Y-19451722D01*
X6798634Y-19451722D02*
X6798634Y-19556484D01*
X6798634Y-19451722D02*
X6808158Y-19432674D01*
X6808158Y-19432674D02*
X6827205Y-19423150D01*
X6827205Y-19423150D02*
X6855777Y-19423150D01*
X6855777Y-19423150D02*
X6874824Y-19432674D01*
X6874824Y-19432674D02*
X6884348Y-19451722D01*
X6884348Y-19451722D02*
X6884348Y-19556484D01*
X6979586Y-19556484D02*
X6979586Y-19423150D01*
X6979586Y-19442198D02*
X6989110Y-19432674D01*
X6989110Y-19432674D02*
X7008158Y-19423150D01*
X7008158Y-19423150D02*
X7036729Y-19423150D01*
X7036729Y-19423150D02*
X7055777Y-19432674D01*
X7055777Y-19432674D02*
X7065301Y-19451722D01*
X7065301Y-19451722D02*
X7065301Y-19556484D01*
X7065301Y-19451722D02*
X7074824Y-19432674D01*
X7074824Y-19432674D02*
X7093872Y-19423150D01*
X7093872Y-19423150D02*
X7122443Y-19423150D01*
X7122443Y-19423150D02*
X7141491Y-19432674D01*
X7141491Y-19432674D02*
X7151015Y-19451722D01*
X7151015Y-19451722D02*
X7151015Y-19556484D01*
X7541491Y-19346960D02*
X7370063Y-19604103D01*
X7798634Y-19356484D02*
X7817682Y-19356484D01*
X7817682Y-19356484D02*
X7836729Y-19366008D01*
X7836729Y-19366008D02*
X7846253Y-19375531D01*
X7846253Y-19375531D02*
X7855777Y-19394579D01*
X7855777Y-19394579D02*
X7865301Y-19432674D01*
X7865301Y-19432674D02*
X7865301Y-19480293D01*
X7865301Y-19480293D02*
X7855777Y-19518389D01*
X7855777Y-19518389D02*
X7846253Y-19537436D01*
X7846253Y-19537436D02*
X7836729Y-19546960D01*
X7836729Y-19546960D02*
X7817682Y-19556484D01*
X7817682Y-19556484D02*
X7798634Y-19556484D01*
X7798634Y-19556484D02*
X7779586Y-19546960D01*
X7779586Y-19546960D02*
X7770063Y-19537436D01*
X7770063Y-19537436D02*
X7760539Y-19518389D01*
X7760539Y-19518389D02*
X7751015Y-19480293D01*
X7751015Y-19480293D02*
X7751015Y-19432674D01*
X7751015Y-19432674D02*
X7760539Y-19394579D01*
X7760539Y-19394579D02*
X7770063Y-19375531D01*
X7770063Y-19375531D02*
X7779586Y-19366008D01*
X7779586Y-19366008D02*
X7798634Y-19356484D01*
X7951015Y-19537436D02*
X7960539Y-19546960D01*
X7960539Y-19546960D02*
X7951015Y-19556484D01*
X7951015Y-19556484D02*
X7941491Y-19546960D01*
X7941491Y-19546960D02*
X7951015Y-19537436D01*
X7951015Y-19537436D02*
X7951015Y-19556484D01*
X8084348Y-19356484D02*
X8103396Y-19356484D01*
X8103396Y-19356484D02*
X8122444Y-19366008D01*
X8122444Y-19366008D02*
X8131967Y-19375531D01*
X8131967Y-19375531D02*
X8141491Y-19394579D01*
X8141491Y-19394579D02*
X8151015Y-19432674D01*
X8151015Y-19432674D02*
X8151015Y-19480293D01*
X8151015Y-19480293D02*
X8141491Y-19518389D01*
X8141491Y-19518389D02*
X8131967Y-19537436D01*
X8131967Y-19537436D02*
X8122444Y-19546960D01*
X8122444Y-19546960D02*
X8103396Y-19556484D01*
X8103396Y-19556484D02*
X8084348Y-19556484D01*
X8084348Y-19556484D02*
X8065301Y-19546960D01*
X8065301Y-19546960D02*
X8055777Y-19537436D01*
X8055777Y-19537436D02*
X8046253Y-19518389D01*
X8046253Y-19518389D02*
X8036729Y-19480293D01*
X8036729Y-19480293D02*
X8036729Y-19432674D01*
X8036729Y-19432674D02*
X8046253Y-19394579D01*
X8046253Y-19394579D02*
X8055777Y-19375531D01*
X8055777Y-19375531D02*
X8065301Y-19366008D01*
X8065301Y-19366008D02*
X8084348Y-19356484D01*
X8331967Y-19356484D02*
X8236729Y-19356484D01*
X8236729Y-19356484D02*
X8227206Y-19451722D01*
X8227206Y-19451722D02*
X8236729Y-19442198D01*
X8236729Y-19442198D02*
X8255777Y-19432674D01*
X8255777Y-19432674D02*
X8303396Y-19432674D01*
X8303396Y-19432674D02*
X8322444Y-19442198D01*
X8322444Y-19442198D02*
X8331967Y-19451722D01*
X8331967Y-19451722D02*
X8341491Y-19470770D01*
X8341491Y-19470770D02*
X8341491Y-19518389D01*
X8341491Y-19518389D02*
X8331967Y-19537436D01*
X8331967Y-19537436D02*
X8322444Y-19546960D01*
X8322444Y-19546960D02*
X8303396Y-19556484D01*
X8303396Y-19556484D02*
X8255777Y-19556484D01*
X8255777Y-19556484D02*
X8236729Y-19546960D01*
X8236729Y-19546960D02*
X8227206Y-19537436D01*
X8531968Y-19556484D02*
X8417682Y-19556484D01*
X8474825Y-19556484D02*
X8474825Y-19356484D01*
X8474825Y-19356484D02*
X8455777Y-19385055D01*
X8455777Y-19385055D02*
X8436729Y-19404103D01*
X8436729Y-19404103D02*
X8417682Y-19413627D01*
X8608158Y-19375531D02*
X8617682Y-19366008D01*
X8617682Y-19366008D02*
X8636729Y-19356484D01*
X8636729Y-19356484D02*
X8684349Y-19356484D01*
X8684349Y-19356484D02*
X8703396Y-19366008D01*
X8703396Y-19366008D02*
X8712920Y-19375531D01*
X8712920Y-19375531D02*
X8722444Y-19394579D01*
X8722444Y-19394579D02*
X8722444Y-19413627D01*
X8722444Y-19413627D02*
X8712920Y-19442198D01*
X8712920Y-19442198D02*
X8598634Y-19556484D01*
X8598634Y-19556484D02*
X8722444Y-19556484D01*
X8798634Y-19356484D02*
X8798634Y-19394579D01*
X8874825Y-19356484D02*
X8874825Y-19394579D01*
X9170063Y-19632674D02*
X9160539Y-19623150D01*
X9160539Y-19623150D02*
X9141491Y-19594579D01*
X9141491Y-19594579D02*
X9131968Y-19575531D01*
X9131968Y-19575531D02*
X9122444Y-19546960D01*
X9122444Y-19546960D02*
X9112920Y-19499341D01*
X9112920Y-19499341D02*
X9112920Y-19461246D01*
X9112920Y-19461246D02*
X9122444Y-19413627D01*
X9122444Y-19413627D02*
X9131968Y-19385055D01*
X9131968Y-19385055D02*
X9141491Y-19366008D01*
X9141491Y-19366008D02*
X9160539Y-19337436D01*
X9160539Y-19337436D02*
X9170063Y-19327912D01*
X9341491Y-19356484D02*
X9246253Y-19356484D01*
X9246253Y-19356484D02*
X9236730Y-19451722D01*
X9236730Y-19451722D02*
X9246253Y-19442198D01*
X9246253Y-19442198D02*
X9265301Y-19432674D01*
X9265301Y-19432674D02*
X9312920Y-19432674D01*
X9312920Y-19432674D02*
X9331968Y-19442198D01*
X9331968Y-19442198D02*
X9341491Y-19451722D01*
X9341491Y-19451722D02*
X9351015Y-19470770D01*
X9351015Y-19470770D02*
X9351015Y-19518389D01*
X9351015Y-19518389D02*
X9341491Y-19537436D01*
X9341491Y-19537436D02*
X9331968Y-19546960D01*
X9331968Y-19546960D02*
X9312920Y-19556484D01*
X9312920Y-19556484D02*
X9265301Y-19556484D01*
X9265301Y-19556484D02*
X9246253Y-19546960D01*
X9246253Y-19546960D02*
X9236730Y-19537436D01*
X9589111Y-19556484D02*
X9589111Y-19356484D01*
X9674825Y-19556484D02*
X9674825Y-19451722D01*
X9674825Y-19451722D02*
X9665301Y-19432674D01*
X9665301Y-19432674D02*
X9646253Y-19423150D01*
X9646253Y-19423150D02*
X9617682Y-19423150D01*
X9617682Y-19423150D02*
X9598634Y-19432674D01*
X9598634Y-19432674D02*
X9589111Y-19442198D01*
X9798634Y-19556484D02*
X9779587Y-19546960D01*
X9779587Y-19546960D02*
X9770063Y-19537436D01*
X9770063Y-19537436D02*
X9760539Y-19518389D01*
X9760539Y-19518389D02*
X9760539Y-19461246D01*
X9760539Y-19461246D02*
X9770063Y-19442198D01*
X9770063Y-19442198D02*
X9779587Y-19432674D01*
X9779587Y-19432674D02*
X9798634Y-19423150D01*
X9798634Y-19423150D02*
X9827206Y-19423150D01*
X9827206Y-19423150D02*
X9846253Y-19432674D01*
X9846253Y-19432674D02*
X9855777Y-19442198D01*
X9855777Y-19442198D02*
X9865301Y-19461246D01*
X9865301Y-19461246D02*
X9865301Y-19518389D01*
X9865301Y-19518389D02*
X9855777Y-19537436D01*
X9855777Y-19537436D02*
X9846253Y-19546960D01*
X9846253Y-19546960D02*
X9827206Y-19556484D01*
X9827206Y-19556484D02*
X9798634Y-19556484D01*
X9979587Y-19556484D02*
X9960539Y-19546960D01*
X9960539Y-19546960D02*
X9951015Y-19527912D01*
X9951015Y-19527912D02*
X9951015Y-19356484D01*
X10131968Y-19546960D02*
X10112920Y-19556484D01*
X10112920Y-19556484D02*
X10074825Y-19556484D01*
X10074825Y-19556484D02*
X10055777Y-19546960D01*
X10055777Y-19546960D02*
X10046253Y-19527912D01*
X10046253Y-19527912D02*
X10046253Y-19451722D01*
X10046253Y-19451722D02*
X10055777Y-19432674D01*
X10055777Y-19432674D02*
X10074825Y-19423150D01*
X10074825Y-19423150D02*
X10112920Y-19423150D01*
X10112920Y-19423150D02*
X10131968Y-19432674D01*
X10131968Y-19432674D02*
X10141492Y-19451722D01*
X10141492Y-19451722D02*
X10141492Y-19470770D01*
X10141492Y-19470770D02*
X10046253Y-19489817D01*
X10217682Y-19546960D02*
X10236730Y-19556484D01*
X10236730Y-19556484D02*
X10274825Y-19556484D01*
X10274825Y-19556484D02*
X10293873Y-19546960D01*
X10293873Y-19546960D02*
X10303396Y-19527912D01*
X10303396Y-19527912D02*
X10303396Y-19518389D01*
X10303396Y-19518389D02*
X10293873Y-19499341D01*
X10293873Y-19499341D02*
X10274825Y-19489817D01*
X10274825Y-19489817D02*
X10246253Y-19489817D01*
X10246253Y-19489817D02*
X10227206Y-19480293D01*
X10227206Y-19480293D02*
X10217682Y-19461246D01*
X10217682Y-19461246D02*
X10217682Y-19451722D01*
X10217682Y-19451722D02*
X10227206Y-19432674D01*
X10227206Y-19432674D02*
X10246253Y-19423150D01*
X10246253Y-19423150D02*
X10274825Y-19423150D01*
X10274825Y-19423150D02*
X10293873Y-19432674D01*
X10370063Y-19632674D02*
X10379587Y-19623150D01*
X10379587Y-19623150D02*
X10398634Y-19594579D01*
X10398634Y-19594579D02*
X10408158Y-19575531D01*
X10408158Y-19575531D02*
X10417682Y-19546960D01*
X10417682Y-19546960D02*
X10427206Y-19499341D01*
X10427206Y-19499341D02*
X10427206Y-19461246D01*
X10427206Y-19461246D02*
X10417682Y-19413627D01*
X10417682Y-19413627D02*
X10408158Y-19385055D01*
X10408158Y-19385055D02*
X10398634Y-19366008D01*
X10398634Y-19366008D02*
X10379587Y-19337436D01*
X10379587Y-19337436D02*
X10370063Y-19327912D01*
D14*
X5424998Y-19643999D02*
X5595000Y-19814001D01*
X5595000Y-19643999D02*
X5424998Y-19814001D01*
X5509999Y-19643999D02*
X5509999Y-19814001D01*
X5424998Y-19729000D02*
X5595000Y-19729000D01*
D11*
X5960539Y-19820484D02*
X5846253Y-19820484D01*
X5903396Y-19820484D02*
X5903396Y-19620484D01*
X5903396Y-19620484D02*
X5884348Y-19649055D01*
X5884348Y-19649055D02*
X5865301Y-19668103D01*
X5865301Y-19668103D02*
X5846253Y-19677627D01*
X6046253Y-19801436D02*
X6055777Y-19810960D01*
X6055777Y-19810960D02*
X6046253Y-19820484D01*
X6046253Y-19820484D02*
X6036729Y-19810960D01*
X6036729Y-19810960D02*
X6046253Y-19801436D01*
X6046253Y-19801436D02*
X6046253Y-19820484D01*
X6122443Y-19620484D02*
X6255777Y-19620484D01*
X6255777Y-19620484D02*
X6170062Y-19820484D01*
X6370062Y-19620484D02*
X6389110Y-19620484D01*
X6389110Y-19620484D02*
X6408158Y-19630008D01*
X6408158Y-19630008D02*
X6417682Y-19639531D01*
X6417682Y-19639531D02*
X6427205Y-19658579D01*
X6427205Y-19658579D02*
X6436729Y-19696674D01*
X6436729Y-19696674D02*
X6436729Y-19744293D01*
X6436729Y-19744293D02*
X6427205Y-19782389D01*
X6427205Y-19782389D02*
X6417682Y-19801436D01*
X6417682Y-19801436D02*
X6408158Y-19810960D01*
X6408158Y-19810960D02*
X6389110Y-19820484D01*
X6389110Y-19820484D02*
X6370062Y-19820484D01*
X6370062Y-19820484D02*
X6351015Y-19810960D01*
X6351015Y-19810960D02*
X6341491Y-19801436D01*
X6341491Y-19801436D02*
X6331967Y-19782389D01*
X6331967Y-19782389D02*
X6322443Y-19744293D01*
X6322443Y-19744293D02*
X6322443Y-19696674D01*
X6322443Y-19696674D02*
X6331967Y-19658579D01*
X6331967Y-19658579D02*
X6341491Y-19639531D01*
X6341491Y-19639531D02*
X6351015Y-19630008D01*
X6351015Y-19630008D02*
X6370062Y-19620484D01*
X6560539Y-19620484D02*
X6579586Y-19620484D01*
X6579586Y-19620484D02*
X6598634Y-19630008D01*
X6598634Y-19630008D02*
X6608158Y-19639531D01*
X6608158Y-19639531D02*
X6617682Y-19658579D01*
X6617682Y-19658579D02*
X6627205Y-19696674D01*
X6627205Y-19696674D02*
X6627205Y-19744293D01*
X6627205Y-19744293D02*
X6617682Y-19782389D01*
X6617682Y-19782389D02*
X6608158Y-19801436D01*
X6608158Y-19801436D02*
X6598634Y-19810960D01*
X6598634Y-19810960D02*
X6579586Y-19820484D01*
X6579586Y-19820484D02*
X6560539Y-19820484D01*
X6560539Y-19820484D02*
X6541491Y-19810960D01*
X6541491Y-19810960D02*
X6531967Y-19801436D01*
X6531967Y-19801436D02*
X6522443Y-19782389D01*
X6522443Y-19782389D02*
X6512920Y-19744293D01*
X6512920Y-19744293D02*
X6512920Y-19696674D01*
X6512920Y-19696674D02*
X6522443Y-19658579D01*
X6522443Y-19658579D02*
X6531967Y-19639531D01*
X6531967Y-19639531D02*
X6541491Y-19630008D01*
X6541491Y-19630008D02*
X6560539Y-19620484D01*
X6712920Y-19820484D02*
X6712920Y-19687150D01*
X6712920Y-19706198D02*
X6722443Y-19696674D01*
X6722443Y-19696674D02*
X6741491Y-19687150D01*
X6741491Y-19687150D02*
X6770063Y-19687150D01*
X6770063Y-19687150D02*
X6789110Y-19696674D01*
X6789110Y-19696674D02*
X6798634Y-19715722D01*
X6798634Y-19715722D02*
X6798634Y-19820484D01*
X6798634Y-19715722D02*
X6808158Y-19696674D01*
X6808158Y-19696674D02*
X6827205Y-19687150D01*
X6827205Y-19687150D02*
X6855777Y-19687150D01*
X6855777Y-19687150D02*
X6874824Y-19696674D01*
X6874824Y-19696674D02*
X6884348Y-19715722D01*
X6884348Y-19715722D02*
X6884348Y-19820484D01*
X6979586Y-19820484D02*
X6979586Y-19687150D01*
X6979586Y-19706198D02*
X6989110Y-19696674D01*
X6989110Y-19696674D02*
X7008158Y-19687150D01*
X7008158Y-19687150D02*
X7036729Y-19687150D01*
X7036729Y-19687150D02*
X7055777Y-19696674D01*
X7055777Y-19696674D02*
X7065301Y-19715722D01*
X7065301Y-19715722D02*
X7065301Y-19820484D01*
X7065301Y-19715722D02*
X7074824Y-19696674D01*
X7074824Y-19696674D02*
X7093872Y-19687150D01*
X7093872Y-19687150D02*
X7122443Y-19687150D01*
X7122443Y-19687150D02*
X7141491Y-19696674D01*
X7141491Y-19696674D02*
X7151015Y-19715722D01*
X7151015Y-19715722D02*
X7151015Y-19820484D01*
X7541491Y-19610960D02*
X7370063Y-19868103D01*
X7798634Y-19620484D02*
X7817682Y-19620484D01*
X7817682Y-19620484D02*
X7836729Y-19630008D01*
X7836729Y-19630008D02*
X7846253Y-19639531D01*
X7846253Y-19639531D02*
X7855777Y-19658579D01*
X7855777Y-19658579D02*
X7865301Y-19696674D01*
X7865301Y-19696674D02*
X7865301Y-19744293D01*
X7865301Y-19744293D02*
X7855777Y-19782389D01*
X7855777Y-19782389D02*
X7846253Y-19801436D01*
X7846253Y-19801436D02*
X7836729Y-19810960D01*
X7836729Y-19810960D02*
X7817682Y-19820484D01*
X7817682Y-19820484D02*
X7798634Y-19820484D01*
X7798634Y-19820484D02*
X7779586Y-19810960D01*
X7779586Y-19810960D02*
X7770063Y-19801436D01*
X7770063Y-19801436D02*
X7760539Y-19782389D01*
X7760539Y-19782389D02*
X7751015Y-19744293D01*
X7751015Y-19744293D02*
X7751015Y-19696674D01*
X7751015Y-19696674D02*
X7760539Y-19658579D01*
X7760539Y-19658579D02*
X7770063Y-19639531D01*
X7770063Y-19639531D02*
X7779586Y-19630008D01*
X7779586Y-19630008D02*
X7798634Y-19620484D01*
X7951015Y-19801436D02*
X7960539Y-19810960D01*
X7960539Y-19810960D02*
X7951015Y-19820484D01*
X7951015Y-19820484D02*
X7941491Y-19810960D01*
X7941491Y-19810960D02*
X7951015Y-19801436D01*
X7951015Y-19801436D02*
X7951015Y-19820484D01*
X8084348Y-19620484D02*
X8103396Y-19620484D01*
X8103396Y-19620484D02*
X8122444Y-19630008D01*
X8122444Y-19630008D02*
X8131967Y-19639531D01*
X8131967Y-19639531D02*
X8141491Y-19658579D01*
X8141491Y-19658579D02*
X8151015Y-19696674D01*
X8151015Y-19696674D02*
X8151015Y-19744293D01*
X8151015Y-19744293D02*
X8141491Y-19782389D01*
X8141491Y-19782389D02*
X8131967Y-19801436D01*
X8131967Y-19801436D02*
X8122444Y-19810960D01*
X8122444Y-19810960D02*
X8103396Y-19820484D01*
X8103396Y-19820484D02*
X8084348Y-19820484D01*
X8084348Y-19820484D02*
X8065301Y-19810960D01*
X8065301Y-19810960D02*
X8055777Y-19801436D01*
X8055777Y-19801436D02*
X8046253Y-19782389D01*
X8046253Y-19782389D02*
X8036729Y-19744293D01*
X8036729Y-19744293D02*
X8036729Y-19696674D01*
X8036729Y-19696674D02*
X8046253Y-19658579D01*
X8046253Y-19658579D02*
X8055777Y-19639531D01*
X8055777Y-19639531D02*
X8065301Y-19630008D01*
X8065301Y-19630008D02*
X8084348Y-19620484D01*
X8322444Y-19620484D02*
X8284348Y-19620484D01*
X8284348Y-19620484D02*
X8265301Y-19630008D01*
X8265301Y-19630008D02*
X8255777Y-19639531D01*
X8255777Y-19639531D02*
X8236729Y-19668103D01*
X8236729Y-19668103D02*
X8227206Y-19706198D01*
X8227206Y-19706198D02*
X8227206Y-19782389D01*
X8227206Y-19782389D02*
X8236729Y-19801436D01*
X8236729Y-19801436D02*
X8246253Y-19810960D01*
X8246253Y-19810960D02*
X8265301Y-19820484D01*
X8265301Y-19820484D02*
X8303396Y-19820484D01*
X8303396Y-19820484D02*
X8322444Y-19810960D01*
X8322444Y-19810960D02*
X8331967Y-19801436D01*
X8331967Y-19801436D02*
X8341491Y-19782389D01*
X8341491Y-19782389D02*
X8341491Y-19734770D01*
X8341491Y-19734770D02*
X8331967Y-19715722D01*
X8331967Y-19715722D02*
X8322444Y-19706198D01*
X8322444Y-19706198D02*
X8303396Y-19696674D01*
X8303396Y-19696674D02*
X8265301Y-19696674D01*
X8265301Y-19696674D02*
X8246253Y-19706198D01*
X8246253Y-19706198D02*
X8236729Y-19715722D01*
X8236729Y-19715722D02*
X8227206Y-19734770D01*
X8512920Y-19620484D02*
X8474825Y-19620484D01*
X8474825Y-19620484D02*
X8455777Y-19630008D01*
X8455777Y-19630008D02*
X8446253Y-19639531D01*
X8446253Y-19639531D02*
X8427206Y-19668103D01*
X8427206Y-19668103D02*
X8417682Y-19706198D01*
X8417682Y-19706198D02*
X8417682Y-19782389D01*
X8417682Y-19782389D02*
X8427206Y-19801436D01*
X8427206Y-19801436D02*
X8436729Y-19810960D01*
X8436729Y-19810960D02*
X8455777Y-19820484D01*
X8455777Y-19820484D02*
X8493872Y-19820484D01*
X8493872Y-19820484D02*
X8512920Y-19810960D01*
X8512920Y-19810960D02*
X8522444Y-19801436D01*
X8522444Y-19801436D02*
X8531968Y-19782389D01*
X8531968Y-19782389D02*
X8531968Y-19734770D01*
X8531968Y-19734770D02*
X8522444Y-19715722D01*
X8522444Y-19715722D02*
X8512920Y-19706198D01*
X8512920Y-19706198D02*
X8493872Y-19696674D01*
X8493872Y-19696674D02*
X8455777Y-19696674D01*
X8455777Y-19696674D02*
X8436729Y-19706198D01*
X8436729Y-19706198D02*
X8427206Y-19715722D01*
X8427206Y-19715722D02*
X8417682Y-19734770D01*
X8627206Y-19820484D02*
X8665301Y-19820484D01*
X8665301Y-19820484D02*
X8684349Y-19810960D01*
X8684349Y-19810960D02*
X8693872Y-19801436D01*
X8693872Y-19801436D02*
X8712920Y-19772865D01*
X8712920Y-19772865D02*
X8722444Y-19734770D01*
X8722444Y-19734770D02*
X8722444Y-19658579D01*
X8722444Y-19658579D02*
X8712920Y-19639531D01*
X8712920Y-19639531D02*
X8703396Y-19630008D01*
X8703396Y-19630008D02*
X8684349Y-19620484D01*
X8684349Y-19620484D02*
X8646253Y-19620484D01*
X8646253Y-19620484D02*
X8627206Y-19630008D01*
X8627206Y-19630008D02*
X8617682Y-19639531D01*
X8617682Y-19639531D02*
X8608158Y-19658579D01*
X8608158Y-19658579D02*
X8608158Y-19706198D01*
X8608158Y-19706198D02*
X8617682Y-19725246D01*
X8617682Y-19725246D02*
X8627206Y-19734770D01*
X8627206Y-19734770D02*
X8646253Y-19744293D01*
X8646253Y-19744293D02*
X8684349Y-19744293D01*
X8684349Y-19744293D02*
X8703396Y-19734770D01*
X8703396Y-19734770D02*
X8712920Y-19725246D01*
X8712920Y-19725246D02*
X8722444Y-19706198D01*
X8798634Y-19620484D02*
X8798634Y-19658579D01*
X8874825Y-19620484D02*
X8874825Y-19658579D01*
X9170063Y-19896674D02*
X9160539Y-19887150D01*
X9160539Y-19887150D02*
X9141491Y-19858579D01*
X9141491Y-19858579D02*
X9131968Y-19839531D01*
X9131968Y-19839531D02*
X9122444Y-19810960D01*
X9122444Y-19810960D02*
X9112920Y-19763341D01*
X9112920Y-19763341D02*
X9112920Y-19725246D01*
X9112920Y-19725246D02*
X9122444Y-19677627D01*
X9122444Y-19677627D02*
X9131968Y-19649055D01*
X9131968Y-19649055D02*
X9141491Y-19630008D01*
X9141491Y-19630008D02*
X9160539Y-19601436D01*
X9160539Y-19601436D02*
X9170063Y-19591912D01*
X9284349Y-19620484D02*
X9303396Y-19620484D01*
X9303396Y-19620484D02*
X9322444Y-19630008D01*
X9322444Y-19630008D02*
X9331968Y-19639531D01*
X9331968Y-19639531D02*
X9341491Y-19658579D01*
X9341491Y-19658579D02*
X9351015Y-19696674D01*
X9351015Y-19696674D02*
X9351015Y-19744293D01*
X9351015Y-19744293D02*
X9341491Y-19782389D01*
X9341491Y-19782389D02*
X9331968Y-19801436D01*
X9331968Y-19801436D02*
X9322444Y-19810960D01*
X9322444Y-19810960D02*
X9303396Y-19820484D01*
X9303396Y-19820484D02*
X9284349Y-19820484D01*
X9284349Y-19820484D02*
X9265301Y-19810960D01*
X9265301Y-19810960D02*
X9255777Y-19801436D01*
X9255777Y-19801436D02*
X9246253Y-19782389D01*
X9246253Y-19782389D02*
X9236730Y-19744293D01*
X9236730Y-19744293D02*
X9236730Y-19696674D01*
X9236730Y-19696674D02*
X9246253Y-19658579D01*
X9246253Y-19658579D02*
X9255777Y-19639531D01*
X9255777Y-19639531D02*
X9265301Y-19630008D01*
X9265301Y-19630008D02*
X9284349Y-19620484D01*
X9589111Y-19820484D02*
X9589111Y-19620484D01*
X9674825Y-19820484D02*
X9674825Y-19715722D01*
X9674825Y-19715722D02*
X9665301Y-19696674D01*
X9665301Y-19696674D02*
X9646253Y-19687150D01*
X9646253Y-19687150D02*
X9617682Y-19687150D01*
X9617682Y-19687150D02*
X9598634Y-19696674D01*
X9598634Y-19696674D02*
X9589111Y-19706198D01*
X9798634Y-19820484D02*
X9779587Y-19810960D01*
X9779587Y-19810960D02*
X9770063Y-19801436D01*
X9770063Y-19801436D02*
X9760539Y-19782389D01*
X9760539Y-19782389D02*
X9760539Y-19725246D01*
X9760539Y-19725246D02*
X9770063Y-19706198D01*
X9770063Y-19706198D02*
X9779587Y-19696674D01*
X9779587Y-19696674D02*
X9798634Y-19687150D01*
X9798634Y-19687150D02*
X9827206Y-19687150D01*
X9827206Y-19687150D02*
X9846253Y-19696674D01*
X9846253Y-19696674D02*
X9855777Y-19706198D01*
X9855777Y-19706198D02*
X9865301Y-19725246D01*
X9865301Y-19725246D02*
X9865301Y-19782389D01*
X9865301Y-19782389D02*
X9855777Y-19801436D01*
X9855777Y-19801436D02*
X9846253Y-19810960D01*
X9846253Y-19810960D02*
X9827206Y-19820484D01*
X9827206Y-19820484D02*
X9798634Y-19820484D01*
X9979587Y-19820484D02*
X9960539Y-19810960D01*
X9960539Y-19810960D02*
X9951015Y-19791912D01*
X9951015Y-19791912D02*
X9951015Y-19620484D01*
X10131968Y-19810960D02*
X10112920Y-19820484D01*
X10112920Y-19820484D02*
X10074825Y-19820484D01*
X10074825Y-19820484D02*
X10055777Y-19810960D01*
X10055777Y-19810960D02*
X10046253Y-19791912D01*
X10046253Y-19791912D02*
X10046253Y-19715722D01*
X10046253Y-19715722D02*
X10055777Y-19696674D01*
X10055777Y-19696674D02*
X10074825Y-19687150D01*
X10074825Y-19687150D02*
X10112920Y-19687150D01*
X10112920Y-19687150D02*
X10131968Y-19696674D01*
X10131968Y-19696674D02*
X10141492Y-19715722D01*
X10141492Y-19715722D02*
X10141492Y-19734770D01*
X10141492Y-19734770D02*
X10046253Y-19753817D01*
X10217682Y-19810960D02*
X10236730Y-19820484D01*
X10236730Y-19820484D02*
X10274825Y-19820484D01*
X10274825Y-19820484D02*
X10293873Y-19810960D01*
X10293873Y-19810960D02*
X10303396Y-19791912D01*
X10303396Y-19791912D02*
X10303396Y-19782389D01*
X10303396Y-19782389D02*
X10293873Y-19763341D01*
X10293873Y-19763341D02*
X10274825Y-19753817D01*
X10274825Y-19753817D02*
X10246253Y-19753817D01*
X10246253Y-19753817D02*
X10227206Y-19744293D01*
X10227206Y-19744293D02*
X10217682Y-19725246D01*
X10217682Y-19725246D02*
X10217682Y-19715722D01*
X10217682Y-19715722D02*
X10227206Y-19696674D01*
X10227206Y-19696674D02*
X10246253Y-19687150D01*
X10246253Y-19687150D02*
X10274825Y-19687150D01*
X10274825Y-19687150D02*
X10293873Y-19696674D01*
X10541492Y-19744293D02*
X10693873Y-19744293D01*
X10617682Y-19820484D02*
X10617682Y-19668103D01*
X10931968Y-19639531D02*
X10941492Y-19630008D01*
X10941492Y-19630008D02*
X10960539Y-19620484D01*
X10960539Y-19620484D02*
X11008158Y-19620484D01*
X11008158Y-19620484D02*
X11027206Y-19630008D01*
X11027206Y-19630008D02*
X11036730Y-19639531D01*
X11036730Y-19639531D02*
X11046254Y-19658579D01*
X11046254Y-19658579D02*
X11046254Y-19677627D01*
X11046254Y-19677627D02*
X11036730Y-19706198D01*
X11036730Y-19706198D02*
X10922444Y-19820484D01*
X10922444Y-19820484D02*
X11046254Y-19820484D01*
X11274825Y-19810960D02*
X11293873Y-19820484D01*
X11293873Y-19820484D02*
X11331968Y-19820484D01*
X11331968Y-19820484D02*
X11351015Y-19810960D01*
X11351015Y-19810960D02*
X11360539Y-19791912D01*
X11360539Y-19791912D02*
X11360539Y-19782389D01*
X11360539Y-19782389D02*
X11351015Y-19763341D01*
X11351015Y-19763341D02*
X11331968Y-19753817D01*
X11331968Y-19753817D02*
X11303396Y-19753817D01*
X11303396Y-19753817D02*
X11284349Y-19744293D01*
X11284349Y-19744293D02*
X11274825Y-19725246D01*
X11274825Y-19725246D02*
X11274825Y-19715722D01*
X11274825Y-19715722D02*
X11284349Y-19696674D01*
X11284349Y-19696674D02*
X11303396Y-19687150D01*
X11303396Y-19687150D02*
X11331968Y-19687150D01*
X11331968Y-19687150D02*
X11351015Y-19696674D01*
X11474825Y-19820484D02*
X11455777Y-19810960D01*
X11455777Y-19810960D02*
X11446254Y-19791912D01*
X11446254Y-19791912D02*
X11446254Y-19620484D01*
X11579587Y-19820484D02*
X11560539Y-19810960D01*
X11560539Y-19810960D02*
X11551015Y-19801436D01*
X11551015Y-19801436D02*
X11541492Y-19782389D01*
X11541492Y-19782389D02*
X11541492Y-19725246D01*
X11541492Y-19725246D02*
X11551015Y-19706198D01*
X11551015Y-19706198D02*
X11560539Y-19696674D01*
X11560539Y-19696674D02*
X11579587Y-19687150D01*
X11579587Y-19687150D02*
X11608158Y-19687150D01*
X11608158Y-19687150D02*
X11627206Y-19696674D01*
X11627206Y-19696674D02*
X11636730Y-19706198D01*
X11636730Y-19706198D02*
X11646254Y-19725246D01*
X11646254Y-19725246D02*
X11646254Y-19782389D01*
X11646254Y-19782389D02*
X11636730Y-19801436D01*
X11636730Y-19801436D02*
X11627206Y-19810960D01*
X11627206Y-19810960D02*
X11608158Y-19820484D01*
X11608158Y-19820484D02*
X11579587Y-19820484D01*
X11703396Y-19687150D02*
X11779587Y-19687150D01*
X11731968Y-19620484D02*
X11731968Y-19791912D01*
X11731968Y-19791912D02*
X11741492Y-19810960D01*
X11741492Y-19810960D02*
X11760539Y-19820484D01*
X11760539Y-19820484D02*
X11779587Y-19820484D01*
X11836730Y-19810960D02*
X11855777Y-19820484D01*
X11855777Y-19820484D02*
X11893873Y-19820484D01*
X11893873Y-19820484D02*
X11912920Y-19810960D01*
X11912920Y-19810960D02*
X11922444Y-19791912D01*
X11922444Y-19791912D02*
X11922444Y-19782389D01*
X11922444Y-19782389D02*
X11912920Y-19763341D01*
X11912920Y-19763341D02*
X11893873Y-19753817D01*
X11893873Y-19753817D02*
X11865301Y-19753817D01*
X11865301Y-19753817D02*
X11846254Y-19744293D01*
X11846254Y-19744293D02*
X11836730Y-19725246D01*
X11836730Y-19725246D02*
X11836730Y-19715722D01*
X11836730Y-19715722D02*
X11846254Y-19696674D01*
X11846254Y-19696674D02*
X11865301Y-19687150D01*
X11865301Y-19687150D02*
X11893873Y-19687150D01*
X11893873Y-19687150D02*
X11912920Y-19696674D01*
X11989111Y-19896674D02*
X11998635Y-19887150D01*
X11998635Y-19887150D02*
X12017682Y-19858579D01*
X12017682Y-19858579D02*
X12027206Y-19839531D01*
X12027206Y-19839531D02*
X12036730Y-19810960D01*
X12036730Y-19810960D02*
X12046254Y-19763341D01*
X12046254Y-19763341D02*
X12046254Y-19725246D01*
X12046254Y-19725246D02*
X12036730Y-19677627D01*
X12036730Y-19677627D02*
X12027206Y-19649055D01*
X12027206Y-19649055D02*
X12017682Y-19630008D01*
X12017682Y-19630008D02*
X11998635Y-19601436D01*
X11998635Y-19601436D02*
X11989111Y-19591912D01*
D15*
X5415000Y-19929002D02*
X5595000Y-20109002D01*
X5595000Y-19929002D02*
X5415000Y-20109002D01*
X5568640Y-20082642D02*
X5568640Y-19955362D01*
X5441360Y-19955362D01*
X5441360Y-20082642D01*
X5568640Y-20082642D01*
D11*
X5960539Y-20110486D02*
X5846253Y-20110486D01*
X5903396Y-20110486D02*
X5903396Y-19910486D01*
X5903396Y-19910486D02*
X5884348Y-19939057D01*
X5884348Y-19939057D02*
X5865301Y-19958105D01*
X5865301Y-19958105D02*
X5846253Y-19967629D01*
X6046253Y-20091438D02*
X6055777Y-20100962D01*
X6055777Y-20100962D02*
X6046253Y-20110486D01*
X6046253Y-20110486D02*
X6036729Y-20100962D01*
X6036729Y-20100962D02*
X6046253Y-20091438D01*
X6046253Y-20091438D02*
X6046253Y-20110486D01*
X6170062Y-19996200D02*
X6151015Y-19986676D01*
X6151015Y-19986676D02*
X6141491Y-19977153D01*
X6141491Y-19977153D02*
X6131967Y-19958105D01*
X6131967Y-19958105D02*
X6131967Y-19948581D01*
X6131967Y-19948581D02*
X6141491Y-19929534D01*
X6141491Y-19929534D02*
X6151015Y-19920010D01*
X6151015Y-19920010D02*
X6170062Y-19910486D01*
X6170062Y-19910486D02*
X6208158Y-19910486D01*
X6208158Y-19910486D02*
X6227205Y-19920010D01*
X6227205Y-19920010D02*
X6236729Y-19929534D01*
X6236729Y-19929534D02*
X6246253Y-19948581D01*
X6246253Y-19948581D02*
X6246253Y-19958105D01*
X6246253Y-19958105D02*
X6236729Y-19977153D01*
X6236729Y-19977153D02*
X6227205Y-19986676D01*
X6227205Y-19986676D02*
X6208158Y-19996200D01*
X6208158Y-19996200D02*
X6170062Y-19996200D01*
X6170062Y-19996200D02*
X6151015Y-20005724D01*
X6151015Y-20005724D02*
X6141491Y-20015248D01*
X6141491Y-20015248D02*
X6131967Y-20034296D01*
X6131967Y-20034296D02*
X6131967Y-20072391D01*
X6131967Y-20072391D02*
X6141491Y-20091438D01*
X6141491Y-20091438D02*
X6151015Y-20100962D01*
X6151015Y-20100962D02*
X6170062Y-20110486D01*
X6170062Y-20110486D02*
X6208158Y-20110486D01*
X6208158Y-20110486D02*
X6227205Y-20100962D01*
X6227205Y-20100962D02*
X6236729Y-20091438D01*
X6236729Y-20091438D02*
X6246253Y-20072391D01*
X6246253Y-20072391D02*
X6246253Y-20034296D01*
X6246253Y-20034296D02*
X6236729Y-20015248D01*
X6236729Y-20015248D02*
X6227205Y-20005724D01*
X6227205Y-20005724D02*
X6208158Y-19996200D01*
X6370062Y-19910486D02*
X6389110Y-19910486D01*
X6389110Y-19910486D02*
X6408158Y-19920010D01*
X6408158Y-19920010D02*
X6417682Y-19929534D01*
X6417682Y-19929534D02*
X6427205Y-19948581D01*
X6427205Y-19948581D02*
X6436729Y-19986676D01*
X6436729Y-19986676D02*
X6436729Y-20034296D01*
X6436729Y-20034296D02*
X6427205Y-20072391D01*
X6427205Y-20072391D02*
X6417682Y-20091438D01*
X6417682Y-20091438D02*
X6408158Y-20100962D01*
X6408158Y-20100962D02*
X6389110Y-20110486D01*
X6389110Y-20110486D02*
X6370062Y-20110486D01*
X6370062Y-20110486D02*
X6351015Y-20100962D01*
X6351015Y-20100962D02*
X6341491Y-20091438D01*
X6341491Y-20091438D02*
X6331967Y-20072391D01*
X6331967Y-20072391D02*
X6322443Y-20034296D01*
X6322443Y-20034296D02*
X6322443Y-19986676D01*
X6322443Y-19986676D02*
X6331967Y-19948581D01*
X6331967Y-19948581D02*
X6341491Y-19929534D01*
X6341491Y-19929534D02*
X6351015Y-19920010D01*
X6351015Y-19920010D02*
X6370062Y-19910486D01*
X6560539Y-19910486D02*
X6579586Y-19910486D01*
X6579586Y-19910486D02*
X6598634Y-19920010D01*
X6598634Y-19920010D02*
X6608158Y-19929534D01*
X6608158Y-19929534D02*
X6617682Y-19948581D01*
X6617682Y-19948581D02*
X6627205Y-19986676D01*
X6627205Y-19986676D02*
X6627205Y-20034296D01*
X6627205Y-20034296D02*
X6617682Y-20072391D01*
X6617682Y-20072391D02*
X6608158Y-20091438D01*
X6608158Y-20091438D02*
X6598634Y-20100962D01*
X6598634Y-20100962D02*
X6579586Y-20110486D01*
X6579586Y-20110486D02*
X6560539Y-20110486D01*
X6560539Y-20110486D02*
X6541491Y-20100962D01*
X6541491Y-20100962D02*
X6531967Y-20091438D01*
X6531967Y-20091438D02*
X6522443Y-20072391D01*
X6522443Y-20072391D02*
X6512920Y-20034296D01*
X6512920Y-20034296D02*
X6512920Y-19986676D01*
X6512920Y-19986676D02*
X6522443Y-19948581D01*
X6522443Y-19948581D02*
X6531967Y-19929534D01*
X6531967Y-19929534D02*
X6541491Y-19920010D01*
X6541491Y-19920010D02*
X6560539Y-19910486D01*
X6712920Y-20110486D02*
X6712920Y-19977153D01*
X6712920Y-19996200D02*
X6722443Y-19986676D01*
X6722443Y-19986676D02*
X6741491Y-19977153D01*
X6741491Y-19977153D02*
X6770063Y-19977153D01*
X6770063Y-19977153D02*
X6789110Y-19986676D01*
X6789110Y-19986676D02*
X6798634Y-20005724D01*
X6798634Y-20005724D02*
X6798634Y-20110486D01*
X6798634Y-20005724D02*
X6808158Y-19986676D01*
X6808158Y-19986676D02*
X6827205Y-19977153D01*
X6827205Y-19977153D02*
X6855777Y-19977153D01*
X6855777Y-19977153D02*
X6874824Y-19986676D01*
X6874824Y-19986676D02*
X6884348Y-20005724D01*
X6884348Y-20005724D02*
X6884348Y-20110486D01*
X6979586Y-20110486D02*
X6979586Y-19977153D01*
X6979586Y-19996200D02*
X6989110Y-19986676D01*
X6989110Y-19986676D02*
X7008158Y-19977153D01*
X7008158Y-19977153D02*
X7036729Y-19977153D01*
X7036729Y-19977153D02*
X7055777Y-19986676D01*
X7055777Y-19986676D02*
X7065301Y-20005724D01*
X7065301Y-20005724D02*
X7065301Y-20110486D01*
X7065301Y-20005724D02*
X7074824Y-19986676D01*
X7074824Y-19986676D02*
X7093872Y-19977153D01*
X7093872Y-19977153D02*
X7122443Y-19977153D01*
X7122443Y-19977153D02*
X7141491Y-19986676D01*
X7141491Y-19986676D02*
X7151015Y-20005724D01*
X7151015Y-20005724D02*
X7151015Y-20110486D01*
X7541491Y-19900962D02*
X7370063Y-20158105D01*
X7798634Y-19910486D02*
X7817682Y-19910486D01*
X7817682Y-19910486D02*
X7836729Y-19920010D01*
X7836729Y-19920010D02*
X7846253Y-19929534D01*
X7846253Y-19929534D02*
X7855777Y-19948581D01*
X7855777Y-19948581D02*
X7865301Y-19986676D01*
X7865301Y-19986676D02*
X7865301Y-20034296D01*
X7865301Y-20034296D02*
X7855777Y-20072391D01*
X7855777Y-20072391D02*
X7846253Y-20091438D01*
X7846253Y-20091438D02*
X7836729Y-20100962D01*
X7836729Y-20100962D02*
X7817682Y-20110486D01*
X7817682Y-20110486D02*
X7798634Y-20110486D01*
X7798634Y-20110486D02*
X7779586Y-20100962D01*
X7779586Y-20100962D02*
X7770063Y-20091438D01*
X7770063Y-20091438D02*
X7760539Y-20072391D01*
X7760539Y-20072391D02*
X7751015Y-20034296D01*
X7751015Y-20034296D02*
X7751015Y-19986676D01*
X7751015Y-19986676D02*
X7760539Y-19948581D01*
X7760539Y-19948581D02*
X7770063Y-19929534D01*
X7770063Y-19929534D02*
X7779586Y-19920010D01*
X7779586Y-19920010D02*
X7798634Y-19910486D01*
X7951015Y-20091438D02*
X7960539Y-20100962D01*
X7960539Y-20100962D02*
X7951015Y-20110486D01*
X7951015Y-20110486D02*
X7941491Y-20100962D01*
X7941491Y-20100962D02*
X7951015Y-20091438D01*
X7951015Y-20091438D02*
X7951015Y-20110486D01*
X8084348Y-19910486D02*
X8103396Y-19910486D01*
X8103396Y-19910486D02*
X8122444Y-19920010D01*
X8122444Y-19920010D02*
X8131967Y-19929534D01*
X8131967Y-19929534D02*
X8141491Y-19948581D01*
X8141491Y-19948581D02*
X8151015Y-19986676D01*
X8151015Y-19986676D02*
X8151015Y-20034296D01*
X8151015Y-20034296D02*
X8141491Y-20072391D01*
X8141491Y-20072391D02*
X8131967Y-20091438D01*
X8131967Y-20091438D02*
X8122444Y-20100962D01*
X8122444Y-20100962D02*
X8103396Y-20110486D01*
X8103396Y-20110486D02*
X8084348Y-20110486D01*
X8084348Y-20110486D02*
X8065301Y-20100962D01*
X8065301Y-20100962D02*
X8055777Y-20091438D01*
X8055777Y-20091438D02*
X8046253Y-20072391D01*
X8046253Y-20072391D02*
X8036729Y-20034296D01*
X8036729Y-20034296D02*
X8036729Y-19986676D01*
X8036729Y-19986676D02*
X8046253Y-19948581D01*
X8046253Y-19948581D02*
X8055777Y-19929534D01*
X8055777Y-19929534D02*
X8065301Y-19920010D01*
X8065301Y-19920010D02*
X8084348Y-19910486D01*
X8217682Y-19910486D02*
X8351015Y-19910486D01*
X8351015Y-19910486D02*
X8265301Y-20110486D01*
X8465301Y-19910486D02*
X8484349Y-19910486D01*
X8484349Y-19910486D02*
X8503396Y-19920010D01*
X8503396Y-19920010D02*
X8512920Y-19929534D01*
X8512920Y-19929534D02*
X8522444Y-19948581D01*
X8522444Y-19948581D02*
X8531968Y-19986676D01*
X8531968Y-19986676D02*
X8531968Y-20034296D01*
X8531968Y-20034296D02*
X8522444Y-20072391D01*
X8522444Y-20072391D02*
X8512920Y-20091438D01*
X8512920Y-20091438D02*
X8503396Y-20100962D01*
X8503396Y-20100962D02*
X8484349Y-20110486D01*
X8484349Y-20110486D02*
X8465301Y-20110486D01*
X8465301Y-20110486D02*
X8446253Y-20100962D01*
X8446253Y-20100962D02*
X8436729Y-20091438D01*
X8436729Y-20091438D02*
X8427206Y-20072391D01*
X8427206Y-20072391D02*
X8417682Y-20034296D01*
X8417682Y-20034296D02*
X8417682Y-19986676D01*
X8417682Y-19986676D02*
X8427206Y-19948581D01*
X8427206Y-19948581D02*
X8436729Y-19929534D01*
X8436729Y-19929534D02*
X8446253Y-19920010D01*
X8446253Y-19920010D02*
X8465301Y-19910486D01*
X8627206Y-20110486D02*
X8665301Y-20110486D01*
X8665301Y-20110486D02*
X8684349Y-20100962D01*
X8684349Y-20100962D02*
X8693872Y-20091438D01*
X8693872Y-20091438D02*
X8712920Y-20062867D01*
X8712920Y-20062867D02*
X8722444Y-20024772D01*
X8722444Y-20024772D02*
X8722444Y-19948581D01*
X8722444Y-19948581D02*
X8712920Y-19929534D01*
X8712920Y-19929534D02*
X8703396Y-19920010D01*
X8703396Y-19920010D02*
X8684349Y-19910486D01*
X8684349Y-19910486D02*
X8646253Y-19910486D01*
X8646253Y-19910486D02*
X8627206Y-19920010D01*
X8627206Y-19920010D02*
X8617682Y-19929534D01*
X8617682Y-19929534D02*
X8608158Y-19948581D01*
X8608158Y-19948581D02*
X8608158Y-19996200D01*
X8608158Y-19996200D02*
X8617682Y-20015248D01*
X8617682Y-20015248D02*
X8627206Y-20024772D01*
X8627206Y-20024772D02*
X8646253Y-20034296D01*
X8646253Y-20034296D02*
X8684349Y-20034296D01*
X8684349Y-20034296D02*
X8703396Y-20024772D01*
X8703396Y-20024772D02*
X8712920Y-20015248D01*
X8712920Y-20015248D02*
X8722444Y-19996200D01*
X8798634Y-19910486D02*
X8798634Y-19948581D01*
X8874825Y-19910486D02*
X8874825Y-19948581D01*
X9170063Y-20186676D02*
X9160539Y-20177153D01*
X9160539Y-20177153D02*
X9141491Y-20148581D01*
X9141491Y-20148581D02*
X9131968Y-20129534D01*
X9131968Y-20129534D02*
X9122444Y-20100962D01*
X9122444Y-20100962D02*
X9112920Y-20053343D01*
X9112920Y-20053343D02*
X9112920Y-20015248D01*
X9112920Y-20015248D02*
X9122444Y-19967629D01*
X9122444Y-19967629D02*
X9131968Y-19939057D01*
X9131968Y-19939057D02*
X9141491Y-19920010D01*
X9141491Y-19920010D02*
X9160539Y-19891438D01*
X9160539Y-19891438D02*
X9170063Y-19881915D01*
X9227206Y-19910486D02*
X9351015Y-19910486D01*
X9351015Y-19910486D02*
X9284349Y-19986676D01*
X9284349Y-19986676D02*
X9312920Y-19986676D01*
X9312920Y-19986676D02*
X9331968Y-19996200D01*
X9331968Y-19996200D02*
X9341491Y-20005724D01*
X9341491Y-20005724D02*
X9351015Y-20024772D01*
X9351015Y-20024772D02*
X9351015Y-20072391D01*
X9351015Y-20072391D02*
X9341491Y-20091438D01*
X9341491Y-20091438D02*
X9331968Y-20100962D01*
X9331968Y-20100962D02*
X9312920Y-20110486D01*
X9312920Y-20110486D02*
X9255777Y-20110486D01*
X9255777Y-20110486D02*
X9236730Y-20100962D01*
X9236730Y-20100962D02*
X9227206Y-20091438D01*
X9589111Y-20110486D02*
X9589111Y-19910486D01*
X9674825Y-20110486D02*
X9674825Y-20005724D01*
X9674825Y-20005724D02*
X9665301Y-19986676D01*
X9665301Y-19986676D02*
X9646253Y-19977153D01*
X9646253Y-19977153D02*
X9617682Y-19977153D01*
X9617682Y-19977153D02*
X9598634Y-19986676D01*
X9598634Y-19986676D02*
X9589111Y-19996200D01*
X9798634Y-20110486D02*
X9779587Y-20100962D01*
X9779587Y-20100962D02*
X9770063Y-20091438D01*
X9770063Y-20091438D02*
X9760539Y-20072391D01*
X9760539Y-20072391D02*
X9760539Y-20015248D01*
X9760539Y-20015248D02*
X9770063Y-19996200D01*
X9770063Y-19996200D02*
X9779587Y-19986676D01*
X9779587Y-19986676D02*
X9798634Y-19977153D01*
X9798634Y-19977153D02*
X9827206Y-19977153D01*
X9827206Y-19977153D02*
X9846253Y-19986676D01*
X9846253Y-19986676D02*
X9855777Y-19996200D01*
X9855777Y-19996200D02*
X9865301Y-20015248D01*
X9865301Y-20015248D02*
X9865301Y-20072391D01*
X9865301Y-20072391D02*
X9855777Y-20091438D01*
X9855777Y-20091438D02*
X9846253Y-20100962D01*
X9846253Y-20100962D02*
X9827206Y-20110486D01*
X9827206Y-20110486D02*
X9798634Y-20110486D01*
X9979587Y-20110486D02*
X9960539Y-20100962D01*
X9960539Y-20100962D02*
X9951015Y-20081915D01*
X9951015Y-20081915D02*
X9951015Y-19910486D01*
X10131968Y-20100962D02*
X10112920Y-20110486D01*
X10112920Y-20110486D02*
X10074825Y-20110486D01*
X10074825Y-20110486D02*
X10055777Y-20100962D01*
X10055777Y-20100962D02*
X10046253Y-20081915D01*
X10046253Y-20081915D02*
X10046253Y-20005724D01*
X10046253Y-20005724D02*
X10055777Y-19986676D01*
X10055777Y-19986676D02*
X10074825Y-19977153D01*
X10074825Y-19977153D02*
X10112920Y-19977153D01*
X10112920Y-19977153D02*
X10131968Y-19986676D01*
X10131968Y-19986676D02*
X10141492Y-20005724D01*
X10141492Y-20005724D02*
X10141492Y-20024772D01*
X10141492Y-20024772D02*
X10046253Y-20043819D01*
X10217682Y-20100962D02*
X10236730Y-20110486D01*
X10236730Y-20110486D02*
X10274825Y-20110486D01*
X10274825Y-20110486D02*
X10293873Y-20100962D01*
X10293873Y-20100962D02*
X10303396Y-20081915D01*
X10303396Y-20081915D02*
X10303396Y-20072391D01*
X10303396Y-20072391D02*
X10293873Y-20053343D01*
X10293873Y-20053343D02*
X10274825Y-20043819D01*
X10274825Y-20043819D02*
X10246253Y-20043819D01*
X10246253Y-20043819D02*
X10227206Y-20034296D01*
X10227206Y-20034296D02*
X10217682Y-20015248D01*
X10217682Y-20015248D02*
X10217682Y-20005724D01*
X10217682Y-20005724D02*
X10227206Y-19986676D01*
X10227206Y-19986676D02*
X10246253Y-19977153D01*
X10246253Y-19977153D02*
X10274825Y-19977153D01*
X10274825Y-19977153D02*
X10293873Y-19986676D01*
X10541492Y-20034296D02*
X10693873Y-20034296D01*
X10617682Y-20110486D02*
X10617682Y-19958105D01*
X10922444Y-19910486D02*
X11046254Y-19910486D01*
X11046254Y-19910486D02*
X10979587Y-19986676D01*
X10979587Y-19986676D02*
X11008158Y-19986676D01*
X11008158Y-19986676D02*
X11027206Y-19996200D01*
X11027206Y-19996200D02*
X11036730Y-20005724D01*
X11036730Y-20005724D02*
X11046254Y-20024772D01*
X11046254Y-20024772D02*
X11046254Y-20072391D01*
X11046254Y-20072391D02*
X11036730Y-20091438D01*
X11036730Y-20091438D02*
X11027206Y-20100962D01*
X11027206Y-20100962D02*
X11008158Y-20110486D01*
X11008158Y-20110486D02*
X10951015Y-20110486D01*
X10951015Y-20110486D02*
X10931968Y-20100962D01*
X10931968Y-20100962D02*
X10922444Y-20091438D01*
X11217682Y-19977153D02*
X11217682Y-20110486D01*
X11170063Y-19900962D02*
X11122444Y-20043819D01*
X11122444Y-20043819D02*
X11246253Y-20043819D01*
X11465301Y-20100962D02*
X11484349Y-20110486D01*
X11484349Y-20110486D02*
X11522444Y-20110486D01*
X11522444Y-20110486D02*
X11541492Y-20100962D01*
X11541492Y-20100962D02*
X11551015Y-20081915D01*
X11551015Y-20081915D02*
X11551015Y-20072391D01*
X11551015Y-20072391D02*
X11541492Y-20053343D01*
X11541492Y-20053343D02*
X11522444Y-20043819D01*
X11522444Y-20043819D02*
X11493873Y-20043819D01*
X11493873Y-20043819D02*
X11474825Y-20034296D01*
X11474825Y-20034296D02*
X11465301Y-20015248D01*
X11465301Y-20015248D02*
X11465301Y-20005724D01*
X11465301Y-20005724D02*
X11474825Y-19986676D01*
X11474825Y-19986676D02*
X11493873Y-19977153D01*
X11493873Y-19977153D02*
X11522444Y-19977153D01*
X11522444Y-19977153D02*
X11541492Y-19986676D01*
X11665301Y-20110486D02*
X11646254Y-20100962D01*
X11646254Y-20100962D02*
X11636730Y-20081915D01*
X11636730Y-20081915D02*
X11636730Y-19910486D01*
X11770063Y-20110486D02*
X11751015Y-20100962D01*
X11751015Y-20100962D02*
X11741492Y-20091438D01*
X11741492Y-20091438D02*
X11731968Y-20072391D01*
X11731968Y-20072391D02*
X11731968Y-20015248D01*
X11731968Y-20015248D02*
X11741492Y-19996200D01*
X11741492Y-19996200D02*
X11751015Y-19986676D01*
X11751015Y-19986676D02*
X11770063Y-19977153D01*
X11770063Y-19977153D02*
X11798635Y-19977153D01*
X11798635Y-19977153D02*
X11817682Y-19986676D01*
X11817682Y-19986676D02*
X11827206Y-19996200D01*
X11827206Y-19996200D02*
X11836730Y-20015248D01*
X11836730Y-20015248D02*
X11836730Y-20072391D01*
X11836730Y-20072391D02*
X11827206Y-20091438D01*
X11827206Y-20091438D02*
X11817682Y-20100962D01*
X11817682Y-20100962D02*
X11798635Y-20110486D01*
X11798635Y-20110486D02*
X11770063Y-20110486D01*
X11893873Y-19977153D02*
X11970063Y-19977153D01*
X11922444Y-19910486D02*
X11922444Y-20081915D01*
X11922444Y-20081915D02*
X11931968Y-20100962D01*
X11931968Y-20100962D02*
X11951015Y-20110486D01*
X11951015Y-20110486D02*
X11970063Y-20110486D01*
X12027206Y-20100962D02*
X12046254Y-20110486D01*
X12046254Y-20110486D02*
X12084349Y-20110486D01*
X12084349Y-20110486D02*
X12103396Y-20100962D01*
X12103396Y-20100962D02*
X12112920Y-20081915D01*
X12112920Y-20081915D02*
X12112920Y-20072391D01*
X12112920Y-20072391D02*
X12103396Y-20053343D01*
X12103396Y-20053343D02*
X12084349Y-20043819D01*
X12084349Y-20043819D02*
X12055777Y-20043819D01*
X12055777Y-20043819D02*
X12036730Y-20034296D01*
X12036730Y-20034296D02*
X12027206Y-20015248D01*
X12027206Y-20015248D02*
X12027206Y-20005724D01*
X12027206Y-20005724D02*
X12036730Y-19986676D01*
X12036730Y-19986676D02*
X12055777Y-19977153D01*
X12055777Y-19977153D02*
X12084349Y-19977153D01*
X12084349Y-19977153D02*
X12103396Y-19986676D01*
X12179587Y-20186676D02*
X12189111Y-20177153D01*
X12189111Y-20177153D02*
X12208158Y-20148581D01*
X12208158Y-20148581D02*
X12217682Y-20129534D01*
X12217682Y-20129534D02*
X12227206Y-20100962D01*
X12227206Y-20100962D02*
X12236730Y-20053343D01*
X12236730Y-20053343D02*
X12236730Y-20015248D01*
X12236730Y-20015248D02*
X12227206Y-19967629D01*
X12227206Y-19967629D02*
X12217682Y-19939057D01*
X12217682Y-19939057D02*
X12208158Y-19920010D01*
X12208158Y-19920010D02*
X12189111Y-19891438D01*
X12189111Y-19891438D02*
X12179587Y-19881915D01*
M02*
