%TF.GenerationSoftware,KiCad,Pcbnew,10.0.5*%
%TF.CreationDate,2026-10-08T04:26:24-07:00*%
%TF.ProjectId,cubevox,63756265-766f-4782-9e6b-696361645f70,rev?*%
%TF.SameCoordinates,Original*%
%TF.FileFunction,Copper,L1,Top*%
%TF.FilePolarity,Positive*%
%FSLAX46Y46*%
G04 Gerber Fmt 4.6, Leading zero omitted, Abs format (unit mm)*
G04 Created by KiCad (PCBNEW 10.0.5) date 2026-10-08 04:26:24*
%MOMM*%
%LPD*%
G01*
G04 APERTURE LIST*
G04 Aperture macros list*
%AMRoundRect*
0 Rectangle with rounded corners*
0 $1 Rounding radius*
0 $2 $3 $4 $5 $6 $7 $8 $9 X,Y pos of 4 corners*
0 Add a 4 corners polygon primitive as box body*
4,1,4,$2,$3,$4,$5,$6,$7,$8,$9,$2,$3,0*
0 Add four circle primitives for the rounded corners*
1,1,$1+$1,$2,$3*
1,1,$1+$1,$4,$5*
1,1,$1+$1,$6,$7*
1,1,$1+$1,$8,$9*
0 Add four rect primitives between the rounded corners*
20,1,$1+$1,$2,$3,$4,$5,0*
20,1,$1+$1,$4,$5,$6,$7,0*
20,1,$1+$1,$6,$7,$8,$9,0*
20,1,$1+$1,$8,$9,$2,$3,0*%
G04 Aperture macros list end*
%TA.AperFunction,SMDPad,CuDef*%
%ADD10R,1.100000X2.800000*%
%TD*%
%TA.AperFunction,ComponentPad*%
%ADD11C,1.700000*%
%TD*%
%TA.AperFunction,ComponentPad*%
%ADD12O,2.750000X3.000000*%
%TD*%
%TA.AperFunction,ComponentPad*%
%ADD13O,2.500000X1.500000*%
%TD*%
%TA.AperFunction,SMDPad,CuDef*%
%ADD14R,0.800000X0.900000*%
%TD*%
%TA.AperFunction,SMDPad,CuDef*%
%ADD15R,2.260000X2.160000*%
%TD*%
%TA.AperFunction,SMDPad,CuDef*%
%ADD16O,0.300000X1.600000*%
%TD*%
%TA.AperFunction,SMDPad,CuDef*%
%ADD17O,1.600000X0.300000*%
%TD*%
%TA.AperFunction,SMDPad,CuDef*%
%ADD18RoundRect,0.140000X0.170000X-0.140000X0.170000X0.140000X-0.170000X0.140000X-0.170000X-0.140000X0*%
%TD*%
%TA.AperFunction,SMDPad,CuDef*%
%ADD19RoundRect,0.250000X-0.475000X0.250000X-0.475000X-0.250000X0.475000X-0.250000X0.475000X0.250000X0*%
%TD*%
%TA.AperFunction,SMDPad,CuDef*%
%ADD20R,0.900000X0.800000*%
%TD*%
%TA.AperFunction,SMDPad,CuDef*%
%ADD21R,0.864000X0.806000*%
%TD*%
%TA.AperFunction,SMDPad,CuDef*%
%ADD22C,1.500000*%
%TD*%
%TA.AperFunction,SMDPad,CuDef*%
%ADD23RoundRect,0.218750X-0.256250X0.218750X-0.256250X-0.218750X0.256250X-0.218750X0.256250X0.218750X0*%
%TD*%
%TA.AperFunction,SMDPad,CuDef*%
%ADD24RoundRect,0.250000X0.325000X0.650000X-0.325000X0.650000X-0.325000X-0.650000X0.325000X-0.650000X0*%
%TD*%
%TA.AperFunction,SMDPad,CuDef*%
%ADD25RoundRect,0.225000X-0.250000X0.225000X-0.250000X-0.225000X0.250000X-0.225000X0.250000X0.225000X0*%
%TD*%
%TA.AperFunction,SMDPad,CuDef*%
%ADD26RoundRect,0.140000X-0.140000X-0.170000X0.140000X-0.170000X0.140000X0.170000X-0.140000X0.170000X0*%
%TD*%
%TA.AperFunction,SMDPad,CuDef*%
%ADD27RoundRect,0.150000X-0.150000X0.587500X-0.150000X-0.587500X0.150000X-0.587500X0.150000X0.587500X0*%
%TD*%
%TA.AperFunction,SMDPad,CuDef*%
%ADD28R,0.806000X0.864000*%
%TD*%
%TA.AperFunction,SMDPad,CuDef*%
%ADD29RoundRect,0.135000X-0.185000X0.135000X-0.185000X-0.135000X0.185000X-0.135000X0.185000X0.135000X0*%
%TD*%
%TA.AperFunction,SMDPad,CuDef*%
%ADD30R,0.800000X1.000000*%
%TD*%
%TA.AperFunction,SMDPad,CuDef*%
%ADD31RoundRect,0.225000X0.250000X-0.225000X0.250000X0.225000X-0.250000X0.225000X-0.250000X-0.225000X0*%
%TD*%
%TA.AperFunction,SMDPad,CuDef*%
%ADD32RoundRect,0.140000X-0.170000X0.140000X-0.170000X-0.140000X0.170000X-0.140000X0.170000X0.140000X0*%
%TD*%
%TA.AperFunction,SMDPad,CuDef*%
%ADD33RoundRect,0.250000X0.250000X0.475000X-0.250000X0.475000X-0.250000X-0.475000X0.250000X-0.475000X0*%
%TD*%
%TA.AperFunction,SMDPad,CuDef*%
%ADD34R,2.000000X2.000000*%
%TD*%
%TA.AperFunction,SMDPad,CuDef*%
%ADD35R,1.728000X1.485000*%
%TD*%
%TA.AperFunction,SMDPad,CuDef*%
%ADD36R,1.200000X1.400000*%
%TD*%
%TA.AperFunction,SMDPad,CuDef*%
%ADD37R,1.000000X1.100000*%
%TD*%
%TA.AperFunction,SMDPad,CuDef*%
%ADD38R,3.500000X1.200000*%
%TD*%
%TA.AperFunction,SMDPad,CuDef*%
%ADD39RoundRect,0.200000X0.275000X-0.200000X0.275000X0.200000X-0.275000X0.200000X-0.275000X-0.200000X0*%
%TD*%
%TA.AperFunction,SMDPad,CuDef*%
%ADD40C,1.000000*%
%TD*%
%TA.AperFunction,SMDPad,CuDef*%
%ADD41RoundRect,0.200000X-0.275000X0.200000X-0.275000X-0.200000X0.275000X-0.200000X0.275000X0.200000X0*%
%TD*%
%TA.AperFunction,SMDPad,CuDef*%
%ADD42RoundRect,0.225000X-0.225000X-0.250000X0.225000X-0.250000X0.225000X0.250000X-0.225000X0.250000X0*%
%TD*%
%TA.AperFunction,SMDPad,CuDef*%
%ADD43RoundRect,0.250000X-0.650000X0.325000X-0.650000X-0.325000X0.650000X-0.325000X0.650000X0.325000X0*%
%TD*%
%TA.AperFunction,SMDPad,CuDef*%
%ADD44RoundRect,0.135000X0.135000X0.185000X-0.135000X0.185000X-0.135000X-0.185000X0.135000X-0.185000X0*%
%TD*%
%TA.AperFunction,SMDPad,CuDef*%
%ADD45R,0.800000X0.800000*%
%TD*%
%TA.AperFunction,SMDPad,CuDef*%
%ADD46R,1.400000X4.200000*%
%TD*%
%TA.AperFunction,SMDPad,CuDef*%
%ADD47R,1.200000X3.500000*%
%TD*%
%TA.AperFunction,ComponentPad*%
%ADD48C,2.000000*%
%TD*%
%TA.AperFunction,ComponentPad*%
%ADD49O,2.400000X3.600000*%
%TD*%
%TA.AperFunction,SMDPad,CuDef*%
%ADD50R,0.532000X1.072000*%
%TD*%
%TA.AperFunction,SMDPad,CuDef*%
%ADD51RoundRect,0.218750X0.256250X-0.218750X0.256250X0.218750X-0.256250X0.218750X-0.256250X-0.218750X0*%
%TD*%
%TA.AperFunction,SMDPad,CuDef*%
%ADD52O,1.800000X0.588000*%
%TD*%
%TA.AperFunction,SMDPad,CuDef*%
%ADD53O,1.324000X0.308000*%
%TD*%
%TA.AperFunction,SMDPad,CuDef*%
%ADD54R,2.124000X4.220000*%
%TD*%
%TA.AperFunction,SMDPad,CuDef*%
%ADD55R,1.000000X0.650000*%
%TD*%
%TA.AperFunction,SMDPad,CuDef*%
%ADD56R,0.910000X2.700000*%
%TD*%
%TA.AperFunction,SMDPad,CuDef*%
%ADD57RoundRect,0.225000X0.225000X0.250000X-0.225000X0.250000X-0.225000X-0.250000X0.225000X-0.250000X0*%
%TD*%
%TA.AperFunction,SMDPad,CuDef*%
%ADD58O,0.588000X1.800000*%
%TD*%
%TA.AperFunction,SMDPad,CuDef*%
%ADD59R,1.000000X2.100000*%
%TD*%
%TA.AperFunction,SMDPad,CuDef*%
%ADD60R,1.700000X0.400000*%
%TD*%
%TA.AperFunction,SMDPad,CuDef*%
%ADD61R,1.270000X2.200000*%
%TD*%
%TA.AperFunction,ComponentPad*%
%ADD62O,1.000000X2.100000*%
%TD*%
%TA.AperFunction,ComponentPad*%
%ADD63O,1.000000X1.800000*%
%TD*%
%TA.AperFunction,SMDPad,CuDef*%
%ADD64R,0.600000X1.060000*%
%TD*%
%TA.AperFunction,SMDPad,CuDef*%
%ADD65R,0.300000X1.150000*%
%TD*%
%TA.AperFunction,SMDPad,CuDef*%
%ADD66R,1.000000X0.750000*%
%TD*%
%TA.AperFunction,SMDPad,CuDef*%
%ADD67O,1.742000X0.364000*%
%TD*%
%TA.AperFunction,SMDPad,CuDef*%
%ADD68R,0.700000X1.000000*%
%TD*%
%TA.AperFunction,SMDPad,CuDef*%
%ADD69R,1.100000X0.600000*%
%TD*%
%TA.AperFunction,SMDPad,CuDef*%
%ADD70R,2.800000X1.100000*%
%TD*%
%TA.AperFunction,ConnectorPad*%
%ADD71C,0.787400*%
%TD*%
%TA.AperFunction,SMDPad,CuDef*%
%ADD72RoundRect,0.150000X-0.512500X-0.150000X0.512500X-0.150000X0.512500X0.150000X-0.512500X0.150000X0*%
%TD*%
%TA.AperFunction,SMDPad,CuDef*%
%ADD73RoundRect,0.200000X-0.200000X-0.275000X0.200000X-0.275000X0.200000X0.275000X-0.200000X0.275000X0*%
%TD*%
%TA.AperFunction,SMDPad,CuDef*%
%ADD74RoundRect,0.200000X0.200000X0.275000X-0.200000X0.275000X-0.200000X-0.275000X0.200000X-0.275000X0*%
%TD*%
%TA.AperFunction,SMDPad,CuDef*%
%ADD75RoundRect,0.250000X-0.785000X-0.945000X0.785000X-0.945000X0.785000X0.945000X-0.785000X0.945000X0*%
%TD*%
%TA.AperFunction,SMDPad,CuDef*%
%ADD76RoundRect,0.250000X0.475000X-0.250000X0.475000X0.250000X-0.475000X0.250000X-0.475000X-0.250000X0*%
%TD*%
%TA.AperFunction,ComponentPad*%
%ADD77O,4.100000X1.600000*%
%TD*%
%TA.AperFunction,ComponentPad*%
%ADD78O,3.600000X1.600000*%
%TD*%
%TA.AperFunction,ComponentPad*%
%ADD79O,1.600000X3.600000*%
%TD*%
%TA.AperFunction,ComponentPad*%
%ADD80O,1.400000X2.300000*%
%TD*%
%TA.AperFunction,ComponentPad*%
%ADD81C,2.500000*%
%TD*%
%TA.AperFunction,ViaPad*%
%ADD82C,0.600000*%
%TD*%
%TA.AperFunction,Conductor*%
%ADD83C,0.200000*%
%TD*%
%TA.AperFunction,Conductor*%
%ADD84C,0.300000*%
%TD*%
%TA.AperFunction,Conductor*%
%ADD85C,0.500000*%
%TD*%
%TA.AperFunction,Conductor*%
%ADD86C,0.400000*%
%TD*%
%TA.AperFunction,Conductor*%
%ADD87C,0.450000*%
%TD*%
G04 APERTURE END LIST*
D10*
%TO.P,C139,1,1_1*%
%TO.N,/DAC_AC*%
X65750000Y-101040000D03*
%TO.P,C139,2,2_2*%
%TO.N,/DAC_LP*%
X65750000Y-104360000D03*
%TD*%
D11*
%TO.P,RV104,1,1_1*%
%TO.N,/GND*%
X86000000Y-145500000D03*
%TO.P,RV104,2,2_2*%
%TO.N,/POT04*%
X88500000Y-145500000D03*
%TO.P,RV104,3,3_3*%
%TO.N,/3V3A*%
X91000000Y-145500000D03*
D12*
%TO.P,RV104,4,4_4*%
%TO.N,unconnected-(RV104-Pad4)*%
X84100000Y-138500000D03*
%TO.P,RV104,5,5_5*%
%TO.N,unconnected-(RV104-Pad5)*%
X92900000Y-138500000D03*
%TD*%
D13*
%TO.P,SW102,1,T1_1*%
%TO.N,/GND*%
X88500000Y-117540000D03*
%TO.P,SW102,2,COM_2*%
%TO.N,/TOGGLE2*%
X88500000Y-115000000D03*
%TO.P,SW102,3,T3_3*%
%TO.N,unconnected-(SW102-T3-Pad3)*%
X88500000Y-112460000D03*
%TD*%
D14*
%TO.P,C116,1*%
%TO.N,/BUCK5_BST*%
X92800000Y-50000000D03*
%TO.P,C116,2*%
%TO.N,/BUCK5_SW*%
X94200000Y-50000000D03*
%TD*%
D15*
%TO.P,D105,1,1_1*%
%TO.N,/VIN_9V*%
X229590000Y-51450000D03*
%TO.P,D105,2,2_2*%
%TO.N,/GND*%
X229590000Y-46550000D03*
%TD*%
D16*
%TO.P,U1,1,PE2_1*%
%TO.N,/h7core_block/ADC_SCKI_SRC*%
X90000000Y-91550000D03*
%TO.P,U1,2,PE3_2*%
%TO.N,/h7core_block/ADC_DOUT*%
X90500000Y-91550000D03*
%TO.P,U1,3,PE4_3*%
%TO.N,/h7core_block/I2S_LRCLK_SRC*%
X91000000Y-91550000D03*
%TO.P,U1,4,PE5_4*%
%TO.N,/h7core_block/I2S_BCLK_SRC*%
X91500000Y-91550000D03*
%TO.P,U1,5,PE6_5*%
%TO.N,/h7core_block/I2S_DATA_SRC*%
X92000000Y-91550000D03*
%TO.P,U1,6,VBAT_6*%
%TO.N,/3V3*%
X92500000Y-91550000D03*
%TO.P,U1,7,PC13_7*%
%TO.N,unconnected-(U1-PC13-Pad7)*%
X93000000Y-91550000D03*
%TO.P,U1,8,PC14-OSC32_IN_8*%
%TO.N,unconnected-(U1-PC14-OSC32_IN-Pad8)*%
X93500000Y-91550000D03*
%TO.P,U1,9,PC15-OSC32_OUT_9*%
%TO.N,unconnected-(U1-PC15-OSC32_OUT-Pad9)*%
X94000000Y-91550000D03*
%TO.P,U1,10,VSS_10*%
%TO.N,/GND*%
X94500000Y-91550000D03*
%TO.P,U1,11,VDD_11*%
%TO.N,/3V3*%
X95000000Y-91550000D03*
%TO.P,U1,12,PH0-OSC_IN_12*%
%TO.N,/h7core_block/HSE_IN*%
X95500000Y-91550000D03*
%TO.P,U1,13,PH1-OSC_OUT_13*%
%TO.N,/h7core_block/HSE_OUT*%
X96000000Y-91550000D03*
%TO.P,U1,14,NRST_14*%
%TO.N,/h7core_block/NRST*%
X96500000Y-91550000D03*
%TO.P,U1,15,PC0_15*%
%TO.N,/h7core_block/MUX1_SIG_ADC*%
X97000000Y-91550000D03*
%TO.P,U1,16,PC1_16*%
%TO.N,unconnected-(U1-PC1-Pad16)*%
X97500000Y-91550000D03*
%TO.P,U1,17,PC2_C_17*%
%TO.N,unconnected-(U1-PC2_C-Pad17)*%
X98000000Y-91550000D03*
%TO.P,U1,18,PC3_C_18*%
%TO.N,unconnected-(U1-PC3_C-Pad18)*%
X98500000Y-91550000D03*
%TO.P,U1,19,VSSA_19*%
%TO.N,/GND*%
X99000000Y-91550000D03*
%TO.P,U1,20,VREF+_20*%
%TO.N,/h7core_block/VDDA*%
X99500000Y-91550000D03*
%TO.P,U1,21,VDDA_21*%
X100000000Y-91550000D03*
%TO.P,U1,22,PA0_22*%
%TO.N,unconnected-(U1-PA0-Pad22)*%
X100500000Y-91550000D03*
%TO.P,U1,23,PA1_23*%
%TO.N,unconnected-(U1-PA1-Pad23)*%
X101000000Y-91550000D03*
%TO.P,U1,24,PA2_24*%
%TO.N,unconnected-(U1-PA2-Pad24)*%
X101500000Y-91550000D03*
%TO.P,U1,25,PA3_25*%
%TO.N,unconnected-(U1-PA3-Pad25)*%
X102000000Y-91550000D03*
D17*
%TO.P,U1,26,VSS_26*%
%TO.N,/GND*%
X103550000Y-90000000D03*
%TO.P,U1,27,VDD_27*%
%TO.N,/3V3*%
X103550000Y-89500000D03*
%TO.P,U1,28,PA4_28*%
%TO.N,/TOGGLE8*%
X103550000Y-89000000D03*
%TO.P,U1,29,PA5_29*%
%TO.N,/TOGGLE6*%
X103550000Y-88500000D03*
%TO.P,U1,30,PA6_30*%
%TO.N,/TOGGLE4*%
X103550000Y-88000000D03*
%TO.P,U1,31,PA7_31*%
%TO.N,/TOGGLE1*%
X103550000Y-87500000D03*
%TO.P,U1,32,PC4_32*%
%TO.N,/TOGGLE2*%
X103550000Y-87000000D03*
%TO.P,U1,33,PC5_33*%
%TO.N,/h7core_block/XSMT*%
X103550000Y-86500000D03*
%TO.P,U1,34,PB0_34*%
%TO.N,/TOGGLE3*%
X103550000Y-86000000D03*
%TO.P,U1,35,PB1_35*%
%TO.N,/VA_SENSE*%
X103550000Y-85500000D03*
%TO.P,U1,36,PB2_36*%
%TO.N,/TOGGLE5*%
X103550000Y-85000000D03*
%TO.P,U1,37,PE7_37*%
%TO.N,/TOGGLE7*%
X103550000Y-84500000D03*
%TO.P,U1,38,PE8_38*%
%TO.N,/MUX_S2*%
X103550000Y-84000000D03*
%TO.P,U1,39,PE9_39*%
%TO.N,/MUX_S3*%
X103550000Y-83500000D03*
%TO.P,U1,40,PE10_40*%
%TO.N,/MUX_S1*%
X103550000Y-83000000D03*
%TO.P,U1,41,PE11_41*%
%TO.N,unconnected-(U1-PE11-Pad41)*%
X103550000Y-82500000D03*
%TO.P,U1,42,PE12_42*%
%TO.N,/MUX_S0*%
X103550000Y-82000000D03*
%TO.P,U1,43,PE13_43*%
%TO.N,/ENC_MENU_SW*%
X103550000Y-81500000D03*
%TO.P,U1,44,PE14_44*%
%TO.N,/ENC_MENU_B*%
X103550000Y-81000000D03*
%TO.P,U1,45,PE15_45*%
%TO.N,/ENC_MENU_A*%
X103550000Y-80500000D03*
%TO.P,U1,46,PB10_46*%
%TO.N,/I2C_SCL*%
X103550000Y-80000000D03*
%TO.P,U1,47,PB11_47*%
%TO.N,/I2C_SDA*%
X103550000Y-79500000D03*
%TO.P,U1,48,VCAP_48*%
%TO.N,/h7core_block/VCAP1*%
X103550000Y-79000000D03*
%TO.P,U1,49,VSS_49*%
%TO.N,/GND*%
X103550000Y-78500000D03*
%TO.P,U1,50,VDD_50*%
%TO.N,/3V3*%
X103550000Y-78000000D03*
D16*
%TO.P,U1,51,PB12_51*%
%TO.N,unconnected-(U1-PB12-Pad51)*%
X102000000Y-76450000D03*
%TO.P,U1,52,PB13_52*%
%TO.N,unconnected-(U1-PB13-Pad52)*%
X101500000Y-76450000D03*
%TO.P,U1,53,PB14_53*%
%TO.N,unconnected-(U1-PB14-Pad53)*%
X101000000Y-76450000D03*
%TO.P,U1,54,PB15_54*%
%TO.N,unconnected-(U1-PB15-Pad54)*%
X100500000Y-76450000D03*
%TO.P,U1,55,PD8_55*%
%TO.N,unconnected-(U1-PD8-Pad55)*%
X100000000Y-76450000D03*
%TO.P,U1,56,PD9_56*%
%TO.N,unconnected-(U1-PD9-Pad56)*%
X99500000Y-76450000D03*
%TO.P,U1,57,PD10_57*%
%TO.N,unconnected-(U1-PD10-Pad57)*%
X99000000Y-76450000D03*
%TO.P,U1,58,PD11_58*%
%TO.N,unconnected-(U1-PD11-Pad58)*%
X98500000Y-76450000D03*
%TO.P,U1,59,PD12_59*%
%TO.N,unconnected-(U1-PD12-Pad59)*%
X98000000Y-76450000D03*
%TO.P,U1,60,PD13_60*%
%TO.N,unconnected-(U1-PD13-Pad60)*%
X97500000Y-76450000D03*
%TO.P,U1,61,PD14_61*%
%TO.N,unconnected-(U1-PD14-Pad61)*%
X97000000Y-76450000D03*
%TO.P,U1,62,PD15_62*%
%TO.N,unconnected-(U1-PD15-Pad62)*%
X96500000Y-76450000D03*
%TO.P,U1,63,PC6_63*%
%TO.N,/MUTE_SW*%
X96000000Y-76450000D03*
%TO.P,U1,64,PC7_64*%
%TO.N,unconnected-(U1-PC7-Pad64)*%
X95500000Y-76450000D03*
%TO.P,U1,65,PC8_65*%
%TO.N,unconnected-(U1-PC8-Pad65)*%
X95000000Y-76450000D03*
%TO.P,U1,66,PC9_66*%
%TO.N,unconnected-(U1-PC9-Pad66)*%
X94500000Y-76450000D03*
%TO.P,U1,67,PA8_67*%
%TO.N,unconnected-(U1-PA8-Pad67)*%
X94000000Y-76450000D03*
%TO.P,U1,68,PA9_68*%
%TO.N,/h7core_block/VBUS_SENSE*%
X93500000Y-76450000D03*
%TO.P,U1,69,PA10_69*%
%TO.N,unconnected-(U1-PA10-Pad69)*%
X93000000Y-76450000D03*
%TO.P,U1,70,PA11_70*%
%TO.N,/h7core_block/USB_DM*%
X92500000Y-76450000D03*
%TO.P,U1,71,PA12_71*%
%TO.N,/h7core_block/USB_DP*%
X92000000Y-76450000D03*
%TO.P,U1,72,PA13_72*%
%TO.N,/h7core_block/SWDIO*%
X91500000Y-76450000D03*
%TO.P,U1,73,VCAP_73*%
%TO.N,/h7core_block/VCAP2*%
X91000000Y-76450000D03*
%TO.P,U1,74,VSS_74*%
%TO.N,/GND*%
X90500000Y-76450000D03*
%TO.P,U1,75,VDD_75*%
%TO.N,/3V3*%
X90000000Y-76450000D03*
D17*
%TO.P,U1,76,PA14_76*%
%TO.N,/h7core_block/SWCLK*%
X88450000Y-78000000D03*
%TO.P,U1,77,PA15_77*%
%TO.N,unconnected-(U1-PA15-Pad77)*%
X88450000Y-78500000D03*
%TO.P,U1,78,PC10_78*%
%TO.N,unconnected-(U1-PC10-Pad78)*%
X88450000Y-79000000D03*
%TO.P,U1,79,PC11_79*%
%TO.N,unconnected-(U1-PC11-Pad79)*%
X88450000Y-79500000D03*
%TO.P,U1,80,PC12_80*%
%TO.N,unconnected-(U1-PC12-Pad80)*%
X88450000Y-80000000D03*
%TO.P,U1,81,PD0_81*%
%TO.N,unconnected-(U1-PD0-Pad81)*%
X88450000Y-80500000D03*
%TO.P,U1,82,PD1_82*%
%TO.N,unconnected-(U1-PD1-Pad82)*%
X88450000Y-81000000D03*
%TO.P,U1,83,PD2_83*%
%TO.N,unconnected-(U1-PD2-Pad83)*%
X88450000Y-81500000D03*
%TO.P,U1,84,PD3_84*%
%TO.N,unconnected-(U1-PD3-Pad84)*%
X88450000Y-82000000D03*
%TO.P,U1,85,PD4_85*%
%TO.N,unconnected-(U1-PD4-Pad85)*%
X88450000Y-82500000D03*
%TO.P,U1,86,PD5_86*%
%TO.N,unconnected-(U1-PD5-Pad86)*%
X88450000Y-83000000D03*
%TO.P,U1,87,PD6_87*%
%TO.N,unconnected-(U1-PD6-Pad87)*%
X88450000Y-83500000D03*
%TO.P,U1,88,PD7_88*%
%TO.N,unconnected-(U1-PD7-Pad88)*%
X88450000Y-84000000D03*
%TO.P,U1,89,PB3_89*%
%TO.N,/h7core_block/SWO*%
X88450000Y-84500000D03*
%TO.P,U1,90,PB4_90*%
%TO.N,unconnected-(U1-PB4-Pad90)*%
X88450000Y-85000000D03*
%TO.P,U1,91,PB5_91*%
%TO.N,/MUTE_N*%
X88450000Y-85500000D03*
%TO.P,U1,92,PB6_92*%
%TO.N,unconnected-(U1-PB6-Pad92)*%
X88450000Y-86000000D03*
%TO.P,U1,93,PB7_93*%
%TO.N,/h7core_block/USER_LED*%
X88450000Y-86500000D03*
%TO.P,U1,94,BOOT0_94*%
%TO.N,/h7core_block/BOOT0*%
X88450000Y-87000000D03*
%TO.P,U1,95,PB8_95*%
%TO.N,unconnected-(U1-PB8-Pad95)*%
X88450000Y-87500000D03*
%TO.P,U1,96,PB9_96*%
%TO.N,unconnected-(U1-PB9-Pad96)*%
X88450000Y-88000000D03*
%TO.P,U1,97,PE0_97*%
%TO.N,unconnected-(U1-PE0-Pad97)*%
X88450000Y-88500000D03*
%TO.P,U1,98,PE1_98*%
%TO.N,unconnected-(U1-PE1-Pad98)*%
X88450000Y-89000000D03*
%TO.P,U1,99,VSS_99*%
%TO.N,/GND*%
X88450000Y-89500000D03*
%TO.P,U1,100,VDD_100*%
%TO.N,/3V3*%
X88450000Y-90000000D03*
%TD*%
D18*
%TO.P,C61,1*%
%TO.N,/3V3*%
X105100000Y-78000000D03*
%TO.P,C61,2*%
%TO.N,/GND*%
X105100000Y-77040000D03*
%TD*%
D11*
%TO.P,RV102,1,1_1*%
%TO.N,/GND*%
X230000000Y-171500000D03*
%TO.P,RV102,2,2_2*%
%TO.N,/POT02*%
X232500000Y-171500000D03*
%TO.P,RV102,3,3_3*%
%TO.N,/3V3A*%
X235000000Y-171500000D03*
D12*
%TO.P,RV102,4,4_4*%
%TO.N,unconnected-(RV102-Pad4)*%
X228100000Y-164500000D03*
%TO.P,RV102,5,5_5*%
%TO.N,unconnected-(RV102-Pad5)*%
X236900000Y-164500000D03*
%TD*%
D19*
%TO.P,C169,1*%
%TO.N,/BIAS_W*%
X68500000Y-90330000D03*
%TO.P,C169,2*%
%TO.N,/GND*%
X68500000Y-92230000D03*
%TD*%
D11*
%TO.P,RV114,1,1_1*%
%TO.N,/GND*%
X206000000Y-171500000D03*
%TO.P,RV114,2,2_2*%
%TO.N,/POT14*%
X208500000Y-171500000D03*
%TO.P,RV114,3,3_3*%
%TO.N,/3V3A*%
X211000000Y-171500000D03*
D12*
%TO.P,RV114,4,4_4*%
%TO.N,unconnected-(RV114-Pad4)*%
X204100000Y-164500000D03*
%TO.P,RV114,5,5_5*%
%TO.N,unconnected-(RV114-Pad5)*%
X212900000Y-164500000D03*
%TD*%
D20*
%TO.P,C153,1*%
%TO.N,/TOGGLE4*%
X134000000Y-122700000D03*
%TO.P,C153,2*%
%TO.N,/GND*%
X134000000Y-124100000D03*
%TD*%
D21*
%TO.P,R104,1*%
%TO.N,/XLR_3*%
X198000000Y-58750000D03*
%TO.P,R104,2*%
%TO.N,/MIC_N*%
X198000000Y-60250000D03*
%TD*%
D22*
%TO.P,TP2,1*%
%TO.N,/VIN_9V*%
X227000000Y-54250000D03*
%TD*%
D23*
%TO.P,FB102,1*%
%TO.N,/5V*%
X68500000Y-74012500D03*
%TO.P,FB102,2*%
%TO.N,/5VA_W*%
X68500000Y-75587500D03*
%TD*%
%TO.P,FB101,1*%
%TO.N,/5V*%
X157600000Y-60212500D03*
%TO.P,FB101,2*%
%TO.N,/5VA*%
X157600000Y-61787500D03*
%TD*%
D20*
%TO.P,C119,1*%
%TO.N,/MIC_P*%
X215000000Y-62800000D03*
%TO.P,C119,2*%
%TO.N,/GND*%
X215000000Y-64200000D03*
%TD*%
D24*
%TO.P,C44,1*%
%TO.N,/h7core_block/ADC_VCC*%
X135650000Y-101500000D03*
%TO.P,C44,2*%
%TO.N,/GND*%
X132700000Y-101500000D03*
%TD*%
D25*
%TO.P,C55,1*%
%TO.N,/h7core_block/MUX1_SIG_ADC*%
X114200000Y-96225000D03*
%TO.P,C55,2*%
%TO.N,/GND*%
X114200000Y-97775000D03*
%TD*%
D26*
%TO.P,C167,1*%
%TO.N,/5VA*%
X163370000Y-88550000D03*
%TO.P,C167,2*%
%TO.N,/GND*%
X164330000Y-88550000D03*
%TD*%
D21*
%TO.P,R140,1*%
%TO.N,/3V3*%
X208500000Y-124150000D03*
%TO.P,R140,2*%
%TO.N,/TOGGLE7*%
X208500000Y-122650000D03*
%TD*%
D27*
%TO.P,U107,1,GND_1*%
%TO.N,/GND*%
X158700000Y-47552500D03*
%TO.P,U107,2,~{RESET}_2*%
%TO.N,/h7core_block/LDO_EN*%
X156800000Y-47552500D03*
%TO.P,U107,3,VCC_3*%
%TO.N,/3V3*%
X157750000Y-49427500D03*
%TD*%
D28*
%TO.P,R109,1*%
%TO.N,/RG_MID*%
X199250000Y-87000000D03*
%TO.P,R109,2*%
%TO.N,/A2_FB*%
X197750000Y-87000000D03*
%TD*%
D29*
%TO.P,R154,1*%
%TO.N,/5VA_W*%
X68500000Y-86000000D03*
%TO.P,R154,2*%
%TO.N,/BIAS_W*%
X68500000Y-87020000D03*
%TD*%
D20*
%TO.P,C123,1*%
%TO.N,/MIC_N*%
X201000000Y-62800000D03*
%TO.P,C123,2*%
%TO.N,/GND*%
X201000000Y-64200000D03*
%TD*%
D26*
%TO.P,C165,1*%
%TO.N,/3V3*%
X83060000Y-103370000D03*
%TO.P,C165,2*%
%TO.N,/GND*%
X84020000Y-103370000D03*
%TD*%
D30*
%TO.P,D107,1,A_1*%
%TO.N,/GND*%
X211050000Y-64650000D03*
%TO.P,D107,2,C_2*%
%TO.N,/5VA*%
X212950000Y-64650000D03*
%TO.P,D107,3,A/C_3*%
%TO.N,/MIC_P*%
X212000000Y-62350000D03*
%TD*%
D31*
%TO.P,C25,1*%
%TO.N,/3V3A*%
X148000000Y-49450000D03*
%TO.P,C25,2*%
%TO.N,/GND*%
X148000000Y-47900000D03*
%TD*%
D28*
%TO.P,R103,1*%
%TO.N,/IN_P*%
X210750000Y-77500000D03*
%TO.P,R103,2*%
%TO.N,/VREF*%
X212250000Y-77500000D03*
%TD*%
D32*
%TO.P,C56,1*%
%TO.N,/3V3*%
X86900000Y-90000000D03*
%TO.P,C56,2*%
%TO.N,/GND*%
X86900000Y-90960000D03*
%TD*%
D33*
%TO.P,C170,1*%
%TO.N,/3V3A*%
X72900000Y-100400000D03*
%TO.P,C170,2*%
%TO.N,/GND*%
X71000000Y-100400000D03*
%TD*%
D21*
%TO.P,R145,1*%
%TO.N,/MIC_N*%
X195000000Y-62750000D03*
%TO.P,R145,2*%
%TO.N,/GND*%
X195000000Y-64250000D03*
%TD*%
D22*
%TO.P,TP1,1*%
%TO.N,/9V_JACK*%
X218600000Y-34000000D03*
%TD*%
D34*
%TO.P,D106,1,K_1*%
%TO.N,/VIN_9V*%
X234350000Y-51200000D03*
%TO.P,D106,2,A_2*%
%TO.N,/9V_JACK*%
X234350000Y-46800000D03*
%TD*%
D13*
%TO.P,SW106,1,T1_1*%
%TO.N,/GND*%
X184500000Y-117540000D03*
%TO.P,SW106,2,COM_2*%
%TO.N,/TOGGLE6*%
X184500000Y-115000000D03*
%TO.P,SW106,3,T3_3*%
%TO.N,unconnected-(SW106-T3-Pad3)*%
X184500000Y-112460000D03*
%TD*%
D20*
%TO.P,C154,1*%
%TO.N,/TOGGLE5*%
X158000000Y-122700000D03*
%TO.P,C154,2*%
%TO.N,/GND*%
X158000000Y-124100000D03*
%TD*%
D35*
%TO.P,C115,1*%
%TO.N,/5V*%
X103500000Y-46000000D03*
%TO.P,C115,2*%
%TO.N,/GND*%
X103500000Y-49180000D03*
%TD*%
%TO.P,C114,1*%
%TO.N,/5V*%
X100500000Y-46000000D03*
%TO.P,C114,2*%
%TO.N,/GND*%
X100500000Y-42820000D03*
%TD*%
D36*
%TO.P,Y1,1,OSC1_1*%
%TO.N,/h7core_block/HSE_IN*%
X95350000Y-97600000D03*
%TO.P,Y1,2,GND_2*%
%TO.N,/GND*%
X95350000Y-99800000D03*
%TO.P,Y1,3,OSC2_3*%
%TO.N,/h7core_block/HSE_XTAL_OUT*%
X97050000Y-99800000D03*
%TO.P,Y1,4,GND_4*%
%TO.N,/GND*%
X97050000Y-97600000D03*
%TD*%
D25*
%TO.P,C18,1*%
%TO.N,/h7core_block/VBUS*%
X111910000Y-40000000D03*
%TO.P,C18,2*%
%TO.N,/GND*%
X111910000Y-41550000D03*
%TD*%
D18*
%TO.P,C57,1*%
%TO.N,/3V3*%
X88250000Y-74480000D03*
%TO.P,C57,2*%
%TO.N,/GND*%
X88250000Y-73520000D03*
%TD*%
D20*
%TO.P,C113,1*%
%TO.N,/VIN_9V*%
X97000000Y-53700000D03*
%TO.P,C113,2*%
%TO.N,/GND*%
X97000000Y-52300000D03*
%TD*%
D35*
%TO.P,C112,1*%
%TO.N,/VIN_9V*%
X99500000Y-54590000D03*
%TO.P,C112,2*%
%TO.N,/GND*%
X99500000Y-51410000D03*
%TD*%
D19*
%TO.P,C164,1*%
%TO.N,/h7core_block/VDDA*%
X105100000Y-97225000D03*
%TO.P,C164,2*%
%TO.N,/GND*%
X105100000Y-99125000D03*
%TD*%
D37*
%TO.P,D109,1,K_1*%
%TO.N,/5V*%
X71200000Y-72330000D03*
%TO.P,D109,2,A_2*%
%TO.N,/MUTE_COIL*%
X71200000Y-68870000D03*
%TD*%
D21*
%TO.P,R148,1*%
%TO.N,/TRS_T*%
X218500000Y-75250000D03*
%TO.P,R148,2*%
%TO.N,/GND*%
X218500000Y-76750000D03*
%TD*%
D31*
%TO.P,C6,1*%
%TO.N,/3V3*%
X106400000Y-78000000D03*
%TO.P,C6,2*%
%TO.N,/GND*%
X106400000Y-76450000D03*
%TD*%
D11*
%TO.P,RV106,1,1_1*%
%TO.N,/GND*%
X110000000Y-171500000D03*
%TO.P,RV106,2,2_2*%
%TO.N,/POT06*%
X112500000Y-171500000D03*
%TO.P,RV106,3,3_3*%
%TO.N,/3V3A*%
X115000000Y-171500000D03*
D12*
%TO.P,RV106,4,4_4*%
%TO.N,unconnected-(RV106-Pad4)*%
X108100000Y-164500000D03*
%TO.P,RV106,5,5_5*%
%TO.N,unconnected-(RV106-Pad5)*%
X116900000Y-164500000D03*
%TD*%
D38*
%TO.P,C158,1*%
%TO.N,/A1_FB*%
X208170000Y-90000000D03*
%TO.P,C158,2*%
%TO.N,/RG_MID*%
X202830000Y-90000000D03*
%TD*%
D21*
%TO.P,R141,1*%
%TO.N,/3V3*%
X232500000Y-124150000D03*
%TO.P,R141,2*%
%TO.N,/TOGGLE8*%
X232500000Y-122650000D03*
%TD*%
D10*
%TO.P,C125,1,1_1*%
%TO.N,/LINE_N*%
X191500000Y-72160000D03*
%TO.P,C125,2,2_2*%
%TO.N,/TRS_R*%
X191500000Y-68840000D03*
%TD*%
D21*
%TO.P,R118,1*%
%TO.N,/VREF_DIV*%
X164000000Y-93250000D03*
%TO.P,R118,2*%
%TO.N,/GND*%
X164000000Y-94750000D03*
%TD*%
D31*
%TO.P,C24,1*%
%TO.N,/5V*%
X155000000Y-49850000D03*
%TO.P,C24,2*%
%TO.N,/GND*%
X155000000Y-48300000D03*
%TD*%
D28*
%TO.P,R102,1*%
%TO.N,/LINE_P*%
X212250000Y-79300000D03*
%TO.P,R102,2*%
%TO.N,/IN_P*%
X210750000Y-79300000D03*
%TD*%
D25*
%TO.P,C2,1*%
%TO.N,/3V3*%
X85600000Y-90000000D03*
%TO.P,C2,2*%
%TO.N,/GND*%
X85600000Y-91550000D03*
%TD*%
D21*
%TO.P,R137,1*%
%TO.N,/3V3*%
X136500000Y-124150000D03*
%TO.P,R137,2*%
%TO.N,/TOGGLE4*%
X136500000Y-122650000D03*
%TD*%
D26*
%TO.P,C166,1*%
%TO.N,/3V3*%
X159970000Y-49430000D03*
%TO.P,C166,2*%
%TO.N,/GND*%
X160930000Y-49430000D03*
%TD*%
D21*
%TO.P,R138,1*%
%TO.N,/3V3*%
X160500000Y-124150000D03*
%TO.P,R138,2*%
%TO.N,/TOGGLE5*%
X160500000Y-122650000D03*
%TD*%
D20*
%TO.P,C142,1*%
%TO.N,/POT_MUX_OUT*%
X150060000Y-135800000D03*
%TO.P,C142,2*%
%TO.N,/GND*%
X150060000Y-137200000D03*
%TD*%
D39*
%TO.P,R2,1*%
%TO.N,/h7core_block/BOOT0*%
X65819999Y-94350000D03*
%TO.P,R2,2*%
%TO.N,/GND*%
X65819999Y-92700000D03*
%TD*%
D40*
%TO.P,FID2,*%
%TO.N,*%
X236800000Y-42000000D03*
%TD*%
D31*
%TO.P,C32,1*%
%TO.N,/3V3*%
X103860000Y-74275000D03*
%TO.P,C32,2*%
%TO.N,/GND*%
X103860000Y-72725000D03*
%TD*%
D20*
%TO.P,C130,1*%
%TO.N,/5VA_W*%
X77600000Y-86000000D03*
%TO.P,C130,2*%
%TO.N,/GND*%
X77600000Y-84600000D03*
%TD*%
D41*
%TO.P,R1,1*%
%TO.N,/h7core_block/HSE_OUT*%
X99000000Y-94175000D03*
%TO.P,R1,2*%
%TO.N,/h7core_block/HSE_XTAL_OUT*%
X99000000Y-95825000D03*
%TD*%
D28*
%TO.P,R110,1*%
%TO.N,/INA_O2*%
X199250000Y-83000000D03*
%TO.P,R110,2*%
%TO.N,/A2_FB*%
X197750000Y-83000000D03*
%TD*%
D11*
%TO.P,RV115,1,1_1*%
%TO.N,/GND*%
X62000000Y-171500000D03*
%TO.P,RV115,2,2_2*%
%TO.N,/POT15*%
X64500000Y-171500000D03*
%TO.P,RV115,3,3_3*%
%TO.N,/3V3A*%
X67000000Y-171500000D03*
D12*
%TO.P,RV115,4,4_4*%
%TO.N,unconnected-(RV115-Pad4)*%
X60100000Y-164500000D03*
%TO.P,RV115,5,5_5*%
%TO.N,unconnected-(RV115-Pad5)*%
X68900000Y-164500000D03*
%TD*%
D30*
%TO.P,D108,1,A_1*%
%TO.N,/GND*%
X197050000Y-64650000D03*
%TO.P,D108,2,C_2*%
%TO.N,/5VA*%
X198950000Y-64650000D03*
%TO.P,D108,3,A/C_3*%
%TO.N,/MIC_N*%
X198000000Y-62350000D03*
%TD*%
D21*
%TO.P,R128,1*%
%TO.N,/3V3*%
X169942000Y-59650000D03*
%TO.P,R128,2*%
%TO.N,/ENC_MENU_B*%
X169942000Y-61150000D03*
%TD*%
%TO.P,R134,1*%
%TO.N,/3V3*%
X64500000Y-124150000D03*
%TO.P,R134,2*%
%TO.N,/TOGGLE1*%
X64500000Y-122650000D03*
%TD*%
D14*
%TO.P,C144,1*%
%TO.N,/ENC_MENU_B*%
X167642000Y-60500000D03*
%TO.P,C144,2*%
%TO.N,/GND*%
X166242000Y-60500000D03*
%TD*%
D42*
%TO.P,C45,1*%
%TO.N,/h7core_block/ADC_VCC*%
X129225000Y-103500000D03*
%TO.P,C45,2*%
%TO.N,/GND*%
X130775000Y-103500000D03*
%TD*%
D43*
%TO.P,C22,1*%
%TO.N,/3V3*%
X88600000Y-67800000D03*
%TO.P,C22,2*%
%TO.N,/GND*%
X88600000Y-70750000D03*
%TD*%
D44*
%TO.P,R155,1*%
%TO.N,/BIAS_W*%
X66710000Y-90330000D03*
%TO.P,R155,2*%
%TO.N,/GND*%
X65690000Y-90330000D03*
%TD*%
D25*
%TO.P,C15,1*%
%TO.N,/h7core_block/HSE_IN*%
X92750000Y-99975000D03*
%TO.P,C15,2*%
%TO.N,/GND*%
X92750000Y-101525000D03*
%TD*%
D43*
%TO.P,C21,1*%
%TO.N,/3V3*%
X85850000Y-67800000D03*
%TO.P,C21,2*%
%TO.N,/GND*%
X85850000Y-70750000D03*
%TD*%
D11*
%TO.P,RV107,1,1_1*%
%TO.N,/GND*%
X134000000Y-145500000D03*
%TO.P,RV107,2,2_2*%
%TO.N,/POT07*%
X136500000Y-145500000D03*
%TO.P,RV107,3,3_3*%
%TO.N,/3V3A*%
X139000000Y-145500000D03*
D12*
%TO.P,RV107,4,4_4*%
%TO.N,unconnected-(RV107-Pad4)*%
X132100000Y-138500000D03*
%TO.P,RV107,5,5_5*%
%TO.N,unconnected-(RV107-Pad5)*%
X140900000Y-138500000D03*
%TD*%
D21*
%TO.P,R135,1*%
%TO.N,/3V3*%
X88500000Y-124150000D03*
%TO.P,R135,2*%
%TO.N,/TOGGLE2*%
X88500000Y-122650000D03*
%TD*%
D31*
%TO.P,C13,1*%
%TO.N,/h7core_block/VCAP2*%
X90000000Y-74275000D03*
%TO.P,C13,2*%
%TO.N,/GND*%
X90000000Y-72725000D03*
%TD*%
D21*
%TO.P,R123,1*%
%TO.N,/BUF_IN*%
X67500000Y-96900000D03*
%TO.P,R123,2*%
%TO.N,/BIAS_W*%
X67500000Y-95400000D03*
%TD*%
%TO.P,R139,1*%
%TO.N,/3V3*%
X184500000Y-124150000D03*
%TO.P,R139,2*%
%TO.N,/TOGGLE6*%
X184500000Y-122650000D03*
%TD*%
D25*
%TO.P,C10,1*%
%TO.N,/h7core_block/VDDA*%
X107500000Y-97225000D03*
%TO.P,C10,2*%
%TO.N,/GND*%
X107500000Y-98775000D03*
%TD*%
D13*
%TO.P,SWBYPASS1,1,T1_1*%
%TO.N,/GND*%
X64500000Y-64540000D03*
%TO.P,SWBYPASS1,2,COM_2*%
%TO.N,/MUTE_SW*%
X64500000Y-62000000D03*
%TO.P,SWBYPASS1,3,T3_3*%
%TO.N,unconnected-(SWBYPASS1-T3-Pad3)*%
X64500000Y-59460000D03*
%TD*%
D35*
%TO.P,C138,1*%
%TO.N,/ADC_VINR*%
X121200000Y-106510000D03*
%TO.P,C138,2*%
%TO.N,/GND*%
X121200000Y-109690000D03*
%TD*%
D29*
%TO.P,R27,1*%
%TO.N,/h7core_block/ADC_SCKI_SRC*%
X88150000Y-93490000D03*
%TO.P,R27,2*%
%TO.N,/h7core_block/ADC_SCKI*%
X88150000Y-94510000D03*
%TD*%
D21*
%TO.P,R136,1*%
%TO.N,/3V3*%
X112500000Y-124150000D03*
%TO.P,R136,2*%
%TO.N,/TOGGLE3*%
X112500000Y-122650000D03*
%TD*%
D20*
%TO.P,C151,1*%
%TO.N,/TOGGLE2*%
X86000000Y-122700000D03*
%TO.P,C151,2*%
%TO.N,/GND*%
X86000000Y-124100000D03*
%TD*%
D42*
%TO.P,C48,1*%
%TO.N,/h7core_block/ADC_VREF*%
X132725000Y-106000000D03*
%TO.P,C48,2*%
%TO.N,/GND*%
X134275000Y-106000000D03*
%TD*%
D20*
%TO.P,C152,1*%
%TO.N,/TOGGLE3*%
X110000000Y-122700000D03*
%TO.P,C152,2*%
%TO.N,/GND*%
X110000000Y-124100000D03*
%TD*%
D14*
%TO.P,C161,1*%
%TO.N,/DAC_LP*%
X63950000Y-106950000D03*
%TO.P,C161,2*%
%TO.N,/GND*%
X62550000Y-106950000D03*
%TD*%
D45*
%TO.P,D3,1,A_1*%
%TO.N,/h7core_block/PWR_LED_A*%
X108300000Y-75320000D03*
%TO.P,D3,2,K_2*%
%TO.N,/GND*%
X108300000Y-76820000D03*
%TD*%
D25*
%TO.P,C8,1*%
%TO.N,/h7core_block/VDDA*%
X103000000Y-97225000D03*
%TO.P,C8,2*%
%TO.N,/GND*%
X103000000Y-98775000D03*
%TD*%
D21*
%TO.P,R152,1*%
%TO.N,/VA_SENSE*%
X156900000Y-79850000D03*
%TO.P,R152,2*%
%TO.N,/GND*%
X156900000Y-78350000D03*
%TD*%
D28*
%TO.P,R126,1*%
%TO.N,/MUX_COM*%
X151560000Y-133500000D03*
%TO.P,R126,2*%
%TO.N,/POT_MUX_OUT*%
X150060000Y-133500000D03*
%TD*%
D11*
%TO.P,RV111,1,1_1*%
%TO.N,/GND*%
X182000000Y-145500000D03*
%TO.P,RV111,2,2_2*%
%TO.N,/POT11*%
X184500000Y-145500000D03*
%TO.P,RV111,3,3_3*%
%TO.N,/3V3A*%
X187000000Y-145500000D03*
D12*
%TO.P,RV111,4,4_4*%
%TO.N,unconnected-(RV111-Pad4)*%
X180100000Y-138500000D03*
%TO.P,RV111,5,5_5*%
%TO.N,unconnected-(RV111-Pad5)*%
X188900000Y-138500000D03*
%TD*%
D11*
%TO.P,RV103,1,1_1*%
%TO.N,/GND*%
X62000000Y-145500000D03*
%TO.P,RV103,2,2_2*%
%TO.N,/POT03*%
X64500000Y-145500000D03*
%TO.P,RV103,3,3_3*%
%TO.N,/3V3A*%
X67000000Y-145500000D03*
D12*
%TO.P,RV103,4,4_4*%
%TO.N,unconnected-(RV103-Pad4)*%
X60100000Y-138500000D03*
%TO.P,RV103,5,5_5*%
%TO.N,unconnected-(RV103-Pad5)*%
X68900000Y-138500000D03*
%TD*%
D25*
%TO.P,C14,1*%
%TO.N,/h7core_block/NRST*%
X65819999Y-86150000D03*
%TO.P,C14,2*%
%TO.N,/GND*%
X65819999Y-87700000D03*
%TD*%
D32*
%TO.P,C58,1*%
%TO.N,/3V3*%
X105600000Y-90000000D03*
%TO.P,C58,2*%
%TO.N,/GND*%
X105600000Y-90960000D03*
%TD*%
D11*
%TO.P,RV108,1,1_1*%
%TO.N,/GND*%
X134000000Y-171500000D03*
%TO.P,RV108,2,2_2*%
%TO.N,/POT08*%
X136500000Y-171500000D03*
%TO.P,RV108,3,3_3*%
%TO.N,/3V3A*%
X139000000Y-171500000D03*
D12*
%TO.P,RV108,4,4_4*%
%TO.N,unconnected-(RV108-Pad4)*%
X132100000Y-164500000D03*
%TO.P,RV108,5,5_5*%
%TO.N,unconnected-(RV108-Pad5)*%
X140900000Y-164500000D03*
%TD*%
D20*
%TO.P,C156,1*%
%TO.N,/TOGGLE7*%
X206000000Y-122700000D03*
%TO.P,C156,2*%
%TO.N,/GND*%
X206000000Y-124100000D03*
%TD*%
D21*
%TO.P,R112,1*%
%TO.N,/DA_P*%
X233000000Y-89750000D03*
%TO.P,R112,2*%
%TO.N,/VREF*%
X233000000Y-91250000D03*
%TD*%
D25*
%TO.P,C3,1*%
%TO.N,/3V3*%
X106900000Y-90000000D03*
%TO.P,C3,2*%
%TO.N,/GND*%
X106900000Y-91550000D03*
%TD*%
%TO.P,C16,1*%
%TO.N,/h7core_block/HSE_XTAL_OUT*%
X99000000Y-100225000D03*
%TO.P,C16,2*%
%TO.N,/GND*%
X99000000Y-101775000D03*
%TD*%
D28*
%TO.P,R125,1*%
%TO.N,/OUT_AC*%
X76150000Y-77340000D03*
%TO.P,R125,2*%
%TO.N,/GND*%
X74650000Y-77340000D03*
%TD*%
D21*
%TO.P,R111,1*%
%TO.N,/INA_O1*%
X231000000Y-91250000D03*
%TO.P,R111,2*%
%TO.N,/DA_P*%
X231000000Y-89750000D03*
%TD*%
%TO.P,R151,1*%
%TO.N,/5VA*%
X156900000Y-83100000D03*
%TO.P,R151,2*%
%TO.N,/VA_SENSE*%
X156900000Y-81600000D03*
%TD*%
D28*
%TO.P,R116,1*%
%TO.N,/G2_INV*%
X233750000Y-78500000D03*
%TO.P,R116,2*%
%TO.N,/G2_RG*%
X235250000Y-78500000D03*
%TD*%
D46*
%TO.P,L101,1,1_1*%
%TO.N,/BUCK5_SW*%
X94150000Y-46000000D03*
%TO.P,L101,2,2_2*%
%TO.N,/5V*%
X97850000Y-46000000D03*
%TD*%
D47*
%TO.P,C120,1,1_1*%
%TO.N,/IN_P*%
X212000000Y-73170000D03*
%TO.P,C120,2,2_2*%
%TO.N,/MIC_P*%
X212000000Y-67830000D03*
%TD*%
D28*
%TO.P,R108,1*%
%TO.N,/INA_O1*%
X210750000Y-81400000D03*
%TO.P,R108,2*%
%TO.N,/A1_FB*%
X212250000Y-81400000D03*
%TD*%
%TO.P,R146,1*%
%TO.N,/VREF_BUF*%
X155750000Y-93000000D03*
%TO.P,R146,2*%
%TO.N,/VREF*%
X157250000Y-93000000D03*
%TD*%
D21*
%TO.P,R113,1*%
%TO.N,/INA_O2*%
X229000000Y-91250000D03*
%TO.P,R113,2*%
%TO.N,/DA_N*%
X229000000Y-89750000D03*
%TD*%
D48*
%TO.P,ENC101,A,A_A*%
%TO.N,/ENC_MENU_A*%
X176442000Y-63250000D03*
%TO.P,ENC101,B,B_B*%
%TO.N,/ENC_MENU_B*%
X171442000Y-63250000D03*
%TO.P,ENC101,C,C_C*%
%TO.N,/GND*%
X173942000Y-63250000D03*
%TO.P,ENC101,D,D_D*%
%TO.N,/ENC_MENU_SW*%
X176442000Y-77750000D03*
%TO.P,ENC101,E,E_E*%
%TO.N,/GND*%
X171442000Y-77750000D03*
D49*
%TO.P,ENC101,EH,EH_EH*%
X179442000Y-70750000D03*
X168442000Y-70750000D03*
%TD*%
D50*
%TO.P,D2,1,I/O1_1*%
%TO.N,/h7core_block/USB_DP*%
X113850000Y-40650000D03*
%TO.P,D2,2,GND_2*%
%TO.N,/GND*%
X114800000Y-40650000D03*
%TO.P,D2,3,I/O2_3*%
%TO.N,/h7core_block/USB_DM*%
X115750000Y-40650000D03*
%TO.P,D2,4,I/O2_4*%
X115750000Y-38350000D03*
%TO.P,D2,5,VBUS_5*%
%TO.N,/h7core_block/VBUS*%
X114800000Y-38350000D03*
%TO.P,D2,6,I/O1_6*%
%TO.N,/h7core_block/USB_DP*%
X113850000Y-38350000D03*
%TD*%
D28*
%TO.P,R119,1*%
%TO.N,/PRE_OUT*%
X116250000Y-100000000D03*
%TO.P,R119,2*%
%TO.N,/ADC_RC*%
X117750000Y-100000000D03*
%TD*%
D21*
%TO.P,R122,1*%
%TO.N,/DAC_AC*%
X65750000Y-98400000D03*
%TO.P,R122,2*%
%TO.N,/BUF_IN*%
X65750000Y-96900000D03*
%TD*%
D25*
%TO.P,C7,1*%
%TO.N,/3V3*%
X95000000Y-93725000D03*
%TO.P,C7,2*%
%TO.N,/GND*%
X95000000Y-95275000D03*
%TD*%
D21*
%TO.P,R114,1*%
%TO.N,/DA_N*%
X227000000Y-89750000D03*
%TO.P,R114,2*%
%TO.N,/PRE1*%
X227000000Y-91250000D03*
%TD*%
D51*
%TO.P,FB1,1*%
%TO.N,/3V3*%
X101000000Y-98800000D03*
%TO.P,FB1,2*%
%TO.N,/h7core_block/VDDA*%
X101000000Y-97225000D03*
%TD*%
D13*
%TO.P,SW108,1,T1_1*%
%TO.N,/GND*%
X232500000Y-117540000D03*
%TO.P,SW108,2,COM_2*%
%TO.N,/TOGGLE8*%
X232500000Y-115000000D03*
%TO.P,SW108,3,T3_3*%
%TO.N,unconnected-(SW108-T3-Pad3)*%
X232500000Y-112460000D03*
%TD*%
D10*
%TO.P,C121,1,1_1*%
%TO.N,/LINE_P*%
X218500000Y-72160000D03*
%TO.P,C121,2,2_2*%
%TO.N,/TRS_T*%
X218500000Y-68840000D03*
%TD*%
D52*
%TO.P,U104,1,OUT/A_1*%
%TO.N,/INA_O1*%
X207600000Y-81400000D03*
%TO.P,U104,2,-IN/A_2*%
%TO.N,/A1_FB*%
X207600000Y-80130000D03*
%TO.P,U104,3,+IN/A_3*%
%TO.N,/IN_P*%
X207600000Y-78870000D03*
%TO.P,U104,4,-VS_4*%
%TO.N,/GND*%
X207600000Y-77600000D03*
%TO.P,U104,5,+IN/B_5*%
%TO.N,/IN_N*%
X202400000Y-77600000D03*
%TO.P,U104,6,-IN/B_6*%
%TO.N,/A2_FB*%
X202400000Y-78870000D03*
%TO.P,U104,7,OUT/B_7*%
%TO.N,/INA_O2*%
X202400000Y-80130000D03*
%TO.P,U104,8,+VS_8*%
%TO.N,/5VA*%
X202400000Y-81400000D03*
%TD*%
D42*
%TO.P,C29,1*%
%TO.N,/3V3A*%
X164225000Y-102400000D03*
%TO.P,C29,2*%
%TO.N,/GND*%
X165775000Y-102400000D03*
%TD*%
D14*
%TO.P,C143,1*%
%TO.N,/ENC_MENU_A*%
X178742000Y-60500000D03*
%TO.P,C143,2*%
%TO.N,/GND*%
X180142000Y-60500000D03*
%TD*%
%TO.P,C132,1*%
%TO.N,/PRE_OUT*%
X230370000Y-78500000D03*
%TO.P,C132,2*%
%TO.N,/G2_INV*%
X231770000Y-78500000D03*
%TD*%
D41*
%TO.P,R4,1*%
%TO.N,/h7core_block/CC1*%
X118110000Y-39675000D03*
%TO.P,R4,2*%
%TO.N,/GND*%
X118110000Y-41325000D03*
%TD*%
D28*
%TO.P,R150,1*%
%TO.N,/MUTE_N*%
X71000000Y-82750000D03*
%TO.P,R150,2*%
%TO.N,/MUTE_BASE*%
X72500000Y-82750000D03*
%TD*%
D25*
%TO.P,C34,1*%
%TO.N,/h7core_block/CAPP*%
X69400000Y-104020000D03*
%TO.P,C34,2*%
%TO.N,/h7core_block/CAPM*%
X69400000Y-105570000D03*
%TD*%
D42*
%TO.P,C47,1*%
%TO.N,/3V3*%
X129225000Y-101500000D03*
%TO.P,C47,2*%
%TO.N,/GND*%
X130775000Y-101500000D03*
%TD*%
D53*
%TO.P,U101,1,COMMONINOUT/OUTPUT_1*%
%TO.N,/MUX_COM*%
X151560000Y-131080000D03*
%TO.P,U101,2,I7_2*%
%TO.N,/POT08*%
X151560000Y-130430000D03*
%TO.P,U101,3,I6_3*%
%TO.N,/POT07*%
X151560000Y-129780000D03*
%TO.P,U101,4,I5_4*%
%TO.N,/POT06*%
X151560000Y-129130000D03*
%TO.P,U101,5,I4_5*%
%TO.N,/POT05*%
X151560000Y-128480000D03*
%TO.P,U101,6,I3_6*%
%TO.N,/POT04*%
X151560000Y-127820000D03*
%TO.P,U101,7,I2_7*%
%TO.N,/POT03*%
X151560000Y-127170000D03*
%TO.P,U101,8,I1_8*%
%TO.N,/POT02*%
X151560000Y-126520000D03*
%TO.P,U101,9,I0_9*%
%TO.N,/POT01*%
X151560000Y-125870000D03*
%TO.P,U101,10,S0_10*%
%TO.N,/MUX_S0*%
X151560000Y-125220000D03*
%TO.P,U101,11,S1_11*%
%TO.N,/MUX_S1*%
X151560000Y-124570000D03*
%TO.P,U101,12,GND_12*%
%TO.N,/GND*%
X151560000Y-123920000D03*
%TO.P,U101,13,S3_13*%
%TO.N,/MUX_S3*%
X144440000Y-123920000D03*
%TO.P,U101,14,S2_14*%
%TO.N,/MUX_S2*%
X144440000Y-124570000D03*
%TO.P,U101,15,~{E}_15*%
%TO.N,/GND*%
X144440000Y-125220000D03*
%TO.P,U101,16,I15_16*%
%TO.N,/POT16*%
X144440000Y-125870000D03*
%TO.P,U101,17,I14_17*%
%TO.N,/POT10*%
X144440000Y-126520000D03*
%TO.P,U101,18,I13_18*%
%TO.N,/POT09*%
X144440000Y-127170000D03*
%TO.P,U101,19,I12_19*%
%TO.N,/POT15*%
X144440000Y-127820000D03*
%TO.P,U101,20,I11_20*%
%TO.N,/POT12*%
X144440000Y-128480000D03*
%TO.P,U101,21,I10_21*%
%TO.N,/POT14*%
X144440000Y-129130000D03*
%TO.P,U101,22,I9_22*%
%TO.N,/POT11*%
X144440000Y-129780000D03*
%TO.P,U101,23,I8_23*%
%TO.N,/POT13*%
X144440000Y-130430000D03*
%TO.P,U101,24,VCC_24*%
%TO.N,/3V3A*%
X144440000Y-131080000D03*
%TD*%
D11*
%TO.P,RV101,1,1_1*%
%TO.N,/GND*%
X230000000Y-145500000D03*
%TO.P,RV101,2,2_2*%
%TO.N,/POT01*%
X232500000Y-145500000D03*
%TO.P,RV101,3,3_3*%
%TO.N,/3V3A*%
X235000000Y-145500000D03*
D12*
%TO.P,RV101,4,4_4*%
%TO.N,unconnected-(RV101-Pad4)*%
X228100000Y-138500000D03*
%TO.P,RV101,5,5_5*%
%TO.N,unconnected-(RV101-Pad5)*%
X236900000Y-138500000D03*
%TD*%
D11*
%TO.P,RV112,1,1_1*%
%TO.N,/GND*%
X182000000Y-171500000D03*
%TO.P,RV112,2,2_2*%
%TO.N,/POT12*%
X184500000Y-171500000D03*
%TO.P,RV112,3,3_3*%
%TO.N,/3V3A*%
X187000000Y-171500000D03*
D12*
%TO.P,RV112,4,4_4*%
%TO.N,unconnected-(RV112-Pad4)*%
X180100000Y-164500000D03*
%TO.P,RV112,5,5_5*%
%TO.N,unconnected-(RV112-Pad5)*%
X188900000Y-164500000D03*
%TD*%
D21*
%TO.P,R142,1*%
%TO.N,/3V3*%
X137055000Y-49250000D03*
%TO.P,R142,2*%
%TO.N,/I2C_SCL*%
X137055000Y-50750000D03*
%TD*%
D41*
%TO.P,R29,1*%
%TO.N,/h7core_block/I2S_BCLK_SRC*%
X91500000Y-94425000D03*
%TO.P,R29,2*%
%TO.N,/h7core_block/I2S_BCLK*%
X91500000Y-96075000D03*
%TD*%
D28*
%TO.P,R120,1*%
%TO.N,/3V3*%
X94500000Y-72400000D03*
%TO.P,R120,2*%
%TO.N,/MUTE_SW*%
X96000000Y-72400000D03*
%TD*%
D54*
%TO.P,L1,1,1_1*%
%TO.N,/h7core_block/BUCK_SW*%
X95500000Y-67800000D03*
%TO.P,L1,2,2_2*%
%TO.N,/3V3*%
X91500000Y-67800000D03*
%TD*%
D55*
%TO.P,Q101,1,B_1*%
%TO.N,/MUTE_BASE*%
X72500000Y-78450000D03*
%TO.P,Q101,2,E_2*%
%TO.N,/GND*%
X72500000Y-76550000D03*
%TO.P,Q101,3,C_3*%
%TO.N,/MUTE_COIL*%
X70500000Y-77500000D03*
%TD*%
D56*
%TO.P,C159,1,1_1*%
%TO.N,/G2_RG*%
X237000000Y-81200000D03*
%TO.P,C159,2,2_2*%
%TO.N,/GND*%
X237000000Y-86000000D03*
%TD*%
D21*
%TO.P,R117,1*%
%TO.N,/5VA*%
X162000000Y-94750000D03*
%TO.P,R117,2*%
%TO.N,/VREF_DIV*%
X162000000Y-93250000D03*
%TD*%
D42*
%TO.P,C33,1*%
%TO.N,/h7core_block/LDOO*%
X85475000Y-104670000D03*
%TO.P,C33,2*%
%TO.N,/GND*%
X87025000Y-104670000D03*
%TD*%
D57*
%TO.P,C35,1*%
%TO.N,/h7core_block/VNEG*%
X73175000Y-106110000D03*
%TO.P,C35,2*%
%TO.N,/GND*%
X71625000Y-106110000D03*
%TD*%
D41*
%TO.P,R5,1*%
%TO.N,/h7core_block/CC2*%
X110010000Y-39675000D03*
%TO.P,R5,2*%
%TO.N,/GND*%
X110010000Y-41325000D03*
%TD*%
D25*
%TO.P,C27,1*%
%TO.N,/3V3A*%
X144440000Y-133225000D03*
%TO.P,C27,2*%
%TO.N,/GND*%
X144440000Y-134775000D03*
%TD*%
D14*
%TO.P,C145,1*%
%TO.N,/ENC_MENU_SW*%
X178740000Y-80500000D03*
%TO.P,C145,2*%
%TO.N,/GND*%
X180140000Y-80500000D03*
%TD*%
D31*
%TO.P,C46,1*%
%TO.N,/3V3*%
X129225000Y-99965000D03*
%TO.P,C46,2*%
%TO.N,/GND*%
X129225000Y-98415000D03*
%TD*%
D20*
%TO.P,C157,1*%
%TO.N,/TOGGLE8*%
X230000000Y-122700000D03*
%TO.P,C157,2*%
%TO.N,/GND*%
X230000000Y-124100000D03*
%TD*%
D13*
%TO.P,SW103,1,T1_1*%
%TO.N,/GND*%
X112500000Y-117540000D03*
%TO.P,SW103,2,COM_2*%
%TO.N,/TOGGLE3*%
X112500000Y-115000000D03*
%TO.P,SW103,3,T3_3*%
%TO.N,unconnected-(SW103-T3-Pad3)*%
X112500000Y-112460000D03*
%TD*%
D11*
%TO.P,RVGAIN1,1,1_1*%
%TO.N,/PRE_OUT*%
X230000000Y-68500000D03*
%TO.P,RVGAIN1,2,2_2*%
%TO.N,/G2_INV*%
X232500000Y-68500000D03*
%TO.P,RVGAIN1,3,3_3*%
X235000000Y-68500000D03*
D12*
%TO.P,RVGAIN1,4,4_4*%
%TO.N,unconnected-(RVGAIN1-Pad4)*%
X228100000Y-61500000D03*
%TO.P,RVGAIN1,5,5_5*%
%TO.N,unconnected-(RVGAIN1-Pad5)*%
X236900000Y-61500000D03*
%TD*%
D14*
%TO.P,C127,1*%
%TO.N,/5VA*%
X226800000Y-78500000D03*
%TO.P,C127,2*%
%TO.N,/GND*%
X228200000Y-78500000D03*
%TD*%
D28*
%TO.P,R105,1*%
%TO.N,/LINE_N*%
X197750000Y-79500000D03*
%TO.P,R105,2*%
%TO.N,/IN_N*%
X199250000Y-79500000D03*
%TD*%
D25*
%TO.P,C4,1*%
%TO.N,/3V3*%
X93350000Y-93725000D03*
%TO.P,C4,2*%
%TO.N,/GND*%
X93350000Y-95275000D03*
%TD*%
D10*
%TO.P,C141,1,1_1*%
%TO.N,/BUF_R*%
X79600000Y-80660000D03*
%TO.P,C141,2,2_2*%
%TO.N,/OUT_AC*%
X79600000Y-77340000D03*
%TD*%
D28*
%TO.P,R129,1*%
%TO.N,/3V3*%
X174942000Y-80500000D03*
%TO.P,R129,2*%
%TO.N,/ENC_MENU_SW*%
X176442000Y-80500000D03*
%TD*%
D57*
%TO.P,C28,1*%
%TO.N,/3V3A*%
X141775000Y-131080000D03*
%TO.P,C28,2*%
%TO.N,/GND*%
X140225000Y-131080000D03*
%TD*%
D58*
%TO.P,U105,1,OUT/A_1*%
%TO.N,/PRE1*%
X229100000Y-87100000D03*
%TO.P,U105,2,-IN/A_2*%
%TO.N,/DA_N*%
X230370000Y-87100000D03*
%TO.P,U105,3,+IN/A_3*%
%TO.N,/DA_P*%
X231630000Y-87100000D03*
%TO.P,U105,4,-VS_4*%
%TO.N,/GND*%
X232900000Y-87100000D03*
%TO.P,U105,5,+IN/B_5*%
%TO.N,/PRE1*%
X232900000Y-81900000D03*
%TO.P,U105,6,-IN/B_6*%
%TO.N,/G2_INV*%
X231630000Y-81900000D03*
%TO.P,U105,7,OUT/B_7*%
%TO.N,/PRE_OUT*%
X230370000Y-81900000D03*
%TO.P,U105,8,+VS_8*%
%TO.N,/5VA*%
X229100000Y-81900000D03*
%TD*%
D59*
%TO.P,K102,1,1_1*%
%TO.N,/5V*%
X74200000Y-74010000D03*
%TO.P,K102,2,2_2*%
%TO.N,unconnected-(K102-Pad2)*%
X77400000Y-74010000D03*
%TO.P,K102,3,3_3*%
%TO.N,/OUT_AC*%
X79600000Y-74010000D03*
%TO.P,K102,4,4_4*%
%TO.N,/OUT_TIP*%
X81800000Y-74010000D03*
%TO.P,K102,5,5_5*%
%TO.N,unconnected-(K102-Pad5)*%
X81800000Y-66990000D03*
%TO.P,K102,6,6_6*%
%TO.N,/OUT_TIP*%
X79600000Y-66990000D03*
%TO.P,K102,7,7_7*%
%TO.N,/GND*%
X77400000Y-66990000D03*
%TO.P,K102,8,8_8*%
%TO.N,/MUTE_COIL*%
X74200000Y-66990000D03*
%TD*%
D21*
%TO.P,R149,1*%
%TO.N,/TRS_R*%
X191500000Y-75250000D03*
%TO.P,R149,2*%
%TO.N,/GND*%
X191500000Y-76750000D03*
%TD*%
D11*
%TO.P,RV116,1,1_1*%
%TO.N,/GND*%
X86000000Y-171500000D03*
%TO.P,RV116,2,2_2*%
%TO.N,/POT16*%
X88500000Y-171500000D03*
%TO.P,RV116,3,3_3*%
%TO.N,/3V3A*%
X91000000Y-171500000D03*
D12*
%TO.P,RV116,4,4_4*%
%TO.N,unconnected-(RV116-Pad4)*%
X84100000Y-164500000D03*
%TO.P,RV116,5,5_5*%
%TO.N,unconnected-(RV116-Pad5)*%
X92900000Y-164500000D03*
%TD*%
D41*
%TO.P,R6,1*%
%TO.N,/h7core_block/VBUS*%
X120110000Y-39675000D03*
%TO.P,R6,2*%
%TO.N,/h7core_block/VBUS_SENSE*%
X120110000Y-41325000D03*
%TD*%
D13*
%TO.P,SW107,1,T1_1*%
%TO.N,/GND*%
X208500000Y-117540000D03*
%TO.P,SW107,2,COM_2*%
%TO.N,/TOGGLE7*%
X208500000Y-115000000D03*
%TO.P,SW107,3,T3_3*%
%TO.N,unconnected-(SW107-T3-Pad3)*%
X208500000Y-112460000D03*
%TD*%
D11*
%TO.P,RV113,1,1_1*%
%TO.N,/GND*%
X206000000Y-145500000D03*
%TO.P,RV113,2,2_2*%
%TO.N,/POT13*%
X208500000Y-145500000D03*
%TO.P,RV113,3,3_3*%
%TO.N,/3V3A*%
X211000000Y-145500000D03*
D12*
%TO.P,RV113,4,4_4*%
%TO.N,unconnected-(RV113-Pad4)*%
X204100000Y-138500000D03*
%TO.P,RV113,5,5_5*%
%TO.N,unconnected-(RV113-Pad5)*%
X212900000Y-138500000D03*
%TD*%
D60*
%TO.P,U8,1,VREF_1*%
%TO.N,/h7core_block/ADC_VREF*%
X126800000Y-104450000D03*
%TO.P,U8,2,AGND_2*%
%TO.N,/GND*%
X126800000Y-103800000D03*
%TO.P,U8,3,VCC_3*%
%TO.N,/h7core_block/ADC_VCC*%
X126800000Y-103150000D03*
%TO.P,U8,4,VDD_4*%
%TO.N,/3V3*%
X126800000Y-102500000D03*
%TO.P,U8,5,DGND_5*%
%TO.N,/GND*%
X126800000Y-101850000D03*
%TO.P,U8,6,SCKI_6*%
%TO.N,/h7core_block/ADC_SCKI*%
X126800000Y-101200000D03*
%TO.P,U8,7,LRCK_7*%
%TO.N,/h7core_block/I2S_LRCLK*%
X126800000Y-100550000D03*
%TO.P,U8,8,BCK_8*%
%TO.N,/h7core_block/I2S_BCLK*%
X121200000Y-100550000D03*
%TO.P,U8,9,DOUT_9*%
%TO.N,/h7core_block/ADC_DOUT*%
X121200000Y-101200000D03*
%TO.P,U8,10,MD0_10*%
%TO.N,/GND*%
X121200000Y-101850000D03*
%TO.P,U8,11,MD1_11*%
X121200000Y-102500000D03*
%TO.P,U8,12,FMT_12*%
X121200000Y-103150000D03*
%TO.P,U8,13,VINL_13*%
%TO.N,/ADC_VINL*%
X121200000Y-103800000D03*
%TO.P,U8,14,VINR_14*%
%TO.N,/ADC_VINR*%
X121200000Y-104450000D03*
%TD*%
D21*
%TO.P,R144,1*%
%TO.N,/MIC_P*%
X209000000Y-62750000D03*
%TO.P,R144,2*%
%TO.N,/GND*%
X209000000Y-64250000D03*
%TD*%
D42*
%TO.P,C30,1*%
%TO.N,/3V3A*%
X164225000Y-100300000D03*
%TO.P,C30,2*%
%TO.N,/GND*%
X165775000Y-100300000D03*
%TD*%
D61*
%TO.P,J117,1,GND_1*%
%TO.N,/GND*%
X131975000Y-55950000D03*
%TO.P,J117,2,VCC_2*%
%TO.N,/3V3*%
X134515000Y-59550000D03*
%TO.P,J117,3,SCL_3*%
%TO.N,/I2C_SCL*%
X137055000Y-55950000D03*
%TO.P,J117,4,SDA_4*%
%TO.N,/I2C_SDA*%
X139595000Y-59550000D03*
%TD*%
D14*
%TO.P,C111,1*%
%TO.N,/3V3A*%
X72900000Y-102600000D03*
%TO.P,C111,2*%
%TO.N,/GND*%
X71500000Y-102600000D03*
%TD*%
D13*
%TO.P,SW104,1,T1_1*%
%TO.N,/GND*%
X136500000Y-117540000D03*
%TO.P,SW104,2,COM_2*%
%TO.N,/TOGGLE4*%
X136500000Y-115000000D03*
%TO.P,SW104,3,T3_3*%
%TO.N,unconnected-(SW104-T3-Pad3)*%
X136500000Y-112460000D03*
%TD*%
D62*
%TO.P,J1,1,SHELL_1*%
%TO.N,/GND*%
X119320000Y-35550000D03*
%TO.P,J1,2,SHELL_2*%
X110680000Y-35550000D03*
D63*
%TO.P,J1,3,SHELL_3*%
X119320000Y-31400000D03*
%TO.P,J1,4,SHELL_4*%
X110680000Y-31400000D03*
D64*
%TO.P,J1,A1B12,GND_A1B12*%
X118200000Y-36165000D03*
%TO.P,J1,A4B9,VBUS_A4B9*%
%TO.N,/h7core_block/VBUS*%
X117400000Y-36165000D03*
D65*
%TO.P,J1,A5,CC1_A5*%
%TO.N,/h7core_block/CC1*%
X116250000Y-36120000D03*
%TO.P,J1,A6,DP1_A6*%
%TO.N,/h7core_block/USB_DP*%
X115250000Y-36120000D03*
%TO.P,J1,A7,DN1_A7*%
%TO.N,/h7core_block/USB_DM*%
X114750000Y-36120000D03*
%TO.P,J1,A8,SBU1_A8*%
%TO.N,unconnected-(J1-SBU1-PadA8)*%
X113750000Y-36120000D03*
D64*
%TO.P,J1,B1A12,GND_B1A12*%
%TO.N,/GND*%
X111800000Y-36165000D03*
%TO.P,J1,B4A9,VBUS_B4A9*%
%TO.N,/h7core_block/VBUS*%
X112600000Y-36165000D03*
D65*
%TO.P,J1,B5,CC2_B5*%
%TO.N,/h7core_block/CC2*%
X113250000Y-36120000D03*
%TO.P,J1,B6,DP2_B6*%
%TO.N,/h7core_block/USB_DP*%
X114250000Y-36120000D03*
%TO.P,J1,B7,DN2_B7*%
%TO.N,/h7core_block/USB_DM*%
X115750000Y-36120000D03*
%TO.P,J1,B8,SBU2_B8*%
%TO.N,unconnected-(J1-SBU2-PadB8)*%
X116750000Y-36120000D03*
%TD*%
D21*
%TO.P,R124,1*%
%TO.N,/BUF_OUT*%
X79600000Y-85350000D03*
%TO.P,R124,2*%
%TO.N,/BUF_R*%
X79600000Y-83850000D03*
%TD*%
D28*
%TO.P,R153,1*%
%TO.N,/MUTE_BASE*%
X72500000Y-80750000D03*
%TO.P,R153,2*%
%TO.N,/GND*%
X71000000Y-80750000D03*
%TD*%
D66*
%TO.P,SWBOOT1,1,A_1*%
%TO.N,/h7core_block/BOOT0*%
X58000000Y-94350000D03*
%TO.P,SWBOOT1,2,B_2*%
X64000000Y-94350000D03*
%TO.P,SWBOOT1,3,C_3*%
%TO.N,/3V3*%
X58000000Y-98050000D03*
%TO.P,SWBOOT1,4,D_4*%
X64000000Y-98050000D03*
%TD*%
D20*
%TO.P,C134,1*%
%TO.N,/5VA*%
X133500000Y-97175000D03*
%TO.P,C134,2*%
%TO.N,/GND*%
X133500000Y-98575000D03*
%TD*%
D67*
%TO.P,U6,1,CPVDD_1*%
%TO.N,/3V3A*%
X75530000Y-103370000D03*
%TO.P,U6,2,CAPP_2*%
%TO.N,/h7core_block/CAPP*%
X75530000Y-104020000D03*
%TO.P,U6,3,CPGND_3*%
%TO.N,/GND*%
X75530000Y-104670000D03*
%TO.P,U6,4,CAPM_4*%
%TO.N,/h7core_block/CAPM*%
X75530000Y-105320000D03*
%TO.P,U6,5,VNEG_5*%
%TO.N,/h7core_block/VNEG*%
X75530000Y-105980000D03*
%TO.P,U6,6,OUTL_6*%
%TO.N,/DAC_OUTL*%
X75530000Y-106630000D03*
%TO.P,U6,7,OUTR_7*%
%TO.N,unconnected-(U6-OUTR-Pad7)*%
X75530000Y-107280000D03*
%TO.P,U6,8,AVDD_8*%
%TO.N,/3V3A*%
X75530000Y-107930000D03*
%TO.P,U6,9,AGND_9*%
%TO.N,/GND*%
X75530000Y-108580000D03*
%TO.P,U6,10,DEMP_10*%
X75530000Y-109230000D03*
%TO.P,U6,11,FLT_11*%
X81270000Y-109230000D03*
%TO.P,U6,12,SCK_12*%
X81270000Y-108580000D03*
%TO.P,U6,13,BCK_13*%
%TO.N,/h7core_block/I2S_BCLK*%
X81270000Y-107930000D03*
%TO.P,U6,14,DIN_14*%
%TO.N,/h7core_block/I2S_DATA*%
X81270000Y-107280000D03*
%TO.P,U6,15,LRCK_15*%
%TO.N,/h7core_block/I2S_LRCLK*%
X81270000Y-106630000D03*
%TO.P,U6,16,FMT_16*%
%TO.N,/GND*%
X81270000Y-105980000D03*
%TO.P,U6,17,XSMT_17*%
%TO.N,/h7core_block/XSMT*%
X81270000Y-105320000D03*
%TO.P,U6,18,LDOO_18*%
%TO.N,/h7core_block/LDOO*%
X81270000Y-104670000D03*
%TO.P,U6,19,DGND_19*%
%TO.N,/GND*%
X81270000Y-104020000D03*
%TO.P,U6,20,DVDD_20*%
%TO.N,/3V3*%
X81270000Y-103370000D03*
%TD*%
D68*
%TO.P,U3,1,FB_1*%
%TO.N,/3V3*%
X96450000Y-59800000D03*
%TO.P,U3,2,EN_2*%
%TO.N,/5V*%
X95500000Y-59800000D03*
%TO.P,U3,3,VIN_3*%
X94550000Y-59800000D03*
%TO.P,U3,4,GND_4*%
%TO.N,/GND*%
X94550000Y-62000000D03*
%TO.P,U3,5,SW_5*%
%TO.N,/h7core_block/BUCK_SW*%
X95500000Y-62000000D03*
%TO.P,U3,6,BST_6*%
%TO.N,/h7core_block/BUCK_BST*%
X96450000Y-62000000D03*
%TD*%
D21*
%TO.P,R143,1*%
%TO.N,/3V3*%
X139594999Y-49250000D03*
%TO.P,R143,2*%
%TO.N,/I2C_SDA*%
X139594999Y-50750000D03*
%TD*%
D41*
%TO.P,R10,1*%
%TO.N,/3V3*%
X108300000Y-71975000D03*
%TO.P,R10,2*%
%TO.N,/h7core_block/PWR_LED_A*%
X108300000Y-73625000D03*
%TD*%
%TO.P,R20,1*%
%TO.N,/5VA*%
X135650000Y-97175000D03*
%TO.P,R20,2*%
%TO.N,/h7core_block/ADC_VCC*%
X135650000Y-98825000D03*
%TD*%
D69*
%TO.P,U4,1,IN_1*%
%TO.N,/5V*%
X152800000Y-49450000D03*
%TO.P,U4,2,GND_2*%
%TO.N,/GND*%
X152800000Y-48500000D03*
%TO.P,U4,3,EN_3*%
%TO.N,/h7core_block/LDO_EN*%
X152800000Y-47550000D03*
%TO.P,U4,4,NC_4*%
%TO.N,unconnected-(U4-NC-Pad4)*%
X150200000Y-47550000D03*
%TO.P,U4,5,OUT_5*%
%TO.N,/3V3A*%
X150200000Y-49450000D03*
%TD*%
D11*
%TO.P,RV109,1,1_1*%
%TO.N,/GND*%
X158000000Y-145500000D03*
%TO.P,RV109,2,2_2*%
%TO.N,/POT09*%
X160500000Y-145500000D03*
%TO.P,RV109,3,3_3*%
%TO.N,/3V3A*%
X163000000Y-145500000D03*
D12*
%TO.P,RV109,4,4_4*%
%TO.N,unconnected-(RV109-Pad4)*%
X156100000Y-138500000D03*
%TO.P,RV109,5,5_5*%
%TO.N,unconnected-(RV109-Pad5)*%
X164900000Y-138500000D03*
%TD*%
D14*
%TO.P,C128,1*%
%TO.N,/INA_O1*%
X210850000Y-83500000D03*
%TO.P,C128,2*%
%TO.N,/A1_FB*%
X212250000Y-83500000D03*
%TD*%
D57*
%TO.P,C23,1*%
%TO.N,/h7core_block/BUCK_BST*%
X97050000Y-63875000D03*
%TO.P,C23,2*%
%TO.N,/h7core_block/BUCK_SW*%
X95500000Y-63875000D03*
%TD*%
D66*
%TO.P,SWRESET1,1,A_1*%
%TO.N,/h7core_block/NRST*%
X58000000Y-86150000D03*
%TO.P,SWRESET1,2,B_2*%
X64000000Y-86150000D03*
%TO.P,SWRESET1,3,C_3*%
%TO.N,/GND*%
X58000000Y-89850000D03*
%TO.P,SWRESET1,4,D_4*%
X64000000Y-89850000D03*
%TD*%
D20*
%TO.P,C155,1*%
%TO.N,/TOGGLE6*%
X182000000Y-122700000D03*
%TO.P,C155,2*%
%TO.N,/GND*%
X182000000Y-124100000D03*
%TD*%
D13*
%TO.P,SW101,1,T1_1*%
%TO.N,/GND*%
X64500000Y-117540000D03*
%TO.P,SW101,2,COM_2*%
%TO.N,/TOGGLE1*%
X64500000Y-115000000D03*
%TO.P,SW101,3,T3_3*%
%TO.N,unconnected-(SW101-T3-Pad3)*%
X64500000Y-112460000D03*
%TD*%
D25*
%TO.P,C9,1*%
%TO.N,/h7core_block/VDDA*%
X101000000Y-93725000D03*
%TO.P,C9,2*%
%TO.N,/GND*%
X101000000Y-95275000D03*
%TD*%
D20*
%TO.P,C136,1*%
%TO.N,/ADC_RC*%
X117750000Y-98150000D03*
%TO.P,C136,2*%
%TO.N,/GND*%
X117750000Y-96750000D03*
%TD*%
%TO.P,C150,1*%
%TO.N,/TOGGLE1*%
X62000000Y-122700000D03*
%TO.P,C150,2*%
%TO.N,/GND*%
X62000000Y-124100000D03*
%TD*%
D14*
%TO.P,C129,1*%
%TO.N,/INA_O2*%
X199150000Y-85000000D03*
%TO.P,C129,2*%
%TO.N,/A2_FB*%
X197750000Y-85000000D03*
%TD*%
D70*
%TO.P,C160,1,1_1*%
%TO.N,/VREF*%
X155840000Y-97000000D03*
%TO.P,C160,2,2_2*%
%TO.N,/GND*%
X159160000Y-97000000D03*
%TD*%
D44*
%TO.P,R157,1*%
%TO.N,/h7core_block/I2S_DATA_SRC*%
X86510000Y-93600000D03*
%TO.P,R157,2*%
%TO.N,/h7core_block/I2S_DATA*%
X85490000Y-93600000D03*
%TD*%
D13*
%TO.P,SW105,1,T1_1*%
%TO.N,/GND*%
X160500000Y-117540000D03*
%TO.P,SW105,2,COM_2*%
%TO.N,/TOGGLE5*%
X160500000Y-115000000D03*
%TO.P,SW105,3,T3_3*%
%TO.N,unconnected-(SW105-T3-Pad3)*%
X160500000Y-112460000D03*
%TD*%
D29*
%TO.P,R158,1*%
%TO.N,/3V3*%
X154900000Y-45600000D03*
%TO.P,R158,2*%
%TO.N,/h7core_block/LDO_EN*%
X154900000Y-46620000D03*
%TD*%
D14*
%TO.P,C162,1*%
%TO.N,/MUTE_SW*%
X96000000Y-74190000D03*
%TO.P,C162,2*%
%TO.N,/GND*%
X94600000Y-74190000D03*
%TD*%
D28*
%TO.P,R147,1*%
%TO.N,/DAC_OUTL*%
X67250000Y-106950000D03*
%TO.P,R147,2*%
%TO.N,/DAC_LP*%
X65750000Y-106950000D03*
%TD*%
D43*
%TO.P,C20,1*%
%TO.N,/5V*%
X92000000Y-59425000D03*
%TO.P,C20,2*%
%TO.N,/GND*%
X92000000Y-62375000D03*
%TD*%
D22*
%TO.P,TP3,1*%
%TO.N,/GND*%
X218600000Y-40000000D03*
%TD*%
D11*
%TO.P,RV105,1,1_1*%
%TO.N,/GND*%
X110000000Y-145500000D03*
%TO.P,RV105,2,2_2*%
%TO.N,/POT05*%
X112500000Y-145500000D03*
%TO.P,RV105,3,3_3*%
%TO.N,/3V3A*%
X115000000Y-145500000D03*
D12*
%TO.P,RV105,4,4_4*%
%TO.N,unconnected-(RV105-Pad4)*%
X108100000Y-138500000D03*
%TO.P,RV105,5,5_5*%
%TO.N,unconnected-(RV105-Pad5)*%
X116900000Y-138500000D03*
%TD*%
D71*
%TO.P,J3,1,VCC_1*%
%TO.N,/3V3*%
X84365000Y-79730000D03*
%TO.P,J3,2,SWDIO_2*%
%TO.N,/h7core_block/SWDIO*%
X85635000Y-79730000D03*
%TO.P,J3,3,~{RESET}_3*%
%TO.N,/h7core_block/NRST*%
X84365000Y-81000000D03*
%TO.P,J3,4,SWCLK_4*%
%TO.N,/h7core_block/SWCLK*%
X85635000Y-81000000D03*
%TO.P,J3,5,GND_5*%
%TO.N,/GND*%
X84365000Y-82270000D03*
%TO.P,J3,6,SWO_6*%
%TO.N,/h7core_block/SWO*%
X85635000Y-82270000D03*
%TD*%
D42*
%TO.P,C49,1*%
%TO.N,/h7core_block/ADC_VREF*%
X129225000Y-105500000D03*
%TO.P,C49,2*%
%TO.N,/GND*%
X130775000Y-105500000D03*
%TD*%
D25*
%TO.P,C11,1*%
%TO.N,/h7core_block/VDDA*%
X103000000Y-93725000D03*
%TO.P,C11,2*%
%TO.N,/GND*%
X103000000Y-95275000D03*
%TD*%
D35*
%TO.P,C117,1*%
%TO.N,/5VA*%
X157600000Y-67189999D03*
%TO.P,C117,2*%
%TO.N,/GND*%
X157600000Y-64009999D03*
%TD*%
D28*
%TO.P,R127,1*%
%TO.N,/3V3*%
X174942000Y-60500000D03*
%TO.P,R127,2*%
%TO.N,/ENC_MENU_A*%
X176442000Y-60500000D03*
%TD*%
%TO.P,R106,1*%
%TO.N,/IN_N*%
X199250000Y-77600000D03*
%TO.P,R106,2*%
%TO.N,/VREF*%
X197750000Y-77600000D03*
%TD*%
D72*
%TO.P,U108,1,OUT_1*%
%TO.N,/VREF_BUF*%
X159612500Y-88550000D03*
%TO.P,U108,2,V-_2*%
%TO.N,/GND*%
X159612500Y-89500000D03*
%TO.P,U108,3,+IN_3*%
%TO.N,/VREF_DIV*%
X159612500Y-90450000D03*
%TO.P,U108,4,-IN_4*%
%TO.N,/VREF_BUF*%
X161887500Y-90450000D03*
%TO.P,U108,5,V+_5*%
%TO.N,/5VA*%
X161887500Y-88550000D03*
%TD*%
D73*
%TO.P,R16,1*%
%TO.N,/h7core_block/XSMT*%
X97675000Y-106000000D03*
%TO.P,R16,2*%
%TO.N,/GND*%
X99325000Y-106000000D03*
%TD*%
D68*
%TO.P,U103,1,FB_1*%
%TO.N,/5V*%
X93050000Y-54100000D03*
%TO.P,U103,2,EN_2*%
%TO.N,/VIN_9V*%
X94000000Y-54100000D03*
%TO.P,U103,3,VIN_3*%
X94950000Y-54100000D03*
%TO.P,U103,4,GND_4*%
%TO.N,/GND*%
X94950000Y-51900000D03*
%TO.P,U103,5,SW_5*%
%TO.N,/BUCK5_SW*%
X94000000Y-51900000D03*
%TO.P,U103,6,BST_6*%
%TO.N,/BUCK5_BST*%
X93050000Y-51900000D03*
%TD*%
D39*
%TO.P,R7,1*%
%TO.N,/h7core_block/VBUS_SENSE*%
X122110000Y-41325000D03*
%TO.P,R7,2*%
%TO.N,/GND*%
X122110000Y-39675000D03*
%TD*%
D74*
%TO.P,R30,1*%
%TO.N,/POT_MUX_OUT*%
X115850000Y-94400000D03*
%TO.P,R30,2*%
%TO.N,/h7core_block/MUX1_SIG_ADC*%
X114200000Y-94400000D03*
%TD*%
D20*
%TO.P,C163,1*%
%TO.N,/VA_SENSE*%
X115600000Y-72800000D03*
%TO.P,C163,2*%
%TO.N,/GND*%
X115600000Y-74200000D03*
%TD*%
D40*
%TO.P,FID3,*%
%TO.N,*%
X61000000Y-128500000D03*
%TD*%
%TO.P,FID1,*%
%TO.N,*%
X61000000Y-42000000D03*
%TD*%
D20*
%TO.P,C118,1*%
%TO.N,/5VA*%
X202400000Y-83300000D03*
%TO.P,C118,2*%
%TO.N,/GND*%
X202400000Y-84700000D03*
%TD*%
D29*
%TO.P,R156,1*%
%TO.N,/h7core_block/I2S_LRCLK_SRC*%
X90500000Y-98090000D03*
%TO.P,R156,2*%
%TO.N,/h7core_block/I2S_LRCLK*%
X90500000Y-99110000D03*
%TD*%
D45*
%TO.P,D1,1,A_1*%
%TO.N,/h7core_block/USER_LED_A*%
X82930000Y-86500000D03*
%TO.P,D1,2,K_2*%
%TO.N,/GND*%
X82930000Y-88000000D03*
%TD*%
D35*
%TO.P,C137,1*%
%TO.N,/ADC_RC*%
X117750000Y-102410000D03*
%TO.P,C137,2*%
%TO.N,/ADC_VINL*%
X117750000Y-105590000D03*
%TD*%
D14*
%TO.P,C101,1*%
%TO.N,/3V3A*%
X73100000Y-107930000D03*
%TO.P,C101,2*%
%TO.N,/GND*%
X71700000Y-107930000D03*
%TD*%
D22*
%TO.P,TP4,1*%
%TO.N,/3V3*%
X85850000Y-65000000D03*
%TD*%
%TO.P,TP5,1*%
%TO.N,/h7core_block/VBUS*%
X107700000Y-36900000D03*
%TD*%
D35*
%TO.P,C135,1*%
%TO.N,/VREF_DIV*%
X166500000Y-93250000D03*
%TO.P,C135,2*%
%TO.N,/GND*%
X166500000Y-96430000D03*
%TD*%
D42*
%TO.P,C12,1*%
%TO.N,/h7core_block/VCAP1*%
X108225000Y-79000000D03*
%TO.P,C12,2*%
%TO.N,/GND*%
X109775000Y-79000000D03*
%TD*%
D11*
%TO.P,RV110,1,1_1*%
%TO.N,/GND*%
X158000000Y-171500000D03*
%TO.P,RV110,2,2_2*%
%TO.N,/POT10*%
X160500000Y-171500000D03*
%TO.P,RV110,3,3_3*%
%TO.N,/3V3A*%
X163000000Y-171500000D03*
D12*
%TO.P,RV110,4,4_4*%
%TO.N,unconnected-(RV110-Pad4)*%
X156100000Y-164500000D03*
%TO.P,RV110,5,5_5*%
%TO.N,unconnected-(RV110-Pad5)*%
X164900000Y-164500000D03*
%TD*%
D21*
%TO.P,R101,1*%
%TO.N,/XLR_2*%
X212000000Y-58750000D03*
%TO.P,R101,2*%
%TO.N,/MIC_P*%
X212000000Y-60250000D03*
%TD*%
D47*
%TO.P,C124,1,1_1*%
%TO.N,/IN_N*%
X198000000Y-73170000D03*
%TO.P,C124,2,2_2*%
%TO.N,/MIC_N*%
X198000000Y-67830000D03*
%TD*%
D75*
%TO.P,C19,1*%
%TO.N,/5V*%
X106530000Y-46000000D03*
%TO.P,C19,2*%
%TO.N,/GND*%
X111470000Y-46000000D03*
%TD*%
D76*
%TO.P,C168,1*%
%TO.N,/5VA_W*%
X75600000Y-86000000D03*
%TO.P,C168,2*%
%TO.N,/GND*%
X75600000Y-84100000D03*
%TD*%
D74*
%TO.P,R3,1*%
%TO.N,/h7core_block/USER_LED*%
X86325000Y-86500000D03*
%TO.P,R3,2*%
%TO.N,/h7core_block/USER_LED_A*%
X84675000Y-86500000D03*
%TD*%
D52*
%TO.P,U106,1,OUT/A_1*%
%TO.N,/U106A_OUT*%
X72400000Y-87800000D03*
%TO.P,U106,2,-IN/A_2*%
X72400000Y-89070000D03*
%TO.P,U106,3,+IN/A_3*%
%TO.N,/BIAS_W*%
X72400000Y-90330000D03*
%TO.P,U106,4,-VS_4*%
%TO.N,/GND*%
X72400000Y-91600000D03*
%TO.P,U106,5,+IN/B_5*%
%TO.N,/BUF_IN*%
X77600000Y-91600000D03*
%TO.P,U106,6,-IN/B_6*%
%TO.N,/BUF_OUT*%
X77600000Y-90330000D03*
%TO.P,U106,7,OUT/B_7*%
X77600000Y-89070000D03*
%TO.P,U106,8,+VS_8*%
%TO.N,/5VA_W*%
X77600000Y-87800000D03*
%TD*%
D77*
%TO.P,J106,1,1_1*%
%TO.N,/GND*%
X222650000Y-40000000D03*
D78*
%TO.P,J106,2,2_2*%
%TO.N,/9V_JACK*%
X222650000Y-34000000D03*
D79*
%TO.P,J106,3,3_3*%
X227350000Y-37000000D03*
%TD*%
D80*
%TO.P,J108,2,2_2*%
%TO.N,/GND*%
X81600000Y-34600000D03*
%TO.P,J108,3,3_3*%
%TO.N,unconnected-(J108-Pad3)*%
X70400000Y-34600000D03*
%TO.P,J108,4,4_4*%
%TO.N,unconnected-(J108-Pad4)*%
X81600000Y-41000000D03*
%TO.P,J108,5,5_5*%
%TO.N,unconnected-(J108-Pad5)*%
X70400000Y-41000000D03*
%TO.P,J108,6,6_6*%
%TO.N,/OUT_TIP*%
X81600000Y-47400000D03*
%TO.P,J108,7,7_7*%
%TO.N,unconnected-(J108-Pad7)*%
X70400000Y-47400000D03*
%TD*%
D48*
%TO.P,J101,1,1_1*%
%TO.N,/GND*%
X196350000Y-48870000D03*
%TO.P,J101,2,2_2*%
%TO.N,/XLR_2*%
X182380000Y-49510000D03*
%TO.P,J101,3,3_3*%
%TO.N,/XLR_3*%
X189360000Y-53950000D03*
%TO.P,J101,4,S_4*%
%TO.N,/GND*%
X192220000Y-53320000D03*
%TO.P,J101,5,R_5*%
%TO.N,/TRS_R*%
X186510000Y-53320000D03*
D81*
%TO.P,J101,6,T_6*%
%TO.N,/TRS_T*%
X193810000Y-46330000D03*
%TO.P,J101,7,T_SW_7*%
X184920000Y-46330000D03*
%TO.P,J101,8,G_8*%
%TO.N,/GND*%
X197620000Y-37450000D03*
%TD*%
D82*
%TO.N,/GND*%
X165450000Y-88550000D03*
X140950000Y-94650000D03*
X151100000Y-137200000D03*
X81270000Y-109810000D03*
X129225000Y-97600000D03*
X209000000Y-65053000D03*
X114200000Y-98600000D03*
X94350000Y-99800000D03*
X99000000Y-90350000D03*
X89100000Y-95200000D03*
X237000000Y-87750000D03*
X94950000Y-51000000D03*
X102350000Y-78500000D03*
X97000000Y-51500000D03*
X102125000Y-95275000D03*
X218500000Y-77553000D03*
X70750000Y-107930000D03*
X95000000Y-96050000D03*
X76400000Y-66989999D03*
X69750000Y-100400000D03*
X118110000Y-42125000D03*
X90000000Y-71875000D03*
X114956000Y-40285000D03*
X103500000Y-50323000D03*
X66819999Y-87700000D03*
X73500000Y-76550000D03*
X211050000Y-65550000D03*
X151000000Y-97600000D03*
X72400000Y-92550000D03*
X97950000Y-97600000D03*
X122900000Y-103800000D03*
X92475000Y-95275000D03*
X153750000Y-48500000D03*
X164000000Y-95850000D03*
X92000000Y-63350000D03*
X158150000Y-89500000D03*
X134000000Y-124900000D03*
X120500000Y-36165000D03*
X112905000Y-46000000D03*
X202400000Y-85500000D03*
X158860000Y-64010000D03*
X91000000Y-89300000D03*
X182000000Y-124900000D03*
X110010000Y-42120000D03*
X131625000Y-105500000D03*
X132699999Y-100100000D03*
X156900000Y-77350000D03*
X74000000Y-77340000D03*
X165775000Y-99300000D03*
X74300000Y-84100000D03*
X77900000Y-108580000D03*
X108300000Y-77720000D03*
X124400000Y-101300000D03*
X115600000Y-75000000D03*
X130775000Y-104375000D03*
X191500000Y-77553000D03*
X125500000Y-103800000D03*
X110000000Y-124900000D03*
X58000000Y-91000000D03*
X104700000Y-72725000D03*
X106900000Y-92350000D03*
X79400000Y-105975000D03*
X155800000Y-48300000D03*
X101000000Y-96125000D03*
X86000000Y-124900000D03*
X180942000Y-60500000D03*
X92250000Y-97800000D03*
X229000000Y-78500000D03*
X122110000Y-38875000D03*
X230390000Y-53300000D03*
X110550000Y-79000000D03*
X85850000Y-71725000D03*
X84530000Y-107275000D03*
X94550000Y-62900000D03*
X151560000Y-123366000D03*
X99325000Y-105000000D03*
X121200000Y-111300000D03*
X88600000Y-71725000D03*
X161000000Y-97000000D03*
X195000000Y-65053000D03*
X197050000Y-65550000D03*
X85050000Y-103370000D03*
X61350000Y-106950000D03*
X161730000Y-49430000D03*
X165775000Y-103400000D03*
X206000000Y-124900000D03*
X230000000Y-124900000D03*
X123000000Y-101300000D03*
X70750000Y-106110000D03*
X131975000Y-54000000D03*
X112785000Y-41550000D03*
X62000000Y-124900000D03*
X92750000Y-103000000D03*
X158700000Y-46700000D03*
X88050000Y-104670000D03*
X201000000Y-65000000D03*
X118700000Y-99600000D03*
X117750000Y-95900000D03*
X90850000Y-78600000D03*
X148000000Y-47050000D03*
X79400000Y-104025000D03*
X144440000Y-135625000D03*
X134275000Y-106875000D03*
X103925000Y-98775000D03*
X208900000Y-77600000D03*
X158000000Y-124900000D03*
X229590000Y-45070000D03*
X166500000Y-97300000D03*
X70750000Y-102600000D03*
X94100000Y-89300000D03*
X232900000Y-88400000D03*
X77600000Y-83400000D03*
X79400000Y-108575000D03*
X105600000Y-91750000D03*
X100500000Y-41900000D03*
X114800000Y-41590000D03*
X64819999Y-92700000D03*
X102350000Y-90000000D03*
X94600000Y-75130000D03*
X82300000Y-82270000D03*
X85600000Y-92350000D03*
X64000000Y-91000000D03*
X143378000Y-125220000D03*
X139375000Y-131080000D03*
X123600000Y-102900000D03*
X106400000Y-75600000D03*
X69900000Y-80750000D03*
X88150000Y-103300000D03*
X165442000Y-60500000D03*
X89100000Y-99900000D03*
X131625000Y-101500000D03*
X127600000Y-99500000D03*
X99500000Y-50267000D03*
X65690000Y-91100000D03*
X99000000Y-103000000D03*
X88250000Y-72840000D03*
X108500000Y-98775000D03*
X106275000Y-99125000D03*
X105100000Y-76200000D03*
X82930000Y-88800000D03*
X132650000Y-98575000D03*
X216050000Y-64200000D03*
X84350000Y-92850000D03*
X213200000Y-91400000D03*
X69750000Y-92230000D03*
X77400000Y-104675000D03*
X180940000Y-80500000D03*
X75530000Y-109810000D03*
X107330000Y-56800000D03*
X86900000Y-91750000D03*
%TO.N,/3V3A*%
X73100000Y-111800000D03*
X144500000Y-111400000D03*
X153400000Y-99500000D03*
X164225000Y-99300000D03*
X142625000Y-131080000D03*
X144500000Y-107000000D03*
%TO.N,/TOGGLE2*%
X112200000Y-107480000D03*
%TO.N,/VIN_9V*%
X99500000Y-55900000D03*
X229590000Y-53300000D03*
%TO.N,/h7core_block/ADC_DOUT*%
X89800000Y-94500000D03*
X119700000Y-101200000D03*
%TO.N,/3V3*%
X87250000Y-74480000D03*
X109500000Y-91000000D03*
X109500000Y-71975000D03*
X94500000Y-73200000D03*
X97950000Y-65300000D03*
X88600000Y-66825000D03*
X91500000Y-70310000D03*
X99350000Y-73200000D03*
%TO.N,/h7core_block/NRST*%
X96000000Y-89350000D03*
X81120000Y-86250000D03*
X65819999Y-84600000D03*
%TO.N,/h7core_block/MUX1_SIG_ADC*%
X114200000Y-93200000D03*
X98900000Y-89300000D03*
%TO.N,/TOGGLE8*%
X109300000Y-103100000D03*
%TO.N,/TOGGLE6*%
X109300000Y-104300000D03*
%TO.N,/TOGGLE4*%
X109300000Y-105500000D03*
%TO.N,/TOGGLE1*%
X110800000Y-107480000D03*
%TO.N,/h7core_block/XSMT*%
X87050000Y-105900000D03*
X97675000Y-106880000D03*
X113100000Y-106880000D03*
%TO.N,/TOGGLE3*%
X113900000Y-106100000D03*
%TO.N,/VA_SENSE*%
X102100000Y-85500000D03*
X155900000Y-81600000D03*
X116700000Y-72800000D03*
%TO.N,/TOGGLE5*%
X113900000Y-104900000D03*
%TO.N,/TOGGLE7*%
X113900000Y-103700000D03*
%TO.N,/MUX_S2*%
X141800000Y-94650000D03*
X114100000Y-84600000D03*
%TO.N,/MUX_S3*%
X114700000Y-84000000D03*
X142450000Y-95600000D03*
%TO.N,/MUX_S1*%
X115300000Y-83000000D03*
X143100000Y-94650000D03*
%TO.N,/MUX_S0*%
X115900000Y-82000000D03*
X143750000Y-95600000D03*
%TO.N,/ENC_MENU_SW*%
X160700000Y-62500000D03*
X101600000Y-81800000D03*
%TO.N,/ENC_MENU_B*%
X100950000Y-81150000D03*
%TO.N,/ENC_MENU_A*%
X100300000Y-80500000D03*
%TO.N,/MUTE_SW*%
X97300000Y-74190000D03*
%TO.N,/h7core_block/SWDIO*%
X91500000Y-71600000D03*
X86530000Y-79730000D03*
%TO.N,/MUTE_N*%
X69900000Y-82750000D03*
X81750000Y-85500000D03*
%TO.N,/h7core_block/BOOT0*%
X93800000Y-85400000D03*
X56800000Y-94350000D03*
%TO.N,/POT14*%
X146960000Y-129130000D03*
X146960000Y-154500000D03*
%TO.N,/5V*%
X157600000Y-59380000D03*
X74200000Y-72400000D03*
X106530000Y-56800000D03*
X68500000Y-72400000D03*
X93050000Y-53150000D03*
X90600000Y-59425000D03*
%TO.N,/5VA*%
X198950000Y-65550000D03*
X157600000Y-68330000D03*
X158000000Y-83100000D03*
X135650000Y-96375000D03*
X162000000Y-95753000D03*
X226000000Y-78500000D03*
X201100000Y-81400000D03*
X157600000Y-62620000D03*
X229100000Y-80600000D03*
X212950000Y-65550000D03*
%TO.N,/VREF*%
X232100000Y-91250000D03*
X212250000Y-76500000D03*
X197750000Y-76500000D03*
X157250000Y-92100000D03*
%TO.N,/h7core_block/VBUS*%
X111110000Y-40000000D03*
X114800000Y-39500000D03*
%TO.N,/POT06*%
X113400000Y-149600000D03*
%TO.N,/POT_MUX_OUT*%
X115850000Y-93200000D03*
X133900000Y-95200000D03*
%TO.N,/INA_O2*%
X213200000Y-92800000D03*
X200600000Y-85000000D03*
%TO.N,/POT15*%
X148320000Y-155900000D03*
X148320000Y-127820000D03*
%TO.N,/h7core_block/ADC_SCKI*%
X128250000Y-100500000D03*
X88150000Y-102300000D03*
%TO.N,/POT11*%
X146280000Y-129780000D03*
X146280000Y-153800000D03*
X184500000Y-153800000D03*
%TO.N,/POT08*%
X137400000Y-147500000D03*
%TO.N,/PRE_OUT*%
X152000000Y-98600000D03*
%TO.N,/POT16*%
X150360000Y-158000000D03*
X150360000Y-125870000D03*
%TO.N,/POT10*%
X149680000Y-126520000D03*
X149680000Y-157300000D03*
%TO.N,/POT09*%
X149000000Y-127170000D03*
X149000000Y-156600000D03*
X160500000Y-156600000D03*
%TO.N,/POT12*%
X147640000Y-128480000D03*
X147640000Y-155200000D03*
%TO.N,/POT13*%
X145600000Y-153100000D03*
X145600000Y-130430000D03*
X208500000Y-153100000D03*
%TO.N,/h7core_block/I2S_BCLK*%
X91500000Y-98200000D03*
X118900000Y-100550000D03*
%TO.N,/h7core_block/I2S_LRCLK*%
X126800000Y-98000000D03*
X90500000Y-99900000D03*
%TO.N,/h7core_block/I2S_DATA*%
X83680000Y-107275000D03*
X84750000Y-93600000D03*
%TD*%
%TO.N,/DAC_AC*%
D83*
X65750000Y-101040000D02*
X65750000Y-98400000D01*
%TO.N,/DAC_LP*%
X65750000Y-106950000D02*
X65750000Y-104360000D01*
X65750000Y-106950000D02*
X63950000Y-106950000D01*
%TO.N,/GND*%
D84*
X94500000Y-90400000D02*
X94100000Y-90000000D01*
X215000000Y-64200000D02*
X216050000Y-64200000D01*
X90200000Y-89300000D02*
X91000000Y-89300000D01*
X201000000Y-64200000D02*
X201000000Y-65000000D01*
X86000000Y-124100000D02*
X86000000Y-124900000D01*
X65819999Y-87700000D02*
X66819999Y-87700000D01*
X71625000Y-106110000D02*
X70750000Y-106110000D01*
X92750000Y-101525000D02*
X92750000Y-103000000D01*
X121200000Y-109690000D02*
X121200000Y-111300000D01*
X107500000Y-98775000D02*
X108500000Y-98775000D01*
X166500000Y-96430000D02*
X166500000Y-97300000D01*
X95350000Y-99800000D02*
X94350000Y-99800000D01*
X121200000Y-103150000D02*
X122575000Y-103150000D01*
X88450000Y-89500000D02*
X90000000Y-89500000D01*
X95000000Y-95275000D02*
X95000000Y-96050000D01*
X101000000Y-95275000D02*
X101000000Y-96125000D01*
X58000000Y-89850000D02*
X58000000Y-91000000D01*
X180140000Y-80500000D02*
X180940000Y-80500000D01*
X81270000Y-109225000D02*
X81270000Y-109810000D01*
X111910000Y-41550000D02*
X112785000Y-41550000D01*
X72400000Y-91600000D02*
X72400000Y-92550000D01*
X68500000Y-92230000D02*
X69750000Y-92230000D01*
X87030000Y-104670000D02*
X88050000Y-104670000D01*
X86900000Y-90960000D02*
X86900000Y-91750000D01*
X103000000Y-95275000D02*
X102125000Y-95275000D01*
X165775000Y-102400000D02*
X165775000Y-103400000D01*
X130775000Y-103500000D02*
X130775000Y-104375000D01*
X94550000Y-62000000D02*
X94550000Y-62900000D01*
X130775000Y-101500000D02*
X131625000Y-101500000D01*
X71700000Y-107930000D02*
X70750000Y-107930000D01*
X195000000Y-64250000D02*
X195000000Y-65053000D01*
X122900000Y-102900000D02*
X123600000Y-102900000D01*
X157600000Y-64010000D02*
X158860000Y-64010000D01*
X99500000Y-51410000D02*
X99500000Y-50267000D01*
X84365000Y-82270000D02*
X82300000Y-82270000D01*
X65690000Y-90330000D02*
X65690000Y-91100000D01*
X156900000Y-78350000D02*
X156900000Y-77350000D01*
X111400000Y-36165000D02*
X111400000Y-35550000D01*
X99325000Y-106000000D02*
X99325000Y-105000000D01*
X114800000Y-40650000D02*
X114800000Y-41590000D01*
X75600000Y-84100000D02*
X74300000Y-84100000D01*
X85600000Y-91550000D02*
X85600000Y-92350000D01*
X130775000Y-105500000D02*
X131625000Y-105500000D01*
X122110000Y-39675000D02*
X122110000Y-38875000D01*
X82930000Y-88000000D02*
X82930000Y-88800000D01*
X180142000Y-60500000D02*
X180942000Y-60500000D01*
X122500000Y-102500000D02*
X122900000Y-102900000D01*
X92000000Y-62375000D02*
X92000000Y-63350000D01*
X81270000Y-108575000D02*
X79400000Y-108575000D01*
X71000000Y-80750000D02*
X69900000Y-80750000D01*
X111400000Y-35550000D02*
X110680000Y-35550000D01*
X131975000Y-55950000D02*
X131975000Y-54000000D01*
X140225000Y-131080000D02*
X139375000Y-131080000D01*
X159160000Y-97000000D02*
X161000000Y-97000000D01*
X207600000Y-77600000D02*
X208900000Y-77600000D01*
X115600000Y-74200000D02*
X115600000Y-75000000D01*
X124400000Y-101575000D02*
X124400000Y-101300000D01*
X229590000Y-46550000D02*
X229590000Y-45070000D01*
X211050000Y-64650000D02*
X211050000Y-65550000D01*
X209000000Y-64250000D02*
X209000000Y-65053000D01*
X77600000Y-84600000D02*
X77600000Y-83400000D01*
X97050000Y-97600000D02*
X97950000Y-97600000D01*
X65819999Y-92700000D02*
X64819999Y-92700000D01*
X230000000Y-124100000D02*
X230000000Y-124900000D01*
X118200000Y-36165000D02*
X120500000Y-36165000D01*
X84020000Y-103370000D02*
X85050000Y-103370000D01*
X85850000Y-70750000D02*
X85850000Y-71725000D01*
X75530000Y-109225000D02*
X75530000Y-109810000D01*
X218500000Y-76750000D02*
X218500000Y-77553000D01*
X106400000Y-76450000D02*
X106400000Y-75600000D01*
X103860000Y-72725000D02*
X104700000Y-72725000D01*
X133500000Y-98575000D02*
X132650000Y-98575000D01*
X81270000Y-105975000D02*
X79400000Y-105975000D01*
X109775000Y-79000000D02*
X110550000Y-79000000D01*
X105600000Y-90960000D02*
X105600000Y-91750000D01*
X126800000Y-103800000D02*
X125500000Y-103800000D01*
X111470000Y-46000000D02*
X112905000Y-46000000D01*
X164000000Y-94750000D02*
X164000000Y-95850000D01*
X106900000Y-91550000D02*
X106900000Y-92350000D01*
X99000000Y-101775000D02*
X99000000Y-103000000D01*
X90000000Y-89500000D02*
X90200000Y-89300000D01*
X93350000Y-95275000D02*
X92475000Y-95275000D01*
X114200000Y-97775000D02*
X114200000Y-98600000D01*
X94600000Y-74190000D02*
X94600000Y-75130000D01*
X122900000Y-103475000D02*
X122900000Y-103800000D01*
X132699999Y-101500000D02*
X132699999Y-100100000D01*
X88600000Y-70750000D02*
X88600000Y-71725000D01*
X228200000Y-78500000D02*
X229000000Y-78500000D01*
X75530000Y-108580000D02*
X77900000Y-108580000D01*
X159610000Y-89500000D02*
X158150000Y-89500000D01*
X164330000Y-88550000D02*
X165450000Y-88550000D01*
X134000000Y-124100000D02*
X134000000Y-124900000D01*
X144440000Y-134775000D02*
X144440000Y-135625000D01*
X160930000Y-49430000D02*
X161730000Y-49430000D01*
X124675000Y-101850000D02*
X124400000Y-101575000D01*
X74650000Y-77340000D02*
X74000000Y-77340000D01*
X103000000Y-98775000D02*
X103925000Y-98775000D01*
X62550000Y-106950000D02*
X61350000Y-106950000D01*
X123000000Y-101575000D02*
X123000000Y-101300000D01*
X75530000Y-104675000D02*
X77400000Y-104675000D01*
X100500000Y-42820000D02*
X100500000Y-41900000D01*
X62000000Y-124100000D02*
X62000000Y-124900000D01*
X148000000Y-47900000D02*
X148000000Y-47050000D01*
X222650000Y-40000000D02*
X218600000Y-40000000D01*
X121200000Y-102500000D02*
X122500000Y-102500000D01*
X158700000Y-47550000D02*
X158700000Y-46700000D01*
X152800000Y-48500000D02*
X153750000Y-48500000D01*
X90500000Y-76450000D02*
X90500000Y-77450000D01*
X77400000Y-66989999D02*
X76400000Y-66989999D01*
X90500000Y-77450000D02*
X90850000Y-77800000D01*
X151560000Y-123920000D02*
X151560000Y-123366000D01*
X165775000Y-100300000D02*
X165775000Y-99300000D01*
X197050000Y-64650000D02*
X197050000Y-65550000D01*
X97000000Y-52300000D02*
X97000000Y-51500000D01*
X126800000Y-101850000D02*
X124675000Y-101850000D01*
X72500000Y-76550000D02*
X73500000Y-76550000D01*
X166242000Y-60500000D02*
X165442000Y-60500000D01*
X122725000Y-101850000D02*
X123000000Y-101575000D01*
X64000000Y-89850000D02*
X64000000Y-91000000D01*
X94500000Y-91550000D02*
X94500000Y-90400000D01*
X90000000Y-72725000D02*
X90000000Y-71875000D01*
X110000000Y-124100000D02*
X110000000Y-124900000D01*
X88250000Y-73520000D02*
X88250000Y-72840000D01*
X103550000Y-78500000D02*
X102350000Y-78500000D01*
X103500000Y-49180000D02*
X103500000Y-50323000D01*
X71500000Y-102600000D02*
X70750000Y-102600000D01*
X182000000Y-124100000D02*
X182000000Y-124900000D01*
X94100000Y-90000000D02*
X94100000Y-89300000D01*
X129225000Y-98415000D02*
X129225000Y-97600000D01*
X206000000Y-124100000D02*
X206000000Y-124900000D01*
X122575000Y-103150000D02*
X122900000Y-103475000D01*
X81270000Y-104025000D02*
X79400000Y-104025000D01*
X118110000Y-41325000D02*
X118110000Y-42125000D01*
X110010000Y-41325000D02*
X110010000Y-42120000D01*
X191500000Y-76750000D02*
X191500000Y-77553000D01*
X94950000Y-51900000D02*
X94950000Y-51000000D01*
X99000000Y-91550000D02*
X99000000Y-90350000D01*
X237000000Y-86000000D02*
X237000000Y-87750000D01*
X121200000Y-101850000D02*
X122725000Y-101850000D01*
X111800000Y-36165000D02*
X111400000Y-36165000D01*
X117750000Y-96750000D02*
X117750000Y-95900000D01*
X71000000Y-100400000D02*
X69750000Y-100400000D01*
X155000000Y-48300000D02*
X155800000Y-48300000D01*
X202400000Y-84700000D02*
X202400000Y-85500000D01*
X134275000Y-106875000D02*
X134275000Y-106000000D01*
X150060000Y-137200000D02*
X151100000Y-137200000D01*
X144440000Y-125220000D02*
X143378000Y-125220000D01*
X105100000Y-77040000D02*
X105100000Y-76200000D01*
X232900000Y-87100000D02*
X232900000Y-88400000D01*
X105100000Y-99125000D02*
X106275000Y-99125000D01*
X158000000Y-124100000D02*
X158000000Y-124900000D01*
X108300000Y-76820000D02*
X108300000Y-77720000D01*
X103550000Y-90000000D02*
X102350000Y-90000000D01*
X90850000Y-77800000D02*
X90850000Y-78600000D01*
%TO.N,/POT04*%
D83*
X151560000Y-127820000D02*
X157750000Y-127820000D01*
X88950000Y-151700000D02*
X88500000Y-151250000D01*
X158200000Y-139600000D02*
X155200000Y-142600000D01*
X155200000Y-142600000D02*
X155200000Y-151250000D01*
X158200000Y-128270000D02*
X158200000Y-139600000D01*
X88500000Y-151250000D02*
X88500000Y-145500000D01*
X154750000Y-151700000D02*
X88950000Y-151700000D01*
X157750000Y-127820000D02*
X158200000Y-128270000D01*
X155200000Y-151250000D02*
X154750000Y-151700000D01*
%TO.N,/3V3A*%
D84*
X148500000Y-90000000D02*
X152900000Y-90000000D01*
X142625000Y-131080000D02*
X144440000Y-131080000D01*
X152900000Y-90000000D02*
X153400000Y-90500000D01*
X78300000Y-107300000D02*
X78300000Y-103800000D01*
X164225000Y-100300000D02*
X164225000Y-99300000D01*
X75530000Y-103370000D02*
X74360000Y-103370000D01*
X77870000Y-103370000D02*
X75530000Y-103370000D01*
X144500000Y-107000000D02*
X144500000Y-111400000D01*
X72900000Y-100400000D02*
X72900000Y-102600000D01*
X75530000Y-107930000D02*
X77670000Y-107930000D01*
X74360000Y-103370000D02*
X73590000Y-102600000D01*
X153400000Y-90500000D02*
X153400000Y-99500000D01*
X73100000Y-107930000D02*
X75530000Y-107930000D01*
X148000000Y-49450000D02*
X148000000Y-89500000D01*
X73100000Y-111800000D02*
X73100000Y-107930000D01*
X77670000Y-107930000D02*
X78300000Y-107300000D01*
X144440000Y-131080000D02*
X144440000Y-133225000D01*
X141775000Y-131080000D02*
X142625000Y-131080000D01*
X73590000Y-102600000D02*
X72900000Y-102600000D01*
X164225000Y-102400000D02*
X164225000Y-100300000D01*
X150200000Y-49450000D02*
X148000000Y-49450000D01*
X78300000Y-103800000D02*
X77870000Y-103370000D01*
X148000000Y-89500000D02*
X148500000Y-90000000D01*
%TO.N,/TOGGLE2*%
D83*
X90000000Y-122650000D02*
X88500000Y-122650000D01*
X112200000Y-107480000D02*
X111880000Y-107480000D01*
X111200000Y-87000000D02*
X103550000Y-87000000D01*
X86000000Y-122000000D02*
X86300000Y-121700000D01*
X86000000Y-122700000D02*
X86000000Y-122000000D01*
X88200000Y-121700000D02*
X88500000Y-122000000D01*
X86300000Y-121700000D02*
X88200000Y-121700000D01*
X90450000Y-122200000D02*
X90000000Y-122650000D01*
X90000000Y-115000000D02*
X90450000Y-115450000D01*
X90450000Y-115450000D02*
X90450000Y-122200000D01*
X111700000Y-87500000D02*
X111200000Y-87000000D01*
X88500000Y-115000000D02*
X90000000Y-115000000D01*
X88500000Y-122000000D02*
X88500000Y-122650000D01*
X111700000Y-107300000D02*
X111700000Y-87500000D01*
X111880000Y-107480000D02*
X111700000Y-107300000D01*
%TO.N,/BUCK5_BST*%
X93050000Y-51600000D02*
X93050000Y-50250000D01*
%TO.N,/BUCK5_SW*%
D85*
X94100000Y-51600000D02*
X94100000Y-47800000D01*
%TO.N,/VIN_9V*%
D86*
X95250000Y-53700000D02*
X96600000Y-53700000D01*
X229590000Y-51450000D02*
X228400000Y-51450000D01*
X233500000Y-51450000D02*
X230650000Y-51450000D01*
X229590000Y-51450000D02*
X229590000Y-53300000D01*
X97400000Y-54050000D02*
X98700000Y-54050000D01*
X94300000Y-54100000D02*
X94650000Y-54100000D01*
X99500000Y-55900000D02*
X99500000Y-54590000D01*
X227000000Y-52850000D02*
X227000000Y-54250000D01*
X228400000Y-51450000D02*
X227000000Y-52850000D01*
%TO.N,/h7core_block/ADC_SCKI_SRC*%
D83*
X89750000Y-91550000D02*
X88150000Y-93150000D01*
X90000000Y-91550000D02*
X89750000Y-91550000D01*
X88150000Y-93150000D02*
X88150000Y-93490000D01*
%TO.N,/h7core_block/ADC_DOUT*%
X90500000Y-92750000D02*
X89800000Y-93450000D01*
X89800000Y-93450000D02*
X89800000Y-94500000D01*
X119700000Y-101200000D02*
X121200000Y-101200000D01*
X90500000Y-91550000D02*
X90500000Y-92750000D01*
%TO.N,/h7core_block/I2S_LRCLK_SRC*%
X90500000Y-93400000D02*
X90500000Y-98090000D01*
X91000000Y-91550000D02*
X91000000Y-92900000D01*
X91000000Y-92900000D02*
X90500000Y-93400000D01*
%TO.N,/h7core_block/I2S_BCLK_SRC*%
X91500000Y-91550000D02*
X91500000Y-94425000D01*
%TO.N,/h7core_block/I2S_DATA_SRC*%
X87000000Y-93600000D02*
X87600000Y-93000000D01*
X91813604Y-90450000D02*
X92000000Y-90636396D01*
X87600000Y-93000000D02*
X87600000Y-91000000D01*
X87600000Y-91000000D02*
X88150000Y-90450000D01*
X88150000Y-90450000D02*
X91813604Y-90450000D01*
X92000000Y-90636396D02*
X92000000Y-91550000D01*
X86510000Y-93600000D02*
X87000000Y-93600000D01*
%TO.N,/3V3*%
D84*
X92500000Y-90500000D02*
X92000000Y-90000000D01*
X136500000Y-125000000D02*
X136500000Y-124150000D01*
X64500000Y-124150000D02*
X64500000Y-125200000D01*
X96450000Y-59800000D02*
X97350000Y-59800000D01*
X207900000Y-126300000D02*
X208500000Y-125700000D01*
X159970000Y-78870000D02*
X160700000Y-79600000D01*
X169942000Y-59650000D02*
X173200000Y-59650000D01*
X135900000Y-125600000D02*
X136500000Y-125000000D01*
X157750000Y-49430000D02*
X159970000Y-49430000D01*
X90000000Y-76450000D02*
X90000000Y-75560000D01*
X94500000Y-72400000D02*
X94500000Y-73200000D01*
X173700000Y-80700000D02*
X173900000Y-80500000D01*
X133025000Y-71975000D02*
X134515000Y-70485000D01*
X90000000Y-76450000D02*
X90000000Y-80000000D01*
X106900000Y-90000000D02*
X109050000Y-90000000D01*
X231900000Y-126300000D02*
X232500000Y-125700000D01*
X105100000Y-78000000D02*
X106400000Y-78000000D01*
X92000000Y-90000000D02*
X88450000Y-90000000D01*
X174942000Y-79842000D02*
X174942000Y-80500000D01*
X126800000Y-102500000D02*
X128817893Y-102500000D01*
X105100000Y-90000000D02*
X105600000Y-90000000D01*
X173700000Y-123500000D02*
X173700000Y-80700000D01*
X82600000Y-125600000D02*
X85000000Y-125600000D01*
X104925000Y-74275000D02*
X107225000Y-71975000D01*
X65750000Y-124150000D02*
X64500000Y-124150000D01*
X125000000Y-102500000D02*
X124600000Y-102900000D01*
X138350000Y-124150000D02*
X136500000Y-124150000D01*
X139130000Y-109150000D02*
X139130000Y-123370000D01*
X109500000Y-90450000D02*
X109500000Y-91000000D01*
X139595000Y-45950000D02*
X139595000Y-49250000D01*
X84365000Y-79730000D02*
X84365000Y-79230000D01*
X160320000Y-45600000D02*
X169400000Y-45600000D01*
X182000000Y-59900000D02*
X182000000Y-81400000D01*
X173900000Y-80500000D02*
X174942000Y-80500000D01*
X85850000Y-67800000D02*
X85850000Y-65000000D01*
X105600000Y-90000000D02*
X106900000Y-90000000D01*
X101000000Y-107100000D02*
X101550000Y-107650000D01*
X159970000Y-49430000D02*
X159970000Y-78870000D01*
X109100000Y-100000000D02*
X109500000Y-99600000D01*
X67200000Y-125600000D02*
X65750000Y-124150000D01*
X90900000Y-125600000D02*
X89450000Y-124150000D01*
X139130000Y-123370000D02*
X138350000Y-124150000D01*
X184500000Y-124150000D02*
X202500000Y-124150000D01*
X175300000Y-82000000D02*
X174942000Y-81642000D01*
X100100000Y-73200000D02*
X101175000Y-74275000D01*
X92500000Y-93425000D02*
X92800000Y-93725000D01*
X83865000Y-78730000D02*
X83865000Y-74980000D01*
X169942000Y-46142000D02*
X169942000Y-59650000D01*
X86900000Y-90000000D02*
X88450000Y-90000000D01*
D86*
X91500000Y-67800000D02*
X88600000Y-67800000D01*
D84*
X112500000Y-124150000D02*
X112500000Y-125000000D01*
X174700000Y-79600000D02*
X174942000Y-79842000D01*
X88510000Y-75160000D02*
X88250000Y-74900000D01*
X103550000Y-78000000D02*
X105100000Y-78000000D01*
X90000000Y-75560000D02*
X89600000Y-75160000D01*
X114300000Y-107650000D02*
X124600000Y-107650000D01*
X97950000Y-60400000D02*
X97950000Y-65300000D01*
X92800000Y-93725000D02*
X93350000Y-93725000D01*
X91500000Y-67800000D02*
X91500000Y-70310000D01*
X134515000Y-49840000D02*
X135105000Y-49250000D01*
X86550000Y-125600000D02*
X88000000Y-124150000D01*
X107225000Y-71975000D02*
X108300000Y-71975000D01*
X128817893Y-102500000D02*
X129225000Y-102092894D01*
X159970000Y-49430000D02*
X159970000Y-45950000D01*
X129225000Y-102092894D02*
X129225000Y-101500000D01*
X226500000Y-124150000D02*
X228650000Y-126300000D01*
X88600000Y-67800000D02*
X88600000Y-66825000D01*
X84410000Y-90000000D02*
X85600000Y-90000000D01*
X101550000Y-107650000D02*
X109250000Y-107650000D01*
X103550000Y-75950000D02*
X103550000Y-78000000D01*
X139945000Y-45600000D02*
X139595000Y-45950000D01*
X109500000Y-71975000D02*
X133025000Y-71975000D01*
X99350000Y-73200000D02*
X100100000Y-73200000D01*
X169400000Y-45600000D02*
X169942000Y-46142000D01*
X112500000Y-124150000D02*
X113250000Y-124150000D01*
X181400000Y-82000000D02*
X175300000Y-82000000D01*
X124600000Y-107650000D02*
X137630000Y-107650000D01*
X103860000Y-74275000D02*
X103860000Y-75640000D01*
X174942000Y-81642000D02*
X174942000Y-80500000D01*
X109900000Y-108300000D02*
X113650000Y-108300000D01*
X90900000Y-80900000D02*
X94100000Y-80900000D01*
X208500000Y-125700000D02*
X208500000Y-124150000D01*
X109250000Y-107650000D02*
X109900000Y-108300000D01*
X94100000Y-80900000D02*
X95000000Y-81800000D01*
X101000000Y-98800000D02*
X101500000Y-98800000D01*
X89600000Y-75160000D02*
X88510000Y-75160000D01*
X204650000Y-126300000D02*
X207900000Y-126300000D01*
X95000000Y-81800000D02*
X95000000Y-91550000D01*
X81270000Y-103370000D02*
X83060000Y-103370000D01*
X160700000Y-79600000D02*
X174700000Y-79600000D01*
X174050000Y-60500000D02*
X174942000Y-60500000D01*
X67200000Y-125600000D02*
X82600000Y-125600000D01*
X103860000Y-75640000D02*
X103550000Y-75950000D01*
X174942000Y-59758000D02*
X175400000Y-59300000D01*
X137055000Y-49250000D02*
X139595000Y-49250000D01*
X184500000Y-125700000D02*
X184500000Y-124150000D01*
X89450000Y-124150000D02*
X88500000Y-124150000D01*
X84365000Y-79230000D02*
X83865000Y-78730000D01*
X64500000Y-125200000D02*
X64100000Y-125600000D01*
X114700000Y-125600000D02*
X135900000Y-125600000D01*
X58600000Y-125600000D02*
X58000000Y-125000000D01*
X101175000Y-74275000D02*
X103860000Y-74275000D01*
X92500000Y-91550000D02*
X92500000Y-90500000D01*
X104600000Y-89500000D02*
X105100000Y-90000000D01*
X111900000Y-125600000D02*
X90900000Y-125600000D01*
X174942000Y-60500000D02*
X174942000Y-59758000D01*
X58000000Y-98050000D02*
X64000000Y-98050000D01*
X112500000Y-125000000D02*
X111900000Y-125600000D01*
X208500000Y-124150000D02*
X226500000Y-124150000D01*
X109500000Y-99600000D02*
X109500000Y-91000000D01*
X126800000Y-102500000D02*
X125000000Y-102500000D01*
X84365000Y-74480000D02*
X87250000Y-74480000D01*
X88000000Y-124150000D02*
X88500000Y-124150000D01*
X175400000Y-59300000D02*
X181400000Y-59300000D01*
X159970000Y-45950000D02*
X160320000Y-45600000D01*
X182000000Y-81400000D02*
X181400000Y-82000000D01*
X173050000Y-124150000D02*
X173700000Y-123500000D01*
X85600000Y-90000000D02*
X86900000Y-90000000D01*
X103860000Y-74275000D02*
X104925000Y-74275000D01*
X88250000Y-74900000D02*
X88250000Y-74480000D01*
X139945000Y-45600000D02*
X154900000Y-45600000D01*
X108300000Y-71975000D02*
X109500000Y-71975000D01*
X109050000Y-90000000D02*
X109500000Y-90450000D01*
X134515000Y-70485000D02*
X134515000Y-59550000D01*
X101000000Y-98800000D02*
X101000000Y-107100000D01*
X137630000Y-107650000D02*
X139130000Y-109150000D01*
X101500000Y-98800000D02*
X102700000Y-100000000D01*
X181400000Y-59300000D02*
X182000000Y-59900000D01*
X183900000Y-126300000D02*
X184500000Y-125700000D01*
X90000000Y-80000000D02*
X90900000Y-80900000D01*
X160500000Y-124150000D02*
X173050000Y-124150000D01*
X83060000Y-102665000D02*
X83060000Y-91350000D01*
X102700000Y-100000000D02*
X109100000Y-100000000D01*
X134515000Y-59550000D02*
X134515000Y-49840000D01*
X97350000Y-59800000D02*
X97950000Y-60400000D01*
X228650000Y-126300000D02*
X231900000Y-126300000D01*
X160900000Y-126300000D02*
X183900000Y-126300000D01*
X154900000Y-45600000D02*
X160320000Y-45600000D01*
X202500000Y-124150000D02*
X204650000Y-126300000D01*
X83060000Y-91350000D02*
X84410000Y-90000000D01*
X135105000Y-49250000D02*
X137055000Y-49250000D01*
X160500000Y-124150000D02*
X160500000Y-125900000D01*
X93350000Y-93725000D02*
X95000000Y-93725000D01*
X85000000Y-125600000D02*
X86550000Y-125600000D01*
D86*
X88600000Y-67800000D02*
X85850000Y-67800000D01*
D84*
X103550000Y-89500000D02*
X104600000Y-89500000D01*
X129225000Y-99965000D02*
X129225000Y-101500000D01*
X92500000Y-91550000D02*
X92500000Y-93425000D01*
X95000000Y-91550000D02*
X95000000Y-93725000D01*
X87250000Y-74480000D02*
X88250000Y-74480000D01*
X83865000Y-74980000D02*
X84365000Y-74480000D01*
X124600000Y-102900000D02*
X124600000Y-107650000D01*
X160500000Y-125900000D02*
X160900000Y-126300000D01*
X232500000Y-125700000D02*
X232500000Y-124150000D01*
X113250000Y-124150000D02*
X114700000Y-125600000D01*
X83060000Y-103370000D02*
X83060000Y-102665000D01*
X64100000Y-125600000D02*
X58600000Y-125600000D01*
X58000000Y-125000000D02*
X58000000Y-98050000D01*
X113650000Y-108300000D02*
X114300000Y-107650000D01*
X173200000Y-59650000D02*
X174050000Y-60500000D01*
%TO.N,/h7core_block/HSE_IN*%
D83*
X95500000Y-92600000D02*
X95900000Y-93000000D01*
X95900000Y-96150000D02*
X95350000Y-96700000D01*
X95500000Y-91550000D02*
X95500000Y-92600000D01*
X92750000Y-99250000D02*
X92750000Y-99975000D01*
X95900000Y-93000000D02*
X95900000Y-96150000D01*
X95350000Y-97600000D02*
X94400000Y-97600000D01*
X94400000Y-97600000D02*
X92750000Y-99250000D01*
X95350000Y-96700000D02*
X95350000Y-97600000D01*
%TO.N,/h7core_block/HSE_OUT*%
X97775000Y-94175000D02*
X99000000Y-94175000D01*
X96000000Y-92400000D02*
X97775000Y-94175000D01*
X96000000Y-91550000D02*
X96000000Y-92400000D01*
%TO.N,/h7core_block/NRST*%
X58000000Y-86150000D02*
X65819999Y-86150000D01*
X96500000Y-90550000D02*
X96000000Y-90050000D01*
X81570000Y-81400000D02*
X81970000Y-81000000D01*
X81570000Y-84450000D02*
X81570000Y-81400000D01*
X96000000Y-90050000D02*
X96000000Y-89350000D01*
X81120000Y-84900000D02*
X81570000Y-84450000D01*
X65819999Y-86150000D02*
X65819999Y-84600000D01*
X81120000Y-86250000D02*
X81120000Y-84900000D01*
X96500000Y-91550000D02*
X96500000Y-90550000D01*
X81970000Y-81000000D02*
X84365000Y-81000000D01*
%TO.N,/h7core_block/MUX1_SIG_ADC*%
X98150000Y-89300000D02*
X98900000Y-89300000D01*
X97000000Y-91550000D02*
X97000000Y-90450000D01*
X97000000Y-90450000D02*
X98150000Y-89300000D01*
X114200000Y-93200000D02*
X114200000Y-94400000D01*
X114200000Y-94400000D02*
X114200000Y-96225000D01*
%TO.N,/h7core_block/VDDA*%
D84*
X105100000Y-94325000D02*
X105100000Y-97225000D01*
X105100000Y-97225000D02*
X107500000Y-97225000D01*
X104500000Y-93725000D02*
X105100000Y-94325000D01*
X99500000Y-91550000D02*
X99500000Y-92900000D01*
X101000000Y-97225000D02*
X103000000Y-97225000D01*
X100325000Y-93725000D02*
X101000000Y-93725000D01*
X99500000Y-91550000D02*
X100000000Y-91550000D01*
X99500000Y-92900000D02*
X100325000Y-93725000D01*
X103000000Y-93725000D02*
X104500000Y-93725000D01*
X103000000Y-97225000D02*
X105100000Y-97225000D01*
X101000000Y-93725000D02*
X103000000Y-93725000D01*
%TO.N,/TOGGLE8*%
D83*
X234000000Y-122650000D02*
X232500000Y-122650000D01*
X109600000Y-89000000D02*
X110100000Y-89500000D01*
X232200000Y-121700000D02*
X232500000Y-122000000D01*
X110100000Y-89500000D02*
X110100000Y-102300000D01*
X230300000Y-121700000D02*
X232200000Y-121700000D01*
X103550000Y-89000000D02*
X109600000Y-89000000D01*
X110100000Y-102300000D02*
X109300000Y-103100000D01*
X234450000Y-122200000D02*
X234000000Y-122650000D01*
X232500000Y-122000000D02*
X232500000Y-122650000D01*
X232500000Y-115000000D02*
X234000000Y-115000000D01*
X234000000Y-115000000D02*
X234450000Y-115450000D01*
X234450000Y-115450000D02*
X234450000Y-122200000D01*
X230000000Y-122000000D02*
X230300000Y-121700000D01*
X230000000Y-122700000D02*
X230000000Y-122000000D01*
%TO.N,/TOGGLE6*%
X182000000Y-122700000D02*
X182000000Y-122000000D01*
X182000000Y-122000000D02*
X182300000Y-121700000D01*
X110000000Y-88500000D02*
X110500000Y-89000000D01*
X186000000Y-122650000D02*
X184500000Y-122650000D01*
X110500000Y-89000000D02*
X110500000Y-103100000D01*
X182300000Y-121700000D02*
X184200000Y-121700000D01*
X184500000Y-122000000D02*
X184500000Y-122650000D01*
X186000000Y-115000000D02*
X186450000Y-115450000D01*
X110500000Y-103100000D02*
X109300000Y-104300000D01*
X103550000Y-88500000D02*
X110000000Y-88500000D01*
X186450000Y-122200000D02*
X186000000Y-122650000D01*
X186450000Y-115450000D02*
X186450000Y-122200000D01*
X184500000Y-115000000D02*
X186000000Y-115000000D01*
X184200000Y-121700000D02*
X184500000Y-122000000D01*
%TO.N,/TOGGLE4*%
X138450000Y-122200000D02*
X138000000Y-122650000D01*
X134000000Y-122700000D02*
X134000000Y-122000000D01*
X134000000Y-122000000D02*
X134300000Y-121700000D01*
X138000000Y-122650000D02*
X136500000Y-122650000D01*
X136500000Y-122000000D02*
X136500000Y-122650000D01*
X138450000Y-115450000D02*
X138450000Y-122200000D01*
X110400000Y-88000000D02*
X110900000Y-88500000D01*
X134300000Y-121700000D02*
X136200000Y-121700000D01*
X103550000Y-88000000D02*
X110400000Y-88000000D01*
X110900000Y-88500000D02*
X110900000Y-103900000D01*
X110900000Y-103900000D02*
X109300000Y-105500000D01*
X136200000Y-121700000D02*
X136500000Y-122000000D01*
X136500000Y-115000000D02*
X138000000Y-115000000D01*
X138000000Y-115000000D02*
X138450000Y-115450000D01*
%TO.N,/TOGGLE1*%
X62300000Y-121700000D02*
X64200000Y-121700000D01*
X62000000Y-122000000D02*
X62300000Y-121700000D01*
X66300000Y-116200000D02*
X66600000Y-116500000D01*
X111120000Y-107480000D02*
X111300000Y-107300000D01*
X66600000Y-122050000D02*
X66000000Y-122650000D01*
X64700000Y-116200000D02*
X66300000Y-116200000D01*
X110800000Y-107480000D02*
X111120000Y-107480000D01*
X64500000Y-116000000D02*
X64700000Y-116200000D01*
X62000000Y-122700000D02*
X62000000Y-122000000D01*
X111300000Y-107300000D02*
X111300000Y-88000000D01*
X66600000Y-116500000D02*
X66600000Y-122050000D01*
X110800000Y-87500000D02*
X103550000Y-87500000D01*
X64500000Y-115000000D02*
X64500000Y-116000000D01*
X64200000Y-121700000D02*
X64500000Y-122000000D01*
X111300000Y-88000000D02*
X110800000Y-87500000D01*
X66000000Y-122650000D02*
X64500000Y-122650000D01*
X64500000Y-122000000D02*
X64500000Y-122650000D01*
%TO.N,/h7core_block/XSMT*%
X111600000Y-86500000D02*
X112100000Y-87000000D01*
X112100000Y-87000000D02*
X112100000Y-105880000D01*
X87050000Y-105900000D02*
X85180000Y-105900000D01*
X97675000Y-106000000D02*
X97675000Y-106880000D01*
X103550000Y-86500000D02*
X111600000Y-86500000D01*
X112100000Y-105880000D02*
X113100000Y-106880000D01*
X84600000Y-105320000D02*
X81270000Y-105320000D01*
X85180000Y-105900000D02*
X84600000Y-105320000D01*
%TO.N,/TOGGLE3*%
X114450000Y-115450000D02*
X114450000Y-122200000D01*
X110000000Y-122000000D02*
X110300000Y-121700000D01*
X114450000Y-122200000D02*
X114000000Y-122650000D01*
X112500000Y-115000000D02*
X114000000Y-115000000D01*
X114000000Y-115000000D02*
X114450000Y-115450000D01*
X112500000Y-104700000D02*
X113900000Y-106100000D01*
X112000000Y-86000000D02*
X112500000Y-86500000D01*
X110300000Y-121700000D02*
X112200000Y-121700000D01*
X114000000Y-122650000D02*
X112500000Y-122650000D01*
X112500000Y-86500000D02*
X112500000Y-104700000D01*
X112200000Y-121700000D02*
X112500000Y-122000000D01*
X110000000Y-122700000D02*
X110000000Y-122000000D01*
X103550000Y-86000000D02*
X112000000Y-86000000D01*
X112500000Y-122000000D02*
X112500000Y-122650000D01*
%TO.N,/VA_SENSE*%
X103550000Y-85500000D02*
X102100000Y-85500000D01*
X116700000Y-72800000D02*
X115600000Y-72800000D01*
X156900000Y-81600000D02*
X155900000Y-81600000D01*
X156900000Y-81600000D02*
X156900000Y-79850000D01*
%TO.N,/TOGGLE5*%
X158000000Y-122000000D02*
X158300000Y-121700000D01*
X160500000Y-122000000D02*
X160500000Y-122650000D01*
X158000000Y-122700000D02*
X158000000Y-122000000D01*
X162000000Y-122650000D02*
X160500000Y-122650000D01*
X162000000Y-115000000D02*
X162450000Y-115450000D01*
X112900000Y-103900000D02*
X113900000Y-104900000D01*
X160500000Y-115000000D02*
X162000000Y-115000000D01*
X158300000Y-121700000D02*
X160200000Y-121700000D01*
X162450000Y-122200000D02*
X162000000Y-122650000D01*
X103550000Y-85000000D02*
X111900000Y-85000000D01*
X111900000Y-85000000D02*
X112900000Y-86000000D01*
X160200000Y-121700000D02*
X160500000Y-122000000D01*
X112900000Y-86000000D02*
X112900000Y-103900000D01*
X162450000Y-115450000D02*
X162450000Y-122200000D01*
%TO.N,/TOGGLE7*%
X210450000Y-122200000D02*
X210000000Y-122650000D01*
X206000000Y-122000000D02*
X206300000Y-121700000D01*
X208200000Y-121700000D02*
X208500000Y-122000000D01*
X112800000Y-84500000D02*
X113300000Y-85000000D01*
X206000000Y-122700000D02*
X206000000Y-122000000D01*
X210000000Y-122650000D02*
X208500000Y-122650000D01*
X113300000Y-103100000D02*
X113900000Y-103700000D01*
X206300000Y-121700000D02*
X208200000Y-121700000D01*
X208500000Y-115000000D02*
X210000000Y-115000000D01*
X103550000Y-84500000D02*
X112800000Y-84500000D01*
X208500000Y-122000000D02*
X208500000Y-122650000D01*
X210000000Y-115000000D02*
X210450000Y-115450000D01*
X210450000Y-115450000D02*
X210450000Y-122200000D01*
X113300000Y-85000000D02*
X113300000Y-103100000D01*
%TO.N,/MUX_S2*%
X142300000Y-124570000D02*
X144440000Y-124570000D01*
X103550000Y-84000000D02*
X113500000Y-84000000D01*
X141800000Y-124070000D02*
X142300000Y-124570000D01*
X141800000Y-94650000D02*
X141800000Y-124070000D01*
X113500000Y-84000000D02*
X114100000Y-84600000D01*
%TO.N,/MUX_S3*%
X142450000Y-95600000D02*
X142450000Y-123420000D01*
X103550000Y-83500000D02*
X114200000Y-83500000D01*
X142950000Y-123920000D02*
X144440000Y-123920000D01*
X114200000Y-83500000D02*
X114700000Y-84000000D01*
X142450000Y-123420000D02*
X142950000Y-123920000D01*
%TO.N,/MUX_S1*%
X152500000Y-124570000D02*
X151560000Y-124570000D01*
X143600000Y-120500000D02*
X152500000Y-120500000D01*
X153000000Y-121000000D02*
X153000000Y-124070000D01*
X103550000Y-83000000D02*
X115300000Y-83000000D01*
X143100000Y-120000000D02*
X143600000Y-120500000D01*
X143100000Y-94650000D02*
X143100000Y-120000000D01*
X152500000Y-120500000D02*
X153000000Y-121000000D01*
X153000000Y-124070000D02*
X152500000Y-124570000D01*
%TO.N,/MUX_S0*%
X144250000Y-119850000D02*
X153150000Y-119850000D01*
X153650000Y-120350000D02*
X153650000Y-124720000D01*
X153650000Y-124720000D02*
X153150000Y-125220000D01*
X143750000Y-119350000D02*
X144250000Y-119850000D01*
X103550000Y-82000000D02*
X115900000Y-82000000D01*
X153150000Y-125220000D02*
X151560000Y-125220000D01*
X153150000Y-119850000D02*
X153650000Y-120350000D01*
X143750000Y-95600000D02*
X143750000Y-119350000D01*
%TO.N,/ENC_MENU_SW*%
X160700000Y-74800000D02*
X161200000Y-75300000D01*
X102300000Y-81800000D02*
X101600000Y-81800000D01*
X103550000Y-81500000D02*
X102600000Y-81500000D01*
X102600000Y-81500000D02*
X102300000Y-81800000D01*
X160700000Y-62500000D02*
X160700000Y-74800000D01*
X176442000Y-80500000D02*
X176442000Y-77750000D01*
X175942000Y-75300000D02*
X176442000Y-75800000D01*
X161200000Y-75300000D02*
X175942000Y-75300000D01*
X176442000Y-75800000D02*
X176442000Y-77750000D01*
X176442000Y-80500000D02*
X178740000Y-80500000D01*
%TO.N,/ENC_MENU_B*%
X103550000Y-81000000D02*
X102000000Y-81000000D01*
X167642000Y-62842000D02*
X168050000Y-63250000D01*
X168050000Y-63250000D02*
X171442000Y-63250000D01*
X169050000Y-61150000D02*
X169942000Y-61150000D01*
X167642000Y-60500000D02*
X168400000Y-60500000D01*
X102000000Y-81000000D02*
X101850000Y-81150000D01*
X167642000Y-60500000D02*
X167642000Y-62842000D01*
X168400000Y-60500000D02*
X169050000Y-61150000D01*
X101850000Y-81150000D02*
X100950000Y-81150000D01*
%TO.N,/ENC_MENU_A*%
X178742000Y-60500000D02*
X178742000Y-62858000D01*
X103550000Y-80500000D02*
X100300000Y-80500000D01*
X178742000Y-62858000D02*
X178350000Y-63250000D01*
X178350000Y-63250000D02*
X176442000Y-63250000D01*
X176442000Y-60500000D02*
X176442000Y-63250000D01*
%TO.N,/I2C_SCL*%
X140045000Y-80600000D02*
X140750000Y-79895000D01*
X140750000Y-50300000D02*
X140450000Y-50000000D01*
X137055000Y-50750000D02*
X137055000Y-55950000D01*
X104600000Y-80000000D02*
X105200000Y-80600000D01*
X140750000Y-79895000D02*
X140750000Y-50300000D01*
X105200000Y-80600000D02*
X140045000Y-80600000D01*
X103550000Y-80000000D02*
X104600000Y-80000000D01*
X140450000Y-50000000D02*
X138450000Y-50000000D01*
X138450000Y-50000000D02*
X137700000Y-50750000D01*
X137700000Y-50750000D02*
X137055000Y-50750000D01*
%TO.N,/I2C_SDA*%
X138895000Y-79900000D02*
X105200000Y-79900000D01*
X103550000Y-79500000D02*
X104800000Y-79500000D01*
X104800000Y-79500000D02*
X105200000Y-79900000D01*
X139595000Y-59550000D02*
X139595000Y-79200000D01*
X139595000Y-79200000D02*
X138895000Y-79900000D01*
X139595000Y-59550000D02*
X139595000Y-50750000D01*
%TO.N,/h7core_block/VCAP1*%
D86*
X104600000Y-79000000D02*
X108225000Y-79000000D01*
D84*
X103550000Y-79000000D02*
X104600000Y-79000000D01*
%TO.N,/MUTE_SW*%
D83*
X96000000Y-74190000D02*
X96000000Y-72400000D01*
X96000000Y-76450000D02*
X96000000Y-74190000D01*
X97300000Y-74190000D02*
X96000000Y-74190000D01*
%TO.N,/h7core_block/VBUS_SENSE*%
X117800000Y-71100000D02*
X107000000Y-71100000D01*
X107000000Y-71100000D02*
X106600000Y-71500000D01*
X118235000Y-44365000D02*
X120110000Y-42490000D01*
X118235000Y-70665000D02*
X118235000Y-44365000D01*
X94020000Y-71500000D02*
X93500000Y-72020000D01*
X120110000Y-42490000D02*
X120110000Y-41325000D01*
X120110000Y-41325000D02*
X122110000Y-41325000D01*
X93500000Y-72020000D02*
X93500000Y-76450000D01*
X117800000Y-71100000D02*
X118235000Y-70665000D01*
X106600000Y-71500000D02*
X94020000Y-71500000D01*
%TO.N,/h7core_block/USB_DM*%
X115750000Y-38350000D02*
X115750000Y-40650000D01*
X105200000Y-67500000D02*
X102000000Y-70700000D01*
X114250000Y-63507000D02*
X110257000Y-67500000D01*
X115750000Y-36120000D02*
X115750000Y-37250000D01*
X115750000Y-41600000D02*
X114250000Y-43100000D01*
X92500000Y-72400000D02*
X92500000Y-76450000D01*
X114250000Y-43100000D02*
X114250000Y-63507000D01*
X102000000Y-70700000D02*
X94200000Y-70700000D01*
X115750000Y-37250000D02*
X115750000Y-38350000D01*
X114750000Y-36950000D02*
X115050000Y-37250000D01*
X94200000Y-70700000D02*
X92500000Y-72400000D01*
X110257000Y-67500000D02*
X105200000Y-67500000D01*
X115050000Y-37250000D02*
X115750000Y-37250000D01*
X115750000Y-40650000D02*
X115750000Y-41600000D01*
X114750000Y-36120000D02*
X114750000Y-36950000D01*
%TO.N,/h7core_block/USB_DP*%
X92000000Y-72300000D02*
X92000000Y-76450000D01*
X115250000Y-35300000D02*
X115050000Y-35100000D01*
X113850000Y-63200000D02*
X109950000Y-67100000D01*
X113850000Y-40650000D02*
X113850000Y-63200000D01*
X109950000Y-67100000D02*
X105034000Y-67100000D01*
X113850000Y-38350000D02*
X113850000Y-40650000D01*
X115050000Y-35100000D02*
X114450000Y-35100000D01*
X113850000Y-37250000D02*
X113850000Y-38350000D01*
X114450000Y-35100000D02*
X114250000Y-35300000D01*
X114250000Y-36850000D02*
X113850000Y-37250000D01*
X94000000Y-70300000D02*
X92000000Y-72300000D01*
X101834000Y-70300000D02*
X94000000Y-70300000D01*
X114250000Y-35300000D02*
X114250000Y-36120000D01*
X105034000Y-67100000D02*
X101834000Y-70300000D01*
X114250000Y-36120000D02*
X114250000Y-36850000D01*
X115250000Y-36120000D02*
X115250000Y-35300000D01*
%TO.N,/h7core_block/SWDIO*%
X86530000Y-79730000D02*
X85635000Y-79730000D01*
X91500000Y-76450000D02*
X91500000Y-71600000D01*
%TO.N,/h7core_block/VCAP2*%
X90000000Y-74275000D02*
X90775000Y-74275000D01*
X90950000Y-74450000D02*
X90950000Y-75700000D01*
X90775000Y-74275000D02*
X90950000Y-74450000D01*
%TO.N,/h7core_block/SWCLK*%
X87550000Y-78000000D02*
X87180000Y-78370000D01*
X87180000Y-78370000D02*
X87180000Y-80630000D01*
X88450000Y-78000000D02*
X87550000Y-78000000D01*
X87180000Y-80630000D02*
X86810000Y-81000000D01*
X86810000Y-81000000D02*
X85635000Y-81000000D01*
%TO.N,/h7core_block/SWO*%
X88450000Y-84500000D02*
X87550000Y-84500000D01*
X87550000Y-84500000D02*
X87180000Y-84130000D01*
X86810000Y-82270000D02*
X85635000Y-82270000D01*
X87180000Y-84130000D02*
X87180000Y-82640000D01*
X87180000Y-82640000D02*
X86810000Y-82270000D01*
%TO.N,/MUTE_N*%
X71000000Y-82750000D02*
X69900000Y-82750000D01*
X81750000Y-85500000D02*
X88450000Y-85500000D01*
%TO.N,/h7core_block/USER_LED*%
X88450000Y-86500000D02*
X86325000Y-86500000D01*
%TO.N,/h7core_block/BOOT0*%
X91500000Y-87000000D02*
X93100000Y-85400000D01*
X58000000Y-94350000D02*
X65819999Y-94350000D01*
X93100000Y-85400000D02*
X93800000Y-85400000D01*
X58000000Y-94350000D02*
X56800000Y-94350000D01*
X88450000Y-87000000D02*
X91500000Y-87000000D01*
%TO.N,/POT02*%
X159400000Y-126970000D02*
X159400000Y-140200000D01*
X156650000Y-151000000D02*
X232050000Y-151000000D01*
X156200000Y-143400000D02*
X156200000Y-150550000D01*
X158950000Y-126520000D02*
X159400000Y-126970000D01*
X156200000Y-150550000D02*
X156650000Y-151000000D01*
X159400000Y-140200000D02*
X156200000Y-143400000D01*
X232050000Y-151000000D02*
X232500000Y-151450000D01*
X232500000Y-151450000D02*
X232500000Y-171500000D01*
X151560000Y-126520000D02*
X158950000Y-126520000D01*
%TO.N,/BIAS_W*%
X66710000Y-90330000D02*
X66710000Y-93900000D01*
X72400000Y-90330000D02*
X68500000Y-90330000D01*
X68500000Y-87020000D02*
X68500000Y-90330000D01*
X67500000Y-94690000D02*
X67500000Y-95400000D01*
X66709999Y-90330000D02*
X68500000Y-90330000D01*
X66710000Y-93900000D02*
X67500000Y-94690000D01*
%TO.N,/POT14*%
X146960000Y-154500000D02*
X208050000Y-154500000D01*
X144440000Y-129130000D02*
X146960000Y-129130000D01*
X208050000Y-154500000D02*
X208500000Y-154950000D01*
X208500000Y-154950000D02*
X208500000Y-171500000D01*
%TO.N,/XLR_3*%
X189360000Y-58160000D02*
X189360000Y-53950000D01*
X198000000Y-58750000D02*
X189950000Y-58750000D01*
X189950000Y-58750000D02*
X189360000Y-58160000D01*
%TO.N,/MIC_N*%
X200250000Y-60250000D02*
X198000000Y-60250000D01*
X198000000Y-67830000D02*
X198000000Y-62350000D01*
X201000000Y-61000000D02*
X200250000Y-60250000D01*
X195650000Y-60250000D02*
X195000000Y-60900000D01*
X201000000Y-62800000D02*
X201000000Y-61000000D01*
X198000000Y-60250000D02*
X195650000Y-60250000D01*
X195000000Y-60900000D02*
X195000000Y-62750000D01*
X198000000Y-62350000D02*
X198000000Y-60250000D01*
%TO.N,/5V*%
D86*
X68500000Y-74013000D02*
X68500000Y-72400000D01*
X152800000Y-49450000D02*
X153750000Y-49450000D01*
X71200000Y-72330000D02*
X71200000Y-73180000D01*
X93675000Y-59800000D02*
X94550000Y-59800000D01*
X155700000Y-49850000D02*
X156100000Y-50250000D01*
X154150000Y-49850000D02*
X155000000Y-49850000D01*
X93300000Y-59425000D02*
X93675000Y-59800000D01*
D85*
X103500000Y-46000000D02*
X106530000Y-46000000D01*
D86*
X157600000Y-60210000D02*
X157600000Y-59380000D01*
X94550000Y-59800000D02*
X95500000Y-59800000D01*
X153750000Y-49450000D02*
X154150000Y-49850000D01*
X156100000Y-50250000D02*
X156100000Y-57300000D01*
X157600000Y-58800000D02*
X157600000Y-59380000D01*
D85*
X97850000Y-46000000D02*
X100500000Y-46000000D01*
D86*
X93050000Y-53150000D02*
X93050000Y-54100000D01*
X155000000Y-49850000D02*
X155700000Y-49850000D01*
D85*
X106530000Y-46000000D02*
X106530000Y-56800000D01*
D86*
X90600000Y-59425000D02*
X92000000Y-59425000D01*
X74200000Y-74010000D02*
X74200000Y-72400000D01*
X92000000Y-59425000D02*
X93300000Y-59425000D01*
X156100000Y-57300000D02*
X157600000Y-58800000D01*
X72030000Y-74010000D02*
X74200000Y-74010000D01*
D85*
X100500000Y-46000000D02*
X103500000Y-46000000D01*
D86*
X72030000Y-74010000D02*
X71200000Y-73180000D01*
%TO.N,/5VA_W*%
D84*
X68500000Y-86000000D02*
X75600000Y-86000000D01*
X77600000Y-87800000D02*
X77600000Y-86000000D01*
X68500000Y-75587000D02*
X68500000Y-86000000D01*
X75600000Y-86000000D02*
X77600000Y-86000000D01*
%TO.N,/5VA*%
X158000000Y-83100000D02*
X156900000Y-83100000D01*
X133500000Y-97175000D02*
X135650000Y-97175000D01*
X157600000Y-67190000D02*
X157600000Y-68330000D01*
X157600000Y-61790000D02*
X157600000Y-62620000D01*
X160890000Y-83100000D02*
X158000000Y-83100000D01*
X161890000Y-84100000D02*
X160890000Y-83100000D01*
X198950000Y-64650000D02*
X198950000Y-65550000D01*
X135650000Y-97175000D02*
X135650000Y-96375000D01*
X212950000Y-64650000D02*
X212950000Y-65550000D01*
X226800000Y-78500000D02*
X226000000Y-78500000D01*
X202400000Y-81400000D02*
X202400000Y-83300000D01*
X202400000Y-81400000D02*
X201100000Y-81400000D01*
X161890000Y-88550000D02*
X163370000Y-88550000D01*
X162000000Y-94750000D02*
X162000000Y-95753000D01*
X161890000Y-88550000D02*
X161890000Y-84100000D01*
X229100000Y-81900000D02*
X229100000Y-80600000D01*
%TO.N,/MIC_P*%
D83*
X213800000Y-62800000D02*
X213350000Y-62350000D01*
X210200000Y-62750000D02*
X210600000Y-62350000D01*
X212000000Y-67830000D02*
X212000000Y-62350000D01*
X215000000Y-62800000D02*
X213800000Y-62800000D01*
X213350000Y-62350000D02*
X212000000Y-62350000D01*
X212000000Y-62350000D02*
X212000000Y-60250000D01*
X210600000Y-62350000D02*
X212000000Y-62350000D01*
X209000000Y-62750000D02*
X210200000Y-62750000D01*
%TO.N,/h7core_block/ADC_VCC*%
D84*
X135650000Y-102650000D02*
X135350000Y-102950000D01*
X135650000Y-101500000D02*
X135650000Y-102650000D01*
X131500000Y-102500000D02*
X129525000Y-102500000D01*
X131949999Y-102950000D02*
X131500000Y-102500000D01*
X135650000Y-98825000D02*
X135650000Y-101500000D01*
X128400000Y-103500000D02*
X128050000Y-103150000D01*
X135350000Y-102950000D02*
X131949999Y-102950000D01*
X129225000Y-102800000D02*
X129225000Y-103500000D01*
X129225000Y-103500000D02*
X128400000Y-103500000D01*
X129525000Y-102500000D02*
X129225000Y-102800000D01*
X128050000Y-103150000D02*
X126800000Y-103150000D01*
%TO.N,/h7core_block/LDO_EN*%
D83*
X154900000Y-46620000D02*
X155370000Y-46620000D01*
X154430000Y-46620000D02*
X154900000Y-46620000D01*
X152800000Y-47550000D02*
X153500000Y-47550000D01*
X156300000Y-47550000D02*
X156800000Y-47550000D01*
X155370000Y-46620000D02*
X156300000Y-47550000D01*
X153500000Y-47550000D02*
X154430000Y-46620000D01*
%TO.N,/RG_MID*%
X199250000Y-89750000D02*
X199500000Y-90000000D01*
X199500000Y-90000000D02*
X202830000Y-90000000D01*
X199250000Y-87000000D02*
X199250000Y-89750000D01*
%TO.N,/A2_FB*%
X197750000Y-85000000D02*
X197750000Y-87000000D01*
X197750000Y-83000000D02*
X197750000Y-85000000D01*
X202400000Y-78870000D02*
X201200000Y-78870000D01*
X197750000Y-82320000D02*
X197750000Y-83000000D01*
X201200000Y-78870000D02*
X197750000Y-82320000D01*
%TO.N,/IN_P*%
X212000000Y-73170000D02*
X211030000Y-73170000D01*
X211030000Y-73170000D02*
X210750000Y-73450000D01*
X210750000Y-73450000D02*
X210750000Y-77500000D01*
X209300000Y-79300000D02*
X210750000Y-79300000D01*
X208870000Y-78870000D02*
X209300000Y-79300000D01*
X210750000Y-77500000D02*
X210750000Y-79300000D01*
X207600000Y-78870000D02*
X208870000Y-78870000D01*
%TO.N,/VREF*%
X157250000Y-93000000D02*
X157250000Y-94400000D01*
D84*
X233000000Y-91250000D02*
X232100000Y-91250000D01*
X197750000Y-77600000D02*
X197750000Y-76500000D01*
D83*
X157250000Y-94400000D02*
X155840000Y-95810000D01*
X155840000Y-95810000D02*
X155840000Y-97000000D01*
D84*
X212250000Y-77500000D02*
X212250000Y-76500000D01*
X157250000Y-93000000D02*
X157250000Y-92100000D01*
%TO.N,/9V_JACK*%
D87*
X234350000Y-40550000D02*
X230800000Y-37000000D01*
X230800000Y-37000000D02*
X227350000Y-37000000D01*
D86*
X222650000Y-34000000D02*
X226350000Y-34000000D01*
X227350000Y-35000000D02*
X227350000Y-37000000D01*
X226350000Y-34000000D02*
X227350000Y-35000000D01*
D87*
X234350000Y-46800000D02*
X234350000Y-40550000D01*
D86*
X222650000Y-34000000D02*
X218600000Y-34000000D01*
%TO.N,/h7core_block/HSE_XTAL_OUT*%
D83*
X99000000Y-100225000D02*
X98400000Y-100225000D01*
X97975000Y-99800000D02*
X97050000Y-99800000D01*
X99000000Y-95825000D02*
X99000000Y-100225000D01*
X98400000Y-100225000D02*
X97975000Y-99800000D01*
%TO.N,/h7core_block/VBUS*%
D84*
X114800000Y-38350000D02*
X114800000Y-39500000D01*
X111910000Y-37690000D02*
X111910000Y-40000000D01*
D83*
X120825000Y-39675000D02*
X120110000Y-39675000D01*
D84*
X111110000Y-40000000D02*
X111910000Y-40000000D01*
X119660000Y-37250000D02*
X120110000Y-37700000D01*
D83*
X111110000Y-40000000D02*
X111110000Y-40300000D01*
X121200000Y-33800000D02*
X121200000Y-39300000D01*
X107700000Y-36900000D02*
X107700000Y-39000000D01*
X120699999Y-33299999D02*
X121200000Y-33800000D01*
X107700000Y-39000000D02*
X109200000Y-40500000D01*
X111110000Y-40300000D02*
X110910000Y-40500000D01*
X109200000Y-33299999D02*
X107700000Y-34800000D01*
X110910000Y-40500000D02*
X109200000Y-40500000D01*
D84*
X112600000Y-36165000D02*
X112600000Y-37000000D01*
X120110000Y-37700000D02*
X120110000Y-39675000D01*
X117400000Y-36165000D02*
X117400000Y-36707500D01*
D83*
X109200001Y-33299999D02*
X120699999Y-33299999D01*
X121200000Y-39300000D02*
X120825000Y-39675000D01*
D84*
X112600000Y-37000000D02*
X111910000Y-37690000D01*
D83*
X107700000Y-34800000D02*
X107700000Y-36900000D01*
D84*
X117400000Y-36707500D02*
X117942500Y-37250000D01*
X117942500Y-37250000D02*
X119660000Y-37250000D01*
%TO.N,/MUTE_COIL*%
X71200000Y-67990000D02*
X71200000Y-68870000D01*
X72200000Y-66990000D02*
X71200000Y-67990000D01*
X70500000Y-77500000D02*
X70000000Y-77500000D01*
X70000000Y-77500000D02*
X70000000Y-69270000D01*
X74200000Y-66990000D02*
X72200000Y-66990000D01*
X70000000Y-69270000D02*
X70400000Y-68870000D01*
X70400000Y-68870000D02*
X71200000Y-68870000D01*
%TO.N,/TRS_T*%
D83*
X218500000Y-47100000D02*
X218500000Y-68840000D01*
X218500000Y-68840000D02*
X219340000Y-68840000D01*
X219600000Y-69100000D02*
X219600000Y-74800000D01*
X219150000Y-75250000D02*
X218500000Y-75250000D01*
X217730000Y-46330000D02*
X218500000Y-47100000D01*
X219600000Y-74800000D02*
X219150000Y-75250000D01*
X193810000Y-46330000D02*
X184920000Y-46330000D01*
X219340000Y-68840000D02*
X219600000Y-69100000D01*
X193810000Y-46330000D02*
X217730000Y-46330000D01*
%TO.N,/POT06*%
X153400000Y-149600000D02*
X113400000Y-149600000D01*
X153400000Y-129130000D02*
X153850000Y-129580000D01*
X153850000Y-149150000D02*
X153400000Y-149600000D01*
X153850000Y-129580000D02*
X153850000Y-149150000D01*
X151560000Y-129130000D02*
X153400000Y-129130000D01*
%TO.N,/A1_FB*%
X212250000Y-81400000D02*
X212250000Y-83500000D01*
X206300000Y-80130000D02*
X205900000Y-80530000D01*
X205900000Y-89600000D02*
X206300000Y-90000000D01*
X207600000Y-80130000D02*
X206300000Y-80130000D01*
X205900000Y-80530000D02*
X205900000Y-89600000D01*
X206300000Y-90000000D02*
X208170000Y-90000000D01*
X207600000Y-80130000D02*
X211750000Y-80130000D01*
X212250000Y-80630000D02*
X212250000Y-81400000D01*
X211750000Y-80130000D02*
X212250000Y-80630000D01*
%TO.N,/LINE_N*%
X194300000Y-79100000D02*
X194300000Y-72600000D01*
X193860000Y-72160000D02*
X191500000Y-72160000D01*
X194700000Y-79500000D02*
X194300000Y-79100000D01*
X194300000Y-72600000D02*
X193860000Y-72160000D01*
X197750000Y-79500000D02*
X194700000Y-79500000D01*
%TO.N,/TRS_R*%
X191500000Y-67240000D02*
X191500000Y-68840000D01*
X191100000Y-66840000D02*
X191500000Y-67240000D01*
X190500000Y-75000000D02*
X190500000Y-69150000D01*
X190750000Y-75250000D02*
X190500000Y-75000000D01*
X191500000Y-75250000D02*
X190750000Y-75250000D01*
X186510000Y-53320000D02*
X186510000Y-66440000D01*
X190500000Y-69150000D02*
X190810000Y-68840000D01*
X186910000Y-66840000D02*
X191100000Y-66840000D01*
X186510000Y-66440000D02*
X186910000Y-66840000D01*
X190810000Y-68840000D02*
X191500000Y-68840000D01*
%TO.N,/VREF_DIV*%
X164000000Y-93250000D02*
X166500000Y-93250000D01*
X159610000Y-92250000D02*
X160610000Y-93250000D01*
X160610000Y-93250000D02*
X162000000Y-93250000D01*
X159610000Y-90450000D02*
X159610000Y-92250000D01*
X162000000Y-93250000D02*
X164000000Y-93250000D01*
%TO.N,/LINE_P*%
X215540000Y-72160000D02*
X218500000Y-72160000D01*
X214100000Y-73600000D02*
X215540000Y-72160000D01*
X213700000Y-79300000D02*
X214100000Y-78900000D01*
X214100000Y-78900000D02*
X214100000Y-73600000D01*
X212250000Y-79300000D02*
X213700000Y-79300000D01*
%TO.N,/POT_MUX_OUT*%
X150060000Y-133500000D02*
X150060000Y-135800000D01*
X146025000Y-134025000D02*
X141471471Y-134025000D01*
X141000000Y-96200000D02*
X140000000Y-95200000D01*
X141471471Y-134025000D02*
X141000000Y-133553529D01*
X115850000Y-94400000D02*
X115850000Y-93200000D01*
X140000000Y-95200000D02*
X133900000Y-95200000D01*
X141000000Y-133553529D02*
X141000000Y-96200000D01*
X146550000Y-133500000D02*
X146025000Y-134025000D01*
X150060000Y-133500000D02*
X146550000Y-133500000D01*
%TO.N,/INA_O2*%
X199250000Y-83800000D02*
X199150000Y-83900000D01*
X213200000Y-92800000D02*
X228500000Y-92800000D01*
X199250000Y-83000000D02*
X199250000Y-83800000D01*
X228500000Y-92800000D02*
X229000000Y-92300000D01*
X229000000Y-92300000D02*
X229000000Y-91250000D01*
X202400000Y-80130000D02*
X201100000Y-80130000D01*
X199150000Y-85000000D02*
X200600000Y-85000000D01*
X199250000Y-81980000D02*
X199250000Y-83000000D01*
X199150000Y-83900000D02*
X199150000Y-85000000D01*
X201100000Y-80130000D02*
X199250000Y-81980000D01*
%TO.N,/POT15*%
X64500000Y-156350000D02*
X64500000Y-171500000D01*
X148320000Y-155900000D02*
X64950000Y-155900000D01*
X64950000Y-155900000D02*
X64500000Y-156350000D01*
X144440000Y-127820000D02*
X148320000Y-127820000D01*
%TO.N,/POT07*%
X152950000Y-129780000D02*
X153400000Y-130229999D01*
X153400000Y-147750000D02*
X152950000Y-148200000D01*
X136950000Y-148200000D02*
X136500000Y-147750000D01*
X136500000Y-147750000D02*
X136500000Y-145500000D01*
X151560000Y-129780000D02*
X152950000Y-129780000D01*
X153400000Y-130229999D02*
X153400000Y-147750000D01*
X152950000Y-148200000D02*
X136950000Y-148200000D01*
%TO.N,/BUF_IN*%
X77600000Y-92800000D02*
X77600000Y-91600000D01*
X73500000Y-96900000D02*
X77600000Y-92800000D01*
X65750000Y-96900000D02*
X67500000Y-96900000D01*
X67500000Y-96900000D02*
X73500000Y-96900000D01*
%TO.N,/ADC_VINR*%
X121200000Y-104450000D02*
X121200000Y-106510000D01*
%TO.N,/h7core_block/ADC_SCKI*%
X128250000Y-100850000D02*
X127900000Y-101200000D01*
X127900000Y-101200000D02*
X126800000Y-101200000D01*
X128250000Y-100500000D02*
X128250000Y-100850000D01*
X88150000Y-94510000D02*
X88150000Y-102300000D01*
%TO.N,/h7core_block/ADC_VREF*%
X129225000Y-104725000D02*
X128950000Y-104450000D01*
X129225000Y-105500000D02*
X129225000Y-104725000D01*
X128950000Y-104450000D02*
X126800000Y-104450000D01*
X132725000Y-106700000D02*
X132525000Y-106900000D01*
X132525000Y-106900000D02*
X129425000Y-106900000D01*
X132725000Y-106000000D02*
X132725000Y-106700000D01*
X129225000Y-106700000D02*
X129225000Y-105500000D01*
X129425000Y-106900000D02*
X129225000Y-106700000D01*
%TO.N,/h7core_block/PWR_LED_A*%
X108300000Y-73625000D02*
X108300000Y-75320000D01*
%TO.N,/MUX_COM*%
X151560000Y-131080000D02*
X151560000Y-133500000D01*
%TO.N,/POT11*%
X144440000Y-129780000D02*
X146280000Y-129780000D01*
X146280000Y-153800000D02*
X184500000Y-153800000D01*
%TO.N,/POT03*%
X155700000Y-151950000D02*
X155250000Y-152400000D01*
X64500000Y-151950000D02*
X64500000Y-145500000D01*
X155250000Y-152400000D02*
X64950000Y-152400000D01*
X158350000Y-127170000D02*
X158800000Y-127620000D01*
X151560000Y-127170000D02*
X158350000Y-127170000D01*
X155700000Y-143000000D02*
X155700000Y-151950000D01*
X64950000Y-152400000D02*
X64500000Y-151950000D01*
X158800000Y-127620000D02*
X158800000Y-139900000D01*
X158800000Y-139900000D02*
X155700000Y-143000000D01*
%TO.N,/POT08*%
X152500000Y-147500000D02*
X137400000Y-147500000D01*
X152950000Y-130880000D02*
X152950000Y-147050000D01*
X152950000Y-147050000D02*
X152500000Y-147500000D01*
X152500000Y-130430000D02*
X152950000Y-130880000D01*
X151560000Y-130430000D02*
X152500000Y-130430000D01*
%TO.N,/DA_P*%
X231630000Y-88570000D02*
X231000000Y-89200000D01*
X233000000Y-89750000D02*
X231000000Y-89750000D01*
X231000000Y-89200000D02*
X231000000Y-89750000D01*
X231630000Y-87100000D02*
X231630000Y-88570000D01*
%TO.N,/OUT_AC*%
X79600000Y-77340000D02*
X79600000Y-74010000D01*
X79600000Y-77340000D02*
X76150000Y-77340000D01*
%TO.N,/INA_O1*%
X210850000Y-93550000D02*
X211300000Y-94000000D01*
X210850000Y-83500000D02*
X210850000Y-93550000D01*
X231000000Y-93600000D02*
X231000000Y-91250000D01*
X207600000Y-82600000D02*
X208500000Y-83500000D01*
X230600000Y-94000000D02*
X231000000Y-93600000D01*
X207600000Y-81400000D02*
X210750000Y-81400000D01*
X207600000Y-81400000D02*
X207600000Y-82600000D01*
X208500000Y-83500000D02*
X210850000Y-83500000D01*
X211300000Y-94000000D02*
X230600000Y-94000000D01*
%TO.N,/G2_INV*%
X231630000Y-79440000D02*
X231630000Y-81900000D01*
X231770000Y-79300000D02*
X231630000Y-79440000D01*
X231770000Y-78500000D02*
X231770000Y-79300000D01*
X232500000Y-70000000D02*
X231770000Y-70730000D01*
X231770000Y-78500000D02*
X233750000Y-78500000D01*
X232500000Y-68500000D02*
X235000000Y-68500000D01*
X231770000Y-70730000D02*
X231770000Y-78500000D01*
X232500000Y-68500000D02*
X232500000Y-70000000D01*
%TO.N,/G2_RG*%
X237000000Y-79400000D02*
X236100000Y-78500000D01*
X236100000Y-78500000D02*
X235250000Y-78500000D01*
X237000000Y-81200000D02*
X237000000Y-79400000D01*
%TO.N,/VREF_BUF*%
X160280000Y-88550000D02*
X160750000Y-89020000D01*
X156200000Y-87400000D02*
X155750000Y-87850000D01*
X160750000Y-89020000D02*
X160750000Y-89980000D01*
X155750000Y-87850000D02*
X155750000Y-93000000D01*
X159160000Y-87400000D02*
X156200000Y-87400000D01*
X159610000Y-88550000D02*
X159610000Y-87850000D01*
X159610000Y-88550000D02*
X160280000Y-88550000D01*
X159610000Y-87850000D02*
X159160000Y-87400000D01*
X161220000Y-90450000D02*
X161890000Y-90450000D01*
X160750000Y-89980000D02*
X161220000Y-90450000D01*
%TO.N,/DA_N*%
X229550000Y-89750000D02*
X229000000Y-89750000D01*
X230370000Y-88930000D02*
X229550000Y-89750000D01*
X227000000Y-89750000D02*
X229000000Y-89750000D01*
X230370000Y-87100000D02*
X230370000Y-88930000D01*
%TO.N,/PRE_OUT*%
X116250000Y-99400000D02*
X116250000Y-100000000D01*
X230370000Y-78500000D02*
X230370000Y-81900000D01*
X230370000Y-70370000D02*
X230370000Y-78500000D01*
X116950000Y-95000000D02*
X116950000Y-98700000D01*
X230000000Y-70000000D02*
X230370000Y-70370000D01*
X230000000Y-68500000D02*
X230000000Y-70000000D01*
X152000000Y-98600000D02*
X152000000Y-94700000D01*
X151300000Y-94000000D02*
X117950000Y-94000000D01*
X116950000Y-95000000D02*
X117950000Y-94000000D01*
X152000000Y-94700000D02*
X151300000Y-94000000D01*
X116950000Y-98700000D02*
X116250000Y-99400000D01*
%TO.N,/ADC_RC*%
X117750000Y-98150000D02*
X117750000Y-100000000D01*
X117750000Y-100000000D02*
X117750000Y-102410000D01*
%TO.N,/PRE1*%
X229100000Y-84850000D02*
X229100000Y-87100000D01*
X229450000Y-84500000D02*
X229100000Y-84850000D01*
X227000000Y-91250000D02*
X226450000Y-91250000D01*
X232900000Y-81900000D02*
X232900000Y-84150000D01*
X226100000Y-87500000D02*
X226500000Y-87100000D01*
X232900000Y-84150000D02*
X232550000Y-84500000D01*
X226100000Y-90900000D02*
X226100000Y-87500000D01*
X226450000Y-91250000D02*
X226100000Y-90900000D01*
X232550000Y-84500000D02*
X229450000Y-84500000D01*
X226500000Y-87100000D02*
X229100000Y-87100000D01*
%TO.N,/IN_N*%
X199250000Y-77600000D02*
X199250000Y-79500000D01*
X198000000Y-73170000D02*
X198870000Y-73170000D01*
X202400000Y-77600000D02*
X199250000Y-77600000D01*
X199250000Y-73550000D02*
X199250000Y-77600000D01*
X198870000Y-73170000D02*
X199250000Y-73550000D01*
%TO.N,/h7core_block/CC1*%
X116250000Y-36120000D02*
X116250000Y-36900000D01*
X116250000Y-36900000D02*
X118110000Y-38760000D01*
X118110000Y-38760000D02*
X118110000Y-39675000D01*
%TO.N,/MUTE_BASE*%
X72500000Y-80750000D02*
X72500000Y-82750000D01*
X72500000Y-78450000D02*
X72500000Y-80750000D01*
%TO.N,/h7core_block/CAPP*%
X75530000Y-104020000D02*
X69400000Y-104020000D01*
%TO.N,/h7core_block/CAPM*%
X75530000Y-105320000D02*
X70425000Y-105320000D01*
X70175000Y-105570000D02*
X69400000Y-105570000D01*
X70425000Y-105320000D02*
X70175000Y-105570000D01*
%TO.N,/POT05*%
X112950000Y-150300000D02*
X112500000Y-149850000D01*
X153850000Y-128479999D02*
X154300000Y-128930000D01*
X112500000Y-149850000D02*
X112500000Y-145500000D01*
X151560000Y-128479999D02*
X153850000Y-128479999D01*
X153850000Y-150300000D02*
X112950000Y-150300000D01*
X154300000Y-149850000D02*
X153850000Y-150300000D01*
X154300000Y-128930000D02*
X154300000Y-149850000D01*
%TO.N,/POT01*%
X159550000Y-125870000D02*
X160000000Y-126320000D01*
X232050000Y-148900000D02*
X232500000Y-148450000D01*
X160000000Y-126320000D02*
X160000000Y-140500000D01*
X157150000Y-148900000D02*
X232050000Y-148900000D01*
X151560000Y-125870000D02*
X159550000Y-125870000D01*
X156700000Y-143800000D02*
X156700000Y-148450000D01*
X156700000Y-148450000D02*
X157150000Y-148900000D01*
X232500000Y-148450000D02*
X232500000Y-145500000D01*
X160000000Y-140500000D02*
X156700000Y-143800000D01*
%TO.N,/POT16*%
X88500000Y-158450000D02*
X88500000Y-171500000D01*
X150360000Y-158000000D02*
X88950000Y-158000000D01*
X88950000Y-158000000D02*
X88500000Y-158450000D01*
X144440000Y-125870000D02*
X150360000Y-125870000D01*
%TO.N,/POT10*%
X160500000Y-157750000D02*
X160500000Y-171500000D01*
X149680000Y-157300000D02*
X160050000Y-157300000D01*
X160050000Y-157300000D02*
X160500000Y-157750000D01*
X144440000Y-126520000D02*
X149680000Y-126520000D01*
%TO.N,/POT09*%
X144440000Y-127170000D02*
X149000000Y-127170000D01*
X149000000Y-156600000D02*
X160500000Y-156600000D01*
%TO.N,/POT12*%
X184050000Y-155200000D02*
X184500000Y-155650000D01*
X147640000Y-155200000D02*
X184050000Y-155200000D01*
X144440000Y-128480000D02*
X147640000Y-128480000D01*
X184500000Y-155650000D02*
X184500000Y-171500000D01*
%TO.N,/POT13*%
X144440000Y-130430000D02*
X145600000Y-130430000D01*
X145600000Y-153100000D02*
X208500000Y-153100000D01*
%TO.N,/h7core_block/I2S_BCLK*%
X91500000Y-96075000D02*
X91500000Y-98200000D01*
X118900000Y-100550000D02*
X121200000Y-100550000D01*
X90500000Y-107925000D02*
X81270000Y-107925000D01*
X90500000Y-107925000D02*
X91500000Y-106925000D01*
X91500000Y-98200000D02*
X91500000Y-106925000D01*
%TO.N,/h7core_block/BUCK_SW*%
D85*
X95500000Y-63875000D02*
X95500000Y-67800000D01*
X95500000Y-62000000D02*
X95500000Y-63875000D01*
%TO.N,/h7core_block/LDOO*%
D84*
X81270000Y-104675000D02*
X85470000Y-104675000D01*
%TO.N,/h7core_block/VNEG*%
X75530000Y-105980000D02*
X74360000Y-105980000D01*
X74360000Y-105980000D02*
X74230000Y-106110000D01*
X74230000Y-106110000D02*
X73175000Y-106110000D01*
%TO.N,/h7core_block/CC2*%
D83*
X113250000Y-34350000D02*
X113250000Y-36120000D01*
X110100000Y-33800000D02*
X112700000Y-33800000D01*
X110010000Y-38700000D02*
X109400000Y-38090000D01*
X109400000Y-34500000D02*
X110100000Y-33800000D01*
X109400000Y-38090000D02*
X109400000Y-34500000D01*
X112700000Y-33800000D02*
X113250000Y-34350000D01*
X110010000Y-39675000D02*
X110010000Y-38700000D01*
%TO.N,/BUF_R*%
X79600000Y-80660000D02*
X79600000Y-83850000D01*
%TO.N,/OUT_TIP*%
X79600000Y-51000000D02*
X79600000Y-66989999D01*
X79600000Y-69300000D02*
X81800000Y-71500000D01*
X81800000Y-71500000D02*
X81800000Y-74010000D01*
X81600000Y-47400000D02*
X81600000Y-49000000D01*
X81600000Y-49000000D02*
X79600000Y-51000000D01*
X79600000Y-66989999D02*
X79600000Y-69300000D01*
%TO.N,/h7core_block/I2S_LRCLK*%
X126800000Y-98000000D02*
X126800000Y-100550000D01*
X89500000Y-106625000D02*
X90500000Y-105625000D01*
X90500000Y-99110000D02*
X90500000Y-99900000D01*
X89500000Y-106625000D02*
X81270000Y-106625000D01*
X90500000Y-99900000D02*
X90500000Y-105625000D01*
%TO.N,/ADC_VINL*%
X117750000Y-105590000D02*
X117750000Y-104500000D01*
X118450000Y-103800000D02*
X121200000Y-103800000D01*
X117750000Y-104500000D02*
X118450000Y-103800000D01*
%TO.N,/BUF_OUT*%
X79600000Y-85350000D02*
X79600000Y-88270000D01*
X78800000Y-89070000D02*
X79600000Y-88270000D01*
X77600000Y-89070000D02*
X77600000Y-90330000D01*
X78800000Y-89070000D02*
X77600000Y-89070000D01*
%TO.N,/DAC_OUTL*%
X75530000Y-106630000D02*
X74360000Y-106630000D01*
X74360000Y-106630000D02*
X74040000Y-106950000D01*
X74040000Y-106950000D02*
X67250000Y-106950000D01*
%TO.N,/h7core_block/I2S_DATA*%
X83680000Y-107275000D02*
X81270000Y-107275000D01*
X85490000Y-93600000D02*
X84750000Y-93600000D01*
%TO.N,/h7core_block/BUCK_BST*%
X97050000Y-63200000D02*
X97050000Y-63875000D01*
X96450000Y-62600000D02*
X97050000Y-63200000D01*
X96450000Y-62000000D02*
X96450000Y-62600000D01*
%TO.N,/h7core_block/USER_LED_A*%
X84675000Y-86500000D02*
X82930000Y-86500000D01*
%TO.N,/XLR_2*%
X212000000Y-52600000D02*
X212000000Y-58750000D01*
X182380000Y-49510000D02*
X182380000Y-51480000D01*
X182800000Y-51900000D02*
X211300000Y-51900000D01*
X211300000Y-51900000D02*
X212000000Y-52600000D01*
X182380000Y-51480000D02*
X182800000Y-51900000D01*
%TO.N,/U106A_OUT*%
X72400000Y-87800000D02*
X72400000Y-89070000D01*
%TD*%
%TA.AperFunction,Conductor*%
%TO.N,/5V*%
G36*
X99367123Y-43618907D02*
G01*
X99393764Y-43652702D01*
X99394617Y-43652133D01*
X99455397Y-43743099D01*
X99455399Y-43743101D01*
X99538260Y-43798466D01*
X99593808Y-43809515D01*
X99611315Y-43812998D01*
X99611320Y-43812998D01*
X99611326Y-43813000D01*
X99611327Y-43813000D01*
X101388673Y-43813000D01*
X101388674Y-43813000D01*
X101461740Y-43798466D01*
X101544601Y-43743101D01*
X101599966Y-43660240D01*
X101599965Y-43660240D01*
X101605383Y-43652133D01*
X101606587Y-43652937D01*
X101639339Y-43614590D01*
X101691068Y-43600000D01*
X107501000Y-43600000D01*
X107559191Y-43618907D01*
X107595155Y-43668407D01*
X107600000Y-43699000D01*
X107600000Y-48101000D01*
X107581093Y-48159191D01*
X107531593Y-48195155D01*
X107501000Y-48200000D01*
X105299000Y-48200000D01*
X105240809Y-48181093D01*
X105204845Y-48131593D01*
X105200000Y-48101000D01*
X105200000Y-45400001D01*
X105200000Y-45400000D01*
X105199999Y-45400000D01*
X97199000Y-45400000D01*
X97140809Y-45381093D01*
X97104845Y-45331593D01*
X97100000Y-45301000D01*
X97100000Y-43699000D01*
X97118907Y-43640809D01*
X97168407Y-43604845D01*
X97199000Y-43600000D01*
X99308932Y-43600000D01*
X99367123Y-43618907D01*
G37*
%TD.AperFunction*%
%TD*%
M02*
