#VRML V2.0 utf8
# 3D model generated by easyeda2kicad.py (https://github.com/uPesy/easyeda2kicad.py)

Shape{
    appearance Appearance {
        material  Material 	{
            diffuseColor 0.20784313725490197 0.20784313725490197 0.20784313725490197
            specularColor 0.01568627450980392 0.01568627450980392 0.01568627450980392
            ambientIntensity 0.298
            transparency 0.0
            shininess 0.5
        }
    }
    geometry IndexedFaceSet {
        ccw TRUE
        solid FALSE
        coord DEF co Coordinate {
            point [
                -4.2126 3.5827 0.1575, -3.7352 3.5827 0.1575, -3.7352 1.9784 0.1575, 0.0671 -1.9544 0.1575, 0.394 -1.9544 0.1575, 0.394 -3.1358 0.1575, 0.0262 -0.337 0.1575, 0.0219 -0.3758 0.1575, -0.2693 -0.2519 0.1575, -0.2654 -0.2448 0.1575, -0.3086 -0.2448 0.1575, -0.3314 -0.2064 0.1575, -0.3259 -0.2868 0.1575, -0.3314 -0.3266 0.1575, 0.02 -0.2892 0.1575, 0.001 -0.2448 0.1575, 0.0671 -0.2064 0.1575, 0.0539 -0.2448 0.1575, 0.0113 -0.4053 0.1575, -0.007 -0.4325 0.1575, -0.0332 -0.4563 0.1575, -0.1364 -0.4849 0.1575, -0.179 -0.4809 0.1575, -0.2129 -0.4702 0.1575, -0.2865 -0.3826 0.1575, -0.2906 -0.3459 0.1575, -0.276 -0.4113 0.1575, -0.2597 -0.4355 0.1575, -0.2402 -0.4539 0.1575, -0.2848 -0.2936 0.1575, -0.0636 -0.4725 0.1575, -0.1058 -0.483 0.1575, 0.0671 -0.3669 0.1575, 0.0695 -0.3375 0.1575, 0.394 -0.2064 0.1575, 0.0671 -0.3027 0.1575, 0.0662 -0.2904 0.1575, -0.3288 -0.4017 0.1575, -0.3157 -0.4398 0.1575, -0.3314 -0.5545 0.1575, -0.2955 -0.4715 0.1575, -0.2643 -0.5011 0.1575, -0.2269 -0.5221 0.1575, -0.039 -0.5169 0.1575, -0.0022 -0.4939 0.1575, 0.0671 -0.5545 0.1575, 0.032 -0.4583 0.1575, 0.0535 -0.4209 0.1575, -0.1852 -0.5339 0.1575, -0.1396 -0.5377 0.1575, -0.0836 -0.5321 0.1575, -0.3337 -0.3424 0.1575, -1.2697 -0.2064 0.1575, -1.2697 -0.5545 0.1575, -0.3338 -0.3532 0.1575, -0.3314 -0.3763 0.1575, -0.7579 3.1358 0.1575, -1.2697 1.9784 0.1575, -0.7579 3.254 0.1575, -1.2697 3.5827 0.1575, -0.3314 3.254 0.1575, -0.3314 3.5827 0.1575, 0.0671 3.254 0.1575, 0.0671 3.5827 0.1575, 0.394 3.254 0.1575, 0.394 3.5827 0.1575, 0.7185 3.254 0.1575, 1.2303 3.5827 0.1575, 0.7185 3.1358 0.1575, 1.2303 1.9784 0.1575, 0.394 3.1358 0.1575, 0.394 1.9784 0.1575, 0.0671 3.1358 0.1575, 0.0671 1.9784 0.1575, -0.3314 3.1358 0.1575, -0.3314 1.9784 0.1575, -0.3314 -3.1358 0.1575, -0.7579 -3.1358 0.1575, -1.2697 -1.9544 0.1575, 0.0671 -3.1358 0.1575, -0.3314 -1.9544 0.1575, 0.394 -3.4183 0.1575, 0.394 -3.2539 0.1575, 0.7185 -3.2539 0.1575, 0.7185 -3.1358 0.1575, 1.2303 -1.9544 0.1575, 1.2303 -3.4183 0.1575, 0.0671 -3.2539 0.1575, 0.0671 -3.4183 0.1575, -0.3314 -3.2539 0.1575, -0.3314 -3.4183 0.1575, -0.7579 -3.2539 0.1575, -1.2697 -3.4183 0.1575, 3.2185 3.1358 0.1575, 4.0551 1.9784 0.1575, 1.7421 3.1358 0.1575, 1.7421 3.254 0.1575, 3.2185 3.254 0.1575, 4.0551 3.5827 0.1575, 1.7421 -3.2539 0.1575, 3.2185 -3.2539 0.1575, 1.7421 -3.1358 0.1575, 3.2185 -3.1358 0.1575, 4.0551 -1.9544 0.1575, 4.0551 -3.4183 0.1575, 4.0551 -0.2064 0.1575, 4.0551 -0.5545 0.1575, 1.2303 -0.2064 0.1575, 1.2303 -0.5545 0.1575, 0.394 -0.5545 0.1575, 0.0662 -0.377 0.1575, 4.0551 0.0816 0.1575, 1.2303 0.0816 0.1575, 0.394 0.0816 0.1575, 0.0671 0.0816 0.1575, -0.329 0.7634 0.1575, -0.2186 0.7236 0.1575, -0.2186 0.5609 0.1575, 0.0586 0.288 0.1575, 0.0424 0.3341 0.1575, 0.0647 0.6146 0.1575, -0.1799 0.4314 0.1575, -0.2211 0.4173 0.1575, -0.329 0.4657 0.1575, -0.2564 0.3947 0.1575, -0.2874 0.3623 0.1575, 0.0647 0.6674 0.1575, 0.0647 0.2312 0.1575, 0.0137 0.3769 0.1575, 0.0133 0.3774 0.1575, -0.0175 0.4052 0.1575, -0.0514 0.4235 0.1575, -0.0902 0.4341 0.1575, -0.1272 0.4369 0.1575, -0.3113 0.3212 0.1575, -0.3248 0.2758 0.1575, -0.329 0.2271 0.1575, -0.329 0.5234 0.1575, -0.329 0.821 0.1575, -0.3314 0.0816 0.1575, -0.329 0.1201 0.1575, 0.0647 0.1201 0.1575, -0.329 -0.168 0.1575, 0.0647 -0.168 0.1575, 0.0647 0.0336 0.1575, 0.0214 0.0336 0.1575, -0.2858 0.0432 0.1575, -0.329 0.0432 0.1575, -0.1514 -0.1152 0.1575, -0.2858 -0.1152 0.1575, -0.1514 0.024 0.1575, -0.1082 0.024 0.1575, -0.1082 -0.1152 0.1575, 0.0214 -0.1152 0.1575, 0.0647 -0.773 0.1575, 0.0647 -0.7202 0.1575, -0.329 -0.773 0.1575, -0.2858 -0.7202 0.1575, -0.2858 -0.5713 0.1575, -0.329 -0.5713 0.1575, -1.2697 0.0816 0.1575, -3.2579 3.1358 0.1575, -3.2579 3.254 0.1575, -1.7815 3.254 0.1575, -1.7815 3.1358 0.1575, -3.7352 -3.4183 0.1575, -3.7352 -1.9544 0.1575, -3.2579 -3.1358 0.1575, -3.2579 -3.2539 0.1575, -1.7815 -3.2539 0.1575, -1.7815 -3.1358 0.1575, -3.7352 0.0816 0.1575, -3.7352 -0.2064 0.1575, -3.7352 -0.5545 0.1575, -4.2126 1.9784 0.1575, -4.2126 0.0816 0.1575, -4.2126 -0.2064 0.1575, -4.2126 -0.5545 0.1575, -4.2126 -1.9544 0.1575, -4.2126 -3.4183 0.1575, 4.0551 -3.5827 0.1575, 1.2303 -3.5827 0.1575, 0.394 -3.5827 0.1575, 0.0671 -3.5827 0.1575, -0.3314 -3.5827 0.1575, -1.2697 -3.5827 0.1575, -3.7352 -3.5827 0.1575, -4.2126 -3.5827 0.1575
            ]
        }
        coordIndex [
            0,1,2,-1,3,4,5,-1,6,7,8,-1,9,10,11,-1,11,10,12,-1,11,12,13,-1,6,8,14,-1,14,8,9,-1,14,9,15,-1,15,9,16,-1,15,16,17,-1,7,18,8,-1,8,18,19,-1,8,19,20,-1,21,22,8,-1,8,22,23,-1,24,25,26,-1,26,25,27,-1,23,28,8,-1,8,28,27,-1,8,27,29,-1,29,27,25,-1,20,30,8,-1,8,30,31,-1,8,31,21,-1,32,33,34,-1,34,33,35,-1,34,35,16,-1,16,35,36,-1,16,36,17,-1,37,38,39,-1,38,40,39,-1,39,40,41,-1,39,41,42,-1,43,44,45,-1,45,44,46,-1,45,46,47,-1,42,48,39,-1,39,48,49,-1,39,49,45,-1,45,49,50,-1,45,50,43,-1,13,51,52,-1,52,51,53,-1,53,51,54,-1,53,54,55,-1,56,57,58,-1,58,57,59,-1,58,59,60,-1,60,59,61,-1,60,61,62,-1,62,61,63,-1,62,63,64,-1,64,63,65,-1,64,65,66,-1,66,65,67,-1,66,67,68,-1,68,67,69,-1,68,69,70,-1,70,69,71,-1,70,71,72,-1,72,71,73,-1,72,73,74,-1,74,73,75,-1,76,77,78,-1,79,76,80,-1,81,82,83,-1,5,4,84,-1,84,4,85,-1,84,85,83,-1,83,85,86,-1,83,86,81,-1,82,81,87,-1,87,81,88,-1,87,88,89,-1,89,88,90,-1,89,90,91,-1,91,90,92,-1,91,92,77,-1,93,94,95,-1,95,94,69,-1,95,69,96,-1,96,69,67,-1,96,67,97,-1,97,67,98,-1,97,98,93,-1,93,98,94,-1,86,99,100,-1,99,86,101,-1,101,86,85,-1,101,85,102,-1,102,85,103,-1,102,103,100,-1,100,103,104,-1,100,104,86,-1,105,106,107,-1,107,106,108,-1,107,108,34,-1,34,108,109,-1,34,109,32,-1,32,109,45,-1,32,45,110,-1,110,45,47,-1,94,111,69,-1,69,111,112,-1,69,112,71,-1,71,112,113,-1,71,113,73,-1,73,113,114,-1,115,116,117,-1,118,119,120,-1,121,122,123,-1,123,122,124,-1,123,124,125,-1,75,73,126,-1,126,73,114,-1,126,114,120,-1,120,114,127,-1,120,127,118,-1,119,128,120,-1,120,128,129,-1,120,129,130,-1,130,131,120,-1,120,131,132,-1,120,132,123,-1,123,132,133,-1,123,133,121,-1,125,134,123,-1,123,134,135,-1,123,135,136,-1,117,137,115,-1,115,137,75,-1,115,75,138,-1,138,75,126,-1,137,123,75,-1,75,123,136,-1,75,136,139,-1,139,136,140,-1,139,140,114,-1,114,140,141,-1,114,141,127,-1,142,11,139,-1,9,11,16,-1,16,11,142,-1,16,142,143,-1,111,105,112,-1,112,105,107,-1,112,107,113,-1,113,107,34,-1,113,34,114,-1,114,34,16,-1,114,16,144,-1,144,16,143,-1,144,145,114,-1,114,145,146,-1,114,146,139,-1,139,146,147,-1,139,147,142,-1,148,149,150,-1,150,149,146,-1,150,146,151,-1,151,146,145,-1,151,145,152,-1,152,145,153,-1,154,155,45,-1,5,79,3,-1,3,79,80,-1,3,80,156,-1,156,80,39,-1,156,154,3,-1,3,154,45,-1,3,45,4,-1,4,45,109,-1,4,109,85,-1,85,109,108,-1,85,108,103,-1,103,108,106,-1,155,157,45,-1,45,157,158,-1,45,158,39,-1,39,158,159,-1,39,159,156,-1,13,52,11,-1,11,52,160,-1,11,160,139,-1,139,160,57,-1,139,57,75,-1,75,57,56,-1,75,56,74,-1,76,78,80,-1,80,78,53,-1,80,53,39,-1,39,53,55,-1,39,55,37,-1,161,2,162,-1,162,2,1,-1,162,1,163,-1,163,1,59,-1,163,59,164,-1,164,59,57,-1,164,57,161,-1,165,166,167,-1,167,168,165,-1,165,168,169,-1,165,169,92,-1,77,92,78,-1,78,92,169,-1,78,169,170,-1,161,57,2,-1,2,57,160,-1,2,160,171,-1,171,160,52,-1,171,52,172,-1,172,52,53,-1,172,53,173,-1,173,53,78,-1,173,78,166,-1,166,78,170,-1,166,170,167,-1,0,2,174,-1,174,2,171,-1,174,171,175,-1,175,171,172,-1,175,172,176,-1,176,172,173,-1,176,173,177,-1,177,173,166,-1,177,166,178,-1,178,166,165,-1,178,165,179,-1,104,180,86,-1,86,180,181,-1,86,181,81,-1,81,181,182,-1,81,182,88,-1,88,182,183,-1,88,183,90,-1,90,183,184,-1,90,184,92,-1,92,184,185,-1,92,185,165,-1,165,185,186,-1,165,186,179,-1,179,186,187,-1,
        ]
    }
}
Shape{
    appearance Appearance {
        material  Material 	{
            diffuseColor 0.6666666666666666 0.6666666666666666 0.6666666666666666
            specularColor 0.4666666666666667 0.4666666666666667 0.4666666666666667
            ambientIntensity 0.6667
            transparency 0.0
            shininess 0.5
        }
    }
    geometry IndexedFaceSet {
        ccw TRUE
        solid FALSE
        coord DEF co Coordinate {
            point [
                1.7421 -3.2539 0.1181, 1.7421 -3.1358 0.1181, 2.2835 -3.2539 0.1181, 2.2835 -3.1358 0.1181, 1.7421 3.1358 0.1181, 1.7421 3.254 0.1181, 2.2835 3.1358 0.1181, 2.2835 3.254 0.1181, -0.7579 -3.2539 0.1181, -0.7579 -3.1358 0.1181, -0.2165 -3.2539 0.1181, -0.2165 -3.1358 0.1181, -0.7579 3.1358 0.1181, -0.7579 3.254 0.1181, -0.2165 3.1358 0.1181, -0.2165 3.254 0.1181, -3.2579 -3.2539 0.1181, -3.2579 -3.1358 0.1181, -2.7165 -3.2539 0.1181, -2.7165 -3.1358 0.1181, -3.2579 3.1358 0.1181, -3.2579 3.254 0.1181, -2.7165 3.1358 0.1181, -2.7165 3.254 0.1181
            ]
        }
        coordIndex [
            0,1,2,-1,2,1,3,-1,4,5,6,-1,6,5,7,-1,8,9,10,-1,10,9,11,-1,12,13,14,-1,14,13,15,-1,16,17,18,-1,18,17,19,-1,20,21,22,-1,22,21,23,-1,
        ]
    }
}
Shape{
    appearance Appearance {
        material  Material 	{
            diffuseColor 0.20784313725490197 0.20784313725490197 0.20784313725490197
            specularColor 0.01568627450980392 0.01568627450980392 0.01568627450980392
            ambientIntensity 0.298
            transparency 0.0
            shininess 0.5
        }
    }
    geometry IndexedFaceSet {
        ccw TRUE
        solid FALSE
        coord DEF co Coordinate {
            point [
                4.0551 -3.1496 3.3228, 4.0551 -2.0244 5.2717, 3.4154 -3.1496 3.3228, 3.4154 -2.0244 5.2717, -0.9547 -3.1496 3.3228, -0.9547 -2.0244 5.2717, -1.5846 -3.1496 3.3228, -1.5846 -2.0244 5.2717, 0.9154 -2.0244 5.2717, 0.9154 -3.1496 3.3228, 1.5453 -2.0244 5.2717, 1.5453 -3.1496 3.3228, 4.0551 -0.3197 6.2559, 4.0551 0.3197 6.2559, 3.4154 -0.3197 6.2559, 3.4154 0.3197 6.2559, -0.9547 -0.3197 6.2559, -0.9547 0.3197 6.2559, -1.5846 -0.3197 6.2559, -1.5846 0.3197 6.2559, 0.9154 0.3197 6.2559, 0.9154 -0.3197 6.2559, 1.5453 0.3197 6.2559, 1.5453 -0.3197 6.2559, 4.0551 2.0245 5.2717, 4.0551 3.1496 3.3228, 3.4154 2.0245 5.2717, 3.4154 3.1496 3.3228, -0.9547 2.0245 5.2717, -0.9547 3.1496 3.3228, -1.5846 2.0245 5.2717, -1.5846 3.1496 3.3228, 0.9154 3.1496 3.3228, 0.9154 2.0245 5.2717, 1.5453 3.1496 3.3228, 1.5453 2.0245 5.2717, 3.4154 -0.6615 6.226, 4.0551 -0.6615 6.226, 3.4154 -0.9929 6.1372, 4.0551 -0.9929 6.1372, 3.4154 -1.3039 5.9922, 4.0551 -1.3039 5.9922, 3.4154 -1.585 5.7954, 4.0551 -1.585 5.7954, 3.4154 -1.8276 5.5527, 4.0551 -1.8276 5.5527, -1.5846 -0.6615 6.226, -0.9547 -0.6615 6.226, -1.5846 -0.9929 6.1372, -0.9547 -0.9929 6.1372, -1.5846 -1.3039 5.9922, -0.9547 -1.3039 5.9922, -1.5846 -1.585 5.7954, -0.9547 -1.585 5.7954, -1.5846 -1.8276 5.5527, -0.9547 -1.8276 5.5527, 0.9154 -0.6615 6.226, 1.5453 -0.6615 6.226, 0.9154 -0.9929 6.1372, 1.5453 -0.9929 6.1372, 0.9154 -1.3039 5.9922, 1.5453 -1.3039 5.9922, 0.9154 -1.585 5.7954, 1.5453 -1.585 5.7954, 0.9154 -1.8276 5.5527, 1.5453 -1.8276 5.5527, 3.4154 1.8277 5.5527, 4.0551 1.8277 5.5527, 3.4154 1.585 5.7954, 4.0551 1.585 5.7954, 3.4154 1.304 5.9922, 4.0551 1.304 5.9922, 3.4154 0.993 6.1372, 4.0551 0.993 6.1372, 3.4154 0.6615 6.226, 4.0551 0.6615 6.226, -1.5846 1.8277 5.5527, -0.9547 1.8277 5.5527, -1.5846 1.585 5.7954, -0.9547 1.585 5.7954, -1.5846 1.304 5.9922, -0.9547 1.304 5.9922, -1.5846 0.993 6.1372, -0.9547 0.993 6.1372, -1.5846 0.6615 6.226, -0.9547 0.6615 6.226, 0.9154 1.8277 5.5527, 1.5453 1.8277 5.5527, 0.9154 1.585 5.7954, 1.5453 1.585 5.7954, 0.9154 1.304 5.9922, 1.5453 1.304 5.9922, 0.9154 0.993 6.1372, 1.5453 0.993 6.1372, 0.9154 0.6615 6.226, 1.5453 0.6615 6.226, 1.2303 -3.5827 0.1575, 4.0551 -3.5827 0.1575, 4.0551 -3.5827 3.3228, 1.6437 -3.5827 3.3228, 0.8169 -3.5827 3.3228, 0.394 -3.5827 0.1575, -4.2126 -3.5827 3.3228, -4.2126 -3.5827 0.1575, -3.7352 -3.5827 3.3228, -3.7352 -3.5827 0.1575, -1.6831 -3.5827 3.3228, -1.2697 -3.5827 0.1575, -0.8563 -3.5827 3.3228, -0.3314 -3.5827 0.1575, 0.0671 -3.5827 0.1575, -4.2126 3.5827 3.3228, -4.2126 3.5827 0.1575, -4.2126 3.2018 3.3228, -4.2126 1.9784 0.1575, -4.2126 3.1496 3.3228, -4.2126 -3.1496 3.3228, -4.2126 -1.5725 3.4081, -4.2126 -1.554 3.0681, -4.2126 -2.0244 5.2717, -4.2126 -1.8276 5.5527, -4.2126 -0.953 4.5765, -4.2126 -1.585 5.7954, -4.2126 -0.6612 4.7521, -4.2126 -3.2018 3.3228, -4.2126 -1.2002 4.3423, -4.2126 -1.3913 4.0605, -4.2126 -1.5174 3.7441, -4.2126 0.8119 1.9735, -4.2126 1.083 2.1795, -4.2126 1.3035 2.4391, -4.2126 1.463 2.7399, -4.2126 1.5541 3.0681, -4.2126 1.5725 3.4081, -4.2126 1.5174 3.7441, -4.2126 2.0245 5.2717, -4.2126 -1.4629 2.7399, -4.2126 -1.3034 2.4391, -4.2126 -3.4183 0.1575, -4.2126 -1.083 2.1795, -4.2126 -1.9544 0.1575, -4.2126 -0.8119 1.9735, -4.2126 -0.5545 0.1575, -4.2126 -0.3385 4.8608, -4.2126 -0.3197 6.2559, -4.2126 0.0 4.8976, -4.2126 0.3197 6.2559, -4.2126 0.3386 4.8608, -4.2126 -1.3039 5.9922, -4.2126 -0.9929 6.1372, -4.2126 -0.6615 6.226, -4.2126 -0.5028 1.8305, -4.2126 -0.1702 1.7573, -4.2126 -0.2064 0.1575, -4.2126 0.0 1.748, -4.2126 0.0816 0.1575, -4.2126 0.1703 1.7573, -4.2126 0.5029 1.8305, -4.2126 0.6615 6.226, -4.2126 0.993 6.1372, -4.2126 0.6613 4.7521, -4.2126 1.3914 4.0605, -4.2126 1.2003 4.3423, -4.2126 1.8277 5.5527, -4.2126 0.9531 4.5765, -4.2126 1.585 5.7954, -4.2126 1.304 5.9922, -3.7352 3.5827 0.1575, -3.7352 3.5827 3.3228, -1.2697 3.5827 0.1575, 4.0551 3.5827 3.3228, 4.0551 3.5827 0.1575, 1.6437 3.5827 3.3228, 1.2303 3.5827 0.1575, 0.8169 3.5827 3.3228, 0.394 3.5827 0.1575, -1.6831 3.5827 3.3228, -0.8563 3.5827 3.3228, -0.3314 3.5827 0.1575, 0.0671 3.5827 0.1575, 4.0551 1.9485 3.603, 4.0551 1.9663 3.2292, 4.0551 1.4877 4.6119, 4.0551 1.7048 4.3071, 4.0551 1.8603 3.9667, 4.0551 0.0816 0.1575, 4.0551 1.9784 0.1575, 4.0551 0.7316 1.4953, 4.0551 0.5546 5.2116, 4.0551 0.902 5.0725, 4.0551 1.7906 2.5051, 4.0551 1.913 2.8587, 4.0551 3.2018 3.3228, 4.0551 1.6035 2.181, 4.0551 1.3584 1.8982, 4.0551 1.0643 1.6668, 4.0551 0.3726 1.3899, 4.0551 0.0 1.3543, 4.0551 -0.2064 0.1575, 4.0551 -0.3725 1.3899, 4.0551 -0.5545 0.1575, 4.0551 -1.9544 0.1575, 4.0551 -0.7316 1.4953, 4.0551 -1.0642 1.6668, 4.0551 -1.3584 1.8982, 4.0551 -1.6035 2.181, 4.0551 -3.4183 0.1575, 4.0551 -3.2018 3.3228, 4.0551 -1.7906 2.5051, 4.0551 -1.913 2.8587, 4.0551 -1.9663 3.2292, 4.0551 -1.9484 3.603, 4.0551 -1.8602 3.9667, 4.0551 1.2169 4.8702, 4.0551 -1.7048 4.3071, 4.0551 -1.4877 4.6119, 4.0551 -1.2168 4.8702, 4.0551 -0.902 5.0725, 4.0551 0.1871 5.2824, 4.0551 0.0 5.2913, 4.0551 -0.1871 5.2824, 4.0551 -0.5546 5.2116, 0.9154 0.0 3.3228, 0.8169 0.0 3.3228, 0.8169 -3.2018 3.3228, 1.6437 -3.2018 3.3228, 1.5453 0.0 3.3228, 1.6437 0.0 3.3228, 1.6437 3.2018 3.3228, 0.8169 3.2018 3.3228, -0.9547 0.0 3.3228, -0.8563 0.0 3.3228, -0.8563 3.2018 3.3228, -1.6831 3.2018 3.3228, -1.5846 0.0 3.3228, -1.6831 0.0 3.3228, -1.6831 -3.2018 3.3228, -0.8563 -3.2018 3.3228, -3.4547 -3.1496 3.3228, -3.7352 -3.1496 3.3228, -3.7352 -3.2018 3.3228, -3.2579 -3.1358 3.3228, -1.7815 -3.1358 3.3228, -3.7352 3.2018 3.3228, -3.7352 3.1496 3.3228, -3.4547 3.1496 3.3228, -1.7815 3.1358 3.3228, -3.2579 3.1358 3.3228, -3.4547 0.0 3.3228, 3.2185 3.1358 3.3228, 1.7421 3.1358 3.3228, 3.2185 -3.2018 3.3228, 3.2185 -3.1358 3.3228, 3.4154 0.0 3.3228, 1.7421 -3.1358 3.3228, -1.7815 3.254 3.3228, -3.2579 3.254 3.3228, -3.2579 3.2018 3.3228, -1.7815 -3.2018 3.3228, -1.7815 -3.2539 3.3228, 0.7185 3.2018 3.3228, 0.7185 3.1358 3.3228, -0.7579 3.1358 3.3228, -0.7579 3.2018 3.3228, -0.7579 3.254 3.3228, 0.7185 -3.2018 3.3228, 0.7185 -3.2539 3.3228, 0.7185 -3.1358 3.3228, -0.7579 -3.1358 3.3228, 1.7421 3.2018 3.3228, 1.7421 3.254 3.3228, 1.7421 -3.2539 3.3228, 3.2185 -3.2539 3.3228, 0.7185 3.254 3.3228, -1.7815 3.2018 3.3228, -3.2579 -3.2018 3.3228, -3.2579 -3.2539 3.3228, 1.7421 -3.2018 3.3228, 3.2185 3.2018 3.3228, 3.2185 3.254 3.3228, -0.7579 -3.2539 3.3228, -0.7579 -3.2018 3.3228, -3.4547 -2.0244 5.2717, -3.4547 0.3197 6.2559, -3.4547 -0.3197 6.2559, -3.4547 2.0245 5.2717, -3.4547 -0.6615 6.226, -3.4547 -0.9929 6.1372, -3.4547 -1.3039 5.9922, -3.4547 -1.585 5.7954, -3.4547 -1.8276 5.5527, -3.4547 1.8277 5.5527, -3.4547 1.585 5.7954, -3.4547 1.304 5.9922, -3.4547 0.993 6.1372, -3.4547 0.6615 6.226, 5.0394 -0.1871 5.2824, 5.0394 0.0 5.2913, 5.0394 0.1871 5.2824, 5.0394 0.5546 5.2116, 5.0394 0.902 5.0725, 5.0394 1.2169 4.8702, 5.0394 1.4877 4.6119, 5.0394 1.7048 4.3071, 5.0394 1.8603 3.9667, 5.0394 1.9485 3.603, 5.0394 1.9663 3.2292, 5.0394 1.913 2.8587, 5.0394 1.7906 2.5051, 5.0394 1.6035 2.181, 5.0394 1.3584 1.8982, 5.0394 1.0643 1.6668, 5.0394 0.7316 1.4953, 5.0394 0.3726 1.3899, 5.0394 0.0 1.3543, 5.0394 -0.3725 1.3899, 5.0394 -0.7316 1.4953, 5.0394 -1.0642 1.6668, 5.0394 -1.3584 1.8982, 5.0394 -1.6035 2.181, 5.0394 -1.7906 2.5051, 5.0394 -1.913 2.8587, 5.0394 -1.9663 3.2292, 5.0394 -1.9484 3.603, 5.0394 -1.8602 3.9667, 5.0394 -1.7048 4.3071, 5.0394 -1.4877 4.6119, 5.0394 -1.2168 4.8702, 5.0394 -0.902 5.0725, 5.0394 -0.5546 5.2116, 5.2362 -0.4577 4.1156, 5.2362 -1.0951 4.7155, 5.2362 -0.6472 3.9701, 5.2362 -1.3389 4.483, 5.2362 -0.7927 3.7805, 5.2362 -1.5343 4.2087, 5.2362 -0.8841 3.5597, 5.2362 0.0 4.2382, 5.2362 -0.1684 5.0865, 5.2362 -0.2369 4.207, 5.2362 -0.4991 5.0227, 5.2362 -0.8118 4.8975, 5.2362 0.2369 2.4387, 5.2362 0.6585 1.6781, 5.2362 0.4577 2.5301, 5.2362 0.9578 1.8324, 5.2362 0.6473 2.6756, 5.2362 -0.4577 2.5301, 5.2362 -0.6584 1.6781, 5.2362 -0.2369 2.4387, 5.2362 -0.3353 1.5832, 5.2362 0.0 2.4075, 5.2362 0.0 1.5512, 5.2362 0.3353 1.5832, 5.2362 0.2369 4.207, 5.2362 0.1684 5.0865, 5.2362 0.0 5.0945, 5.2362 1.2226 2.0406, 5.2362 1.4432 2.2952, 5.2362 0.7927 2.8652, 5.2362 1.6116 2.5869, 5.2362 0.8842 3.0859, 5.2362 1.7217 2.9052, 5.2362 0.9154 3.3228, 5.2362 -0.7927 2.8652, 5.2362 -1.4431 2.2952, 5.2362 -0.6472 2.6756, 5.2362 -1.2226 2.0406, 5.2362 -0.9578 1.8324, 5.2362 1.7697 3.2385, 5.2362 1.7536 3.575, 5.2362 0.8842 3.5597, 5.2362 1.6742 3.9023, 5.2362 0.7927 3.7805, 5.2362 1.5343 4.2087, 5.2362 0.6473 3.9701, 5.2362 -1.6742 3.9023, 5.2362 -1.7536 3.575, 5.2362 -0.9153 3.3228, 5.2362 -1.7696 3.2385, 5.2362 -0.8841 3.0859, 5.2362 -1.7217 2.9052, 5.2362 -1.6115 2.5869, 5.2362 1.3389 4.483, 5.2362 1.0952 4.7155, 5.2362 0.4577 4.1156, 5.2362 0.8118 4.8975, 5.2362 0.4992 5.0227, -5.3937 -0.1702 1.7573, -5.3937 0.0 1.748, -5.3937 0.1703 1.7573, -5.3937 0.5029 1.8305, -5.3937 0.8119 1.9735, -5.3937 1.083 2.1795, -5.3937 1.3035 2.4391, -5.3937 1.463 2.7399, -5.3937 1.5541 3.0681, -5.3937 1.5725 3.4081, -5.3937 1.5174 3.7441, -5.3937 1.3914 4.0605, -5.3937 1.2003 4.3423, -5.3937 0.9531 4.5765, -5.3937 0.6613 4.7521, -5.3937 0.3386 4.8608, -5.3937 0.0 4.8976, -5.3937 -0.3385 4.8608, -5.3937 -0.6612 4.7521, -5.3937 -0.953 4.5765, -5.3937 -1.2002 4.3423, -5.3937 -1.3913 4.0605, -5.3937 -1.5174 3.7441, -5.3937 -1.5725 3.4081, -5.3937 -1.554 3.0681, -5.3937 -1.4629 2.7399, -5.3937 -1.3034 2.4391, -5.3937 -1.083 2.1795, -5.3937 -0.8119 1.9735, -5.3937 -0.5028 1.8305, -5.3937 0.0 3.3228, 3.6614 0.0 4.0413, 5.0394 0.0 4.0413, 3.6614 -0.1859 4.0169, 5.0394 -0.1859 4.0169, 3.6614 -0.3592 3.9451, 5.0394 -0.3592 3.9451, 3.6614 -0.508 3.8309, 5.0394 -0.508 3.8309, 3.6614 -0.6222 3.6821, 5.0394 -0.6222 3.6821, 3.6614 -0.694 3.5088, 5.0394 -0.694 3.5088, 3.6614 -0.7185 3.3228, 5.0394 -0.7185 3.3228, 3.6614 -0.694 3.1369, 5.0394 -0.694 3.1369, 3.6614 -0.6222 2.9636, 5.0394 -0.6222 2.9636, 3.6614 -0.508 2.8148, 5.0394 -0.508 2.8148, 3.6614 -0.3592 2.7006, 5.0394 -0.3592 2.7006, 3.6614 -0.1859 2.6288, 5.0394 -0.1859 2.6288, 3.6614 0.0 2.6043, 5.0394 0.0 2.6043, 3.6614 0.186 2.6288, 5.0394 0.186 2.6288, 3.6614 0.3593 2.7006, 5.0394 0.3593 2.7006, 3.6614 0.5081 2.8148, 5.0394 0.5081 2.8148, 3.6614 0.6223 2.9636, 5.0394 0.6223 2.9636, 3.6614 0.694 3.1369, 5.0394 0.694 3.1369, 3.6614 0.7185 3.3228, 5.0394 0.7185 3.3228, 3.6614 0.694 3.5088, 5.0394 0.694 3.5088, 3.6614 0.6223 3.6821, 5.0394 0.6223 3.6821, 3.6614 0.5081 3.8309, 5.0394 0.5081 3.8309, 3.6614 0.3593 3.9451, 5.0394 0.3593 3.9451, 3.6614 0.186 4.0169, 5.0394 0.186 4.0169, 3.6614 0.0 3.3228
            ]
        }
        coordIndex [
            0,1,2,-1,2,1,3,-1,4,5,6,-1,6,5,7,-1,8,9,10,-1,10,9,11,-1,12,13,14,-1,14,13,15,-1,16,17,18,-1,18,17,19,-1,20,21,22,-1,22,21,23,-1,24,25,26,-1,26,25,27,-1,28,29,30,-1,30,29,31,-1,32,33,34,-1,34,33,35,-1,12,14,36,-1,12,36,37,-1,37,36,38,-1,37,38,39,-1,39,38,40,-1,39,40,41,-1,41,40,42,-1,41,42,43,-1,43,42,44,-1,43,44,45,-1,45,44,3,-1,45,3,1,-1,16,18,46,-1,16,46,47,-1,47,46,48,-1,47,48,49,-1,49,48,50,-1,49,50,51,-1,51,50,52,-1,51,52,53,-1,53,52,54,-1,53,54,55,-1,55,54,7,-1,55,7,5,-1,23,21,56,-1,23,56,57,-1,57,56,58,-1,57,58,59,-1,59,58,60,-1,59,60,61,-1,61,60,62,-1,61,62,63,-1,63,62,64,-1,63,64,65,-1,65,64,8,-1,65,8,10,-1,24,26,66,-1,24,66,67,-1,67,66,68,-1,67,68,69,-1,69,68,70,-1,69,70,71,-1,71,70,72,-1,71,72,73,-1,73,72,74,-1,73,74,75,-1,75,74,15,-1,75,15,13,-1,28,30,76,-1,28,76,77,-1,77,76,78,-1,77,78,79,-1,79,78,80,-1,79,80,81,-1,81,80,82,-1,81,82,83,-1,83,82,84,-1,83,84,85,-1,85,84,19,-1,85,19,17,-1,35,33,86,-1,35,86,87,-1,87,86,88,-1,87,88,89,-1,89,88,90,-1,89,90,91,-1,91,90,92,-1,91,92,93,-1,93,92,94,-1,93,94,95,-1,95,94,20,-1,95,20,22,-1,96,97,98,-1,98,99,96,-1,96,99,100,-1,96,100,101,-1,102,103,104,-1,104,103,105,-1,104,105,106,-1,106,105,107,-1,106,107,108,-1,108,107,109,-1,108,109,100,-1,100,109,110,-1,100,110,101,-1,111,112,113,-1,113,112,114,-1,113,114,115,-1,116,117,118,-1,119,120,121,-1,121,120,122,-1,121,122,123,-1,103,102,118,-1,118,102,124,-1,118,124,116,-1,121,125,119,-1,119,125,126,-1,119,126,116,-1,116,126,127,-1,116,127,117,-1,128,129,114,-1,114,129,130,-1,114,130,115,-1,115,130,131,-1,115,131,132,-1,132,133,115,-1,115,133,134,-1,115,134,135,-1,118,136,103,-1,103,136,137,-1,103,137,138,-1,138,137,139,-1,138,139,140,-1,140,139,141,-1,140,141,142,-1,143,144,145,-1,145,144,146,-1,145,146,147,-1,122,148,123,-1,123,148,149,-1,123,149,143,-1,143,149,150,-1,143,150,144,-1,141,151,142,-1,142,151,152,-1,142,152,153,-1,153,152,154,-1,153,154,155,-1,155,154,156,-1,155,156,114,-1,114,156,157,-1,114,157,128,-1,146,158,147,-1,147,158,159,-1,147,159,160,-1,134,161,135,-1,135,161,162,-1,135,162,163,-1,163,162,164,-1,163,164,165,-1,165,164,160,-1,165,160,166,-1,166,160,159,-1,112,111,167,-1,167,111,168,-1,167,168,169,-1,170,171,172,-1,172,171,173,-1,172,173,174,-1,174,173,175,-1,168,176,169,-1,169,176,177,-1,169,177,178,-1,178,177,174,-1,178,174,179,-1,179,174,175,-1,180,181,25,-1,182,183,25,-1,25,183,184,-1,25,184,180,-1,185,186,187,-1,188,189,71,-1,190,171,191,-1,191,171,170,-1,191,170,181,-1,181,170,192,-1,181,192,25,-1,190,193,171,-1,171,193,194,-1,171,194,186,-1,186,194,195,-1,186,195,187,-1,187,196,185,-1,185,196,197,-1,185,197,198,-1,198,197,199,-1,198,199,200,-1,200,199,201,-1,199,202,201,-1,201,202,203,-1,201,203,204,-1,204,205,201,-1,201,205,0,-1,201,0,206,-1,206,0,207,-1,206,207,97,-1,97,207,98,-1,205,208,0,-1,0,208,209,-1,0,209,210,-1,210,211,0,-1,0,211,212,-1,0,212,1,-1,71,189,69,-1,69,189,213,-1,69,213,67,-1,182,25,213,-1,213,25,24,-1,213,24,67,-1,212,214,1,-1,1,214,215,-1,1,215,45,-1,45,215,216,-1,45,216,43,-1,43,216,217,-1,71,73,188,-1,188,73,75,-1,188,75,218,-1,218,75,13,-1,218,13,219,-1,219,13,12,-1,219,12,220,-1,220,12,37,-1,220,37,221,-1,221,37,39,-1,221,39,217,-1,217,39,41,-1,217,41,43,-1,222,223,9,-1,9,223,224,-1,9,224,11,-1,11,224,225,-1,11,225,226,-1,226,225,227,-1,226,227,34,-1,34,227,228,-1,34,228,32,-1,32,228,229,-1,32,229,222,-1,230,231,29,-1,29,231,232,-1,29,232,31,-1,31,232,233,-1,31,233,234,-1,234,233,235,-1,234,235,6,-1,6,235,236,-1,6,236,4,-1,4,236,237,-1,238,239,240,-1,241,242,235,-1,243,244,245,-1,246,247,248,-1,115,244,113,-1,113,244,243,-1,113,243,111,-1,27,25,192,-1,249,250,227,-1,251,2,252,-1,252,2,253,-1,252,253,254,-1,255,176,256,-1,256,176,168,-1,256,168,257,-1,235,242,236,-1,236,242,258,-1,236,258,259,-1,229,260,261,-1,222,229,223,-1,223,229,261,-1,223,261,231,-1,231,261,262,-1,231,262,232,-1,232,262,263,-1,232,263,264,-1,224,265,266,-1,265,224,267,-1,267,224,223,-1,267,223,268,-1,268,223,231,-1,268,231,237,-1,237,231,230,-1,237,230,4,-1,227,250,228,-1,228,250,269,-1,228,269,270,-1,271,99,272,-1,272,99,98,-1,272,98,251,-1,251,98,207,-1,251,207,2,-1,2,207,0,-1,248,247,245,-1,245,247,257,-1,245,257,243,-1,243,257,168,-1,243,168,111,-1,102,104,124,-1,124,104,240,-1,124,240,116,-1,116,240,239,-1,273,174,264,-1,264,174,177,-1,264,177,232,-1,232,177,176,-1,232,176,233,-1,233,176,255,-1,255,274,233,-1,233,274,246,-1,233,246,235,-1,235,246,248,-1,235,248,241,-1,241,248,238,-1,241,238,275,-1,275,238,240,-1,275,240,276,-1,276,240,104,-1,276,104,259,-1,259,104,106,-1,259,106,236,-1,236,106,108,-1,236,108,237,-1,271,277,225,-1,225,277,254,-1,225,254,227,-1,227,254,253,-1,227,253,249,-1,249,253,27,-1,249,27,278,-1,278,27,192,-1,278,192,279,-1,279,192,170,-1,279,170,270,-1,270,170,172,-1,270,172,228,-1,228,172,174,-1,228,174,229,-1,229,174,273,-1,229,273,260,-1,271,225,99,-1,99,225,224,-1,99,224,100,-1,100,224,266,-1,100,266,108,-1,108,266,280,-1,108,280,237,-1,237,280,281,-1,237,281,268,-1,238,282,239,-1,239,282,119,-1,239,119,116,-1,146,144,283,-1,283,144,284,-1,115,135,244,-1,244,135,285,-1,244,285,245,-1,284,144,150,-1,284,150,286,-1,286,150,149,-1,286,149,287,-1,287,149,148,-1,287,148,288,-1,288,148,122,-1,288,122,289,-1,289,122,120,-1,289,120,290,-1,290,120,119,-1,290,119,282,-1,285,135,163,-1,285,163,291,-1,291,163,165,-1,291,165,292,-1,292,165,166,-1,292,166,293,-1,293,166,159,-1,293,159,294,-1,294,159,158,-1,294,158,295,-1,295,158,146,-1,295,146,283,-1,56,21,222,-1,222,21,20,-1,222,20,94,-1,9,8,222,-1,222,8,64,-1,222,64,62,-1,94,92,222,-1,222,92,90,-1,222,90,88,-1,88,86,222,-1,222,86,33,-1,222,33,32,-1,62,60,222,-1,222,60,58,-1,222,58,56,-1,5,4,230,-1,5,230,55,-1,85,17,230,-1,17,16,230,-1,230,16,47,-1,230,47,49,-1,49,51,230,-1,230,51,53,-1,230,53,55,-1,29,28,230,-1,230,28,77,-1,230,77,79,-1,79,81,230,-1,230,81,83,-1,230,83,85,-1,234,19,84,-1,84,82,234,-1,234,82,80,-1,234,80,78,-1,78,76,234,-1,234,76,30,-1,234,30,31,-1,6,7,234,-1,234,7,54,-1,48,46,234,-1,234,46,18,-1,234,18,19,-1,54,52,234,-1,234,52,50,-1,234,50,48,-1,283,284,248,-1,282,238,248,-1,283,248,295,-1,284,286,248,-1,248,286,287,-1,248,287,288,-1,288,289,248,-1,248,289,290,-1,248,290,282,-1,245,285,248,-1,248,285,291,-1,248,291,292,-1,292,293,248,-1,248,293,294,-1,248,294,295,-1,36,14,253,-1,253,14,15,-1,253,15,74,-1,2,3,253,-1,253,3,44,-1,253,44,42,-1,74,72,253,-1,253,72,70,-1,253,70,68,-1,68,66,253,-1,253,66,26,-1,253,26,27,-1,42,40,253,-1,253,40,38,-1,253,38,36,-1,10,11,226,-1,95,22,226,-1,226,22,23,-1,34,35,226,-1,226,35,87,-1,226,87,89,-1,89,91,226,-1,226,91,93,-1,226,93,95,-1,23,57,226,-1,226,57,59,-1,226,59,61,-1,61,63,226,-1,226,63,65,-1,226,65,10,-1,296,297,219,-1,219,297,218,-1,297,298,218,-1,218,298,299,-1,218,299,188,-1,188,299,300,-1,188,300,189,-1,189,300,301,-1,189,301,213,-1,213,301,302,-1,213,302,182,-1,182,302,303,-1,182,303,183,-1,183,303,304,-1,183,304,184,-1,184,304,305,-1,184,305,180,-1,180,305,306,-1,180,306,181,-1,181,306,307,-1,181,307,191,-1,191,307,308,-1,191,308,190,-1,190,308,309,-1,190,309,193,-1,193,309,310,-1,193,310,194,-1,194,310,311,-1,194,311,195,-1,195,311,312,-1,195,312,187,-1,187,312,313,-1,187,313,196,-1,196,313,314,-1,196,314,197,-1,197,314,315,-1,197,315,199,-1,199,315,316,-1,199,316,202,-1,202,316,317,-1,202,317,203,-1,203,317,318,-1,203,318,204,-1,204,318,319,-1,204,319,205,-1,205,319,320,-1,205,320,208,-1,208,320,321,-1,208,321,209,-1,209,321,322,-1,209,322,210,-1,210,322,323,-1,210,323,211,-1,211,323,324,-1,211,324,212,-1,212,324,325,-1,212,325,214,-1,214,325,326,-1,214,326,215,-1,215,326,327,-1,215,327,216,-1,216,327,328,-1,216,328,217,-1,217,328,329,-1,217,329,221,-1,221,329,296,-1,221,296,220,-1,220,296,219,-1,330,331,332,-1,332,331,333,-1,332,333,334,-1,334,333,335,-1,334,335,336,-1,337,338,339,-1,339,338,340,-1,339,340,330,-1,330,340,341,-1,330,341,331,-1,342,343,344,-1,344,343,345,-1,344,345,346,-1,347,348,349,-1,349,348,350,-1,349,350,351,-1,351,350,352,-1,351,352,342,-1,342,352,353,-1,342,353,343,-1,354,355,337,-1,337,355,356,-1,337,356,338,-1,345,357,346,-1,346,357,358,-1,346,358,359,-1,359,358,360,-1,359,360,361,-1,361,360,362,-1,361,362,363,-1,364,365,366,-1,366,365,367,-1,366,367,347,-1,347,367,368,-1,347,368,348,-1,362,369,363,-1,363,369,370,-1,363,370,371,-1,371,370,372,-1,371,372,373,-1,373,372,374,-1,373,374,375,-1,335,376,336,-1,336,376,377,-1,336,377,378,-1,378,377,379,-1,378,379,380,-1,380,379,381,-1,380,381,364,-1,364,381,382,-1,364,382,365,-1,374,383,375,-1,375,383,384,-1,375,384,385,-1,385,384,386,-1,385,386,354,-1,354,386,387,-1,354,387,355,-1,388,389,154,-1,154,389,156,-1,389,390,156,-1,156,390,391,-1,156,391,157,-1,157,391,392,-1,157,392,128,-1,128,392,393,-1,128,393,129,-1,129,393,394,-1,129,394,130,-1,130,394,395,-1,130,395,131,-1,131,395,396,-1,131,396,132,-1,132,396,397,-1,132,397,133,-1,133,397,398,-1,133,398,134,-1,134,398,399,-1,134,399,161,-1,161,399,400,-1,161,400,162,-1,162,400,401,-1,162,401,164,-1,164,401,402,-1,164,402,160,-1,160,402,403,-1,160,403,147,-1,147,403,404,-1,147,404,145,-1,145,404,405,-1,145,405,143,-1,143,405,406,-1,143,406,123,-1,123,406,407,-1,123,407,121,-1,121,407,408,-1,121,408,125,-1,125,408,409,-1,125,409,126,-1,126,409,410,-1,126,410,127,-1,127,410,411,-1,127,411,117,-1,117,411,412,-1,117,412,118,-1,118,412,413,-1,118,413,136,-1,136,413,414,-1,136,414,137,-1,137,414,415,-1,137,415,139,-1,139,415,416,-1,139,416,141,-1,141,416,417,-1,141,417,151,-1,151,417,388,-1,151,388,152,-1,152,388,154,-1,391,390,418,-1,418,390,389,-1,418,389,388,-1,394,393,418,-1,418,393,392,-1,418,392,391,-1,397,396,418,-1,418,396,395,-1,418,395,394,-1,400,399,418,-1,418,399,398,-1,418,398,397,-1,403,402,418,-1,418,402,401,-1,418,401,400,-1,406,405,418,-1,418,405,404,-1,418,404,403,-1,409,408,418,-1,418,408,407,-1,418,407,406,-1,412,411,418,-1,418,411,410,-1,418,410,409,-1,415,414,418,-1,418,414,413,-1,418,413,412,-1,388,417,418,-1,418,417,416,-1,418,416,415,-1,419,420,421,-1,421,420,422,-1,421,422,423,-1,423,422,424,-1,423,424,425,-1,425,424,426,-1,425,426,427,-1,427,426,428,-1,427,428,429,-1,429,428,430,-1,429,430,431,-1,431,430,432,-1,431,432,433,-1,433,432,434,-1,433,434,435,-1,435,434,436,-1,435,436,437,-1,437,436,438,-1,437,438,439,-1,439,438,440,-1,439,440,441,-1,441,440,442,-1,441,442,443,-1,443,442,444,-1,443,444,445,-1,445,444,446,-1,445,446,447,-1,447,446,448,-1,447,448,449,-1,449,448,450,-1,449,450,451,-1,451,450,452,-1,451,452,453,-1,453,452,454,-1,453,454,455,-1,455,454,456,-1,455,456,457,-1,457,456,458,-1,457,458,459,-1,459,458,460,-1,459,460,461,-1,461,460,462,-1,461,462,463,-1,463,462,464,-1,463,464,465,-1,465,464,466,-1,465,466,419,-1,419,466,420,-1,463,465,467,-1,467,465,419,-1,467,419,421,-1,457,459,467,-1,467,459,461,-1,467,461,463,-1,451,453,467,-1,467,453,455,-1,467,455,457,-1,445,447,467,-1,467,447,449,-1,467,449,451,-1,439,441,467,-1,467,441,443,-1,467,443,445,-1,433,435,467,-1,467,435,437,-1,467,437,439,-1,427,429,467,-1,467,429,431,-1,467,431,433,-1,421,423,467,-1,467,423,425,-1,467,425,427,-1,338,356,297,-1,297,356,298,-1,356,355,298,-1,298,355,387,-1,298,387,299,-1,299,387,386,-1,299,386,300,-1,300,386,384,-1,300,384,301,-1,301,384,383,-1,301,383,302,-1,302,383,374,-1,302,374,303,-1,303,374,372,-1,303,372,304,-1,304,372,370,-1,304,370,305,-1,305,370,369,-1,305,369,306,-1,306,369,362,-1,306,362,307,-1,307,362,360,-1,307,360,308,-1,308,360,358,-1,308,358,309,-1,309,358,357,-1,309,357,310,-1,310,357,345,-1,310,345,311,-1,311,345,343,-1,311,343,312,-1,312,343,353,-1,312,353,313,-1,313,353,352,-1,313,352,314,-1,314,352,350,-1,314,350,315,-1,315,350,348,-1,315,348,316,-1,316,348,368,-1,316,368,317,-1,317,368,367,-1,317,367,318,-1,318,367,365,-1,318,365,319,-1,319,365,382,-1,319,382,320,-1,320,382,381,-1,320,381,321,-1,321,381,379,-1,321,379,322,-1,322,379,377,-1,322,377,323,-1,323,377,376,-1,323,376,324,-1,324,376,335,-1,324,335,325,-1,325,335,333,-1,325,333,326,-1,326,333,331,-1,326,331,327,-1,327,331,341,-1,327,341,328,-1,328,341,340,-1,328,340,329,-1,329,340,338,-1,329,338,296,-1,296,338,297,-1,422,339,424,-1,424,339,330,-1,424,330,426,-1,426,330,332,-1,426,332,428,-1,428,332,334,-1,428,334,430,-1,430,334,336,-1,430,336,432,-1,432,336,378,-1,432,378,434,-1,434,378,380,-1,434,380,436,-1,436,380,364,-1,436,364,438,-1,438,364,366,-1,438,366,440,-1,440,366,347,-1,440,347,442,-1,442,347,349,-1,442,349,444,-1,444,349,351,-1,444,351,446,-1,446,351,342,-1,446,342,448,-1,448,342,344,-1,448,344,450,-1,450,344,346,-1,450,346,452,-1,452,346,359,-1,452,359,454,-1,454,359,361,-1,454,361,456,-1,456,361,363,-1,456,363,458,-1,458,363,371,-1,458,371,460,-1,460,371,373,-1,460,373,462,-1,462,373,375,-1,462,375,464,-1,464,375,385,-1,464,385,466,-1,466,385,354,-1,466,354,420,-1,420,354,337,-1,420,337,422,-1,422,337,339,-1,
        ]
    }
}
Shape{
    appearance Appearance {
        material  Material 	{
            diffuseColor 0.6666666666666666 0.6666666666666666 0.6666666666666666
            specularColor 0.4666666666666667 0.4666666666666667 0.4666666666666667
            ambientIntensity 0.6667
            transparency 0.0
            shininess 0.5
        }
    }
    geometry IndexedFaceSet {
        ccw TRUE
        solid FALSE
        coord DEF co Coordinate {
            point [
                -3.2579 -3.2539 4.8976, -1.7815 -3.2539 4.8976, -1.7815 -3.2385 5.0148, -3.2579 -3.2385 5.0148, -1.7815 -3.1933 5.124, -3.2579 -3.1933 5.124, -1.7815 -3.1213 5.2178, -3.2579 -3.1213 5.2178, -1.7815 -3.0275 5.2897, -3.2579 -3.0275 5.2897, -1.7815 -2.9183 5.335, -3.2579 -2.9183 5.335, -1.7815 -2.8012 5.3504, -3.2579 -2.8012 5.3504, -3.2579 2.8012 5.3504, -1.7815 2.8012 5.3504, -1.7815 2.9184 5.335, -3.2579 2.9184 5.335, -1.7815 3.0276 5.2897, -3.2579 3.0276 5.2897, -1.7815 3.1213 5.2178, -3.2579 3.1213 5.2178, -1.7815 3.1933 5.124, -3.2579 3.1933 5.124, -1.7815 3.2385 5.0148, -3.2579 3.2385 5.0148, -1.7815 3.254 4.8976, -3.2579 3.254 4.8976, -3.2579 3.1358 4.8976, -1.7815 3.1358 4.8976, -3.2579 3.1244 4.9843, -1.7815 3.1244 4.9843, -3.2579 3.091 5.065, -1.7815 3.091 5.065, -3.2579 3.0378 5.1343, -1.7815 3.0378 5.1343, -3.2579 2.9685 5.1875, -1.7815 2.9685 5.1875, -3.2579 2.8878 5.2209, -1.7815 2.8878 5.2209, -3.2579 2.8012 5.2323, -1.7815 2.8012 5.2323, -3.2579 -2.8012 5.2323, -1.7815 -2.8012 5.2323, -3.2579 -2.8878 5.2209, -1.7815 -2.8878 5.2209, -3.2579 -2.9685 5.1875, -1.7815 -2.9685 5.1875, -3.2579 -3.0378 5.1343, -1.7815 -3.0378 5.1343, -3.2579 -3.091 5.065, -1.7815 -3.091 5.065, -3.2579 -3.1244 4.9843, -1.7815 -3.1244 4.9843, -3.2579 -3.1358 4.8976, -1.7815 -3.1358 4.8976, -1.7815 3.2018 3.3228, -1.7815 3.254 3.3228, -1.7815 -3.2018 3.3228, -1.7815 -3.1358 3.3228, -1.7815 3.1358 3.3228, -1.7815 -3.2539 3.3228, -3.2579 -3.2018 3.3228, -3.2579 -3.2539 3.3228, -3.2579 3.2018 3.3228, -3.2579 3.1358 3.3228, -3.2579 -3.1358 3.3228, -3.2579 3.254 3.3228, -1.7815 3.254 0.1181, -1.7815 3.1358 0.1181, -2.3228 3.254 0.1181, -2.3228 3.1358 0.1181, -3.2579 3.254 0.1575, -3.2579 3.254 0.1181, -3.2579 3.1358 0.1575, -3.2579 3.1358 0.1181, -1.7815 3.1358 0.1575, -1.7815 3.254 0.1575, -2.7165 3.1358 0.1181, -2.3228 3.1358 -1.4567, -2.7165 3.1358 -1.4567, -2.7165 3.254 0.1181, -2.7165 3.254 -1.4567, -2.3228 3.254 -1.4567, -3.2579 -3.1358 0.1575, -3.2579 -3.1358 0.1181, -3.2579 -3.2539 0.1575, -3.2579 -3.2539 0.1181, -1.7815 -3.2539 0.1181, -1.7815 -3.1358 0.1181, -1.7815 -3.2539 0.1575, -1.7815 -3.1358 0.1575, -2.3228 -3.1358 0.1181, -2.7165 -3.1358 0.1181, -2.7165 -3.1358 -1.4567, -2.3228 -3.1358 -1.4567, -2.3228 -3.2539 0.1181, -2.7165 -3.2539 0.1181, -2.3228 -3.2539 -1.4567, -2.7165 -3.2539 -1.4567, -0.7579 -3.2539 4.8976, 0.7185 -3.2539 4.8976, 0.7185 -3.2385 5.0148, -0.7579 -3.2385 5.0148, 0.7185 -3.1933 5.124, -0.7579 -3.1933 5.124, 0.7185 -3.1213 5.2178, -0.7579 -3.1213 5.2178, 0.7185 -3.0275 5.2897, -0.7579 -3.0275 5.2897, 0.7185 -2.9183 5.335, -0.7579 -2.9183 5.335, 0.7185 -2.8012 5.3504, -0.7579 -2.8012 5.3504, -0.7579 2.8012 5.3504, 0.7185 2.8012 5.3504, 0.7185 2.9184 5.335, -0.7579 2.9184 5.335, 0.7185 3.0276 5.2897, -0.7579 3.0276 5.2897, 0.7185 3.1213 5.2178, -0.7579 3.1213 5.2178, 0.7185 3.1933 5.124, -0.7579 3.1933 5.124, 0.7185 3.2385 5.0148, -0.7579 3.2385 5.0148, 0.7185 3.254 4.8976, -0.7579 3.254 4.8976, -0.7579 3.1358 4.8976, 0.7185 3.1358 4.8976, -0.7579 3.1244 4.9843, 0.7185 3.1244 4.9843, -0.7579 3.091 5.065, 0.7185 3.091 5.065, -0.7579 3.0378 5.1343, 0.7185 3.0378 5.1343, -0.7579 2.9685 5.1875, 0.7185 2.9685 5.1875, -0.7579 2.8878 5.2209, 0.7185 2.8878 5.2209, -0.7579 2.8012 5.2323, 0.7185 2.8012 5.2323, -0.7579 -2.8012 5.2323, 0.7185 -2.8012 5.2323, -0.7579 -2.8878 5.2209, 0.7185 -2.8878 5.2209, -0.7579 -2.9685 5.1875, 0.7185 -2.9685 5.1875, -0.7579 -3.0378 5.1343, 0.7185 -3.0378 5.1343, -0.7579 -3.091 5.065, 0.7185 -3.091 5.065, -0.7579 -3.1244 4.9843, 0.7185 -3.1244 4.9843, -0.7579 -3.1358 4.8976, 0.7185 -3.1358 4.8976, 0.7185 3.2018 3.3228, 0.7185 3.254 3.3228, 0.7185 -3.2018 3.3228, 0.7185 -3.1358 3.3228, 0.7185 3.1358 3.3228, 0.7185 -3.2539 3.3228, -0.7579 -3.2018 3.3228, -0.7579 -3.2539 3.3228, -0.7579 3.2018 3.3228, -0.7579 3.1358 3.3228, -0.7579 -3.1358 3.3228, -0.7579 3.254 3.3228, 0.7185 3.254 0.1181, 0.7185 3.1358 0.1181, 0.1772 3.254 0.1181, 0.1772 3.1358 0.1181, -0.7579 3.254 0.1575, -0.7579 3.254 0.1181, -0.7579 3.1358 0.1575, -0.7579 3.1358 0.1181, 0.7185 3.1358 0.1575, 0.7185 3.254 0.1575, -0.3314 3.1358 0.1575, -0.2165 3.1358 0.1181, 0.0671 3.1358 0.1575, -0.2165 3.1358 -1.4567, 0.1772 3.1358 -1.4567, 0.394 3.1358 0.1575, 0.394 3.254 0.1575, 0.0671 3.254 0.1575, 0.1772 3.254 -1.4567, -0.2165 3.254 0.1181, -0.2165 3.254 -1.4567, -0.3314 3.254 0.1575, -0.7579 -3.1358 0.1575, -0.7579 -3.1358 0.1181, -0.7579 -3.2539 0.1575, -0.7579 -3.2539 0.1181, 0.7185 -3.2539 0.1181, 0.7185 -3.1358 0.1181, 0.7185 -3.2539 0.1575, 0.7185 -3.1358 0.1575, 0.394 -3.1358 0.1575, 0.1772 -3.1358 0.1181, 0.0671 -3.1358 0.1575, 0.1772 -3.1358 -1.4567, -0.2165 -3.1358 0.1181, -0.2165 -3.1358 -1.4567, -0.3314 -3.1358 0.1575, 0.1772 -3.2539 0.1181, -0.3314 -3.2539 0.1575, -0.2165 -3.2539 0.1181, 0.0671 -3.2539 0.1575, -0.2165 -3.2539 -1.4567, 0.1772 -3.2539 -1.4567, 0.394 -3.2539 0.1575, 1.7421 -3.2539 4.8976, 3.2185 -3.2539 4.8976, 3.2185 -3.2385 5.0148, 1.7421 -3.2385 5.0148, 3.2185 -3.1933 5.124, 1.7421 -3.1933 5.124, 3.2185 -3.1213 5.2178, 1.7421 -3.1213 5.2178, 3.2185 -3.0275 5.2897, 1.7421 -3.0275 5.2897, 3.2185 -2.9183 5.335, 1.7421 -2.9183 5.335, 3.2185 -2.8012 5.3504, 1.7421 -2.8012 5.3504, 1.7421 2.8012 5.3504, 3.2185 2.8012 5.3504, 3.2185 2.9184 5.335, 1.7421 2.9184 5.335, 3.2185 3.0276 5.2897, 1.7421 3.0276 5.2897, 3.2185 3.1213 5.2178, 1.7421 3.1213 5.2178, 3.2185 3.1933 5.124, 1.7421 3.1933 5.124, 3.2185 3.2385 5.0148, 1.7421 3.2385 5.0148, 3.2185 3.254 4.8976, 1.7421 3.254 4.8976, 1.7421 3.1358 4.8976, 3.2185 3.1358 4.8976, 1.7421 3.1244 4.9843, 3.2185 3.1244 4.9843, 1.7421 3.091 5.065, 3.2185 3.091 5.065, 1.7421 3.0378 5.1343, 3.2185 3.0378 5.1343, 1.7421 2.9685 5.1875, 3.2185 2.9685 5.1875, 1.7421 2.8878 5.2209, 3.2185 2.8878 5.2209, 1.7421 2.8012 5.2323, 3.2185 2.8012 5.2323, 1.7421 -2.8012 5.2323, 3.2185 -2.8012 5.2323, 1.7421 -2.8878 5.2209, 3.2185 -2.8878 5.2209, 1.7421 -2.9685 5.1875, 3.2185 -2.9685 5.1875, 1.7421 -3.0378 5.1343, 3.2185 -3.0378 5.1343, 1.7421 -3.091 5.065, 3.2185 -3.091 5.065, 1.7421 -3.1244 4.9843, 3.2185 -3.1244 4.9843, 1.7421 -3.1358 4.8976, 3.2185 -3.1358 4.8976, 3.2185 3.2018 3.3228, 3.2185 3.254 3.3228, 3.2185 -3.2018 3.3228, 3.2185 -3.1358 3.3228, 3.2185 3.1358 3.3228, 3.2185 -3.2539 3.3228, 1.7421 -3.2018 3.3228, 1.7421 -3.2539 3.3228, 1.7421 3.2018 3.3228, 1.7421 3.1358 3.3228, 1.7421 -3.1358 3.3228, 1.7421 3.254 3.3228, 3.2185 3.254 0.1181, 3.2185 3.1358 0.1181, 2.6772 3.254 0.1181, 2.6772 3.1358 0.1181, 1.7421 3.254 0.1575, 1.7421 3.254 0.1181, 1.7421 3.1358 0.1575, 1.7421 3.1358 0.1181, 3.2185 3.1358 0.1575, 3.2185 3.254 0.1575, 2.2835 3.1358 0.1181, 2.6772 3.1358 -1.4567, 2.2835 3.1358 -1.4567, 2.2835 3.254 0.1181, 2.2835 3.254 -1.4567, 2.6772 3.254 -1.4567, 1.7421 -3.1358 0.1575, 1.7421 -3.1358 0.1181, 1.7421 -3.2539 0.1575, 1.7421 -3.2539 0.1181, 3.2185 -3.2539 0.1181, 3.2185 -3.1358 0.1181, 3.2185 -3.2539 0.1575, 3.2185 -3.1358 0.1575, 2.6772 -3.1358 0.1181, 2.2835 -3.1358 0.1181, 2.2835 -3.1358 -1.4567, 2.6772 -3.1358 -1.4567, 2.6772 -3.2539 0.1181, 2.2835 -3.2539 0.1181, 2.6772 -3.2539 -1.4567, 2.2835 -3.2539 -1.4567
            ]
        }
        coordIndex [
            0,1,2,-1,0,2,3,-1,3,2,4,-1,3,4,5,-1,5,4,6,-1,5,6,7,-1,7,6,8,-1,7,8,9,-1,9,8,10,-1,9,10,11,-1,11,10,12,-1,11,12,13,-1,14,13,15,-1,15,13,12,-1,14,15,16,-1,14,16,17,-1,17,16,18,-1,17,18,19,-1,19,18,20,-1,19,20,21,-1,21,20,22,-1,21,22,23,-1,23,22,24,-1,23,24,25,-1,25,24,26,-1,25,26,27,-1,28,29,30,-1,30,29,31,-1,30,31,32,-1,32,31,33,-1,32,33,34,-1,34,33,35,-1,34,35,36,-1,36,35,37,-1,36,37,38,-1,38,37,39,-1,38,39,40,-1,40,39,41,-1,42,40,43,-1,43,40,41,-1,42,43,44,-1,44,43,45,-1,44,45,46,-1,46,45,47,-1,46,47,48,-1,48,47,49,-1,48,49,50,-1,50,49,51,-1,50,51,52,-1,52,51,53,-1,52,53,54,-1,54,53,55,-1,56,57,26,-1,58,59,55,-1,60,56,29,-1,29,56,26,-1,29,26,31,-1,31,26,24,-1,31,24,33,-1,33,24,22,-1,33,22,35,-1,35,22,20,-1,35,20,37,-1,37,20,18,-1,37,18,39,-1,39,18,16,-1,39,16,41,-1,41,16,15,-1,41,15,43,-1,43,15,12,-1,43,12,45,-1,45,12,10,-1,45,10,47,-1,47,10,8,-1,47,8,49,-1,49,8,6,-1,49,6,51,-1,51,6,4,-1,51,4,53,-1,53,4,2,-1,53,2,55,-1,55,2,1,-1,55,1,58,-1,58,1,61,-1,62,63,0,-1,64,65,28,-1,66,62,54,-1,54,62,0,-1,54,0,52,-1,52,0,3,-1,52,3,50,-1,50,3,5,-1,50,5,48,-1,48,5,7,-1,48,7,46,-1,46,7,9,-1,46,9,44,-1,44,9,11,-1,44,11,42,-1,42,11,13,-1,42,13,40,-1,40,13,14,-1,40,14,38,-1,38,14,17,-1,38,17,36,-1,36,17,19,-1,36,19,34,-1,34,19,21,-1,34,21,32,-1,32,21,23,-1,32,23,30,-1,30,23,25,-1,30,25,28,-1,28,25,27,-1,28,27,64,-1,64,27,67,-1,61,1,63,-1,63,1,0,-1,54,55,66,-1,66,55,59,-1,29,28,60,-1,60,28,65,-1,67,27,57,-1,57,27,26,-1,68,69,70,-1,70,69,71,-1,72,73,74,-1,74,73,75,-1,69,68,76,-1,76,68,77,-1,76,74,78,-1,78,74,75,-1,69,76,71,-1,71,76,78,-1,71,78,79,-1,79,78,80,-1,72,77,70,-1,70,77,68,-1,73,72,81,-1,81,72,70,-1,81,70,82,-1,82,70,83,-1,84,85,86,-1,86,85,87,-1,88,89,90,-1,90,89,91,-1,84,91,92,-1,92,91,89,-1,85,84,93,-1,93,84,92,-1,93,92,94,-1,94,92,95,-1,89,88,92,-1,92,88,96,-1,90,86,97,-1,97,86,87,-1,88,90,96,-1,96,90,97,-1,96,97,98,-1,98,97,99,-1,79,83,71,-1,71,83,70,-1,82,80,81,-1,81,80,78,-1,79,80,83,-1,83,80,82,-1,98,95,96,-1,96,95,92,-1,94,99,93,-1,93,99,97,-1,98,99,95,-1,95,99,94,-1,100,101,102,-1,100,102,103,-1,103,102,104,-1,103,104,105,-1,105,104,106,-1,105,106,107,-1,107,106,108,-1,107,108,109,-1,109,108,110,-1,109,110,111,-1,111,110,112,-1,111,112,113,-1,114,113,115,-1,115,113,112,-1,114,115,116,-1,114,116,117,-1,117,116,118,-1,117,118,119,-1,119,118,120,-1,119,120,121,-1,121,120,122,-1,121,122,123,-1,123,122,124,-1,123,124,125,-1,125,124,126,-1,125,126,127,-1,128,129,130,-1,130,129,131,-1,130,131,132,-1,132,131,133,-1,132,133,134,-1,134,133,135,-1,134,135,136,-1,136,135,137,-1,136,137,138,-1,138,137,139,-1,138,139,140,-1,140,139,141,-1,142,140,143,-1,143,140,141,-1,142,143,144,-1,144,143,145,-1,144,145,146,-1,146,145,147,-1,146,147,148,-1,148,147,149,-1,148,149,150,-1,150,149,151,-1,150,151,152,-1,152,151,153,-1,152,153,154,-1,154,153,155,-1,156,157,126,-1,158,159,155,-1,160,156,129,-1,129,156,126,-1,129,126,131,-1,131,126,124,-1,131,124,133,-1,133,124,122,-1,133,122,135,-1,135,122,120,-1,135,120,137,-1,137,120,118,-1,137,118,139,-1,139,118,116,-1,139,116,141,-1,141,116,115,-1,141,115,143,-1,143,115,112,-1,143,112,145,-1,145,112,110,-1,145,110,147,-1,147,110,108,-1,147,108,149,-1,149,108,106,-1,149,106,151,-1,151,106,104,-1,151,104,153,-1,153,104,102,-1,153,102,155,-1,155,102,101,-1,155,101,158,-1,158,101,161,-1,162,163,100,-1,164,165,128,-1,166,162,154,-1,154,162,100,-1,154,100,152,-1,152,100,103,-1,152,103,150,-1,150,103,105,-1,150,105,148,-1,148,105,107,-1,148,107,146,-1,146,107,109,-1,146,109,144,-1,144,109,111,-1,144,111,142,-1,142,111,113,-1,142,113,140,-1,140,113,114,-1,140,114,138,-1,138,114,117,-1,138,117,136,-1,136,117,119,-1,136,119,134,-1,134,119,121,-1,134,121,132,-1,132,121,123,-1,132,123,130,-1,130,123,125,-1,130,125,128,-1,128,125,127,-1,128,127,164,-1,164,127,167,-1,161,101,163,-1,163,101,100,-1,154,155,166,-1,166,155,159,-1,129,128,160,-1,160,128,165,-1,167,127,157,-1,157,127,126,-1,168,169,170,-1,170,169,171,-1,172,173,174,-1,174,173,175,-1,169,168,176,-1,176,168,177,-1,174,175,178,-1,178,175,179,-1,178,179,180,-1,180,179,181,-1,181,182,180,-1,180,182,171,-1,180,171,183,-1,183,171,169,-1,183,169,176,-1,177,168,184,-1,184,168,170,-1,184,170,185,-1,185,170,186,-1,187,173,172,-1,186,188,185,-1,185,188,187,-1,185,187,189,-1,189,187,172,-1,190,191,192,-1,192,191,193,-1,194,195,196,-1,196,195,197,-1,197,195,198,-1,198,195,199,-1,198,199,200,-1,200,199,201,-1,202,191,190,-1,201,203,200,-1,200,203,202,-1,200,202,204,-1,204,202,190,-1,195,194,199,-1,199,194,205,-1,192,193,206,-1,206,193,207,-1,206,207,208,-1,208,207,209,-1,209,210,208,-1,208,210,205,-1,208,205,211,-1,211,205,194,-1,211,194,196,-1,182,186,171,-1,171,186,170,-1,188,181,187,-1,187,181,179,-1,182,181,186,-1,186,181,188,-1,210,201,205,-1,205,201,199,-1,203,209,202,-1,202,209,207,-1,210,209,201,-1,201,209,203,-1,212,213,214,-1,212,214,215,-1,215,214,216,-1,215,216,217,-1,217,216,218,-1,217,218,219,-1,219,218,220,-1,219,220,221,-1,221,220,222,-1,221,222,223,-1,223,222,224,-1,223,224,225,-1,226,225,227,-1,227,225,224,-1,226,227,228,-1,226,228,229,-1,229,228,230,-1,229,230,231,-1,231,230,232,-1,231,232,233,-1,233,232,234,-1,233,234,235,-1,235,234,236,-1,235,236,237,-1,237,236,238,-1,237,238,239,-1,240,241,242,-1,242,241,243,-1,242,243,244,-1,244,243,245,-1,244,245,246,-1,246,245,247,-1,246,247,248,-1,248,247,249,-1,248,249,250,-1,250,249,251,-1,250,251,252,-1,252,251,253,-1,254,252,255,-1,255,252,253,-1,254,255,256,-1,256,255,257,-1,256,257,258,-1,258,257,259,-1,258,259,260,-1,260,259,261,-1,260,261,262,-1,262,261,263,-1,262,263,264,-1,264,263,265,-1,264,265,266,-1,266,265,267,-1,268,269,238,-1,270,271,267,-1,272,268,241,-1,241,268,238,-1,241,238,243,-1,243,238,236,-1,243,236,245,-1,245,236,234,-1,245,234,247,-1,247,234,232,-1,247,232,249,-1,249,232,230,-1,249,230,251,-1,251,230,228,-1,251,228,253,-1,253,228,227,-1,253,227,255,-1,255,227,224,-1,255,224,257,-1,257,224,222,-1,257,222,259,-1,259,222,220,-1,259,220,261,-1,261,220,218,-1,261,218,263,-1,263,218,216,-1,263,216,265,-1,265,216,214,-1,265,214,267,-1,267,214,213,-1,267,213,270,-1,270,213,273,-1,274,275,212,-1,276,277,240,-1,278,274,266,-1,266,274,212,-1,266,212,264,-1,264,212,215,-1,264,215,262,-1,262,215,217,-1,262,217,260,-1,260,217,219,-1,260,219,258,-1,258,219,221,-1,258,221,256,-1,256,221,223,-1,256,223,254,-1,254,223,225,-1,254,225,252,-1,252,225,226,-1,252,226,250,-1,250,226,229,-1,250,229,248,-1,248,229,231,-1,248,231,246,-1,246,231,233,-1,246,233,244,-1,244,233,235,-1,244,235,242,-1,242,235,237,-1,242,237,240,-1,240,237,239,-1,240,239,276,-1,276,239,279,-1,273,213,275,-1,275,213,212,-1,266,267,278,-1,278,267,271,-1,241,240,272,-1,272,240,277,-1,279,239,269,-1,269,239,238,-1,280,281,282,-1,282,281,283,-1,284,285,286,-1,286,285,287,-1,281,280,288,-1,288,280,289,-1,288,286,290,-1,290,286,287,-1,281,288,283,-1,283,288,290,-1,283,290,291,-1,291,290,292,-1,284,289,282,-1,282,289,280,-1,285,284,293,-1,293,284,282,-1,293,282,294,-1,294,282,295,-1,296,297,298,-1,298,297,299,-1,300,301,302,-1,302,301,303,-1,296,303,304,-1,304,303,301,-1,297,296,305,-1,305,296,304,-1,305,304,306,-1,306,304,307,-1,301,300,304,-1,304,300,308,-1,302,298,309,-1,309,298,299,-1,300,302,308,-1,308,302,309,-1,308,309,310,-1,310,309,311,-1,291,295,283,-1,283,295,282,-1,294,292,293,-1,293,292,290,-1,291,292,295,-1,295,292,294,-1,310,307,308,-1,308,307,304,-1,306,311,305,-1,305,311,309,-1,310,311,307,-1,307,311,306,-1,
        ]
    }
}
Shape{
    appearance Appearance {
        material  Material 	{
            diffuseColor 1.0 1.0 1.0
            specularColor 0.8784313725490196 0.8784313725490196 0.8784313725490196
            ambientIntensity 1.0
            transparency 0.0
            shininess 0.5
        }
    }
    geometry IndexedFaceSet {
        ccw TRUE
        solid FALSE
        coord DEF co Coordinate {
            point [
                0.0647 0.6674 0.1969, -0.329 0.821 0.1969, 0.0647 0.6674 0.1575, -0.329 0.821 0.1575, -0.329 0.7634 0.1969, -0.329 0.7634 0.1575, -0.2186 0.7236 0.1969, -0.2186 0.7236 0.1575, -0.2186 0.5609 0.1969, -0.2186 0.5609 0.1575, -0.329 0.5234 0.1969, -0.329 0.5234 0.1575, -0.329 0.4657 0.1969, -0.329 0.4657 0.1575, 0.0647 0.6146 0.1969, 0.0647 0.6146 0.1575, -0.1754 0.5742 0.1969, -0.011 0.633 0.1969, 0.0027 0.6367 0.1969, 0.0166 0.6393 0.1969, 0.0166 0.6405 0.1969, 0.0027 0.6431 0.1969, -0.1754 0.7059 0.1969, -0.011 0.6466 0.1969, -0.1754 0.5742 0.1575, -0.1754 0.7059 0.1575, -0.011 0.633 0.1575, 0.0027 0.6367 0.1575, 0.0166 0.6393 0.1575, 0.0166 0.6405 0.1575, 0.0027 0.6431 0.1575, -0.011 0.6466 0.1575, -0.329 0.2271 0.1969, -0.329 0.1201 0.1969, -0.329 0.2271 0.1575, -0.329 0.1201 0.1575, 0.0647 0.1201 0.1969, 0.0647 0.1201 0.1575, 0.0647 0.2312 0.1969, 0.0647 0.2312 0.1575, -0.1272 0.4369 0.1969, -0.1272 0.4369 0.1575, -0.0902 0.4341 0.1575, -0.0902 0.4341 0.1969, -0.0514 0.4235 0.1575, -0.0514 0.4235 0.1969, -0.0175 0.4052 0.1575, -0.0175 0.4052 0.1969, 0.0133 0.3774 0.1575, 0.0133 0.3774 0.1969, 0.0137 0.3769 0.1575, 0.0137 0.3769 0.1969, 0.0424 0.3341 0.1575, 0.0424 0.3341 0.1969, 0.0586 0.288 0.1575, 0.0586 0.288 0.1969, -0.3248 0.2758 0.1575, -0.3248 0.2758 0.1969, -0.3113 0.3212 0.1575, -0.3113 0.3212 0.1969, -0.2874 0.3623 0.1575, -0.2874 0.3623 0.1969, -0.2564 0.3947 0.1575, -0.2564 0.3947 0.1969, -0.2211 0.4173 0.1575, -0.2211 0.4173 0.1969, -0.1799 0.4314 0.1575, -0.1799 0.4314 0.1969, -0.0338 0.3579 0.1969, -0.0135 0.3388 0.1969, 0.0051 0.31 0.1969, 0.0165 0.2775 0.1969, 0.0214 0.2309 0.1969, 0.0214 0.1729 0.1969, -0.2858 0.1729 0.1969, -0.2858 0.2288 0.1969, -0.282 0.2703 0.1969, -0.2716 0.3034 0.1969, -0.2557 0.3303 0.1969, -0.2339 0.3524 0.1969, -0.2067 0.369 0.1969, -0.1697 0.3805 0.1969, -0.1284 0.3841 0.1969, -0.0892 0.3808 0.1969, -0.058 0.3716 0.1969, 0.0214 0.2309 0.1575, 0.0214 0.1729 0.1575, 0.0165 0.2775 0.1575, 0.0051 0.31 0.1575, -0.0135 0.3388 0.1575, -0.0338 0.3579 0.1575, -0.058 0.3716 0.1575, -0.0892 0.3808 0.1575, -0.1284 0.3841 0.1575, -0.1697 0.3805 0.1575, -0.2067 0.369 0.1575, -0.2339 0.3524 0.1575, -0.2557 0.3303 0.1575, -0.2716 0.3034 0.1575, -0.282 0.2703 0.1575, -0.2858 0.2288 0.1575, -0.2858 0.1729 0.1575, -0.2858 0.0432 0.1969, -0.329 0.0432 0.1969, -0.2858 0.0432 0.1575, -0.329 0.0432 0.1575, -0.329 -0.168 0.1969, -0.329 -0.168 0.1575, 0.0647 -0.168 0.1969, 0.0647 -0.168 0.1575, 0.0647 0.0336 0.1969, 0.0647 0.0336 0.1575, 0.0214 0.0336 0.1969, 0.0214 0.0336 0.1575, 0.0214 -0.1152 0.1969, 0.0214 -0.1152 0.1575, -0.1082 -0.1152 0.1969, -0.1082 -0.1152 0.1575, -0.1082 0.024 0.1969, -0.1082 0.024 0.1575, -0.1514 0.024 0.1969, -0.1514 0.024 0.1575, -0.1514 -0.1152 0.1969, -0.1514 -0.1152 0.1575, -0.2858 -0.1152 0.1969, -0.2858 -0.1152 0.1575, -0.2654 -0.2448 0.1969, -0.3086 -0.2448 0.1969, -0.2654 -0.2448 0.1575, -0.3086 -0.2448 0.1575, -0.3259 -0.2868 0.1969, -0.3338 -0.3532 0.1969, -0.3338 -0.3532 0.1575, -0.3337 -0.3424 0.1575, -0.3337 -0.3424 0.1969, -0.3314 -0.3266 0.1575, -0.3259 -0.2868 0.1575, -0.1396 -0.5377 0.1969, -0.1396 -0.5377 0.1575, -0.1852 -0.5339 0.1575, -0.1852 -0.5339 0.1969, -0.2269 -0.5221 0.1575, -0.2269 -0.5221 0.1969, -0.2643 -0.5011 0.1575, -0.2643 -0.5011 0.1969, -0.2955 -0.4715 0.1575, -0.2955 -0.4715 0.1969, -0.3157 -0.4398 0.1575, -0.3157 -0.4398 0.1969, -0.3288 -0.4017 0.1575, -0.3288 -0.4017 0.1969, -0.3314 -0.3763 0.1575, 0.0695 -0.3375 0.1575, 0.0671 -0.3669 0.1575, 0.0695 -0.3375 0.1969, 0.0662 -0.377 0.1969, 0.0662 -0.377 0.1575, 0.0535 -0.4209 0.1575, 0.0535 -0.4209 0.1969, 0.032 -0.4583 0.1575, 0.032 -0.4583 0.1969, -0.0022 -0.4939 0.1575, -0.0022 -0.4939 0.1969, -0.039 -0.5169 0.1575, -0.039 -0.5169 0.1969, -0.0836 -0.5321 0.1575, -0.0836 -0.5321 0.1969, 0.0671 -0.3027 0.1575, 0.0662 -0.2904 0.1969, 0.0662 -0.2904 0.1575, 0.0539 -0.2448 0.1969, 0.0539 -0.2448 0.1575, 0.001 -0.2448 0.1969, 0.001 -0.2448 0.1575, 0.0262 -0.337 0.1969, 0.0262 -0.337 0.1575, 0.02 -0.2892 0.1575, 0.02 -0.2892 0.1969, -0.1364 -0.4849 0.1969, -0.1364 -0.4849 0.1575, -0.1058 -0.483 0.1575, -0.1058 -0.483 0.1969, -0.0636 -0.4725 0.1575, -0.0636 -0.4725 0.1969, -0.0332 -0.4563 0.1575, -0.0332 -0.4563 0.1969, -0.007 -0.4325 0.1575, -0.007 -0.4325 0.1969, 0.0113 -0.4053 0.1575, 0.0113 -0.4053 0.1969, 0.0219 -0.3758 0.1575, 0.0219 -0.3758 0.1969, -0.2906 -0.3459 0.1969, -0.2906 -0.3459 0.1575, -0.2865 -0.3826 0.1575, -0.2865 -0.3826 0.1969, -0.276 -0.4113 0.1575, -0.276 -0.4113 0.1969, -0.2597 -0.4355 0.1575, -0.2597 -0.4355 0.1969, -0.2402 -0.4539 0.1575, -0.2402 -0.4539 0.1969, -0.2129 -0.4702 0.1575, -0.2129 -0.4702 0.1969, -0.179 -0.4809 0.1575, -0.179 -0.4809 0.1969, -0.2693 -0.2519 0.1575, -0.2693 -0.2519 0.1969, -0.2848 -0.2936 0.1575, -0.2848 -0.2936 0.1969, -0.2858 -0.5713 0.1969, -0.329 -0.5713 0.1969, -0.2858 -0.5713 0.1575, -0.329 -0.5713 0.1575, -0.329 -0.773 0.1969, -0.329 -0.773 0.1575, 0.0647 -0.773 0.1969, 0.0647 -0.773 0.1575, 0.0647 -0.7202 0.1969, 0.0647 -0.7202 0.1575, -0.2858 -0.7202 0.1969, -0.2858 -0.7202 0.1575
            ]
        }
        coordIndex [
            0,1,2,-1,2,1,3,-1,1,4,3,-1,3,4,5,-1,4,6,5,-1,5,6,7,-1,6,8,7,-1,7,8,9,-1,8,10,9,-1,9,10,11,-1,10,12,11,-1,11,12,13,-1,12,14,13,-1,13,14,15,-1,14,0,15,-1,15,0,2,-1,16,17,14,-1,12,10,8,-1,17,18,14,-1,14,18,19,-1,14,19,0,-1,0,19,20,-1,0,20,21,-1,14,12,16,-1,16,12,8,-1,16,8,22,-1,22,8,6,-1,21,23,0,-1,0,23,22,-1,0,22,1,-1,1,22,6,-1,1,6,4,-1,16,22,24,-1,24,22,25,-1,17,16,26,-1,26,16,24,-1,17,26,27,-1,17,27,18,-1,18,27,28,-1,18,28,19,-1,20,19,29,-1,29,19,28,-1,20,29,30,-1,20,30,21,-1,21,30,31,-1,21,31,23,-1,22,23,25,-1,25,23,31,-1,32,33,34,-1,34,33,35,-1,33,36,35,-1,35,36,37,-1,36,38,37,-1,37,38,39,-1,40,41,42,-1,40,42,43,-1,43,42,44,-1,43,44,45,-1,45,44,46,-1,45,46,47,-1,47,46,48,-1,47,48,49,-1,49,48,50,-1,49,50,51,-1,51,50,52,-1,51,52,53,-1,53,52,54,-1,53,54,55,-1,55,54,39,-1,55,39,38,-1,32,34,56,-1,32,56,57,-1,57,56,58,-1,57,58,59,-1,59,58,60,-1,59,60,61,-1,61,60,62,-1,61,62,63,-1,63,62,64,-1,63,64,65,-1,65,64,66,-1,65,66,67,-1,67,66,41,-1,67,41,40,-1,45,47,68,-1,68,47,49,-1,68,49,69,-1,69,49,51,-1,69,51,70,-1,70,51,53,-1,70,53,71,-1,71,53,55,-1,71,55,72,-1,72,55,38,-1,72,38,73,-1,73,38,36,-1,73,36,74,-1,74,36,33,-1,74,33,75,-1,75,33,32,-1,75,32,76,-1,76,32,57,-1,76,57,77,-1,77,57,59,-1,77,59,78,-1,78,59,61,-1,78,61,79,-1,79,61,63,-1,79,63,80,-1,80,63,65,-1,80,65,81,-1,81,65,67,-1,81,67,82,-1,82,67,40,-1,82,40,83,-1,83,40,43,-1,83,43,84,-1,84,43,45,-1,84,45,68,-1,72,73,85,-1,85,73,86,-1,72,85,87,-1,72,87,71,-1,71,87,88,-1,71,88,70,-1,70,88,89,-1,70,89,69,-1,69,89,90,-1,69,90,68,-1,68,90,91,-1,68,91,84,-1,84,91,92,-1,84,92,83,-1,83,92,93,-1,83,93,82,-1,82,93,94,-1,82,94,81,-1,81,94,95,-1,81,95,80,-1,80,95,96,-1,80,96,79,-1,79,96,97,-1,79,97,78,-1,78,97,98,-1,78,98,77,-1,77,98,99,-1,77,99,76,-1,76,99,100,-1,76,100,75,-1,74,75,101,-1,101,75,100,-1,73,74,86,-1,86,74,101,-1,102,103,104,-1,104,103,105,-1,103,106,105,-1,105,106,107,-1,106,108,107,-1,107,108,109,-1,108,110,109,-1,109,110,111,-1,110,112,111,-1,111,112,113,-1,112,114,113,-1,113,114,115,-1,114,116,115,-1,115,116,117,-1,116,118,117,-1,117,118,119,-1,118,120,119,-1,119,120,121,-1,120,122,121,-1,121,122,123,-1,122,124,123,-1,123,124,125,-1,124,102,125,-1,125,102,104,-1,106,103,102,-1,102,124,106,-1,106,124,122,-1,106,122,108,-1,112,110,114,-1,114,110,108,-1,114,108,116,-1,116,108,122,-1,116,122,118,-1,118,122,120,-1,126,127,128,-1,128,127,129,-1,129,127,130,-1,131,132,133,-1,131,133,134,-1,134,133,135,-1,134,135,130,-1,130,135,136,-1,130,136,129,-1,137,138,139,-1,137,139,140,-1,140,139,141,-1,140,141,142,-1,142,141,143,-1,142,143,144,-1,144,143,145,-1,144,145,146,-1,146,145,147,-1,146,147,148,-1,148,147,149,-1,148,149,150,-1,150,149,131,-1,131,149,151,-1,131,151,132,-1,152,153,154,-1,154,153,155,-1,153,156,155,-1,155,156,157,-1,155,157,158,-1,158,157,159,-1,158,159,160,-1,160,159,161,-1,160,161,162,-1,162,161,163,-1,162,163,164,-1,164,163,165,-1,164,165,166,-1,166,165,138,-1,166,138,137,-1,152,154,167,-1,167,154,168,-1,167,168,169,-1,169,168,170,-1,169,170,171,-1,170,172,171,-1,171,172,173,-1,174,175,176,-1,174,176,177,-1,177,176,173,-1,177,173,172,-1,178,179,180,-1,178,180,181,-1,181,180,182,-1,181,182,183,-1,183,182,184,-1,183,184,185,-1,185,184,186,-1,185,186,187,-1,187,186,188,-1,187,188,189,-1,189,188,190,-1,189,190,191,-1,191,190,175,-1,191,175,174,-1,192,193,194,-1,192,194,195,-1,195,194,196,-1,195,196,197,-1,197,196,198,-1,197,198,199,-1,199,198,200,-1,199,200,201,-1,201,200,202,-1,201,202,203,-1,203,202,204,-1,203,204,205,-1,205,204,179,-1,205,179,178,-1,126,128,206,-1,126,206,207,-1,207,206,208,-1,207,208,209,-1,209,208,193,-1,209,193,192,-1,195,131,192,-1,192,131,134,-1,192,134,209,-1,209,134,130,-1,209,130,207,-1,207,130,127,-1,207,127,126,-1,172,170,177,-1,177,170,168,-1,177,168,174,-1,174,168,154,-1,174,154,191,-1,191,154,155,-1,191,155,189,-1,189,155,158,-1,189,158,187,-1,187,158,160,-1,187,160,185,-1,185,160,162,-1,185,162,183,-1,183,162,164,-1,183,164,181,-1,181,164,166,-1,181,166,178,-1,178,166,137,-1,178,137,205,-1,205,137,140,-1,205,140,203,-1,203,140,142,-1,203,142,201,-1,201,142,144,-1,201,144,199,-1,199,144,146,-1,199,146,197,-1,197,146,148,-1,197,148,195,-1,195,148,150,-1,195,150,131,-1,210,211,212,-1,212,211,213,-1,211,214,213,-1,213,214,215,-1,214,216,215,-1,215,216,217,-1,216,218,217,-1,217,218,219,-1,218,220,219,-1,219,220,221,-1,220,210,221,-1,221,210,212,-1,218,216,220,-1,220,216,214,-1,220,214,210,-1,210,214,211,-1,
        ]
    }
}
Shape{
    appearance Appearance {
        material  Material 	{
            diffuseColor 0.20784313725490197 0.20784313725490197 0.20784313725490197
            specularColor 0.01568627450980392 0.01568627450980392 0.01568627450980392
            ambientIntensity 0.298
            transparency 0.0
            shininess 0.5
        }
    }
    geometry IndexedFaceSet {
        ccw TRUE
        solid FALSE
        coord DEF co Coordinate {
            point [
                -0.1754 0.5742 0.1575, -0.1754 0.7059 0.1575, -0.011 0.633 0.1575, -0.011 0.6466 0.1575, 0.0027 0.6367 0.1575, 0.0027 0.6431 0.1575, 0.0166 0.6393 0.1575, 0.0166 0.6405 0.1575, 0.0214 0.1729 0.1575, -0.2858 0.1729 0.1575, 0.0214 0.2309 0.1575, -0.2858 0.2288 0.1575, -0.282 0.2703 0.1575, -0.1284 0.3841 0.1575, -0.0892 0.3808 0.1575, -0.058 0.3716 0.1575, 0.0165 0.2775 0.1575, -0.2716 0.3034 0.1575, -0.2557 0.3303 0.1575, -0.2339 0.3524 0.1575, -0.2067 0.369 0.1575, -0.1697 0.3805 0.1575, -0.0338 0.3579 0.1575, -0.0135 0.3388 0.1575, 0.0051 0.31 0.1575
            ]
        }
        coordIndex [
            0,1,2,-1,2,1,3,-1,2,3,4,-1,4,3,5,-1,4,5,6,-1,6,5,7,-1,8,9,10,-1,10,9,11,-1,10,11,12,-1,13,14,10,-1,10,14,15,-1,10,15,16,-1,12,17,10,-1,10,17,18,-1,10,18,19,-1,19,20,10,-1,10,20,21,-1,10,21,13,-1,22,23,15,-1,15,23,24,-1,15,24,16,-1,
        ]
    }
}