#VRML V2.0 utf8
# 3D model generated by easyeda2kicad.py (https://github.com/uPesy/easyeda2kicad.py)

Shape{
    appearance Appearance {
        material  Material 	{
            diffuseColor 0.25098039215686274 0.25098039215686274 0.25098039215686274
            specularColor 0.12549019607843137 0.12549019607843137 0.12549019607843137
            ambientIntensity 0.251
            transparency 0.0
            shininess 0.5
        }
    }
    geometry IndexedFaceSet {
        ccw TRUE
        solid FALSE
        coord DEF co Coordinate {
            point [
                1.498 0.3543 0.2362, 1.498 0.3622 0.2362, 1.498 0.3622 0.318, 1.498 0.0765 0.5952, 1.498 0.0801 0.5941, 1.498 0.0801 0.9843, 1.498 0.1799 0.4223, 1.498 0.1799 0.48, 1.498 0.1709 0.47, 1.498 0.0037 0.5949, 1.498 0.0037 0.5358, 1.498 0.0303 0.5358, 1.498 -0.232 0.4776, 1.498 -0.2237 0.47, 1.498 -0.2045 0.48, 1.498 -0.3622 0.4957, 1.498 -0.3622 0.48, 1.498 -0.3601 0.48, 1.498 -0.3104 0.4248, 1.498 -0.3275 0.4332, 1.498 -0.3622 0.4217, 1.498 -0.3043 0.423, 1.498 -0.3423 0.4458, 1.498 -0.3531 0.4612, 1.498 -0.3599 0.4789, 1.498 -0.2723 0.3925, 1.498 -0.2832 0.3971, 1.498 -0.3622 0.318, 1.498 -0.2611 0.3908, 1.498 -0.2925 0.4041, 1.498 -0.2996 0.4128, 1.498 -0.3037 0.4217, 1.498 -0.2148 0.4217, 1.498 -0.2149 0.4215, 1.498 0.032 0.318, 1.498 -0.2205 0.4109, 1.498 -0.2277 0.4028, 1.498 -0.2372 0.3963, 1.498 -0.2478 0.3922, 1.498 -0.2593 0.3908, 1.498 -0.1543 0.4497, 1.498 -0.151 0.451, 1.498 -0.1454 0.4781, 1.498 -0.1572 0.4477, 1.498 -0.1473 0.4515, 1.498 -0.1469 0.4515, 1.498 -0.1454 0.4511, 1.498 0.0037 0.48, 1.498 0.0037 0.46, 1.498 0.032 0.48, 1.498 0.0276 0.46, 1.498 0.0276 0.4524, 1.498 0.0037 0.4524, 1.498 0.0037 0.4299, 1.498 0.031 0.4299, 1.498 0.032 0.4217, 1.498 -0.0986 0.4629, 1.498 -0.0934 0.4703, 1.498 -0.1445 0.451, 1.498 -0.1231 0.451, 1.498 -0.1145 0.4527, 1.498 -0.0677 0.4566, 1.498 -0.0771 0.4434, 1.498 -0.0049 0.4223, 1.498 -0.09 0.4325, 1.498 -0.1045 0.4254, 1.498 -0.1062 0.4566, 1.498 -0.0992 0.4623, 1.498 -0.162 0.4368, 1.498 -0.1619 0.4387, 1.498 -0.2118 0.443, 1.498 -0.161 0.4423, 1.498 -0.1591 0.4455, 1.498 -0.1203 0.4221, 1.498 0.031 0.4223, 1.498 -0.1483 0.4221, 1.498 -0.1509 0.4225, 1.498 -0.1541 0.4237, 1.498 -0.1572 0.4259, 1.498 -0.1583 0.4271, 1.498 -0.1603 0.43, 1.498 -0.1616 0.4333, 1.498 -0.2121 0.4332, 1.498 -0.2118 0.4382, 1.498 -0.2535 0.4858, 1.498 -0.2421 0.4829, 1.498 -0.1303 0.5276, 1.498 -0.2593 0.4861, 1.498 -0.0901 0.4788, 1.498 -0.09 0.48, 1.498 -0.1466 0.48, 1.498 -0.089 0.488, 1.498 -0.0892 0.4923, 1.498 -0.2706 0.4847, 1.498 -0.3219 0.5276, 1.498 -0.2811 0.4807, 1.498 -0.3268 0.5205, 1.498 -0.3309 0.51, 1.498 -0.3285 0.48, 1.498 -0.2821 0.48, 1.498 -0.3318 0.4911, 1.498 -0.3323 0.4985, 1.498 -0.1013 0.5156, 1.498 -0.1086 0.5207, 1.498 -0.0915 0.5014, 1.498 -0.0959 0.5095, 1.498 -0.1298 0.525, 1.498 -0.1601 0.5032, 1.498 -0.126 0.525, 1.498 -0.1169 0.5239, 1.498 -0.2367 0.48, 1.498 -0.3283 0.4795, 1.498 -0.2986 0.465, 1.498 -0.2908 0.474, 1.498 -0.3227 0.4699, 1.498 -0.3142 0.4612, 1.498 -0.3039 0.4548, 1.498 -0.14 0.5536, 1.498 -0.1508 0.5664, 1.498 -0.2598 0.5388, 1.498 -0.1519 0.5674, 1.498 -0.1652 0.5766, 1.498 -0.2525 0.5538, 1.498 -0.263 0.5406, 1.498 -0.1327 0.5383, 1.498 -0.2737 0.5445, 1.498 -0.2849 0.5459, 1.498 -0.2899 0.5456, 1.498 -0.2419 0.5665, 1.498 -0.1801 0.5823, 1.498 -0.2292 0.5758, 1.498 -0.1962 0.5843, 1.498 -0.2137 0.5821, 1.498 -0.3016 0.5428, 1.498 -0.3122 0.5372, 1.498 -0.3203 0.53, 1.498 -0.0049 0.489, 1.498 -0.0596 0.4885, 1.498 -0.0049 0.48, 1.498 -0.0606 0.48, 1.498 -0.0617 0.4716, 1.498 -0.0741 0.5276, 1.498 -0.0675 0.5185, 1.498 -0.0617 0.504, 1.498 0.0037 0.4814, 1.498 0.0295 0.4814, 1.498 0.0295 0.489, 1.498 0.032 0.5276, 1.498 0.032 0.9843, 1.498 -0.3622 0.9843, 1.498 -0.0049 0.5949, 1.498 0.0303 0.5282, 1.498 -0.0049 0.5282, 1.498 -0.0772 0.532, 1.498 -0.0901 0.5429, 1.498 -0.1533 0.6023, 1.498 -0.1321 0.5881, 1.498 -0.1164 0.5699, 1.498 -0.3622 0.5276, 1.498 -0.3555 0.5276, 1.498 -0.3513 0.5369, 1.498 -0.3399 0.5516, 1.498 -0.2201 0.6099, 1.498 -0.1967 0.6128, 1.498 -0.1771 0.6107, 1.498 -0.1065 0.5506, 1.498 -0.1042 0.5499, 1.498 -0.3367 0.5546, 1.498 -0.3216 0.5652, 1.498 -0.3041 0.5721, 1.498 -0.2647 0.5847, 1.498 -0.2536 0.5943, 1.498 -0.242 0.6015, 1.498 -0.2745 0.5734, 1.498 -0.2799 0.5741, 1.498 -0.2854 0.5744, 1.498 -0.3622 0.4993, 1.498 -0.3621 0.502, 1.498 -0.3589 0.5199, 1.498 0.2959 0.4223, 1.498 0.2864 0.4223, 1.498 0.2845 0.4217, 1.498 0.2845 0.48, 1.498 0.3084 0.48, 1.498 0.2845 0.5276, 1.498 0.3118 0.489, 1.498 0.3543 0.5276, 1.498 0.321 0.489, 1.498 0.3543 0.48, 1.498 0.3244 0.48, 1.498 0.3543 0.4217, 1.498 0.3464 0.4223, 1.498 0.3369 0.4223, 1.498 0.3301 0.4406, 1.498 0.3023 0.4406, 1.498 0.2757 0.4771, 1.498 0.2796 0.4711, 1.498 0.2807 0.4439, 1.498 0.2773 0.4371, 1.498 0.2726 0.4317, 1.498 0.2655 0.4266, 1.498 0.2579 0.4237, 1.498 0.2467 0.4223, 1.498 0.2221 0.4217, 1.498 0.2819 0.4645, 1.498 0.2827 0.4565, 1.498 0.2824 0.4516, 1.498 0.2284 0.4223, 1.498 0.2284 0.48, 1.498 0.2221 0.48, 1.498 0.2284 0.489, 1.498 0.2221 0.5276, 1.498 0.2474 0.489, 1.498 0.2586 0.4877, 1.498 0.2665 0.4845, 1.498 0.2726 0.4802, 1.498 0.2728 0.48, 1.498 0.2158 0.4299, 1.498 0.2158 0.4223, 1.498 0.201 0.4217, 1.498 0.2124 0.4524, 1.498 0.201 0.4299, 1.498 0.201 0.4524, 1.498 0.1885 0.4299, 1.498 0.1885 0.4524, 1.498 0.1885 0.48, 1.498 0.1885 0.46, 1.498 0.201 0.48, 1.498 0.201 0.46, 1.498 0.2124 0.46, 1.498 0.1885 0.4814, 1.498 0.201 0.4814, 1.498 0.2142 0.4814, 1.498 0.2142 0.489, 1.498 0.201 0.489, 1.498 0.201 0.5276, 1.498 0.1799 0.489, 1.498 0.1385 0.5276, 1.498 0.201 0.4223, 1.498 0.1519 0.4217, 1.498 0.1469 0.4341, 1.498 0.148 0.4302, 1.498 0.1482 0.4302, 1.498 0.1486 0.4319, 1.498 0.1492 0.4341, 1.498 0.1385 0.4584, 1.498 0.1622 0.47, 1.498 0.1385 0.48, 1.498 0.0886 0.424, 1.498 0.0858 0.4217, 1.498 0.0945 0.4219, 1.498 0.096 0.4217, 1.498 0.1122 0.4707, 1.498 0.1185 0.4689, 1.498 0.123 0.48, 1.498 0.1185 0.4608, 1.498 0.118 0.4432, 1.498 0.1195 0.4409, 1.498 0.0858 0.48, 1.498 0.09 0.4628, 1.498 0.0915 0.465, 1.498 0.1204 0.4384, 1.498 0.1208 0.4353, 1.498 0.123 0.4217, 1.498 0.1204 0.4319, 1.498 0.1194 0.4293, 1.498 0.1005 0.4702, 1.498 0.1072 0.4711, 1.498 0.094 0.4673, 1.498 0.096 0.4685, 1.498 0.1178 0.4271, 1.498 0.1154 0.425, 1.498 0.1132 0.4237, 1.498 0.091 0.4496, 1.498 0.0899 0.4513, 1.498 0.0886 0.4326, 1.498 0.089 0.4539, 1.498 0.0886 0.4571, 1.498 0.089 0.4601, 1.498 0.0971 0.4286, 1.498 0.1013 0.4433, 1.498 0.0919 0.4306, 1.498 0.0963 0.4455, 1.498 0.0924 0.4481, 1.498 0.1064 0.4643, 1.498 0.1039 0.4641, 1.498 0.0973 0.4579, 1.498 0.1017 0.4635, 1.498 0.0998 0.4625, 1.498 0.0973 0.4567, 1.498 0.0977 0.4554, 1.498 0.0983 0.4543, 1.498 0.0991 0.4534, 1.498 0.102 0.4516, 1.498 0.1119 0.4636, 1.498 0.1072 0.4493, 1.498 0.1166 0.4619, 1.498 0.1104 0.448, 1.498 0.116 0.4449, 1.498 0.1023 0.428, 1.498 0.1027 0.428, 1.498 0.1068 0.441, 1.498 0.107 0.4285, 1.498 0.1122 0.4345, 1.498 0.1121 0.4355, 1.498 0.0985 0.4614, 1.498 0.0978 0.4603, 1.498 0.0974 0.4592, 1.498 0.1092 0.4293, 1.498 0.1099 0.4297, 1.498 0.1109 0.4306, 1.498 0.1116 0.4317, 1.498 0.112 0.4329, 1.498 0.1117 0.4368, 1.498 0.1111 0.4379, 1.498 0.1101 0.439, 1.498 0.1065 0.4217, 1.498 0.1015 0.4212, 1.498 0.0858 0.318, 1.498 0.1088 0.422, 1.498 0.123 0.318, 1.498 0.2375 0.5949, 1.498 0.2629 0.5282, 1.498 0.2534 0.5282, 1.498 0.2466 0.5464, 1.498 0.2221 0.5464, 1.498 0.2188 0.5464, 1.498 0.2124 0.5282, 1.498 0.2028 0.5282, 1.498 0.201 0.9843, 1.498 0.2221 0.5787, 1.498 0.2221 0.9843, 1.498 0.2283 0.5949, 1.498 0.2845 0.9843, 1.498 0.1322 0.5358, 1.498 0.1322 0.5282, 1.498 0.123 0.5276, 1.498 0.1307 0.5949, 1.498 0.1385 0.9843, 1.498 0.123 0.5949, 1.498 0.123 0.9843, 1.498 0.0963 0.5949, 1.498 0.1307 0.5872, 1.498 0.1049 0.5582, 1.498 0.1049 0.5358, 1.498 0.123 0.5582, 1.498 0.123 0.5358, 1.498 0.1288 0.5582, 1.498 0.1288 0.5659, 1.498 0.123 0.5659, 1.498 0.123 0.5872, 1.498 0.1049 0.5659, 1.498 0.1049 0.5872, 1.498 0.123 0.5282, 1.498 0.0963 0.5282, 1.498 0.0858 0.5276, 1.498 0.0858 0.9843, 1.498 0.0429 0.5688, 1.498 0.0801 0.5379, 1.498 0.0449 0.5748, 1.498 0.048 0.5796, 1.498 0.042 0.5608, 1.498 0.0421 0.5602, 1.498 0.0768 0.5363, 1.498 0.0693 0.5349, 1.498 0.083 0.5933, 1.498 0.083 0.5843, 1.498 0.083 0.5392, 1.498 0.0816 0.585, 1.498 0.0801 0.5855, 1.498 0.0748 0.5874, 1.498 0.0672 0.5882, 1.498 0.0643 0.5881, 1.498 0.0585 0.5869, 1.498 0.0499 0.5404, 1.498 0.0543 0.5374, 1.498 0.0533 0.5844, 1.498 0.0491 0.5808, 1.498 0.0486 0.5417, 1.498 0.0431 0.552, 1.498 0.0452 0.5465, 1.498 0.059 0.5355, 1.498 0.0657 0.5347, 1.498 0.0349 0.5732, 1.498 0.0382 0.5805, 1.498 0.0468 0.5318, 1.498 0.0416 0.5361, 1.498 0.0409 0.5368, 1.498 0.037 0.5426, 1.498 0.0426 0.5862, 1.498 0.0451 0.5885, 1.498 0.0518 0.5928, 1.498 0.0343 0.5495, 1.498 0.033 0.5603, 1.498 0.0332 0.5646, 1.498 0.059 0.5952, 1.498 0.0672 0.596, 1.498 0.0679 0.596, 1.498 0.0645 0.527, 1.498 0.0602 0.5273, 1.498 0.0586 0.5276, 1.498 0.053 0.5288, 1.498 0.083 0.5309, 1.498 0.0818 0.5304, 1.498 0.0801 0.5276, 1.498 0.0801 0.5298, 1.498 0.0747 0.528, 1.498 0.0404 0.442, 1.498 0.0421 0.4447, 1.498 0.0436 0.4585, 1.498 0.0394 0.439, 1.498 0.0773 0.453, 1.498 0.0773 0.4223, 1.498 0.0801 0.4217, 1.498 0.0689 0.4223, 1.498 0.0492 0.4217, 1.498 0.0491 0.4218, 1.498 0.0621 0.464, 1.498 0.0593 0.4643, 1.498 0.0548 0.4506, 1.498 0.0459 0.423, 1.498 0.0431 0.4249, 1.498 0.0421 0.4259, 1.498 0.0445 0.447, 1.498 0.0479 0.4488, 1.498 0.0494 0.4621, 1.498 0.0546 0.4638, 1.498 0.0461 0.468, 1.498 0.0524 0.4702, 1.498 0.0404 0.4285, 1.498 0.0394 0.4313, 1.498 0.039 0.4351, 1.498 0.0436 0.4666, 1.498 0.0689 0.4297, 1.498 0.0687 0.4297, 1.498 0.0674 0.4277, 1.498 0.0647 0.4249, 1.498 0.0689 0.4526, 1.498 0.0686 0.4563, 1.498 0.0678 0.4593, 1.498 0.0668 0.461, 1.498 0.0704 0.5276, 1.498 0.0801 0.48, 1.498 0.06 0.4711, 1.498 0.0658 0.4704, 1.498 0.0691 0.4693, 1.498 0.0718 0.4676, 1.498 0.0733 0.4662, 1.498 0.0751 0.4636, 1.498 0.0765 0.46, 1.498 0.0655 0.4623, 1.498 0.064 0.4633, 1.498 0.0541 0.4212, 1.498 0.0584 0.4217, 1.498 0.0801 0.318, 1.498 0.0586 0.4217, 1.498 0.1385 0.4359, 1.498 0.1251 0.47, 1.498 0.1345 0.47, 1.498 0.1385 0.4217, 1.498 0.1435 0.4217, 1.498 0.1438 0.4224, 1.498 0.1385 0.4107, 1.498 0.1385 0.4107, 1.498 0.1402 0.4137, 1.498 0.1385 0.318, 1.498 0.1356 0.4003, 1.498 0.1322 0.3999, 1.498 0.1316 0.407, 1.498 0.1336 0.4073, 1.498 0.1304 0.3999, 1.498 0.1269 0.4005, 1.498 0.1269 0.408, 1.498 0.1286 0.4074, 1.498 0.1354 0.4079, 1.498 0.137 0.409, 1.498 0.1492 0.4151, 1.498 0.1455 0.4077, 1.498 0.201 0.318, 1.498 0.1424 0.4041, 1.498 0.1418 0.4035, 1.498 0.1389 0.4015, 1.498 0.1385 0.4014, 1.498 0.3543 0.318, 1.498 0.2845 0.2362, 1.498 0.2845 0.318, 1.498 0.2221 0.2362, 1.498 0.2221 0.318, 1.498 0.201 0.2362, 1.498 0.1385 0.2362, 1.498 0.123 0.2362, 1.498 0.0858 0.2362, 1.498 0.0801 0.2362, 1.498 0.032 0.2362, 1.498 -0.3622 0.2362, 1.498 0.0618 0.4229, 1.498 0.1971 0.5498, 1.498 0.1937 0.543, 1.498 0.1891 0.5375, 1.498 0.182 0.5325, 1.498 0.1448 0.5949, 1.498 0.1744 0.5295, 1.498 0.1632 0.5282, 1.498 0.1448 0.5282, 1.498 0.1638 0.5949, 1.498 0.175 0.5935, 1.498 0.1829 0.5904, 1.498 0.1961 0.5769, 1.498 0.1983 0.5703, 1.498 0.1991 0.5624, 1.498 0.1989 0.5575, 1.498 0.1891 0.5861, 1.498 0.1921 0.583, 1.498 0.3543 0.9843, 1.498 0.3622 0.4217, 1.498 0.3622 0.48, 1.498 0.3622 0.5276, 1.498 0.3622 0.9843, -0.876 0.126 0.2362, -1.128 0.126 0.2362, -1.4823 0.3819 0.2362, -1.128 -0.126 0.2362, -0.876 -0.126 0.2362, -0.5217 -0.3819 0.2362, 0.124 0.126 0.2362, -0.128 0.126 0.2362, -0.4823 0.3819 0.2362, -1.4823 -0.3819 0.2362, -1.502 -0.3622 0.2362, -1.502 0.3622 0.2362, -0.128 -0.126 0.2362, 0.124 -0.126 0.2362, 0.4783 -0.3819 0.2362, 1.124 0.126 0.2362, 0.872 0.126 0.2362, 0.5177 0.3819 0.2362, -0.5217 0.3819 0.2362, -0.502 0.3622 0.2362, -0.502 -0.3622 0.2362, -0.4823 -0.3819 0.2362, 0.872 -0.126 0.2362, 1.124 -0.126 0.2362, 1.4783 -0.3819 0.2362, 0.4783 0.3819 0.2362, 0.498 0.3622 0.2362, 0.498 -0.3622 0.2362, 0.5177 -0.3819 0.2362, 1.4783 0.3819 0.2362, 1.3602 0.5 0.9843, 1.124 0.126 0.9843, -0.876 0.126 0.9843, -0.502 0.3622 0.9843, -1.128 0.126 0.9843, -0.6398 0.5 0.9843, 1.124 -0.126 0.9843, 1.3602 -0.5 0.9843, 0.872 -0.126 0.9843, 0.124 -0.126 0.9843, 0.124 0.126 0.9843, 0.498 0.3622 0.9843, -0.128 0.126 0.9843, 0.3602 0.5 0.9843, -0.3642 -0.5 0.9843, 0.3602 -0.5 0.9843, -0.502 -0.3622 0.9843, -0.876 -0.126 0.9843, -0.6398 -0.5 0.9843, -1.128 -0.126 0.9843, -1.3642 -0.5 0.9843, -1.3642 0.5 0.9843, -1.502 0.3622 0.9843, -1.502 -0.3622 0.9843, 0.6358 -0.5 0.9843, 0.498 -0.3622 0.9843, -0.128 -0.126 0.9843, -0.3642 0.5 0.9843, 0.872 0.126 0.9843, 0.6358 0.5 0.9843, 0.5177 0.3819 0.1969, 0.6358 0.5 0.1969, 0.6437 0.3819 0.1969, 0.6437 0.5 0.1969, 1.3602 0.5 0.1969, 1.4783 0.3819 0.1969, 1.3524 0.5 0.1969, 1.3524 0.3819 0.1969, 1.4783 -0.3819 0.1969, 1.3602 -0.5 0.1969, 1.3524 -0.3819 0.1969, 1.3524 -0.5 0.1969, 0.6358 -0.5 0.1969, 0.5177 -0.3819 0.1969, 0.6437 -0.5 0.1969, 0.6437 -0.3819 0.1969, 0.6437 0.5 0.0, 1.3524 0.5 0.0, 0.6437 -0.5 0.0, 1.3524 -0.5 0.0, 0.6437 -0.3819 0.0, 1.3524 -0.3819 0.0, 1.3524 0.3819 0.0, 0.6437 0.3819 0.0, -0.4823 0.3819 0.1969, -0.3642 0.5 0.1969, -0.3563 0.3819 0.1969, -0.3563 0.5 0.1969, 0.3602 0.5 0.1969, 0.4783 0.3819 0.1969, 0.3524 0.5 0.1969, 0.3524 0.3819 0.1969, 0.4783 -0.3819 0.1969, 0.3602 -0.5 0.1969, 0.3524 -0.3819 0.1969, 0.3524 -0.5 0.1969, -0.3642 -0.5 0.1969, -0.4823 -0.3819 0.1969, -0.3563 -0.5 0.1969, -0.3563 -0.3819 0.1969, -0.3563 0.5 0.0, 0.3524 0.5 0.0, -0.3563 -0.5 0.0, 0.3524 -0.5 0.0, -0.3563 -0.3819 0.0, 0.3524 -0.3819 0.0, 0.3524 0.3819 0.0, -0.3563 0.3819 0.0, -1.4823 0.3819 0.1969, -1.3642 0.5 0.1969, -1.3563 0.3819 0.1969, -1.3563 0.5 0.1969, -0.6398 0.5 0.1969, -0.5217 0.3819 0.1969, -0.6476 0.5 0.1969, -0.6476 0.3819 0.1969, -0.5217 -0.3819 0.1969, -0.6398 -0.5 0.1969, -0.6476 -0.3819 0.1969, -0.6476 -0.5 0.1969, -1.3642 -0.5 0.1969, -1.4823 -0.3819 0.1969, -1.3563 -0.5 0.1969, -1.3563 -0.3819 0.1969, -1.3563 0.5 0.0, -0.6476 0.5 0.0, -0.6476 -0.5 0.0, -1.3563 -0.5 0.0, -1.3563 -0.3819 0.0, -0.6476 -0.3819 0.0, -0.6476 0.3819 0.0, -1.3563 0.3819 0.0
            ]
        }
        coordIndex [
            0,1,2,-1,3,4,5,-1,6,7,8,-1,9,10,11,-1,12,13,14,-1,15,16,17,-1,18,19,20,-1,18,20,21,-1,19,22,20,-1,20,22,23,-1,20,23,16,-1,16,23,24,-1,16,24,17,-1,25,26,27,-1,25,27,28,-1,26,29,27,-1,27,29,30,-1,27,30,20,-1,20,30,31,-1,20,31,21,-1,32,33,34,-1,34,33,35,-1,34,35,36,-1,36,37,34,-1,34,37,38,-1,34,38,27,-1,27,38,39,-1,27,39,28,-1,40,41,42,-1,40,42,43,-1,41,44,42,-1,42,44,45,-1,42,45,46,-1,47,48,49,-1,49,48,50,-1,49,50,51,-1,52,53,51,-1,51,53,54,-1,51,54,49,-1,49,54,55,-1,42,56,57,-1,46,58,42,-1,42,58,59,-1,42,59,60,-1,61,62,63,-1,63,62,64,-1,63,64,65,-1,60,66,42,-1,42,66,67,-1,42,67,56,-1,68,69,70,-1,70,69,71,-1,70,71,42,-1,42,71,72,-1,42,72,43,-1,65,73,63,-1,63,73,55,-1,63,55,74,-1,74,55,54,-1,75,76,32,-1,76,77,32,-1,32,77,78,-1,32,78,79,-1,79,80,32,-1,32,80,81,-1,32,81,82,-1,82,81,68,-1,82,68,83,-1,83,68,70,-1,84,85,86,-1,84,86,87,-1,57,88,42,-1,42,88,89,-1,42,89,90,-1,90,89,91,-1,90,91,92,-1,93,94,95,-1,95,94,96,-1,95,96,97,-1,98,99,100,-1,100,99,95,-1,100,95,101,-1,101,95,97,-1,90,102,103,-1,92,104,90,-1,90,104,105,-1,90,105,102,-1,106,107,108,-1,108,107,90,-1,108,90,109,-1,109,90,103,-1,106,86,107,-1,107,86,85,-1,107,85,14,-1,14,85,110,-1,14,110,12,-1,111,112,98,-1,98,112,113,-1,98,113,99,-1,111,114,112,-1,112,114,115,-1,112,115,116,-1,117,118,119,-1,118,120,119,-1,119,120,121,-1,119,121,122,-1,94,119,123,-1,93,87,94,-1,94,87,86,-1,94,86,119,-1,119,86,124,-1,119,124,117,-1,123,125,94,-1,94,125,126,-1,94,126,127,-1,122,121,128,-1,128,121,129,-1,128,129,130,-1,130,129,131,-1,130,131,132,-1,133,134,127,-1,127,134,135,-1,127,135,94,-1,136,137,138,-1,138,137,139,-1,138,139,63,-1,63,139,140,-1,63,140,61,-1,141,142,136,-1,136,142,143,-1,136,143,137,-1,144,47,145,-1,145,47,49,-1,145,49,146,-1,146,49,147,-1,146,147,136,-1,148,149,150,-1,150,9,148,-1,148,9,11,-1,148,11,147,-1,147,11,151,-1,147,151,152,-1,136,147,141,-1,141,147,152,-1,141,152,153,-1,153,152,150,-1,153,150,154,-1,149,155,150,-1,150,155,156,-1,150,156,157,-1,158,159,149,-1,149,159,160,-1,149,160,161,-1,162,163,149,-1,149,163,164,-1,149,164,155,-1,157,165,150,-1,150,165,166,-1,150,166,154,-1,161,167,149,-1,149,167,168,-1,149,168,169,-1,170,171,149,-1,149,171,172,-1,149,172,162,-1,173,170,174,-1,174,170,149,-1,174,149,175,-1,175,149,169,-1,176,177,158,-1,158,177,178,-1,158,178,159,-1,179,180,181,-1,181,180,182,-1,182,180,183,-1,182,183,184,-1,184,183,185,-1,184,185,186,-1,186,185,187,-1,186,187,188,-1,188,187,189,-1,188,189,190,-1,190,189,191,-1,190,191,192,-1,193,194,192,-1,192,194,179,-1,192,179,190,-1,190,179,181,-1,195,196,182,-1,197,198,181,-1,181,198,199,-1,181,199,200,-1,200,201,181,-1,181,201,202,-1,181,202,203,-1,196,204,182,-1,182,204,205,-1,182,205,181,-1,181,205,206,-1,181,206,197,-1,207,208,209,-1,209,208,210,-1,209,210,211,-1,211,210,212,-1,213,214,184,-1,184,214,215,-1,184,215,182,-1,182,215,216,-1,182,216,195,-1,217,218,203,-1,203,218,219,-1,202,207,203,-1,203,207,209,-1,203,209,217,-1,217,209,220,-1,217,220,221,-1,221,220,222,-1,221,222,223,-1,223,222,224,-1,225,226,227,-1,227,226,228,-1,227,228,209,-1,209,228,229,-1,209,229,220,-1,230,225,231,-1,231,225,227,-1,231,227,232,-1,232,227,209,-1,232,209,233,-1,233,209,211,-1,233,211,234,-1,234,211,235,-1,234,235,236,-1,236,235,237,-1,236,237,7,-1,218,238,219,-1,219,238,6,-1,219,6,239,-1,239,6,8,-1,240,241,242,-1,242,243,240,-1,240,243,244,-1,240,244,245,-1,245,244,246,-1,245,246,247,-1,248,249,250,-1,250,249,251,-1,252,253,254,-1,254,253,255,-1,256,257,255,-1,258,259,260,-1,261,262,263,-1,263,262,264,-1,263,264,265,-1,258,266,254,-1,254,266,267,-1,254,267,252,-1,260,268,258,-1,258,268,269,-1,258,269,266,-1,265,270,263,-1,263,270,271,-1,263,271,272,-1,273,274,275,-1,274,276,275,-1,275,276,277,-1,275,277,258,-1,258,277,278,-1,258,278,259,-1,279,280,281,-1,281,280,282,-1,281,282,275,-1,275,282,283,-1,275,283,273,-1,284,285,286,-1,286,285,287,-1,286,287,288,-1,286,289,284,-1,284,289,290,-1,284,290,291,-1,291,292,284,-1,284,292,293,-1,284,293,294,-1,294,293,295,-1,294,295,296,-1,296,295,297,-1,296,297,255,-1,255,297,298,-1,255,298,256,-1,279,299,280,-1,280,299,300,-1,280,300,301,-1,301,300,302,-1,301,303,304,-1,305,306,288,-1,288,306,307,-1,288,307,286,-1,302,308,301,-1,301,308,309,-1,301,309,310,-1,310,311,301,-1,301,311,312,-1,301,312,303,-1,304,313,301,-1,301,313,314,-1,301,314,315,-1,316,317,318,-1,272,319,263,-1,263,319,316,-1,263,316,320,-1,320,316,318,-1,321,322,184,-1,184,322,323,-1,324,325,323,-1,323,325,211,-1,323,211,184,-1,184,211,212,-1,184,212,213,-1,325,326,211,-1,211,326,327,-1,211,327,235,-1,235,327,328,-1,235,328,329,-1,329,328,330,-1,329,330,331,-1,331,330,332,-1,331,332,333,-1,334,335,237,-1,237,335,336,-1,337,338,339,-1,339,338,340,-1,339,340,341,-1,337,342,237,-1,343,344,345,-1,345,344,346,-1,345,346,347,-1,346,334,347,-1,347,334,237,-1,347,237,348,-1,348,237,342,-1,348,342,349,-1,349,342,350,-1,349,350,351,-1,351,350,352,-1,335,353,336,-1,336,353,354,-1,336,354,355,-1,355,354,341,-1,355,341,356,-1,356,341,340,-1,357,358,359,-1,359,358,360,-1,357,361,358,-1,358,361,362,-1,358,362,363,-1,363,362,364,-1,5,4,356,-1,356,4,365,-1,356,365,355,-1,355,365,366,-1,355,366,367,-1,367,366,368,-1,367,368,358,-1,358,368,369,-1,358,369,370,-1,370,371,358,-1,358,371,372,-1,358,372,373,-1,362,374,375,-1,373,376,358,-1,358,376,377,-1,358,377,360,-1,374,362,378,-1,378,362,379,-1,378,379,380,-1,375,381,362,-1,362,381,382,-1,362,382,364,-1,383,384,148,-1,385,386,147,-1,147,386,387,-1,147,387,388,-1,384,389,148,-1,148,389,390,-1,148,390,391,-1,388,392,147,-1,147,392,393,-1,147,393,148,-1,148,393,394,-1,148,394,383,-1,391,395,148,-1,148,395,396,-1,148,396,5,-1,5,396,397,-1,5,397,3,-1,398,399,49,-1,49,399,400,-1,49,400,147,-1,147,400,401,-1,147,401,385,-1,367,402,355,-1,355,402,403,-1,355,403,404,-1,404,403,405,-1,404,405,406,-1,407,408,409,-1,407,409,410,-1,411,412,413,-1,413,412,414,-1,55,415,416,-1,417,418,419,-1,416,420,55,-1,55,420,421,-1,55,421,422,-1,408,423,409,-1,409,423,424,-1,409,424,425,-1,425,424,419,-1,425,419,426,-1,426,419,418,-1,427,428,49,-1,422,429,55,-1,55,429,430,-1,55,430,431,-1,431,410,55,-1,55,410,409,-1,55,409,49,-1,49,409,432,-1,49,432,427,-1,433,434,414,-1,414,434,435,-1,414,435,436,-1,437,438,419,-1,419,438,439,-1,419,439,440,-1,441,398,442,-1,442,398,49,-1,442,49,443,-1,443,49,428,-1,443,444,442,-1,442,444,445,-1,442,445,446,-1,446,447,442,-1,442,447,448,-1,442,448,449,-1,440,450,419,-1,419,450,451,-1,419,451,417,-1,452,34,453,-1,453,34,454,-1,453,454,455,-1,452,415,34,-1,34,415,55,-1,34,55,32,-1,32,55,73,-1,32,73,75,-1,456,457,263,-1,257,261,255,-1,255,261,263,-1,255,263,254,-1,254,263,457,-1,254,457,247,-1,247,457,458,-1,247,458,245,-1,263,459,456,-1,456,459,460,-1,456,460,461,-1,462,463,459,-1,459,463,464,-1,459,464,460,-1,465,466,467,-1,465,467,320,-1,459,468,469,-1,467,470,320,-1,320,470,471,-1,320,471,263,-1,263,471,472,-1,263,472,459,-1,459,472,473,-1,459,473,468,-1,469,474,459,-1,459,474,475,-1,459,475,462,-1,476,477,478,-1,478,477,479,-1,479,480,478,-1,478,480,481,-1,478,481,465,-1,465,481,482,-1,465,482,466,-1,0,483,484,-1,484,483,485,-1,484,485,486,-1,486,485,487,-1,486,487,488,-1,488,487,478,-1,488,478,489,-1,489,478,465,-1,489,465,490,-1,490,465,320,-1,490,320,491,-1,491,320,318,-1,491,318,492,-1,492,318,454,-1,492,454,493,-1,493,454,34,-1,493,34,494,-1,494,34,27,-1,317,251,318,-1,318,251,249,-1,318,249,454,-1,454,249,413,-1,454,413,455,-1,455,413,414,-1,455,414,495,-1,495,414,436,-1,483,190,485,-1,485,190,181,-1,485,181,487,-1,487,181,203,-1,487,203,478,-1,478,203,219,-1,478,219,476,-1,476,219,239,-1,248,275,249,-1,249,275,258,-1,249,258,413,-1,413,258,442,-1,413,442,411,-1,411,442,449,-1,406,441,404,-1,404,441,442,-1,404,442,355,-1,355,442,258,-1,355,258,336,-1,336,258,254,-1,336,254,237,-1,237,254,247,-1,237,247,7,-1,7,247,246,-1,7,246,8,-1,496,497,235,-1,235,497,498,-1,235,498,499,-1,337,237,338,-1,338,237,500,-1,338,500,329,-1,499,501,235,-1,235,501,502,-1,235,502,237,-1,237,502,503,-1,237,503,500,-1,500,504,329,-1,329,504,505,-1,329,505,506,-1,507,508,329,-1,329,508,509,-1,329,509,235,-1,235,509,510,-1,235,510,496,-1,506,511,329,-1,329,511,512,-1,329,512,507,-1,186,513,184,-1,184,513,333,-1,184,333,321,-1,321,333,332,-1,0,2,483,-1,483,2,514,-1,483,514,190,-1,190,514,515,-1,190,515,188,-1,188,515,516,-1,188,516,186,-1,186,516,517,-1,186,517,513,-1,518,519,520,-1,521,522,523,-1,524,525,526,-1,523,527,521,-1,521,527,528,-1,521,528,519,-1,519,528,529,-1,519,529,520,-1,530,531,532,-1,533,534,535,-1,520,536,518,-1,518,536,537,-1,518,537,522,-1,522,537,538,-1,522,538,523,-1,532,539,530,-1,530,539,538,-1,530,538,525,-1,525,538,537,-1,525,537,526,-1,540,541,542,-1,526,543,524,-1,524,543,544,-1,524,544,531,-1,531,544,545,-1,531,545,532,-1,542,546,540,-1,540,546,545,-1,540,545,534,-1,534,545,544,-1,534,544,535,-1,535,547,533,-1,533,547,1,-1,533,1,0,-1,0,484,533,-1,533,484,486,-1,533,486,488,-1,488,489,533,-1,533,489,490,-1,533,490,491,-1,491,492,533,-1,533,492,493,-1,533,493,541,-1,541,493,494,-1,541,494,542,-1,513,517,548,-1,549,148,5,-1,550,551,552,-1,552,551,553,-1,148,549,149,-1,149,549,554,-1,149,554,555,-1,555,554,556,-1,555,556,557,-1,558,559,560,-1,560,559,561,-1,562,563,564,-1,564,563,565,-1,564,565,566,-1,566,565,567,-1,566,567,568,-1,553,569,552,-1,552,569,570,-1,552,570,567,-1,567,570,571,-1,567,571,568,-1,572,555,573,-1,573,555,557,-1,573,557,563,-1,563,557,574,-1,563,574,565,-1,561,575,560,-1,560,575,551,-1,560,551,574,-1,574,551,550,-1,574,550,565,-1,5,356,549,-1,549,356,340,-1,549,340,338,-1,338,329,549,-1,549,329,331,-1,549,331,333,-1,333,513,549,-1,549,513,548,-1,549,548,576,-1,576,548,577,-1,576,577,556,-1,556,577,559,-1,556,559,557,-1,557,559,558,-1,578,579,580,-1,580,579,581,-1,582,583,584,-1,584,583,585,-1,586,587,588,-1,588,587,589,-1,590,591,592,-1,592,591,593,-1,548,582,577,-1,577,582,584,-1,579,577,581,-1,581,577,584,-1,581,584,594,-1,594,584,595,-1,589,587,555,-1,572,590,592,-1,596,597,592,-1,592,597,589,-1,592,589,572,-1,572,589,555,-1,591,590,546,-1,546,590,572,-1,546,572,545,-1,545,572,573,-1,579,578,535,-1,544,559,535,-1,535,559,577,-1,535,577,579,-1,555,587,542,-1,542,587,586,-1,16,15,555,-1,542,494,27,-1,15,176,555,-1,555,176,158,-1,555,158,149,-1,542,27,555,-1,555,27,20,-1,555,20,16,-1,583,582,547,-1,547,582,548,-1,547,548,1,-1,1,548,517,-1,546,542,588,-1,588,542,586,-1,591,546,593,-1,593,546,588,-1,593,588,598,-1,598,588,599,-1,547,535,580,-1,580,535,578,-1,583,547,585,-1,585,547,580,-1,585,580,600,-1,600,580,601,-1,597,599,589,-1,589,599,588,-1,598,596,593,-1,593,596,592,-1,596,598,597,-1,597,598,599,-1,600,595,585,-1,585,595,584,-1,594,601,581,-1,581,601,580,-1,600,601,595,-1,595,601,594,-1,602,603,604,-1,604,603,605,-1,606,607,608,-1,608,607,609,-1,610,611,612,-1,612,611,613,-1,614,615,616,-1,616,615,617,-1,561,606,575,-1,575,606,608,-1,603,575,605,-1,605,575,608,-1,605,608,618,-1,618,608,619,-1,613,611,563,-1,562,614,616,-1,620,621,616,-1,616,621,613,-1,616,613,562,-1,562,613,563,-1,615,614,539,-1,539,614,562,-1,539,562,538,-1,538,562,564,-1,603,602,526,-1,537,551,526,-1,526,551,575,-1,526,575,603,-1,611,610,532,-1,545,573,532,-1,532,573,563,-1,532,563,611,-1,607,606,543,-1,543,606,561,-1,543,561,544,-1,544,561,559,-1,539,532,612,-1,612,532,610,-1,615,539,617,-1,617,539,612,-1,617,612,622,-1,622,612,623,-1,543,526,604,-1,604,526,602,-1,607,543,609,-1,609,543,604,-1,609,604,624,-1,624,604,625,-1,621,623,613,-1,613,623,612,-1,622,620,617,-1,617,620,616,-1,620,622,621,-1,621,622,623,-1,624,619,609,-1,609,619,608,-1,618,625,605,-1,605,625,604,-1,624,625,619,-1,619,625,618,-1,626,627,628,-1,628,627,629,-1,630,631,632,-1,632,631,633,-1,634,635,636,-1,636,635,637,-1,638,639,640,-1,640,639,641,-1,571,570,528,-1,528,570,529,-1,553,630,569,-1,569,630,632,-1,627,569,629,-1,629,569,632,-1,629,632,642,-1,642,632,643,-1,568,638,566,-1,566,638,640,-1,635,566,637,-1,637,566,640,-1,637,640,644,-1,644,640,645,-1,639,638,527,-1,527,638,568,-1,527,568,528,-1,528,568,571,-1,627,626,520,-1,529,570,520,-1,520,570,569,-1,520,569,627,-1,635,634,523,-1,538,564,523,-1,523,564,566,-1,523,566,635,-1,631,630,536,-1,536,630,553,-1,536,553,537,-1,537,553,551,-1,527,523,636,-1,636,523,634,-1,639,527,641,-1,641,527,636,-1,641,636,646,-1,646,636,647,-1,536,520,628,-1,628,520,626,-1,631,536,633,-1,633,536,628,-1,633,628,648,-1,648,628,649,-1,644,647,637,-1,637,647,636,-1,646,645,641,-1,641,645,640,-1,645,646,644,-1,644,646,647,-1,648,643,633,-1,633,643,632,-1,642,649,629,-1,629,649,628,-1,648,649,643,-1,643,649,642,-1,
        ]
    }
}
Shape{
    appearance Appearance {
        material  Material 	{
            diffuseColor 0.7529411764705882 0.7529411764705882 0.7529411764705882
            specularColor 0.3764705882352941 0.3764705882352941 0.3764705882352941
            ambientIntensity 0.7529
            transparency 0.0
            shininess 0.5
        }
    }
    geometry IndexedFaceSet {
        ccw TRUE
        solid FALSE
        coord DEF co Coordinate {
            point [
                0.9248 -0.0732 -1.1811, 0.9248 0.0732 -1.1811, 1.0713 -0.0732 -1.1811, 1.0713 0.0732 -1.1811, 1.124 0.126 -0.9842, 1.124 0.126 0.2362, 1.124 -0.126 -0.9842, 1.124 -0.126 0.2362, 0.872 -0.126 -0.9842, 0.872 -0.126 0.2362, 0.872 0.126 -0.9842, 0.872 0.126 0.2362, 0.872 -0.126 3.1496, 0.872 -0.126 0.9843, 1.124 -0.126 3.1496, 1.124 -0.126 0.9843, 1.124 0.126 3.1496, 1.124 0.126 0.9843, 0.872 0.126 3.1496, 0.872 0.126 0.9843, 0.9248 0.0732 3.3465, 0.9248 -0.0732 3.3465, 1.0713 0.0732 3.3465, 1.0713 -0.0732 3.3465, -0.128 -0.126 3.1496, -0.128 -0.126 0.9843, 0.124 -0.126 3.1496, 0.124 -0.126 0.9843, -0.128 0.126 3.1496, -0.128 0.126 0.9843, 0.124 0.126 3.1496, 0.124 0.126 0.9843, -0.0752 0.0732 3.3465, -0.0752 -0.0732 3.3465, 0.0713 0.0732 3.3465, 0.0713 -0.0732 3.3465, -1.128 -0.126 3.1496, -1.128 -0.126 0.9843, -0.876 -0.126 3.1496, -0.876 -0.126 0.9843, -1.128 0.126 3.1496, -1.128 0.126 0.9843, -0.876 0.126 3.1496, -0.876 0.126 0.9843, -1.0752 0.0732 3.3465, -1.0752 -0.0732 3.3465, -0.9287 0.0732 3.3465, -0.9287 -0.0732 3.3465, -0.0752 -0.0732 -1.1811, -0.0752 0.0732 -1.1811, 0.0713 -0.0732 -1.1811, 0.0713 0.0732 -1.1811, 0.124 0.126 -0.9842, 0.124 0.126 0.2362, 0.124 -0.126 -0.9842, 0.124 -0.126 0.2362, -0.128 0.126 -0.9842, -0.128 0.126 0.2362, -0.128 -0.126 -0.9842, -0.128 -0.126 0.2362, -1.0752 -0.0732 -1.1811, -1.0752 0.0732 -1.1811, -0.9287 -0.0732 -1.1811, -0.9287 0.0732 -1.1811, -0.876 0.126 -0.9842, -0.876 0.126 0.2362, -0.876 -0.126 -0.9842, -0.876 -0.126 0.2362, -1.128 0.126 -0.9842, -1.128 0.126 0.2362, -1.128 -0.126 -0.9842, -1.128 -0.126 0.2362
            ]
        }
        coordIndex [
            0,1,2,-1,2,1,3,-1,4,5,6,-1,6,5,7,-1,8,9,10,-1,10,9,11,-1,10,11,4,-1,4,11,5,-1,6,7,8,-1,8,7,9,-1,12,13,14,-1,14,13,15,-1,16,17,18,-1,18,17,19,-1,14,15,16,-1,16,15,17,-1,18,19,12,-1,12,19,13,-1,20,21,22,-1,22,21,23,-1,4,3,10,-1,10,3,1,-1,6,2,4,-1,4,2,3,-1,0,8,1,-1,1,8,10,-1,8,0,6,-1,6,0,2,-1,14,23,12,-1,12,23,21,-1,16,22,14,-1,14,22,23,-1,20,18,21,-1,21,18,12,-1,18,20,16,-1,16,20,22,-1,24,25,26,-1,26,25,27,-1,28,29,24,-1,24,29,25,-1,30,31,28,-1,28,31,29,-1,26,27,30,-1,30,27,31,-1,32,33,34,-1,34,33,35,-1,30,34,26,-1,26,34,35,-1,26,35,24,-1,24,35,33,-1,32,28,33,-1,33,28,24,-1,28,32,30,-1,30,32,34,-1,36,37,38,-1,38,37,39,-1,40,41,36,-1,36,41,37,-1,42,43,40,-1,40,43,41,-1,38,39,42,-1,42,39,43,-1,44,45,46,-1,46,45,47,-1,42,46,38,-1,38,46,47,-1,38,47,36,-1,36,47,45,-1,44,40,45,-1,45,40,36,-1,40,44,42,-1,42,44,46,-1,48,49,50,-1,50,49,51,-1,52,53,54,-1,54,53,55,-1,56,57,52,-1,52,57,53,-1,58,59,56,-1,56,59,57,-1,54,55,58,-1,58,55,59,-1,54,50,52,-1,52,50,51,-1,52,51,56,-1,56,51,49,-1,48,58,49,-1,49,58,56,-1,58,48,54,-1,54,48,50,-1,60,61,62,-1,62,61,63,-1,64,65,66,-1,66,65,67,-1,68,69,64,-1,64,69,65,-1,70,71,68,-1,68,71,69,-1,66,67,70,-1,70,67,71,-1,66,62,64,-1,64,62,63,-1,64,63,68,-1,68,63,61,-1,60,70,61,-1,61,70,68,-1,70,60,66,-1,66,60,62,-1,
        ]
    }
}
Shape{
    appearance Appearance {
        material  Material 	{
            diffuseColor 1.0 1.0 1.0
            specularColor 0.5019607843137255 0.5019607843137255 0.5019607843137255
            ambientIntensity 1.0
            transparency 0.0
            shininess 0.5
        }
    }
    geometry IndexedFaceSet {
        ccw TRUE
        solid FALSE
        coord DEF co Coordinate {
            point [
                1.502 0.0303 0.5358, 1.502 0.0303 0.5282, 1.498 0.0303 0.5358, 1.498 0.0303 0.5282, 1.502 0.0037 0.5358, 1.498 0.0037 0.5358, 1.502 0.0037 0.5949, 1.498 0.0037 0.5949, 1.502 -0.0049 0.5949, 1.498 -0.0049 0.5949, 1.502 -0.0049 0.5282, 1.498 -0.0049 0.5282, 1.498 0.083 0.5309, 1.502 0.083 0.5309, 1.502 0.0818 0.5304, 1.502 0.0645 0.527, 1.498 0.0645 0.527, 1.502 0.0747 0.528, 1.498 0.0704 0.5276, 1.498 0.0747 0.528, 1.498 0.0801 0.5298, 1.498 0.0818 0.5304, 1.502 0.083 0.5392, 1.498 0.083 0.5392, 1.498 0.0801 0.5379, 1.502 0.0768 0.5363, 1.498 0.0768 0.5363, 1.498 0.0693 0.5349, 1.502 0.0693 0.5349, 1.498 0.0657 0.5347, 1.502 0.0657 0.5347, 1.498 0.059 0.5355, 1.502 0.059 0.5355, 1.498 0.0543 0.5374, 1.502 0.0543 0.5374, 1.498 0.0499 0.5404, 1.502 0.0499 0.5404, 1.498 0.0486 0.5417, 1.502 0.0486 0.5417, 1.498 0.0452 0.5465, 1.502 0.0452 0.5465, 1.498 0.0431 0.552, 1.502 0.0431 0.552, 1.498 0.0421 0.5602, 1.502 0.0421 0.5602, 1.498 0.042 0.5608, 1.502 0.042 0.5608, 1.498 0.0429 0.5688, 1.502 0.0429 0.5688, 1.498 0.0449 0.5748, 1.502 0.0449 0.5748, 1.498 0.048 0.5796, 1.502 0.048 0.5796, 1.498 0.0491 0.5808, 1.502 0.0491 0.5808, 1.498 0.0533 0.5844, 1.502 0.0533 0.5844, 1.498 0.0585 0.5869, 1.502 0.0585 0.5869, 1.498 0.0643 0.5881, 1.502 0.0643 0.5881, 1.498 0.0672 0.5882, 1.502 0.0672 0.5882, 1.498 0.083 0.5843, 1.502 0.083 0.5843, 1.502 0.0816 0.585, 1.498 0.0748 0.5874, 1.502 0.0748 0.5874, 1.498 0.0801 0.5855, 1.498 0.0816 0.585, 1.502 0.083 0.5933, 1.498 0.083 0.5933, 1.498 0.0801 0.5941, 1.502 0.0765 0.5952, 1.498 0.0765 0.5952, 1.498 0.0679 0.596, 1.502 0.0679 0.596, 1.498 0.0672 0.596, 1.502 0.0672 0.596, 1.498 0.059 0.5952, 1.502 0.059 0.5952, 1.498 0.0518 0.5928, 1.502 0.0518 0.5928, 1.498 0.0451 0.5885, 1.502 0.0451 0.5885, 1.498 0.0426 0.5862, 1.502 0.0426 0.5862, 1.498 0.0382 0.5805, 1.502 0.0382 0.5805, 1.498 0.0349 0.5732, 1.502 0.0349 0.5732, 1.498 0.0332 0.5646, 1.502 0.0332 0.5646, 1.498 0.033 0.5603, 1.502 0.033 0.5603, 1.498 0.0343 0.5495, 1.502 0.0343 0.5495, 1.498 0.037 0.5426, 1.502 0.037 0.5426, 1.498 0.0409 0.5368, 1.502 0.0409 0.5368, 1.498 0.0416 0.5361, 1.502 0.0416 0.5361, 1.502 0.0602 0.5273, 1.498 0.0468 0.5318, 1.502 0.0468 0.5318, 1.498 0.053 0.5288, 1.502 0.053 0.5288, 1.498 0.0586 0.5276, 1.498 0.0602 0.5273, 1.502 0.1322 0.5358, 1.502 0.1322 0.5282, 1.498 0.1322 0.5358, 1.498 0.1322 0.5282, 1.498 0.1049 0.5358, 1.502 0.1049 0.5358, 1.498 0.123 0.5358, 1.502 0.1049 0.5582, 1.498 0.1049 0.5582, 1.502 0.1288 0.5582, 1.498 0.123 0.5582, 1.498 0.1288 0.5582, 1.502 0.1288 0.5659, 1.498 0.1288 0.5659, 1.498 0.1049 0.5659, 1.502 0.1049 0.5659, 1.498 0.123 0.5659, 1.502 0.1049 0.5872, 1.498 0.1049 0.5872, 1.502 0.1307 0.5872, 1.498 0.123 0.5872, 1.498 0.1307 0.5872, 1.502 0.1307 0.5949, 1.498 0.1307 0.5949, 1.498 0.0963 0.5949, 1.502 0.0963 0.5949, 1.498 0.123 0.5949, 1.502 0.0963 0.5282, 1.498 0.0963 0.5282, 1.498 0.123 0.5282, 1.502 0.1864 0.5471, 1.502 0.183 0.5427, 1.502 0.1891 0.5375, 1.502 0.1815 0.5414, 1.502 0.182 0.5325, 1.502 0.177 0.5386, 1.502 0.1744 0.5295, 1.502 0.1712 0.5366, 1.502 0.1632 0.5282, 1.502 0.1631 0.5358, 1.502 0.1448 0.5282, 1.502 0.1534 0.5358, 1.502 0.1448 0.5949, 1.502 0.1534 0.5872, 1.502 0.1638 0.5949, 1.502 0.1635 0.5872, 1.502 0.175 0.5935, 1.502 0.1718 0.5863, 1.502 0.1829 0.5904, 1.502 0.1776 0.5843, 1.502 0.1891 0.5861, 1.502 0.1828 0.5809, 1.502 0.1921 0.583, 1.502 0.185 0.5787, 1.502 0.1961 0.5769, 1.502 0.1875 0.5749, 1.502 0.1983 0.5703, 1.502 0.1893 0.5698, 1.502 0.1991 0.5624, 1.502 0.1901 0.5621, 1.502 0.1989 0.5575, 1.502 0.1899 0.5583, 1.502 0.1971 0.5498, 1.502 0.1887 0.5521, 1.502 0.1937 0.543, 1.498 0.1632 0.5282, 1.498 0.1448 0.5282, 1.498 0.1744 0.5295, 1.498 0.182 0.5325, 1.498 0.1891 0.5375, 1.498 0.1937 0.543, 1.498 0.1971 0.5498, 1.498 0.1989 0.5575, 1.498 0.1991 0.5624, 1.498 0.1983 0.5703, 1.498 0.1961 0.5769, 1.498 0.1921 0.583, 1.498 0.1891 0.5861, 1.498 0.1829 0.5904, 1.498 0.175 0.5935, 1.498 0.1638 0.5949, 1.498 0.1448 0.5949, 1.498 0.1635 0.5872, 1.498 0.1534 0.5872, 1.498 0.1534 0.5358, 1.498 0.1631 0.5358, 1.498 0.183 0.5427, 1.498 0.1815 0.5414, 1.498 0.177 0.5386, 1.498 0.1712 0.5366, 1.498 0.1901 0.5621, 1.498 0.1899 0.5583, 1.498 0.1887 0.5521, 1.498 0.1864 0.5471, 1.498 0.1828 0.5809, 1.498 0.185 0.5787, 1.498 0.1875 0.5749, 1.498 0.1893 0.5698, 1.498 0.1718 0.5863, 1.498 0.1776 0.5843
            ]
        }
        coordIndex [
            0,1,2,-1,2,1,3,-1,4,0,5,-1,5,0,2,-1,6,4,7,-1,7,4,5,-1,8,6,9,-1,9,6,7,-1,10,8,11,-1,11,8,9,-1,1,10,3,-1,3,10,11,-1,6,8,4,-1,4,8,10,-1,4,10,0,-1,0,10,1,-1,12,13,14,-1,15,16,17,-1,17,16,18,-1,18,19,17,-1,17,19,20,-1,17,20,14,-1,14,20,21,-1,14,21,12,-1,22,13,23,-1,23,13,12,-1,22,23,24,-1,22,24,25,-1,24,26,25,-1,25,26,27,-1,25,27,28,-1,28,27,29,-1,28,29,30,-1,30,29,31,-1,30,31,32,-1,32,31,33,-1,32,33,34,-1,34,33,35,-1,34,35,36,-1,36,35,37,-1,36,37,38,-1,38,37,39,-1,38,39,40,-1,40,39,41,-1,40,41,42,-1,42,41,43,-1,42,43,44,-1,44,43,45,-1,44,45,46,-1,46,45,47,-1,46,47,48,-1,48,47,49,-1,48,49,50,-1,50,49,51,-1,50,51,52,-1,52,51,53,-1,52,53,54,-1,54,53,55,-1,54,55,56,-1,56,55,57,-1,56,57,58,-1,58,57,59,-1,58,59,60,-1,60,59,61,-1,60,61,62,-1,63,64,65,-1,62,61,66,-1,62,66,67,-1,67,66,68,-1,67,68,65,-1,65,68,69,-1,65,69,63,-1,70,64,71,-1,71,64,63,-1,70,71,72,-1,70,72,73,-1,72,74,73,-1,73,74,75,-1,73,75,76,-1,76,75,77,-1,76,77,78,-1,78,77,79,-1,78,79,80,-1,80,79,81,-1,80,81,82,-1,82,81,83,-1,82,83,84,-1,84,83,85,-1,84,85,86,-1,86,85,87,-1,86,87,88,-1,88,87,89,-1,88,89,90,-1,90,89,91,-1,90,91,92,-1,92,91,93,-1,92,93,94,-1,94,93,95,-1,94,95,96,-1,96,95,97,-1,96,97,98,-1,98,97,99,-1,98,99,100,-1,100,99,101,-1,100,101,102,-1,16,15,103,-1,102,101,104,-1,102,104,105,-1,105,104,106,-1,105,106,107,-1,107,106,108,-1,107,108,103,-1,103,108,109,-1,103,109,16,-1,65,64,70,-1,56,58,80,-1,40,42,96,-1,48,50,88,-1,80,58,78,-1,65,70,67,-1,96,42,94,-1,88,50,86,-1,58,60,78,-1,78,60,62,-1,78,62,76,-1,76,62,67,-1,76,67,73,-1,73,67,70,-1,96,98,40,-1,40,98,100,-1,40,100,38,-1,38,100,102,-1,38,102,36,-1,36,102,105,-1,36,105,34,-1,34,105,107,-1,34,107,32,-1,32,107,103,-1,32,103,30,-1,30,103,15,-1,30,15,28,-1,28,15,17,-1,28,17,25,-1,25,17,14,-1,25,14,22,-1,22,14,13,-1,80,82,56,-1,56,82,84,-1,56,84,54,-1,54,84,86,-1,54,86,52,-1,52,86,50,-1,42,44,94,-1,94,44,46,-1,94,46,92,-1,92,46,48,-1,92,48,90,-1,90,48,88,-1,110,111,112,-1,112,111,113,-1,114,115,116,-1,116,115,110,-1,116,110,112,-1,117,115,118,-1,118,115,114,-1,117,118,119,-1,119,118,120,-1,119,120,121,-1,122,119,123,-1,123,119,121,-1,124,125,126,-1,126,125,122,-1,126,122,123,-1,127,125,128,-1,128,125,124,-1,127,128,129,-1,129,128,130,-1,129,130,131,-1,132,129,133,-1,133,129,131,-1,134,135,136,-1,136,135,132,-1,136,132,133,-1,137,135,138,-1,138,135,134,-1,137,138,111,-1,111,138,139,-1,111,139,113,-1,137,111,110,-1,110,115,137,-1,137,115,117,-1,137,117,135,-1,129,132,127,-1,127,132,135,-1,127,135,125,-1,125,135,117,-1,125,117,122,-1,122,117,119,-1,140,141,142,-1,142,141,143,-1,142,143,144,-1,144,143,145,-1,144,145,146,-1,146,145,147,-1,146,147,148,-1,148,147,149,-1,148,149,150,-1,150,149,151,-1,150,151,152,-1,152,151,153,-1,152,153,154,-1,154,153,155,-1,154,155,156,-1,156,155,157,-1,156,157,158,-1,158,157,159,-1,158,159,160,-1,160,159,161,-1,160,161,162,-1,162,161,163,-1,162,163,164,-1,164,163,165,-1,164,165,166,-1,166,165,167,-1,166,167,168,-1,168,167,169,-1,168,169,170,-1,170,169,171,-1,170,171,172,-1,172,171,173,-1,172,173,174,-1,174,173,140,-1,174,140,142,-1,148,150,175,-1,175,150,176,-1,148,175,177,-1,148,177,146,-1,146,177,178,-1,146,178,144,-1,144,178,179,-1,144,179,142,-1,142,179,180,-1,142,180,174,-1,174,180,181,-1,174,181,172,-1,172,181,182,-1,172,182,170,-1,170,182,183,-1,170,183,168,-1,168,183,184,-1,168,184,166,-1,166,184,185,-1,166,185,164,-1,164,185,186,-1,164,186,162,-1,162,186,187,-1,162,187,160,-1,160,187,188,-1,160,188,158,-1,158,188,189,-1,158,189,156,-1,156,189,190,-1,156,190,154,-1,152,154,191,-1,191,154,190,-1,150,152,176,-1,176,152,191,-1,155,153,192,-1,192,153,193,-1,153,151,193,-1,193,151,194,-1,151,149,194,-1,194,149,195,-1,141,196,197,-1,141,197,143,-1,143,197,198,-1,143,198,145,-1,145,198,199,-1,145,199,147,-1,147,199,195,-1,147,195,149,-1,169,200,201,-1,169,201,171,-1,171,201,202,-1,171,202,173,-1,173,202,203,-1,173,203,140,-1,140,203,196,-1,140,196,141,-1,161,204,205,-1,161,205,163,-1,163,205,206,-1,163,206,165,-1,165,206,207,-1,165,207,167,-1,167,207,200,-1,167,200,169,-1,155,192,208,-1,155,208,157,-1,157,208,209,-1,157,209,159,-1,159,209,204,-1,159,204,161,-1,
        ]
    }
}
Shape{
    appearance Appearance {
        material  Material 	{
            diffuseColor 0.25098039215686274 0.25098039215686274 0.25098039215686274
            specularColor 0.12549019607843137 0.12549019607843137 0.12549019607843137
            ambientIntensity 0.251
            transparency 0.0
            shininess 0.5
        }
    }
    geometry IndexedFaceSet {
        ccw TRUE
        solid FALSE
        coord DEF co Coordinate {
            point [
                1.498 0.1534 0.5872, 1.498 0.1534 0.5358, 1.498 0.1635 0.5872, 1.498 0.1631 0.5358, 1.498 0.1712 0.5366, 1.498 0.177 0.5386, 1.498 0.1815 0.5414, 1.498 0.183 0.5427, 1.498 0.1864 0.5471, 1.498 0.1887 0.5521, 1.498 0.1899 0.5583, 1.498 0.1901 0.5621, 1.498 0.1893 0.5698, 1.498 0.1875 0.5749, 1.498 0.185 0.5787, 1.498 0.1828 0.5809, 1.498 0.1718 0.5863, 1.498 0.1776 0.5843
            ]
        }
        coordIndex [
            0,1,2,-1,2,1,3,-1,2,3,4,-1,4,5,2,-1,2,5,6,-1,2,6,7,-1,7,8,2,-1,2,8,9,-1,2,9,10,-1,10,11,2,-1,2,11,12,-1,2,12,13,-1,13,14,2,-1,2,14,15,-1,2,15,16,-1,16,15,17,-1,
        ]
    }
}
Shape{
    appearance Appearance {
        material  Material 	{
            diffuseColor 1.0 1.0 1.0
            specularColor 0.5019607843137255 0.5019607843137255 0.5019607843137255
            ambientIntensity 1.0
            transparency 0.0
            shininess 0.5
        }
    }
    geometry IndexedFaceSet {
        ccw TRUE
        solid FALSE
        coord DEF co Coordinate {
            point [
                1.502 0.2215 0.554, 1.502 0.2188 0.5464, 1.502 0.2439 0.554, 1.502 0.2466 0.5464, 1.502 0.2315 0.5817, 1.502 0.2283 0.5949, 1.502 0.2028 0.5282, 1.502 0.2124 0.5282, 1.502 0.2321 0.5837, 1.502 0.2326 0.5864, 1.502 0.2375 0.5949, 1.502 0.2328 0.5864, 1.502 0.2333 0.5835, 1.502 0.2338 0.5817, 1.502 0.2629 0.5282, 1.502 0.2534 0.5282, 1.498 0.2375 0.5949, 1.498 0.2629 0.5282, 1.498 0.2283 0.5949, 1.498 0.2028 0.5282, 1.498 0.2221 0.5787, 1.498 0.2124 0.5282, 1.498 0.2188 0.5464, 1.498 0.2466 0.5464, 1.498 0.2221 0.5464, 1.498 0.2534 0.5282, 1.498 0.2215 0.554, 1.498 0.2439 0.554, 1.498 0.2338 0.5817, 1.498 0.2328 0.5864, 1.498 0.2333 0.5835, 1.498 0.2326 0.5864, 1.498 0.2315 0.5817, 1.498 0.2321 0.5837
            ]
        }
        coordIndex [
            0,1,2,-1,2,1,3,-1,4,5,0,-1,0,5,6,-1,0,6,1,-1,1,6,7,-1,4,8,5,-1,5,8,9,-1,5,9,10,-1,10,9,11,-1,10,11,12,-1,12,13,10,-1,10,13,2,-1,10,2,14,-1,14,2,3,-1,14,3,15,-1,10,14,16,-1,16,14,17,-1,5,10,18,-1,18,10,16,-1,19,6,20,-1,20,6,5,-1,20,5,18,-1,7,6,21,-1,21,6,19,-1,1,7,22,-1,22,7,21,-1,23,3,24,-1,24,3,1,-1,24,1,22,-1,15,3,25,-1,25,3,23,-1,14,15,17,-1,17,15,25,-1,0,2,26,-1,26,2,27,-1,2,13,27,-1,27,13,28,-1,11,29,30,-1,11,30,12,-1,12,30,28,-1,12,28,13,-1,11,9,29,-1,29,9,31,-1,4,32,33,-1,4,33,8,-1,8,33,31,-1,8,31,9,-1,4,0,32,-1,32,0,26,-1,
        ]
    }
}
Shape{
    appearance Appearance {
        material  Material 	{
            diffuseColor 0.25098039215686274 0.25098039215686274 0.25098039215686274
            specularColor 0.12549019607843137 0.12549019607843137 0.12549019607843137
            ambientIntensity 0.251
            transparency 0.0
            shininess 0.5
        }
    }
    geometry IndexedFaceSet {
        ccw TRUE
        solid FALSE
        coord DEF co Coordinate {
            point [
                1.498 0.2328 0.5864, 1.498 0.2326 0.5864, 1.498 0.2333 0.5835, 1.498 0.2321 0.5837, 1.498 0.2338 0.5817, 1.498 0.2315 0.5817, 1.498 0.2439 0.554, 1.498 0.2215 0.554
            ]
        }
        coordIndex [
            0,1,2,-1,2,1,3,-1,2,3,4,-1,4,3,5,-1,4,5,6,-1,6,5,7,-1,
        ]
    }
}
Shape{
    appearance Appearance {
        material  Material 	{
            diffuseColor 1.0 1.0 1.0
            specularColor 0.5019607843137255 0.5019607843137255 0.5019607843137255
            ambientIntensity 1.0
            transparency 0.0
            shininess 0.5
        }
    }
    geometry IndexedFaceSet {
        ccw TRUE
        solid FALSE
        coord DEF co Coordinate {
            point [
                1.502 0.031 0.4299, 1.502 0.031 0.4223, 1.498 0.031 0.4299, 1.498 0.031 0.4223, 1.502 0.0037 0.4299, 1.498 0.0037 0.4299, 1.502 0.0037 0.4524, 1.498 0.0037 0.4524, 1.502 0.0276 0.4524, 1.498 0.0276 0.4524, 1.502 0.0276 0.46, 1.498 0.0276 0.46, 1.502 0.0037 0.46, 1.498 0.0037 0.46, 1.498 0.0037 0.4814, 1.502 0.0037 0.4814, 1.498 0.0037 0.48, 1.502 0.0295 0.4814, 1.498 0.0295 0.4814, 1.502 0.0295 0.489, 1.498 0.0295 0.489, 1.502 -0.0049 0.489, 1.498 -0.0049 0.489, 1.498 -0.0049 0.4223, 1.502 -0.0049 0.4223, 1.498 -0.0049 0.48, 1.502 0.0687 0.4297, 1.502 0.0689 0.4297, 1.502 0.0684 0.4374, 1.502 0.0689 0.4411, 1.502 0.0773 0.453, 1.502 0.0689 0.4417, 1.502 0.0689 0.4462, 1.502 0.0689 0.4223, 1.502 0.0773 0.4223, 1.502 0.0658 0.4704, 1.502 0.064 0.4633, 1.502 0.0691 0.4693, 1.502 0.0655 0.4623, 1.502 0.0479 0.4488, 1.502 0.0508 0.4427, 1.502 0.0529 0.4436, 1.502 0.0671 0.4344, 1.502 0.0653 0.4319, 1.502 0.0674 0.4277, 1.502 0.0643 0.4309, 1.502 0.0647 0.4249, 1.502 0.0619 0.4293, 1.502 0.0618 0.4229, 1.502 0.0594 0.4284, 1.502 0.0584 0.4217, 1.502 0.0563 0.428, 1.502 0.0541 0.4212, 1.502 0.0534 0.4284, 1.502 0.0491 0.4218, 1.502 0.0515 0.4291, 1.502 0.0459 0.423, 1.502 0.0499 0.4302, 1.502 0.0431 0.4249, 1.502 0.0492 0.4309, 1.502 0.0436 0.4666, 1.502 0.0436 0.4585, 1.502 0.0461 0.468, 1.502 0.0494 0.4621, 1.502 0.0524 0.4702, 1.502 0.0546 0.4638, 1.502 0.06 0.4711, 1.502 0.0593 0.4643, 1.502 0.0621 0.464, 1.502 0.0548 0.4506, 1.502 0.0578 0.4447, 1.502 0.0689 0.4526, 1.502 0.0686 0.4563, 1.502 0.0765 0.46, 1.502 0.0678 0.4593, 1.502 0.0751 0.4636, 1.502 0.0668 0.461, 1.502 0.0733 0.4662, 1.502 0.0718 0.4676, 1.502 0.0497 0.4418, 1.502 0.0445 0.447, 1.502 0.0487 0.4405, 1.502 0.0421 0.4447, 1.502 0.0479 0.439, 1.502 0.0404 0.442, 1.502 0.0475 0.4371, 1.502 0.0394 0.439, 1.502 0.0475 0.4358, 1.502 0.039 0.4351, 1.502 0.0477 0.4338, 1.502 0.0394 0.4313, 1.502 0.0482 0.4323, 1.502 0.0404 0.4285, 1.502 0.0421 0.4259, 1.498 0.06 0.4711, 1.498 0.0524 0.4702, 1.498 0.0461 0.468, 1.498 0.0436 0.4666, 1.498 0.0436 0.4585, 1.498 0.0494 0.4621, 1.498 0.0546 0.4638, 1.498 0.0593 0.4643, 1.498 0.0621 0.464, 1.498 0.064 0.4633, 1.498 0.0655 0.4623, 1.498 0.0668 0.461, 1.498 0.0678 0.4593, 1.498 0.0686 0.4563, 1.498 0.0689 0.4526, 1.498 0.0548 0.4506, 1.498 0.0479 0.4488, 1.498 0.0445 0.447, 1.498 0.0421 0.4447, 1.498 0.0404 0.442, 1.498 0.0394 0.439, 1.498 0.039 0.4351, 1.498 0.0394 0.4313, 1.498 0.0404 0.4285, 1.498 0.0421 0.4259, 1.498 0.0431 0.4249, 1.498 0.0541 0.4212, 1.498 0.0492 0.4217, 1.498 0.0491 0.4218, 1.498 0.0459 0.423, 1.498 0.0584 0.4217, 1.498 0.0586 0.4217, 1.498 0.0618 0.4229, 1.498 0.0647 0.4249, 1.498 0.0674 0.4277, 1.498 0.0687 0.4297, 1.498 0.0689 0.4297, 1.498 0.0689 0.4223, 1.498 0.0773 0.4223, 1.498 0.0773 0.453, 1.498 0.0765 0.46, 1.498 0.0751 0.4636, 1.498 0.0733 0.4662, 1.498 0.0718 0.4676, 1.498 0.0691 0.4693, 1.498 0.0658 0.4704, 1.498 0.0497 0.4418, 1.498 0.0508 0.4427, 1.498 0.0529 0.4436, 1.498 0.0578 0.4447, 1.498 0.0475 0.4358, 1.498 0.0475 0.4371, 1.498 0.0479 0.439, 1.498 0.0487 0.4405, 1.498 0.0499 0.4302, 1.498 0.0492 0.4309, 1.498 0.0482 0.4323, 1.498 0.0477 0.4338, 1.498 0.0563 0.428, 1.498 0.0534 0.4284, 1.498 0.0515 0.4291, 1.498 0.0653 0.4319, 1.498 0.0643 0.4309, 1.498 0.0619 0.4293, 1.498 0.0594 0.4284, 1.498 0.0689 0.4417, 1.498 0.0689 0.4411, 1.498 0.0684 0.4374, 1.498 0.0671 0.4344, 1.498 0.0689 0.4462
            ]
        }
        coordIndex [
            0,1,2,-1,2,1,3,-1,4,0,5,-1,5,0,2,-1,6,4,7,-1,7,4,5,-1,8,6,9,-1,9,6,7,-1,10,8,11,-1,11,8,9,-1,12,10,13,-1,13,10,11,-1,14,15,16,-1,16,15,12,-1,16,12,13,-1,17,15,18,-1,18,15,14,-1,19,17,20,-1,20,17,18,-1,21,19,22,-1,22,19,20,-1,23,24,25,-1,25,24,21,-1,25,21,22,-1,1,24,3,-1,3,24,23,-1,24,1,0,-1,0,4,24,-1,24,4,6,-1,24,6,21,-1,17,19,15,-1,15,19,21,-1,15,21,12,-1,12,21,6,-1,12,6,10,-1,10,6,8,-1,26,27,28,-1,29,30,31,-1,31,30,32,-1,33,34,27,-1,27,34,30,-1,27,30,28,-1,28,30,29,-1,35,36,37,-1,37,36,38,-1,39,40,41,-1,28,42,26,-1,26,42,43,-1,26,43,44,-1,44,43,45,-1,44,45,46,-1,46,45,47,-1,46,47,48,-1,48,47,49,-1,48,49,50,-1,50,49,51,-1,50,51,52,-1,52,51,53,-1,52,53,54,-1,54,53,55,-1,54,55,56,-1,56,55,57,-1,56,57,58,-1,58,57,59,-1,60,61,62,-1,62,61,63,-1,62,63,64,-1,64,63,65,-1,64,65,66,-1,66,65,67,-1,66,67,35,-1,35,67,68,-1,35,68,36,-1,39,41,69,-1,69,41,70,-1,69,70,71,-1,70,32,71,-1,71,32,30,-1,71,30,72,-1,72,30,73,-1,72,73,74,-1,74,73,75,-1,74,75,76,-1,76,75,77,-1,76,77,38,-1,38,77,78,-1,38,78,37,-1,40,39,79,-1,79,39,80,-1,79,80,81,-1,81,80,82,-1,81,82,83,-1,83,82,84,-1,83,84,85,-1,85,84,86,-1,85,86,87,-1,87,86,88,-1,87,88,89,-1,89,88,90,-1,89,90,91,-1,91,90,92,-1,91,92,59,-1,59,92,93,-1,59,93,58,-1,66,94,95,-1,66,95,64,-1,64,95,96,-1,64,96,62,-1,62,96,97,-1,62,97,60,-1,61,60,98,-1,98,60,97,-1,61,98,99,-1,61,99,63,-1,63,99,100,-1,63,100,65,-1,65,100,101,-1,65,101,67,-1,67,101,102,-1,67,102,68,-1,68,102,103,-1,68,103,36,-1,36,103,104,-1,36,104,38,-1,38,104,105,-1,38,105,76,-1,76,105,106,-1,76,106,74,-1,74,106,107,-1,74,107,72,-1,72,107,108,-1,72,108,71,-1,69,71,109,-1,109,71,108,-1,69,109,110,-1,69,110,39,-1,39,110,111,-1,39,111,80,-1,80,111,112,-1,80,112,82,-1,82,112,113,-1,82,113,84,-1,84,113,114,-1,84,114,86,-1,86,114,115,-1,86,115,88,-1,88,115,116,-1,88,116,90,-1,90,116,117,-1,90,117,92,-1,92,117,118,-1,92,118,93,-1,93,118,119,-1,93,119,58,-1,120,52,121,-1,121,52,54,-1,121,54,122,-1,122,54,56,-1,122,56,123,-1,123,56,58,-1,123,58,119,-1,52,120,124,-1,52,124,50,-1,50,124,125,-1,50,125,48,-1,125,126,48,-1,48,126,127,-1,48,127,46,-1,46,127,128,-1,46,128,44,-1,44,128,129,-1,44,129,26,-1,27,26,130,-1,130,26,129,-1,33,27,131,-1,131,27,130,-1,34,33,132,-1,132,33,131,-1,30,34,133,-1,133,34,132,-1,30,133,134,-1,30,134,73,-1,73,134,135,-1,73,135,75,-1,75,135,136,-1,75,136,77,-1,77,136,137,-1,77,137,78,-1,78,137,138,-1,78,138,37,-1,37,138,139,-1,37,139,35,-1,35,139,94,-1,35,94,66,-1,79,140,141,-1,79,141,40,-1,40,141,142,-1,40,142,41,-1,41,142,143,-1,41,143,70,-1,87,144,145,-1,87,145,85,-1,85,145,146,-1,85,146,83,-1,83,146,147,-1,83,147,81,-1,81,147,140,-1,81,140,79,-1,57,148,149,-1,57,149,59,-1,59,149,150,-1,59,150,91,-1,91,150,151,-1,91,151,89,-1,89,151,144,-1,89,144,87,-1,51,152,153,-1,51,153,53,-1,53,153,154,-1,53,154,55,-1,55,154,148,-1,55,148,57,-1,43,155,156,-1,43,156,45,-1,45,156,157,-1,45,157,47,-1,47,157,158,-1,47,158,49,-1,49,158,152,-1,49,152,51,-1,31,159,160,-1,31,160,29,-1,29,160,161,-1,29,161,28,-1,28,161,162,-1,28,162,42,-1,42,162,155,-1,42,155,43,-1,31,32,159,-1,159,32,163,-1,32,70,163,-1,163,70,143,-1,
        ]
    }
}
Shape{
    appearance Appearance {
        material  Material 	{
            diffuseColor 0.25098039215686274 0.25098039215686274 0.25098039215686274
            specularColor 0.12549019607843137 0.12549019607843137 0.12549019607843137
            ambientIntensity 0.251
            transparency 0.0
            shininess 0.5
        }
    }
    geometry IndexedFaceSet {
        ccw TRUE
        solid FALSE
        coord DEF co Coordinate {
            point [
                1.498 0.0689 0.4462, 1.498 0.0578 0.4447, 1.498 0.0689 0.4417, 1.498 0.0529 0.4436, 1.498 0.0508 0.4427, 1.498 0.0497 0.4418, 1.498 0.0689 0.4411, 1.498 0.0684 0.4374, 1.498 0.0487 0.4405, 1.498 0.0671 0.4344, 1.498 0.0492 0.4309, 1.498 0.0499 0.4302, 1.498 0.0643 0.4309, 1.498 0.0482 0.4323, 1.498 0.0619 0.4293, 1.498 0.0594 0.4284, 1.498 0.0563 0.428, 1.498 0.0479 0.439, 1.498 0.0475 0.4371, 1.498 0.0653 0.4319, 1.498 0.0475 0.4358, 1.498 0.0477 0.4338, 1.498 0.0515 0.4291, 1.498 0.0534 0.4284
            ]
        }
        coordIndex [
            0,1,2,-1,2,1,3,-1,3,4,2,-1,2,4,5,-1,2,5,6,-1,6,5,7,-1,7,5,8,-1,7,8,9,-1,10,11,12,-1,10,12,13,-1,14,12,15,-1,15,12,16,-1,8,17,9,-1,9,17,18,-1,9,18,19,-1,19,18,20,-1,19,20,12,-1,12,20,21,-1,12,21,13,-1,11,22,12,-1,12,22,23,-1,12,23,16,-1,
        ]
    }
}
Shape{
    appearance Appearance {
        material  Material 	{
            diffuseColor 1.0 1.0 1.0
            specularColor 0.5019607843137255 0.5019607843137255 0.5019607843137255
            ambientIntensity 1.0
            transparency 0.0
            shininess 0.5
        }
    }
    geometry IndexedFaceSet {
        ccw TRUE
        solid FALSE
        coord DEF co Coordinate {
            point [
                1.502 0.1023 0.428, 1.498 0.1023 0.428, 1.498 0.0971 0.4286, 1.502 0.0971 0.4286, 1.498 0.0919 0.4306, 1.502 0.0919 0.4306, 1.498 0.0886 0.4326, 1.502 0.0886 0.4326, 1.502 0.0886 0.424, 1.498 0.0886 0.424, 1.498 0.1015 0.4212, 1.502 0.1015 0.4212, 1.498 0.096 0.4217, 1.502 0.0945 0.4219, 1.498 0.0945 0.4219, 1.498 0.1065 0.4217, 1.502 0.1088 0.422, 1.498 0.1088 0.422, 1.498 0.1132 0.4237, 1.502 0.1132 0.4237, 1.498 0.1154 0.425, 1.502 0.1154 0.425, 1.498 0.1178 0.4271, 1.502 0.1178 0.4271, 1.498 0.1194 0.4293, 1.502 0.1194 0.4293, 1.498 0.1204 0.4319, 1.502 0.1204 0.4319, 1.498 0.1208 0.4353, 1.502 0.1208 0.4353, 1.498 0.1204 0.4384, 1.502 0.1204 0.4384, 1.498 0.1195 0.4409, 1.502 0.1195 0.4409, 1.498 0.118 0.4432, 1.502 0.118 0.4432, 1.498 0.116 0.4449, 1.502 0.116 0.4449, 1.498 0.1104 0.448, 1.502 0.1104 0.448, 1.498 0.1072 0.4493, 1.502 0.1072 0.4493, 1.498 0.102 0.4516, 1.502 0.102 0.4516, 1.498 0.0991 0.4534, 1.502 0.0991 0.4534, 1.498 0.0983 0.4543, 1.502 0.0983 0.4543, 1.498 0.0977 0.4554, 1.502 0.0977 0.4554, 1.498 0.0973 0.4567, 1.502 0.0973 0.4567, 1.498 0.0973 0.4579, 1.502 0.0973 0.4579, 1.498 0.0974 0.4592, 1.502 0.0974 0.4592, 1.498 0.0978 0.4603, 1.502 0.0978 0.4603, 1.498 0.0985 0.4614, 1.502 0.0985 0.4614, 1.498 0.0998 0.4625, 1.502 0.0998 0.4625, 1.498 0.1017 0.4635, 1.502 0.1017 0.4635, 1.498 0.1039 0.4641, 1.502 0.1039 0.4641, 1.498 0.1064 0.4643, 1.502 0.1064 0.4643, 1.498 0.1119 0.4636, 1.502 0.1119 0.4636, 1.498 0.1166 0.4619, 1.502 0.1166 0.4619, 1.498 0.1185 0.4608, 1.502 0.1185 0.4608, 1.502 0.1185 0.4689, 1.498 0.1185 0.4689, 1.498 0.1122 0.4707, 1.502 0.1122 0.4707, 1.498 0.1072 0.4711, 1.502 0.1072 0.4711, 1.498 0.1005 0.4702, 1.502 0.1005 0.4702, 1.498 0.096 0.4685, 1.502 0.096 0.4685, 1.498 0.094 0.4673, 1.502 0.094 0.4673, 1.498 0.0915 0.465, 1.502 0.0915 0.465, 1.498 0.09 0.4628, 1.502 0.09 0.4628, 1.498 0.089 0.4601, 1.502 0.089 0.4601, 1.498 0.0886 0.4571, 1.502 0.0886 0.4571, 1.498 0.089 0.4539, 1.502 0.089 0.4539, 1.498 0.0899 0.4513, 1.502 0.0899 0.4513, 1.498 0.091 0.4496, 1.502 0.091 0.4496, 1.498 0.0924 0.4481, 1.502 0.0924 0.4481, 1.498 0.0963 0.4455, 1.502 0.0963 0.4455, 1.498 0.1013 0.4433, 1.502 0.1013 0.4433, 1.498 0.1068 0.441, 1.502 0.1068 0.441, 1.498 0.1101 0.439, 1.502 0.1101 0.439, 1.498 0.1111 0.4379, 1.502 0.1111 0.4379, 1.498 0.1117 0.4368, 1.502 0.1117 0.4368, 1.498 0.1121 0.4355, 1.502 0.1121 0.4355, 1.498 0.1122 0.4345, 1.502 0.1122 0.4345, 1.498 0.112 0.4329, 1.502 0.112 0.4329, 1.498 0.1116 0.4317, 1.502 0.1116 0.4317, 1.498 0.1109 0.4306, 1.502 0.1109 0.4306, 1.498 0.1099 0.4297, 1.502 0.1099 0.4297, 1.498 0.1092 0.4293, 1.502 0.1092 0.4293, 1.498 0.107 0.4285, 1.502 0.107 0.4285, 1.498 0.1027 0.428, 1.502 0.1027 0.428, 1.502 0.1622 0.47, 1.502 0.1709 0.47, 1.498 0.1622 0.47, 1.498 0.1709 0.47, 1.502 0.1492 0.4341, 1.498 0.1492 0.4341, 1.498 0.1486 0.4319, 1.502 0.1486 0.4319, 1.498 0.1482 0.4302, 1.502 0.1482 0.4302, 1.502 0.148 0.4302, 1.498 0.148 0.4302, 1.502 0.1469 0.4341, 1.498 0.1469 0.4341, 1.498 0.1345 0.47, 1.502 0.1345 0.47, 1.498 0.1385 0.4584, 1.502 0.1251 0.47, 1.498 0.1251 0.47, 1.498 0.1438 0.4224, 1.502 0.1438 0.4224, 1.498 0.1385 0.4359, 1.498 0.1402 0.4137, 1.502 0.1402 0.4137, 1.498 0.1435 0.4217, 1.498 0.1385 0.4107, 1.498 0.1385 0.4107, 1.502 0.137 0.409, 1.502 0.1385 0.4107, 1.498 0.137 0.409, 1.498 0.1354 0.4079, 1.502 0.1354 0.4079, 1.498 0.1336 0.4073, 1.502 0.1336 0.4073, 1.498 0.1316 0.407, 1.502 0.1316 0.407, 1.498 0.1286 0.4074, 1.502 0.1286 0.4074, 1.498 0.1269 0.408, 1.502 0.1269 0.408, 1.502 0.1269 0.4005, 1.498 0.1269 0.4005, 1.498 0.1304 0.3999, 1.502 0.1304 0.3999, 1.498 0.1322 0.3999, 1.502 0.1322 0.3999, 1.498 0.1356 0.4003, 1.502 0.1356 0.4003, 1.498 0.1385 0.4014, 1.502 0.1389 0.4015, 1.498 0.1389 0.4015, 1.498 0.1418 0.4035, 1.502 0.1418 0.4035, 1.498 0.1424 0.4041, 1.502 0.1424 0.4041, 1.498 0.1455 0.4077, 1.502 0.1455 0.4077, 1.498 0.1492 0.4151, 1.502 0.1492 0.4151, 1.498 0.1519 0.4217, 1.502 0.2158 0.4299, 1.502 0.2158 0.4223, 1.498 0.2158 0.4299, 1.498 0.2158 0.4223, 1.498 0.1885 0.4299, 1.502 0.1885 0.4299, 1.498 0.201 0.4299, 1.502 0.1885 0.4524, 1.498 0.1885 0.4524, 1.502 0.2124 0.4524, 1.498 0.201 0.4524, 1.498 0.2124 0.4524, 1.502 0.2124 0.46, 1.498 0.2124 0.46, 1.498 0.1885 0.46, 1.502 0.1885 0.46, 1.498 0.201 0.46, 1.498 0.1885 0.4814, 1.502 0.1885 0.4814, 1.498 0.1885 0.48, 1.498 0.2142 0.4814, 1.502 0.2142 0.4814, 1.498 0.201 0.4814, 1.502 0.2142 0.489, 1.498 0.2142 0.489, 1.498 0.1799 0.489, 1.502 0.1799 0.489, 1.498 0.201 0.489, 1.498 0.1799 0.4223, 1.502 0.1799 0.4223, 1.498 0.1799 0.48, 1.498 0.201 0.4223, 1.502 0.27 0.4413, 1.502 0.2665 0.4369, 1.502 0.2726 0.4317, 1.502 0.265 0.4356, 1.502 0.2655 0.4266, 1.502 0.2606 0.4327, 1.502 0.2579 0.4237, 1.502 0.2548 0.4307, 1.502 0.2467 0.4223, 1.502 0.2467 0.4299, 1.502 0.2284 0.4223, 1.502 0.237 0.4299, 1.502 0.2284 0.489, 1.502 0.237 0.4814, 1.502 0.2474 0.489, 1.502 0.2471 0.4814, 1.502 0.2586 0.4877, 1.502 0.2554 0.4805, 1.502 0.2665 0.4845, 1.502 0.2612 0.4784, 1.502 0.2726 0.4802, 1.502 0.2663 0.4751, 1.502 0.2757 0.4771, 1.502 0.2685 0.4729, 1.502 0.2796 0.4711, 1.502 0.271 0.469, 1.502 0.2819 0.4645, 1.502 0.2728 0.464, 1.502 0.2827 0.4565, 1.502 0.2736 0.4563, 1.502 0.2824 0.4516, 1.502 0.2735 0.4525, 1.502 0.2807 0.4439, 1.502 0.2722 0.4463, 1.502 0.2773 0.4371, 1.498 0.2467 0.4223, 1.498 0.2284 0.4223, 1.498 0.2579 0.4237, 1.498 0.2655 0.4266, 1.498 0.2726 0.4317, 1.498 0.2773 0.4371, 1.498 0.2807 0.4439, 1.498 0.2824 0.4516, 1.498 0.2827 0.4565, 1.498 0.2726 0.4802, 1.498 0.2728 0.48, 1.498 0.2757 0.4771, 1.498 0.2796 0.4711, 1.498 0.2819 0.4645, 1.498 0.2665 0.4845, 1.498 0.2586 0.4877, 1.498 0.2474 0.489, 1.498 0.2284 0.489, 1.498 0.2284 0.48, 1.498 0.2471 0.4814, 1.498 0.237 0.4814, 1.498 0.237 0.4299, 1.498 0.2467 0.4299, 1.498 0.2665 0.4369, 1.498 0.265 0.4356, 1.498 0.2606 0.4327, 1.498 0.2548 0.4307, 1.498 0.2736 0.4563, 1.498 0.2735 0.4525, 1.498 0.2722 0.4463, 1.498 0.27 0.4413, 1.498 0.2663 0.4751, 1.498 0.2685 0.4729, 1.498 0.271 0.469, 1.498 0.2728 0.464, 1.498 0.2554 0.4805, 1.498 0.2612 0.4784
            ]
        }
        coordIndex [
            0,1,2,-1,0,2,3,-1,3,2,4,-1,3,4,5,-1,5,4,6,-1,5,6,7,-1,8,7,9,-1,9,7,6,-1,10,11,12,-1,12,11,13,-1,12,13,14,-1,14,13,8,-1,14,8,9,-1,10,15,11,-1,11,15,16,-1,15,17,16,-1,16,17,18,-1,16,18,19,-1,19,18,20,-1,19,20,21,-1,21,20,22,-1,21,22,23,-1,23,22,24,-1,23,24,25,-1,25,24,26,-1,25,26,27,-1,27,26,28,-1,27,28,29,-1,29,28,30,-1,29,30,31,-1,31,30,32,-1,31,32,33,-1,33,32,34,-1,33,34,35,-1,35,34,36,-1,35,36,37,-1,37,36,38,-1,37,38,39,-1,39,38,40,-1,39,40,41,-1,41,40,42,-1,41,42,43,-1,43,42,44,-1,43,44,45,-1,45,44,46,-1,45,46,47,-1,47,46,48,-1,47,48,49,-1,49,48,50,-1,49,50,51,-1,51,50,52,-1,51,52,53,-1,53,52,54,-1,53,54,55,-1,55,54,56,-1,55,56,57,-1,57,56,58,-1,57,58,59,-1,59,58,60,-1,59,60,61,-1,61,60,62,-1,61,62,63,-1,63,62,64,-1,63,64,65,-1,65,64,66,-1,65,66,67,-1,67,66,68,-1,67,68,69,-1,69,68,70,-1,69,70,71,-1,71,70,72,-1,71,72,73,-1,74,73,75,-1,75,73,72,-1,74,75,76,-1,74,76,77,-1,77,76,78,-1,77,78,79,-1,79,78,80,-1,79,80,81,-1,81,80,82,-1,81,82,83,-1,83,82,84,-1,83,84,85,-1,85,84,86,-1,85,86,87,-1,87,86,88,-1,87,88,89,-1,89,88,90,-1,89,90,91,-1,91,90,92,-1,91,92,93,-1,93,92,94,-1,93,94,95,-1,95,94,96,-1,95,96,97,-1,97,96,98,-1,97,98,99,-1,99,98,100,-1,99,100,101,-1,101,100,102,-1,101,102,103,-1,103,102,104,-1,103,104,105,-1,105,104,106,-1,105,106,107,-1,107,106,108,-1,107,108,109,-1,109,108,110,-1,109,110,111,-1,111,110,112,-1,111,112,113,-1,113,112,114,-1,113,114,115,-1,115,114,116,-1,115,116,117,-1,117,116,118,-1,117,118,119,-1,119,118,120,-1,119,120,121,-1,121,120,122,-1,121,122,123,-1,123,122,124,-1,123,124,125,-1,125,124,126,-1,125,126,127,-1,127,126,128,-1,127,128,129,-1,129,128,130,-1,129,130,131,-1,131,130,1,-1,131,1,0,-1,59,61,83,-1,83,61,81,-1,107,41,105,-1,105,41,43,-1,19,21,123,-1,123,21,23,-1,123,23,121,-1,121,23,25,-1,121,25,119,-1,119,25,27,-1,119,27,117,-1,117,27,29,-1,117,29,115,-1,115,29,31,-1,115,31,113,-1,113,31,33,-1,113,33,111,-1,111,33,35,-1,111,35,109,-1,109,35,37,-1,109,37,107,-1,107,37,39,-1,107,39,41,-1,11,0,13,-1,13,0,3,-1,13,3,8,-1,8,3,5,-1,8,5,7,-1,61,63,81,-1,81,63,65,-1,81,65,79,-1,79,65,67,-1,79,67,77,-1,77,67,69,-1,77,69,74,-1,74,69,71,-1,74,71,73,-1,123,125,19,-1,19,125,127,-1,19,127,16,-1,16,127,129,-1,16,129,11,-1,11,129,131,-1,11,131,0,-1,83,85,59,-1,59,85,87,-1,59,87,57,-1,57,87,89,-1,57,89,55,-1,55,89,91,-1,55,91,53,-1,53,91,93,-1,53,93,51,-1,51,93,95,-1,51,95,49,-1,49,95,97,-1,49,97,47,-1,47,97,99,-1,47,99,45,-1,45,99,101,-1,45,101,43,-1,43,101,103,-1,43,103,105,-1,132,133,134,-1,134,133,135,-1,136,132,137,-1,137,132,134,-1,136,137,138,-1,136,138,139,-1,139,138,140,-1,139,140,141,-1,142,141,143,-1,143,141,140,-1,144,142,145,-1,145,142,143,-1,146,147,148,-1,148,147,144,-1,148,144,145,-1,149,147,150,-1,150,147,146,-1,151,152,153,-1,153,152,149,-1,153,149,150,-1,154,155,156,-1,156,155,152,-1,156,152,151,-1,155,154,157,-1,158,159,157,-1,157,159,160,-1,157,160,155,-1,158,161,159,-1,159,161,162,-1,159,162,163,-1,163,162,164,-1,163,164,165,-1,165,164,166,-1,165,166,167,-1,167,166,168,-1,167,168,169,-1,169,168,170,-1,169,170,171,-1,172,171,173,-1,173,171,170,-1,172,173,174,-1,172,174,175,-1,175,174,176,-1,175,176,177,-1,177,176,178,-1,177,178,179,-1,179,178,180,-1,179,180,181,-1,180,182,181,-1,181,182,183,-1,181,183,184,-1,184,183,185,-1,184,185,186,-1,186,185,187,-1,186,187,188,-1,188,187,189,-1,188,189,190,-1,135,133,191,-1,191,133,190,-1,191,190,189,-1,139,141,190,-1,133,132,190,-1,190,132,136,-1,190,136,139,-1,147,149,144,-1,144,149,152,-1,144,152,142,-1,188,160,186,-1,186,160,159,-1,171,172,169,-1,169,172,175,-1,169,175,167,-1,167,175,177,-1,167,177,165,-1,165,177,179,-1,165,179,163,-1,163,179,181,-1,163,181,159,-1,159,181,184,-1,159,184,186,-1,141,142,190,-1,190,142,152,-1,190,152,188,-1,188,152,155,-1,188,155,160,-1,192,193,194,-1,194,193,195,-1,196,197,198,-1,198,197,192,-1,198,192,194,-1,199,197,200,-1,200,197,196,-1,199,200,201,-1,201,200,202,-1,201,202,203,-1,204,201,205,-1,205,201,203,-1,206,207,208,-1,208,207,204,-1,208,204,205,-1,209,210,211,-1,211,210,207,-1,211,207,206,-1,212,213,214,-1,214,213,210,-1,214,210,209,-1,215,213,216,-1,216,213,212,-1,217,218,219,-1,219,218,215,-1,219,215,216,-1,220,221,222,-1,222,221,218,-1,222,218,217,-1,195,193,223,-1,223,193,221,-1,223,221,220,-1,213,215,210,-1,210,215,218,-1,210,218,207,-1,193,192,221,-1,221,192,197,-1,221,197,199,-1,201,204,199,-1,199,204,207,-1,199,207,221,-1,221,207,218,-1,224,225,226,-1,226,225,227,-1,226,227,228,-1,228,227,229,-1,228,229,230,-1,230,229,231,-1,230,231,232,-1,232,231,233,-1,232,233,234,-1,234,233,235,-1,234,235,236,-1,236,235,237,-1,236,237,238,-1,238,237,239,-1,238,239,240,-1,240,239,241,-1,240,241,242,-1,242,241,243,-1,242,243,244,-1,244,243,245,-1,244,245,246,-1,246,245,247,-1,246,247,248,-1,248,247,249,-1,248,249,250,-1,250,249,251,-1,250,251,252,-1,252,251,253,-1,252,253,254,-1,254,253,255,-1,254,255,256,-1,256,255,257,-1,256,257,258,-1,258,257,224,-1,258,224,226,-1,232,234,259,-1,259,234,260,-1,232,259,261,-1,232,261,230,-1,230,261,262,-1,230,262,228,-1,228,262,263,-1,228,263,226,-1,226,263,264,-1,226,264,258,-1,258,264,265,-1,258,265,256,-1,256,265,266,-1,256,266,254,-1,254,266,267,-1,254,267,252,-1,268,244,269,-1,269,244,246,-1,269,246,270,-1,270,246,248,-1,270,248,271,-1,271,248,250,-1,271,250,272,-1,272,250,252,-1,272,252,267,-1,244,268,273,-1,244,273,242,-1,242,273,274,-1,242,274,240,-1,240,274,275,-1,240,275,238,-1,236,238,276,-1,276,238,275,-1,260,234,277,-1,277,234,236,-1,277,236,276,-1,239,237,278,-1,278,237,279,-1,237,235,279,-1,279,235,280,-1,235,233,280,-1,280,233,281,-1,225,282,283,-1,225,283,227,-1,227,283,284,-1,227,284,229,-1,229,284,285,-1,229,285,231,-1,231,285,281,-1,231,281,233,-1,253,286,287,-1,253,287,255,-1,255,287,288,-1,255,288,257,-1,257,288,289,-1,257,289,224,-1,224,289,282,-1,224,282,225,-1,245,290,291,-1,245,291,247,-1,247,291,292,-1,247,292,249,-1,249,292,293,-1,249,293,251,-1,251,293,286,-1,251,286,253,-1,239,278,294,-1,239,294,241,-1,241,294,295,-1,241,295,243,-1,243,295,290,-1,243,290,245,-1,
        ]
    }
}
Shape{
    appearance Appearance {
        material  Material 	{
            diffuseColor 0.25098039215686274 0.25098039215686274 0.25098039215686274
            specularColor 0.12549019607843137 0.12549019607843137 0.12549019607843137
            ambientIntensity 0.251
            transparency 0.0
            shininess 0.5
        }
    }
    geometry IndexedFaceSet {
        ccw TRUE
        solid FALSE
        coord DEF co Coordinate {
            point [
                1.498 0.237 0.4814, 1.498 0.237 0.4299, 1.498 0.2471 0.4814, 1.498 0.2467 0.4299, 1.498 0.2548 0.4307, 1.498 0.2606 0.4327, 1.498 0.265 0.4356, 1.498 0.2665 0.4369, 1.498 0.27 0.4413, 1.498 0.2722 0.4463, 1.498 0.2735 0.4525, 1.498 0.2736 0.4563, 1.498 0.2728 0.464, 1.498 0.271 0.469, 1.498 0.2685 0.4729, 1.498 0.2663 0.4751, 1.498 0.2554 0.4805, 1.498 0.2612 0.4784
            ]
        }
        coordIndex [
            0,1,2,-1,2,1,3,-1,2,3,4,-1,4,5,2,-1,2,5,6,-1,2,6,7,-1,7,8,2,-1,2,8,9,-1,2,9,10,-1,10,11,2,-1,2,11,12,-1,2,12,13,-1,13,14,2,-1,2,14,15,-1,2,15,16,-1,16,15,17,-1,
        ]
    }
}
Shape{
    appearance Appearance {
        material  Material 	{
            diffuseColor 1.0 1.0 1.0
            specularColor 0.5019607843137255 0.5019607843137255 0.5019607843137255
            ambientIntensity 1.0
            transparency 0.0
            shininess 0.5
        }
    }
    geometry IndexedFaceSet {
        ccw TRUE
        solid FALSE
        coord DEF co Coordinate {
            point [
                1.502 0.3051 0.4481, 1.502 0.3023 0.4406, 1.502 0.3275 0.4481, 1.502 0.3301 0.4406, 1.502 0.315 0.4758, 1.502 0.3118 0.489, 1.502 0.2864 0.4223, 1.502 0.2959 0.4223, 1.502 0.3156 0.4778, 1.502 0.3161 0.4805, 1.502 0.321 0.489, 1.502 0.3163 0.4805, 1.502 0.3169 0.4777, 1.502 0.3174 0.4758, 1.502 0.3464 0.4223, 1.502 0.3369 0.4223, 1.498 0.3464 0.4223, 1.498 0.3244 0.48, 1.498 0.321 0.489, 1.498 0.3118 0.489, 1.498 0.2864 0.4223, 1.498 0.3084 0.48, 1.498 0.2959 0.4223, 1.498 0.3023 0.4406, 1.498 0.3301 0.4406, 1.498 0.3369 0.4223, 1.498 0.3051 0.4481, 1.498 0.3275 0.4481, 1.498 0.3174 0.4758, 1.498 0.3163 0.4805, 1.498 0.3169 0.4777, 1.498 0.3161 0.4805, 1.498 0.315 0.4758, 1.498 0.3156 0.4778
            ]
        }
        coordIndex [
            0,1,2,-1,2,1,3,-1,4,5,0,-1,0,5,6,-1,0,6,1,-1,1,6,7,-1,4,8,5,-1,5,8,9,-1,5,9,10,-1,10,9,11,-1,10,11,12,-1,12,13,10,-1,10,13,2,-1,10,2,14,-1,14,2,3,-1,14,3,15,-1,14,16,10,-1,10,16,17,-1,10,17,18,-1,5,10,19,-1,19,10,18,-1,20,6,21,-1,21,6,5,-1,21,5,19,-1,7,6,22,-1,22,6,20,-1,1,7,23,-1,23,7,22,-1,3,1,24,-1,24,1,23,-1,15,3,25,-1,25,3,24,-1,14,15,16,-1,16,15,25,-1,0,2,26,-1,26,2,27,-1,2,13,27,-1,27,13,28,-1,11,29,30,-1,11,30,12,-1,12,30,28,-1,12,28,13,-1,11,9,29,-1,29,9,31,-1,4,32,33,-1,4,33,8,-1,8,33,31,-1,8,31,9,-1,4,0,32,-1,32,0,26,-1,
        ]
    }
}
Shape{
    appearance Appearance {
        material  Material 	{
            diffuseColor 0.25098039215686274 0.25098039215686274 0.25098039215686274
            specularColor 0.12549019607843137 0.12549019607843137 0.12549019607843137
            ambientIntensity 0.251
            transparency 0.0
            shininess 0.5
        }
    }
    geometry IndexedFaceSet {
        ccw TRUE
        solid FALSE
        coord DEF co Coordinate {
            point [
                1.498 0.3163 0.4805, 1.498 0.3161 0.4805, 1.498 0.3169 0.4777, 1.498 0.3156 0.4778, 1.498 0.3174 0.4758, 1.498 0.315 0.4758, 1.498 0.3275 0.4481, 1.498 0.3051 0.4481
            ]
        }
        coordIndex [
            0,1,2,-1,2,1,3,-1,2,3,4,-1,4,3,5,-1,4,5,6,-1,6,5,7,-1,
        ]
    }
}
Shape{
    appearance Appearance {
        material  Material 	{
            diffuseColor 1.0 1.0 1.0
            specularColor 0.5019607843137255 0.5019607843137255 0.5019607843137255
            ambientIntensity 1.0
            transparency 0.0
            shininess 0.5
        }
    }
    geometry IndexedFaceSet {
        ccw TRUE
        solid FALSE
        coord DEF co Coordinate {
            point [
                1.502 -0.3122 0.5372, 1.502 -0.3016 0.5428, 1.502 -0.3041 0.5721, 1.502 -0.2205 0.4109, 1.502 -0.2149 0.4215, 1.502 -0.2121 0.4332, 1.502 -0.2745 0.5734, 1.502 -0.2598 0.5388, 1.502 -0.2525 0.5538, 1.502 -0.2773 0.4319, 1.502 -0.2782 0.4364, 1.502 -0.3039 0.4548, 1.502 -0.3043 0.423, 1.502 -0.3104 0.4248, 1.502 -0.3142 0.4612, 1.502 -0.2854 0.5744, 1.502 -0.1454 0.4781, 1.502 -0.1601 0.5032, 1.502 -0.2118 0.443, 1.502 -0.2237 0.47, 1.502 -0.2118 0.4382, 1.502 -0.2372 0.3963, 1.502 -0.2277 0.4028, 1.502 -0.2755 0.4279, 1.502 -0.2925 0.4041, 1.502 -0.2996 0.4128, 1.502 -0.1298 0.525, 1.502 -0.126 0.525, 1.502 -0.1065 0.5506, 1.502 -0.1169 0.5239, 1.502 -0.1042 0.5499, 1.502 -0.1086 0.5207, 1.502 -0.0901 0.5429, 1.502 -0.0772 0.532, 1.502 -0.2647 0.5847, 1.502 -0.2419 0.5665, 1.502 -0.2536 0.5943, 1.502 -0.2292 0.5758, 1.502 -0.242 0.6015, 1.502 -0.2899 0.5456, 1.502 -0.2849 0.5459, 1.502 -0.2799 0.5741, 1.502 -0.2737 0.5445, 1.502 -0.263 0.5406, 1.502 -0.2447 0.427, 1.502 -0.2473 0.4241, 1.502 -0.2509 0.4215, 1.502 -0.2478 0.3922, 1.502 -0.255 0.4198, 1.502 -0.2593 0.3908, 1.502 -0.2598 0.4192, 1.502 -0.2611 0.3908, 1.502 -0.2606 0.4192, 1.502 -0.2723 0.3925, 1.502 -0.2648 0.4199, 1.502 -0.2832 0.3971, 1.502 -0.2691 0.4218, 1.502 -0.2727 0.4246, 1.502 -0.2425 0.4443, 1.502 -0.2414 0.4399, 1.502 -0.2414 0.4356, 1.502 -0.2425 0.4311, 1.502 -0.0771 0.4434, 1.502 -0.0992 0.4623, 1.502 -0.09 0.4325, 1.502 -0.1062 0.4566, 1.502 -0.1045 0.4254, 1.502 -0.1145 0.4527, 1.502 -0.1203 0.4221, 1.502 -0.1231 0.451, 1.502 -0.1483 0.4221, 1.502 -0.1445 0.451, 1.502 -0.1509 0.4225, 1.502 -0.278 0.441, 1.502 -0.2766 0.4455, 1.502 -0.2986 0.465, 1.502 -0.2741 0.4494, 1.502 -0.2908 0.474, 1.502 -0.2722 0.4514, 1.502 -0.2811 0.4807, 1.502 -0.2685 0.454, 1.502 -0.2706 0.4847, 1.502 -0.2644 0.4556, 1.502 -0.2593 0.4861, 1.502 -0.2598 0.4562, 1.502 -0.2535 0.4858, 1.502 -0.2558 0.4558, 1.502 -0.2421 0.4829, 1.502 -0.2514 0.4542, 1.502 -0.232 0.4776, 1.502 -0.2476 0.4517, 1.502 -0.2445 0.4482, 1.502 -0.1013 0.5156, 1.502 -0.0959 0.5095, 1.502 -0.0675 0.5185, 1.502 -0.0915 0.5014, 1.502 -0.0617 0.504, 1.502 -0.0892 0.4923, 1.502 -0.0596 0.4885, 1.502 -0.089 0.488, 1.502 -0.0617 0.4716, 1.502 -0.0901 0.4788, 1.502 -0.0677 0.4566, 1.502 -0.0934 0.4703, 1.502 -0.0986 0.4629, 1.502 -0.1321 0.5881, 1.502 -0.1508 0.5664, 1.502 -0.1164 0.5699, 1.502 -0.14 0.5536, 1.502 -0.1327 0.5383, 1.502 -0.3309 0.51, 1.502 -0.3621 0.502, 1.502 -0.3323 0.4985, 1.502 -0.3622 0.4975, 1.502 -0.3318 0.4911, 1.502 -0.3599 0.4789, 1.502 -0.3283 0.4795, 1.502 -0.3531 0.4612, 1.502 -0.3227 0.4699, 1.502 -0.3423 0.4458, 1.502 -0.3275 0.4332, 1.502 -0.2201 0.6099, 1.502 -0.2137 0.5821, 1.502 -0.1967 0.6128, 1.502 -0.1962 0.5843, 1.502 -0.1771 0.6107, 1.502 -0.1801 0.5823, 1.502 -0.1533 0.6023, 1.502 -0.1652 0.5766, 1.502 -0.1519 0.5674, 1.502 -0.3216 0.5652, 1.502 -0.3367 0.5546, 1.502 -0.3203 0.53, 1.502 -0.3399 0.5516, 1.502 -0.3268 0.5205, 1.502 -0.3513 0.5369, 1.502 -0.3589 0.5199, 1.502 -0.1469 0.4515, 1.502 -0.1583 0.4271, 1.502 -0.1572 0.4259, 1.502 -0.1454 0.4511, 1.502 -0.1541 0.4237, 1.502 -0.162 0.4368, 1.502 -0.1616 0.4333, 1.502 -0.1603 0.43, 1.502 -0.151 0.451, 1.502 -0.1543 0.4497, 1.502 -0.1619 0.4387, 1.502 -0.1572 0.4477, 1.502 -0.1591 0.4455, 1.502 -0.161 0.4423, 1.502 -0.1473 0.4515, 1.498 -0.3622 0.4993, 1.498 -0.3622 0.4957, 1.498 -0.3622 0.4975, 1.498 -0.0675 0.5185, 1.498 -0.0617 0.504, 1.498 -0.0596 0.4885, 1.498 -0.0741 0.5276, 1.498 -0.0772 0.532, 1.498 -0.0901 0.5429, 1.498 -0.1042 0.5499, 1.498 -0.1065 0.5506, 1.498 -0.1164 0.5699, 1.498 -0.1321 0.5881, 1.498 -0.1533 0.6023, 1.498 -0.1771 0.6107, 1.498 -0.1967 0.6128, 1.498 -0.2201 0.6099, 1.498 -0.242 0.6015, 1.498 -0.2536 0.5943, 1.498 -0.2647 0.5847, 1.498 -0.2745 0.5734, 1.498 -0.2799 0.5741, 1.498 -0.2854 0.5744, 1.498 -0.3041 0.5721, 1.498 -0.3216 0.5652, 1.498 -0.3367 0.5546, 1.498 -0.3399 0.5516, 1.498 -0.3513 0.5369, 1.498 -0.3555 0.5276, 1.498 -0.3621 0.502, 1.498 -0.3589 0.5199, 1.498 -0.3601 0.48, 1.498 -0.3599 0.4789, 1.498 -0.3531 0.4612, 1.498 -0.3423 0.4458, 1.498 -0.3275 0.4332, 1.498 -0.3104 0.4248, 1.498 -0.3043 0.423, 1.498 -0.3037 0.4217, 1.498 -0.2996 0.4128, 1.498 -0.2925 0.4041, 1.498 -0.2832 0.3971, 1.498 -0.2723 0.3925, 1.498 -0.2611 0.3908, 1.498 -0.2593 0.3908, 1.498 -0.2118 0.4382, 1.498 -0.2478 0.3922, 1.498 -0.2372 0.3963, 1.498 -0.2277 0.4028, 1.498 -0.2205 0.4109, 1.498 -0.2149 0.4215, 1.498 -0.2148 0.4217, 1.498 -0.2121 0.4332, 1.498 -0.2118 0.443, 1.498 -0.1454 0.4781, 1.498 -0.1601 0.5032, 1.498 -0.1466 0.48, 1.498 -0.2237 0.47, 1.498 -0.2045 0.48, 1.498 -0.232 0.4776, 1.498 -0.2367 0.48, 1.498 -0.2421 0.4829, 1.498 -0.2535 0.4858, 1.498 -0.2593 0.4861, 1.498 -0.2706 0.4847, 1.498 -0.2811 0.4807, 1.498 -0.2821 0.48, 1.498 -0.2908 0.474, 1.498 -0.2986 0.465, 1.498 -0.3039 0.4548, 1.498 -0.3323 0.4985, 1.498 -0.3142 0.4612, 1.498 -0.3227 0.4699, 1.498 -0.3283 0.4795, 1.498 -0.3285 0.48, 1.498 -0.3318 0.4911, 1.498 -0.3268 0.5205, 1.498 -0.3309 0.51, 1.498 -0.3219 0.5276, 1.498 -0.3203 0.53, 1.498 -0.3122 0.5372, 1.498 -0.3016 0.5428, 1.498 -0.2899 0.5456, 1.498 -0.2849 0.5459, 1.498 -0.2737 0.5445, 1.498 -0.263 0.5406, 1.498 -0.2598 0.5388, 1.498 -0.2525 0.5538, 1.498 -0.2419 0.5665, 1.498 -0.2292 0.5758, 1.498 -0.2137 0.5821, 1.498 -0.1962 0.5843, 1.498 -0.1801 0.5823, 1.498 -0.1652 0.5766, 1.498 -0.1519 0.5674, 1.498 -0.1508 0.5664, 1.498 -0.14 0.5536, 1.498 -0.1327 0.5383, 1.498 -0.1303 0.5276, 1.498 -0.1298 0.525, 1.498 -0.126 0.525, 1.498 -0.1169 0.5239, 1.498 -0.1086 0.5207, 1.498 -0.1013 0.5156, 1.498 -0.0959 0.5095, 1.498 -0.0915 0.5014, 1.498 -0.0892 0.4923, 1.498 -0.089 0.488, 1.498 -0.09 0.48, 1.498 -0.0901 0.4788, 1.498 -0.0934 0.4703, 1.498 -0.0986 0.4629, 1.498 -0.0992 0.4623, 1.498 -0.1062 0.4566, 1.498 -0.1145 0.4527, 1.498 -0.1231 0.451, 1.498 -0.1445 0.451, 1.498 -0.1454 0.4511, 1.498 -0.1469 0.4515, 1.498 -0.1473 0.4515, 1.498 -0.151 0.451, 1.498 -0.1543 0.4497, 1.498 -0.1572 0.4477, 1.498 -0.1591 0.4455, 1.498 -0.161 0.4423, 1.498 -0.1619 0.4387, 1.498 -0.162 0.4368, 1.498 -0.1616 0.4333, 1.498 -0.1603 0.43, 1.498 -0.1583 0.4271, 1.498 -0.1572 0.4259, 1.498 -0.1541 0.4237, 1.498 -0.1509 0.4225, 1.498 -0.1483 0.4221, 1.498 -0.1203 0.4221, 1.498 -0.1045 0.4254, 1.498 -0.09 0.4325, 1.498 -0.0771 0.4434, 1.498 -0.0677 0.4566, 1.498 -0.0617 0.4716, 1.498 -0.0606 0.48, 1.498 -0.2598 0.4562, 1.498 -0.2558 0.4558, 1.498 -0.2514 0.4542, 1.498 -0.2476 0.4517, 1.498 -0.2445 0.4482, 1.498 -0.2425 0.4443, 1.498 -0.2414 0.4399, 1.498 -0.2414 0.4356, 1.498 -0.2425 0.4311, 1.498 -0.2447 0.427, 1.498 -0.2473 0.4241, 1.498 -0.2509 0.4215, 1.498 -0.255 0.4198, 1.498 -0.2598 0.4192, 1.498 -0.2606 0.4192, 1.498 -0.2648 0.4199, 1.498 -0.2691 0.4218, 1.498 -0.2727 0.4246, 1.498 -0.2755 0.4279, 1.498 -0.2773 0.4319, 1.498 -0.2782 0.4364, 1.498 -0.278 0.441, 1.498 -0.2766 0.4455, 1.498 -0.2741 0.4494, 1.498 -0.2722 0.4514, 1.498 -0.2685 0.454, 1.498 -0.2644 0.4556
            ]
        }
        coordIndex [
            0,1,2,-1,3,4,5,-1,6,7,8,-1,9,10,11,-1,12,11,13,-1,13,11,14,-1,2,1,15,-1,16,17,18,-1,18,17,19,-1,18,19,20,-1,20,19,21,-1,20,21,5,-1,5,21,22,-1,5,22,3,-1,23,9,24,-1,24,9,11,-1,24,11,25,-1,25,11,12,-1,26,27,28,-1,28,27,29,-1,28,29,30,-1,30,29,31,-1,30,31,32,-1,32,31,33,-1,6,8,34,-1,34,8,35,-1,34,35,36,-1,36,35,37,-1,36,37,38,-1,1,39,15,-1,15,39,40,-1,15,40,41,-1,41,40,42,-1,41,42,6,-1,6,42,43,-1,6,43,7,-1,44,45,21,-1,21,45,46,-1,21,46,47,-1,47,46,48,-1,47,48,49,-1,49,48,50,-1,49,50,51,-1,51,50,52,-1,51,52,53,-1,53,52,54,-1,53,54,55,-1,55,54,56,-1,55,56,24,-1,24,56,57,-1,24,57,23,-1,58,59,19,-1,19,59,60,-1,19,60,21,-1,21,60,61,-1,21,61,44,-1,62,63,64,-1,64,63,65,-1,64,65,66,-1,66,65,67,-1,66,67,68,-1,68,67,69,-1,68,69,70,-1,70,69,71,-1,70,71,72,-1,10,73,11,-1,11,73,74,-1,11,74,75,-1,75,74,76,-1,75,76,77,-1,77,76,78,-1,77,78,79,-1,79,78,80,-1,79,80,81,-1,81,80,82,-1,81,82,83,-1,83,82,84,-1,83,84,85,-1,85,84,86,-1,85,86,87,-1,87,86,88,-1,87,88,89,-1,89,88,90,-1,89,90,19,-1,19,90,91,-1,19,91,58,-1,31,92,33,-1,33,92,93,-1,33,93,94,-1,94,93,95,-1,94,95,96,-1,96,95,97,-1,96,97,98,-1,98,97,99,-1,98,99,100,-1,100,99,101,-1,100,101,102,-1,102,101,103,-1,102,103,62,-1,62,103,104,-1,62,104,63,-1,105,106,107,-1,107,106,108,-1,107,108,28,-1,28,108,109,-1,28,109,26,-1,110,111,112,-1,112,111,113,-1,112,113,114,-1,114,113,115,-1,114,115,116,-1,116,115,117,-1,116,117,118,-1,118,117,119,-1,118,119,14,-1,14,119,120,-1,14,120,13,-1,38,37,121,-1,121,37,122,-1,121,122,123,-1,123,122,124,-1,123,124,125,-1,125,124,126,-1,125,126,127,-1,127,126,128,-1,127,128,105,-1,105,128,129,-1,105,129,106,-1,2,130,0,-1,0,130,131,-1,0,131,132,-1,132,131,133,-1,132,133,134,-1,134,133,135,-1,134,135,110,-1,110,135,136,-1,110,136,111,-1,137,138,139,-1,71,140,72,-1,72,140,137,-1,72,137,141,-1,141,137,139,-1,142,143,137,-1,137,143,144,-1,137,144,138,-1,145,146,147,-1,146,148,147,-1,147,148,149,-1,147,149,150,-1,142,137,147,-1,147,137,151,-1,147,151,145,-1,152,153,154,-1,155,96,156,-1,156,96,98,-1,156,98,157,-1,158,33,155,-1,155,33,94,-1,155,94,96,-1,158,159,33,-1,33,159,160,-1,33,160,32,-1,32,160,161,-1,32,161,30,-1,30,161,162,-1,30,162,28,-1,28,162,163,-1,28,163,107,-1,107,163,164,-1,107,164,105,-1,105,164,165,-1,105,165,127,-1,127,165,166,-1,127,166,125,-1,125,166,167,-1,125,167,123,-1,123,167,168,-1,123,168,121,-1,121,168,169,-1,121,169,38,-1,38,169,170,-1,38,170,36,-1,36,170,171,-1,36,171,34,-1,34,171,172,-1,34,172,6,-1,6,172,173,-1,6,173,41,-1,41,173,174,-1,41,174,15,-1,15,174,175,-1,15,175,2,-1,2,175,176,-1,2,176,130,-1,130,176,177,-1,130,177,131,-1,131,177,178,-1,131,178,133,-1,133,178,179,-1,180,136,179,-1,179,136,135,-1,179,135,133,-1,154,113,152,-1,152,113,111,-1,152,111,181,-1,181,111,136,-1,181,136,182,-1,182,136,180,-1,154,153,113,-1,113,153,183,-1,113,183,115,-1,183,184,115,-1,115,184,185,-1,115,185,117,-1,117,185,186,-1,117,186,119,-1,119,186,187,-1,119,187,120,-1,120,187,188,-1,120,188,13,-1,13,188,189,-1,13,189,12,-1,12,189,190,-1,12,190,25,-1,190,191,25,-1,25,191,192,-1,25,192,24,-1,24,192,193,-1,24,193,55,-1,55,193,194,-1,55,194,53,-1,53,194,195,-1,53,195,51,-1,51,195,196,-1,51,196,49,-1,197,20,5,-1,49,196,198,-1,49,198,47,-1,47,198,199,-1,47,199,21,-1,21,199,200,-1,21,200,22,-1,22,200,201,-1,22,201,3,-1,3,201,202,-1,3,202,4,-1,4,202,203,-1,4,203,5,-1,5,203,204,-1,5,204,197,-1,18,20,205,-1,205,20,197,-1,16,18,206,-1,206,18,205,-1,207,17,208,-1,208,17,16,-1,208,16,206,-1,209,19,210,-1,210,19,17,-1,210,17,207,-1,19,209,211,-1,19,211,89,-1,89,211,212,-1,89,212,87,-1,212,213,87,-1,87,213,214,-1,87,214,85,-1,85,214,215,-1,85,215,83,-1,83,215,216,-1,83,216,81,-1,81,216,217,-1,81,217,79,-1,79,217,218,-1,79,218,77,-1,218,219,77,-1,77,219,220,-1,77,220,75,-1,75,220,221,-1,75,221,11,-1,222,112,114,-1,11,221,223,-1,11,223,14,-1,14,223,224,-1,14,224,118,-1,118,224,225,-1,118,225,116,-1,116,225,226,-1,116,226,114,-1,114,226,227,-1,114,227,222,-1,228,110,229,-1,229,110,112,-1,229,112,222,-1,230,132,228,-1,228,132,134,-1,228,134,110,-1,230,231,132,-1,132,231,232,-1,132,232,0,-1,0,232,233,-1,0,233,1,-1,1,233,234,-1,1,234,39,-1,39,234,235,-1,39,235,40,-1,40,235,236,-1,40,236,42,-1,42,236,237,-1,42,237,43,-1,43,237,238,-1,43,238,7,-1,7,238,239,-1,7,239,8,-1,8,239,240,-1,8,240,35,-1,35,240,241,-1,35,241,37,-1,37,241,242,-1,37,242,122,-1,122,242,243,-1,122,243,124,-1,124,243,244,-1,124,244,126,-1,126,244,245,-1,126,245,128,-1,128,245,246,-1,128,246,129,-1,129,246,247,-1,129,247,106,-1,106,247,248,-1,106,248,108,-1,108,248,249,-1,108,249,109,-1,109,249,26,-1,26,249,250,-1,26,250,251,-1,27,26,252,-1,252,26,251,-1,27,252,253,-1,27,253,29,-1,29,253,254,-1,29,254,31,-1,31,254,255,-1,31,255,92,-1,92,255,256,-1,92,256,93,-1,93,256,257,-1,93,257,95,-1,95,257,258,-1,95,258,97,-1,97,258,259,-1,97,259,99,-1,259,260,99,-1,99,260,101,-1,260,261,101,-1,101,261,262,-1,101,262,103,-1,103,262,263,-1,103,263,104,-1,104,263,264,-1,104,264,63,-1,63,264,265,-1,63,265,65,-1,65,265,266,-1,65,266,67,-1,67,266,267,-1,67,267,69,-1,71,69,268,-1,268,69,267,-1,71,268,269,-1,71,269,140,-1,140,269,270,-1,140,270,137,-1,137,270,271,-1,137,271,151,-1,151,271,272,-1,151,272,145,-1,145,272,273,-1,145,273,146,-1,146,273,274,-1,146,274,148,-1,148,274,275,-1,148,275,149,-1,149,275,276,-1,149,276,150,-1,150,276,277,-1,150,277,147,-1,147,277,278,-1,147,278,142,-1,142,278,279,-1,142,279,143,-1,143,279,280,-1,143,280,144,-1,144,280,281,-1,144,281,138,-1,138,281,282,-1,138,282,139,-1,139,282,283,-1,139,283,141,-1,141,283,284,-1,141,284,72,-1,72,284,285,-1,72,285,70,-1,68,70,286,-1,286,70,285,-1,68,286,287,-1,68,287,66,-1,66,287,288,-1,66,288,64,-1,64,288,289,-1,64,289,62,-1,62,289,290,-1,62,290,102,-1,102,290,291,-1,102,291,100,-1,100,291,98,-1,98,291,292,-1,98,292,157,-1,84,293,294,-1,84,294,86,-1,86,294,295,-1,86,295,88,-1,88,295,296,-1,88,296,90,-1,90,296,297,-1,90,297,91,-1,91,297,298,-1,91,298,58,-1,58,298,299,-1,58,299,59,-1,59,299,300,-1,59,300,60,-1,60,300,301,-1,60,301,61,-1,61,301,302,-1,61,302,44,-1,44,302,303,-1,44,303,45,-1,45,303,304,-1,45,304,46,-1,46,304,305,-1,46,305,48,-1,48,305,306,-1,48,306,50,-1,50,306,307,-1,50,307,52,-1,52,307,308,-1,52,308,54,-1,54,308,309,-1,54,309,56,-1,56,309,310,-1,56,310,57,-1,57,310,311,-1,57,311,23,-1,23,311,312,-1,23,312,9,-1,9,312,313,-1,9,313,10,-1,10,313,314,-1,10,314,73,-1,73,314,315,-1,73,315,74,-1,74,315,316,-1,74,316,76,-1,76,316,317,-1,76,317,78,-1,78,317,318,-1,78,318,80,-1,80,318,319,-1,80,319,82,-1,82,319,293,-1,82,293,84,-1,
        ]
    }
}
Shape{
    appearance Appearance {
        material  Material 	{
            diffuseColor 0.25098039215686274 0.25098039215686274 0.25098039215686274
            specularColor 0.12549019607843137 0.12549019607843137 0.12549019607843137
            ambientIntensity 0.251
            transparency 0.0
            shininess 0.5
        }
    }
    geometry IndexedFaceSet {
        ccw TRUE
        solid FALSE
        coord DEF co Coordinate {
            point [
                1.498 -0.2606 0.4192, 1.498 -0.2722 0.4514, 1.498 -0.2741 0.4494, 1.498 -0.255 0.4198, 1.498 -0.2509 0.4215, 1.498 -0.2558 0.4558, 1.498 -0.2598 0.4562, 1.498 -0.2644 0.4556, 1.498 -0.2685 0.454, 1.498 -0.2773 0.4319, 1.498 -0.2755 0.4279, 1.498 -0.2727 0.4246, 1.498 -0.2598 0.4192, 1.498 -0.2766 0.4455, 1.498 -0.278 0.441, 1.498 -0.2782 0.4364, 1.498 -0.2691 0.4218, 1.498 -0.2648 0.4199, 1.498 -0.2473 0.4241, 1.498 -0.2447 0.427, 1.498 -0.2425 0.4311, 1.498 -0.2414 0.4356, 1.498 -0.2414 0.4399, 1.498 -0.2425 0.4443, 1.498 -0.2445 0.4482, 1.498 -0.2476 0.4517, 1.498 -0.2514 0.4542
            ]
        }
        coordIndex [
            0,1,2,-1,3,4,5,-1,6,7,0,-1,0,7,8,-1,0,8,1,-1,9,10,2,-1,2,10,11,-1,6,0,5,-1,5,0,12,-1,5,12,3,-1,13,14,2,-1,2,14,15,-1,2,15,9,-1,11,16,2,-1,2,16,17,-1,2,17,0,-1,4,18,5,-1,5,18,19,-1,5,19,20,-1,20,21,5,-1,5,21,22,-1,5,22,23,-1,23,24,5,-1,5,24,25,-1,5,25,26,-1,
        ]
    }
}