#VRML V2.0 utf8
# 3D model generated by easyeda2kicad.py (https://github.com/uPesy/easyeda2kicad.py)

Shape{
    appearance Appearance {
        material  Material 	{
            diffuseColor 0.34901960784313724 0.34901960784313724 0.34901960784313724
            specularColor 0.023529411764705882 0.023529411764705882 0.023529411764705882
            ambientIntensity 0.498
            transparency 0.0
            shininess 0.5
        }
    }
    geometry IndexedFaceSet {
        ccw TRUE
        solid FALSE
        coord DEF co Coordinate {
            point [
                0.4261 -0.5158 0.7874, 0.4261 -0.5563 0.7874, 0.4444 -0.5563 0.7874, 0.4984 -0.6343 0.7874, 0.4965 -0.6345 0.7874, 0.5079 -0.6345 0.7874, 0.7087 -0.7874 0.7874, 0.7243 -0.7853 0.7874, 0.7243 -0.6526 0.7874, 0.729 0.7847 0.7874, 0.7243 0.7853 0.7874, 0.7874 0.7087 0.7874, 0.3185 -0.5107 0.7874, 0.3255 -0.5154 0.7874, 0.4015 -0.5154 0.7874, 0.6187 -0.5619 0.7874, 0.6039 -0.5615 0.7874, 0.5973 -0.5615 0.7874, 0.5927 -0.549 0.7874, 0.5759 -0.549 0.7874, 0.5759 -0.5619 0.7874, 0.5864 -0.5158 0.7874, 0.6187 -0.5154 0.7874, 0.5759 -0.5154 0.7874, 0.5736 -0.549 0.7874, 0.5692 -0.5615 0.7874, 0.5614 -0.5619 0.7874, 0.5627 -0.5615 0.7874, 0.5614 -0.5154 0.7874, 0.5759 -0.5269 0.7874, 0.5801 -0.5158 0.7874, 0.4697 -0.5203 0.7874, 0.4524 -0.5392 0.7874, 0.4753 -0.521 0.7874, 0.4785 -0.5222 0.7874, 0.4673 -0.5205 0.7874, 0.4634 -0.5214 0.7874, 0.4598 -0.5232 0.7874, 0.4525 -0.5416 0.7874, 0.4534 -0.546 0.7874, 0.455 -0.5496 0.7874, 0.4572 -0.5254 0.7874, 0.4547 -0.5289 0.7874, 0.4532 -0.5329 0.7874, 0.4569 -0.5522 0.7874, 0.4578 -0.5531 0.7874, 0.4608 -0.5552 0.7874, 0.4641 -0.5565 0.7874, 0.4687 -0.557 0.7874, 0.4708 -0.557 0.7874, 0.476 -0.556 0.7874, 0.4785 -0.5549 0.7874, 0.48 -0.5228 0.7874, 0.4805 -0.554 0.7874, 0.4805 -0.5231 0.7874, 0.487 -0.5619 0.7874, 0.487 -0.5154 0.7874, 0.4745 -0.5154 0.7874, 0.4757 -0.5155 0.7874, 0.4785 -0.5154 0.7874, 0.4785 -0.5163 0.7874, 0.4805 -0.5169 0.7874, 0.4697 -0.515 0.7874, 0.4785 0.7874 0.7874, 0.4696 -0.515 0.7874, 0.4483 0.7874 0.7874, 0.4665 -0.5154 0.7874, 0.4483 -0.5154 0.7874, 0.4495 -0.5261 0.7874, 0.4528 -0.5218 0.7874, 0.454 -0.5207 0.7874, 0.4582 -0.5177 0.7874, 0.463 -0.5158 0.7874, 0.4455 -0.5154 0.7874, 0.4473 -0.5312 0.7874, 0.4483 -0.529 0.7874, 0.4483 -0.5499 0.7874, 0.4471 -0.547 0.7874, 0.4455 -0.5619 0.7874, 0.4462 -0.5395 0.7874, 0.4463 -0.5371 0.7874, 0.4601 -0.5612 0.7874, 0.4558 -0.5591 0.7874, 0.4483 -0.5619 0.7874, 0.4521 -0.5561 0.7874, 0.449 -0.5518 0.7874, 0.4638 -0.5619 0.7874, 0.4483 -0.5753 0.7874, 0.4651 -0.5622 0.7874, 0.4678 -0.5623 0.7874, 0.4785 -0.5753 0.7874, 0.4719 -0.5619 0.7874, 0.4805 -0.5596 0.7874, 0.4797 -0.56 0.7874, 0.4785 -0.5619 0.7874, 0.4785 -0.5604 0.7874, 0.4748 -0.5616 0.7874, 0.5469 -0.5884 0.7874, 0.5614 -0.5884 0.7874, 0.5614 -0.5753 0.7874, 0.5614 -0.6345 0.7874, 0.5614 -0.6341 0.7874, 0.5469 -0.6341 0.7874, 0.5244 -0.626 0.7874, 0.5251 -0.6287 0.7874, 0.5252 -0.6287 0.7874, 0.5408 -0.6015 0.7874, 0.5186 -0.5753 0.7874, 0.5348 -0.6015 0.7874, 0.5186 -0.6094 0.7874, 0.5259 -0.6261 0.7874, 0.5255 -0.6276 0.7874, 0.5186 -0.6345 0.7874, 0.5186 -0.6248 0.7874, 0.5094 -0.6015 0.7874, 0.5079 -0.5753 0.7874, 0.5158 -0.6015 0.7874, 0.5222 -0.6341 0.7874, 0.522 -0.6345 0.7874, 0.5197 -0.64 0.7874, 0.5079 -0.6526 0.7874, 0.5106 -0.6491 0.7874, 0.5106 -0.644 0.7874, 0.5175 -0.6433 0.7874, 0.5186 -0.6421 0.7874, 0.5186 -0.6421 0.7874, 0.5186 -0.6485 0.7874, 0.5166 -0.6493 0.7874, 0.5186 -0.6526 0.7874, 0.5143 -0.6495 0.7874, 0.513 -0.6495 0.7874, 0.5138 -0.6446 0.7874, 0.5153 -0.6444 0.7874, 0.5166 -0.6439 0.7874, 0.5259 -0.6391 0.7874, 0.5233 -0.6441 0.7874, 0.5614 -0.6526 0.7874, 0.5277 -0.6345 0.7874, 0.5212 -0.6466 0.7874, 0.5209 -0.647 0.7874, 0.5189 -0.6484 0.7874, 0.3021 -0.5049 0.7874, 0.4015 0.7874 0.7874, 0.2887 -0.5035 0.7874, 0.2726 -0.5055 0.7874, 0.2576 -0.5113 0.7874, -0.7087 0.7874 0.7874, -0.729 0.7847 0.7874, -0.748 0.7769 0.7874, -0.7643 0.7643 0.7874, -0.7769 0.748 0.7874, 0.7847 0.729 0.7874, 0.7769 0.748 0.7874, 0.7643 0.7643 0.7874, 0.748 0.7769 0.7874, 0.729 -0.7847 0.7874, 0.748 -0.7769 0.7874, 0.7643 -0.7643 0.7874, 0.7769 -0.748 0.7874, 0.7847 -0.729 0.7874, 0.7874 -0.7087 0.7874, 0.5759 -0.7874 0.7874, 0.6187 -0.7874 0.7874, 0.6187 -0.6526 0.7874, 0.4015 -0.6526 0.7874, 0.2593 -0.6526 0.7874, 0.4015 -0.7874 0.7874, 0.2537 -0.6548 0.7874, 0.2458 -0.6558 0.7874, 0.2445 -0.6557 0.7874, -0.7087 -0.7874 0.7874, -0.7874 -0.6526 0.7874, -0.7874 -0.7087 0.7874, 0.2323 -0.6526 0.7874, -0.7847 -0.729 0.7874, -0.7769 -0.748 0.7874, -0.7643 -0.7643 0.7874, -0.748 -0.7769 0.7874, -0.729 -0.7847 0.7874, 0.2368 -0.6545 0.7874, 0.5045 -0.6198 0.7874, 0.5056 -0.6214 0.7874, 0.5049 -0.6077 0.7874, 0.4881 -0.6033 0.7874, 0.4895 -0.6024 0.7874, 0.487 -0.5753 0.7874, 0.4925 -0.6012 0.7874, 0.4971 -0.6007 0.7874, 0.5062 -0.6231 0.7874, 0.5064 -0.6252 0.7874, 0.5061 -0.6275 0.7874, 0.5054 -0.6294 0.7874, 0.5044 -0.6309 0.7874, 0.5049 -0.6022 0.7874, 0.5011 -0.6011 0.7874, 0.5027 -0.6323 0.7874, 0.5014 -0.6331 0.7874, 0.4965 -0.6054 0.7874, 0.4949 -0.6055 0.7874, 0.4903 -0.6098 0.7874, 0.4933 -0.6059 0.7874, 0.492 -0.6066 0.7874, 0.4903 -0.6105 0.7874, 0.4906 -0.6114 0.7874, 0.491 -0.6122 0.7874, 0.4915 -0.6128 0.7874, 0.4936 -0.6141 0.7874, 0.5 -0.6057 0.7874, 0.4971 -0.6156 0.7874, 0.5032 -0.6068 0.7874, 0.4993 -0.6165 0.7874, 0.5031 -0.6186 0.7874, 0.4912 -0.6073 0.7874, 0.4907 -0.6081 0.7874, 0.4904 -0.6088 0.7874, 0.4844 -0.6103 0.7874, 0.4846 -0.6082 0.7874, 0.4853 -0.6143 0.7874, 0.4846 -0.6125 0.7874, 0.4843 -0.6271 0.7874, 0.4853 -0.6064 0.7874, 0.4864 -0.6048 0.7874, 0.487 -0.6043 0.7874, 0.4869 -0.6286 0.7874, 0.487 -0.6286 0.7874, 0.487 -0.6165 0.7874, 0.486 -0.6154 0.7874, 0.4869 -0.6164 0.7874, 0.4905 -0.6299 0.7874, 0.4931 -0.6198 0.7874, 0.4896 -0.6182 0.7874, 0.4938 -0.6302 0.7874, 0.494 -0.6302 0.7874, 0.4968 -0.6213 0.7874, 0.497 -0.6299 0.7874, 0.5005 -0.6258 0.7874, 0.5005 -0.6251 0.7874, 0.4984 -0.6294 0.7874, 0.499 -0.629 0.7874, 0.4996 -0.6285 0.7874, 0.5001 -0.6277 0.7874, 0.5004 -0.6269 0.7874, 0.5002 -0.6242 0.7874, 0.4998 -0.6234 0.7874, 0.4991 -0.6227 0.7874, 0.4895 -0.6345 0.7874, 0.4884 -0.6344 0.7874, 0.487 -0.6345 0.7874, 0.487 -0.6339 0.7874, 0.4785 -0.6345 0.7874, 0.4843 -0.633 0.7874, 0.4932 -0.6349 0.7874, 0.487 -0.6526 0.7874, 0.5118 -0.6443 0.7874, 0.4525 -0.6188 0.7874, 0.4535 -0.6093 0.7874, 0.4513 -0.6206 0.7874, 0.4506 -0.6227 0.7874, 0.4766 -0.6341 0.7874, 0.4709 -0.6341 0.7874, 0.4662 -0.6056 0.7874, 0.4642 -0.6054 0.7874, 0.4612 -0.6147 0.7874, 0.476 -0.6083 0.7874, 0.4766 -0.6131 0.7874, 0.4541 -0.6172 0.7874, 0.4564 -0.6159 0.7874, 0.4575 -0.6068 0.7874, 0.4611 -0.6057 0.7874, 0.4483 -0.6345 0.7874, 0.4551 -0.6337 0.7874, 0.4531 -0.6323 0.7874, 0.4535 -0.6037 0.7874, 0.4503 -0.6254 0.7874, 0.4507 -0.6282 0.7874, 0.4709 -0.6291 0.7874, 0.4707 -0.6291 0.7874, 0.4696 -0.6306 0.7874, 0.4678 -0.6325 0.7874, 0.4526 -0.6318 0.7874, 0.4514 -0.6301 0.7874, 0.4709 -0.6134 0.7874, 0.4707 -0.6108 0.7874, 0.4701 -0.6088 0.7874, 0.4694 -0.6076 0.7874, 0.4547 -0.6031 0.7874, 0.4589 -0.6014 0.7874, 0.4648 -0.6007 0.7874, 0.4687 -0.6011 0.7874, 0.471 -0.6019 0.7874, 0.4728 -0.6031 0.7874, 0.4739 -0.6041 0.7874, 0.4751 -0.6058 0.7874, 0.4685 -0.6067 0.7874, 0.4675 -0.606 0.7874, 0.4638 -0.6345 0.7874, 0.4637 -0.6346 0.7874, 0.4785 -0.6526 0.7874, 0.4483 -0.6526 0.7874, 0.4607 -0.6349 0.7874, 0.4574 -0.6345 0.7874, 0.4573 -0.6345 0.7874, 0.3618 -0.5515 0.7874, 0.3707 -0.5589 0.7874, 0.4015 -0.5619 0.7874, 0.333 -0.5204 0.7874, 0.3345 -0.5219 0.7874, 0.3448 -0.5345 0.7874, 0.3505 -0.5461 0.7874, 0.3522 -0.5467 0.7874, -0.7847 0.729 0.7874, -0.7874 0.7087 0.7874, 0.251 -0.5154 0.7874, -0.7874 -0.5154 0.7874, 0.2497 -0.5162 0.7874, 0.1905 -0.5455 0.7874, 0.1932 -0.5429 0.7874, 0.2158 -0.5313 0.7874, 0.2279 -0.5299 0.7874, 0.2421 -0.5227 0.7874, 0.2316 -0.5301 0.7874, 0.2354 -0.5305 0.7874, 0.2037 -0.5358 0.7874, -0.7874 -0.5619 0.7874, -0.7874 -0.5753 0.7874, 0.176 -0.5753 0.7874, 0.1777 -0.5666 0.7874, 0.1798 -0.5619 0.7874, 0.183 -0.555 0.7874, 0.2099 -0.6321 0.7874, 0.1983 -0.6262 0.7874, -0.7874 -0.6345 0.7874, 0.1889 -0.618 0.7874, 0.1811 -0.6068 0.7874, 0.1766 -0.5946 0.7874, 0.1752 -0.5826 0.7874, 0.1753 -0.5788 0.7874, 0.2149 -0.6336 0.7874, 0.2153 -0.6345 0.7874, 0.2181 -0.6406 0.7874, 0.223 -0.6466 0.7874, 0.2293 -0.6514 0.7874, 0.4015 -0.6345 0.7874, 0.2763 -0.6345 0.7874, 0.2763 -0.6346 0.7874, 0.2724 -0.6419 0.7874, 0.2674 -0.6475 0.7874, 0.2609 -0.652 0.7874, 0.3813 -0.5781 0.7874, 0.3828 -0.5887 0.7874, 0.4015 -0.5753 0.7874, 0.3178 -0.6153 0.7874, 0.32 -0.6144 0.7874, 0.3239 -0.5959 0.7874, 0.3707 -0.6196 0.7874, 0.3619 -0.6271 0.7874, 0.2702 -0.6014 0.7874, 0.3138 -0.5787 0.7874, 0.2645 -0.5963 0.7874, 0.2576 -0.5926 0.7874, 0.3158 -0.6167 0.7874, 0.3772 -0.6107 0.7874, 0.3624 -0.5862 0.7874, 0.3609 -0.58 0.7874, 0.3584 -0.5753 0.7874, 0.1965 -0.5753 0.7874, 0.3813 -0.6004 0.7874, 0.3226 -0.6141 0.7874, 0.3229 -0.6141 0.7874, 0.3239 -0.6144 0.7874, 0.1984 -0.5949 0.7874, 0.2023 -0.6015 0.7874, 0.2188 -0.6048 0.7874, 0.2081 -0.6075 0.7874, 0.2152 -0.6118 0.7874, 0.2308 -0.5941 0.7874, 0.2242 -0.5987 0.7874, 0.1957 -0.5819 0.7874, 0.1961 -0.5869 0.7874, 0.238 -0.5913 0.7874, 0.2458 -0.5904 0.7874, 0.2498 -0.5906 0.7874, 0.3125 -0.6242 0.7874, 0.3126 -0.6229 0.7874, 0.2783 -0.62 0.7874, 0.3132 -0.6204 0.7874, 0.3145 -0.6182 0.7874, 0.356 -0.6063 0.7874, 0.3596 -0.6012 0.7874, 0.3618 -0.5954 0.7874, 0.3626 -0.5891 0.7874, 0.3201 -0.634 0.7874, 0.3179 -0.6331 0.7874, 0.3158 -0.6316 0.7874, 0.3151 -0.6309 0.7874, 0.3136 -0.6288 0.7874, 0.3128 -0.6266 0.7874, 0.2782 -0.6266 0.7874, 0.2783 -0.6232 0.7874, 0.3519 -0.632 0.7874, 0.3411 -0.6343 0.7874, 0.3219 -0.6343 0.7874, 0.3245 -0.6144 0.7874, 0.3392 -0.6144 0.7874, 0.345 -0.6133 0.7874, 0.3507 -0.6107 0.7874, 0.3555 -0.6068 0.7874, 0.3346 -0.5637 0.7874, 0.1994 -0.5668 0.7874, 0.1967 -0.574 0.7874, 0.3372 -0.5637 0.7874, 0.3579 -0.5744 0.7874, 0.3541 -0.5702 0.7874, 0.3491 -0.5666 0.7874, 0.3434 -0.5645 0.7874, 0.3276 -0.5442 0.7874, 0.3203 -0.5354 0.7874, 0.2455 -0.5543 0.7874, 0.3194 -0.5346 0.7874, 0.3103 -0.5283 0.7874, 0.2504 -0.544 0.7874, 0.2028 -0.5619 0.7874, 0.2431 -0.553 0.7874, 0.3342 -0.5619 0.7874, 0.3326 -0.5547 0.7874, 0.2358 -0.5503 0.7874, 0.2282 -0.5494 0.7874, 0.2249 -0.5496 0.7874, 0.2577 -0.5353 0.7874, 0.3001 -0.5244 0.7874, 0.2665 -0.5289 0.7874, 0.2891 -0.523 0.7874, 0.2771 -0.5246 0.7874, 0.2168 -0.5514 0.7874, 0.2096 -0.5553 0.7874, 0.204 -0.5603 0.7874, 0.3728 -0.5619 0.7874, 0.3773 -0.5682 0.7874, 0.3802 -0.5753 0.7874, 0.5716 -0.6341 0.7874, 0.5759 -0.6345 0.7874, 0.5716 -0.6289 0.7874, 0.5759 -0.5753 0.7874, 0.5705 -0.5884 0.7874, 0.5705 -0.5936 0.7874, 0.5529 -0.6135 0.7874, 0.5529 -0.6289 0.7874, 0.5614 -0.6135 0.7874, 0.5614 -0.6289 0.7874, 0.5692 -0.6135 0.7874, 0.5692 -0.6083 0.7874, 0.5529 -0.5936 0.7874, 0.5529 -0.6083 0.7874, 0.5614 -0.5936 0.7874, 0.5614 -0.6083 0.7874, 0.5186 -0.5154 0.7874, 0.5079 -0.5154 0.7874, 0.5132 -0.5158 0.7874, 0.5079 -0.5158 0.7874, 0.4956 -0.5409 0.7874, 0.4956 -0.5563 0.7874, 0.5079 -0.5409 0.7874, 0.5079 -0.5563 0.7874, 0.5119 -0.5409 0.7874, 0.5143 -0.5563 0.7874, 0.5119 -0.5357 0.7874, 0.5132 -0.521 0.7874, 0.5079 -0.5357 0.7874, 0.5079 -0.521 0.7874, 0.4956 -0.5357 0.7874, 0.4956 -0.521 0.7874, 0.5186 -0.5619 0.7874, 0.5143 -0.5615 0.7874, 0.5079 -0.5619 0.7874, 0.5079 -0.5615 0.7874, 0.4896 -0.5615 0.7874, 0.4896 -0.5158 0.7874, 0.5759 -0.6526 0.7874, 0.5614 -0.7874 0.7874, 0.5186 -0.7874 0.7874, 0.5079 -0.7874 0.7874, 0.487 -0.7874 0.7874, 0.4785 -0.7874 0.7874, 0.4483 -0.7874 0.7874, 0.466 -0.6337 0.7874, 0.7243 -0.6345 0.7874, 0.6187 -0.6345 0.7874, 0.4202 -0.5884 0.7874, 0.4202 -0.6341 0.7874, 0.4455 -0.6345 0.7874, 0.4455 -0.6526 0.7874, 0.4455 -0.7874 0.7874, 0.4438 -0.5884 0.7874, 0.4455 -0.5753 0.7874, 0.4438 -0.5936 0.7874, 0.4448 -0.6289 0.7874, 0.4448 -0.6341 0.7874, 0.4261 -0.6135 0.7874, 0.4261 -0.6289 0.7874, 0.4425 -0.6135 0.7874, 0.4425 -0.6083 0.7874, 0.4261 -0.6083 0.7874, 0.4261 -0.5936 0.7874, 0.5802 -0.6341 0.7874, 0.6162 -0.6189 0.7874, 0.614 -0.6237 0.7874, 0.6106 -0.6277 0.7874, 0.615 -0.6 0.7874, 0.6167 -0.6043 0.7874, 0.6187 -0.5753 0.7874, 0.6175 -0.6107 0.7874, 0.6173 -0.6136 0.7874, 0.6058 -0.6311 0.7874, 0.6006 -0.6332 0.7874, 0.5928 -0.6341 0.7874, 0.5802 -0.5884 0.7874, 0.5933 -0.5884 0.7874, 0.6002 -0.5891 0.7874, 0.6058 -0.5912 0.7874, 0.6106 -0.5944 0.7874, 0.6122 -0.596 0.7874, 0.6265 -0.6341 0.7874, 0.62 -0.6341 0.7874, 0.6546 -0.6341 0.7874, 0.65 -0.6216 0.7874, 0.6309 -0.6216 0.7874, 0.6374 -0.5884 0.7874, 0.6437 -0.5884 0.7874, 0.4202 -0.5615 0.7874, 0.4202 -0.5158 0.7874, 0.4444 -0.5615 0.7874, 0.5577 -0.5274 0.7874, 0.5594 -0.5318 0.7874, 0.5602 -0.5381 0.7874, 0.56 -0.541 0.7874, 0.5589 -0.5463 0.7874, 0.5567 -0.5511 0.7874, 0.5533 -0.5551 0.7874, 0.5485 -0.5585 0.7874, 0.536 -0.5158 0.7874, 0.5429 -0.5166 0.7874, 0.5485 -0.5186 0.7874, 0.5433 -0.5606 0.7874, 0.5355 -0.5615 0.7874, 0.5229 -0.5615 0.7874, 0.5229 -0.5158 0.7874, 0.5533 -0.5218 0.7874, 0.5549 -0.5234 0.7874, 0.6612 -0.6341 0.7874, 0.7243 -0.5753 0.7874, 0.7243 -0.5619 0.7874, 0.7243 -0.5154 0.7874, 0.7874 -0.6526 0.7874, 0.7874 -0.6345 0.7874, 0.7874 -0.5753 0.7874, 0.7874 -0.5619 0.7874, 0.7874 -0.5154 0.7874, 0.4455 0.7874 0.7874, 0.487 0.7874 0.7874, 0.5079 0.7874 0.7874, 0.5186 0.7874 0.7874, 0.5614 0.7874 0.7874, 0.5759 0.7874 0.7874, 0.6187 0.7874 0.7874, 0.7087 0.7874 0.7874, 0.3465 0.7795 0.0197, -0.7087 0.7874 0.0197, 0.7087 0.7874 0.0197, -0.7008 -0.7795 0.0197, -0.7087 -0.7874 0.0197, -0.7212 -0.7768 0.0197, -0.729 -0.7847 0.0197, -0.7402 -0.769 0.0197, -0.748 -0.7769 0.0197, -0.7565 -0.7565 0.0197, -0.7643 -0.7643 0.0197, -0.769 -0.7402 0.0197, -0.7769 -0.748 0.0197, -0.7768 -0.7212 0.0197, -0.7847 -0.729 0.0197, -0.7795 -0.7008 0.0197, -0.7874 -0.7087 0.0197, -0.7795 0.7008 0.0197, -0.7874 0.7087 0.0197, -0.7768 0.7212 0.0197, -0.7847 0.729 0.0197, -0.769 0.7402 0.0197, -0.7769 0.748 0.0197, -0.7565 0.7565 0.0197, -0.7643 0.7643 0.0197, -0.7402 0.769 0.0197, -0.748 0.7769 0.0197, -0.7212 0.7768 0.0197, -0.729 0.7847 0.0197, -0.7008 0.7795 0.0197, -0.3465 0.7795 0.0197, -0.3465 -0.7795 0.0197, 0.3465 -0.7795 0.0197, 0.7087 -0.7874 0.0197, 0.7008 -0.7795 0.0197, 0.729 -0.7847 0.0197, 0.7212 -0.7768 0.0197, 0.748 -0.7769 0.0197, 0.7402 -0.769 0.0197, 0.7643 -0.7643 0.0197, 0.7565 -0.7565 0.0197, 0.7769 -0.748 0.0197, 0.769 -0.7402 0.0197, 0.7847 -0.729 0.0197, 0.7768 -0.7212 0.0197, 0.7874 -0.7087 0.0197, 0.7795 -0.7008 0.0197, 0.7874 0.7087 0.0197, 0.7795 0.7008 0.0197, 0.7847 0.729 0.0197, 0.7768 0.7212 0.0197, 0.7769 0.748 0.0197, 0.769 0.7402 0.0197, 0.7643 0.7643 0.0197, 0.7565 0.7565 0.0197, 0.748 0.7769 0.0197, 0.7402 0.769 0.0197, 0.729 0.7847 0.0197, 0.7212 0.7768 0.0197, 0.7008 0.7795 0.0197
            ]
        }
        coordIndex [
            0,1,2,-1,3,4,5,-1,6,7,8,-1,9,10,11,-1,12,13,14,-1,15,16,17,-1,18,19,17,-1,17,19,20,-1,17,20,15,-1,16,15,21,-1,21,15,22,-1,21,22,23,-1,19,24,20,-1,20,24,25,-1,20,25,26,-1,26,25,27,-1,26,27,28,-1,28,27,29,-1,28,29,23,-1,23,29,30,-1,23,30,21,-1,31,32,33,-1,33,32,34,-1,31,35,32,-1,32,35,36,-1,32,36,37,-1,32,38,34,-1,34,38,39,-1,34,39,40,-1,37,41,32,-1,32,41,42,-1,32,42,43,-1,40,44,34,-1,34,44,45,-1,34,45,46,-1,46,47,34,-1,34,47,48,-1,34,48,49,-1,49,50,34,-1,34,50,51,-1,34,51,52,-1,52,51,53,-1,52,53,54,-1,54,53,55,-1,54,55,56,-1,57,58,59,-1,59,58,60,-1,59,60,56,-1,56,60,61,-1,56,61,54,-1,62,63,64,-1,64,63,65,-1,64,65,66,-1,67,68,69,-1,69,70,67,-1,67,70,71,-1,67,71,72,-1,73,74,67,-1,67,74,75,-1,67,75,68,-1,76,77,78,-1,78,77,79,-1,78,79,73,-1,73,79,80,-1,73,80,74,-1,81,82,83,-1,82,84,83,-1,83,84,85,-1,83,85,76,-1,81,83,86,-1,86,83,87,-1,86,87,88,-1,88,87,89,-1,89,87,90,-1,89,90,91,-1,53,92,55,-1,55,92,93,-1,55,93,94,-1,94,93,95,-1,94,95,96,-1,97,98,99,-1,100,101,102,-1,103,104,105,-1,106,107,108,-1,108,107,109,-1,108,109,110,-1,110,109,103,-1,110,103,111,-1,111,103,105,-1,112,113,5,-1,5,113,114,-1,5,114,115,-1,115,114,107,-1,107,114,116,-1,107,116,109,-1,117,113,118,-1,118,113,112,-1,118,112,119,-1,120,121,122,-1,123,124,112,-1,112,124,125,-1,112,125,119,-1,126,127,128,-1,128,127,129,-1,128,129,120,-1,120,129,130,-1,120,130,121,-1,131,132,112,-1,112,132,133,-1,112,133,123,-1,134,135,136,-1,134,136,137,-1,135,138,136,-1,136,138,139,-1,136,139,128,-1,128,139,140,-1,128,140,126,-1,141,142,143,-1,143,142,144,-1,144,142,145,-1,145,142,146,-1,145,146,147,-1,147,148,145,-1,145,148,149,-1,145,149,150,-1,151,152,153,-1,151,153,11,-1,11,153,154,-1,11,154,9,-1,7,155,8,-1,8,155,156,-1,8,156,157,-1,157,158,8,-1,8,158,159,-1,8,159,160,-1,161,162,163,-1,163,162,6,-1,164,165,166,-1,166,165,167,-1,167,168,166,-1,166,168,169,-1,166,169,170,-1,171,172,173,-1,173,172,174,-1,174,175,173,-1,173,175,176,-1,173,176,177,-1,177,178,173,-1,173,178,170,-1,173,170,179,-1,179,170,169,-1,180,181,182,-1,183,184,185,-1,184,186,185,-1,185,186,187,-1,185,187,115,-1,188,189,5,-1,189,190,5,-1,5,190,191,-1,5,191,192,-1,181,188,182,-1,182,188,5,-1,182,5,193,-1,193,5,115,-1,193,115,194,-1,194,115,187,-1,192,195,5,-1,5,195,196,-1,5,196,3,-1,197,198,199,-1,199,198,200,-1,199,200,201,-1,199,202,197,-1,197,202,203,-1,197,203,204,-1,204,205,197,-1,197,205,206,-1,197,206,207,-1,207,206,208,-1,207,208,209,-1,209,208,210,-1,209,210,182,-1,182,210,211,-1,182,211,180,-1,212,213,201,-1,201,213,214,-1,201,214,199,-1,215,216,90,-1,217,218,219,-1,216,220,90,-1,90,220,221,-1,90,221,185,-1,185,221,222,-1,185,222,183,-1,223,224,225,-1,217,219,226,-1,223,225,219,-1,219,225,227,-1,219,227,226,-1,228,229,224,-1,224,229,230,-1,224,230,225,-1,228,231,229,-1,229,231,232,-1,229,232,233,-1,233,232,234,-1,233,235,236,-1,234,237,233,-1,233,237,238,-1,233,238,239,-1,239,240,233,-1,233,240,241,-1,233,241,235,-1,236,242,233,-1,233,242,243,-1,233,243,244,-1,245,246,247,-1,247,246,248,-1,247,248,249,-1,249,248,250,-1,249,250,219,-1,251,252,4,-1,4,252,120,-1,4,120,5,-1,5,120,122,-1,5,122,112,-1,112,122,253,-1,112,253,131,-1,254,255,256,-1,256,255,257,-1,249,258,259,-1,260,261,262,-1,90,263,264,-1,254,265,255,-1,255,265,266,-1,255,266,267,-1,267,266,262,-1,267,262,268,-1,268,262,261,-1,218,215,219,-1,219,215,90,-1,219,90,249,-1,249,90,264,-1,249,264,258,-1,269,270,271,-1,255,272,257,-1,257,272,87,-1,257,87,273,-1,273,87,269,-1,273,269,274,-1,275,276,259,-1,259,276,277,-1,259,277,278,-1,271,279,269,-1,269,279,280,-1,269,280,274,-1,281,282,262,-1,262,282,283,-1,262,283,284,-1,272,285,87,-1,87,285,286,-1,87,286,90,-1,90,286,287,-1,287,288,90,-1,90,288,289,-1,90,289,290,-1,290,291,90,-1,90,291,292,-1,90,292,263,-1,284,293,262,-1,262,293,294,-1,262,294,260,-1,295,296,297,-1,297,296,298,-1,296,299,298,-1,298,299,300,-1,298,300,269,-1,269,300,301,-1,269,301,270,-1,302,303,14,-1,14,303,304,-1,13,305,14,-1,14,305,306,-1,14,306,307,-1,307,308,14,-1,14,308,309,-1,14,309,302,-1,150,310,145,-1,145,310,311,-1,145,311,312,-1,312,311,313,-1,312,313,314,-1,315,316,313,-1,317,318,319,-1,319,318,320,-1,319,320,321,-1,316,322,313,-1,313,322,317,-1,313,317,314,-1,314,317,319,-1,323,324,325,-1,325,326,323,-1,323,326,327,-1,323,327,313,-1,313,327,328,-1,313,328,315,-1,329,330,331,-1,331,330,332,-1,331,332,333,-1,333,334,331,-1,331,334,335,-1,331,335,324,-1,324,335,336,-1,324,336,325,-1,337,329,338,-1,338,329,331,-1,338,331,339,-1,339,331,340,-1,171,173,331,-1,331,173,341,-1,331,341,340,-1,342,343,164,-1,164,343,344,-1,164,344,345,-1,345,346,164,-1,164,346,347,-1,164,347,165,-1,348,349,350,-1,351,352,353,-1,354,355,342,-1,356,357,358,-1,358,357,359,-1,351,353,360,-1,354,342,361,-1,362,363,357,-1,357,363,364,-1,357,364,365,-1,350,349,342,-1,342,349,366,-1,342,366,361,-1,352,367,353,-1,353,367,368,-1,353,368,369,-1,370,371,372,-1,372,371,373,-1,372,373,374,-1,375,365,376,-1,376,365,377,-1,376,377,372,-1,372,377,378,-1,372,378,370,-1,375,379,365,-1,365,379,380,-1,365,380,357,-1,357,380,381,-1,357,381,359,-1,382,383,384,-1,384,383,385,-1,384,385,353,-1,353,385,386,-1,353,386,360,-1,387,388,353,-1,353,388,389,-1,353,389,357,-1,357,389,390,-1,357,390,362,-1,391,392,343,-1,343,392,393,-1,343,393,394,-1,394,395,343,-1,343,395,396,-1,343,396,397,-1,397,396,382,-1,397,382,398,-1,398,382,384,-1,355,399,342,-1,342,399,400,-1,342,400,343,-1,343,400,401,-1,343,401,391,-1,369,402,353,-1,353,402,403,-1,353,403,404,-1,404,405,353,-1,353,405,406,-1,353,406,387,-1,407,408,409,-1,409,365,407,-1,407,365,364,-1,407,364,410,-1,410,364,411,-1,411,412,410,-1,410,412,413,-1,410,413,414,-1,415,416,417,-1,416,418,417,-1,417,418,419,-1,417,419,420,-1,421,417,422,-1,408,407,421,-1,421,407,423,-1,421,423,417,-1,417,423,424,-1,417,424,415,-1,422,425,421,-1,421,425,426,-1,421,426,427,-1,420,419,428,-1,428,419,429,-1,428,429,430,-1,430,429,431,-1,430,431,432,-1,433,434,427,-1,427,434,435,-1,427,435,421,-1,303,436,304,-1,304,436,437,-1,304,437,350,-1,350,437,438,-1,350,438,348,-1,101,100,439,-1,439,100,440,-1,439,440,441,-1,99,98,442,-1,442,98,443,-1,442,443,444,-1,445,446,447,-1,447,446,448,-1,447,448,449,-1,449,448,441,-1,449,441,450,-1,451,452,453,-1,453,452,454,-1,453,454,444,-1,455,456,457,-1,457,456,458,-1,459,460,461,-1,461,460,462,-1,461,462,463,-1,463,462,464,-1,463,464,465,-1,465,464,466,-1,465,466,467,-1,467,466,468,-1,467,468,469,-1,469,468,470,-1,457,466,455,-1,455,466,464,-1,455,464,471,-1,471,464,472,-1,471,472,473,-1,473,472,474,-1,473,474,475,-1,458,456,476,-1,476,456,56,-1,476,56,475,-1,475,56,55,-1,475,55,473,-1,161,477,478,-1,478,477,136,-1,478,136,479,-1,479,136,128,-1,479,128,480,-1,480,128,120,-1,480,120,481,-1,481,120,252,-1,481,252,482,-1,482,252,297,-1,482,297,483,-1,483,297,298,-1,251,245,252,-1,252,245,247,-1,252,247,297,-1,297,247,249,-1,297,249,295,-1,295,249,259,-1,295,259,484,-1,484,259,278,-1,477,440,136,-1,136,440,100,-1,136,100,137,-1,137,100,102,-1,137,102,106,-1,106,102,97,-1,106,97,107,-1,107,97,99,-1,6,8,163,-1,163,8,485,-1,163,485,486,-1,487,350,488,-1,488,350,342,-1,488,342,489,-1,489,342,164,-1,489,164,490,-1,490,164,166,-1,490,166,491,-1,487,492,493,-1,492,494,493,-1,493,494,495,-1,493,495,489,-1,489,495,496,-1,489,496,488,-1,497,498,499,-1,499,498,495,-1,499,495,500,-1,500,495,494,-1,500,494,501,-1,501,494,502,-1,454,450,444,-1,444,450,441,-1,444,441,442,-1,442,441,440,-1,442,440,503,-1,504,505,486,-1,486,505,506,-1,507,508,509,-1,509,508,510,-1,509,510,486,-1,486,510,511,-1,486,511,504,-1,506,512,486,-1,486,512,513,-1,486,513,514,-1,161,163,477,-1,477,163,486,-1,477,486,440,-1,440,486,514,-1,440,514,503,-1,503,515,442,-1,442,515,516,-1,442,516,509,-1,509,516,517,-1,509,517,518,-1,518,519,509,-1,509,519,520,-1,509,520,507,-1,521,522,486,-1,523,524,525,-1,486,522,509,-1,509,522,526,-1,509,526,527,-1,76,78,83,-1,83,78,493,-1,83,493,87,-1,87,493,489,-1,87,489,269,-1,269,489,490,-1,269,490,298,-1,298,490,491,-1,298,491,483,-1,509,15,442,-1,442,15,20,-1,442,20,99,-1,99,20,26,-1,99,26,107,-1,107,26,471,-1,107,471,115,-1,115,471,473,-1,115,473,185,-1,185,473,55,-1,185,55,90,-1,90,55,94,-1,90,94,91,-1,91,94,96,-1,487,493,350,-1,350,493,78,-1,350,78,304,-1,304,78,528,-1,304,528,14,-1,528,529,14,-1,14,529,0,-1,14,0,73,-1,73,0,2,-1,73,2,78,-1,78,2,530,-1,78,530,528,-1,531,532,28,-1,28,532,533,-1,28,533,26,-1,26,533,534,-1,26,534,535,-1,535,536,26,-1,26,536,537,-1,26,537,538,-1,455,539,28,-1,28,539,540,-1,28,540,541,-1,538,542,26,-1,26,542,543,-1,26,543,471,-1,471,543,544,-1,471,544,455,-1,455,544,545,-1,455,545,539,-1,541,546,28,-1,28,546,547,-1,28,547,531,-1,525,521,523,-1,523,521,486,-1,523,486,548,-1,548,486,485,-1,548,485,527,-1,527,485,549,-1,527,549,509,-1,509,549,550,-1,509,550,15,-1,15,550,551,-1,15,551,22,-1,160,552,8,-1,8,552,553,-1,8,553,485,-1,485,553,554,-1,485,554,549,-1,549,554,555,-1,549,555,550,-1,550,555,556,-1,550,556,551,-1,72,66,67,-1,67,66,65,-1,67,65,73,-1,73,65,557,-1,73,557,14,-1,14,557,142,-1,14,142,12,-1,12,142,141,-1,62,57,63,-1,63,57,59,-1,63,59,558,-1,558,59,56,-1,558,56,559,-1,559,56,456,-1,559,456,560,-1,560,456,455,-1,560,455,561,-1,561,455,28,-1,561,28,562,-1,562,28,23,-1,562,23,563,-1,563,23,22,-1,563,22,564,-1,564,22,551,-1,564,551,10,-1,10,551,556,-1,10,556,11,-1,565,566,567,-1,568,569,570,-1,570,569,571,-1,570,571,572,-1,572,571,573,-1,572,573,574,-1,574,573,575,-1,574,575,576,-1,576,575,577,-1,576,577,578,-1,578,577,579,-1,578,579,580,-1,580,579,581,-1,580,581,582,-1,582,581,583,-1,582,583,584,-1,584,583,585,-1,584,585,586,-1,586,585,587,-1,586,587,588,-1,588,587,589,-1,588,589,590,-1,590,589,591,-1,590,591,592,-1,592,591,593,-1,592,593,594,-1,594,593,566,-1,594,566,595,-1,595,566,565,-1,595,565,596,-1,596,565,597,-1,568,596,569,-1,569,596,597,-1,569,597,598,-1,598,597,599,-1,598,599,600,-1,600,599,601,-1,600,601,602,-1,602,601,603,-1,602,603,604,-1,604,603,605,-1,604,605,606,-1,606,605,607,-1,606,607,608,-1,608,607,609,-1,608,609,610,-1,610,609,611,-1,610,611,612,-1,612,611,613,-1,612,613,614,-1,614,613,615,-1,614,615,616,-1,616,615,617,-1,616,617,618,-1,618,617,619,-1,618,619,620,-1,620,619,621,-1,620,621,622,-1,622,621,623,-1,622,623,567,-1,567,623,624,-1,567,624,565,-1,610,612,160,-1,160,612,11,-1,567,566,564,-1,564,566,146,-1,172,311,581,-1,581,311,583,-1,569,598,170,-1,170,598,6,-1,172,581,579,-1,172,579,174,-1,174,579,577,-1,174,577,175,-1,175,577,575,-1,175,575,176,-1,176,575,573,-1,176,573,177,-1,177,573,571,-1,177,571,178,-1,178,571,569,-1,178,569,170,-1,6,598,600,-1,6,600,155,-1,155,600,602,-1,155,602,156,-1,156,602,604,-1,156,604,157,-1,157,604,606,-1,157,606,158,-1,158,606,608,-1,158,608,159,-1,159,608,610,-1,159,610,160,-1,11,612,614,-1,11,614,151,-1,151,614,616,-1,151,616,152,-1,152,616,618,-1,152,618,153,-1,153,618,620,-1,153,620,154,-1,154,620,622,-1,154,622,9,-1,9,622,567,-1,9,567,564,-1,146,566,593,-1,146,593,147,-1,147,593,591,-1,147,591,148,-1,148,591,589,-1,148,589,149,-1,149,589,587,-1,149,587,150,-1,150,587,585,-1,150,585,310,-1,310,585,583,-1,310,583,311,-1,
        ]
    }
}
Shape{
    appearance Appearance {
        material  Material 	{
            diffuseColor 0.6666666666666666 0.6666666666666666 0.6666666666666666
            specularColor 0.4666666666666667 0.4666666666666667 0.4666666666666667
            ambientIntensity 0.6667
            transparency 0.0
            shininess 0.5
        }
    }
    geometry IndexedFaceSet {
        ccw TRUE
        solid FALSE
        coord DEF co Coordinate {
            point [
                0.3465 0.7795 0.0, 0.3465 -0.7795 0.0, 0.3465 0.7795 0.0197, 0.3465 -0.7795 0.0197, 0.7008 0.7795 0.0, 0.7008 0.7795 0.0197, 0.7212 0.7768 0.0197, 0.7212 0.7768 0.0, 0.7402 0.769 0.0197, 0.7402 0.769 0.0, 0.7565 0.7565 0.0197, 0.7565 0.7565 0.0, 0.769 0.7402 0.0197, 0.769 0.7402 0.0, 0.7768 0.7212 0.0197, 0.7768 0.7212 0.0, 0.7795 0.7008 0.0197, 0.7795 0.7008 0.0, 0.7795 -0.7008 0.0, 0.7795 -0.7008 0.0197, 0.7768 -0.7212 0.0197, 0.7768 -0.7212 0.0, 0.769 -0.7402 0.0197, 0.769 -0.7402 0.0, 0.7565 -0.7565 0.0197, 0.7565 -0.7565 0.0, 0.7402 -0.769 0.0197, 0.7402 -0.769 0.0, 0.7212 -0.7768 0.0197, 0.7212 -0.7768 0.0, 0.7008 -0.7795 0.0197, 0.7008 -0.7795 0.0, -0.3465 -0.7795 0.0, -0.3465 0.7795 0.0, -0.3465 -0.7795 0.0197, -0.3465 0.7795 0.0197, -0.7008 -0.7795 0.0, -0.7008 -0.7795 0.0197, -0.7212 -0.7768 0.0197, -0.7212 -0.7768 0.0, -0.7402 -0.769 0.0197, -0.7402 -0.769 0.0, -0.7565 -0.7565 0.0197, -0.7565 -0.7565 0.0, -0.769 -0.7402 0.0197, -0.769 -0.7402 0.0, -0.7768 -0.7212 0.0197, -0.7768 -0.7212 0.0, -0.7795 -0.7008 0.0197, -0.7795 -0.7008 0.0, -0.7795 0.7008 0.0, -0.7795 0.7008 0.0197, -0.7768 0.7212 0.0197, -0.7768 0.7212 0.0, -0.769 0.7402 0.0197, -0.769 0.7402 0.0, -0.7565 0.7565 0.0197, -0.7565 0.7565 0.0, -0.7402 0.769 0.0197, -0.7402 0.769 0.0, -0.7212 0.7768 0.0197, -0.7212 0.7768 0.0, -0.7008 0.7795 0.0197, -0.7008 0.7795 0.0
            ]
        }
        coordIndex [
            0,1,2,-1,2,1,3,-1,4,0,5,-1,5,0,2,-1,4,5,6,-1,4,6,7,-1,7,6,8,-1,7,8,9,-1,9,8,10,-1,9,10,11,-1,11,10,12,-1,11,12,13,-1,13,12,14,-1,13,14,15,-1,15,14,16,-1,15,16,17,-1,18,17,19,-1,19,17,16,-1,18,19,20,-1,18,20,21,-1,21,20,22,-1,21,22,23,-1,23,22,24,-1,23,24,25,-1,25,24,26,-1,25,26,27,-1,27,26,28,-1,27,28,29,-1,29,28,30,-1,29,30,31,-1,1,31,3,-1,3,31,30,-1,1,0,31,-1,31,0,4,-1,15,17,4,-1,4,7,9,-1,4,17,31,-1,31,17,18,-1,31,18,21,-1,9,11,4,-1,4,11,13,-1,4,13,15,-1,21,23,25,-1,25,27,21,-1,21,27,29,-1,21,29,31,-1,32,33,34,-1,34,33,35,-1,36,32,37,-1,37,32,34,-1,36,37,38,-1,36,38,39,-1,39,38,40,-1,39,40,41,-1,41,40,42,-1,41,42,43,-1,43,42,44,-1,43,44,45,-1,45,44,46,-1,45,46,47,-1,47,46,48,-1,47,48,49,-1,50,49,51,-1,51,49,48,-1,50,51,52,-1,50,52,53,-1,53,52,54,-1,53,54,55,-1,55,54,56,-1,55,56,57,-1,57,56,58,-1,57,58,59,-1,59,58,60,-1,59,60,61,-1,61,60,62,-1,61,62,63,-1,33,63,35,-1,35,63,62,-1,61,63,50,-1,50,63,49,-1,50,53,55,-1,33,32,63,-1,63,32,36,-1,63,36,49,-1,49,36,39,-1,49,39,41,-1,55,57,50,-1,50,57,59,-1,50,59,61,-1,43,45,41,-1,41,45,47,-1,41,47,49,-1,
        ]
    }
}
Shape{
    appearance Appearance {
        material  Material 	{
            diffuseColor 1.0 1.0 1.0
            specularColor 0.5019607843137255 0.5019607843137255 0.5019607843137255
            ambientIntensity 1.0
            transparency 0.0
            shininess 0.5
        }
    }
    geometry IndexedFaceSet {
        ccw TRUE
        solid FALSE
        coord DEF co Coordinate {
            point [
                0.6084 -0.6217 0.7913, 0.6064 -0.6241 0.7913, 0.6106 -0.6277 0.7913, 0.6058 -0.6246 0.7913, 0.6058 -0.6311 0.7913, 0.6029 -0.6267 0.7913, 0.6006 -0.6332 0.7913, 0.5991 -0.6281 0.7913, 0.5928 -0.6341 0.7913, 0.5928 -0.6289 0.7913, 0.5802 -0.6341 0.7913, 0.5861 -0.6289 0.7913, 0.5802 -0.5884 0.7913, 0.5861 -0.5936 0.7913, 0.5933 -0.5884 0.7913, 0.593 -0.5936 0.7913, 0.6002 -0.5891 0.7913, 0.5989 -0.5943 0.7913, 0.6058 -0.5912 0.7913, 0.6029 -0.5957 0.7913, 0.6106 -0.5944 0.7913, 0.6062 -0.5979 0.7913, 0.6122 -0.596 0.7913, 0.6075 -0.5992 0.7913, 0.615 -0.6 0.7913, 0.6093 -0.6017 0.7913, 0.6167 -0.6043 0.7913, 0.6106 -0.6051 0.7913, 0.6175 -0.6107 0.7913, 0.6112 -0.6108 0.7913, 0.6173 -0.6136 0.7913, 0.611 -0.6143 0.7913, 0.6162 -0.6189 0.7913, 0.6101 -0.6184 0.7913, 0.614 -0.6237 0.7913, 0.6106 -0.6277 0.7874, 0.614 -0.6237 0.7874, 0.6162 -0.6189 0.7874, 0.6173 -0.6136 0.7874, 0.6175 -0.6107 0.7874, 0.6167 -0.6043 0.7874, 0.615 -0.6 0.7874, 0.6122 -0.596 0.7874, 0.6106 -0.5944 0.7874, 0.6058 -0.5912 0.7874, 0.6002 -0.5891 0.7874, 0.5933 -0.5884 0.7874, 0.5802 -0.5884 0.7874, 0.5802 -0.6341 0.7874, 0.5928 -0.6341 0.7874, 0.6006 -0.6332 0.7874, 0.6058 -0.6311 0.7874, 0.6062 -0.5979 0.7874, 0.6075 -0.5992 0.7874, 0.6093 -0.6017 0.7874, 0.6106 -0.6051 0.7874, 0.6112 -0.6108 0.7874, 0.593 -0.5936 0.7874, 0.5989 -0.5943 0.7874, 0.6029 -0.5957 0.7874, 0.5861 -0.5936 0.7874, 0.5861 -0.6289 0.7874, 0.5928 -0.6289 0.7874, 0.6064 -0.6241 0.7874, 0.6058 -0.6246 0.7874, 0.6029 -0.6267 0.7874, 0.5991 -0.6281 0.7874, 0.611 -0.6143 0.7874, 0.6101 -0.6184 0.7874, 0.6084 -0.6217 0.7874
            ]
        }
        coordIndex [
            0,1,2,-1,2,1,3,-1,2,3,4,-1,4,3,5,-1,4,5,6,-1,6,5,7,-1,6,7,8,-1,8,7,9,-1,8,9,10,-1,10,9,11,-1,10,11,12,-1,12,11,13,-1,12,13,14,-1,14,13,15,-1,14,15,16,-1,16,15,17,-1,16,17,18,-1,18,17,19,-1,18,19,20,-1,20,19,21,-1,20,21,22,-1,22,21,23,-1,22,23,24,-1,24,23,25,-1,24,25,26,-1,26,25,27,-1,26,27,28,-1,28,27,29,-1,28,29,30,-1,30,29,31,-1,30,31,32,-1,32,31,33,-1,32,33,34,-1,34,33,0,-1,34,0,2,-1,2,35,36,-1,2,36,34,-1,34,36,37,-1,34,37,32,-1,32,37,38,-1,32,38,30,-1,30,38,39,-1,30,39,28,-1,28,39,40,-1,28,40,26,-1,26,40,41,-1,26,41,24,-1,24,41,42,-1,24,42,22,-1,22,42,43,-1,22,43,20,-1,20,43,44,-1,20,44,18,-1,18,44,45,-1,18,45,16,-1,16,45,46,-1,16,46,14,-1,12,14,47,-1,47,14,46,-1,10,12,48,-1,48,12,47,-1,8,10,49,-1,49,10,48,-1,8,49,50,-1,8,50,6,-1,6,50,51,-1,6,51,4,-1,4,51,35,-1,4,35,2,-1,21,52,53,-1,21,53,23,-1,23,53,54,-1,23,54,25,-1,25,54,55,-1,25,55,27,-1,27,55,56,-1,27,56,29,-1,15,57,58,-1,15,58,17,-1,17,58,59,-1,17,59,19,-1,19,59,52,-1,19,52,21,-1,15,13,57,-1,57,13,60,-1,13,11,60,-1,60,11,61,-1,11,9,61,-1,61,9,62,-1,1,63,64,-1,1,64,3,-1,3,64,65,-1,3,65,5,-1,5,65,66,-1,5,66,7,-1,7,66,62,-1,7,62,9,-1,29,56,67,-1,29,67,31,-1,31,67,68,-1,31,68,33,-1,33,68,69,-1,33,69,0,-1,0,69,63,-1,0,63,1,-1,
        ]
    }
}
Shape{
    appearance Appearance {
        material  Material 	{
            diffuseColor 0.34901960784313724 0.34901960784313724 0.34901960784313724
            specularColor 0.023529411764705882 0.023529411764705882 0.023529411764705882
            ambientIntensity 0.498
            transparency 0.0
            shininess 0.5
        }
    }
    geometry IndexedFaceSet {
        ccw TRUE
        solid FALSE
        coord DEF co Coordinate {
            point [
                0.6058 -0.6246 0.7874, 0.6064 -0.6241 0.7874, 0.593 -0.5936 0.7874, 0.5861 -0.5936 0.7874, 0.5861 -0.6289 0.7874, 0.5928 -0.6289 0.7874, 0.5991 -0.6281 0.7874, 0.6029 -0.6267 0.7874, 0.6084 -0.6217 0.7874, 0.6101 -0.6184 0.7874, 0.611 -0.6143 0.7874, 0.6112 -0.6108 0.7874, 0.6106 -0.6051 0.7874, 0.6093 -0.6017 0.7874, 0.6075 -0.5992 0.7874, 0.6062 -0.5979 0.7874, 0.5989 -0.5943 0.7874, 0.6029 -0.5957 0.7874
            ]
        }
        coordIndex [
            0,1,2,-1,3,4,2,-1,2,4,5,-1,5,6,2,-1,2,6,7,-1,2,7,0,-1,1,8,2,-1,2,8,9,-1,2,9,10,-1,10,11,2,-1,2,11,12,-1,2,12,13,-1,13,14,2,-1,2,14,15,-1,2,15,16,-1,16,15,17,-1,
        ]
    }
}
Shape{
    appearance Appearance {
        material  Material 	{
            diffuseColor 1.0 1.0 1.0
            specularColor 0.5019607843137255 0.5019607843137255 0.5019607843137255
            ambientIntensity 1.0
            transparency 0.0
            shininess 0.5
        }
    }
    geometry IndexedFaceSet {
        ccw TRUE
        solid FALSE
        coord DEF co Coordinate {
            point [
                0.5259 -0.6261 0.7913, 0.5259 -0.6261 0.7874, 0.5255 -0.6276 0.7874, 0.5255 -0.6276 0.7913, 0.5252 -0.6287 0.7874, 0.5252 -0.6287 0.7913, 0.5251 -0.6287 0.7913, 0.5251 -0.6287 0.7874, 0.5244 -0.626 0.7913, 0.5244 -0.626 0.7874, 0.5158 -0.6015 0.7913, 0.5186 -0.6094 0.7874, 0.5158 -0.6015 0.7874, 0.5094 -0.6015 0.7913, 0.5094 -0.6015 0.7874, 0.5222 -0.6341 0.7913, 0.5186 -0.6248 0.7874, 0.5222 -0.6341 0.7874, 0.5197 -0.64 0.7874, 0.5197 -0.64 0.7913, 0.522 -0.6345 0.7874, 0.5186 -0.6421 0.7874, 0.5186 -0.6421 0.7913, 0.5186 -0.6421 0.7874, 0.5175 -0.6433 0.7874, 0.5175 -0.6433 0.7913, 0.5166 -0.6439 0.7874, 0.5166 -0.6439 0.7913, 0.5153 -0.6444 0.7874, 0.5153 -0.6444 0.7913, 0.5138 -0.6446 0.7874, 0.5138 -0.6446 0.7913, 0.5118 -0.6443 0.7874, 0.5118 -0.6443 0.7913, 0.5106 -0.644 0.7874, 0.5106 -0.644 0.7913, 0.5106 -0.6491 0.7913, 0.5106 -0.6491 0.7874, 0.513 -0.6495 0.7874, 0.513 -0.6495 0.7913, 0.5143 -0.6495 0.7874, 0.5143 -0.6495 0.7913, 0.5166 -0.6493 0.7874, 0.5166 -0.6493 0.7913, 0.5186 -0.6485 0.7874, 0.5189 -0.6484 0.7913, 0.5189 -0.6484 0.7874, 0.5209 -0.647 0.7874, 0.5209 -0.647 0.7913, 0.5212 -0.6466 0.7874, 0.5212 -0.6466 0.7913, 0.5233 -0.6441 0.7874, 0.5233 -0.6441 0.7913, 0.5259 -0.6391 0.7874, 0.5259 -0.6391 0.7913, 0.5408 -0.6015 0.7874, 0.5408 -0.6015 0.7913, 0.5277 -0.6345 0.7874, 0.5348 -0.6015 0.7913, 0.5348 -0.6015 0.7874, 0.4932 -0.6349 0.7874, 0.4965 -0.6345 0.7874, 0.4932 -0.6349 0.7913, 0.4984 -0.6343 0.7913, 0.4984 -0.6343 0.7874, 0.5014 -0.6331 0.7874, 0.5014 -0.6331 0.7913, 0.5027 -0.6323 0.7874, 0.5027 -0.6323 0.7913, 0.5044 -0.6309 0.7874, 0.5044 -0.6309 0.7913, 0.5054 -0.6294 0.7874, 0.5054 -0.6294 0.7913, 0.5061 -0.6275 0.7874, 0.5061 -0.6275 0.7913, 0.5064 -0.6252 0.7874, 0.5064 -0.6252 0.7913, 0.5062 -0.6231 0.7874, 0.5062 -0.6231 0.7913, 0.5056 -0.6214 0.7874, 0.5056 -0.6214 0.7913, 0.5045 -0.6198 0.7874, 0.5045 -0.6198 0.7913, 0.5031 -0.6186 0.7874, 0.5031 -0.6186 0.7913, 0.4993 -0.6165 0.7874, 0.4993 -0.6165 0.7913, 0.4971 -0.6156 0.7874, 0.4971 -0.6156 0.7913, 0.4936 -0.6141 0.7874, 0.4936 -0.6141 0.7913, 0.4915 -0.6128 0.7874, 0.4915 -0.6128 0.7913, 0.491 -0.6122 0.7874, 0.491 -0.6122 0.7913, 0.4906 -0.6114 0.7874, 0.4906 -0.6114 0.7913, 0.4903 -0.6105 0.7874, 0.4903 -0.6105 0.7913, 0.4903 -0.6098 0.7874, 0.4903 -0.6098 0.7913, 0.4904 -0.6088 0.7874, 0.4904 -0.6088 0.7913, 0.4907 -0.6081 0.7874, 0.4907 -0.6081 0.7913, 0.4912 -0.6073 0.7874, 0.4912 -0.6073 0.7913, 0.492 -0.6066 0.7874, 0.492 -0.6066 0.7913, 0.4933 -0.6059 0.7874, 0.4933 -0.6059 0.7913, 0.4949 -0.6055 0.7874, 0.4949 -0.6055 0.7913, 0.4965 -0.6054 0.7874, 0.4965 -0.6054 0.7913, 0.5 -0.6057 0.7874, 0.5 -0.6057 0.7913, 0.5032 -0.6068 0.7874, 0.5032 -0.6068 0.7913, 0.5049 -0.6077 0.7874, 0.5049 -0.6077 0.7913, 0.5049 -0.6022 0.7913, 0.5049 -0.6022 0.7874, 0.5011 -0.6011 0.7874, 0.5011 -0.6011 0.7913, 0.4971 -0.6007 0.7874, 0.4971 -0.6007 0.7913, 0.4925 -0.6012 0.7874, 0.4925 -0.6012 0.7913, 0.4895 -0.6024 0.7874, 0.4895 -0.6024 0.7913, 0.4881 -0.6033 0.7874, 0.4881 -0.6033 0.7913, 0.487 -0.6043 0.7874, 0.4864 -0.6048 0.7913, 0.4864 -0.6048 0.7874, 0.4853 -0.6064 0.7874, 0.4853 -0.6064 0.7913, 0.4846 -0.6082 0.7874, 0.4846 -0.6082 0.7913, 0.4844 -0.6103 0.7874, 0.4844 -0.6103 0.7913, 0.4846 -0.6125 0.7874, 0.4846 -0.6125 0.7913, 0.4853 -0.6143 0.7874, 0.4853 -0.6143 0.7913, 0.486 -0.6154 0.7874, 0.486 -0.6154 0.7913, 0.4931 -0.6198 0.7874, 0.4931 -0.6198 0.7913, 0.4896 -0.6182 0.7913, 0.4869 -0.6164 0.7874, 0.4869 -0.6164 0.7913, 0.487 -0.6165 0.7874, 0.4896 -0.6182 0.7874, 0.4968 -0.6213 0.7874, 0.4968 -0.6213 0.7913, 0.4991 -0.6227 0.7874, 0.4991 -0.6227 0.7913, 0.4998 -0.6234 0.7874, 0.4998 -0.6234 0.7913, 0.5002 -0.6242 0.7874, 0.5002 -0.6242 0.7913, 0.5005 -0.6251 0.7874, 0.5005 -0.6251 0.7913, 0.5005 -0.6258 0.7874, 0.5005 -0.6258 0.7913, 0.5004 -0.6269 0.7874, 0.5004 -0.6269 0.7913, 0.5001 -0.6277 0.7874, 0.5001 -0.6277 0.7913, 0.4996 -0.6285 0.7874, 0.4996 -0.6285 0.7913, 0.499 -0.629 0.7874, 0.499 -0.629 0.7913, 0.4984 -0.6294 0.7874, 0.4984 -0.6294 0.7913, 0.497 -0.6299 0.7874, 0.497 -0.6299 0.7913, 0.494 -0.6302 0.7874, 0.494 -0.6302 0.7913, 0.4938 -0.6302 0.7874, 0.4938 -0.6302 0.7913, 0.4843 -0.6271 0.7874, 0.4843 -0.6271 0.7913, 0.4869 -0.6286 0.7913, 0.4905 -0.6299 0.7874, 0.4905 -0.6299 0.7913, 0.487 -0.6286 0.7874, 0.4869 -0.6286 0.7874, 0.4843 -0.633 0.7913, 0.4843 -0.633 0.7874, 0.487 -0.6339 0.7874, 0.4884 -0.6344 0.7913, 0.4895 -0.6345 0.7874, 0.4884 -0.6344 0.7874, 0.4709 -0.6341 0.7913, 0.4766 -0.6341 0.7913, 0.4709 -0.6291 0.7913, 0.4766 -0.6131 0.7913, 0.4707 -0.6291 0.7913, 0.4677 -0.6282 0.7913, 0.4696 -0.6306 0.7913, 0.4661 -0.6293 0.7913, 0.4595 -0.6196 0.7913, 0.4632 -0.6188 0.7913, 0.4709 -0.6177 0.7913, 0.4709 -0.6209 0.7913, 0.4708 -0.6212 0.7913, 0.4705 -0.6238 0.7913, 0.4696 -0.6258 0.7913, 0.4684 -0.6275 0.7913, 0.4687 -0.6011 0.7913, 0.4675 -0.606 0.7913, 0.471 -0.6019 0.7913, 0.4685 -0.6067 0.7913, 0.4583 -0.6203 0.7913, 0.4709 -0.6134 0.7913, 0.4707 -0.6108 0.7913, 0.476 -0.6083 0.7913, 0.4701 -0.6088 0.7913, 0.4751 -0.6058 0.7913, 0.4694 -0.6076 0.7913, 0.4739 -0.6041 0.7913, 0.4728 -0.6031 0.7913, 0.4535 -0.6037 0.7913, 0.4535 -0.6093 0.7913, 0.4547 -0.6031 0.7913, 0.4575 -0.6068 0.7913, 0.4589 -0.6014 0.7913, 0.4611 -0.6057 0.7913, 0.4648 -0.6007 0.7913, 0.4642 -0.6054 0.7913, 0.4662 -0.6056 0.7913, 0.4573 -0.6282 0.7913, 0.4531 -0.6323 0.7913, 0.4578 -0.6287 0.7913, 0.4551 -0.6337 0.7913, 0.4589 -0.6295 0.7913, 0.4573 -0.6345 0.7913, 0.4602 -0.63 0.7913, 0.4607 -0.6349 0.7913, 0.4622 -0.6302 0.7913, 0.4637 -0.6346 0.7913, 0.4643 -0.63 0.7913, 0.466 -0.6337 0.7913, 0.4678 -0.6325 0.7913, 0.4612 -0.6147 0.7913, 0.4564 -0.6159 0.7913, 0.4577 -0.6208 0.7913, 0.4541 -0.6172 0.7913, 0.457 -0.6216 0.7913, 0.4525 -0.6188 0.7913, 0.4565 -0.6227 0.7913, 0.4513 -0.6206 0.7913, 0.4562 -0.624 0.7913, 0.4506 -0.6227 0.7913, 0.4561 -0.6249 0.7913, 0.4503 -0.6254 0.7913, 0.4563 -0.6262 0.7913, 0.4507 -0.6282 0.7913, 0.4567 -0.6273 0.7913, 0.4514 -0.6301 0.7913, 0.4526 -0.6318 0.7913, 0.4642 -0.6054 0.7874, 0.4662 -0.6056 0.7874, 0.4675 -0.606 0.7874, 0.4685 -0.6067 0.7874, 0.4694 -0.6076 0.7874, 0.4701 -0.6088 0.7874, 0.4707 -0.6108 0.7874, 0.4709 -0.6134 0.7874, 0.4612 -0.6147 0.7874, 0.4564 -0.6159 0.7874, 0.4541 -0.6172 0.7874, 0.4525 -0.6188 0.7874, 0.4513 -0.6206 0.7874, 0.4506 -0.6227 0.7874, 0.4503 -0.6254 0.7874, 0.4507 -0.6282 0.7874, 0.4514 -0.6301 0.7874, 0.4526 -0.6318 0.7874, 0.4531 -0.6323 0.7874, 0.4607 -0.6349 0.7874, 0.4574 -0.6345 0.7874, 0.4573 -0.6345 0.7874, 0.4551 -0.6337 0.7874, 0.4637 -0.6346 0.7874, 0.4638 -0.6345 0.7874, 0.466 -0.6337 0.7874, 0.4678 -0.6325 0.7874, 0.4696 -0.6306 0.7874, 0.4707 -0.6291 0.7874, 0.4709 -0.6291 0.7874, 0.4709 -0.6341 0.7874, 0.4766 -0.6341 0.7874, 0.4766 -0.6131 0.7874, 0.476 -0.6083 0.7874, 0.4751 -0.6058 0.7874, 0.4739 -0.6041 0.7874, 0.4728 -0.6031 0.7874, 0.471 -0.6019 0.7874, 0.4687 -0.6011 0.7874, 0.4648 -0.6007 0.7874, 0.4589 -0.6014 0.7874, 0.4547 -0.6031 0.7874, 0.4535 -0.6037 0.7874, 0.4535 -0.6093 0.7874, 0.4575 -0.6068 0.7874, 0.4611 -0.6057 0.7874, 0.4684 -0.6275 0.7874, 0.4677 -0.6282 0.7874, 0.4661 -0.6293 0.7874, 0.4643 -0.63 0.7874, 0.4622 -0.6302 0.7874, 0.4709 -0.6209 0.7874, 0.4708 -0.6212 0.7874, 0.4705 -0.6238 0.7874, 0.4696 -0.6258 0.7874, 0.4709 -0.6177 0.7874, 0.4632 -0.6188 0.7874, 0.4577 -0.6208 0.7874, 0.4583 -0.6203 0.7874, 0.4595 -0.6196 0.7874, 0.4561 -0.6249 0.7874, 0.4562 -0.624 0.7874, 0.4565 -0.6227 0.7874, 0.457 -0.6216 0.7874, 0.4578 -0.6287 0.7874, 0.4573 -0.6282 0.7874, 0.4567 -0.6273 0.7874, 0.4563 -0.6262 0.7874, 0.4602 -0.63 0.7874, 0.4589 -0.6295 0.7874
            ]
        }
        coordIndex [
            0,1,2,-1,0,2,3,-1,3,2,4,-1,3,4,5,-1,6,5,7,-1,7,5,4,-1,8,6,9,-1,9,6,7,-1,8,9,10,-1,10,9,11,-1,10,11,12,-1,13,10,14,-1,14,10,12,-1,13,14,15,-1,15,14,16,-1,15,16,17,-1,18,19,20,-1,20,19,15,-1,20,15,17,-1,18,21,19,-1,19,21,22,-1,21,23,22,-1,22,23,24,-1,22,24,25,-1,25,24,26,-1,25,26,27,-1,27,26,28,-1,27,28,29,-1,29,28,30,-1,29,30,31,-1,31,30,32,-1,31,32,33,-1,33,32,34,-1,33,34,35,-1,36,35,37,-1,37,35,34,-1,36,37,38,-1,36,38,39,-1,39,38,40,-1,39,40,41,-1,41,40,42,-1,41,42,43,-1,43,42,44,-1,43,44,45,-1,44,46,45,-1,45,46,47,-1,45,47,48,-1,48,47,49,-1,48,49,50,-1,50,49,51,-1,50,51,52,-1,52,51,53,-1,52,53,54,-1,55,56,57,-1,57,56,54,-1,57,54,53,-1,58,56,59,-1,59,56,55,-1,0,58,1,-1,1,58,59,-1,3,5,54,-1,56,58,54,-1,54,58,0,-1,54,0,3,-1,10,13,8,-1,8,13,15,-1,8,15,6,-1,35,36,33,-1,33,36,39,-1,33,39,31,-1,31,39,41,-1,31,41,29,-1,29,41,43,-1,29,43,27,-1,27,43,45,-1,27,45,25,-1,5,6,54,-1,54,6,15,-1,54,15,52,-1,15,19,52,-1,52,19,22,-1,52,22,50,-1,50,22,25,-1,50,25,48,-1,48,25,45,-1,60,61,62,-1,62,61,63,-1,61,64,63,-1,63,64,65,-1,63,65,66,-1,66,65,67,-1,66,67,68,-1,68,67,69,-1,68,69,70,-1,70,69,71,-1,70,71,72,-1,72,71,73,-1,72,73,74,-1,74,73,75,-1,74,75,76,-1,76,75,77,-1,76,77,78,-1,78,77,79,-1,78,79,80,-1,80,79,81,-1,80,81,82,-1,82,81,83,-1,82,83,84,-1,84,83,85,-1,84,85,86,-1,86,85,87,-1,86,87,88,-1,88,87,89,-1,88,89,90,-1,90,89,91,-1,90,91,92,-1,92,91,93,-1,92,93,94,-1,94,93,95,-1,94,95,96,-1,96,95,97,-1,96,97,98,-1,98,97,99,-1,98,99,100,-1,100,99,101,-1,100,101,102,-1,102,101,103,-1,102,103,104,-1,104,103,105,-1,104,105,106,-1,106,105,107,-1,106,107,108,-1,108,107,109,-1,108,109,110,-1,110,109,111,-1,110,111,112,-1,112,111,113,-1,112,113,114,-1,114,113,115,-1,114,115,116,-1,116,115,117,-1,116,117,118,-1,118,117,119,-1,118,119,120,-1,121,120,122,-1,122,120,119,-1,121,122,123,-1,121,123,124,-1,124,123,125,-1,124,125,126,-1,126,125,127,-1,126,127,128,-1,128,127,129,-1,128,129,130,-1,130,129,131,-1,130,131,132,-1,131,133,132,-1,132,133,134,-1,133,135,134,-1,134,135,136,-1,134,136,137,-1,137,136,138,-1,137,138,139,-1,139,138,140,-1,139,140,141,-1,141,140,142,-1,141,142,143,-1,143,142,144,-1,143,144,145,-1,145,144,146,-1,145,146,147,-1,148,149,150,-1,147,146,151,-1,147,151,152,-1,152,151,153,-1,152,153,150,-1,150,153,154,-1,150,154,148,-1,149,148,155,-1,149,155,156,-1,156,155,157,-1,156,157,158,-1,158,157,159,-1,158,159,160,-1,160,159,161,-1,160,161,162,-1,162,161,163,-1,162,163,164,-1,164,163,165,-1,164,165,166,-1,166,165,167,-1,166,167,168,-1,168,167,169,-1,168,169,170,-1,170,169,171,-1,170,171,172,-1,172,171,173,-1,172,173,174,-1,174,173,175,-1,174,175,176,-1,176,175,177,-1,176,177,178,-1,178,177,179,-1,178,179,180,-1,180,179,181,-1,180,181,182,-1,183,184,185,-1,182,181,186,-1,182,186,187,-1,187,186,188,-1,187,188,185,-1,185,188,189,-1,185,189,183,-1,190,184,191,-1,191,184,183,-1,191,192,190,-1,190,192,193,-1,60,62,194,-1,194,62,193,-1,194,193,195,-1,195,193,192,-1,106,108,130,-1,130,108,128,-1,156,88,149,-1,149,88,90,-1,66,68,172,-1,172,68,70,-1,172,70,170,-1,170,70,72,-1,170,72,168,-1,168,72,74,-1,168,74,166,-1,166,74,76,-1,166,76,164,-1,164,76,78,-1,164,78,162,-1,162,78,80,-1,162,80,160,-1,160,80,82,-1,160,82,158,-1,158,82,84,-1,158,84,156,-1,156,84,86,-1,156,86,88,-1,62,182,193,-1,193,182,187,-1,193,187,190,-1,190,187,185,-1,190,185,184,-1,108,110,128,-1,128,110,112,-1,128,112,126,-1,126,112,114,-1,126,114,124,-1,124,114,116,-1,124,116,121,-1,121,116,118,-1,121,118,120,-1,172,174,66,-1,66,174,176,-1,66,176,63,-1,63,176,178,-1,63,178,62,-1,62,178,180,-1,62,180,182,-1,130,132,106,-1,106,132,134,-1,106,134,104,-1,104,134,137,-1,104,137,102,-1,102,137,139,-1,102,139,100,-1,100,139,141,-1,100,141,98,-1,98,141,143,-1,98,143,96,-1,96,143,145,-1,96,145,94,-1,94,145,147,-1,94,147,92,-1,92,147,152,-1,92,152,90,-1,90,152,150,-1,90,150,149,-1,196,197,198,-1,198,197,199,-1,200,201,202,-1,202,201,203,-1,204,205,199,-1,199,205,206,-1,199,206,207,-1,207,208,199,-1,199,208,209,-1,199,209,198,-1,198,209,210,-1,198,210,200,-1,200,210,211,-1,200,211,201,-1,212,213,214,-1,214,213,215,-1,216,204,217,-1,217,204,199,-1,217,199,218,-1,218,199,219,-1,218,219,220,-1,220,219,221,-1,220,221,222,-1,222,221,223,-1,222,223,215,-1,215,223,224,-1,215,224,214,-1,225,226,227,-1,227,226,228,-1,227,228,229,-1,229,228,230,-1,229,230,231,-1,231,230,232,-1,231,232,212,-1,212,232,233,-1,212,233,213,-1,234,235,236,-1,236,235,237,-1,236,237,238,-1,238,237,239,-1,238,239,240,-1,240,239,241,-1,240,241,242,-1,242,241,243,-1,242,243,244,-1,244,243,245,-1,244,245,203,-1,203,245,246,-1,203,246,202,-1,217,247,216,-1,216,247,248,-1,216,248,249,-1,249,248,250,-1,249,250,251,-1,251,250,252,-1,251,252,253,-1,253,252,254,-1,253,254,255,-1,255,254,256,-1,255,256,257,-1,257,256,258,-1,257,258,259,-1,259,258,260,-1,259,260,261,-1,261,260,262,-1,261,262,234,-1,234,262,263,-1,234,263,235,-1,232,264,265,-1,232,265,233,-1,233,265,266,-1,233,266,213,-1,213,266,267,-1,213,267,215,-1,215,267,268,-1,215,268,222,-1,222,268,269,-1,222,269,220,-1,220,269,270,-1,220,270,218,-1,218,270,271,-1,218,271,217,-1,247,217,272,-1,272,217,271,-1,247,272,273,-1,247,273,248,-1,248,273,274,-1,248,274,250,-1,250,274,275,-1,250,275,252,-1,252,275,276,-1,252,276,254,-1,254,276,277,-1,254,277,256,-1,256,277,278,-1,256,278,258,-1,258,278,279,-1,258,279,260,-1,260,279,280,-1,260,280,262,-1,262,280,281,-1,262,281,263,-1,263,281,282,-1,263,282,235,-1,283,241,284,-1,284,241,239,-1,284,239,285,-1,285,239,237,-1,285,237,286,-1,286,237,235,-1,286,235,282,-1,241,283,287,-1,241,287,243,-1,243,287,288,-1,243,288,245,-1,288,289,245,-1,245,289,290,-1,245,290,246,-1,246,290,291,-1,246,291,202,-1,202,291,292,-1,202,292,200,-1,198,200,293,-1,293,200,292,-1,196,198,294,-1,294,198,293,-1,197,196,295,-1,295,196,294,-1,199,197,296,-1,296,197,295,-1,199,296,297,-1,199,297,219,-1,219,297,298,-1,219,298,221,-1,221,298,299,-1,221,299,223,-1,223,299,300,-1,223,300,224,-1,224,300,301,-1,224,301,214,-1,214,301,302,-1,214,302,212,-1,212,302,303,-1,212,303,231,-1,231,303,304,-1,231,304,229,-1,229,304,305,-1,229,305,227,-1,227,305,306,-1,227,306,225,-1,226,225,307,-1,307,225,306,-1,226,307,308,-1,226,308,228,-1,228,308,309,-1,228,309,230,-1,230,309,264,-1,230,264,232,-1,211,310,311,-1,211,311,201,-1,201,311,312,-1,201,312,203,-1,203,312,313,-1,203,313,244,-1,244,313,314,-1,244,314,242,-1,207,315,316,-1,207,316,208,-1,208,316,317,-1,208,317,209,-1,209,317,318,-1,209,318,210,-1,210,318,310,-1,210,310,211,-1,207,206,315,-1,315,206,319,-1,206,205,319,-1,319,205,320,-1,249,321,322,-1,249,322,216,-1,216,322,323,-1,216,323,204,-1,204,323,320,-1,204,320,205,-1,257,324,325,-1,257,325,255,-1,255,325,326,-1,255,326,253,-1,253,326,327,-1,253,327,251,-1,251,327,321,-1,251,321,249,-1,236,328,329,-1,236,329,234,-1,234,329,330,-1,234,330,261,-1,261,330,331,-1,261,331,259,-1,259,331,324,-1,259,324,257,-1,242,314,332,-1,242,332,240,-1,240,332,333,-1,240,333,238,-1,238,333,328,-1,238,328,236,-1,
        ]
    }
}
Shape{
    appearance Appearance {
        material  Material 	{
            diffuseColor 0.34901960784313724 0.34901960784313724 0.34901960784313724
            specularColor 0.023529411764705882 0.023529411764705882 0.023529411764705882
            ambientIntensity 0.498
            transparency 0.0
            shininess 0.5
        }
    }
    geometry IndexedFaceSet {
        ccw TRUE
        solid FALSE
        coord DEF co Coordinate {
            point [
                0.4708 -0.6212 0.7874, 0.4709 -0.6209 0.7874, 0.4577 -0.6208 0.7874, 0.4709 -0.6177 0.7874, 0.4632 -0.6188 0.7874, 0.4595 -0.6196 0.7874, 0.4583 -0.6203 0.7874, 0.4705 -0.6238 0.7874, 0.457 -0.6216 0.7874, 0.4696 -0.6258 0.7874, 0.4573 -0.6282 0.7874, 0.4578 -0.6287 0.7874, 0.4677 -0.6282 0.7874, 0.4567 -0.6273 0.7874, 0.4661 -0.6293 0.7874, 0.4643 -0.63 0.7874, 0.4622 -0.6302 0.7874, 0.4565 -0.6227 0.7874, 0.4562 -0.624 0.7874, 0.4684 -0.6275 0.7874, 0.4561 -0.6249 0.7874, 0.4563 -0.6262 0.7874, 0.4589 -0.6295 0.7874, 0.4602 -0.63 0.7874
            ]
        }
        coordIndex [
            0,1,2,-1,1,3,4,-1,4,5,1,-1,1,5,6,-1,1,6,2,-1,0,2,7,-1,7,2,8,-1,7,8,9,-1,10,11,12,-1,10,12,13,-1,14,12,15,-1,15,12,16,-1,8,17,9,-1,9,17,18,-1,9,18,19,-1,19,18,20,-1,19,20,12,-1,12,20,21,-1,12,21,13,-1,11,22,12,-1,12,22,23,-1,12,23,16,-1,
        ]
    }
}
Shape{
    appearance Appearance {
        material  Material 	{
            diffuseColor 1.0 1.0 1.0
            specularColor 0.5019607843137255 0.5019607843137255 0.5019607843137255
            ambientIntensity 1.0
            transparency 0.0
            shininess 0.5
        }
    }
    geometry IndexedFaceSet {
        ccw TRUE
        solid FALSE
        coord DEF co Coordinate {
            point [
                0.2181 -0.6406 0.7913, 0.223 -0.6466 0.7913, 0.2152 -0.6118 0.7913, 0.2574 -0.6191 0.7913, 0.2581 -0.6222 0.7913, 0.3239 -0.5959 0.7913, 0.3326 -0.5547 0.7913, 0.3346 -0.5637 0.7913, 0.3505 -0.5461 0.7913, 0.2455 -0.6109 0.7913, 0.2483 -0.6112 0.7913, 0.2702 -0.6014 0.7913, 0.2096 -0.5553 0.7913, 0.2168 -0.5514 0.7913, 0.2158 -0.5313 0.7913, 0.2513 -0.6123 0.7913, 0.2539 -0.6141 0.7913, 0.256 -0.6165 0.7913, 0.2279 -0.5299 0.7913, 0.3138 -0.5787 0.7913, 0.2581 -0.6249 0.7913, 0.2783 -0.6232 0.7913, 0.2783 -0.62 0.7913, 0.2081 -0.6075 0.7913, 0.2099 -0.6321 0.7913, 0.2149 -0.6336 0.7913, 0.3372 -0.5637 0.7913, 0.3434 -0.5645 0.7913, 0.3522 -0.5467 0.7913, 0.3491 -0.5666 0.7913, 0.3618 -0.5515 0.7913, 0.3707 -0.5589 0.7913, 0.2665 -0.5289 0.7913, 0.2497 -0.5162 0.7913, 0.2577 -0.5353 0.7913, 0.2421 -0.5227 0.7913, 0.2504 -0.544 0.7913, 0.2354 -0.5305 0.7913, 0.2455 -0.5543 0.7913, 0.2249 -0.5496 0.7913, 0.2282 -0.5494 0.7913, 0.2316 -0.5301 0.7913, 0.2358 -0.5503 0.7913, 0.2431 -0.553 0.7913, 0.2374 -0.6333 0.7913, 0.2401 -0.635 0.7913, 0.2293 -0.6514 0.7913, 0.2431 -0.636 0.7913, 0.2426 -0.6112 0.7913, 0.238 -0.5913 0.7913, 0.2397 -0.6122 0.7913, 0.2308 -0.5941 0.7913, 0.2371 -0.614 0.7913, 0.2242 -0.5987 0.7913, 0.235 -0.6163 0.7913, 0.2188 -0.6048 0.7913, 0.2336 -0.6192 0.7913, 0.2328 -0.6223 0.7913, 0.3707 -0.6196 0.7913, 0.3555 -0.6068 0.7913, 0.3619 -0.6271 0.7913, 0.3507 -0.6107 0.7913, 0.3519 -0.632 0.7913, 0.345 -0.6133 0.7913, 0.3411 -0.6343 0.7913, 0.3392 -0.6144 0.7913, 0.3219 -0.6343 0.7913, 0.3245 -0.6144 0.7913, 0.3201 -0.634 0.7913, 0.1967 -0.574 0.7913, 0.1753 -0.5788 0.7913, 0.1957 -0.5819 0.7913, 0.1752 -0.5826 0.7913, 0.1961 -0.5869 0.7913, 0.1766 -0.5946 0.7913, 0.1984 -0.5949 0.7913, 0.1811 -0.6068 0.7913, 0.2023 -0.6015 0.7913, 0.1889 -0.618 0.7913, 0.1983 -0.6262 0.7913, 0.2576 -0.5926 0.7913, 0.2498 -0.5906 0.7913, 0.2458 -0.5904 0.7913, 0.3541 -0.5702 0.7913, 0.3579 -0.5744 0.7913, 0.3773 -0.5682 0.7913, 0.3609 -0.58 0.7913, 0.3813 -0.5781 0.7913, 0.3624 -0.5862 0.7913, 0.3828 -0.5887 0.7913, 0.3626 -0.5891 0.7913, 0.3813 -0.6004 0.7913, 0.3618 -0.5954 0.7913, 0.3772 -0.6107 0.7913, 0.3596 -0.6012 0.7913, 0.356 -0.6063 0.7913, 0.2037 -0.5358 0.7913, 0.1932 -0.5429 0.7913, 0.204 -0.5603 0.7913, 0.1905 -0.5455 0.7913, 0.1994 -0.5668 0.7913, 0.183 -0.555 0.7913, 0.1777 -0.5666 0.7913, 0.2352 -0.6311 0.7913, 0.2338 -0.6284 0.7913, 0.2329 -0.6255 0.7913, 0.3276 -0.5442 0.7913, 0.3448 -0.5345 0.7913, 0.3203 -0.5354 0.7913, 0.3345 -0.5219 0.7913, 0.3194 -0.5346 0.7913, 0.333 -0.5204 0.7913, 0.3103 -0.5283 0.7913, 0.3185 -0.5107 0.7913, 0.3001 -0.5244 0.7913, 0.3021 -0.5049 0.7913, 0.2891 -0.523 0.7913, 0.2887 -0.5035 0.7913, 0.2771 -0.5246 0.7913, 0.2726 -0.5055 0.7913, 0.2576 -0.5113 0.7913, 0.2645 -0.5963 0.7913, 0.3229 -0.6141 0.7913, 0.3151 -0.6309 0.7913, 0.3158 -0.6316 0.7913, 0.3239 -0.6144 0.7913, 0.3179 -0.6331 0.7913, 0.2368 -0.6545 0.7913, 0.2445 -0.6557 0.7913, 0.2455 -0.6362 0.7913, 0.2458 -0.6558 0.7913, 0.2484 -0.6359 0.7913, 0.2537 -0.6548 0.7913, 0.2512 -0.6349 0.7913, 0.2609 -0.652 0.7913, 0.2537 -0.6332 0.7913, 0.2674 -0.6475 0.7913, 0.2558 -0.6308 0.7913, 0.2724 -0.6419 0.7913, 0.2573 -0.628 0.7913, 0.2763 -0.6346 0.7913, 0.2782 -0.6266 0.7913, 0.3125 -0.6242 0.7913, 0.3128 -0.6266 0.7913, 0.3136 -0.6288 0.7913, 0.32 -0.6144 0.7913, 0.3178 -0.6153 0.7913, 0.3126 -0.6229 0.7913, 0.3158 -0.6167 0.7913, 0.3145 -0.6182 0.7913, 0.3132 -0.6204 0.7913, 0.3226 -0.6141 0.7913, 0.3728 -0.5619 0.7874, 0.3773 -0.5682 0.7874, 0.3802 -0.5753 0.7874, 0.3813 -0.5781 0.7874, 0.3828 -0.5887 0.7874, 0.3707 -0.5589 0.7874, 0.3618 -0.5515 0.7874, 0.3522 -0.5467 0.7874, 0.3505 -0.5461 0.7874, 0.3448 -0.5345 0.7874, 0.3345 -0.5219 0.7874, 0.333 -0.5204 0.7874, 0.3255 -0.5154 0.7874, 0.3185 -0.5107 0.7874, 0.3021 -0.5049 0.7874, 0.2887 -0.5035 0.7874, 0.2497 -0.5162 0.7874, 0.251 -0.5154 0.7874, 0.2576 -0.5113 0.7874, 0.2726 -0.5055 0.7874, 0.2421 -0.5227 0.7874, 0.2354 -0.5305 0.7874, 0.2316 -0.5301 0.7874, 0.2279 -0.5299 0.7874, 0.2158 -0.5313 0.7874, 0.2037 -0.5358 0.7874, 0.1932 -0.5429 0.7874, 0.1905 -0.5455 0.7874, 0.183 -0.555 0.7874, 0.1798 -0.5619 0.7874, 0.1777 -0.5666 0.7874, 0.176 -0.5753 0.7874, 0.1753 -0.5788 0.7874, 0.1752 -0.5826 0.7874, 0.1766 -0.5946 0.7874, 0.1811 -0.6068 0.7874, 0.1889 -0.618 0.7874, 0.1983 -0.6262 0.7874, 0.2099 -0.6321 0.7874, 0.2149 -0.6336 0.7874, 0.2153 -0.6345 0.7874, 0.2181 -0.6406 0.7874, 0.223 -0.6466 0.7874, 0.2293 -0.6514 0.7874, 0.2323 -0.6526 0.7874, 0.2368 -0.6545 0.7874, 0.2445 -0.6557 0.7874, 0.2458 -0.6558 0.7874, 0.2783 -0.6232 0.7874, 0.2537 -0.6548 0.7874, 0.2593 -0.6526 0.7874, 0.2609 -0.652 0.7874, 0.2674 -0.6475 0.7874, 0.2724 -0.6419 0.7874, 0.2763 -0.6346 0.7874, 0.2763 -0.6345 0.7874, 0.2782 -0.6266 0.7874, 0.2783 -0.62 0.7874, 0.3239 -0.5959 0.7874, 0.3138 -0.5787 0.7874, 0.2702 -0.6014 0.7874, 0.2645 -0.5963 0.7874, 0.2576 -0.5926 0.7874, 0.2498 -0.5906 0.7874, 0.2458 -0.5904 0.7874, 0.238 -0.5913 0.7874, 0.2308 -0.5941 0.7874, 0.2242 -0.5987 0.7874, 0.2188 -0.6048 0.7874, 0.2152 -0.6118 0.7874, 0.2081 -0.6075 0.7874, 0.2023 -0.6015 0.7874, 0.1984 -0.5949 0.7874, 0.1961 -0.5869 0.7874, 0.1957 -0.5819 0.7874, 0.1965 -0.5753 0.7874, 0.1967 -0.574 0.7874, 0.1994 -0.5668 0.7874, 0.2028 -0.5619 0.7874, 0.204 -0.5603 0.7874, 0.2096 -0.5553 0.7874, 0.2168 -0.5514 0.7874, 0.2249 -0.5496 0.7874, 0.2282 -0.5494 0.7874, 0.2358 -0.5503 0.7874, 0.2431 -0.553 0.7874, 0.2455 -0.5543 0.7874, 0.2504 -0.544 0.7874, 0.2577 -0.5353 0.7874, 0.2665 -0.5289 0.7874, 0.2771 -0.5246 0.7874, 0.2891 -0.523 0.7874, 0.3346 -0.5637 0.7874, 0.3342 -0.5619 0.7874, 0.3326 -0.5547 0.7874, 0.3276 -0.5442 0.7874, 0.3203 -0.5354 0.7874, 0.3194 -0.5346 0.7874, 0.3103 -0.5283 0.7874, 0.3001 -0.5244 0.7874, 0.3372 -0.5637 0.7874, 0.3434 -0.5645 0.7874, 0.3491 -0.5666 0.7874, 0.3541 -0.5702 0.7874, 0.3579 -0.5744 0.7874, 0.3584 -0.5753 0.7874, 0.3609 -0.58 0.7874, 0.3624 -0.5862 0.7874, 0.3626 -0.5891 0.7874, 0.3618 -0.5954 0.7874, 0.3596 -0.6012 0.7874, 0.356 -0.6063 0.7874, 0.3555 -0.6068 0.7874, 0.3507 -0.6107 0.7874, 0.345 -0.6133 0.7874, 0.3392 -0.6144 0.7874, 0.3245 -0.6144 0.7874, 0.3239 -0.6144 0.7874, 0.3229 -0.6141 0.7874, 0.3226 -0.6141 0.7874, 0.32 -0.6144 0.7874, 0.3178 -0.6153 0.7874, 0.3158 -0.6167 0.7874, 0.3145 -0.6182 0.7874, 0.3132 -0.6204 0.7874, 0.3126 -0.6229 0.7874, 0.3125 -0.6242 0.7874, 0.3128 -0.6266 0.7874, 0.3136 -0.6288 0.7874, 0.3151 -0.6309 0.7874, 0.3158 -0.6316 0.7874, 0.3179 -0.6331 0.7874, 0.3201 -0.634 0.7874, 0.3219 -0.6343 0.7874, 0.3411 -0.6343 0.7874, 0.3519 -0.632 0.7874, 0.3619 -0.6271 0.7874, 0.3707 -0.6196 0.7874, 0.3772 -0.6107 0.7874, 0.3813 -0.6004 0.7874, 0.2455 -0.6109 0.7874, 0.2483 -0.6112 0.7874, 0.2513 -0.6123 0.7874, 0.2539 -0.6141 0.7874, 0.256 -0.6165 0.7874, 0.2574 -0.6191 0.7874, 0.2581 -0.6222 0.7874, 0.2581 -0.6249 0.7874, 0.2573 -0.628 0.7874, 0.2558 -0.6308 0.7874, 0.2537 -0.6332 0.7874, 0.2512 -0.6349 0.7874, 0.2484 -0.6359 0.7874, 0.2455 -0.6362 0.7874, 0.2431 -0.636 0.7874, 0.2401 -0.635 0.7874, 0.2374 -0.6333 0.7874, 0.2352 -0.6311 0.7874, 0.2338 -0.6284 0.7874, 0.2329 -0.6255 0.7874, 0.2328 -0.6223 0.7874, 0.2336 -0.6192 0.7874, 0.235 -0.6163 0.7874, 0.2371 -0.614 0.7874, 0.2397 -0.6122 0.7874, 0.2426 -0.6112 0.7874
            ]
        }
        coordIndex [
            0,1,2,-1,3,4,5,-1,6,7,8,-1,9,10,11,-1,12,13,14,-1,10,15,11,-1,11,15,16,-1,11,16,17,-1,14,13,18,-1,3,5,17,-1,17,5,19,-1,17,19,11,-1,20,21,4,-1,4,21,22,-1,4,22,5,-1,23,24,2,-1,2,24,25,-1,2,25,0,-1,7,26,8,-1,8,26,27,-1,8,27,28,-1,28,27,29,-1,28,29,30,-1,30,29,31,-1,32,33,34,-1,34,33,35,-1,34,35,36,-1,36,35,37,-1,36,37,38,-1,13,39,18,-1,18,39,40,-1,18,40,41,-1,41,40,42,-1,41,42,37,-1,37,42,43,-1,37,43,38,-1,44,1,45,-1,45,1,46,-1,45,46,47,-1,48,49,50,-1,50,49,51,-1,50,51,52,-1,52,51,53,-1,52,53,54,-1,54,53,55,-1,54,55,56,-1,56,55,2,-1,56,2,57,-1,58,59,60,-1,60,59,61,-1,60,61,62,-1,62,61,63,-1,62,63,64,-1,64,63,65,-1,64,65,66,-1,66,65,67,-1,66,67,68,-1,69,70,71,-1,71,70,72,-1,71,72,73,-1,73,72,74,-1,73,74,75,-1,75,74,76,-1,75,76,77,-1,77,76,78,-1,77,78,23,-1,23,78,79,-1,23,79,24,-1,80,81,48,-1,48,81,82,-1,48,82,49,-1,29,83,31,-1,31,83,84,-1,31,84,85,-1,85,84,86,-1,85,86,87,-1,87,86,88,-1,87,88,89,-1,89,88,90,-1,89,90,91,-1,91,90,92,-1,91,92,93,-1,93,92,94,-1,93,94,58,-1,58,94,95,-1,58,95,59,-1,14,96,12,-1,12,96,97,-1,12,97,98,-1,98,97,99,-1,98,99,100,-1,100,99,101,-1,100,101,69,-1,69,101,102,-1,69,102,70,-1,44,103,1,-1,1,103,104,-1,1,104,2,-1,2,104,105,-1,2,105,57,-1,6,8,106,-1,106,8,107,-1,106,107,108,-1,108,107,109,-1,108,109,110,-1,110,109,111,-1,110,111,112,-1,112,111,113,-1,112,113,114,-1,114,113,115,-1,114,115,116,-1,116,115,117,-1,116,117,118,-1,118,117,119,-1,118,119,32,-1,32,119,120,-1,32,120,33,-1,9,11,48,-1,48,11,121,-1,48,121,80,-1,122,123,124,-1,67,125,68,-1,68,125,122,-1,68,122,126,-1,126,122,124,-1,46,127,47,-1,47,127,128,-1,47,128,129,-1,129,128,130,-1,129,130,131,-1,131,130,132,-1,131,132,133,-1,133,132,134,-1,133,134,135,-1,135,134,136,-1,135,136,137,-1,137,136,138,-1,137,138,139,-1,139,138,140,-1,139,140,20,-1,20,140,141,-1,20,141,21,-1,142,143,122,-1,122,143,144,-1,122,144,123,-1,145,146,147,-1,146,148,147,-1,147,148,149,-1,147,149,150,-1,142,122,147,-1,147,122,151,-1,147,151,145,-1,152,31,153,-1,153,31,85,-1,153,85,154,-1,154,85,87,-1,154,87,155,-1,155,87,89,-1,155,89,156,-1,152,157,31,-1,31,157,158,-1,31,158,30,-1,30,158,159,-1,30,159,28,-1,28,159,160,-1,28,160,8,-1,8,160,161,-1,8,161,107,-1,107,161,162,-1,107,162,109,-1,109,162,163,-1,109,163,111,-1,111,163,113,-1,113,163,164,-1,164,165,113,-1,113,165,166,-1,113,166,115,-1,115,166,167,-1,115,167,117,-1,168,33,169,-1,169,33,120,-1,169,120,170,-1,170,120,119,-1,170,119,171,-1,171,119,117,-1,171,117,167,-1,33,168,172,-1,33,172,35,-1,35,172,173,-1,35,173,37,-1,37,173,174,-1,37,174,41,-1,41,174,175,-1,41,175,18,-1,18,175,176,-1,18,176,14,-1,14,176,177,-1,14,177,96,-1,96,177,178,-1,96,178,97,-1,97,178,179,-1,97,179,99,-1,102,101,180,-1,180,101,99,-1,180,99,179,-1,180,181,102,-1,102,181,182,-1,102,182,70,-1,70,182,183,-1,183,184,70,-1,70,184,185,-1,70,185,72,-1,72,185,186,-1,72,186,74,-1,74,186,187,-1,74,187,76,-1,76,187,188,-1,76,188,78,-1,78,188,189,-1,78,189,79,-1,79,189,190,-1,79,190,24,-1,24,190,191,-1,24,191,25,-1,25,191,192,-1,25,192,0,-1,192,193,0,-1,0,193,194,-1,0,194,1,-1,1,194,195,-1,1,195,46,-1,46,195,196,-1,46,196,127,-1,196,197,127,-1,127,197,198,-1,127,198,128,-1,128,198,199,-1,128,199,130,-1,200,21,141,-1,130,199,201,-1,130,201,132,-1,132,201,202,-1,132,202,134,-1,202,203,134,-1,134,203,204,-1,134,204,136,-1,136,204,205,-1,136,205,138,-1,138,205,206,-1,138,206,140,-1,140,206,207,-1,140,207,141,-1,141,207,208,-1,141,208,200,-1,22,21,209,-1,209,21,200,-1,5,22,210,-1,210,22,209,-1,19,5,211,-1,211,5,210,-1,11,19,212,-1,212,19,211,-1,11,212,213,-1,11,213,121,-1,121,213,214,-1,121,214,80,-1,80,214,215,-1,80,215,81,-1,81,215,216,-1,81,216,82,-1,82,216,217,-1,82,217,49,-1,49,217,218,-1,49,218,51,-1,51,218,219,-1,51,219,53,-1,53,219,220,-1,53,220,55,-1,55,220,221,-1,55,221,2,-1,2,221,222,-1,2,222,23,-1,23,222,223,-1,23,223,77,-1,77,223,224,-1,77,224,75,-1,75,224,225,-1,75,225,73,-1,73,225,226,-1,73,226,71,-1,226,227,71,-1,71,227,69,-1,227,228,69,-1,69,228,229,-1,69,229,100,-1,100,229,230,-1,100,230,98,-1,230,231,98,-1,98,231,232,-1,98,232,12,-1,12,232,233,-1,12,233,13,-1,13,233,234,-1,13,234,39,-1,39,234,235,-1,39,235,40,-1,40,235,236,-1,40,236,42,-1,42,236,237,-1,42,237,43,-1,43,237,238,-1,43,238,38,-1,38,238,239,-1,38,239,36,-1,36,239,240,-1,36,240,34,-1,34,240,241,-1,34,241,32,-1,32,241,242,-1,32,242,118,-1,118,242,243,-1,118,243,116,-1,244,7,245,-1,245,7,6,-1,245,6,246,-1,246,6,106,-1,246,106,247,-1,247,106,108,-1,247,108,248,-1,248,108,110,-1,248,110,249,-1,249,110,112,-1,249,112,250,-1,250,112,114,-1,250,114,251,-1,251,114,116,-1,251,116,243,-1,26,7,252,-1,252,7,244,-1,26,252,253,-1,26,253,27,-1,27,253,254,-1,27,254,29,-1,29,254,255,-1,29,255,83,-1,83,255,256,-1,83,256,84,-1,84,256,257,-1,84,257,86,-1,257,258,86,-1,86,258,259,-1,86,259,88,-1,88,259,260,-1,88,260,90,-1,90,260,261,-1,90,261,92,-1,92,261,262,-1,92,262,94,-1,94,262,263,-1,94,263,95,-1,95,263,264,-1,95,264,59,-1,59,264,265,-1,59,265,61,-1,61,265,266,-1,61,266,63,-1,63,266,267,-1,63,267,65,-1,67,65,268,-1,268,65,267,-1,67,268,269,-1,67,269,125,-1,125,269,270,-1,125,270,122,-1,122,270,271,-1,122,271,151,-1,151,271,272,-1,151,272,145,-1,145,272,273,-1,145,273,146,-1,146,273,274,-1,146,274,148,-1,148,274,275,-1,148,275,149,-1,149,275,276,-1,149,276,150,-1,150,276,277,-1,150,277,147,-1,147,277,278,-1,147,278,142,-1,142,278,279,-1,142,279,143,-1,143,279,280,-1,143,280,144,-1,144,280,281,-1,144,281,123,-1,123,281,282,-1,123,282,124,-1,124,282,283,-1,124,283,126,-1,126,283,284,-1,126,284,68,-1,68,284,285,-1,68,285,66,-1,64,66,286,-1,286,66,285,-1,64,286,287,-1,64,287,62,-1,62,287,288,-1,62,288,60,-1,60,288,289,-1,60,289,58,-1,58,289,290,-1,58,290,93,-1,93,290,291,-1,93,291,91,-1,91,291,156,-1,91,156,89,-1,9,292,293,-1,9,293,10,-1,10,293,294,-1,10,294,15,-1,15,294,295,-1,15,295,16,-1,16,295,296,-1,16,296,17,-1,17,296,297,-1,17,297,3,-1,3,297,298,-1,3,298,4,-1,4,298,299,-1,4,299,20,-1,20,299,300,-1,20,300,139,-1,139,300,301,-1,139,301,137,-1,137,301,302,-1,137,302,135,-1,135,302,303,-1,135,303,133,-1,133,303,304,-1,133,304,131,-1,131,304,305,-1,131,305,129,-1,129,305,306,-1,129,306,47,-1,47,306,307,-1,47,307,45,-1,45,307,308,-1,45,308,44,-1,44,308,309,-1,44,309,103,-1,103,309,310,-1,103,310,104,-1,104,310,311,-1,104,311,105,-1,105,311,312,-1,105,312,57,-1,57,312,313,-1,57,313,56,-1,56,313,314,-1,56,314,54,-1,54,314,315,-1,54,315,52,-1,52,315,316,-1,52,316,50,-1,50,316,317,-1,50,317,48,-1,48,317,292,-1,48,292,9,-1,
        ]
    }
}
Shape{
    appearance Appearance {
        material  Material 	{
            diffuseColor 0.34901960784313724 0.34901960784313724 0.34901960784313724
            specularColor 0.023529411764705882 0.023529411764705882 0.023529411764705882
            ambientIntensity 0.498
            transparency 0.0
            shininess 0.5
        }
    }
    geometry IndexedFaceSet {
        ccw TRUE
        solid FALSE
        coord DEF co Coordinate {
            point [
                0.2431 -0.636 0.7874, 0.2455 -0.6362 0.7874, 0.2455 -0.6109 0.7874, 0.2581 -0.6222 0.7874, 0.2581 -0.6249 0.7874, 0.2484 -0.6359 0.7874, 0.2512 -0.6349 0.7874, 0.2574 -0.6191 0.7874, 0.256 -0.6165 0.7874, 0.2539 -0.6141 0.7874, 0.2397 -0.6122 0.7874, 0.2352 -0.6311 0.7874, 0.2374 -0.6333 0.7874, 0.2513 -0.6123 0.7874, 0.2483 -0.6112 0.7874, 0.2338 -0.6284 0.7874, 0.2371 -0.614 0.7874, 0.2329 -0.6255 0.7874, 0.2426 -0.6112 0.7874, 0.2401 -0.635 0.7874, 0.2537 -0.6332 0.7874, 0.2558 -0.6308 0.7874, 0.2573 -0.628 0.7874, 0.2328 -0.6223 0.7874, 0.235 -0.6163 0.7874, 0.2336 -0.6192 0.7874
            ]
        }
        coordIndex [
            0,1,2,-1,3,1,4,-1,4,1,5,-1,4,5,6,-1,3,7,1,-1,1,7,8,-1,1,8,9,-1,10,11,12,-1,9,13,1,-1,1,13,14,-1,1,14,2,-1,11,10,15,-1,15,10,16,-1,15,16,17,-1,2,18,0,-1,0,18,10,-1,0,10,19,-1,19,10,12,-1,6,20,4,-1,4,20,21,-1,4,21,22,-1,17,16,23,-1,23,16,24,-1,23,24,25,-1,
        ]
    }
}
Shape{
    appearance Appearance {
        material  Material 	{
            diffuseColor 1.0 1.0 1.0
            specularColor 0.5019607843137255 0.5019607843137255 0.5019607843137255
            ambientIntensity 1.0
            transparency 0.0
            shininess 0.5
        }
    }
    geometry IndexedFaceSet {
        ccw TRUE
        solid FALSE
        coord DEF co Coordinate {
            point [
                0.5511 -0.5491 0.7913, 0.5491 -0.5516 0.7913, 0.5533 -0.5551 0.7913, 0.5485 -0.552 0.7913, 0.5485 -0.5585 0.7913, 0.5456 -0.5541 0.7913, 0.5433 -0.5606 0.7913, 0.5418 -0.5556 0.7913, 0.5355 -0.5615 0.7913, 0.5355 -0.5563 0.7913, 0.5229 -0.5615 0.7913, 0.5288 -0.5563 0.7913, 0.5229 -0.5158 0.7913, 0.5288 -0.521 0.7913, 0.536 -0.5158 0.7913, 0.5357 -0.521 0.7913, 0.5429 -0.5166 0.7913, 0.5416 -0.5217 0.7913, 0.5485 -0.5186 0.7913, 0.5456 -0.5231 0.7913, 0.5533 -0.5218 0.7913, 0.5489 -0.5254 0.7913, 0.5549 -0.5234 0.7913, 0.5502 -0.5266 0.7913, 0.5577 -0.5274 0.7913, 0.552 -0.5291 0.7913, 0.5594 -0.5318 0.7913, 0.5533 -0.5325 0.7913, 0.5602 -0.5381 0.7913, 0.5539 -0.5382 0.7913, 0.56 -0.541 0.7913, 0.5537 -0.5417 0.7913, 0.5589 -0.5463 0.7913, 0.5528 -0.5458 0.7913, 0.5567 -0.5511 0.7913, 0.5533 -0.5551 0.7874, 0.5567 -0.5511 0.7874, 0.5589 -0.5463 0.7874, 0.56 -0.541 0.7874, 0.5602 -0.5381 0.7874, 0.5594 -0.5318 0.7874, 0.5577 -0.5274 0.7874, 0.5549 -0.5234 0.7874, 0.5533 -0.5218 0.7874, 0.5485 -0.5186 0.7874, 0.5429 -0.5166 0.7874, 0.536 -0.5158 0.7874, 0.5229 -0.5158 0.7874, 0.5229 -0.5615 0.7874, 0.5355 -0.5615 0.7874, 0.5433 -0.5606 0.7874, 0.5485 -0.5585 0.7874, 0.5489 -0.5254 0.7874, 0.5502 -0.5266 0.7874, 0.552 -0.5291 0.7874, 0.5533 -0.5325 0.7874, 0.5539 -0.5382 0.7874, 0.5357 -0.521 0.7874, 0.5416 -0.5217 0.7874, 0.5456 -0.5231 0.7874, 0.5288 -0.521 0.7874, 0.5288 -0.5563 0.7874, 0.5355 -0.5563 0.7874, 0.5491 -0.5516 0.7874, 0.5485 -0.552 0.7874, 0.5456 -0.5541 0.7874, 0.5418 -0.5556 0.7874, 0.5537 -0.5417 0.7874, 0.5528 -0.5458 0.7874, 0.5511 -0.5491 0.7874
            ]
        }
        coordIndex [
            0,1,2,-1,2,1,3,-1,2,3,4,-1,4,3,5,-1,4,5,6,-1,6,5,7,-1,6,7,8,-1,8,7,9,-1,8,9,10,-1,10,9,11,-1,10,11,12,-1,12,11,13,-1,12,13,14,-1,14,13,15,-1,14,15,16,-1,16,15,17,-1,16,17,18,-1,18,17,19,-1,18,19,20,-1,20,19,21,-1,20,21,22,-1,22,21,23,-1,22,23,24,-1,24,23,25,-1,24,25,26,-1,26,25,27,-1,26,27,28,-1,28,27,29,-1,28,29,30,-1,30,29,31,-1,30,31,32,-1,32,31,33,-1,32,33,34,-1,34,33,0,-1,34,0,2,-1,2,35,36,-1,2,36,34,-1,34,36,37,-1,34,37,32,-1,32,37,38,-1,32,38,30,-1,30,38,39,-1,30,39,28,-1,28,39,40,-1,28,40,26,-1,26,40,41,-1,26,41,24,-1,24,41,42,-1,24,42,22,-1,22,42,43,-1,22,43,20,-1,20,43,44,-1,20,44,18,-1,18,44,45,-1,18,45,16,-1,16,45,46,-1,16,46,14,-1,12,14,47,-1,47,14,46,-1,10,12,48,-1,48,12,47,-1,8,10,49,-1,49,10,48,-1,8,49,50,-1,8,50,6,-1,6,50,51,-1,6,51,4,-1,4,51,35,-1,4,35,2,-1,21,52,53,-1,21,53,23,-1,23,53,54,-1,23,54,25,-1,25,54,55,-1,25,55,27,-1,27,55,56,-1,27,56,29,-1,15,57,58,-1,15,58,17,-1,17,58,59,-1,17,59,19,-1,19,59,52,-1,19,52,21,-1,15,13,57,-1,57,13,60,-1,13,11,60,-1,60,11,61,-1,11,9,61,-1,61,9,62,-1,1,63,64,-1,1,64,3,-1,3,64,65,-1,3,65,5,-1,5,65,66,-1,5,66,7,-1,7,66,62,-1,7,62,9,-1,29,56,67,-1,29,67,31,-1,31,67,68,-1,31,68,33,-1,33,68,69,-1,33,69,0,-1,0,69,63,-1,0,63,1,-1,
        ]
    }
}
Shape{
    appearance Appearance {
        material  Material 	{
            diffuseColor 0.34901960784313724 0.34901960784313724 0.34901960784313724
            specularColor 0.023529411764705882 0.023529411764705882 0.023529411764705882
            ambientIntensity 0.498
            transparency 0.0
            shininess 0.5
        }
    }
    geometry IndexedFaceSet {
        ccw TRUE
        solid FALSE
        coord DEF co Coordinate {
            point [
                0.5485 -0.552 0.7874, 0.5491 -0.5516 0.7874, 0.5357 -0.521 0.7874, 0.5288 -0.521 0.7874, 0.5288 -0.5563 0.7874, 0.5355 -0.5563 0.7874, 0.5418 -0.5556 0.7874, 0.5456 -0.5541 0.7874, 0.5511 -0.5491 0.7874, 0.5528 -0.5458 0.7874, 0.5537 -0.5417 0.7874, 0.5539 -0.5382 0.7874, 0.5533 -0.5325 0.7874, 0.552 -0.5291 0.7874, 0.5502 -0.5266 0.7874, 0.5489 -0.5254 0.7874, 0.5416 -0.5217 0.7874, 0.5456 -0.5231 0.7874
            ]
        }
        coordIndex [
            0,1,2,-1,3,4,2,-1,2,4,5,-1,5,6,2,-1,2,6,7,-1,2,7,0,-1,1,8,2,-1,2,8,9,-1,2,9,10,-1,10,11,2,-1,2,11,12,-1,2,12,13,-1,13,14,2,-1,2,14,15,-1,2,15,16,-1,16,15,17,-1,
        ]
    }
}
Shape{
    appearance Appearance {
        material  Material 	{
            diffuseColor 1.0 1.0 1.0
            specularColor 0.5019607843137255 0.5019607843137255 0.5019607843137255
            ambientIntensity 1.0
            transparency 0.0
            shininess 0.5
        }
    }
    geometry IndexedFaceSet {
        ccw TRUE
        solid FALSE
        coord DEF co Coordinate {
            point [
                0.4687 -0.557 0.7913, 0.4687 -0.557 0.7874, 0.4641 -0.5565 0.7874, 0.4641 -0.5565 0.7913, 0.4608 -0.5552 0.7874, 0.4608 -0.5552 0.7913, 0.4578 -0.5531 0.7874, 0.4578 -0.5531 0.7913, 0.4569 -0.5522 0.7874, 0.4569 -0.5522 0.7913, 0.455 -0.5496 0.7874, 0.455 -0.5496 0.7913, 0.4534 -0.546 0.7874, 0.4534 -0.546 0.7913, 0.4525 -0.5416 0.7874, 0.4525 -0.5416 0.7913, 0.4524 -0.5392 0.7874, 0.4524 -0.5392 0.7913, 0.4532 -0.5329 0.7874, 0.4532 -0.5329 0.7913, 0.4547 -0.5289 0.7874, 0.4547 -0.5289 0.7913, 0.4572 -0.5254 0.7874, 0.4572 -0.5254 0.7913, 0.4598 -0.5232 0.7874, 0.4598 -0.5232 0.7913, 0.4634 -0.5214 0.7874, 0.4634 -0.5214 0.7913, 0.4673 -0.5205 0.7874, 0.4673 -0.5205 0.7913, 0.4697 -0.5203 0.7874, 0.4697 -0.5203 0.7913, 0.4805 -0.5231 0.7874, 0.4805 -0.5231 0.7913, 0.48 -0.5228 0.7913, 0.4753 -0.521 0.7874, 0.4753 -0.521 0.7913, 0.4785 -0.5222 0.7874, 0.48 -0.5228 0.7874, 0.4805 -0.5169 0.7913, 0.4805 -0.5169 0.7874, 0.4696 -0.515 0.7874, 0.4696 -0.515 0.7913, 0.4697 -0.515 0.7913, 0.4785 -0.5163 0.7874, 0.4757 -0.5155 0.7913, 0.4757 -0.5155 0.7874, 0.4745 -0.5154 0.7874, 0.4697 -0.515 0.7874, 0.4665 -0.5154 0.7874, 0.463 -0.5158 0.7913, 0.463 -0.5158 0.7874, 0.4582 -0.5177 0.7874, 0.4582 -0.5177 0.7913, 0.454 -0.5207 0.7874, 0.454 -0.5207 0.7913, 0.4528 -0.5218 0.7874, 0.4528 -0.5218 0.7913, 0.4495 -0.5261 0.7874, 0.4483 -0.529 0.7874, 0.4473 -0.5312 0.7913, 0.4495 -0.5261 0.7913, 0.4473 -0.5312 0.7874, 0.4463 -0.5371 0.7874, 0.4463 -0.5371 0.7913, 0.4462 -0.5395 0.7874, 0.4462 -0.5395 0.7913, 0.4521 -0.5561 0.7874, 0.4521 -0.5561 0.7913, 0.449 -0.5518 0.7913, 0.4471 -0.547 0.7874, 0.4471 -0.547 0.7913, 0.4483 -0.5499 0.7874, 0.449 -0.5518 0.7874, 0.4678 -0.5623 0.7874, 0.4678 -0.5623 0.7913, 0.4651 -0.5622 0.7913, 0.4558 -0.5591 0.7874, 0.4558 -0.5591 0.7913, 0.4601 -0.5612 0.7874, 0.4601 -0.5612 0.7913, 0.4638 -0.5619 0.7874, 0.4651 -0.5622 0.7874, 0.4805 -0.5596 0.7874, 0.4805 -0.5596 0.7913, 0.4797 -0.56 0.7913, 0.4748 -0.5616 0.7913, 0.4719 -0.5619 0.7874, 0.4748 -0.5616 0.7874, 0.4785 -0.5604 0.7874, 0.4797 -0.56 0.7874, 0.4805 -0.554 0.7913, 0.4805 -0.554 0.7874, 0.4785 -0.5549 0.7874, 0.476 -0.556 0.7913, 0.476 -0.556 0.7874, 0.4708 -0.557 0.7874, 0.4708 -0.557 0.7913, 0.6328 -0.6164 0.7913, 0.6309 -0.6216 0.7913, 0.6481 -0.6164 0.7913, 0.65 -0.6216 0.7913, 0.6396 -0.5974 0.7913, 0.6374 -0.5884 0.7913, 0.62 -0.6341 0.7913, 0.6265 -0.6341 0.7913, 0.64 -0.5961 0.7913, 0.6404 -0.5942 0.7913, 0.6437 -0.5884 0.7913, 0.6405 -0.5942 0.7913, 0.6409 -0.5962 0.7913, 0.6412 -0.5974 0.7913, 0.6612 -0.6341 0.7913, 0.6546 -0.6341 0.7913, 0.6374 -0.5884 0.7874, 0.6437 -0.5884 0.7874, 0.62 -0.6341 0.7874, 0.6265 -0.6341 0.7874, 0.6309 -0.6216 0.7874, 0.65 -0.6216 0.7874, 0.6546 -0.6341 0.7874, 0.6612 -0.6341 0.7874, 0.6396 -0.5974 0.7874, 0.64 -0.5961 0.7874, 0.6404 -0.5942 0.7874, 0.6328 -0.6164 0.7874, 0.6481 -0.6164 0.7874, 0.6412 -0.5974 0.7874, 0.6405 -0.5942 0.7874, 0.6409 -0.5962 0.7874
            ]
        }
        coordIndex [
            0,1,2,-1,0,2,3,-1,3,2,4,-1,3,4,5,-1,5,4,6,-1,5,6,7,-1,7,6,8,-1,7,8,9,-1,9,8,10,-1,9,10,11,-1,11,10,12,-1,11,12,13,-1,13,12,14,-1,13,14,15,-1,15,14,16,-1,15,16,17,-1,17,16,18,-1,17,18,19,-1,19,18,20,-1,19,20,21,-1,21,20,22,-1,21,22,23,-1,23,22,24,-1,23,24,25,-1,25,24,26,-1,25,26,27,-1,27,26,28,-1,27,28,29,-1,29,28,30,-1,29,30,31,-1,32,33,34,-1,31,30,35,-1,31,35,36,-1,36,35,37,-1,36,37,34,-1,34,37,38,-1,34,38,32,-1,39,33,40,-1,40,33,32,-1,41,42,43,-1,39,40,44,-1,39,44,45,-1,44,46,45,-1,45,46,47,-1,45,47,43,-1,43,47,48,-1,43,48,41,-1,42,41,49,-1,42,49,50,-1,49,51,50,-1,50,51,52,-1,50,52,53,-1,53,52,54,-1,53,54,55,-1,55,54,56,-1,55,56,57,-1,57,56,58,-1,59,60,58,-1,58,60,61,-1,58,61,57,-1,59,62,60,-1,60,62,63,-1,60,63,64,-1,64,63,65,-1,64,65,66,-1,67,68,69,-1,66,65,70,-1,66,70,71,-1,71,70,72,-1,71,72,69,-1,69,72,73,-1,69,73,67,-1,74,75,76,-1,68,67,77,-1,68,77,78,-1,78,77,79,-1,78,79,80,-1,80,79,81,-1,80,81,76,-1,76,81,82,-1,76,82,74,-1,83,84,85,-1,75,74,86,-1,86,74,87,-1,87,88,86,-1,86,88,89,-1,86,89,85,-1,85,89,90,-1,85,90,83,-1,91,84,92,-1,92,84,83,-1,91,92,93,-1,91,93,94,-1,93,95,94,-1,94,95,96,-1,94,96,97,-1,97,96,1,-1,97,1,0,-1,34,33,39,-1,25,55,23,-1,23,55,57,-1,23,57,21,-1,21,57,61,-1,21,61,19,-1,66,17,64,-1,64,17,19,-1,64,19,60,-1,60,19,61,-1,34,39,36,-1,36,39,45,-1,36,45,31,-1,31,45,43,-1,31,43,29,-1,29,43,42,-1,29,42,27,-1,27,42,50,-1,27,50,25,-1,25,50,53,-1,25,53,55,-1,84,91,85,-1,85,91,94,-1,85,94,86,-1,86,94,97,-1,86,97,75,-1,75,97,0,-1,75,0,76,-1,76,0,3,-1,76,3,80,-1,80,3,5,-1,80,5,78,-1,78,5,7,-1,78,7,68,-1,68,7,9,-1,68,9,69,-1,69,9,11,-1,69,11,71,-1,71,11,13,-1,71,13,66,-1,66,13,15,-1,66,15,17,-1,98,99,100,-1,100,99,101,-1,102,103,98,-1,98,103,104,-1,98,104,99,-1,99,104,105,-1,102,106,103,-1,103,106,107,-1,103,107,108,-1,108,107,109,-1,108,109,110,-1,110,111,108,-1,108,111,100,-1,108,100,112,-1,112,100,101,-1,112,101,113,-1,103,108,114,-1,114,108,115,-1,104,103,116,-1,116,103,114,-1,105,104,117,-1,117,104,116,-1,99,105,118,-1,118,105,117,-1,101,99,119,-1,119,99,118,-1,113,101,120,-1,120,101,119,-1,112,113,121,-1,121,113,120,-1,108,112,115,-1,115,112,121,-1,102,122,123,-1,102,123,106,-1,106,123,124,-1,106,124,107,-1,102,98,122,-1,122,98,125,-1,98,100,125,-1,125,100,126,-1,100,111,126,-1,126,111,127,-1,109,128,129,-1,109,129,110,-1,110,129,127,-1,110,127,111,-1,109,107,128,-1,128,107,124,-1,
        ]
    }
}
Shape{
    appearance Appearance {
        material  Material 	{
            diffuseColor 0.34901960784313724 0.34901960784313724 0.34901960784313724
            specularColor 0.023529411764705882 0.023529411764705882 0.023529411764705882
            ambientIntensity 0.498
            transparency 0.0
            shininess 0.5
        }
    }
    geometry IndexedFaceSet {
        ccw TRUE
        solid FALSE
        coord DEF co Coordinate {
            point [
                0.6405 -0.5942 0.7874, 0.6404 -0.5942 0.7874, 0.6409 -0.5962 0.7874, 0.64 -0.5961 0.7874, 0.6412 -0.5974 0.7874, 0.6396 -0.5974 0.7874, 0.6481 -0.6164 0.7874, 0.6328 -0.6164 0.7874
            ]
        }
        coordIndex [
            0,1,2,-1,2,1,3,-1,2,3,4,-1,4,3,5,-1,4,5,6,-1,6,5,7,-1,
        ]
    }
}
Shape{
    appearance Appearance {
        material  Material 	{
            diffuseColor 1.0 1.0 1.0
            specularColor 0.5019607843137255 0.5019607843137255 0.5019607843137255
            ambientIntensity 1.0
            transparency 0.0
            shininess 0.5
        }
    }
    geometry IndexedFaceSet {
        ccw TRUE
        solid FALSE
        coord DEF co Coordinate {
            point [
                0.5716 -0.6289 0.7913, 0.5716 -0.6289 0.7874, 0.5529 -0.6289 0.7913, 0.5614 -0.6289 0.7874, 0.5529 -0.6289 0.7874, 0.5529 -0.6135 0.7913, 0.5529 -0.6135 0.7874, 0.5692 -0.6135 0.7913, 0.5614 -0.6135 0.7874, 0.5692 -0.6135 0.7874, 0.5692 -0.6083 0.7913, 0.5692 -0.6083 0.7874, 0.5529 -0.6083 0.7874, 0.5529 -0.6083 0.7913, 0.5614 -0.6083 0.7874, 0.5529 -0.5936 0.7913, 0.5529 -0.5936 0.7874, 0.5705 -0.5936 0.7874, 0.5705 -0.5936 0.7913, 0.5614 -0.5936 0.7874, 0.5705 -0.5884 0.7913, 0.5705 -0.5884 0.7874, 0.5469 -0.5884 0.7874, 0.5469 -0.5884 0.7913, 0.5614 -0.5884 0.7874, 0.5469 -0.6341 0.7913, 0.5469 -0.6341 0.7874, 0.5716 -0.6341 0.7913, 0.5614 -0.6341 0.7874, 0.5716 -0.6341 0.7874, 0.4261 -0.6289 0.7913, 0.4448 -0.6289 0.7913, 0.4261 -0.6289 0.7874, 0.4448 -0.6289 0.7874, 0.4261 -0.6135 0.7913, 0.4261 -0.6135 0.7874, 0.4425 -0.6135 0.7913, 0.4425 -0.6135 0.7874, 0.4425 -0.6083 0.7913, 0.4425 -0.6083 0.7874, 0.4261 -0.6083 0.7913, 0.4261 -0.6083 0.7874, 0.4261 -0.5936 0.7913, 0.4261 -0.5936 0.7874, 0.4438 -0.5936 0.7913, 0.4438 -0.5936 0.7874, 0.4438 -0.5884 0.7913, 0.4438 -0.5884 0.7874, 0.4202 -0.5884 0.7913, 0.4202 -0.5884 0.7874, 0.4202 -0.6341 0.7913, 0.4202 -0.6341 0.7874, 0.4448 -0.6341 0.7913, 0.4448 -0.6341 0.7874, 0.5755 -0.5439 0.7913, 0.5736 -0.549 0.7913, 0.5908 -0.5439 0.7913, 0.5927 -0.549 0.7913, 0.5823 -0.5248 0.7913, 0.5801 -0.5158 0.7913, 0.5627 -0.5615 0.7913, 0.5692 -0.5615 0.7913, 0.5827 -0.5235 0.7913, 0.5831 -0.5216 0.7913, 0.5864 -0.5158 0.7913, 0.5832 -0.5216 0.7913, 0.5836 -0.5236 0.7913, 0.5839 -0.5248 0.7913, 0.6039 -0.5615 0.7913, 0.5973 -0.5615 0.7913, 0.5801 -0.5158 0.7874, 0.5864 -0.5158 0.7874, 0.5627 -0.5615 0.7874, 0.5759 -0.5269 0.7874, 0.5692 -0.5615 0.7874, 0.5736 -0.549 0.7874, 0.5927 -0.549 0.7874, 0.5759 -0.549 0.7874, 0.5973 -0.5615 0.7874, 0.6039 -0.5615 0.7874, 0.5823 -0.5248 0.7874, 0.5827 -0.5235 0.7874, 0.5831 -0.5216 0.7874, 0.5755 -0.5439 0.7874, 0.5908 -0.5439 0.7874, 0.5839 -0.5248 0.7874, 0.5832 -0.5216 0.7874, 0.5836 -0.5236 0.7874
            ]
        }
        coordIndex [
            0,1,2,-1,2,1,3,-1,2,3,4,-1,5,2,6,-1,6,2,4,-1,5,6,7,-1,7,6,8,-1,7,8,9,-1,10,7,11,-1,11,7,9,-1,12,13,14,-1,14,13,10,-1,14,10,11,-1,15,13,16,-1,16,13,12,-1,17,18,19,-1,19,18,15,-1,19,15,16,-1,20,18,21,-1,21,18,17,-1,22,23,24,-1,24,23,20,-1,24,20,21,-1,25,23,26,-1,26,23,22,-1,25,26,27,-1,27,26,28,-1,27,28,29,-1,0,27,1,-1,1,27,29,-1,25,27,0,-1,0,2,25,-1,25,2,5,-1,25,5,23,-1,18,20,15,-1,15,20,23,-1,15,23,13,-1,13,23,5,-1,13,5,10,-1,10,5,7,-1,30,31,32,-1,32,31,33,-1,34,30,35,-1,35,30,32,-1,36,34,37,-1,37,34,35,-1,38,36,39,-1,39,36,37,-1,40,38,41,-1,41,38,39,-1,42,40,43,-1,43,40,41,-1,44,42,45,-1,45,42,43,-1,46,44,47,-1,47,44,45,-1,48,46,49,-1,49,46,47,-1,50,48,51,-1,51,48,49,-1,52,50,53,-1,53,50,51,-1,31,52,33,-1,33,52,53,-1,50,52,31,-1,31,30,50,-1,50,30,34,-1,50,34,48,-1,44,46,42,-1,42,46,48,-1,42,48,40,-1,40,48,34,-1,40,34,38,-1,38,34,36,-1,54,55,56,-1,56,55,57,-1,58,59,54,-1,54,59,60,-1,54,60,55,-1,55,60,61,-1,58,62,59,-1,59,62,63,-1,59,63,64,-1,64,63,65,-1,64,65,66,-1,66,67,64,-1,64,67,56,-1,64,56,68,-1,68,56,57,-1,68,57,69,-1,59,64,70,-1,70,64,71,-1,72,60,73,-1,73,60,59,-1,73,59,70,-1,61,60,74,-1,74,60,72,-1,55,61,75,-1,75,61,74,-1,76,57,77,-1,77,57,55,-1,77,55,75,-1,69,57,78,-1,78,57,76,-1,68,69,79,-1,79,69,78,-1,64,68,71,-1,71,68,79,-1,58,80,81,-1,58,81,62,-1,62,81,82,-1,62,82,63,-1,58,54,80,-1,80,54,83,-1,54,56,83,-1,83,56,84,-1,56,67,84,-1,84,67,85,-1,65,86,87,-1,65,87,66,-1,66,87,85,-1,66,85,67,-1,65,63,86,-1,86,63,82,-1,
        ]
    }
}
Shape{
    appearance Appearance {
        material  Material 	{
            diffuseColor 0.34901960784313724 0.34901960784313724 0.34901960784313724
            specularColor 0.023529411764705882 0.023529411764705882 0.023529411764705882
            ambientIntensity 0.498
            transparency 0.0
            shininess 0.5
        }
    }
    geometry IndexedFaceSet {
        ccw TRUE
        solid FALSE
        coord DEF co Coordinate {
            point [
                0.5832 -0.5216 0.7874, 0.5831 -0.5216 0.7874, 0.5836 -0.5236 0.7874, 0.5827 -0.5235 0.7874, 0.5839 -0.5248 0.7874, 0.5823 -0.5248 0.7874, 0.5908 -0.5439 0.7874, 0.5755 -0.5439 0.7874
            ]
        }
        coordIndex [
            0,1,2,-1,2,1,3,-1,2,3,4,-1,4,3,5,-1,4,5,6,-1,6,5,7,-1,
        ]
    }
}
Shape{
    appearance Appearance {
        material  Material 	{
            diffuseColor 1.0 1.0 1.0
            specularColor 0.5019607843137255 0.5019607843137255 0.5019607843137255
            ambientIntensity 1.0
            transparency 0.0
            shininess 0.5
        }
    }
    geometry IndexedFaceSet {
        ccw TRUE
        solid FALSE
        coord DEF co Coordinate {
            point [
                0.4956 -0.5563 0.7874, 0.4956 -0.5563 0.7913, 0.5079 -0.5563 0.7874, 0.5143 -0.5563 0.7913, 0.5143 -0.5563 0.7874, 0.4956 -0.5409 0.7913, 0.4956 -0.5409 0.7874, 0.5119 -0.5409 0.7913, 0.5079 -0.5409 0.7874, 0.5119 -0.5409 0.7874, 0.5119 -0.5357 0.7913, 0.5119 -0.5357 0.7874, 0.4956 -0.5357 0.7874, 0.4956 -0.5357 0.7913, 0.5079 -0.5357 0.7874, 0.4956 -0.521 0.7913, 0.4956 -0.521 0.7874, 0.5132 -0.521 0.7913, 0.5079 -0.521 0.7874, 0.5132 -0.521 0.7874, 0.5132 -0.5158 0.7913, 0.5132 -0.5158 0.7874, 0.4896 -0.5158 0.7874, 0.4896 -0.5158 0.7913, 0.5079 -0.5158 0.7874, 0.4896 -0.5615 0.7913, 0.4896 -0.5615 0.7874, 0.5143 -0.5615 0.7913, 0.5079 -0.5615 0.7874, 0.5143 -0.5615 0.7874, 0.4261 -0.5563 0.7913, 0.4444 -0.5563 0.7913, 0.4261 -0.5563 0.7874, 0.4444 -0.5563 0.7874, 0.4261 -0.5158 0.7913, 0.4261 -0.5158 0.7874, 0.4202 -0.5158 0.7913, 0.4202 -0.5158 0.7874, 0.4202 -0.5615 0.7913, 0.4202 -0.5615 0.7874, 0.4444 -0.5615 0.7913, 0.4444 -0.5615 0.7874
            ]
        }
        coordIndex [
            0,1,2,-1,2,1,3,-1,2,3,4,-1,5,1,6,-1,6,1,0,-1,5,6,7,-1,7,6,8,-1,7,8,9,-1,10,7,11,-1,11,7,9,-1,12,13,14,-1,14,13,10,-1,14,10,11,-1,15,13,16,-1,16,13,12,-1,15,16,17,-1,17,16,18,-1,17,18,19,-1,20,17,21,-1,21,17,19,-1,22,23,24,-1,24,23,20,-1,24,20,21,-1,25,23,26,-1,26,23,22,-1,25,26,27,-1,27,26,28,-1,27,28,29,-1,3,27,4,-1,4,27,29,-1,25,27,3,-1,3,1,25,-1,25,1,5,-1,25,5,23,-1,17,20,15,-1,15,20,23,-1,15,23,13,-1,13,23,5,-1,13,5,10,-1,10,5,7,-1,30,31,32,-1,32,31,33,-1,34,30,35,-1,35,30,32,-1,36,34,37,-1,37,34,35,-1,38,36,39,-1,39,36,37,-1,40,38,41,-1,41,38,39,-1,31,40,33,-1,33,40,41,-1,34,36,30,-1,30,36,38,-1,30,38,31,-1,31,38,40,-1,
        ]
    }
}