#VRML V2.0 utf8
# 3D model generated by easyeda2kicad.py (https://github.com/uPesy/easyeda2kicad.py)

Shape{
    appearance Appearance {
        material  Material 	{
            diffuseColor 0.6666666666666666 0.6666666666666666 0.6666666666666666
            specularColor 0.4666666666666667 0.4666666666666667 0.4666666666666667
            ambientIntensity 0.6667
            transparency 0.0
            shininess 0.5
        }
    }
    geometry IndexedFaceSet {
        ccw TRUE
        solid FALSE
        coord DEF co Coordinate {
            point [
                -0.0082 -0.3307 0.0, -0.3307 -0.3307 0.0, -0.3307 -0.028 0.0, -0.0821 -0.0277 0.0, -0.0763 -0.0277 0.0, -0.0082 -0.028 0.0, -0.0466 -0.0277 0.0, -0.0417 -0.0169 0.0, -0.0395 -0.0205 0.0, -0.0362 -0.0236 0.0, -0.0321 -0.026 0.0, -0.0276 -0.0273 0.0, -0.0227 -0.0277 0.0, -0.012 -0.0277 0.0, -0.012 0.0116 0.0, -0.0082 0.3307 0.0, -0.0231 0.0116 0.0, -0.0288 0.011 0.0, -0.0334 0.0094 0.0, -0.0377 0.0065 0.0, -0.0615 0.0116 0.0, -0.0377 0.0065 0.0, -0.0405 0.0034 0.0, -0.0423 0.0 0.0, -0.0523 -0.0277 0.0, -0.0561 -0.0167 0.0, -0.0724 -0.0167 0.0, -0.0434 -0.0039 0.0, -0.0437 -0.0076 0.0, -0.0431 -0.0128 0.0, -0.0043 -0.0234 0.0, -0.0043 -0.0277 0.0, 0.0168 -0.0277 0.0, -0.0034 0.0073 0.0, 0.0115 0.0073 0.0, 0.0115 -0.0057 0.0, 0.0245 -0.0257 0.0, 0.0245 -0.0214 0.0, 0.0168 0.0116 0.0, 0.0287 -0.0274 0.0, 0.0327 -0.028 0.0, 0.0115 -0.01 0.0, 0.0115 -0.0234 0.0, -0.0024 -0.01 0.0, -0.0024 -0.0057 0.0, 0.044 -0.0264 0.0, 0.0571 -0.0277 0.0, 0.0402 -0.0277 0.0, 0.0376 -0.028 0.0, -0.0034 0.0116 0.0, 0.0517 0.0013 0.0, 0.0494 0.0049 0.0, 0.072 0.0116 0.0, 0.0376 0.0074 0.0, 0.0405 0.0063 0.0, 0.0252 -0.0218 0.0, 0.0433 0.0045 0.0, 0.0456 0.0018 0.0, 0.0485 -0.0085 0.0, 0.0481 -0.0127 0.0, 0.047 -0.0161 0.0, 0.0383 -0.0235 0.0, 0.0346 -0.0239 0.0, 0.0411 -0.0224 0.0, 0.0435 -0.0208 0.0, 0.0454 -0.0189 0.0, 0.0294 -0.0233 0.0, 0.0473 -0.0012 0.0, 0.0483 -0.0054 0.0, 0.0458 0.0084 0.0, 0.0773 0.0116 0.0, 0.3307 0.3307 0.0, 0.0773 -0.0277 0.0, 0.3307 -0.028 0.0, 0.0472 -0.0244 0.0, 0.0501 -0.0213 0.0, 0.0571 -0.0234 0.0, 0.0522 -0.0175 0.0, 0.072 -0.0234 0.0, 0.0534 -0.0134 0.0, 0.0538 -0.0088 0.0, 0.0532 -0.0032 0.0, 0.0421 0.0105 0.0, 0.0377 0.0118 0.0, 0.0338 0.0121 0.0, 0.029 0.0118 0.0, 0.0245 0.0105 0.0, 0.0245 0.0053 0.0, 0.0289 0.0072 0.0, 0.0337 0.0078 0.0, 0.0342 -0.0282 0.0, 0.3307 -0.3307 0.0, 0.0353 -0.0282 0.0, -0.252 0.3307 0.0, -0.0667 0.0116 0.0, -0.3307 0.252 0.0
            ]
        }
        coordIndex [
            0,1,2,-1,3,4,5,-1,6,7,8,-1,8,9,6,-1,6,9,10,-1,6,10,11,-1,12,13,5,-1,5,13,14,-1,5,14,15,-1,15,14,16,-1,15,16,17,-1,18,19,20,-1,19,21,20,-1,20,21,22,-1,20,22,23,-1,11,12,6,-1,6,12,5,-1,6,5,24,-1,24,5,4,-1,24,4,25,-1,25,4,26,-1,23,27,20,-1,20,27,28,-1,20,28,6,-1,6,28,29,-1,6,29,7,-1,15,30,5,-1,5,30,31,-1,5,31,32,-1,33,34,35,-1,36,32,37,-1,37,32,38,-1,36,39,32,-1,32,39,40,-1,32,40,5,-1,41,42,43,-1,43,42,30,-1,43,30,44,-1,45,46,47,-1,47,46,48,-1,35,44,33,-1,33,44,30,-1,33,30,49,-1,49,30,15,-1,49,15,38,-1,50,51,52,-1,53,54,55,-1,55,54,56,-1,55,56,57,-1,58,59,55,-1,55,59,60,-1,61,62,63,-1,63,62,64,-1,60,65,55,-1,55,65,64,-1,55,64,66,-1,66,64,62,-1,57,67,55,-1,55,67,68,-1,55,68,58,-1,51,69,52,-1,52,69,15,-1,52,15,70,-1,70,15,71,-1,70,71,72,-1,72,71,73,-1,45,74,46,-1,46,74,75,-1,46,75,76,-1,76,75,77,-1,76,77,78,-1,77,79,78,-1,78,79,80,-1,78,80,52,-1,52,80,81,-1,52,81,50,-1,69,82,15,-1,15,82,83,-1,15,83,84,-1,84,85,15,-1,15,85,86,-1,15,86,38,-1,38,86,87,-1,38,87,37,-1,37,87,88,-1,37,88,55,-1,55,88,89,-1,55,89,53,-1,0,90,91,-1,91,90,92,-1,91,92,73,-1,73,92,48,-1,73,48,72,-1,72,48,46,-1,17,18,15,-1,15,18,20,-1,15,20,93,-1,93,20,94,-1,93,94,95,-1,95,94,3,-1,95,3,2,-1,2,3,5,-1,2,5,0,-1,0,5,40,-1,0,40,90,-1,
        ]
    }
}
Shape{
    appearance Appearance {
        material  Material 	{
            diffuseColor 0.20784313725490197 0.20784313725490197 0.20784313725490197
            specularColor 0.01568627450980392 0.01568627450980392 0.01568627450980392
            ambientIntensity 0.298
            transparency 0.0
            shininess 0.5
        }
    }
    geometry IndexedFaceSet {
        ccw TRUE
        solid FALSE
        coord DEF co Coordinate {
            point [
                -0.4498 -0.0606 0.0079, -0.458 -0.0555 0.0079, -0.4498 0.0606 0.0079, -0.458 0.2523 0.0079, -0.4498 0.2575 0.0079, -0.458 0.1414 0.0079, 0.5906 0.5906 0.0079, 0.5906 0.3425 0.0079, 0.4768 0.3425 0.0079, -0.4429 -0.3262 0.0079, -0.4378 -0.318 0.0079, -0.3307 -0.3307 0.0079, 0.5906 -0.5906 0.0079, 0.3425 -0.5906 0.0079, 0.3425 -0.4768 0.0079, 0.4498 0.3331 0.0079, 0.3307 0.3307 0.0079, 0.458 0.3382 0.0079, 0.4671 0.3414 0.0079, -0.0849 0.4346 0.0079, -0.0757 0.4378 0.0079, 0.3088 0.4346 0.0079, 0.318 0.4378 0.0079, -0.3414 0.4671 0.0079, -0.3382 0.458 0.0079, -0.5906 0.3425 0.0079, -0.5906 -0.5906 0.0079, -0.5906 -0.3425 0.0079, -0.4768 -0.3425 0.0079, -0.4671 -0.3414 0.0079, -0.458 -0.3382 0.0079, -0.4498 -0.3331 0.0079, -0.4498 -0.1362 0.0079, -0.4429 -0.1294 0.0079, -0.4429 0.0675 0.0079, 0.3414 -0.4671 0.0079, 0.3382 -0.458 0.0079, 0.3307 -0.3307 0.0079, 0.3331 -0.4498 0.0079, 0.3262 -0.4429 0.0079, 0.318 -0.4378 0.0079, 0.3088 -0.4346 0.0079, 0.2992 -0.4335 0.0079, -0.2913 -0.4335 0.0079, -0.2992 -0.4335 0.0079, -0.3088 -0.4346 0.0079, -0.318 -0.4378 0.0079, 0.458 -0.2523 0.0079, 0.4498 -0.2575 0.0079, 0.4671 -0.1446 0.0079, 0.5906 -0.3425 0.0079, 0.4768 -0.3425 0.0079, 0.4671 -0.3414 0.0079, -0.4378 0.2725 0.0079, -0.4346 0.2817 0.0079, -0.3307 0.252 0.0079, -0.4335 0.2913 0.0079, -0.318 0.4378 0.0079, -0.4335 0.2992 0.0079, -0.3088 0.4346 0.0079, -0.2992 0.4335 0.0079, -0.252 0.3307 0.0079, -0.2913 0.4335 0.0079, -0.2817 0.4346 0.0079, -0.4346 -0.3088 0.0079, -0.4335 -0.2992 0.0079, -0.4335 -0.2913 0.0079, -0.4671 0.2491 0.0079, 0.2913 -0.4335 0.0079, 0.2817 -0.4346 0.0079, 0.2725 -0.4378 0.0079, 0.4429 0.3262 0.0079, 0.4378 0.318 0.0079, 0.4346 0.3088 0.0079, 0.4378 -0.318 0.0079, 0.4429 -0.3262 0.0079, 0.4498 -0.3331 0.0079, 0.458 -0.3382 0.0079, -0.4498 0.3331 0.0079, -0.458 0.3382 0.0079, -0.3331 0.4498 0.0079, -0.4671 0.3414 0.0079, -0.4768 0.3425 0.0079, -0.4498 -0.2575 0.0079, -0.458 -0.2523 0.0079, -0.4671 -0.2491 0.0079, -0.458 -0.1414 0.0079, -0.4429 -0.0675 0.0079, -0.2523 -0.458 0.0079, -0.2575 -0.4498 0.0079, -0.3425 -0.5906 0.0079, -0.3425 -0.4768 0.0079, -0.3414 -0.4671 0.0079, 0.4671 0.1446 0.0079, 0.458 0.1414 0.0079, 0.458 0.2523 0.0079, 0.4498 0.1362 0.0079, 0.4429 0.1294 0.0079, -0.0945 0.4335 0.0079, 0.1212 0.4378 0.0079, 0.1294 0.4429 0.0079, 0.1362 0.4498 0.0079, 0.1414 0.458 0.0079, 0.3382 0.458 0.0079, 0.3331 0.4498 0.0079, 0.3262 0.4429 0.0079, 0.3414 0.4671 0.0079, 0.3425 0.4768 0.0079, 0.3425 0.5906 0.0079, -0.5906 0.5906 0.0079, -0.3425 0.5906 0.0079, -0.3425 0.4768 0.0079, -0.4346 0.3088 0.0079, -0.4378 0.318 0.0079, -0.4429 0.3262 0.0079, -0.4346 -0.2817 0.0079, -0.4378 -0.2725 0.0079, -0.4429 -0.2643 0.0079, -0.4378 -0.1212 0.0079, -0.4346 -0.112 0.0079, -0.4335 -0.1024 0.0079, -0.5906 -0.0512 0.0079, -0.5906 0.0512 0.0079, -0.4768 -0.0512 0.0079, -0.4768 0.0512 0.0079, -0.4671 -0.0523 0.0079, -0.4671 0.0523 0.0079, -0.458 0.0555 0.0079, -0.4378 0.0757 0.0079, -0.4346 0.0849 0.0079, -0.4335 0.0945 0.0079, -0.4346 0.112 0.0079, -0.4378 0.1212 0.0079, 0.1414 -0.458 0.0079, 0.1362 -0.4498 0.0079, 0.2575 -0.4498 0.0079, 0.1294 -0.4429 0.0079, 0.112 -0.4346 0.0079, 0.1024 -0.4335 0.0079, 0.0945 -0.4335 0.0079, -0.0675 -0.4429 0.0079, 0.0675 -0.4429 0.0079, -0.0606 -0.4498 0.0079, 0.0606 -0.4498 0.0079, -0.0555 -0.458 0.0079, -0.2643 -0.4429 0.0079, -0.2725 -0.4378 0.0079, -0.2817 -0.4346 0.0079, -0.3262 -0.4429 0.0079, -0.3331 -0.4498 0.0079, -0.3382 -0.458 0.0079, 0.4768 0.248 0.0079, 0.5906 0.248 0.0079, 0.5906 0.1457 0.0079, 0.4335 -0.2913 0.0079, 0.4335 -0.2992 0.0079, 0.4346 -0.3088 0.0079, -0.2725 0.4378 0.0079, -0.2643 0.4429 0.0079, -0.2575 0.4498 0.0079, -0.2523 0.458 0.0079, 0.0945 0.4335 0.0079, 0.1024 0.4335 0.0079, 0.112 0.4346 0.0079, -0.4335 -0.0945 0.0079, -0.4346 -0.0849 0.0079, -0.4378 -0.0757 0.0079, -0.4335 0.1024 0.0079, -0.4429 0.1294 0.0079, -0.4498 0.1362 0.0079, 0.2643 -0.4429 0.0079, 0.1212 -0.4378 0.0079, 0.0849 -0.4346 0.0079, -0.0849 -0.4346 0.0079, -0.0945 -0.4335 0.0079, 0.0757 -0.4378 0.0079, -0.0757 -0.4378 0.0079, -0.1414 -0.458 0.0079, -0.2491 -0.4671 0.0079, -0.1362 -0.4498 0.0079, -0.1294 -0.4429 0.0079, 0.4335 0.2992 0.0079, 0.4335 0.2913 0.0079, 0.4346 0.2817 0.0079, 0.4429 -0.1294 0.0079, 0.4498 -0.1362 0.0079, 0.458 -0.1414 0.0079, 0.4671 0.2491 0.0079, 0.4768 0.1457 0.0079, 0.4429 -0.2643 0.0079, 0.4378 -0.2725 0.0079, 0.4346 -0.2817 0.0079, 0.1446 0.4671 0.0079, 0.2575 0.4498 0.0079, 0.2643 0.4429 0.0079, 0.2725 0.4378 0.0079, 0.2817 0.4346 0.0079, -0.4429 0.2643 0.0079, -0.4768 0.1457 0.0079, -0.5906 0.1457 0.0079, -0.5906 0.248 0.0079, -0.1024 -0.4335 0.0079, -0.112 -0.4346 0.0079, -0.1212 -0.4378 0.0079, 0.4671 0.0523 0.0079, 0.458 -0.0555 0.0079, 0.4498 -0.0606 0.0079, -0.1294 0.4429 0.0079, -0.1212 0.4378 0.0079, -0.112 0.4346 0.0079, -0.1024 0.4335 0.0079, -0.0606 0.4498 0.0079, -0.0555 0.458 0.0079, 0.0757 0.4378 0.0079, -0.0523 0.4671 0.0079, 0.0675 0.4429 0.0079, 0.0606 0.4498 0.0079, 0.0849 0.4346 0.0079, -0.0675 0.4429 0.0079, 0.2913 0.4335 0.0079, 0.2992 0.4335 0.0079, -0.3262 0.4429 0.0079, -0.5906 -0.248 0.0079, -0.5906 -0.1457 0.0079, -0.4768 -0.248 0.0079, -0.4768 -0.1457 0.0079, -0.4671 -0.1446 0.0079, -0.4671 0.1446 0.0079, -0.4768 0.248 0.0079, 0.4429 -0.0675 0.0079, 0.4378 -0.0757 0.0079, 0.458 0.0555 0.0079, 0.4346 -0.0849 0.0079, 0.4498 0.0606 0.0079, 0.4335 -0.0945 0.0079, 0.4429 0.0675 0.0079, 0.5906 -0.1457 0.0079, 0.5906 -0.248 0.0079, 0.4768 -0.1457 0.0079, 0.4768 -0.248 0.0079, 0.4671 -0.2491 0.0079, -0.0512 0.4768 0.0079, -0.0512 0.5906 0.0079, 0.0512 0.5906 0.0079, 0.248 -0.4768 0.0079, 0.248 -0.5906 0.0079, 0.1457 -0.5906 0.0079, -0.1457 -0.4768 0.0079, -0.1457 -0.5906 0.0079, -0.248 -0.5906 0.0079, -0.248 0.4768 0.0079, -0.248 0.5906 0.0079, -0.1457 0.5906 0.0079, 0.0512 0.4768 0.0079, 0.0523 0.4671 0.0079, 0.0555 0.458 0.0079, 0.1457 0.4768 0.0079, 0.1457 0.5906 0.0079, 0.248 0.5906 0.0079, 0.2523 -0.458 0.0079, 0.2491 -0.4671 0.0079, 0.1446 -0.4671 0.0079, 0.1457 -0.4768 0.0079, -0.1446 -0.4671 0.0079, -0.248 -0.4768 0.0079, 0.5906 0.0512 0.0079, 0.5906 -0.0512 0.0079, 0.4768 0.0512 0.0079, 0.4768 -0.0512 0.0079, 0.4671 -0.0523 0.0079, -0.1457 0.4768 0.0079, -0.1446 0.4671 0.0079, -0.2491 0.4671 0.0079, -0.1414 0.458 0.0079, -0.1362 0.4498 0.0079, 0.248 0.4768 0.0079, 0.2491 0.4671 0.0079, 0.2523 0.458 0.0079, 0.0512 -0.4768 0.0079, 0.0512 -0.5906 0.0079, -0.0512 -0.5906 0.0079, 0.0555 -0.458 0.0079, 0.0523 -0.4671 0.0079, -0.0523 -0.4671 0.0079, -0.0512 -0.4768 0.0079, 0.4378 0.1212 0.0079, 0.4346 0.112 0.0079, 0.4498 0.2575 0.0079, 0.4335 0.1024 0.0079, 0.4429 0.2643 0.0079, 0.4378 0.2725 0.0079, 0.4335 -0.1024 0.0079, 0.4346 -0.112 0.0079, 0.4378 -0.1212 0.0079, 0.4335 0.0945 0.0079, 0.4346 0.0849 0.0079, 0.4378 0.0757 0.0079, 0.5906 -0.5906 0.2953, 0.5906 -0.3425 0.0787, 0.5906 -0.248 0.0787, 0.5906 0.5906 0.2953, 0.5906 -0.0512 0.0787, 0.5906 0.0512 0.0787, 0.5906 0.1457 0.0787, 0.5906 -0.1457 0.0787, 0.5906 0.3425 0.0787, 0.5906 0.248 0.0787, 0.3425 0.5906 0.0787, 0.0512 0.5906 0.0787, 0.248 0.5906 0.0787, 0.1457 0.5906 0.0787, -0.0512 0.5906 0.0787, -0.1457 0.5906 0.0787, -0.5906 0.5906 0.2953, -0.3425 0.5906 0.0787, -0.248 0.5906 0.0787, -0.5906 0.3425 0.0787, -0.5906 0.248 0.0787, -0.5906 -0.5906 0.2953, -0.5906 0.0512 0.0787, -0.5906 -0.0512 0.0787, -0.5906 -0.1457 0.0787, -0.5906 0.1457 0.0787, -0.5906 -0.3425 0.0787, -0.5906 -0.248 0.0787, -0.3425 -0.5906 0.0787, -0.248 -0.5906 0.0787, -0.0512 -0.5906 0.0787, 0.0512 -0.5906 0.0787, 0.1457 -0.5906 0.0787, -0.1457 -0.5906 0.0787, 0.3425 -0.5906 0.0787, 0.248 -0.5906 0.0787, -0.4344 0.4623 0.2953, -0.4383 0.4528 0.2953, -0.4724 0.4331 0.2953, -0.4826 0.4344 0.2953, -0.4921 0.4383 0.2953, -0.5003 0.4446 0.2953, -0.5105 0.4826 0.2953, -0.5065 0.4921 0.2953, -0.4446 0.5003 0.2953, -0.4383 0.4921 0.2953, -0.4446 0.4446 0.2953, -0.4528 0.4383 0.2953, -0.4623 0.4344 0.2953, -0.4344 0.4826 0.2953, -0.4331 0.4724 0.2953, -0.5065 0.4528 0.2953, -0.5105 0.4623 0.2953, -0.5118 0.4724 0.2953, -0.5003 0.5003 0.2953, -0.4921 0.5065 0.2953, -0.4826 0.5105 0.2953, -0.4724 0.5118 0.2953, -0.4623 0.5105 0.2953, -0.4528 0.5065 0.2953
            ]
        }
        coordIndex [
            0,1,2,-1,3,4,5,-1,6,7,8,-1,9,10,11,-1,12,13,14,-1,15,16,17,-1,17,16,6,-1,17,6,18,-1,18,6,8,-1,19,20,16,-1,21,22,16,-1,23,24,25,-1,26,27,28,-1,28,29,26,-1,26,29,30,-1,26,30,11,-1,11,30,31,-1,11,31,9,-1,11,32,33,-1,11,2,34,-1,14,35,12,-1,12,35,36,-1,12,36,37,-1,37,36,38,-1,37,38,39,-1,39,40,37,-1,37,40,41,-1,37,41,42,-1,43,44,11,-1,11,44,45,-1,11,45,46,-1,47,48,49,-1,50,12,51,-1,51,12,52,-1,53,54,55,-1,55,54,56,-1,55,56,57,-1,57,56,58,-1,57,59,55,-1,55,59,60,-1,55,60,61,-1,61,60,62,-1,61,62,63,-1,10,64,11,-1,11,64,65,-1,11,65,66,-1,3,5,67,-1,42,68,37,-1,37,68,69,-1,37,69,70,-1,15,71,16,-1,16,71,72,-1,16,72,73,-1,74,75,37,-1,37,75,76,-1,37,76,12,-1,12,76,77,-1,12,77,52,-1,78,79,80,-1,80,79,81,-1,80,81,24,-1,24,81,82,-1,24,82,25,-1,83,84,32,-1,32,84,85,-1,32,85,86,-1,0,2,87,-1,37,88,89,-1,90,26,91,-1,91,26,92,-1,93,94,95,-1,95,94,96,-1,95,96,97,-1,19,16,98,-1,99,100,16,-1,16,100,101,-1,16,101,102,-1,103,6,104,-1,104,6,16,-1,104,16,105,-1,105,16,22,-1,103,106,6,-1,6,106,107,-1,6,107,108,-1,109,110,25,-1,25,110,111,-1,25,111,23,-1,58,112,57,-1,57,112,113,-1,57,113,114,-1,66,115,11,-1,11,115,116,-1,11,116,32,-1,32,116,117,-1,32,117,83,-1,33,118,11,-1,11,118,119,-1,11,119,120,-1,121,122,123,-1,123,122,124,-1,123,124,125,-1,125,124,126,-1,125,126,1,-1,1,126,127,-1,1,127,2,-1,34,128,11,-1,11,128,129,-1,11,129,130,-1,4,131,132,-1,133,134,135,-1,135,134,136,-1,70,137,37,-1,37,137,138,-1,37,138,139,-1,140,141,142,-1,142,141,143,-1,142,143,144,-1,89,145,37,-1,37,145,146,-1,37,146,11,-1,11,146,147,-1,11,147,43,-1,46,148,11,-1,11,148,149,-1,11,149,26,-1,26,149,150,-1,26,150,92,-1,151,152,153,-1,154,155,37,-1,37,155,156,-1,37,156,74,-1,63,157,61,-1,61,157,158,-1,61,158,16,-1,16,158,159,-1,16,159,160,-1,161,162,16,-1,16,162,163,-1,16,163,99,-1,120,164,11,-1,11,164,165,-1,11,165,2,-1,2,165,166,-1,2,166,87,-1,131,4,167,-1,132,168,4,-1,4,168,169,-1,4,169,5,-1,70,170,137,-1,137,170,135,-1,137,135,171,-1,171,135,136,-1,139,172,37,-1,37,172,173,-1,37,173,174,-1,172,175,173,-1,173,175,141,-1,173,141,176,-1,176,141,140,-1,177,178,179,-1,179,178,88,-1,179,88,180,-1,73,181,16,-1,16,181,182,-1,16,182,183,-1,184,185,48,-1,48,185,186,-1,48,186,49,-1,95,187,93,-1,93,187,151,-1,93,151,188,-1,188,151,153,-1,48,189,16,-1,16,189,190,-1,16,190,37,-1,37,190,191,-1,37,191,154,-1,192,193,102,-1,102,193,194,-1,102,194,16,-1,16,194,195,-1,16,195,196,-1,130,167,11,-1,11,167,4,-1,11,4,55,-1,55,4,197,-1,55,197,53,-1,198,199,200,-1,174,201,37,-1,37,201,202,-1,37,202,88,-1,88,202,203,-1,88,203,180,-1,204,205,206,-1,207,208,160,-1,160,208,209,-1,160,209,16,-1,16,209,210,-1,16,210,98,-1,211,212,213,-1,213,212,214,-1,213,214,215,-1,215,214,216,-1,161,16,217,-1,217,16,20,-1,217,20,213,-1,213,20,218,-1,213,218,211,-1,196,219,16,-1,16,219,220,-1,16,220,21,-1,78,80,114,-1,114,80,221,-1,114,221,57,-1,222,223,224,-1,224,223,225,-1,224,225,85,-1,85,225,226,-1,85,226,86,-1,5,227,67,-1,67,227,198,-1,67,198,228,-1,228,198,200,-1,206,229,204,-1,204,229,230,-1,204,230,231,-1,231,230,232,-1,231,232,233,-1,233,232,234,-1,233,234,235,-1,236,237,238,-1,238,237,239,-1,238,239,49,-1,49,239,240,-1,49,240,47,-1,241,242,243,-1,244,245,246,-1,247,248,249,-1,250,251,252,-1,243,253,241,-1,241,253,254,-1,241,254,214,-1,214,254,255,-1,214,255,216,-1,256,257,258,-1,135,259,133,-1,133,259,260,-1,133,260,261,-1,261,260,244,-1,261,244,262,-1,262,244,246,-1,177,263,178,-1,178,263,247,-1,178,247,264,-1,264,247,249,-1,265,266,267,-1,267,266,268,-1,267,268,204,-1,204,268,269,-1,204,269,205,-1,252,270,250,-1,250,270,271,-1,250,271,272,-1,272,271,273,-1,272,273,160,-1,160,273,274,-1,160,274,207,-1,258,275,256,-1,256,275,276,-1,256,276,192,-1,192,276,277,-1,192,277,193,-1,278,279,280,-1,143,281,144,-1,144,281,282,-1,144,282,283,-1,283,282,278,-1,283,278,284,-1,284,278,280,-1,97,285,95,-1,95,285,286,-1,95,286,287,-1,287,286,288,-1,287,288,289,-1,289,288,16,-1,289,16,290,-1,290,16,183,-1,234,291,16,-1,16,291,292,-1,16,292,48,-1,48,292,293,-1,48,293,184,-1,288,294,16,-1,16,294,295,-1,16,295,234,-1,234,295,296,-1,234,296,235,-1,297,12,50,-1,50,298,297,-1,297,298,299,-1,297,299,300,-1,301,266,265,-1,302,303,300,-1,265,302,301,-1,301,302,300,-1,301,300,304,-1,304,300,299,-1,304,299,236,-1,236,299,237,-1,7,6,305,-1,305,6,300,-1,305,300,306,-1,306,300,303,-1,306,303,152,-1,152,303,153,-1,6,108,300,-1,300,108,307,-1,308,243,242,-1,258,257,309,-1,309,257,310,-1,311,312,313,-1,242,311,308,-1,308,311,313,-1,308,313,310,-1,310,313,300,-1,310,300,309,-1,309,300,307,-1,110,109,314,-1,314,109,313,-1,314,313,315,-1,315,313,312,-1,315,312,251,-1,251,312,252,-1,313,109,25,-1,25,316,313,-1,313,316,317,-1,313,317,318,-1,319,122,121,-1,320,321,318,-1,121,320,319,-1,319,320,318,-1,319,318,322,-1,322,318,317,-1,322,317,199,-1,199,317,200,-1,27,26,323,-1,323,26,318,-1,323,318,324,-1,324,318,321,-1,324,321,222,-1,222,321,223,-1,318,26,90,-1,90,325,318,-1,318,325,326,-1,318,326,297,-1,327,280,279,-1,328,329,297,-1,279,328,327,-1,327,328,297,-1,327,297,330,-1,330,297,326,-1,330,326,248,-1,248,326,249,-1,13,12,331,-1,331,12,297,-1,331,297,332,-1,332,297,329,-1,332,329,245,-1,245,329,246,-1,300,333,297,-1,297,333,334,-1,335,336,318,-1,318,336,337,-1,318,337,338,-1,313,339,340,-1,300,341,342,-1,334,343,297,-1,297,343,344,-1,297,344,318,-1,318,344,345,-1,318,345,335,-1,342,346,300,-1,300,346,347,-1,300,347,333,-1,338,348,318,-1,318,348,349,-1,318,349,313,-1,313,349,350,-1,313,350,339,-1,340,351,313,-1,313,351,352,-1,313,352,353,-1,353,354,313,-1,313,354,355,-1,313,355,300,-1,300,355,356,-1,300,356,341,-1,
        ]
    }
}
Shape{
    appearance Appearance {
        material  Material 	{
            diffuseColor 0.6666666666666666 0.6666666666666666 0.6666666666666666
            specularColor 0.4666666666666667 0.4666666666666667 0.4666666666666667
            ambientIntensity 0.6667
            transparency 0.0
            shininess 0.5
        }
    }
    geometry IndexedFaceSet {
        ccw TRUE
        solid FALSE
        coord DEF co Coordinate {
            point [
                0.5906 0.248 0.0787, 0.5909 0.248 0.0787, 0.5906 0.3425 0.0787, 0.5909 0.3425 0.0787, 0.5906 0.3425 0.0079, 0.5909 0.3425 0.0, 0.4768 0.3425 0.0079, 0.4768 0.3425 0.0, 0.5906 0.248 0.0079, 0.4768 0.248 0.0079, 0.4768 0.248 0.0, 0.5909 0.248 0.0, 0.4671 0.3414 0.0, 0.4671 0.3414 0.0079, 0.458 0.3382 0.0, 0.458 0.3382 0.0079, 0.4498 0.3331 0.0, 0.4498 0.3331 0.0079, 0.4429 0.3262 0.0, 0.4429 0.3262 0.0079, 0.4378 0.318 0.0, 0.4378 0.318 0.0079, 0.4346 0.3088 0.0, 0.4346 0.3088 0.0079, 0.4335 0.2992 0.0, 0.4335 0.2992 0.0079, 0.4335 0.2913 0.0079, 0.4335 0.2913 0.0, 0.4346 0.2817 0.0, 0.4346 0.2817 0.0079, 0.4378 0.2725 0.0, 0.4378 0.2725 0.0079, 0.4429 0.2643 0.0, 0.4429 0.2643 0.0079, 0.4498 0.2575 0.0, 0.4498 0.2575 0.0079, 0.458 0.2523 0.0, 0.458 0.2523 0.0079, 0.4671 0.2491 0.0, 0.4671 0.2491 0.0079, 0.5906 0.0512 0.0787, 0.5909 0.0512 0.0787, 0.5906 0.1457 0.0787, 0.5909 0.1457 0.0787, 0.5906 0.1457 0.0079, 0.5909 0.1457 0.0, 0.4768 0.1457 0.0079, 0.4768 0.1457 0.0, 0.5906 0.0512 0.0079, 0.4768 0.0512 0.0079, 0.4768 0.0512 0.0, 0.5909 0.0512 0.0, 0.4671 0.1446 0.0, 0.4671 0.1446 0.0079, 0.458 0.1414 0.0, 0.458 0.1414 0.0079, 0.4498 0.1362 0.0, 0.4498 0.1362 0.0079, 0.4429 0.1294 0.0, 0.4429 0.1294 0.0079, 0.4378 0.1212 0.0, 0.4378 0.1212 0.0079, 0.4346 0.112 0.0, 0.4346 0.112 0.0079, 0.4335 0.1024 0.0, 0.4335 0.1024 0.0079, 0.4335 0.0945 0.0079, 0.4335 0.0945 0.0, 0.4346 0.0849 0.0, 0.4346 0.0849 0.0079, 0.4378 0.0757 0.0, 0.4378 0.0757 0.0079, 0.4429 0.0675 0.0, 0.4429 0.0675 0.0079, 0.4498 0.0606 0.0, 0.4498 0.0606 0.0079, 0.458 0.0555 0.0, 0.458 0.0555 0.0079, 0.4671 0.0523 0.0, 0.4671 0.0523 0.0079, 0.5906 -0.1457 0.0787, 0.5909 -0.1457 0.0787, 0.5906 -0.0512 0.0787, 0.5909 -0.0512 0.0787, 0.5906 -0.0512 0.0079, 0.5909 -0.0512 0.0, 0.4768 -0.0512 0.0079, 0.4768 -0.0512 0.0, 0.5906 -0.1457 0.0079, 0.4768 -0.1457 0.0079, 0.4768 -0.1457 0.0, 0.5909 -0.1457 0.0, 0.4671 -0.0523 0.0, 0.4671 -0.0523 0.0079, 0.458 -0.0555 0.0, 0.458 -0.0555 0.0079, 0.4498 -0.0606 0.0, 0.4498 -0.0606 0.0079, 0.4429 -0.0675 0.0, 0.4429 -0.0675 0.0079, 0.4378 -0.0757 0.0, 0.4378 -0.0757 0.0079, 0.4346 -0.0849 0.0, 0.4346 -0.0849 0.0079, 0.4335 -0.0945 0.0, 0.4335 -0.0945 0.0079, 0.4335 -0.1024 0.0079, 0.4335 -0.1024 0.0, 0.4346 -0.112 0.0, 0.4346 -0.112 0.0079, 0.4378 -0.1212 0.0, 0.4378 -0.1212 0.0079, 0.4429 -0.1294 0.0, 0.4429 -0.1294 0.0079, 0.4498 -0.1362 0.0, 0.4498 -0.1362 0.0079, 0.458 -0.1414 0.0, 0.458 -0.1414 0.0079, 0.4671 -0.1446 0.0, 0.4671 -0.1446 0.0079, 0.5906 -0.3425 0.0787, 0.5909 -0.3425 0.0787, 0.5906 -0.248 0.0787, 0.5909 -0.248 0.0787, 0.5906 -0.248 0.0079, 0.5909 -0.248 0.0, 0.4768 -0.248 0.0079, 0.4768 -0.248 0.0, 0.5906 -0.3425 0.0079, 0.4768 -0.3425 0.0079, 0.4768 -0.3425 0.0, 0.5909 -0.3425 0.0, 0.4671 -0.2491 0.0, 0.4671 -0.2491 0.0079, 0.458 -0.2523 0.0, 0.458 -0.2523 0.0079, 0.4498 -0.2575 0.0, 0.4498 -0.2575 0.0079, 0.4429 -0.2643 0.0, 0.4429 -0.2643 0.0079, 0.4378 -0.2725 0.0, 0.4378 -0.2725 0.0079, 0.4346 -0.2817 0.0, 0.4346 -0.2817 0.0079, 0.4335 -0.2913 0.0, 0.4335 -0.2913 0.0079, 0.4335 -0.2992 0.0079, 0.4335 -0.2992 0.0, 0.4346 -0.3088 0.0, 0.4346 -0.3088 0.0079, 0.4378 -0.318 0.0, 0.4378 -0.318 0.0079, 0.4429 -0.3262 0.0, 0.4429 -0.3262 0.0079, 0.4498 -0.3331 0.0, 0.4498 -0.3331 0.0079, 0.458 -0.3382 0.0, 0.458 -0.3382 0.0079, 0.4671 -0.3414 0.0, 0.4671 -0.3414 0.0079, 0.248 -0.5906 0.0787, 0.248 -0.5909 0.0787, 0.3425 -0.5906 0.0787, 0.3425 -0.5909 0.0787, 0.3425 -0.5906 0.0079, 0.3425 -0.5909 0.0, 0.3425 -0.4768 0.0079, 0.3425 -0.4768 0.0, 0.248 -0.5906 0.0079, 0.248 -0.4768 0.0079, 0.248 -0.4768 0.0, 0.248 -0.5909 0.0, 0.3414 -0.4671 0.0, 0.3414 -0.4671 0.0079, 0.3382 -0.458 0.0, 0.3382 -0.458 0.0079, 0.3331 -0.4498 0.0, 0.3331 -0.4498 0.0079, 0.3262 -0.4429 0.0, 0.3262 -0.4429 0.0079, 0.318 -0.4378 0.0, 0.318 -0.4378 0.0079, 0.3088 -0.4346 0.0, 0.3088 -0.4346 0.0079, 0.2992 -0.4335 0.0, 0.2992 -0.4335 0.0079, 0.2913 -0.4335 0.0079, 0.2913 -0.4335 0.0, 0.2817 -0.4346 0.0, 0.2817 -0.4346 0.0079, 0.2725 -0.4378 0.0, 0.2725 -0.4378 0.0079, 0.2643 -0.4429 0.0, 0.2643 -0.4429 0.0079, 0.2575 -0.4498 0.0, 0.2575 -0.4498 0.0079, 0.2523 -0.458 0.0, 0.2523 -0.458 0.0079, 0.2491 -0.4671 0.0, 0.2491 -0.4671 0.0079, 0.0512 -0.5906 0.0787, 0.0512 -0.5909 0.0787, 0.1457 -0.5906 0.0787, 0.1457 -0.5909 0.0787, 0.1457 -0.5906 0.0079, 0.1457 -0.5909 0.0, 0.1457 -0.4768 0.0079, 0.1457 -0.4768 0.0, 0.0512 -0.5906 0.0079, 0.0512 -0.4768 0.0079, 0.0512 -0.4768 0.0, 0.0512 -0.5909 0.0, 0.1446 -0.4671 0.0, 0.1446 -0.4671 0.0079, 0.1414 -0.458 0.0, 0.1414 -0.458 0.0079, 0.1362 -0.4498 0.0, 0.1362 -0.4498 0.0079, 0.1294 -0.4429 0.0, 0.1294 -0.4429 0.0079, 0.1212 -0.4378 0.0, 0.1212 -0.4378 0.0079, 0.112 -0.4346 0.0, 0.112 -0.4346 0.0079, 0.1024 -0.4335 0.0, 0.1024 -0.4335 0.0079, 0.0945 -0.4335 0.0079, 0.0945 -0.4335 0.0, 0.0849 -0.4346 0.0, 0.0849 -0.4346 0.0079, 0.0757 -0.4378 0.0, 0.0757 -0.4378 0.0079, 0.0675 -0.4429 0.0, 0.0675 -0.4429 0.0079, 0.0606 -0.4498 0.0, 0.0606 -0.4498 0.0079, 0.0555 -0.458 0.0, 0.0555 -0.458 0.0079, 0.0523 -0.4671 0.0, 0.0523 -0.4671 0.0079, -0.1457 -0.5906 0.0787, -0.1457 -0.5909 0.0787, -0.0512 -0.5906 0.0787, -0.0512 -0.5909 0.0787, -0.0512 -0.5906 0.0079, -0.0512 -0.5909 0.0, -0.0512 -0.4768 0.0079, -0.0512 -0.4768 0.0, -0.1457 -0.5906 0.0079, -0.1457 -0.4768 0.0079, -0.1457 -0.4768 0.0, -0.1457 -0.5909 0.0, -0.0523 -0.4671 0.0, -0.0523 -0.4671 0.0079, -0.0555 -0.458 0.0, -0.0555 -0.458 0.0079, -0.0606 -0.4498 0.0, -0.0606 -0.4498 0.0079, -0.0675 -0.4429 0.0, -0.0675 -0.4429 0.0079, -0.0757 -0.4378 0.0, -0.0757 -0.4378 0.0079, -0.0849 -0.4346 0.0, -0.0849 -0.4346 0.0079, -0.0945 -0.4335 0.0, -0.0945 -0.4335 0.0079, -0.1024 -0.4335 0.0079, -0.1024 -0.4335 0.0, -0.112 -0.4346 0.0, -0.112 -0.4346 0.0079, -0.1212 -0.4378 0.0, -0.1212 -0.4378 0.0079, -0.1294 -0.4429 0.0, -0.1294 -0.4429 0.0079, -0.1362 -0.4498 0.0, -0.1362 -0.4498 0.0079, -0.1414 -0.458 0.0, -0.1414 -0.458 0.0079, -0.1446 -0.4671 0.0, -0.1446 -0.4671 0.0079, -0.3425 -0.5906 0.0787, -0.3425 -0.5909 0.0787, -0.248 -0.5906 0.0787, -0.248 -0.5909 0.0787, -0.248 -0.5906 0.0079, -0.248 -0.5909 0.0, -0.248 -0.4768 0.0079, -0.248 -0.4768 0.0, -0.3425 -0.5906 0.0079, -0.3425 -0.4768 0.0079, -0.3425 -0.4768 0.0, -0.3425 -0.5909 0.0, -0.2491 -0.4671 0.0, -0.2491 -0.4671 0.0079, -0.2523 -0.458 0.0, -0.2523 -0.458 0.0079, -0.2575 -0.4498 0.0, -0.2575 -0.4498 0.0079, -0.2643 -0.4429 0.0, -0.2643 -0.4429 0.0079, -0.2725 -0.4378 0.0, -0.2725 -0.4378 0.0079, -0.2817 -0.4346 0.0, -0.2817 -0.4346 0.0079, -0.2913 -0.4335 0.0, -0.2913 -0.4335 0.0079, -0.2992 -0.4335 0.0079, -0.2992 -0.4335 0.0, -0.3088 -0.4346 0.0, -0.3088 -0.4346 0.0079, -0.318 -0.4378 0.0, -0.318 -0.4378 0.0079, -0.3262 -0.4429 0.0, -0.3262 -0.4429 0.0079, -0.3331 -0.4498 0.0, -0.3331 -0.4498 0.0079, -0.3382 -0.458 0.0, -0.3382 -0.458 0.0079, -0.3414 -0.4671 0.0, -0.3414 -0.4671 0.0079, -0.5906 -0.248 0.0787, -0.5909 -0.248 0.0787, -0.5906 -0.3425 0.0787, -0.5909 -0.3425 0.0787, -0.5906 -0.3425 0.0079, -0.5909 -0.3425 0.0, -0.4768 -0.3425 0.0079, -0.4768 -0.3425 0.0, -0.5906 -0.248 0.0079, -0.4768 -0.248 0.0079, -0.4768 -0.248 0.0, -0.5909 -0.248 0.0, -0.4671 -0.3414 0.0, -0.4671 -0.3414 0.0079, -0.458 -0.3382 0.0, -0.458 -0.3382 0.0079, -0.4498 -0.3331 0.0, -0.4498 -0.3331 0.0079, -0.4429 -0.3262 0.0, -0.4429 -0.3262 0.0079, -0.4378 -0.318 0.0, -0.4378 -0.318 0.0079, -0.4346 -0.3088 0.0, -0.4346 -0.3088 0.0079, -0.4335 -0.2992 0.0, -0.4335 -0.2992 0.0079, -0.4335 -0.2913 0.0079, -0.4335 -0.2913 0.0, -0.4346 -0.2817 0.0, -0.4346 -0.2817 0.0079, -0.4378 -0.2725 0.0, -0.4378 -0.2725 0.0079, -0.4429 -0.2643 0.0, -0.4429 -0.2643 0.0079, -0.4498 -0.2575 0.0, -0.4498 -0.2575 0.0079, -0.458 -0.2523 0.0, -0.458 -0.2523 0.0079, -0.4671 -0.2491 0.0, -0.4671 -0.2491 0.0079, -0.5906 -0.0512 0.0787, -0.5909 -0.0512 0.0787, -0.5906 -0.1457 0.0787, -0.5909 -0.1457 0.0787, -0.5906 -0.1457 0.0079, -0.5909 -0.1457 0.0, -0.4768 -0.1457 0.0079, -0.4768 -0.1457 0.0, -0.5906 -0.0512 0.0079, -0.4768 -0.0512 0.0079, -0.4768 -0.0512 0.0, -0.5909 -0.0512 0.0, -0.4671 -0.1446 0.0, -0.4671 -0.1446 0.0079, -0.458 -0.1414 0.0, -0.458 -0.1414 0.0079, -0.4498 -0.1362 0.0, -0.4498 -0.1362 0.0079, -0.4429 -0.1294 0.0, -0.4429 -0.1294 0.0079, -0.4378 -0.1212 0.0, -0.4378 -0.1212 0.0079, -0.4346 -0.112 0.0, -0.4346 -0.112 0.0079, -0.4335 -0.1024 0.0, -0.4335 -0.1024 0.0079, -0.4335 -0.0945 0.0079, -0.4335 -0.0945 0.0, -0.4346 -0.0849 0.0, -0.4346 -0.0849 0.0079, -0.4378 -0.0757 0.0, -0.4378 -0.0757 0.0079, -0.4429 -0.0675 0.0, -0.4429 -0.0675 0.0079, -0.4498 -0.0606 0.0, -0.4498 -0.0606 0.0079, -0.458 -0.0555 0.0, -0.458 -0.0555 0.0079, -0.4671 -0.0523 0.0, -0.4671 -0.0523 0.0079, -0.5906 0.1457 0.0787, -0.5909 0.1457 0.0787, -0.5906 0.0512 0.0787, -0.5909 0.0512 0.0787, -0.5906 0.0512 0.0079, -0.5909 0.0512 0.0, -0.4768 0.0512 0.0079, -0.4768 0.0512 0.0, -0.5906 0.1457 0.0079, -0.4768 0.1457 0.0079, -0.4768 0.1457 0.0, -0.5909 0.1457 0.0, -0.4671 0.0523 0.0, -0.4671 0.0523 0.0079, -0.458 0.0555 0.0, -0.458 0.0555 0.0079, -0.4498 0.0606 0.0, -0.4498 0.0606 0.0079, -0.4429 0.0675 0.0, -0.4429 0.0675 0.0079, -0.4378 0.0757 0.0, -0.4378 0.0757 0.0079, -0.4346 0.0849 0.0, -0.4346 0.0849 0.0079, -0.4335 0.0945 0.0, -0.4335 0.0945 0.0079, -0.4335 0.1024 0.0079, -0.4335 0.1024 0.0, -0.4346 0.112 0.0, -0.4346 0.112 0.0079, -0.4378 0.1212 0.0, -0.4378 0.1212 0.0079, -0.4429 0.1294 0.0, -0.4429 0.1294 0.0079, -0.4498 0.1362 0.0, -0.4498 0.1362 0.0079, -0.458 0.1414 0.0, -0.458 0.1414 0.0079, -0.4671 0.1446 0.0, -0.4671 0.1446 0.0079, -0.5906 0.3425 0.0787, -0.5909 0.3425 0.0787, -0.5906 0.248 0.0787, -0.5909 0.248 0.0787, -0.5906 0.248 0.0079, -0.5909 0.248 0.0, -0.4768 0.248 0.0079, -0.4768 0.248 0.0, -0.5906 0.3425 0.0079, -0.4768 0.3425 0.0079, -0.4768 0.3425 0.0, -0.5909 0.3425 0.0, -0.4671 0.2491 0.0, -0.4671 0.2491 0.0079, -0.458 0.2523 0.0, -0.458 0.2523 0.0079, -0.4498 0.2575 0.0, -0.4498 0.2575 0.0079, -0.4429 0.2643 0.0, -0.4429 0.2643 0.0079, -0.4378 0.2725 0.0, -0.4378 0.2725 0.0079, -0.4346 0.2817 0.0, -0.4346 0.2817 0.0079, -0.4335 0.2913 0.0, -0.4335 0.2913 0.0079, -0.4335 0.2992 0.0079, -0.4335 0.2992 0.0, -0.4346 0.3088 0.0, -0.4346 0.3088 0.0079, -0.4378 0.318 0.0, -0.4378 0.318 0.0079, -0.4429 0.3262 0.0, -0.4429 0.3262 0.0079, -0.4498 0.3331 0.0, -0.4498 0.3331 0.0079, -0.458 0.3382 0.0, -0.458 0.3382 0.0079, -0.4671 0.3414 0.0, -0.4671 0.3414 0.0079, -0.248 0.5906 0.0787, -0.248 0.5909 0.0787, -0.3425 0.5906 0.0787, -0.3425 0.5909 0.0787, -0.3425 0.5906 0.0079, -0.3425 0.5909 0.0, -0.3425 0.4768 0.0079, -0.3425 0.4768 0.0, -0.248 0.5906 0.0079, -0.248 0.4768 0.0079, -0.248 0.4768 0.0, -0.248 0.5909 0.0, -0.3414 0.4671 0.0, -0.3414 0.4671 0.0079, -0.3382 0.458 0.0, -0.3382 0.458 0.0079, -0.3331 0.4498 0.0, -0.3331 0.4498 0.0079, -0.3262 0.4429 0.0, -0.3262 0.4429 0.0079, -0.318 0.4378 0.0, -0.318 0.4378 0.0079, -0.3088 0.4346 0.0, -0.3088 0.4346 0.0079, -0.2992 0.4335 0.0, -0.2992 0.4335 0.0079, -0.2913 0.4335 0.0079, -0.2913 0.4335 0.0, -0.2817 0.4346 0.0, -0.2817 0.4346 0.0079, -0.2725 0.4378 0.0, -0.2725 0.4378 0.0079, -0.2643 0.4429 0.0, -0.2643 0.4429 0.0079, -0.2575 0.4498 0.0, -0.2575 0.4498 0.0079, -0.2523 0.458 0.0, -0.2523 0.458 0.0079, -0.2491 0.4671 0.0, -0.2491 0.4671 0.0079, -0.0512 0.5906 0.0787, -0.0512 0.5909 0.0787, -0.1457 0.5906 0.0787, -0.1457 0.5909 0.0787, -0.1457 0.5906 0.0079, -0.1457 0.5909 0.0, -0.1457 0.4768 0.0079, -0.1457 0.4768 0.0, -0.0512 0.5906 0.0079, -0.0512 0.4768 0.0079, -0.0512 0.4768 0.0, -0.0512 0.5909 0.0, -0.1446 0.4671 0.0, -0.1446 0.4671 0.0079, -0.1414 0.458 0.0, -0.1414 0.458 0.0079, -0.1362 0.4498 0.0, -0.1362 0.4498 0.0079, -0.1294 0.4429 0.0, -0.1294 0.4429 0.0079, -0.1212 0.4378 0.0, -0.1212 0.4378 0.0079, -0.112 0.4346 0.0, -0.112 0.4346 0.0079, -0.1024 0.4335 0.0, -0.1024 0.4335 0.0079, -0.0945 0.4335 0.0079, -0.0945 0.4335 0.0, -0.0849 0.4346 0.0, -0.0849 0.4346 0.0079, -0.0757 0.4378 0.0, -0.0757 0.4378 0.0079, -0.0675 0.4429 0.0, -0.0675 0.4429 0.0079, -0.0606 0.4498 0.0, -0.0606 0.4498 0.0079, -0.0555 0.458 0.0, -0.0555 0.458 0.0079, -0.0523 0.4671 0.0, -0.0523 0.4671 0.0079, 0.1457 0.5906 0.0787, 0.1457 0.5909 0.0787, 0.0512 0.5906 0.0787, 0.0512 0.5909 0.0787, 0.0512 0.5906 0.0079, 0.0512 0.5909 0.0, 0.0512 0.4768 0.0079, 0.0512 0.4768 0.0, 0.1457 0.5906 0.0079, 0.1457 0.4768 0.0079, 0.1457 0.4768 0.0, 0.1457 0.5909 0.0, 0.0523 0.4671 0.0, 0.0523 0.4671 0.0079, 0.0555 0.458 0.0, 0.0555 0.458 0.0079, 0.0606 0.4498 0.0, 0.0606 0.4498 0.0079, 0.0675 0.4429 0.0, 0.0675 0.4429 0.0079, 0.0757 0.4378 0.0, 0.0757 0.4378 0.0079, 0.0849 0.4346 0.0, 0.0849 0.4346 0.0079, 0.0945 0.4335 0.0, 0.0945 0.4335 0.0079, 0.1024 0.4335 0.0079, 0.1024 0.4335 0.0, 0.112 0.4346 0.0, 0.112 0.4346 0.0079, 0.1212 0.4378 0.0, 0.1212 0.4378 0.0079, 0.1294 0.4429 0.0, 0.1294 0.4429 0.0079, 0.1362 0.4498 0.0, 0.1362 0.4498 0.0079, 0.1414 0.458 0.0, 0.1414 0.458 0.0079, 0.1446 0.4671 0.0, 0.1446 0.4671 0.0079, 0.3425 0.5906 0.0787, 0.3425 0.5909 0.0787, 0.248 0.5906 0.0787, 0.248 0.5909 0.0787, 0.248 0.5906 0.0079, 0.248 0.5909 0.0, 0.248 0.4768 0.0079, 0.248 0.4768 0.0, 0.3425 0.5906 0.0079, 0.3425 0.4768 0.0079, 0.3425 0.4768 0.0, 0.3425 0.5909 0.0, 0.2491 0.4671 0.0, 0.2491 0.4671 0.0079, 0.2523 0.458 0.0, 0.2523 0.458 0.0079, 0.2575 0.4498 0.0, 0.2575 0.4498 0.0079, 0.2643 0.4429 0.0, 0.2643 0.4429 0.0079, 0.2725 0.4378 0.0, 0.2725 0.4378 0.0079, 0.2817 0.4346 0.0, 0.2817 0.4346 0.0079, 0.2913 0.4335 0.0, 0.2913 0.4335 0.0079, 0.2992 0.4335 0.0079, 0.2992 0.4335 0.0, 0.3088 0.4346 0.0, 0.3088 0.4346 0.0079, 0.318 0.4378 0.0, 0.318 0.4378 0.0079, 0.3262 0.4429 0.0, 0.3262 0.4429 0.0079, 0.3331 0.4498 0.0, 0.3331 0.4498 0.0079, 0.3382 0.458 0.0, 0.3382 0.458 0.0079, 0.3414 0.4671 0.0, 0.3414 0.4671 0.0079, 0.3307 -0.3307 0.0, 0.3307 0.3307 0.0, 0.3307 -0.3307 0.0079, 0.3307 0.3307 0.0079, -0.3307 -0.3307 0.0, -0.3307 -0.3307 0.0079, -0.3307 0.252 0.0, -0.3307 0.252 0.0079, -0.252 0.3307 0.0, -0.252 0.3307 0.0079
            ]
        }
        coordIndex [
            0,1,2,-1,2,1,3,-1,2,3,4,-1,4,3,5,-1,4,5,6,-1,6,5,7,-1,1,0,8,-1,9,10,8,-1,8,10,11,-1,8,11,1,-1,3,1,5,-1,5,1,11,-1,6,7,12,-1,6,12,13,-1,13,12,14,-1,13,14,15,-1,15,14,16,-1,15,16,17,-1,17,16,18,-1,17,18,19,-1,19,18,20,-1,19,20,21,-1,21,20,22,-1,21,22,23,-1,23,22,24,-1,23,24,25,-1,25,24,26,-1,26,24,27,-1,26,27,28,-1,26,28,29,-1,29,28,30,-1,29,30,31,-1,31,30,32,-1,31,32,33,-1,33,32,34,-1,33,34,35,-1,35,34,36,-1,35,36,37,-1,37,36,38,-1,37,38,39,-1,39,38,10,-1,39,10,9,-1,11,10,5,-1,5,10,38,-1,5,27,7,-1,7,27,24,-1,7,24,22,-1,32,30,5,-1,5,30,28,-1,5,28,27,-1,38,36,5,-1,5,36,34,-1,5,34,32,-1,18,16,14,-1,22,20,7,-1,7,20,18,-1,7,18,12,-1,12,18,14,-1,40,41,42,-1,42,41,43,-1,42,43,44,-1,44,43,45,-1,44,45,46,-1,46,45,47,-1,41,40,48,-1,49,50,48,-1,48,50,51,-1,48,51,41,-1,43,41,45,-1,45,41,51,-1,46,47,52,-1,46,52,53,-1,53,52,54,-1,53,54,55,-1,55,54,56,-1,55,56,57,-1,57,56,58,-1,57,58,59,-1,59,58,60,-1,59,60,61,-1,61,60,62,-1,61,62,63,-1,63,62,64,-1,63,64,65,-1,65,64,66,-1,66,64,67,-1,66,67,68,-1,66,68,69,-1,69,68,70,-1,69,70,71,-1,71,70,72,-1,71,72,73,-1,73,72,74,-1,73,74,75,-1,75,74,76,-1,75,76,77,-1,77,76,78,-1,77,78,79,-1,79,78,50,-1,79,50,49,-1,47,72,70,-1,47,64,62,-1,45,51,47,-1,47,51,50,-1,47,50,78,-1,70,68,47,-1,47,68,67,-1,47,67,64,-1,78,76,47,-1,47,76,74,-1,47,74,72,-1,62,60,47,-1,47,60,58,-1,47,58,52,-1,52,58,56,-1,52,56,54,-1,80,81,82,-1,82,81,83,-1,82,83,84,-1,84,83,85,-1,84,85,86,-1,86,85,87,-1,81,80,88,-1,89,90,88,-1,88,90,91,-1,88,91,81,-1,83,81,85,-1,85,81,91,-1,86,87,92,-1,86,92,93,-1,93,92,94,-1,93,94,95,-1,95,94,96,-1,95,96,97,-1,97,96,98,-1,97,98,99,-1,99,98,100,-1,99,100,101,-1,101,100,102,-1,101,102,103,-1,103,102,104,-1,103,104,105,-1,105,104,106,-1,106,104,107,-1,106,107,108,-1,106,108,109,-1,109,108,110,-1,109,110,111,-1,111,110,112,-1,111,112,113,-1,113,112,114,-1,113,114,115,-1,115,114,116,-1,115,116,117,-1,117,116,118,-1,117,118,119,-1,119,118,90,-1,119,90,89,-1,85,91,87,-1,87,91,90,-1,87,90,118,-1,87,112,110,-1,87,104,102,-1,110,108,87,-1,87,108,107,-1,87,107,104,-1,118,116,87,-1,87,116,114,-1,87,114,112,-1,102,100,87,-1,87,100,98,-1,87,98,92,-1,92,98,96,-1,92,96,94,-1,120,121,122,-1,122,121,123,-1,122,123,124,-1,124,123,125,-1,124,125,126,-1,126,125,127,-1,121,120,128,-1,129,130,128,-1,128,130,131,-1,128,131,121,-1,123,121,125,-1,125,121,131,-1,126,127,132,-1,126,132,133,-1,133,132,134,-1,133,134,135,-1,135,134,136,-1,135,136,137,-1,137,136,138,-1,137,138,139,-1,139,138,140,-1,139,140,141,-1,141,140,142,-1,141,142,143,-1,143,142,144,-1,143,144,145,-1,145,144,146,-1,146,144,147,-1,146,147,148,-1,146,148,149,-1,149,148,150,-1,149,150,151,-1,151,150,152,-1,151,152,153,-1,153,152,154,-1,153,154,155,-1,155,154,156,-1,155,156,157,-1,157,156,158,-1,157,158,159,-1,159,158,130,-1,159,130,129,-1,131,130,125,-1,125,130,158,-1,125,147,127,-1,127,147,144,-1,127,144,142,-1,152,150,125,-1,125,150,148,-1,125,148,147,-1,158,156,125,-1,125,156,154,-1,125,154,152,-1,138,136,134,-1,142,140,127,-1,127,140,138,-1,127,138,132,-1,132,138,134,-1,160,161,162,-1,162,161,163,-1,162,163,164,-1,164,163,165,-1,164,165,166,-1,166,165,167,-1,161,160,168,-1,169,170,168,-1,168,170,171,-1,168,171,161,-1,163,161,165,-1,165,161,171,-1,166,167,172,-1,166,172,173,-1,173,172,174,-1,173,174,175,-1,175,174,176,-1,175,176,177,-1,177,176,178,-1,177,178,179,-1,179,178,180,-1,179,180,181,-1,181,180,182,-1,181,182,183,-1,183,182,184,-1,183,184,185,-1,185,184,186,-1,186,184,187,-1,186,187,188,-1,186,188,189,-1,189,188,190,-1,189,190,191,-1,191,190,192,-1,191,192,193,-1,193,192,194,-1,193,194,195,-1,195,194,196,-1,195,196,197,-1,197,196,198,-1,197,198,199,-1,199,198,170,-1,199,170,169,-1,171,170,165,-1,165,170,198,-1,165,198,196,-1,182,180,167,-1,190,188,165,-1,165,188,187,-1,165,187,167,-1,167,187,184,-1,167,184,182,-1,196,194,165,-1,165,194,192,-1,165,192,190,-1,180,178,167,-1,167,178,176,-1,167,176,172,-1,172,176,174,-1,200,201,202,-1,202,201,203,-1,202,203,204,-1,204,203,205,-1,204,205,206,-1,206,205,207,-1,201,200,208,-1,209,210,208,-1,208,210,211,-1,208,211,201,-1,203,201,205,-1,205,201,211,-1,206,207,212,-1,206,212,213,-1,213,212,214,-1,213,214,215,-1,215,214,216,-1,215,216,217,-1,217,216,218,-1,217,218,219,-1,219,218,220,-1,219,220,221,-1,221,220,222,-1,221,222,223,-1,223,222,224,-1,223,224,225,-1,225,224,226,-1,226,224,227,-1,226,227,228,-1,226,228,229,-1,229,228,230,-1,229,230,231,-1,231,230,232,-1,231,232,233,-1,233,232,234,-1,233,234,235,-1,235,234,236,-1,235,236,237,-1,237,236,238,-1,237,238,239,-1,239,238,210,-1,239,210,209,-1,207,205,211,-1,230,228,207,-1,207,228,227,-1,207,227,224,-1,211,210,207,-1,207,210,238,-1,207,238,236,-1,224,222,207,-1,207,222,220,-1,207,220,218,-1,218,216,207,-1,207,216,214,-1,207,214,212,-1,236,234,207,-1,207,234,232,-1,207,232,230,-1,240,241,242,-1,242,241,243,-1,242,243,244,-1,244,243,245,-1,244,245,246,-1,246,245,247,-1,241,240,248,-1,249,250,248,-1,248,250,251,-1,248,251,241,-1,243,241,245,-1,245,241,251,-1,246,247,252,-1,246,252,253,-1,253,252,254,-1,253,254,255,-1,255,254,256,-1,255,256,257,-1,257,256,258,-1,257,258,259,-1,259,258,260,-1,259,260,261,-1,261,260,262,-1,261,262,263,-1,263,262,264,-1,263,264,265,-1,265,264,266,-1,266,264,267,-1,266,267,268,-1,266,268,269,-1,269,268,270,-1,269,270,271,-1,271,270,272,-1,271,272,273,-1,273,272,274,-1,273,274,275,-1,275,274,276,-1,275,276,277,-1,277,276,278,-1,277,278,279,-1,279,278,250,-1,279,250,249,-1,247,245,264,-1,264,245,267,-1,251,250,245,-1,245,250,278,-1,278,276,245,-1,245,276,274,-1,245,274,272,-1,272,270,245,-1,245,270,268,-1,245,268,267,-1,264,262,247,-1,247,262,260,-1,247,260,252,-1,252,260,258,-1,252,258,254,-1,254,258,256,-1,280,281,282,-1,282,281,283,-1,282,283,284,-1,284,283,285,-1,284,285,286,-1,286,285,287,-1,281,280,288,-1,289,290,288,-1,288,290,291,-1,288,291,281,-1,283,281,285,-1,285,281,291,-1,286,287,292,-1,286,292,293,-1,293,292,294,-1,293,294,295,-1,295,294,296,-1,295,296,297,-1,297,296,298,-1,297,298,299,-1,299,298,300,-1,299,300,301,-1,301,300,302,-1,301,302,303,-1,303,302,304,-1,303,304,305,-1,305,304,306,-1,306,304,307,-1,306,307,308,-1,306,308,309,-1,309,308,310,-1,309,310,311,-1,311,310,312,-1,311,312,313,-1,313,312,314,-1,313,314,315,-1,315,314,316,-1,315,316,317,-1,317,316,318,-1,317,318,319,-1,319,318,290,-1,319,290,289,-1,291,290,285,-1,285,290,318,-1,285,318,316,-1,302,300,287,-1,310,308,285,-1,285,308,307,-1,285,307,287,-1,287,307,304,-1,287,304,302,-1,316,314,285,-1,285,314,312,-1,285,312,310,-1,300,298,287,-1,287,298,296,-1,287,296,292,-1,292,296,294,-1,320,321,322,-1,322,321,323,-1,322,323,324,-1,324,323,325,-1,324,325,326,-1,326,325,327,-1,321,320,328,-1,329,330,328,-1,328,330,331,-1,328,331,321,-1,323,321,325,-1,325,321,331,-1,326,327,332,-1,326,332,333,-1,333,332,334,-1,333,334,335,-1,335,334,336,-1,335,336,337,-1,337,336,338,-1,337,338,339,-1,339,338,340,-1,339,340,341,-1,341,340,342,-1,341,342,343,-1,343,342,344,-1,343,344,345,-1,345,344,346,-1,346,344,347,-1,346,347,348,-1,346,348,349,-1,349,348,350,-1,349,350,351,-1,351,350,352,-1,351,352,353,-1,353,352,354,-1,353,354,355,-1,355,354,356,-1,355,356,357,-1,357,356,358,-1,357,358,359,-1,359,358,330,-1,359,330,329,-1,327,325,331,-1,331,330,327,-1,327,330,358,-1,327,358,356,-1,356,354,327,-1,327,354,352,-1,327,352,350,-1,350,348,327,-1,327,348,347,-1,327,347,344,-1,344,342,327,-1,327,342,340,-1,327,340,338,-1,336,334,338,-1,338,334,332,-1,338,332,327,-1,360,361,362,-1,362,361,363,-1,362,363,364,-1,364,363,365,-1,364,365,366,-1,366,365,367,-1,361,360,368,-1,369,370,368,-1,368,370,371,-1,368,371,361,-1,363,361,365,-1,365,361,371,-1,366,367,372,-1,366,372,373,-1,373,372,374,-1,373,374,375,-1,375,374,376,-1,375,376,377,-1,377,376,378,-1,377,378,379,-1,379,378,380,-1,379,380,381,-1,381,380,382,-1,381,382,383,-1,383,382,384,-1,383,384,385,-1,385,384,386,-1,386,384,387,-1,386,387,388,-1,386,388,389,-1,389,388,390,-1,389,390,391,-1,391,390,392,-1,391,392,393,-1,393,392,394,-1,393,394,395,-1,395,394,396,-1,395,396,397,-1,397,396,398,-1,397,398,399,-1,399,398,370,-1,399,370,369,-1,371,370,365,-1,365,370,398,-1,365,392,390,-1,365,384,367,-1,367,384,382,-1,378,376,374,-1,398,396,365,-1,365,396,394,-1,365,394,392,-1,390,388,365,-1,365,388,387,-1,365,387,384,-1,382,380,367,-1,367,380,378,-1,367,378,372,-1,372,378,374,-1,400,401,402,-1,402,401,403,-1,402,403,404,-1,404,403,405,-1,404,405,406,-1,406,405,407,-1,401,400,408,-1,409,410,408,-1,408,410,411,-1,408,411,401,-1,403,401,405,-1,405,401,411,-1,406,407,412,-1,406,412,413,-1,413,412,414,-1,413,414,415,-1,415,414,416,-1,415,416,417,-1,417,416,418,-1,417,418,419,-1,419,418,420,-1,419,420,421,-1,421,420,422,-1,421,422,423,-1,423,422,424,-1,423,424,425,-1,425,424,426,-1,426,424,427,-1,426,427,428,-1,426,428,429,-1,429,428,430,-1,429,430,431,-1,431,430,432,-1,431,432,433,-1,433,432,434,-1,433,434,435,-1,435,434,436,-1,435,436,437,-1,437,436,438,-1,437,438,439,-1,439,438,410,-1,439,410,409,-1,411,410,405,-1,405,410,438,-1,405,432,430,-1,405,424,407,-1,407,424,422,-1,418,416,414,-1,438,436,405,-1,405,436,434,-1,405,434,432,-1,430,428,405,-1,405,428,427,-1,405,427,424,-1,422,420,407,-1,407,420,418,-1,407,418,412,-1,412,418,414,-1,440,441,442,-1,442,441,443,-1,442,443,444,-1,444,443,445,-1,444,445,446,-1,446,445,447,-1,441,440,448,-1,449,450,448,-1,448,450,451,-1,448,451,441,-1,443,441,445,-1,445,441,451,-1,446,447,452,-1,446,452,453,-1,453,452,454,-1,453,454,455,-1,455,454,456,-1,455,456,457,-1,457,456,458,-1,457,458,459,-1,459,458,460,-1,459,460,461,-1,461,460,462,-1,461,462,463,-1,463,462,464,-1,463,464,465,-1,465,464,466,-1,466,464,467,-1,466,467,468,-1,466,468,469,-1,469,468,470,-1,469,470,471,-1,471,470,472,-1,471,472,473,-1,473,472,474,-1,473,474,475,-1,475,474,476,-1,475,476,477,-1,477,476,478,-1,477,478,479,-1,479,478,450,-1,479,450,449,-1,447,445,451,-1,451,450,447,-1,447,450,478,-1,447,478,476,-1,476,474,447,-1,447,474,472,-1,447,472,470,-1,470,468,447,-1,447,468,467,-1,447,467,464,-1,464,462,447,-1,447,462,460,-1,447,460,458,-1,456,454,458,-1,458,454,452,-1,458,452,447,-1,480,481,482,-1,482,481,483,-1,482,483,484,-1,484,483,485,-1,484,485,486,-1,486,485,487,-1,481,480,488,-1,489,490,488,-1,488,490,491,-1,488,491,481,-1,483,481,485,-1,485,481,491,-1,486,487,492,-1,486,492,493,-1,493,492,494,-1,493,494,495,-1,495,494,496,-1,495,496,497,-1,497,496,498,-1,497,498,499,-1,499,498,500,-1,499,500,501,-1,501,500,502,-1,501,502,503,-1,503,502,504,-1,503,504,505,-1,505,504,506,-1,506,504,507,-1,506,507,508,-1,506,508,509,-1,509,508,510,-1,509,510,511,-1,511,510,512,-1,511,512,513,-1,513,512,514,-1,513,514,515,-1,515,514,516,-1,515,516,517,-1,517,516,518,-1,517,518,519,-1,519,518,490,-1,519,490,489,-1,496,494,491,-1,494,492,491,-1,491,492,487,-1,491,487,485,-1,502,500,491,-1,491,500,498,-1,491,498,496,-1,512,518,514,-1,514,518,516,-1,512,510,518,-1,518,510,508,-1,518,508,490,-1,490,508,507,-1,490,507,491,-1,491,507,504,-1,491,504,502,-1,520,521,522,-1,522,521,523,-1,522,523,524,-1,524,523,525,-1,524,525,526,-1,526,525,527,-1,521,520,528,-1,529,530,528,-1,528,530,531,-1,528,531,521,-1,523,521,525,-1,525,521,531,-1,526,527,532,-1,526,532,533,-1,533,532,534,-1,533,534,535,-1,535,534,536,-1,535,536,537,-1,537,536,538,-1,537,538,539,-1,539,538,540,-1,539,540,541,-1,541,540,542,-1,541,542,543,-1,543,542,544,-1,543,544,545,-1,545,544,546,-1,546,544,547,-1,546,547,548,-1,546,548,549,-1,549,548,550,-1,549,550,551,-1,551,550,552,-1,551,552,553,-1,553,552,554,-1,553,554,555,-1,555,554,556,-1,555,556,557,-1,557,556,558,-1,557,558,559,-1,559,558,530,-1,559,530,529,-1,548,547,530,-1,530,547,544,-1,530,544,531,-1,531,544,542,-1,531,542,540,-1,540,538,531,-1,531,538,536,-1,531,536,534,-1,534,532,531,-1,531,532,527,-1,531,527,525,-1,556,554,558,-1,558,554,552,-1,558,552,530,-1,530,552,550,-1,530,550,548,-1,560,561,562,-1,562,561,563,-1,562,563,564,-1,564,563,565,-1,564,565,566,-1,566,565,567,-1,561,560,568,-1,569,570,568,-1,568,570,571,-1,568,571,561,-1,563,561,565,-1,565,561,571,-1,566,567,572,-1,566,572,573,-1,573,572,574,-1,573,574,575,-1,575,574,576,-1,575,576,577,-1,577,576,578,-1,577,578,579,-1,579,578,580,-1,579,580,581,-1,581,580,582,-1,581,582,583,-1,583,582,584,-1,583,584,585,-1,585,584,586,-1,586,584,587,-1,586,587,588,-1,586,588,589,-1,589,588,590,-1,589,590,591,-1,591,590,592,-1,591,592,593,-1,593,592,594,-1,593,594,595,-1,595,594,596,-1,595,596,597,-1,597,596,598,-1,597,598,599,-1,599,598,570,-1,599,570,569,-1,588,587,570,-1,570,587,584,-1,570,584,571,-1,571,584,582,-1,571,582,580,-1,580,578,571,-1,571,578,576,-1,571,576,574,-1,574,572,571,-1,571,572,567,-1,571,567,565,-1,596,594,598,-1,598,594,592,-1,598,592,570,-1,570,592,590,-1,570,590,588,-1,600,601,602,-1,602,601,603,-1,602,603,604,-1,604,603,605,-1,604,605,606,-1,606,605,607,-1,601,600,608,-1,609,610,608,-1,608,610,611,-1,608,611,601,-1,603,601,605,-1,605,601,611,-1,606,607,612,-1,606,612,613,-1,613,612,614,-1,613,614,615,-1,615,614,616,-1,615,616,617,-1,617,616,618,-1,617,618,619,-1,619,618,620,-1,619,620,621,-1,621,620,622,-1,621,622,623,-1,623,622,624,-1,623,624,625,-1,625,624,626,-1,626,624,627,-1,626,627,628,-1,626,628,629,-1,629,628,630,-1,629,630,631,-1,631,630,632,-1,631,632,633,-1,633,632,634,-1,633,634,635,-1,635,634,636,-1,635,636,637,-1,637,636,638,-1,637,638,639,-1,639,638,610,-1,639,610,609,-1,616,614,611,-1,614,612,611,-1,611,612,607,-1,611,607,605,-1,622,620,611,-1,611,620,618,-1,611,618,616,-1,632,638,634,-1,634,638,636,-1,632,630,638,-1,638,630,628,-1,638,628,610,-1,610,628,627,-1,610,627,611,-1,611,627,624,-1,611,624,622,-1,640,641,642,-1,642,641,643,-1,644,640,645,-1,645,640,642,-1,646,644,647,-1,647,644,645,-1,648,646,649,-1,649,646,647,-1,641,648,643,-1,643,648,649,-1,
        ]
    }
}
Shape{
    appearance Appearance {
        material  Material 	{
            diffuseColor 0.34901960784313724 0.34901960784313724 0.34901960784313724
            specularColor 0.023529411764705882 0.023529411764705882 0.023529411764705882
            ambientIntensity 0.498
            transparency 0.0
            shininess 0.5
        }
    }
    geometry IndexedFaceSet {
        ccw TRUE
        solid FALSE
        coord DEF co Coordinate {
            point [
                -0.4331 0.4724 0.2874, -0.4331 0.4724 0.2953, -0.4344 0.4826 0.2874, -0.4344 0.4826 0.2953, -0.4383 0.4921 0.2874, -0.4383 0.4921 0.2953, -0.4446 0.5003 0.2874, -0.4446 0.5003 0.2953, -0.4528 0.5065 0.2874, -0.4528 0.5065 0.2953, -0.4623 0.5105 0.2874, -0.4623 0.5105 0.2953, -0.4724 0.5118 0.2874, -0.4724 0.5118 0.2953, -0.4826 0.5105 0.2874, -0.4826 0.5105 0.2953, -0.4921 0.5065 0.2874, -0.4921 0.5065 0.2953, -0.5003 0.5003 0.2874, -0.5003 0.5003 0.2953, -0.5065 0.4921 0.2874, -0.5065 0.4921 0.2953, -0.5105 0.4826 0.2874, -0.5105 0.4826 0.2953, -0.5118 0.4724 0.2874, -0.5118 0.4724 0.2953, -0.5105 0.4623 0.2874, -0.5105 0.4623 0.2953, -0.5065 0.4528 0.2874, -0.5065 0.4528 0.2953, -0.5003 0.4446 0.2874, -0.5003 0.4446 0.2953, -0.4921 0.4383 0.2874, -0.4921 0.4383 0.2953, -0.4826 0.4344 0.2874, -0.4826 0.4344 0.2953, -0.4724 0.4331 0.2874, -0.4724 0.4331 0.2953, -0.4623 0.4344 0.2874, -0.4623 0.4344 0.2953, -0.4528 0.4383 0.2874, -0.4528 0.4383 0.2953, -0.4446 0.4446 0.2874, -0.4446 0.4446 0.2953, -0.4383 0.4528 0.2874, -0.4383 0.4528 0.2953, -0.4344 0.4623 0.2874, -0.4344 0.4623 0.2953, -0.4724 0.4724 0.2874
            ]
        }
        coordIndex [
            0,1,2,-1,2,1,3,-1,2,3,4,-1,4,3,5,-1,4,5,6,-1,6,5,7,-1,6,7,8,-1,8,7,9,-1,8,9,10,-1,10,9,11,-1,10,11,12,-1,12,11,13,-1,12,13,14,-1,14,13,15,-1,14,15,16,-1,16,15,17,-1,16,17,18,-1,18,17,19,-1,18,19,20,-1,20,19,21,-1,20,21,22,-1,22,21,23,-1,22,23,24,-1,24,23,25,-1,24,25,26,-1,26,25,27,-1,26,27,28,-1,28,27,29,-1,28,29,30,-1,30,29,31,-1,30,31,32,-1,32,31,33,-1,32,33,34,-1,34,33,35,-1,34,35,36,-1,36,35,37,-1,36,37,38,-1,38,37,39,-1,38,39,40,-1,40,39,41,-1,40,41,42,-1,42,41,43,-1,42,43,44,-1,44,43,45,-1,44,45,46,-1,46,45,47,-1,46,47,0,-1,0,47,1,-1,44,46,48,-1,48,46,0,-1,48,0,2,-1,38,40,48,-1,48,40,42,-1,48,42,44,-1,32,34,48,-1,48,34,36,-1,48,36,38,-1,26,28,48,-1,48,28,30,-1,48,30,32,-1,20,22,48,-1,48,22,24,-1,48,24,26,-1,14,16,48,-1,48,16,18,-1,48,18,20,-1,8,10,48,-1,48,10,12,-1,48,12,14,-1,2,4,48,-1,48,4,6,-1,48,6,8,-1,
        ]
    }
}
Shape{
    appearance Appearance {
        material  Material 	{
            diffuseColor 1.0 1.0 1.0
            specularColor 0.8784313725490196 0.8784313725490196 0.8784313725490196
            ambientIntensity 1.0
            transparency 0.0
            shininess 0.5
        }
    }
    geometry IndexedFaceSet {
        ccw TRUE
        solid FALSE
        coord DEF co Coordinate {
            point [
                -0.0667 0.0116 0.0079, -0.0821 -0.0277 0.0079, -0.0667 0.0116 0.0, -0.0821 -0.0277 0.0, -0.0763 -0.0277 0.0079, -0.0763 -0.0277 0.0, -0.0724 -0.0167 0.0079, -0.0724 -0.0167 0.0, -0.0561 -0.0167 0.0079, -0.0561 -0.0167 0.0, -0.0523 -0.0277 0.0079, -0.0523 -0.0277 0.0, -0.0466 -0.0277 0.0079, -0.0466 -0.0277 0.0, -0.0615 0.0116 0.0079, -0.0615 0.0116 0.0, -0.0574 -0.0124 0.0079, -0.0706 -0.0124 0.0079, -0.0633 0.0041 0.0079, -0.0637 0.0054 0.0079, -0.0639 0.0068 0.0079, -0.0641 0.0068 0.0079, -0.0643 0.0054 0.0079, -0.0647 0.0041 0.0079, -0.0574 -0.0124 0.0, -0.0706 -0.0124 0.0, -0.0633 0.0041 0.0, -0.0637 0.0054 0.0, -0.0639 0.0068 0.0, -0.0641 0.0068 0.0, -0.0643 0.0054 0.0, -0.0647 0.0041 0.0, -0.0227 -0.0277 0.0079, -0.012 -0.0277 0.0079, -0.0227 -0.0277 0.0, -0.012 -0.0277 0.0, -0.012 0.0116 0.0079, -0.012 0.0116 0.0, -0.0231 0.0116 0.0079, -0.0231 0.0116 0.0, -0.0437 -0.0076 0.0079, -0.0437 -0.0076 0.0, -0.0434 -0.0039 0.0, -0.0434 -0.0039 0.0079, -0.0423 0.0 0.0, -0.0423 0.0 0.0079, -0.0405 0.0034 0.0, -0.0405 0.0034 0.0079, -0.0377 0.0065 0.0, -0.0377 0.0065 0.0079, -0.0377 0.0065 0.0, -0.0377 0.0065 0.0079, -0.0334 0.0094 0.0, -0.0334 0.0094 0.0079, -0.0288 0.011 0.0, -0.0288 0.011 0.0079, -0.0276 -0.0273 0.0, -0.0276 -0.0273 0.0079, -0.0321 -0.026 0.0, -0.0321 -0.026 0.0079, -0.0362 -0.0236 0.0, -0.0362 -0.0236 0.0079, -0.0395 -0.0205 0.0, -0.0395 -0.0205 0.0079, -0.0417 -0.0169 0.0, -0.0417 -0.0169 0.0079, -0.0431 -0.0128 0.0, -0.0431 -0.0128 0.0079, -0.0358 0.0018 0.0079, -0.0339 0.0038 0.0079, -0.031 0.0057 0.0079, -0.0278 0.0068 0.0079, -0.0231 0.0073 0.0079, -0.0173 0.0073 0.0079, -0.0173 -0.0234 0.0079, -0.0229 -0.0234 0.0079, -0.027 -0.023 0.0079, -0.0303 -0.022 0.0079, -0.033 -0.0204 0.0079, -0.0352 -0.0182 0.0079, -0.0369 -0.0155 0.0079, -0.038 -0.0118 0.0079, -0.0384 -0.0077 0.0079, -0.0381 -0.0038 0.0079, -0.0372 -0.0006 0.0079, -0.0231 0.0073 0.0, -0.0173 0.0073 0.0, -0.0278 0.0068 0.0, -0.031 0.0057 0.0, -0.0339 0.0038 0.0, -0.0358 0.0018 0.0, -0.0372 -0.0006 0.0, -0.0381 -0.0038 0.0, -0.0384 -0.0077 0.0, -0.038 -0.0118 0.0, -0.0369 -0.0155 0.0, -0.0352 -0.0182 0.0, -0.033 -0.0204 0.0, -0.0303 -0.022 0.0, -0.027 -0.023 0.0, -0.0229 -0.0234 0.0, -0.0173 -0.0234 0.0, -0.0043 -0.0234 0.0079, -0.0043 -0.0277 0.0079, -0.0043 -0.0234 0.0, -0.0043 -0.0277 0.0, 0.0168 -0.0277 0.0079, 0.0168 -0.0277 0.0, 0.0168 0.0116 0.0079, 0.0168 0.0116 0.0, -0.0034 0.0116 0.0079, -0.0034 0.0116 0.0, -0.0034 0.0073 0.0079, -0.0034 0.0073 0.0, 0.0115 0.0073 0.0079, 0.0115 0.0073 0.0, 0.0115 -0.0057 0.0079, 0.0115 -0.0057 0.0, -0.0024 -0.0057 0.0079, -0.0024 -0.0057 0.0, -0.0024 -0.01 0.0079, -0.0024 -0.01 0.0, 0.0115 -0.01 0.0079, 0.0115 -0.01 0.0, 0.0115 -0.0234 0.0079, 0.0115 -0.0234 0.0, 0.0245 -0.0214 0.0079, 0.0245 -0.0257 0.0079, 0.0245 -0.0214 0.0, 0.0245 -0.0257 0.0, 0.0287 -0.0274 0.0079, 0.0353 -0.0282 0.0079, 0.0353 -0.0282 0.0, 0.0342 -0.0282 0.0, 0.0342 -0.0282 0.0079, 0.0327 -0.028 0.0, 0.0287 -0.0274 0.0, 0.0376 -0.028 0.0, 0.0402 -0.0277 0.0079, 0.0402 -0.0277 0.0, 0.044 -0.0264 0.0079, 0.044 -0.0264 0.0, 0.0472 -0.0244 0.0079, 0.0472 -0.0244 0.0, 0.0501 -0.0213 0.0079, 0.0501 -0.0213 0.0, 0.0522 -0.0175 0.0079, 0.0522 -0.0175 0.0, 0.0534 -0.0134 0.0079, 0.0534 -0.0134 0.0, 0.0538 -0.0088 0.0079, 0.0538 -0.0088 0.0, 0.0338 0.0121 0.0079, 0.0338 0.0121 0.0, 0.0377 0.0118 0.0, 0.0377 0.0118 0.0079, 0.0421 0.0105 0.0, 0.0421 0.0105 0.0079, 0.0458 0.0084 0.0, 0.0458 0.0084 0.0079, 0.0494 0.0049 0.0, 0.0494 0.0049 0.0079, 0.0517 0.0013 0.0, 0.0517 0.0013 0.0079, 0.0532 -0.0032 0.0, 0.0532 -0.0032 0.0079, 0.0245 0.0105 0.0079, 0.0245 0.0105 0.0, 0.029 0.0118 0.0, 0.029 0.0118 0.0079, 0.0245 0.0053 0.0079, 0.0245 0.0053 0.0, 0.0337 0.0078 0.0079, 0.0337 0.0078 0.0, 0.0289 0.0072 0.0, 0.0289 0.0072 0.0079, 0.0485 -0.0085 0.0079, 0.0485 -0.0085 0.0, 0.0483 -0.0054 0.0, 0.0483 -0.0054 0.0079, 0.0473 -0.0012 0.0, 0.0473 -0.0012 0.0079, 0.0456 0.0018 0.0, 0.0456 0.0018 0.0079, 0.0433 0.0045 0.0, 0.0433 0.0045 0.0079, 0.0405 0.0063 0.0, 0.0405 0.0063 0.0079, 0.0376 0.0074 0.0, 0.0376 0.0074 0.0079, 0.0346 -0.0239 0.0079, 0.0346 -0.0239 0.0, 0.0383 -0.0235 0.0, 0.0383 -0.0235 0.0079, 0.0411 -0.0224 0.0, 0.0411 -0.0224 0.0079, 0.0435 -0.0208 0.0, 0.0435 -0.0208 0.0079, 0.0454 -0.0189 0.0, 0.0454 -0.0189 0.0079, 0.047 -0.0161 0.0, 0.047 -0.0161 0.0079, 0.0481 -0.0127 0.0, 0.0481 -0.0127 0.0079, 0.0252 -0.0218 0.0, 0.0252 -0.0218 0.0079, 0.0294 -0.0233 0.0, 0.0294 -0.0233 0.0079, 0.0571 -0.0234 0.0079, 0.0571 -0.0277 0.0079, 0.0571 -0.0234 0.0, 0.0571 -0.0277 0.0, 0.0773 -0.0277 0.0079, 0.0773 -0.0277 0.0, 0.0773 0.0116 0.0079, 0.0773 0.0116 0.0, 0.072 0.0116 0.0079, 0.072 0.0116 0.0, 0.072 -0.0234 0.0079, 0.072 -0.0234 0.0
            ]
        }
        coordIndex [
            0,1,2,-1,2,1,3,-1,1,4,3,-1,3,4,5,-1,4,6,5,-1,5,6,7,-1,6,8,7,-1,7,8,9,-1,8,10,9,-1,9,10,11,-1,10,12,11,-1,11,12,13,-1,12,14,13,-1,13,14,15,-1,14,0,15,-1,15,0,2,-1,16,8,17,-1,17,8,6,-1,18,14,16,-1,16,14,12,-1,16,12,8,-1,8,12,10,-1,18,19,14,-1,14,19,20,-1,14,20,0,-1,0,20,21,-1,0,21,22,-1,22,23,0,-1,0,23,17,-1,0,17,1,-1,1,17,6,-1,1,6,4,-1,16,17,24,-1,24,17,25,-1,18,16,26,-1,26,16,24,-1,18,26,27,-1,18,27,19,-1,19,27,28,-1,19,28,20,-1,21,20,29,-1,29,20,28,-1,21,29,30,-1,21,30,22,-1,22,30,31,-1,22,31,23,-1,17,23,25,-1,25,23,31,-1,32,33,34,-1,34,33,35,-1,33,36,35,-1,35,36,37,-1,36,38,37,-1,37,38,39,-1,40,41,42,-1,40,42,43,-1,43,42,44,-1,43,44,45,-1,45,44,46,-1,45,46,47,-1,47,46,48,-1,47,48,49,-1,49,48,50,-1,49,50,51,-1,51,50,52,-1,51,52,53,-1,53,52,54,-1,53,54,55,-1,55,54,39,-1,55,39,38,-1,32,34,56,-1,32,56,57,-1,57,56,58,-1,57,58,59,-1,59,58,60,-1,59,60,61,-1,61,60,62,-1,61,62,63,-1,63,62,64,-1,63,64,65,-1,65,64,66,-1,65,66,67,-1,67,66,41,-1,67,41,40,-1,45,47,68,-1,68,47,49,-1,68,49,69,-1,69,49,51,-1,69,51,70,-1,70,51,53,-1,70,53,71,-1,71,53,55,-1,71,55,72,-1,72,55,38,-1,72,38,73,-1,73,38,36,-1,73,36,74,-1,74,36,33,-1,74,33,75,-1,75,33,32,-1,75,32,76,-1,76,32,57,-1,76,57,77,-1,77,57,59,-1,77,59,78,-1,78,59,61,-1,78,61,79,-1,79,61,63,-1,79,63,80,-1,80,63,65,-1,80,65,81,-1,81,65,67,-1,81,67,82,-1,82,67,40,-1,82,40,83,-1,83,40,43,-1,83,43,84,-1,84,43,45,-1,84,45,68,-1,72,73,85,-1,85,73,86,-1,72,85,87,-1,72,87,71,-1,71,87,88,-1,71,88,70,-1,70,88,89,-1,70,89,69,-1,69,89,90,-1,69,90,68,-1,68,90,91,-1,68,91,84,-1,84,91,92,-1,84,92,83,-1,83,92,93,-1,83,93,82,-1,82,93,94,-1,82,94,81,-1,81,94,95,-1,81,95,80,-1,80,95,96,-1,80,96,79,-1,79,96,97,-1,79,97,78,-1,78,97,98,-1,78,98,77,-1,77,98,99,-1,77,99,76,-1,76,99,100,-1,76,100,75,-1,74,75,101,-1,101,75,100,-1,73,74,86,-1,86,74,101,-1,102,103,104,-1,104,103,105,-1,103,106,105,-1,105,106,107,-1,106,108,107,-1,107,108,109,-1,108,110,109,-1,109,110,111,-1,110,112,111,-1,111,112,113,-1,112,114,113,-1,113,114,115,-1,114,116,115,-1,115,116,117,-1,116,118,117,-1,117,118,119,-1,118,120,119,-1,119,120,121,-1,120,122,121,-1,121,122,123,-1,122,124,123,-1,123,124,125,-1,124,102,125,-1,125,102,104,-1,106,103,102,-1,102,124,106,-1,106,124,122,-1,106,122,108,-1,112,110,114,-1,114,110,108,-1,114,108,116,-1,116,108,122,-1,116,122,118,-1,118,122,120,-1,126,127,128,-1,128,127,129,-1,129,127,130,-1,131,132,133,-1,131,133,134,-1,134,133,135,-1,134,135,130,-1,130,135,136,-1,130,136,129,-1,132,131,137,-1,137,131,138,-1,137,138,139,-1,139,138,140,-1,139,140,141,-1,141,140,142,-1,141,142,143,-1,143,142,144,-1,143,144,145,-1,145,144,146,-1,145,146,147,-1,147,146,148,-1,147,148,149,-1,149,148,150,-1,149,150,151,-1,152,153,154,-1,152,154,155,-1,155,154,156,-1,155,156,157,-1,157,156,158,-1,157,158,159,-1,159,158,160,-1,159,160,161,-1,161,160,162,-1,161,162,163,-1,163,162,164,-1,163,164,165,-1,165,164,151,-1,165,151,150,-1,166,167,168,-1,166,168,169,-1,169,168,153,-1,169,153,152,-1,166,170,167,-1,167,170,171,-1,172,173,174,-1,172,174,175,-1,175,174,171,-1,175,171,170,-1,176,177,178,-1,176,178,179,-1,179,178,180,-1,179,180,181,-1,181,180,182,-1,181,182,183,-1,183,182,184,-1,183,184,185,-1,185,184,186,-1,185,186,187,-1,187,186,188,-1,187,188,189,-1,189,188,173,-1,189,173,172,-1,190,191,192,-1,190,192,193,-1,193,192,194,-1,193,194,195,-1,195,194,196,-1,195,196,197,-1,197,196,198,-1,197,198,199,-1,199,198,200,-1,199,200,201,-1,201,200,202,-1,201,202,203,-1,203,202,177,-1,203,177,176,-1,126,128,204,-1,126,204,205,-1,205,204,206,-1,205,206,207,-1,207,206,191,-1,207,191,190,-1,193,131,190,-1,190,131,134,-1,190,134,207,-1,207,134,130,-1,207,130,205,-1,205,130,127,-1,205,127,126,-1,170,166,175,-1,175,166,169,-1,175,169,172,-1,172,169,152,-1,172,152,189,-1,189,152,155,-1,189,155,187,-1,187,155,157,-1,187,157,185,-1,185,157,159,-1,185,159,183,-1,183,159,161,-1,183,161,181,-1,181,161,163,-1,181,163,179,-1,179,163,165,-1,179,165,176,-1,176,165,150,-1,176,150,203,-1,203,150,148,-1,203,148,201,-1,201,148,146,-1,201,146,199,-1,199,146,144,-1,199,144,197,-1,197,144,142,-1,197,142,195,-1,195,142,140,-1,195,140,193,-1,193,140,138,-1,193,138,131,-1,208,209,210,-1,210,209,211,-1,209,212,211,-1,211,212,213,-1,212,214,213,-1,213,214,215,-1,214,216,215,-1,215,216,217,-1,216,218,217,-1,217,218,219,-1,218,208,219,-1,219,208,210,-1,216,214,218,-1,218,214,212,-1,218,212,208,-1,208,212,209,-1,
        ]
    }
}
Shape{
    appearance Appearance {
        material  Material 	{
            diffuseColor 0.6666666666666666 0.6666666666666666 0.6666666666666666
            specularColor 0.4666666666666667 0.4666666666666667 0.4666666666666667
            ambientIntensity 0.6667
            transparency 0.0
            shininess 0.5
        }
    }
    geometry IndexedFaceSet {
        ccw TRUE
        solid FALSE
        coord DEF co Coordinate {
            point [
                -0.0574 -0.0124 0.0, -0.0706 -0.0124 0.0, -0.0633 0.0041 0.0, -0.0647 0.0041 0.0, -0.0637 0.0054 0.0, -0.0643 0.0054 0.0, -0.0639 0.0068 0.0, -0.0641 0.0068 0.0, -0.0173 0.0073 0.0, -0.0173 -0.0234 0.0, -0.0231 0.0073 0.0, -0.0229 -0.0234 0.0, -0.027 -0.023 0.0, -0.0384 -0.0077 0.0, -0.0381 -0.0038 0.0, -0.0372 -0.0006 0.0, -0.0278 0.0068 0.0, -0.0303 -0.022 0.0, -0.033 -0.0204 0.0, -0.0352 -0.0182 0.0, -0.0369 -0.0155 0.0, -0.038 -0.0118 0.0, -0.0358 0.0018 0.0, -0.0339 0.0038 0.0, -0.031 0.0057 0.0
            ]
        }
        coordIndex [
            0,1,2,-1,2,1,3,-1,2,3,4,-1,4,3,5,-1,4,5,6,-1,6,5,7,-1,8,9,10,-1,10,9,11,-1,10,11,12,-1,13,14,10,-1,10,14,15,-1,10,15,16,-1,12,17,10,-1,10,17,18,-1,10,18,19,-1,19,20,10,-1,10,20,21,-1,10,21,13,-1,22,23,15,-1,15,23,24,-1,15,24,16,-1,
        ]
    }
}